<?xml version="1.0" encoding="UTF-8" standalone="no"?>
<!-- Created with Inkscape (http://www.inkscape.org/) -->
<svg
   xmlns:dc="http://purl.org/dc/elements/1.1/"
   xmlns:cc="http://creativecommons.org/ns#"
   xmlns:rdf="http://www.w3.org/1999/02/22-rdf-syntax-ns#"
   xmlns:svg="http://www.w3.org/2000/svg"
   xmlns="http://www.w3.org/2000/svg"
   xmlns:xlink="http://www.w3.org/1999/xlink"
   xmlns:sodipodi="http://sodipodi.sourceforge.net/DTD/sodipodi-0.dtd"
   xmlns:inkscape="http://www.inkscape.org/namespaces/inkscape"
   width="210mm"
   height="297mm"
   id="svg2"
   sodipodi:version="0.32"
   inkscape:version="0.46"
   sodipodi:docname="tux.svg"
   inkscape:output_extension="org.inkscape.output.svg.inkscape">
  <defs
     id="defs4">
    <linearGradient
       id="linearGradient3253">
      <stop
         id="stop3255"
         offset="0"
         style="stop-color:#927f0c;stop-opacity:1;" />
      <stop
         id="stop3257"
         offset="1"
         style="stop-color:#ffcf00;stop-opacity:1;" />
    </linearGradient>
    <linearGradient
       id="linearGradient3232">
      <stop
         style="stop-color:#b69f1f;stop-opacity:1;"
         offset="0"
         id="stop3234" />
      <stop
         style="stop-color:#ffe900;stop-opacity:1;"
         offset="1"
         id="stop3236" />
    </linearGradient>
    <linearGradient
       id="linearGradient3224">
      <stop
         id="stop3226"
         offset="0"
         style="stop-color:#f9a306;stop-opacity:1;" />
      <stop
         id="stop3228"
         offset="1"
         style="stop-color:#fadf0f;stop-opacity:1;" />
    </linearGradient>
    <inkscape:perspective
       sodipodi:type="inkscape:persp3d"
       inkscape:vp_x="0 : 526.18109 : 1"
       inkscape:vp_y="0 : 1000 : 0"
       inkscape:vp_z="744.09448 : 526.18109 : 1"
       inkscape:persp3d-origin="372.04724 : 350.78739 : 1"
       id="perspective10" />
    <inkscape:perspective
       id="perspective2390"
       inkscape:persp3d-origin="372.04724 : 350.78739 : 1"
       inkscape:vp_z="744.09448 : 526.18109 : 1"
       inkscape:vp_y="0 : 1000 : 0"
       inkscape:vp_x="0 : 526.18109 : 1"
       sodipodi:type="inkscape:persp3d" />
    <linearGradient
       inkscape:collect="always"
       xlink:href="#linearGradient3224"
       id="linearGradient3222"
       x1="313.04419"
       y1="331.43365"
       x2="376.95773"
       y2="334.64795"
       gradientUnits="userSpaceOnUse"
       gradientTransform="translate(38.571424,8.5714284)" />
    <linearGradient
       inkscape:collect="always"
       xlink:href="#linearGradient3224"
       id="linearGradient3238"
       x1="256.28571"
       y1="356.29385"
       x2="260.4603"
       y2="389.8425"
       gradientUnits="userSpaceOnUse"
       gradientTransform="translate(37.142854,10)" />
    <radialGradient
       inkscape:collect="always"
       xlink:href="#linearGradient3253"
       id="radialGradient3251"
       cx="171.21173"
       cy="701.28033"
       fx="171.21173"
       fy="701.28033"
       r="99.353882"
       gradientTransform="matrix(1,0,0,1.0131654,38.571424,-0.6612396)"
       gradientUnits="userSpaceOnUse"
       spreadMethod="pad" />
    <radialGradient
       inkscape:collect="always"
       xlink:href="#linearGradient3253"
       id="radialGradient3261"
       gradientUnits="userSpaceOnUse"
       gradientTransform="matrix(0.2577335,0.9176201,-1.0117564,0.2399488,1199.4126,383.5142)"
       spreadMethod="pad"
       cx="171.21173"
       cy="701.28033"
       fx="171.21173"
       fy="701.28033"
       r="99.353882" />
  </defs>
  <sodipodi:namedview
     id="base"
     pagecolor="#ffffff"
     bordercolor="#666666"
     borderopacity="1.0"
     inkscape:pageopacity="0.0"
     inkscape:pageshadow="2"
     inkscape:zoom="0.35"
     inkscape:cx="907.95207"
     inkscape:cy="879.27454"
     inkscape:document-units="px"
     inkscape:current-layer="layer1"
     showgrid="false"
     inkscape:window-width="1280"
     inkscape:window-height="950"
     inkscape:window-x="0"
     inkscape:window-y="24" />
  <metadata
     id="metadata7">
    <rdf:RDF>
      <cc:Work
         rdf:about="">
        <dc:format>image/svg+xml</dc:format>
        <dc:type
           rdf:resource="http://purl.org/dc/dcmitype/StillImage" />
      </cc:Work>
    </rdf:RDF>
  </metadata>
  <g
     inkscape:label="Calque 1"
     inkscape:groupmode="layer"
     id="layer1">
    <path
       style="fill:url(#radialGradient3261);fill-opacity:1;fill-rule:nonzero;stroke:none;stroke-width:0.98862696px;stroke-linecap:butt;stroke-linejoin:miter;stroke-opacity:1"
       d="M 477.40201,814.81307 C 473.6871,805.85095 468.11421,809.75984 461.1452,804.13225 C 454.19156,795.4509 448.36616,781.33319 444.31899,769.38206 C 443.35916,758.15459 447.54509,747.23744 449.23607,736.20237 C 451.89013,725.00518 452.96016,710.68471 451.31535,699.64148 C 450.71413,687.2646 451.48589,680.42599 451.7085,668.06197 C 454.31185,656.56262 451.27146,642.04814 456.49079,631.19046 C 463.47572,620.81941 463.78993,617.91147 472.10972,619.75817 C 481.46363,621.59012 484.9698,625.0942 494.37352,625.39634 C 505.52116,633.17424 508.63167,630.17162 518.90094,625.21019 C 528.86301,623.26208 544.78441,611.4878 569.40759,609.7837 C 575.38281,609.54508 575.17657,616.81397 577.98699,618.86817 C 580.24547,620.51895 587.59699,620.96896 588.66311,624.6496 C 591.45809,633.74554 592.43693,638.45239 592.93091,647.91633 C 596.55227,657.49214 609.78448,655.10051 617.49942,659.90912 C 627.10515,663.13889 632.95294,675.37738 632.62817,683.97051 C 632.26968,692.10795 632.61214,703.82942 621.60002,707.90827 C 610.52824,715.05606 604.17076,727.56995 593.36209,735.08416 C 580.91381,745.2749 572.11675,755.60439 558.95984,764.9582 C 549.42878,774.96265 545.6781,780.00996 535.96369,789.88089 C 529.7659,801.12889 509.07452,807.11942 497.89746,813.2466 C 491.39232,816.35299 484.27655,818.1876 477.40201,814.81307 z"
       id="path3259"
       sodipodi:nodetypes="cccccccccccscccccccccc" />
    <path
       style="fill:#030000;fill-opacity:1;fill-rule:evenodd;stroke:#000000;stroke-width:1px;stroke-linecap:butt;stroke-linejoin:miter;stroke-opacity:1"
       d="M 175.71427,628.0765 C 178.7057,607.99551 177.82771,600.9836 179.02502,572.41313 C 199.53034,552.34045 194.37362,542.57605 208.6316,517.31525 C 221.85749,491.13816 218.56436,476.10065 229.99999,458.79075 C 239.28837,437.44557 257.4718,430.03341 272.42285,404.26595 C 286.33433,376.30546 280.29867,362.13633 280.35714,339.68362 C 280.0353,310.11863 280.1256,280.91563 281.23945,251.42988 C 279.54477,214.45619 283.57532,208.66358 306.34887,188.84746 C 326.49871,171.31434 339.61024,169.47928 374.49018,168.87907 C 399.91602,170.58557 440.00163,186.28704 449.78973,212.32157 C 464.58749,229.31537 461.98881,253.22521 465.86368,274.43297 C 471.0253,293.98004 468.392,314.72181 470.63914,342.26735 C 476.52685,366.80395 486.18788,376.43931 496.7848,401.29456 C 508.18624,424.3107 523.03537,433.81687 540.71428,463.07647 C 553.17466,484.15491 564.25389,503.8968 568.57143,527.71931 C 572.39826,548.83435 575.12755,560.12135 573.57143,584.1479 C 575.1431,615.04947 568.31407,631.45329 551.01614,641.24161 C 539.07964,661.24194 514.26189,666.85806 497.4412,655.15912 C 488.96722,634.92352 488.98811,629.38794 486.04394,608.04894 C 480.50098,587.79285 481.91998,554.98139 483.10824,526.82638 C 475.55542,504.41279 478.78854,507.86502 452.33777,472.78947 C 436.0494,424.237 446.16256,433.43801 439.19388,415.54325 C 428.76639,399.01523 423.57968,374.17912 422.25992,351.73145 C 421.81769,344.20966 417.44748,338.34452 418.57143,331.65444 C 422.34436,307.03891 431.04578,279.73423 404.17441,265.56037 C 384.25982,250.97949 369.93384,268.46761 362.50771,306.83659 C 367.48731,319.49927 358.85068,320.44292 349.31923,321.22272 C 341.19599,321.88731 337.33066,329.95502 338.99518,310.32566 C 336.73451,266.3443 290.96452,256.77018 295.13026,295.84746 C 293.01695,315.66117 291.66254,324.32497 293.87491,354.19243 C 300.17327,375.18022 297.55308,401.81547 289.69611,425.61927 C 277.43944,442.38302 272.35437,465.61935 268.98405,486.25691 C 259.7153,504.77101 241.33839,515.97418 238.60626,537.22279 C 229.32616,561.13151 230.4197,587.33916 232.85713,612.36218 C 241.20908,635.16389 268.56637,639.2977 283.5847,656.38305 C 310.63506,666.40672 326.73612,708.11634 280.00007,711.32164 C 268.55618,693.17359 268.98116,689.25315 246.83189,655.1365 C 236.43971,636.46593 228.52287,610.64209 204.54264,609.04684 C 189.37403,602.99484 186.96131,614.61097 175.71427,628.0765 z"
       id="path2422"
       sodipodi:nodetypes="cccccccsccccccscccccccscccscccccccccccc" />
    <path
       style="fill:#fef8f8;fill-opacity:1;fill-rule:nonzero;stroke:none;stroke-width:0.40000001;stroke-linejoin:miter;stroke-miterlimit:4;stroke-opacity:1"
       d="M 337.80329,309.02009 C 337.80329,316.16928 323.83637,316.10932 318.47716,323.15927 C 311.34871,332.53663 294.19152,349.56608 293.85985,343.16005 C 292.06379,308.46951 291.7857,312.05647 291.7857,295.3979 C 291.7857,278.73933 301.14989,267.54922 312.14285,265.21933 C 327.30856,262.00504 337.80329,292.36152 337.80329,309.02009 z"
       id="path2433"
       sodipodi:nodetypes="cssssc" />
    <path
       style="fill:#000000;fill-opacity:1;fill-rule:nonzero;stroke:none;stroke-width:0.24228697;stroke-linejoin:miter;stroke-miterlimit:4;stroke-opacity:1"
       d="M 325.63377,307.04868 C 330.11069,317.08601 331.29309,322.2544 321.32464,329.65291 C 318.12104,332.03059 315.33803,336.4102 312.88479,336.52832 C 308.03984,336.76161 304.48109,329.6962 301.50906,323.03286 C 297.03214,312.99553 298.80263,301.26883 305.46105,296.8572 C 312.11947,292.44556 321.15685,297.01135 325.63377,307.04868 z"
       id="path3206"
       sodipodi:nodetypes="cssssc" />
    <path
       style="fill:#fef8f8;fill-opacity:1;fill-rule:nonzero;stroke:none;stroke-width:0.40000001;stroke-linejoin:miter;stroke-miterlimit:4;stroke-dasharray:none;stroke-opacity:1"
       d="M 363.4387,309.19278 C 363.4387,316.34197 372.31047,317.37872 379.48184,322.57433 C 389.46743,329.80883 416.57182,334.48163 418.04567,328.23865 C 423.20088,306.40217 425.76602,304.43135 419.98676,282.63421 C 411.1636,262.72258 392.27087,258.26872 382.53315,263.87678 C 369.5103,271.37678 363.4387,292.53421 363.4387,309.19278 z"
       id="path3209"
       sodipodi:nodetypes="csscsc" />
    <path
       style="fill:#000000;fill-opacity:1;fill-rule:nonzero;stroke:none;stroke-width:0.24228697;stroke-linejoin:miter;stroke-miterlimit:4;stroke-opacity:1"
       d="M 380.82944,301.3201 C 377.97966,307.70935 372.89337,313.5543 374.73979,317.82884 C 375.79404,320.26949 381.51552,321.23532 385.13857,323.92432 C 394.66901,330.99774 400.47723,327.3416 404.95415,317.30427 C 409.43107,307.26694 407.66058,295.54024 401.00217,291.12861 C 394.34375,286.71698 385.30636,291.28277 380.82944,301.3201 z"
       id="path3211"
       sodipodi:nodetypes="cssssc" />
    <path
       style="fill:url(#linearGradient3222);fill-opacity:1;fill-rule:evenodd;stroke:#ca7618;stroke-width:0.60000002;stroke-linecap:butt;stroke-linejoin:miter;stroke-miterlimit:4;stroke-dasharray:none;stroke-opacity:0.87213117"
       d="M 293.77632,345.77669 C 292.84478,355.06933 296.10897,357.24809 307.46437,366.64664 C 317.70721,374.41805 329.72197,377.46996 342.43528,378.43361 C 357.14906,379.39869 372.13691,373.0337 384.97177,367.10999 C 398.10305,356.94471 406.44321,348.94361 418.15416,329.48431 C 412.72545,329.63198 407.20568,329.6062 391.82454,325.86246 C 376.24439,319.95398 378.96807,318.75807 368.94753,314.13436 C 365.21145,311.56105 360.99169,308.67144 356.30234,310.71168 C 350.35711,312.2726 344.14715,311.54985 338.07297,311.53181 C 330.64938,315.62698 334.50864,321.45162 317.96305,330.02486 C 308.28134,335.74519 303.7417,340.5738 293.77632,345.77669 z"
       id="path3213"
       sodipodi:nodetypes="ccccccccccc" />
    <path
       style="fill:url(#linearGradient3238);fill-opacity:1;fill-rule:evenodd;stroke:#f4951b;stroke-width:1px;stroke-linecap:butt;stroke-linejoin:miter;stroke-opacity:1"
       d="M 293.92856,354.86218 C 308.74999,380.75504 316.42856,397.8979 344.82142,399.32647 C 370.81852,399.90501 386.11857,391.18689 403.03572,372.00503 C 417.25,350.36217 417.60966,339.83163 417.94643,330.21933 C 408.72557,344.65917 410.4697,344.78855 401.60714,353.52289 C 396.01061,359.03846 400.26786,359.59433 373.12499,373.25504 C 356.34622,381.69962 347.05357,378.96932 332.76785,377.89789 C 318.48214,376.82647 302.42861,364.06335 299.28571,360.75504 C 295.89285,357.18361 293.92856,355.21932 293.92856,354.86218 z"
       id="path3230"
       sodipodi:nodetypes="ccccssssc" />
    <path
       style="fill:url(#radialGradient3251);fill-opacity:1;fill-rule:nonzero;stroke:none;stroke-width:1px;stroke-linecap:butt;stroke-linejoin:miter;stroke-opacity:1"
       d="M 304.28571,790.93361 C 294.22874,792.05806 296.8722,798.32096 289.43371,803.3799 C 278.87887,807.61908 263.04301,809.36546 249.85166,810.01366 C 238.14778,807.9542 228.00782,801.14533 217.14285,796.6479 C 206.3456,791.20342 191.97341,786.42254 180.2918,785.0547 C 167.50045,782.35541 160.70032,779.82751 148.12173,776.35815 C 137.00349,770.88164 121.43707,769.90869 111.60829,762.14536 C 112.47467,742.14161 108.8874,743.76225 112.79019,736.43816 C 116.92848,728.13927 112.28041,733.80016 114.86775,725.05111 C 116.11493,713.8522 118.20163,711.49545 115.62081,700.54578 C 116.04432,690.67916 112.87226,674.055 117.09763,650.48806 C 118.30169,644.81528 125.67846,646.9257 128.45828,644.82881 C 130.69216,643.14373 132.93329,636.3604 136.9522,636.33004 C 146.92293,636.10455 151.96919,636.42674 161.75836,638.45859 C 172.41963,637.58376 173.18237,624.52998 179.96481,618.55479 C 185.5923,610.3881 199.51357,608.12515 208.21462,610.69604 C 216.44192,613.17844 228.50093,615.94783 229.99999,627.36219 C 234.6202,639.64183 245.86537,648.91045 250.92371,661.03971 C 258.3194,675.4141 266.7416,686.39712 273.11047,701.21611 C 281.02271,712.80254 285.27081,717.65484 293.0022,729.37818 C 302.99269,738.16308 304.09956,759.16895 307.65147,771.2783 C 309.24903,778.20482 309.39924,785.36928 304.28571,790.93361 z"
       id="path3240"
       sodipodi:nodetypes="cccccccccccscccccccccc" />
    <path
       style="fill:#ffffff;fill-opacity:1;fill-rule:evenodd;stroke:none;stroke-width:1px;stroke-linecap:butt;stroke-linejoin:miter;stroke-opacity:1"
       d="M 296.07141,360.93361 C 294.76385,376.20261 297.04311,405.75331 291.77796,424.26476 C 280.2722,444.44279 275.3313,449.4886 272.95346,465.54832 C 269.97612,483.15008 266.47682,495.32452 244.91386,521.72956 C 241.36852,538.04034 231.86895,550.93727 232.03775,568.80558 C 229.66221,587.97429 230.84607,603.53534 235.07699,620.88679 C 245.71181,634.68598 260.83595,643.46433 274.64285,650.93361 C 286.26546,659.80698 298.20245,663.44998 304.87109,676.56399 C 310.53465,690.75785 298.97507,711.50194 280.20348,713.69611 C 289.22929,730.68676 290.44184,725.79689 301.20955,738.3262 C 315.36471,749.16874 334.31237,747.59652 351.56962,749.1802 C 370.96447,745.67459 378.09617,744.52381 396.9375,738.94309 C 412.18871,733.3722 428.57165,718.67912 438.92858,710.57646 C 447.59616,694.10819 452.47545,698.03337 453.93813,658.31013 C 451.1841,642.43355 451.85833,624.02019 471.62951,621.6981 C 476.59162,620.1407 490.50492,638.66033 486.90678,620.64778 C 483.01679,601.17415 482.00979,590.57948 484.64286,580.21932 C 483.32627,555.08032 485.43616,529.03922 474.84345,505.34331 C 467.67934,488.98514 449.15381,477.01505 447.13158,458.48735 C 442.82186,441.10514 443.24651,439.56887 440.48839,421.20477 C 427.9173,388.84531 431.21443,373.87345 418.48777,339.6505 C 413.03375,363.43955 403.93645,373.16019 383.99133,390.70314 C 354.41327,401.40102 344.40486,398.23274 328.09259,397.0763 C 308.89188,385.68705 314.02983,384.68761 305.71428,377.71932 L 296.07141,360.93361 z"
       id="path3263"
       sodipodi:nodetypes="cccccccccccccccsccccccccc" />
    <path
       style="fill:#000000;fill-opacity:1;fill-rule:evenodd;stroke:#000000;stroke-width:1px;stroke-linecap:butt;stroke-linejoin:miter;stroke-opacity:1"
       d="M 309.28571,778.79079 C 348.92716,780.67266 336.14612,777.96043 375.82278,778.20831 C 381.92913,778.40021 442.18087,782.04841 447.37414,780.33774 C 442.66774,769.74157 446.40156,744.01284 449.29867,737.25118 C 451.9497,719.29268 454.07442,707.33487 449.84722,689.41464 C 436.64756,713.95567 404.19358,736.80451 376.82462,743.2399 C 331.82581,749.56773 317.05885,744.23233 281.17144,713.76383 C 285.70117,720.90469 302.03071,747.12799 303.80388,755.51231 C 304.38129,765.62023 306.36444,769.07094 309.28571,778.79079 z"
       id="path3274"
       sodipodi:nodetypes="ccccccccc" />
    <path
       style="fill:#fcefef;fill-opacity:0.95081967;fill-rule:nonzero;stroke:none;stroke-width:0.40000001;stroke-linejoin:miter;stroke-miterlimit:4;stroke-opacity:1"
       d="M 311.70064,304.41368 L 314.98364,304.41368 L 315.74125,310.09579 C 313.69095,317.08243 313.00542,313.42087 312.20572,316.03043 L 311.70064,304.41368 z"
       id="rect3277"
       sodipodi:nodetypes="ccccc" />
    <path
       style="fill:#fcefef;fill-opacity:0.95081967;fill-rule:nonzero;stroke:none;stroke-width:0.40000001;stroke-linejoin:miter;stroke-miterlimit:4;stroke-opacity:1"
       d="M 398.13594,301.1643 L 401.41894,301.1643 L 401.29267,314.17001 L 396.11563,309.11925 L 398.13594,301.1643 z"
       id="path3280"
       sodipodi:nodetypes="ccccc" />
  </g>
</svg>
