<?xml version="1.0" encoding="UTF-8" standalone="no"?>
<!-- Created with Inkscape (http://www.inkscape.org/) -->
<svg
   xmlns:dc="http://purl.org/dc/elements/1.1/"
   xmlns:cc="http://creativecommons.org/ns#"
   xmlns:rdf="http://www.w3.org/1999/02/22-rdf-syntax-ns#"
   xmlns:svg="http://www.w3.org/2000/svg"
   xmlns="http://www.w3.org/2000/svg"
   xmlns:sodipodi="http://sodipodi.sourceforge.net/DTD/sodipodi-0.dtd"
   xmlns:inkscape="http://www.inkscape.org/namespaces/inkscape"
   width="44"
   height="52"
   id="svg7594"
   sodipodi:version="0.32"
   inkscape:version="0.46"
   version="1.0"
   sodipodi:docname="hw_central_computer_1.svg"
   inkscape:output_extension="org.inkscape.output.svg.inkscape">
  <defs
     id="defs7596" />
  <sodipodi:namedview
     id="base"
     pagecolor="#ffffff"
     bordercolor="#666666"
     borderopacity="1.0"
     inkscape:pageopacity="0.0"
     inkscape:pageshadow="2"
     inkscape:zoom="12.538462"
     inkscape:cx="22"
     inkscape:cy="26"
     inkscape:document-units="px"
     inkscape:current-layer="layer1"
     showgrid="false"
     inkscape:window-width="1360"
     inkscape:window-height="848"
     inkscape:window-x="163"
     inkscape:window-y="62"
     showguides="true"
     inkscape:guide-bbox="true" />
  <metadata
     id="metadata7599">
    <rdf:RDF>
      <cc:Work
         rdf:about="">
        <dc:format>image/svg+xml</dc:format>
        <dc:type
           rdf:resource="http://purl.org/dc/dcmitype/StillImage" />
        <dc:title>hw_central_computer_1</dc:title>
        <dc:date>2008-05-17</dc:date>
        <dc:creator>
          <cc:Agent>
            <dc:title>Jean Cartier</dc:title>
          </cc:Agent>
        </dc:creator>
        <cc:license
           rdf:resource="http://creativecommons.org/licenses/publicdomain/" />
        <dc:language>fr-FR</dc:language>
        <dc:subject>
          <rdf:Bag>
            <rdf:li>hardware</rdf:li>
            <rdf:li>computer</rdf:li>
          </rdf:Bag>
        </dc:subject>
        <dc:contributor>
          <cc:Agent>
            <dc:title>Jean-Victor Balin (jean.victor.balin@gmail.com)</dc:title>
          </cc:Agent>
        </dc:contributor>
        <dc:description>http://www.jcartier.net</dc:description>
      </cc:Work>
      <cc:License
         rdf:about="http://creativecommons.org/licenses/publicdomain/">
        <cc:permits
           rdf:resource="http://creativecommons.org/ns#Reproduction" />
        <cc:permits
           rdf:resource="http://creativecommons.org/ns#Distribution" />
        <cc:permits
           rdf:resource="http://creativecommons.org/ns#DerivativeWorks" />
      </cc:License>
    </rdf:RDF>
  </metadata>
  <g
     inkscape:label="Calque 1"
     inkscape:groupmode="layer"
     id="layer1">
    <path
       style="opacity:1;fill:#888888;fill-opacity:1;stroke:none;stroke-width:0.69999999;stroke-linecap:round;stroke-linejoin:round;stroke-miterlimit:4;stroke-dasharray:none"
       d=""
       id="path8460" />
    <path
       style="opacity:1;fill:#888888;fill-opacity:1;stroke:none;stroke-width:0.69999999;stroke-linecap:round;stroke-linejoin:round;stroke-miterlimit:4;stroke-dasharray:none"
       d=""
       id="path8462" />
    <path
       style="opacity:1;fill:#888888;fill-opacity:1;stroke:none;stroke-width:0.69999999;stroke-linecap:round;stroke-linejoin:round;stroke-miterlimit:4;stroke-dasharray:none"
       d=""
       id="path8464" />
    <g
       id="g12880">
      <path
         style="fill:#edd400;fill-opacity:1;fill-rule:evenodd;stroke:none;stroke-width:1px;stroke-linecap:butt;stroke-linejoin:miter;stroke-opacity:1"
         id="path27036"
         d="M 2,11 L 2,41 L 22,51 L 22,21 L 2,11 z" />
      <path
         style="fill:#fce94f;fill-opacity:1;fill-rule:evenodd;stroke:none;stroke-width:1px;stroke-linecap:butt;stroke-linejoin:miter;stroke-opacity:1"
         id="path27038"
         sodipodi:nodetypes="ccccc"
         d="M 22,51 L 42,41 L 42,11 L 22,21 L 22,51 z" />
      <path
         style="fill:#c4a000;fill-opacity:1;fill-rule:evenodd;stroke:none;stroke-width:1px;stroke-linecap:butt;stroke-linejoin:miter;stroke-opacity:1"
         id="path27034"
         sodipodi:nodetypes="ccczc"
         d="M 2,11 L 22,1 L 42,11 C 42,11 23,21 22,21 C 21,21 2,11 2,11 z" />
      <path
         style="fill:#000000;fill-opacity:1;fill-rule:evenodd;stroke:none;stroke-width:1px;stroke-linecap:butt;stroke-linejoin:miter;stroke-opacity:1"
         d="M 22,2.45032 L 18.875,4.01282 L 22,5.54407 L 25.125,4.01282 L 22,2.45032 z"
         id="path27048"
         sodipodi:nodetypes="ccccc" />
      <path
         style="fill:#000000;fill-opacity:1;fill-rule:evenodd;stroke:none;stroke-width:1px;stroke-linecap:butt;stroke-linejoin:miter;stroke-opacity:1"
         d="M 26,4.45032 L 25.78125,4.54407 L 23.78125,5.54407 L 22.875,6.01282 L 23.78125,6.45032 L 25.78125,7.45032 L 26,7.54407 L 26.21875,7.45032 L 28.21875,6.45032 L 29.125,6.01282 L 28.21875,5.54407 L 26.21875,4.54407 L 26,4.45032 z M 26,5.57532 L 26.875,6.01282 L 26,6.45032 L 25.125,6.01282 L 26,5.57532 z"
         id="path27050" />
      <path
         style="fill:#000000;fill-opacity:1;fill-rule:evenodd;stroke:none;stroke-width:1px;stroke-linecap:butt;stroke-linejoin:miter;stroke-opacity:1"
         d="M 30,6.45032 L 26.875,8.01282 L 30,9.54407 L 33.125,8.01282 L 30,6.45032 z"
         id="path27052"
         sodipodi:nodetypes="ccccc" />
      <path
         style="fill:#000000;fill-opacity:1;fill-rule:evenodd;stroke:none;stroke-width:1px;stroke-linecap:butt;stroke-linejoin:miter;stroke-opacity:1"
         d="M 34,8.45032 L 33.78125,8.54407 L 31.78125,9.54407 L 30.875,10.01282 L 31.78125,10.45032 L 33.78125,11.45032 L 34,11.54407 L 34.21875,11.45032 L 36.21875,10.45032 L 37.125,10.01282 L 36.21875,9.54407 L 34.21875,8.54407 L 34,8.45032 z M 34,9.57532 L 34.875,10.01282 L 34,10.45032 L 33.125,10.01282 L 34,9.57532 z"
         id="path27044" />
      <path
         style="fill:#000000;fill-opacity:1;fill-rule:evenodd;stroke:none;stroke-width:1px;stroke-linecap:butt;stroke-linejoin:miter;stroke-opacity:1"
         d="M 14,6.45032 L 10.875,8.01282 L 14,9.54407 L 17.125,8.01282 L 14,6.45032 z"
         id="path27042"
         sodipodi:nodetypes="ccccc" />
      <path
         style="fill:#000000;fill-opacity:1;fill-rule:evenodd;stroke:none;stroke-width:1px;stroke-linecap:butt;stroke-linejoin:miter;stroke-opacity:1"
         d="M 18,4.45032 L 17.78125,4.54407 L 15.78125,5.54407 L 14.875,6.01282 L 15.78125,6.45032 L 17.78125,7.45032 L 18,7.54407 L 18.21875,7.45032 L 20.21875,6.45032 L 21.125,6.01282 L 20.21875,5.54407 L 18.21875,4.54407 L 18,4.45032 z M 18,5.57532 L 18.875,6.01282 L 18,6.45032 L 17.125,6.01282 L 18,5.57532 z"
         id="path27046" />
      <path
         style="fill:#000000;fill-opacity:1;fill-rule:evenodd;stroke:none;stroke-width:1px;stroke-linecap:butt;stroke-linejoin:miter;stroke-opacity:1"
         d="M 10,8.45032 L 9.78125,8.54407 L 7.78125,9.54407 L 6.875,10.01282 L 7.78125,10.45032 L 9.78125,11.45032 L 10,11.54407 L 10.21875,11.45032 L 12.21875,10.45032 L 13.125,10.01282 L 12.21875,9.54407 L 10.21875,8.54407 L 10,8.45032 z M 10,9.57532 L 10.875,10.01282 L 10,10.45032 L 9.125,10.01282 L 10,9.57532 z"
         id="path27040" />
      <path
         sodipodi:nodetypes="ccccc"
         id="rect12348"
         d="M 11.96319,31.981594 L 20.09816,35.889569 L 20.177914,45.141104 L 11.883436,41.073619 L 11.96319,31.981594 z"
         style="fill:#729fcf;fill-opacity:1;stroke:none;stroke-width:0.50000000000000000;stroke-linecap:round;stroke-linejoin:round;stroke-miterlimit:4;stroke-opacity:1" />
      <path
         id="path27054"
         d="M 11.5,31.1875 L 11.5,32 L 11.5,41 L 11.5,41.3125 L 11.78125,41.4375 L 19.78125,45.4375 L 20.5,45.8125 L 20.5,45 L 20.5,36 L 20.5,35.6875 L 20.21875,35.5625 L 12.21875,31.5625 L 11.5,31.1875 z M 12.5,32.8125 L 19.5,36.3125 L 19.5,44.1875 L 12.5,40.6875 L 12.5,32.8125 z"
         style="fill:#000000;fill-opacity:1;fill-rule:evenodd;stroke:none;stroke-width:1px;stroke-linecap:butt;stroke-linejoin:miter;stroke-opacity:1" />
      <path
         id="path27058"
         d="M 3.5,15.1875 L 3.5,16 L 3.5,40 L 3.5,40.3125 L 3.78125,40.4375 L 5.78125,41.4375 L 6.5,41.8125 L 6.5,41 L 6.5,17 L 6.5,16.6875 L 6.21875,16.5625 L 4.21875,15.5625 L 3.5,15.1875 z M 4.5,16.8125 L 5.5,17.3125 L 5.5,40.1875 L 4.5,39.6875 L 4.5,16.8125 z"
         style="fill:#000000;fill-opacity:1;fill-rule:evenodd;stroke:none;stroke-width:1px;stroke-linecap:butt;stroke-linejoin:miter;stroke-opacity:1" />
      <path
         sodipodi:nodetypes="ccccc"
         id="path27056"
         d="M 7,16.6875 L 7,41.8125 L 10,43.3125 L 10,18.1875 L 7,16.6875 z"
         style="fill:#000000;fill-opacity:1;fill-rule:evenodd;stroke:none;stroke-width:1px;stroke-linecap:butt;stroke-linejoin:miter;stroke-opacity:1" />
      <path
         id="path27060"
         d="M 11.5,18.1875 L 11.5,19 L 11.5,29 L 11.5,29.3125 L 11.78125,29.4375 L 15.78125,31.4375 L 16.5,31.8125 L 16.5,31 L 16.5,21 L 16.5,20.6875 L 16.21875,20.5625 L 12.21875,18.5625 L 11.5,18.1875 z M 12.5,19.8125 L 15.5,21.3125 L 15.5,30.1875 L 12.5,28.6875 L 12.5,19.8125 z"
         style="fill:#000000;fill-opacity:1;fill-rule:evenodd;stroke:none;stroke-width:1px;stroke-linecap:butt;stroke-linejoin:miter;stroke-opacity:1" />
      <path
         id="path27062"
         d="M 17.5,21.1875 L 17.5,22 L 17.5,33 L 17.5,33.3125 L 17.78125,33.4375 L 19.78125,34.4375 L 20.5,34.8125 L 20.5,34 L 20.5,23 L 20.5,22.6875 L 20.21875,22.5625 L 18.21875,21.5625 L 17.5,21.1875 z M 18.5,22.8125 L 19.5,23.3125 L 19.5,33.1875 L 18.5,32.6875 L 18.5,22.8125 z"
         style="fill:#000000;fill-opacity:1;fill-rule:evenodd;stroke:none;stroke-width:1px;stroke-linecap:butt;stroke-linejoin:miter;stroke-opacity:1" />
      <path
         id="path28810"
         d="M 22,0.5 C 21.75,0.5 21.646325,0.5538155 21.4375,0.625 C 21.228675,0.6961845 20.968873,0.81145815 20.65625,0.9375 C 20.031003,1.1895837 19.21439,1.5375185 18.25,1.96875 C 16.321219,2.831213 13.848368,3.9977504 11.40625,5.1875 C 8.9641324,6.3772496 6.5593208,7.5713069 4.75,8.5625 C 3.8453396,9.0580966 3.0734586,9.5196198 2.53125,9.875 C 2.2601457,10.05269 2.0447413,10.196601 1.875,10.34375 C 1.7901293,10.417324 1.7245989,10.474441 1.65625,10.5625 C 1.5879011,10.650559 1.5,10.770833 1.5,11 C 1.5,12 1.5,40 1.5,41 C 1.5,41.229167 1.5879011,41.349441 1.65625,41.4375 C 1.7245989,41.525559 1.7901293,41.582676 1.875,41.65625 C 2.0447413,41.803399 2.2601457,41.94731 2.53125,42.125 C 3.0734586,42.48038 3.8453396,42.941903 4.75,43.4375 C 6.5593208,44.428693 8.9641324,45.62275 11.40625,46.8125 C 13.848368,48.00225 16.321219,49.168787 18.25,50.03125 C 19.21439,50.462482 20.031003,50.810416 20.65625,51.0625 C 20.968873,51.188542 21.228675,51.303816 21.4375,51.375 C 21.646325,51.446184 21.75,51.5 22,51.5 C 22.25,51.5 22.353675,51.446184 22.5625,51.375 C 22.771325,51.303816 23.031127,51.188542 23.34375,51.0625 C 23.968997,50.810416 24.78561,50.462482 25.75,50.03125 C 27.678781,49.168787 30.151632,48.00225 32.59375,46.8125 C 35.035868,45.62275 37.440679,44.428693 39.25,43.4375 C 40.15466,42.941903 40.926541,42.48038 41.46875,42.125 C 41.739854,41.94731 41.955259,41.803399 42.125,41.65625 C 42.209871,41.582676 42.275401,41.525559 42.34375,41.4375 C 42.412099,41.349441 42.5,41.229167 42.5,41 C 42.5,40 42.5,12 42.5,11 C 42.5,10.770833 42.412099,10.650559 42.34375,10.5625 C 42.275401,10.474441 42.209871,10.417324 42.125,10.34375 C 41.955259,10.196601 41.739854,10.05269 41.46875,9.875 C 40.926541,9.5196198 40.15466,9.0580966 39.25,8.5625 C 37.440679,7.5713069 35.035868,6.3772496 32.59375,5.1875 C 30.151632,3.9977504 27.678781,2.831213 25.75,1.96875 C 24.78561,1.5375185 23.968997,1.1895837 23.34375,0.9375 C 23.031127,0.81145815 22.771325,0.6961845 22.5625,0.625 C 22.353675,0.5538155 22.25,0.5 22,0.5 z M 22,1.5 C 21.875,1.5 22.039392,1.5013603 22.21875,1.5625 C 22.398108,1.6236397 22.666139,1.721745 22.96875,1.84375 C 23.573972,2.08776 24.386265,2.4468565 25.34375,2.875 C 27.258719,3.731287 29.723368,4.8772496 32.15625,6.0625 C 34.589132,7.2477504 36.996821,8.4911931 38.78125,9.46875 C 39.673465,9.9575284 40.40549,10.359286 40.90625,10.6875 C 41.15663,10.851607 41.359683,10.9992 41.46875,11.09375 C 41.486928,11.109508 41.486828,11.112302 41.5,11.125 C 41.5,12.338862 41.5,39.661138 41.5,40.875 C 41.486828,40.887698 41.486928,40.890492 41.46875,40.90625 C 41.359683,41.0008 41.15663,41.148393 40.90625,41.3125 C 40.40549,41.640714 39.673465,42.042472 38.78125,42.53125 C 36.996821,43.508807 34.589132,44.75225 32.15625,45.9375 C 29.723368,47.12275 27.258719,48.268713 25.34375,49.125 C 24.386265,49.553143 23.573972,49.91224 22.96875,50.15625 C 22.666139,50.278255 22.398108,50.37636 22.21875,50.4375 C 22.039392,50.49864 21.875,50.5 22,50.5 C 22.125,50.5 21.960608,50.49864 21.78125,50.4375 C 21.601892,50.37636 21.333861,50.278255 21.03125,50.15625 C 20.426028,49.91224 19.613735,49.553143 18.65625,49.125 C 16.741281,48.268713 14.276632,47.12275 11.84375,45.9375 C 9.4108676,44.75225 7.0031792,43.508807 5.21875,42.53125 C 4.3265354,42.042472 3.5945101,41.640714 3.09375,41.3125 C 2.8433699,41.148393 2.6403173,41.0008 2.53125,40.90625 C 2.5130721,40.890492 2.513172,40.887698 2.5,40.875 C 2.5,39.661138 2.5,12.338862 2.5,11.125 C 2.513172,11.112302 2.5130721,11.109508 2.53125,11.09375 C 2.6403173,10.9992 2.8433699,10.851607 3.09375,10.6875 C 3.5945101,10.359286 4.3265354,9.9575284 5.21875,9.46875 C 7.0031792,8.4911931 9.4108676,7.2477504 11.84375,6.0625 C 14.276632,4.8772496 16.741281,3.731287 18.65625,2.875 C 19.613735,2.4468565 20.426028,2.08776 21.03125,1.84375 C 21.333861,1.721745 21.601892,1.6236397 21.78125,1.5625 C 21.960608,1.5013603 22.125,1.5 22,1.5 z"
         style="fill:#000000;fill-opacity:1;fill-rule:evenodd;stroke:none;stroke-width:1px;stroke-linecap:butt;stroke-linejoin:miter;stroke-opacity:1" />
    </g>
  </g>
</svg>
