<?xml version="1.0" encoding="UTF-8" standalone="no"?>
<!-- Created with Inkscape (http://www.inkscape.org/) -->
<svg
   xmlns:dc="http://purl.org/dc/elements/1.1/"
   xmlns:cc="http://creativecommons.org/ns#"
   xmlns:rdf="http://www.w3.org/1999/02/22-rdf-syntax-ns#"
   xmlns:svg="http://www.w3.org/2000/svg"
   xmlns="http://www.w3.org/2000/svg"
   xmlns:sodipodi="http://sodipodi.sourceforge.net/DTD/sodipodi-0.dtd"
   xmlns:inkscape="http://www.inkscape.org/namespaces/inkscape"
   sodipodi:docname="ryanlerch_ragno_the_spider_with_a_simple_web_ok.svg"
   sodipodi:docbase="C:\Documents and Settings\ryan\Desktop"
   inkscape:version="0.46dev+devel"
   sodipodi:version="0.32"
   id="svg2"
   height="641.36816"
   width="571.31628"
   inkscape:output_extension="org.inkscape.output.svg.inkscape"
   version="1.0">
  <defs
     id="defs3">
    <linearGradient
       id="linearGradient4630">
      <stop
         style="stop-color:white;stop-opacity:0;"
         offset="0"
         id="stop4632" />
      <stop
         style="stop-color:white;stop-opacity:1;"
         offset="1"
         id="stop4634" />
    </linearGradient>
  </defs>
  <sodipodi:namedview
     inkscape:window-y="0"
     inkscape:window-x="0"
     inkscape:window-height="778"
     inkscape:window-width="1280"
     inkscape:current-layer="layer1"
     inkscape:document-units="px"
     inkscape:cy="635.24324"
     inkscape:cx="324.40021"
     inkscape:zoom="0.50259871"
     inkscape:pageshadow="2"
     inkscape:pageopacity="0.0"
     borderopacity="1.0"
     bordercolor="#666666"
     pagecolor="#ffffff"
     id="base"
     showgrid="false" />
  <metadata
     id="metadata4">
    <rdf:RDF>
      <cc:Work
         rdf:about="">
        <dc:format>image/svg+xml</dc:format>
        <dc:type
           rdf:resource="http://purl.org/dc/dcmitype/StillImage" />
      </cc:Work>
    </rdf:RDF>
  </metadata>
  <g
     id="layer1"
     inkscape:groupmode="layer"
     inkscape:label="Layer 1"
     transform="translate(-6.7292458,-10.35314)">
    <g
       id="g4710"
       transform="translate(55.71045,-278.5522)">
      <g
         transform="matrix(0.712261,0,0,0.712261,524.4254,246.4188)"
         id="g4663">
        <path
           id="path2113"
           d="M -401.15997,856.24909 L -376.80578,853.77224 L -392.07755,872.82167"
           style="fill:none;fill-opacity:0.75;fill-rule:evenodd;stroke:#000000;stroke-width:3;stroke-linecap:round;stroke-linejoin:round;stroke-miterlimit:4;stroke-opacity:1" />
        <path
           id="path2111"
           d="M -414.71149,841.99769 L -393.06158,830.57215 L -400.07902,853.95726"
           style="fill:none;fill-opacity:0.75;fill-rule:evenodd;stroke:#000000;stroke-width:3;stroke-linecap:round;stroke-linejoin:round;stroke-miterlimit:4;stroke-opacity:1" />
        <path
           id="path2109"
           d="M -434.56486,827.84361 L -412.91495,816.41807 L -419.93239,839.80318"
           style="fill:none;fill-opacity:0.75;fill-rule:evenodd;stroke:#000000;stroke-width:3;stroke-linecap:round;stroke-linejoin:round;stroke-miterlimit:4;stroke-dasharray:none;stroke-opacity:1" />
        <path
           id="path2107"
           d="M -396.14183,876.60522 L -370.67588,885.873 L -380.98073,906.5331 C -380.98073,906.5331 -368.14553,900.84938 -369.33674,910.27251 C -370.52794,919.69563 -378.76757,922.49712 -371.16231,921.67095 C -363.55706,920.84477 -379.83894,928.69017 -379.83894,928.69017 C -379.83894,928.69017 -386.61248,929.78344 -385.73845,921.34797 C -384.86443,912.9125 -379.83184,905.81254 -379.83184,905.81254"
           style="fill:none;fill-opacity:0.75;fill-rule:evenodd;stroke:#000000;stroke-width:3;stroke-linecap:round;stroke-linejoin:round;stroke-miterlimit:4;stroke-opacity:1" />
        <path
           id="path2105"
           d="M -491.17707,904.49055 L -514.64115,918.04944 L -500.89752,936.60051 C -500.89752,936.60051 -514.5261,933.23764 -511.71289,942.30958 C -508.89969,951.38152 -500.29822,952.70606 -507.93119,953.21627 C -515.56415,953.72647 -498.16524,958.6181 -498.16524,958.6181 C -498.16524,958.6181 -491.3048,958.51569 -493.63376,950.36111 C -495.96271,942.20654 -502.1543,936.09093 -502.1543,936.09093"
           style="fill:none;fill-opacity:0.75;fill-rule:evenodd;stroke:#000000;stroke-width:3;stroke-linecap:round;stroke-linejoin:round;stroke-miterlimit:4;stroke-dasharray:none;stroke-opacity:1" />
        <path
           id="path2103"
           d="M -506.62521,886.1477 L -531.8377,896.08433 L -520.99119,916.46527 C -520.99119,916.46527 -533.97193,911.12226 -532.53245,920.51067 C -531.09297,929.89907 -522.78228,932.48213 -530.40669,931.85696 C -538.0311,931.23179 -521.54783,938.64475 -521.54783,938.64475 C -521.54783,938.64475 -514.7478,939.55888 -515.84415,931.14942 C -516.94049,922.73995 -522.1587,915.77528 -522.1587,915.77528"
           style="fill:none;fill-opacity:0.75;fill-rule:evenodd;stroke:#000000;stroke-width:3;stroke-linecap:round;stroke-linejoin:round;stroke-miterlimit:4;stroke-dasharray:none;stroke-opacity:1" />
        <path
           id="path2089"
           d="M -517.13359,859.95607 L -543.31953,852.97731 L -546.69687,875.81638 C -546.69687,875.81638 -553.96741,863.80862 -558.38489,872.21696 C -562.80238,880.62529 -557.65004,887.63907 -563.41299,882.60807 C -569.17594,877.57708 -560.31674,893.33033 -560.31674,893.33033 C -560.31674,893.33033 -555.38866,898.10422 -551.27648,890.68728 C -547.1643,883.27033 -547.22642,874.56788 -547.22642,874.56788"
           style="fill:none;fill-opacity:0.75;fill-rule:evenodd;stroke:#000000;stroke-width:3;stroke-linecap:round;stroke-linejoin:round;stroke-miterlimit:4;stroke-dasharray:none;stroke-opacity:1" />
        <path
           id="path2099"
           d="M -512.51474,882.33345 L -535.45656,877.50909 L -538.20959,900.36458 C -538.20959,900.36458 -544.66674,889.06589 -548.45382,897.7321 C -552.24088,906.39831 -547.67793,912.92607 -552.75724,908.4077 C -557.83654,903.88934 -549.95873,918.76622 -549.95873,918.76622 C -549.95873,918.76622 -545.61117,923.09655 -542.08227,915.43504 C -538.55337,907.77352 -538.68313,899.17185 -538.68313,899.17185"
           style="fill:none;fill-opacity:0.75;fill-rule:evenodd;stroke:#000000;stroke-width:3;stroke-linecap:round;stroke-linejoin:round;stroke-miterlimit:4;stroke-dasharray:none;stroke-opacity:1" />
        <path
           sodipodi:nodetypes="cccccc"
           id="path1291"
           d="M -500.66506,913.99251 C -526.90752,894.65202 -528.90422,861.63497 -505.12199,840.29375 C -481.33976,818.95252 -440.74002,817.32873 -414.49756,836.66921 C -388.87074,855.55599 -386.22121,887.39757 -408.48561,908.91982 L -454.45163,900.78251 L -500.66506,913.99251 z"
           style="fill:#ffffff;fill-opacity:1;stroke:#000000;stroke-width:4;stroke-linecap:round;stroke-linejoin:round;stroke-miterlimit:4;stroke-dasharray:none;stroke-opacity:1" />
        <path
           transform="matrix(0.919554,7.824353e-2,-6.207904e-2,0.729582,-670.4659,467.7207)"
           d="M 334.28571,579.50507 A 54.285713,41.42857 0 1 1 225.71429,579.50507 A 54.285713,41.42857 0 1 1 334.28571,579.50507 z"
           sodipodi:ry="41.42857"
           sodipodi:rx="54.285713"
           sodipodi:cy="579.50507"
           sodipodi:cx="280"
           id="path2053"
           style="fill:#fefdfe;fill-opacity:1;stroke:#000000;stroke-width:4.86595201;stroke-linecap:round;stroke-linejoin:round;stroke-miterlimit:4;stroke-dasharray:none;stroke-opacity:1"
           sodipodi:type="arc" />
        <path
           transform="matrix(1.382252,0.672748,-0.677426,1.391865,-856.0979,-109.8846)"
           d="M 522.10678,468.24564 A 12.248839,13.014392 0 1 1 497.6091,468.24564 A 12.248839,13.014392 0 1 1 522.10678,468.24564 z"
           sodipodi:ry="13.014392"
           sodipodi:rx="12.248839"
           sodipodi:cy="468.24564"
           sodipodi:cx="509.85794"
           id="path2055"
           style="fill:#fefd41;fill-opacity:1;stroke:#000000;stroke-width:2.59300828;stroke-linecap:round;stroke-linejoin:round;stroke-miterlimit:4;stroke-dasharray:none;stroke-opacity:1"
           sodipodi:type="arc" />
        <path
           transform="matrix(1.226183,0.927193,-0.933642,1.23471,-615.2134,-166.0284)"
           d="M 522.10678,468.24564 A 12.248839,13.014392 0 1 1 497.6091,468.24564 A 12.248839,13.014392 0 1 1 522.10678,468.24564 z"
           sodipodi:ry="13.014392"
           sodipodi:rx="12.248839"
           sodipodi:cy="468.24564"
           sodipodi:cx="509.85794"
           id="path2059"
           style="fill:#fefd41;fill-opacity:1;stroke:#000000;stroke-width:2.59300733;stroke-linecap:round;stroke-linejoin:round;stroke-miterlimit:4;stroke-dasharray:none;stroke-opacity:1"
           sodipodi:type="arc" />
        <path
           transform="matrix(0.539889,0,0,0.769944,-665.177,453.4321)"
           d="M 376.65181,549.39423 A 5.3588672,5.3588672 0 1 1 365.93407,549.39423 A 5.3588672,5.3588672 0 1 1 376.65181,549.39423 z"
           sodipodi:ry="5.3588672"
           sodipodi:rx="5.3588672"
           sodipodi:cy="549.39423"
           sodipodi:cx="371.29294"
           id="path2063"
           style="fill:#000000;fill-opacity:1;stroke:#000000;stroke-width:2.59300733;stroke-linecap:round;stroke-linejoin:round;stroke-miterlimit:4;stroke-opacity:1"
           sodipodi:type="arc" />
        <path
           transform="matrix(0.539889,0,0,0.769944,-621.5406,451.1356)"
           d="M 376.65181,549.39423 A 5.3588672,5.3588672 0 1 1 365.93407,549.39423 A 5.3588672,5.3588672 0 1 1 376.65181,549.39423 z"
           sodipodi:ry="5.3588672"
           sodipodi:rx="5.3588672"
           sodipodi:cy="549.39423"
           sodipodi:cx="371.29294"
           id="path2065"
           style="fill:#000000;fill-opacity:1;stroke:#000000;stroke-width:2.59300733;stroke-linecap:round;stroke-linejoin:round;stroke-miterlimit:4;stroke-opacity:1"
           sodipodi:type="arc" />
        <path
           id="path2071"
           d="M -480.91436,924.18169 C -467.42985,930.39796 -419.9764,917.91735 -408.95242,908.27514"
           style="fill:none;fill-opacity:0.75;fill-rule:evenodd;stroke:#000000;stroke-width:3;stroke-linecap:round;stroke-linejoin:round;stroke-miterlimit:4;stroke-dasharray:none;stroke-opacity:1" />
        <path
           id="path2073"
           d="M -467.50001,926.22803 L -464.04492,933.56279 L -461.02171,925.79657"
           style="fill:none;fill-opacity:0.75;fill-rule:evenodd;stroke:#000000;stroke-width:2.45128393;stroke-linecap:round;stroke-linejoin:round;stroke-miterlimit:4;stroke-opacity:1" />
        <path
           id="path2075"
           d="M -457.99062,926.05302 L -454.53553,936.00493 L -451.51232,925.46761"
           style="fill:none;fill-opacity:0.75;fill-rule:evenodd;stroke:#000000;stroke-width:2.85531521;stroke-linecap:round;stroke-linejoin:round;stroke-miterlimit:4;stroke-opacity:1" />
        <path
           id="path2077"
           d="M -423.93329,915.85277 L -420.4782,923.71096 L -417.45499,915.39052"
           style="fill:none;fill-opacity:0.75;fill-rule:evenodd;stroke:#000000;stroke-width:2.53724241;stroke-linecap:round;stroke-linejoin:round;stroke-miterlimit:4;stroke-opacity:1" />
        <path
           id="path2079"
           d="M -434.04102,919.99431 L -430.58593,927.8525 L -427.56272,919.53206"
           style="fill:none;fill-opacity:0.75;fill-rule:evenodd;stroke:#000000;stroke-width:2.53724241;stroke-linecap:round;stroke-linejoin:round;stroke-miterlimit:4;stroke-opacity:1" />
        <path
           id="path2081"
           d="M -442.49381,921.82663 L -439.03872,931.77854 L -436.01551,921.24122"
           style="fill:none;fill-opacity:0.75;fill-rule:evenodd;stroke:#000000;stroke-width:2.85531521;stroke-linecap:round;stroke-linejoin:round;stroke-miterlimit:4;stroke-opacity:1" />
        <path
           id="path2083"
           d="M -449.53782,923.5163 L -446.08273,931.37449 L -443.05952,923.05405"
           style="fill:none;fill-opacity:0.75;fill-rule:evenodd;stroke:#000000;stroke-width:2.53724241;stroke-linecap:round;stroke-linejoin:round;stroke-miterlimit:4;stroke-opacity:1" />
        <path
           id="path2087"
           d="M -483.35399,917.88718 C -482.75862,919.54454 -480.86618,924.6014 -484.29943,925.60195"
           style="fill:none;fill-opacity:0.75;fill-rule:evenodd;stroke:#000000;stroke-width:2.89826393;stroke-linecap:round;stroke-linejoin:round;stroke-miterlimit:4;stroke-opacity:1" />
        <path
           id="path2141"
           d="M -464.38329,821.16119 L -459.23845,399.72208"
           style="fill:none;fill-opacity:0.75;fill-rule:evenodd;stroke:#000000;stroke-width:3;stroke-linecap:round;stroke-linejoin:round;stroke-miterlimit:4;stroke-dasharray:none;stroke-opacity:1"
           sodipodi:nodetypes="cc" />
        <path
           style="fill:none;fill-opacity:0.75;fill-rule:evenodd;stroke:#000000;stroke-width:1px;stroke-linecap:butt;stroke-linejoin:miter;stroke-opacity:1"
           d="M -468.604,560.88445 C -467.66606,560.88445 -467.66606,560.88445 -468.604,560.88445 z"
           id="path1902" />
      </g>
      <g
         transform="matrix(0.712261,0,0,0.712261,-14.09381,267.6762)"
         id="g4689">
        <path
           style="fill:none;fill-opacity:0.75;fill-rule:evenodd;stroke:#000000;stroke-width:3.70000005;stroke-linecap:round;stroke-linejoin:miter;stroke-miterlimit:4;stroke-dasharray:none;stroke-opacity:1"
           d="M 498.74651,776.60953 L 296.85618,383.38061 L 627.47798,742.84389"
           id="path1904" />
        <path
           style="fill:none;fill-opacity:0.75;fill-rule:evenodd;stroke:#000000;stroke-width:3.70000005;stroke-linecap:round;stroke-linejoin:miter;stroke-miterlimit:4;stroke-dasharray:none;stroke-opacity:1"
           d="M 712.59551,642.25045 L 298.26308,383.38061 L 751.2853,456.53948"
           id="path1906" />
        <path
           style="fill:none;fill-opacity:0.75;fill-rule:evenodd;stroke:#000000;stroke-width:3.70000005;stroke-linecap:round;stroke-linejoin:miter;stroke-miterlimit:4;stroke-dasharray:none;stroke-opacity:1"
           d="M 749.8784,335.54597 L 297.55963,383.38061 L 726.66453,198.37309"
           id="path1908" />
        <path
           style="fill:none;fill-opacity:0.75;fill-rule:evenodd;stroke:#000000;stroke-width:3.70000005;stroke-linecap:round;stroke-linejoin:miter;stroke-miterlimit:4;stroke-dasharray:none;stroke-opacity:1"
           d="M 652.09876,37.986338 L 299.66998,381.97371 L 476.93954,35.172535"
           id="path1910" />
        <path
           style="fill:none;fill-opacity:0.75;fill-rule:evenodd;stroke:#000000;stroke-width:3.70000005;stroke-linecap:round;stroke-linejoin:miter;stroke-miterlimit:4;stroke-dasharray:none;stroke-opacity:1"
           d="M 328.51146,32.358733 L 298.96653,383.38061 L 226.51111,31.655282"
           id="path1912" />
        <path
           style="fill:none;fill-opacity:0.75;fill-rule:evenodd;stroke:#000000;stroke-width:3.70000005;stroke-linecap:round;stroke-linejoin:miter;stroke-miterlimit:4;stroke-dasharray:none;stroke-opacity:1"
           d="M 104.81415,41.503591 L 299.66998,381.27026 L 6.3310559,148.42809"
           id="path1914" />
        <path
           style="fill:none;fill-opacity:0.75;fill-rule:evenodd;stroke:#000000;stroke-width:3.70000005;stroke-linecap:round;stroke-linejoin:miter;stroke-miterlimit:4;stroke-dasharray:none;stroke-opacity:1"
           d="M -26.731125,271.53196 L 300.37343,381.27026 L -47.131194,398.15307"
           id="path1916" />
        <path
           style="fill:none;fill-opacity:0.75;fill-rule:evenodd;stroke:#000000;stroke-width:3.70000005;stroke-linecap:round;stroke-linejoin:miter;stroke-miterlimit:4;stroke-dasharray:none;stroke-opacity:1"
           d="M -30.248378,512.11208 L 298.26308,380.56681 L 9.1448585,600.74686"
           id="path1918" />
        <path
           style="fill:none;fill-opacity:0.75;fill-rule:evenodd;stroke:#000000;stroke-width:3.60346889;stroke-linecap:round;stroke-linejoin:miter;stroke-miterlimit:4;stroke-dasharray:none;stroke-opacity:1"
           d="M 294.79409,384.73925 L 167.37299,640.89182"
           id="path1920" />
        <path
           style="fill:none;fill-opacity:0.75;fill-rule:evenodd;stroke:#000000;stroke-width:3.5999999;stroke-linecap:butt;stroke-linejoin:miter;stroke-miterlimit:4;stroke-dasharray:none;stroke-opacity:1"
           d="M 264.49745,447.39462 L 324.9942,441.06356 L 340.47012,431.21525 L 351.72533,417.14624 L 360.16674,393.22892 L 360.16674,376.3461 L 353.83568,358.05639 L 339.76667,341.87702 L 324.29075,333.43561 L 303.18723,330.62181 L 287.00787,328.51146 L 271.53195,334.13906 L 256.75949,346.80118 L 239.87667,361.57364 L 239.17322,383.38061 L 248.31808,398.15307 L 255.35259,411.51864 L 264.49745,447.39462 z"
           id="path2838" />
        <path
           style="fill:none;fill-opacity:0.75;fill-rule:evenodd;stroke:#000000;stroke-width:3.5999999;stroke-linecap:butt;stroke-linejoin:miter;stroke-miterlimit:4;stroke-dasharray:none;stroke-opacity:1"
           d="M 230.02836,355.94603 L 240.58012,335.54597 L 260.27674,314.44245 L 283.49061,313.73899 L 304.59413,310.22174 L 341.17357,301.07688 L 357.35293,324.99421 L 371.42195,350.31843 L 383.38061,373.5323 L 380.5668,396.74617 L 371.42195,429.1049 L 356.64948,448.09807 L 333.43561,456.53948 L 256.05604,460.76018 L 242.69048,422.77385 L 232.84217,407.29793 L 225.80766,384.78751 L 230.02836,355.94603 z"
           id="path2840" />
        <path
           style="fill:none;fill-opacity:0.75;fill-rule:evenodd;stroke:#000000;stroke-width:3.5999999;stroke-linecap:butt;stroke-linejoin:miter;stroke-miterlimit:4;stroke-dasharray:none;stroke-opacity:1"
           d="M 257.46294,366.49779 L 256.05604,383.38061 L 259.57329,394.63582 L 265.2009,404.48413 L 277.15956,417.84969 L 317.25625,424.18075 L 324.29075,413.62899 L 333.43561,405.89103 L 347.50462,389.71167 L 346.80117,375.64265 L 337.65631,365.09089 L 327.10455,352.42878 L 317.9597,344.69082 L 302.48378,341.87702 L 289.82167,342.58047 L 279.97336,346.09772 L 265.2009,355.94603 L 257.46294,366.49779 z"
           id="path2842" />
        <path
           style="fill:none;fill-opacity:0.75;fill-rule:evenodd;stroke:#000000;stroke-width:3.5999999;stroke-linecap:butt;stroke-linejoin:miter;stroke-miterlimit:4;stroke-dasharray:none;stroke-opacity:1"
           d="M 267.31125,370.01505 L 266.6078,383.38061 L 268.0147,392.3496 L 272.41127,399.9117 L 284.19406,405.71517 L 309.16656,408.17724 L 316.72866,405.01172 L 322.35626,398.68066 L 331.32526,388.30476 L 331.85285,379.86336 L 327.45628,369.66332 L 320.59764,361.7495 C 320.59764,361.7495 314.61831,352.25292 313.73899,352.78051 C 312.85968,353.30809 301.25274,351.54947 301.25274,351.54947 L 292.28375,352.60464 L 284.0182,353.48396 L 274.52162,361.57364 L 266.95952,370.89436 L 267.31125,371.42195"
           id="path2844" />
        <path
           style="fill:none;fill-opacity:0.75;fill-rule:evenodd;stroke:#000000;stroke-width:3.5999999;stroke-linecap:butt;stroke-linejoin:miter;stroke-miterlimit:4;stroke-dasharray:none;stroke-opacity:1"
           d="M 275.22507,373.00471 L 273.46644,382.32543 L 276.80783,388.48063 L 280.32509,393.75651 L 288.41477,397.27376 L 306.00104,399.73584 L 308.9907,397.44962 L 312.50795,392.52547 L 323.05971,386.722 L 320.24591,380.91853 L 316.5528,373.88403 L 312.15623,369.66332 L 308.46311,364.38744 L 300.19757,361.92536 L 293.86651,362.45295 L 289.82167,362.27709 L 282.08371,365.97021 L 275.22507,373.00471 z"
           id="path2846" />
        <path
           style="fill:none;fill-opacity:0.75;fill-rule:evenodd;stroke:#000000;stroke-width:3.5999999;stroke-linecap:butt;stroke-linejoin:miter;stroke-miterlimit:4;stroke-dasharray:none;stroke-opacity:1"
           d="M 208.91419,351.00742 L 220.85214,319.17287 L 247.71253,288.33316 L 275.56776,273.41072 L 308.39713,271.42106 L 353.16446,275.40038 L 383.00934,298.28145 L 402.90593,340.06429 L 406.88525,372.89366 L 405.89042,400.74889 L 392.95764,439.54724 L 370.07656,468.39729 L 346.20065,485.30939 L 243.73322,482.3249 L 217.86765,442.53173 L 209.90902,413.68167 L 208.91419,384.83162 L 208.91419,351.00742 z"
           id="path2848" />
        <path
           style="fill:none;fill-opacity:0.75;fill-rule:evenodd;stroke:#000000;stroke-width:3.5999999;stroke-linecap:butt;stroke-linejoin:miter;stroke-miterlimit:4;stroke-dasharray:none;stroke-opacity:1"
           d="M 174.09515,387.81611 L 180.06413,341.05912 L 190.01243,292.31248 L 226.82112,253.51413 L 268.60395,231.62788 L 311.38162,227.64856 L 373.06105,241.57618 L 410.86457,273.41072 L 435.7353,324.14702 L 442.69911,367.91952 L 440.70945,406.71787 L 422.80252,459.44383 L 396.93695,493.26803 L 359.13343,508.19047 L 231.79526,511.17496 L 194.98657,459.44383 L 177.07964,427.60928 L 174.09515,387.81611 z"
           id="path2850" />
        <path
           style="fill:none;fill-opacity:0.75;fill-rule:evenodd;stroke:#000000;stroke-width:3.5999999;stroke-linecap:butt;stroke-linejoin:miter;stroke-miterlimit:4;stroke-dasharray:none;stroke-opacity:1"
           d="M 147.23476,332.10566 L 131.31749,388.81093 L 145.2451,439.54724 L 167.13135,479.34042 L 215.87799,544.00433 L 384.999,555.94228 L 423.79735,520.12842 L 459.61121,480.33525 L 491.44575,410.69718 L 487.46643,361.95054 L 470.55433,306.24009 L 444.68877,244.56066 L 389.97315,205.76231 L 312.37645,180.89158 L 256.666,186.86056 L 199.96072,206.75714 L 154.19857,264.45725 L 147.23476,332.10566 z"
           id="path2852" />
        <path
           style="fill:none;fill-opacity:0.75;fill-rule:evenodd;stroke:#000000;stroke-width:3.5999999;stroke-linecap:butt;stroke-linejoin:miter;stroke-miterlimit:4;stroke-dasharray:none;stroke-opacity:1"
           d="M 107.44158,231.62788 L 80.581186,306.24009 L 84.560504,393.78508 L 89.534651,464.41797 L 100.47778,527.09223 L 192.99691,591.75614 L 411.8594,609.66307 L 469.5595,573.84921 L 542.18205,535.05087 L 590.9287,430.59377 L 570.03728,352.99707 L 541.18722,279.37969 L 490.45092,192.82953 L 419.81803,144.08289 L 318.34543,109.26386 L 244.72805,116.22766 L 154.19857,130.15528 L 107.44158,231.62788 z"
           id="path2854" />
        <path
           style="fill:none;fill-opacity:0.75;fill-rule:evenodd;stroke:#000000;stroke-width:3.5999999;stroke-linecap:butt;stroke-linejoin:miter;stroke-miterlimit:4;stroke-dasharray:none;stroke-opacity:1"
           d="M 53.720791,186.86056 L 31.834543,294.30214 C 31.834543,294.30214 31.834543,387.81611 31.834543,393.78508 C 31.834543,399.75406 41.782837,478.34559 41.782837,478.34559 L 59.689767,560.91643 L 166.13652,642.49245 L 448.66808,679.30114 L 547.1562,655.42523 L 623.75807,585.78717 L 658.5771,438.55241 L 658.5771,344.04361 L 629.72705,241.57618 L 547.1562,137.11908 L 452.6474,85.387951 L 326.30406,55.543067 L 229.8056,58.527555 L 125.34851,81.408633 L 53.720791,186.86056 z"
           id="path2856" />
      </g>
    </g>
  </g>
</svg>
