<?xml version="1.0" encoding="UTF-8" standalone="no"?>
<!-- Created with Inkscape (http://www.inkscape.org/) -->
<svg xmlns:dc="http://purl.org/dc/elements/1.1/" xmlns:cc="http://creativecommons.org/ns#" xmlns:rdf="http://www.w3.org/1999/02/22-rdf-syntax-ns#" xmlns:svg="http://www.w3.org/2000/svg" xmlns="http://www.w3.org/2000/svg" xmlns:sodipodi="http://sodipodi.sourceforge.net/DTD/sodipodi-0.dtd" xmlns:inkscape="http://www.inkscape.org/namespaces/inkscape" width="379.18417" height="376.76294" id="svg3511" version="1.1" inkscape:version="0.48.3.1 r9886" sodipodi:docname="Eid_Sheep.svg">
  <defs id="defs3"/>
  <sodipodi:namedview inkscape:document-units="mm" id="base" pagecolor="#ffffff" bordercolor="#666666" borderopacity="1.0" inkscape:pageopacity="0.0" inkscape:pageshadow="2" inkscape:zoom="2.1728723" inkscape:cx="101.87598" inkscape:cy="187.25043" inkscape:current-layer="layer1" showgrid="false" inkscape:window-width="1920" inkscape:window-height="1019" inkscape:window-x="-9" inkscape:window-y="-9" inkscape:window-maximized="1" units="cm" fit-margin-top="1" fit-margin-left="1" fit-margin-right="1" fit-margin-bottom="1"/>
  <g inkscape:label="Layer 1" inkscape:groupmode="layer" id="layer1" transform="translate(-210.37389,-192.26886)">
    <g id="g4446">
      <path transform="translate(84.557878,-84.649343)" d="m 469.552,603.4823 c 0,8.15492 -61.15053,14.76579 -136.58352,14.76579 -75.433,0 -136.58353,-6.61087 -136.58353,-14.76579 0,-8.15492 61.15053,-14.76579 136.58353,-14.76579 75.43299,0 136.58352,6.61087 136.58352,14.76579 z" sodipodi:ry="14.765786" sodipodi:rx="136.58353" sodipodi:cy="603.4823" sodipodi:cx="332.96848" id="path4400" style="fill:#000000;fill-opacity:1;stroke:none" sodipodi:type="arc"/>
      <path transform="matrix(0.95123403,0.30847012,-0.30847012,0.95123403,712.16987,-95.805832)" d="m -156.51733,622.6778 c 0,43.22106 -3.96652,78.25866 -8.85947,78.25866 -4.89295,0 -8.85947,-35.0376 -8.85947,-78.25866 0,-43.22107 3.96652,-78.25867 8.85947,-78.25867 4.89295,0 8.85947,35.0376 8.85947,78.25867 z" sodipodi:ry="78.258667" sodipodi:rx="8.8594723" sodipodi:cy="622.6778" sodipodi:cx="-165.3768" id="path4375" style="fill:#ffffff;fill-opacity:1;stroke:#000000;stroke-width:3.5999999;stroke-linecap:round;stroke-linejoin:round;stroke-miterlimit:4;stroke-opacity:1;stroke-dasharray:none;stroke-dashoffset:0" sodipodi:type="arc"/>
      <path sodipodi:type="arc" style="fill:#ffffff;fill-opacity:1;stroke:#000000;stroke-width:3.5999999;stroke-linecap:round;stroke-linejoin:round;stroke-miterlimit:4;stroke-opacity:1;stroke-dasharray:none;stroke-dashoffset:0" id="path4377" sodipodi:cx="-165.3768" sodipodi:cy="622.6778" sodipodi:rx="8.8594723" sodipodi:ry="78.258667" d="m -156.51733,622.6778 c 0,43.22106 -3.96652,78.25866 -8.85947,78.25866 -4.89295,0 -8.85947,-35.0376 -8.85947,-78.25866 0,-43.22107 3.96652,-78.25867 8.85947,-78.25867 4.89295,0 8.85947,35.0376 8.85947,78.25867 z" transform="matrix(0.95123403,0.30847012,-0.30847012,0.95123403,737.45216,-95.805832)"/>
      <path transform="matrix(0.98814078,-0.15355064,0.15355064,0.98814078,531.96803,-198.04373)" d="m -156.51733,622.6778 c 0,43.22106 -3.96652,78.25866 -8.85947,78.25866 -4.89295,0 -8.85947,-35.0376 -8.85947,-78.25866 0,-43.22107 3.96652,-78.25867 8.85947,-78.25867 4.89295,0 8.85947,35.0376 8.85947,78.25867 z" sodipodi:ry="78.258667" sodipodi:rx="8.8594723" sodipodi:cy="622.6778" sodipodi:cx="-165.3768" id="path4379" style="fill:#ffffff;fill-opacity:1;stroke:#000000;stroke-width:3.5999999;stroke-linecap:round;stroke-linejoin:round;stroke-miterlimit:4;stroke-opacity:1;stroke-dasharray:none;stroke-dashoffset:0" sodipodi:type="arc"/>
      <path sodipodi:type="arc" style="fill:#ffffff;fill-opacity:1;stroke:#000000;stroke-width:3.5999999;stroke-linecap:round;stroke-linejoin:round;stroke-miterlimit:4;stroke-opacity:1;stroke-dasharray:none;stroke-dashoffset:0" id="path4381" sodipodi:cx="-165.3768" sodipodi:cy="622.6778" sodipodi:rx="8.8594723" sodipodi:ry="78.258667" d="m -156.51733,622.6778 c 0,43.22106 -3.96652,78.25866 -8.85947,78.25866 -4.89295,0 -8.85947,-35.0376 -8.85947,-78.25866 0,-43.22107 3.96652,-78.25867 8.85947,-78.25867 4.89295,0 8.85947,35.0376 8.85947,78.25867 z" transform="matrix(0.98814078,-0.15355064,0.15355064,0.98814078,556.77218,-198.04373)"/>
      <path sodipodi:nodetypes="scscscsscscscsscssccscscsscsscscscsscscs" inkscape:connector-curvature="0" id="path3563" d="m 444.12235,255.31857 c -8.83623,0 -16.55595,4.79367 -20.71875,11.90625 -4.35802,-6.0257 -11.43264,-9.9375 -19.4375,-9.9375 -9.93707,0 -18.45184,6.0458 -22.09375,14.65625 -4.29621,-6.47445 -11.67887,-10.75 -20.03125,-10.75 -12.72624,0 -23.10383,9.91388 -23.90625,22.4375 -3.37591,-1.81349 -7.24327,-2.84375 -11.34375,-2.84375 -13.24943,0 -23.96875,10.75057 -23.96875,24 0,1.86198 0.19235,3.66621 0.59375,5.40625 -12.84828,0.4559 -23.125,11.00923 -23.125,23.96875 0,7.8822 3.78683,14.87676 9.65625,19.25 -12.03516,1.28789 -21.40625,11.43541 -21.40625,23.8125 0,11.42595 7.99149,20.99117 18.6875,23.40625 -3.69296,4.21955 -5.96875,9.73334 -5.96875,15.78125 0,13.24943 10.75057,23.96875 24,23.96875 5.38258,0 10.34116,-1.75664 14.34375,-4.75 -0.71978,2.28089 -1.125,4.69998 -1.125,7.21875 0,13.24943 10.75057,23.96875 24,23.96875 6.18213,0 11.80857,-2.3545 16.0625,-6.1875 1.32961,0.5514 2.67214,1.08523 4.03125,1.59375 0.41899,12.88253 10.98483,23.21875 23.96875,23.21875 9.99622,0 18.55127,-6.12016 22.15625,-14.8125 3.06645,9.71722 12.14435,16.75 22.875,16.75 11.72359,0 21.47013,-8.38428 23.5625,-19.5 3.40607,9.10341 12.1768,15.59375 22.46873,15.59375 13.2495,0 24,-10.75057 24,-24 0,-2.48427 -0.3928,-4.87139 -1.0937,-7.125 3.9904,2.96162 8.9614,4.6875 14.3125,4.6875 13.2494,0 23.9688,-10.75057 23.9688,-24 0,-6.03531 -2.2271,-11.53382 -5.9063,-15.75 10.6809,-2.42618 18.6563,-11.99099 18.6563,-23.40625 0,-9.27364 -5.2678,-17.31957 -12.9688,-21.3125 8.2232,-3.80459 13.9375,-12.1251 13.9375,-21.78125 0,-12.61212 -9.7294,-22.90956 -22.0937,-23.875 0.9856,-2.624 1.5312,-5.46909 1.5312,-8.4375 0,-13.24943 -10.7506,-23.96875 -24,-23.96875 -1.862,0 -3.6661,0.19235 -5.4062,0.59375 -0.4559,-12.84828 -11.0093,-23.125 -23.9688,-23.125 -3.86623,0 -7.51563,0.93799 -10.75003,2.5625 -2.2138,-10.96192 -11.88549,-19.21875 -23.5,-19.21875 z" style="fill:#ffffff;stroke:#000000;stroke-width:3.5999999;stroke-linecap:round;stroke-linejoin:round;stroke-miterlimit:4;stroke-opacity:1;stroke-dasharray:none;stroke-dashoffset:0"/>
      <g transform="translate(100.77785,-96.461972)" id="g4390">
        <path style="fill:#ffffff;fill-opacity:1;stroke:#000000;stroke-width:4.25504208;stroke-linecap:round;stroke-linejoin:round;stroke-miterlimit:4;stroke-opacity:1;stroke-dashoffset:0" d="m 358.11328,450.31244 c 5.31048,24.786 -5.51948,40.50538 -24.18939,35.11022 -18.66992,-5.39516 -11.25694,-31.3959 -16.56742,-56.1819 -5.31048,-24.786 -21.33344,-38.9713 -2.66352,-33.57613 18.66991,5.39516 38.10986,29.86182 43.42033,54.64781 z" id="path4385" inkscape:connector-curvature="0" sodipodi:nodetypes="sssss"/>
        <path sodipodi:nodetypes="sssss" inkscape:connector-curvature="0" id="path4388" d="m 149.16702,449.14887 c -6.54291,24.48953 3.48769,40.73066 22.40397,36.27556 18.91628,-4.4551 12.81236,-30.7939 19.35526,-55.28344 6.54291,-24.48953 23.25496,-37.85611 4.33868,-33.401 -18.91627,4.4551 -39.55501,27.91935 -46.09791,52.40888 z" style="fill:#ffffff;fill-opacity:1;stroke:#000000;stroke-width:4.25504208;stroke-linecap:round;stroke-linejoin:round;stroke-miterlimit:4;stroke-opacity:1;stroke-dashoffset:0"/>
        <path style="fill:#ffffff;stroke:#000000;stroke-width:3.5999999;stroke-linecap:round;stroke-linejoin:round;stroke-miterlimit:4;stroke-opacity:1;stroke-dasharray:none;stroke-dashoffset:0" d="m 312.69431,446.95473 c 0,47.58977 -26.30396,68.16891 -58.75153,68.16891 -32.44758,0 -58.75153,-20.57914 -58.75153,-68.16891 0,-47.58977 26.30395,-104.16891 58.75153,-104.16891 32.44757,0 58.75153,56.57914 58.75153,104.16891 z" id="path3568" inkscape:connector-curvature="0" sodipodi:nodetypes="sssss"/>
        <path sodipodi:type="arc" style="fill:#ffffff;stroke:#000000;stroke-width:3.5999999;stroke-linecap:round;stroke-linejoin:round;stroke-miterlimit:4;stroke-opacity:1;stroke-dasharray:none;stroke-dashoffset:0" id="path3571" sodipodi:cx="61.199509" sodipodi:cy="714.05127" sodipodi:rx="33.782131" sodipodi:ry="27.906977" d="m 94.98164,714.05127 c 0,15.4126 -15.124775,27.90698 -33.782131,27.90698 -18.657356,0 -33.782132,-12.49438 -33.782132,-27.90698 0,-15.4126 15.124776,-27.90698 33.782132,-27.90698 18.657356,0 33.782131,12.49438 33.782131,27.90698 z" transform="translate(154.06516,-319.85786)"/>
        <path sodipodi:type="arc" style="fill:#ffffff;stroke:#000000;stroke-width:3.5999999;stroke-linecap:round;stroke-linejoin:round;stroke-miterlimit:4;stroke-opacity:1;stroke-dasharray:none;stroke-dashoffset:0" id="path3573" sodipodi:cx="143.94125" sodipodi:cy="708.66571" sodipodi:rx="36.23011" sodipodi:ry="36.23011" d="m 180.17136,708.66571 c 0,20.00934 -16.22077,36.23011 -36.23011,36.23011 -20.00933,0 -36.23011,-16.22077 -36.23011,-36.23011 0,-20.00934 16.22078,-36.23011 36.23011,-36.23011 20.00934,0 36.23011,16.22077 36.23011,36.23011 z" transform="translate(142.31486,-313.00351)"/>
        <path style="font-size:medium;font-style:normal;font-variant:normal;font-weight:normal;font-stretch:normal;text-indent:0;text-align:start;text-decoration:none;line-height:normal;letter-spacing:normal;word-spacing:normal;text-transform:none;direction:ltr;block-progression:tb;writing-mode:lr-tb;text-anchor:start;baseline-shift:baseline;color:#000000;fill:#000000;fill-opacity:1;stroke:none;stroke-width:3.10938525;marker:none;visibility:visible;display:inline;overflow:visible;enable-background:accumulate;font-family:Sans;-inkscape-font-specification:Sans" d="m 226.93557,482.4146 c 7.07005,7.12321 15.81836,10.40625 25.40625,10.40625 7.02172,0 13.59283,-1.76387 19.375,-5.5 l 1.53125,2.625 c -6.2766,4.02039 -13.40164,6 -20.90625,6 -1.11148,0 -2.21816,-0.039 -3.3125,-0.125 -0.7534,7.10379 -0.27662,13.20607 3.625,17.34375 l -2.625,2.46875 c -5.00415,-5.30693 -5.38193,-12.67342 -4.5625,-20.25 -7.6211,-1.28836 -14.67253,-4.78765 -20.5625,-10.625 0.67575,-0.78775 1.35793,-1.56292 2.03125,-2.34375 z" id="path3575" inkscape:connector-curvature="0"/>
        <path style="fill:#000000;fill-opacity:1;stroke:#000000;stroke-width:3.5999999;stroke-linecap:round;stroke-linejoin:round;stroke-miterlimit:4;stroke-opacity:1;stroke-dashoffset:0" d="m 235.51429,400.45272 c 0,4.48521 -3.63598,8.12118 -8.12118,8.12118 -4.48521,0 -8.12118,-3.63597 -8.12118,-8.12118 0,-4.4852 3.63597,-8.12118 8.12118,-8.12118 4.4852,0 8.12118,3.63598 8.12118,8.12118 z" id="path4370" inkscape:connector-curvature="0"/>
        <path id="path4373" d="m 276.85849,399.71443 c 0,4.48521 -3.63597,8.12118 -8.12118,8.12118 -4.48521,0 -8.12118,-3.63597 -8.12118,-8.12118 0,-4.4852 3.63597,-8.12118 8.12118,-8.12118 4.48521,0 8.12118,3.63598 8.12118,8.12118 z" style="fill:#000000;fill-opacity:1;stroke:#000000;stroke-width:3.5999999;stroke-linecap:round;stroke-linejoin:round;stroke-miterlimit:4;stroke-opacity:1;stroke-dashoffset:0" inkscape:connector-curvature="0"/>
      </g>
      <path sodipodi:nodetypes="czcsssc" inkscape:connector-curvature="0" id="path4402" d="m 364.90122,231.27287 c 0,0 18.30608,-6.73015 31.73898,-1.71155 13.43292,5.0186 21.22036,21.78893 21.22036,21.78893 -2.7775,1.79585 -2.89063,4.06811 -4.3877,2.21692 -5.55464,-6.86857 -11.996,-12.50087 -20.092,-15.82624 -6.99895,-2.87476 -16.99048,6.5851 -23.98861,-0.62561 -3.42229,-3.52624 -1.22385,-2.42763 -4.49103,-5.84245 z" style="fill:#000000;stroke:none"/>
      <path style="fill:#000000;stroke:none" d="m 349.79263,259.96366 c 0,0 -14.98787,-12.48084 -29.32593,-12.25897 -14.33807,0.22186 -27.29978,13.4083 -27.29978,13.4083 2.01416,2.62349 1.35853,4.80204 3.38983,3.56029 7.53681,-4.60735 15.49427,-7.75262 24.23667,-8.16958 7.55775,-0.36046 13.79715,11.90288 22.80859,7.45743 4.40685,-2.17397 1.96726,-1.87646 6.19062,-3.99747 z" id="path4404" inkscape:connector-curvature="0" sodipodi:nodetypes="czcsssc"/>
      <path inkscape:transform-center-x="2.5555474" sodipodi:nodetypes="cccc" inkscape:connector-curvature="0" id="path4406" d="m 401.75939,395.64535 c 4.29451,-11.32589 0.26152,-21.18343 -7.43444,-30.15912 6.33808,1.55299 16.17763,3.66809 14.56264,12.82898 -1.13103,6.66102 -3.92852,12.8932 -7.1282,17.33014 z" style="fill:#ffffff;stroke:#000000;stroke-width:3.5999999;stroke-linecap:butt;stroke-linejoin:miter;stroke-miterlimit:4;stroke-opacity:1;stroke-dasharray:none"/>
    </g>
    <path inkscape:connector-curvature="0" id="path3097" d="m 395.18008,358.25793 c -10.16525,-1.66565 -12.95921,9.20952 -10.00374,15.89198 -10.01279,-10.34569 -2.89294,-22.27004 10.00374,-15.89198 z" style="fill:#000000;stroke:none" sodipodi:nodetypes="ccc"/>
  </g>
  <metadata>
    <rdf:RDF>
      <cc:Work>
        <dc:format>image/svg+xml</dc:format>
        <dc:type rdf:resource="http://purl.org/dc/dcmitype/StillImage"/>
        <cc:license rdf:resource="http://creativecommons.org/licenses/publicdomain/"/>
        <dc:publisher>
          <cc:Agent rdf:about="http://openclipart.org/">
            <dc:title>Open Clip Art Library</dc:title>
          </cc:Agent>
        </dc:publisher>
        <dc:title>Eid Sheep</dc:title>
        <dc:date>2012-08-23T15:43:57</dc:date>
        <dc:description>Eid Sheep</dc:description>
        <dc:source>http://openclipart.org/detail/171862/eid-sheep-by-halattas-171862</dc:source>
        <dc:creator>
          <cc:Agent>
            <dc:title>halattas</dc:title>
          </cc:Agent>
        </dc:creator>
        <dc:subject>
          <rdf:Bag>
            <rdf:li>Eid Sheep</rdf:li>
            <rdf:li>clip art</rdf:li>
            <rdf:li>clipart</rdf:li>
          </rdf:Bag>
        </dc:subject>
      </cc:Work>
      <cc:License rdf:about="http://creativecommons.org/licenses/publicdomain/">
        <cc:permits rdf:resource="http://creativecommons.org/ns#Reproduction"/>
        <cc:permits rdf:resource="http://creativecommons.org/ns#Distribution"/>
        <cc:permits rdf:resource="http://creativecommons.org/ns#DerivativeWorks"/>
      </cc:License>
    </rdf:RDF>
  </metadata>
</svg>
