<?xml version="1.0" encoding="UTF-8" standalone="no"?>
<!-- Created with Inkscape (http://www.inkscape.org/) -->
<svg xmlns:dc="http://purl.org/dc/elements/1.1/" xmlns:cc="http://creativecommons.org/ns#" xmlns:rdf="http://www.w3.org/1999/02/22-rdf-syntax-ns#" xmlns:svg="http://www.w3.org/2000/svg" xmlns="http://www.w3.org/2000/svg" xmlns:sodipodi="http://sodipodi.sourceforge.net/DTD/sodipodi-0.dtd" xmlns:inkscape="http://www.inkscape.org/namespaces/inkscape" width="379.18417" height="376.76294" id="svg3511" version="1.1" inkscape:version="0.48.3.1 r9886" sodipodi:docname="Eid_Sheep-colored.svg">
  <defs id="defs3">
    <filter inkscape:collect="always" id="filter3894">
      <feGaussianBlur inkscape:collect="always" stdDeviation="1.2494965" id="feGaussianBlur3896"/>
    </filter>
    <filter inkscape:collect="always" id="filter3910">
      <feGaussianBlur inkscape:collect="always" stdDeviation="2.51125" id="feGaussianBlur3912"/>
    </filter>
    <filter inkscape:collect="always" id="filter3926">
      <feGaussianBlur inkscape:collect="always" stdDeviation="0.9639214" id="feGaussianBlur3928"/>
    </filter>
    <filter inkscape:collect="always" id="filter3942">
      <feGaussianBlur inkscape:collect="always" stdDeviation="4.7787432" id="feGaussianBlur3944"/>
    </filter>
    <filter inkscape:collect="always" id="filter4010" x="-0.21618863" width="1.4323773" y="-0.06194708" height="1.1238942">
      <feGaussianBlur inkscape:collect="always" stdDeviation="2.7079377" id="feGaussianBlur4012"/>
    </filter>
    <filter inkscape:collect="always" id="filter4014" x="-0.19943774" width="1.3988755" y="-0.061947128" height="1.1238943">
      <feGaussianBlur inkscape:collect="always" stdDeviation="2.7079377" id="feGaussianBlur4016"/>
    </filter>
    <filter inkscape:collect="always" id="filter4018" x="-0.38984945" width="1.7796989" y="-0.070674962" height="1.1413499">
      <feGaussianBlur inkscape:collect="always" stdDeviation="2.7079377" id="feGaussianBlur4020"/>
    </filter>
    <filter inkscape:collect="always" id="filter4022" x="-0.50866097" width="2.0173219" y="-0.059647182" height="1.1192944">
      <feGaussianBlur inkscape:collect="always" stdDeviation="2.7079377" id="feGaussianBlur4024"/>
    </filter>
    <filter inkscape:collect="always" id="filter4050" x="-0.084637681" width="1.1692754" y="-0.10127168" height="1.2025434">
      <feGaussianBlur inkscape:collect="always" stdDeviation="1.825" id="feGaussianBlur4052"/>
    </filter>
    <filter inkscape:collect="always" id="filter4054">
      <feGaussianBlur inkscape:collect="always" stdDeviation="1.825" id="feGaussianBlur4056"/>
    </filter>
    <filter inkscape:collect="always" id="filter4082" x="-0.026594595" width="1.0531892" y="-0.24600001" height="1.492">
      <feGaussianBlur inkscape:collect="always" stdDeviation="3.0269863" id="feGaussianBlur4084"/>
    </filter>
  </defs>
  <sodipodi:namedview inkscape:document-units="mm" id="base" pagecolor="#ffffff" bordercolor="#666666" borderopacity="1.0" inkscape:pageopacity="0.0" inkscape:pageshadow="2" inkscape:zoom="1.8447545" inkscape:cx="166.43587" inkscape:cy="232.85467" inkscape:current-layer="layer1" showgrid="false" inkscape:window-width="1920" inkscape:window-height="1019" inkscape:window-x="-9" inkscape:window-y="-9" inkscape:window-maximized="1" units="cm" fit-margin-top="1" fit-margin-left="1" fit-margin-right="1" fit-margin-bottom="1"/>
  <g inkscape:label="Layer 1" inkscape:groupmode="layer" id="layer1" transform="translate(-210.37389,-192.26886)">
    <path sodipodi:type="arc" style="fill:#999999;fill-opacity:1;stroke:none;filter:url(#filter4082)" id="path4400" sodipodi:cx="332.96848" sodipodi:cy="603.4823" sodipodi:rx="136.58353" sodipodi:ry="14.765786" d="m 469.552,603.4823 a 136.58353,14.765786 0 1 1 -273.16705,0 136.58353,14.765786 0 1 1 273.16705,0 z" transform="translate(84.557878,-84.649343)"/>
    <path style="fill:#000000;fill-opacity:1;stroke:none;stroke-width:3.59999989999999980;stroke-linecap:round;stroke-linejoin:round;stroke-miterlimit:4;stroke-opacity:1;stroke-dasharray:none;stroke-dashoffset:0" d="M 147.96875 268.375 C 144.87245 271.16492 141.04811 273.14573 136.8125 274.03125 C 128.31894 304.02526 124.55323 326.44731 128.28125 327.65625 C 132.0836 328.88929 142.51062 307.68311 153.46875 277.46875 C 152.60088 275.11438 152.08566 272.60255 152 269.96875 C 150.64089 269.46023 149.29836 268.9264 147.96875 268.375 z M 290.53125 272.0625 C 288.95533 279.70836 283.74344 286.02289 276.78125 289.125 C 281.96468 312.60685 287.3339 328.23017 290.625 327.71875 C 294.55337 327.1083 294.31915 303.72047 290.53125 272.0625 z M 251.125 285.125 C 256.56736 310.80546 262.3389 328.25853 265.8125 327.71875 C 268.89442 327.23984 269.40591 312.70046 267.65625 291.1875 C 267.4451 291.19299 267.24371 291.21875 267.03125 291.21875 C 260.9166 291.21875 255.35972 288.8938 251.125 285.125 z M 158.875 286 C 152.72531 309.82591 150.3488 326.6141 153.5625 327.65625 C 156.67279 328.66487 164.20412 314.63288 172.84375 292.96875 C 167.39916 292.2604 162.53778 289.72908 158.875 286 z " transform="translate(210.37389,192.26886)" id="path4375"/>
    <path style="fill:#999999;fill-opacity:1;stroke:none;filter:url(#filter4022)" d="M 262.40625 290.75 C 262.94241 302.25647 262.88029 310.63451 262.0625 313.25 C 262.97642 316.85591 263.79218 318.87421 264.4375 318.71875 C 265.89191 318.36836 266.06483 307.25558 265.15625 291.125 C 264.22195 291.05247 263.30736 290.92666 262.40625 290.75 z " transform="translate(210.37389,192.26886)" id="path3872"/>
    <path style="fill:#999999;fill-opacity:1;stroke:none;filter:url(#filter4018)" d="M 287.625 279.5625 C 286.7943 280.94394 285.80138 282.22389 284.71875 283.40625 C 286.51237 299.09011 286.80506 311.10196 285.34375 314.125 C 286.5362 317.16826 287.62676 318.84995 288.46875 318.71875 C 291.04076 318.31794 290.58672 301.37991 287.625 279.5625 z " transform="translate(210.37389,192.26886)" id="path3870"/>
    <path style="fill:#999999;fill-opacity:1;stroke:none;filter:url(#filter4014)" d="M 147.96875 268.375 C 147.51977 268.77955 147.0411 269.12942 146.5625 269.5 C 140.69541 288.89963 134.64959 304.91853 130.65625 311.96875 C 130.08243 316.96414 130.18012 320.07654 131.1875 320.4375 C 133.47255 321.25627 139.52577 308.005 146.0625 288.65625 C 147.38084 282.84594 149.01814 276.37969 150.90625 269.53125 C 149.92284 269.15132 148.93704 268.77656 147.96875 268.375 z " transform="translate(210.37389,192.26886)" id="path3868"/>
    <path style="fill:#999999;fill-opacity:1;stroke:none;filter:url(#filter4010)" d="M 164.40625 290.1875 C 161.16882 300.04933 158.149 307.86669 155.875 312.21875 C 155.34566 317.21414 155.44571 320.32654 156.375 320.6875 C 158.362 321.4593 163.43754 309.70743 169.0625 292.15625 C 167.42693 291.66454 165.87421 290.99894 164.40625 290.1875 z " transform="translate(210.37389,192.26886)" id="path3861"/>
    <path style="fill:#ffffff;stroke:none;stroke-width:3.59999989999999980;stroke-linecap:round;stroke-linejoin:round;stroke-miterlimit:4;stroke-opacity:1;stroke-dasharray:none;stroke-dashoffset:0" d="m 444.12235,255.31857 c -8.83623,0 -16.55595,4.79367 -20.71875,11.90625 -4.35802,-6.0257 -11.43264,-9.9375 -19.4375,-9.9375 -9.93707,0 -18.45184,6.0458 -22.09375,14.65625 -4.29621,-6.47445 -11.67887,-10.75 -20.03125,-10.75 -12.72624,0 -23.10383,9.91388 -23.90625,22.4375 -3.37591,-1.81349 -7.24327,-2.84375 -11.34375,-2.84375 -13.24943,0 -23.96875,10.75057 -23.96875,24 0,1.86198 0.19235,3.66621 0.59375,5.40625 -12.84828,0.4559 -23.125,11.00923 -23.125,23.96875 0,7.8822 3.78683,14.87676 9.65625,19.25 -12.03516,1.28789 -21.40625,11.43541 -21.40625,23.8125 0,11.42595 7.99149,20.99117 18.6875,23.40625 -3.69296,4.21955 -5.96875,9.73334 -5.96875,15.78125 0,13.24943 10.75057,23.96875 24,23.96875 5.38258,0 10.34116,-1.75664 14.34375,-4.75 -0.71978,2.28089 -1.125,4.69998 -1.125,7.21875 0,13.24943 10.75057,23.96875 24,23.96875 6.18213,0 11.80857,-2.3545 16.0625,-6.1875 1.32961,0.5514 2.67214,1.08523 4.03125,1.59375 0.41899,12.88253 10.98483,23.21875 23.96875,23.21875 9.99622,0 18.55127,-6.12016 22.15625,-14.8125 3.06645,9.71722 12.14435,16.75 22.875,16.75 11.72359,0 21.47013,-8.38428 23.5625,-19.5 3.40607,9.10341 12.1768,15.59375 22.46873,15.59375 13.2495,0 24,-10.75057 24,-24 0,-2.48427 -0.3928,-4.87139 -1.0937,-7.125 3.9904,2.96162 8.9614,4.6875 14.3125,4.6875 13.2494,0 23.9688,-10.75057 23.9688,-24 0,-6.03531 -2.2271,-11.53382 -5.9063,-15.75 10.6809,-2.42618 18.6563,-11.99099 18.6563,-23.40625 0,-9.27364 -5.2678,-17.31957 -12.9688,-21.3125 8.2232,-3.80459 13.9375,-12.1251 13.9375,-21.78125 0,-12.61212 -9.7294,-22.90956 -22.0937,-23.875 0.9856,-2.624 1.5312,-5.46909 1.5312,-8.4375 0,-13.24943 -10.7506,-23.96875 -24,-23.96875 -1.862,0 -3.6661,0.19235 -5.4062,0.59375 -0.4559,-12.84828 -11.0093,-23.125 -23.9688,-23.125 -3.86623,0 -7.51563,0.93799 -10.75003,2.5625 -2.2138,-10.96192 -11.88549,-19.21875 -23.5,-19.21875 z" id="path3563" inkscape:connector-curvature="0" sodipodi:nodetypes="scscscsscscscsscssccscscsscsscscscsscscs"/>
    <path style="fill:#00ffff;fill-opacity:1;stroke:none;filter:url(#filter3942)" d="m 456.25411,265.73778 c 1.34648,2.18885 2.32642,4.62004 2.85493,7.21851 1.1233,-0.56021 2.3116,-1.02897 3.53184,-1.40279 -1.73293,-2.32074 -3.89582,-4.30509 -6.38677,-5.81572 z m 32.22827,15.54755 c 1.97196,3.19413 3.18336,6.91391 3.32584,10.90083 1.63888,-0.37539 3.33808,-0.55527 5.09177,-0.55527 0.2201,0 0.42893,0.023 0.64751,0.0292 -1.86017,-4.32264 -5.05891,-7.95348 -9.06512,-10.37479 z m 27.75458,21.12949 c 2.07719,3.38905 3.26696,7.37211 3.26696,11.63143 0,2.77604 -0.51391,5.43674 -1.44217,7.89068 3.14935,0.24419 6.11663,1.12234 8.77079,2.51333 0.12752,-0.96139 0.20602,-1.92722 0.20602,-2.92247 0,-8.09307 -4.32811,-15.17271 -10.8016,-19.11297 z m 19.33696,30.18914 c 2.09096,3.39464 3.29641,7.38399 3.29641,11.66066 0,9.03035 -5.38191,16.81162 -13.12676,20.36964 3.27987,1.68861 6.0864,4.13637 8.18213,7.13084 7.38554,-3.68998 12.47927,-11.24989 12.47927,-20.01895 0,-8.10888 -4.33999,-15.2121 -10.83105,-19.14219 z m -0.9124,40.27167 c 2.09174,3.40086 3.2964,7.41438 3.2964,11.68989 0,10.67545 -7.51143,19.62038 -17.57103,21.88932 3.46519,3.94294 5.5627,9.0851 5.5627,14.72927 0,12.39074 -10.09582,22.44459 -22.57452,22.44459 -5.03982,0 -9.72166,-1.61403 -13.47994,-4.38371 0.66012,2.10755 1.03012,4.33997 1.03012,6.66323 0,12.39076 -10.12514,22.4446 -22.60394,22.4446 -4.29322,0 -8.29741,-1.20685 -11.71401,-3.27317 3.96995,6.43921 11.08896,10.7547 19.24865,10.7547 12.4788,0 22.60395,-10.05384 22.60395,-22.44459 0,-2.32327 -0.37,-4.55569 -1.03013,-6.66324 3.75828,2.76969 8.44011,4.38371 13.47995,4.38371 12.4787,0 22.57451,-10.05384 22.57451,-22.4446 0,-5.64416 -2.0975,-10.78632 -5.56269,-14.72925 10.0596,-2.26895 17.57103,-11.21388 17.57103,-21.88932 0,-8.10748 -4.34047,-15.2293 -10.83105,-19.17143 z m -252.38121,15.25531 c 1.26815,2.06028 2.83219,3.91274 4.67973,5.46503 0.62013,-0.96157 1.30652,-1.86278 2.06025,-2.71791 -2.41796,-0.5421 -4.68437,-1.50294 -6.73998,-2.74712 z m 37.23176,35.47881 c -3.76978,2.79937 -8.43991,4.44217 -13.50939,4.44217 -4.31306,0 -8.34303,-1.19427 -11.77289,-3.27317 3.97237,6.43976 11.14139,10.7547 19.30753,10.7547 1.85907,0 3.65913,-0.22506 5.38609,-0.64295 -0.30504,-1.46868 -0.47091,-2.97099 -0.47091,-4.52983 0,-2.35553 0.38164,-4.61784 1.05957,-6.75092 z m 36.67253,23.3798 c -4.00648,3.58458 -9.30565,5.78649 -15.12816,5.78649 -4.31306,0 -8.34304,-1.19427 -11.77288,-3.27317 3.97237,6.43977 11.14137,10.7547 19.30753,10.7547 4.85209,0 9.32902,-1.56581 13.00903,-4.14991 -0.96032,-2.37189 -1.53066,-4.9371 -1.61877,-7.62765 -1.28006,-0.47557 -2.54448,-0.9748 -3.79675,-1.49046 z m 90.97495,6.78013 c -1.97065,10.39533 -11.15024,18.23623 -22.19189,18.23623 -4.29888,0 -8.32377,-1.20616 -11.74344,-3.27317 3.96588,6.45197 11.10496,10.7547 19.27809,10.7547 10.26408,0 18.91107,-6.79835 21.66211,-16.10283 -3.12872,-2.50489 -5.57123,-5.81029 -7.00487,-9.61493 z m -43.73625,2.57178 c -3.39529,8.12899 -11.4527,13.85252 -20.86745,13.85252 -4.30276,0 -8.3217,-1.22629 -11.74346,-3.3024 3.96583,6.45821 11.10709,10.78393 19.27811,10.78393 8.47798,0 15.82669,-4.65503 19.69014,-11.51455 -2.91229,-2.63134 -5.14267,-5.99747 -6.35734,-9.8195 z" id="path3035" inkscape:connector-curvature="0" transform="matrix(0.98727811,0,0,0.95993494,3.591139,15.880293)"/>
    <path style="font-size:medium;font-style:normal;font-variant:normal;font-weight:normal;font-stretch:normal;text-indent:0;text-align:start;text-decoration:none;line-height:normal;letter-spacing:normal;word-spacing:normal;text-transform:none;direction:ltr;block-progression:tb;writing-mode:lr-tb;text-anchor:start;baseline-shift:baseline;color:#000000;fill:#000000;fill-opacity:1;fill-rule:nonzero;stroke:none;stroke-width:3.5999999;marker:none;visibility:visible;display:inline;overflow:visible;enable-background:accumulate;font-family:Sans;-inkscape-font-specification:Sans" d="m 444.125,253.53125 c -8.63747,0 -16.16368,4.37167 -20.84375,10.90625 -4.7266,-5.41785 -11.56747,-8.9375 -19.3125,-8.9375 -9.67085,0 -18.05852,5.35317 -22.46875,13.25 -4.73829,-5.64554 -11.72683,-9.34375 -19.65625,-9.34375 -12.8337,0 -23.35578,9.45682 -25.3125,21.75 C 333.44643,279.85484 330.14322,279 326.59375,279 c -14.22311,0 -25.78125,11.56097 -25.78125,25.78125 0,1.32396 0.24793,2.59459 0.4375,3.875 -12.87993,1.4302 -22.96875,12.24779 -22.96875,25.5 0,7.13086 2.99901,13.51435 7.6875,18.1875 -11.14999,2.8384 -19.4375,12.85445 -19.4375,24.875 0,11.34392 7.38871,20.93236 17.59375,24.375 -2.98603,4.20165 -4.875,9.26653 -4.875,14.8125 0,14.22311 11.59222,25.78125 25.8125,25.78125 4.21182,0 8.17034,-1.05054 11.6875,-2.84375 -0.16119,1.14959 -0.28125,2.30408 -0.28125,3.5 0,14.22311 11.59222,25.78125 25.8125,25.78125 6.23038,0 11.88783,-2.29236 16.34375,-5.96875 0.69382,0.28185 1.39048,0.57266 2.09375,0.84375 1.06999,13.2492 12.10738,23.75 25.625,23.75 9.28413,0 17.43029,-4.93201 21.96875,-12.3125 4.23826,8.44825 12.98502,14.25 23.0625,14.25 10.91016,0 20.24252,-6.81166 24,-16.40625 4.52195,7.46191 12.68642,12.5 22.03125,12.5 14.22317,0 25.8125,-11.5894 25.8125,-25.8125 0,-1.16611 -0.12809,-2.28391 -0.28125,-3.40625 3.51975,1.77804 7.49333,2.78125 11.6875,2.78125 14.22308,0 25.78125,-11.59221 25.78125,-25.8125 0,-5.52386 -1.8485,-10.58393 -4.8125,-14.78125 10.19049,-3.45203 17.5625,-13.0418 17.5625,-24.375 0,-8.84741 -4.63037,-16.47918 -11.4375,-21.125 7.41406,-4.5328 12.40625,-12.65919 12.40625,-21.96875 0,-12.79516 -9.41645,-23.27976 -21.65625,-25.28125 0.64038,-2.24702 1.09375,-4.58226 1.09375,-7.03125 0,-14.22311 -11.59225,-25.75 -25.8125,-25.75 -1.3236,0 -2.59496,0.21679 -3.875,0.40625 -1.4302,-12.87994 -12.24781,-22.9375 -25.5,-22.9375 -3.40766,0 -6.58791,0.82624 -9.5625,2.03125 -3.09463,-10.77721 -12.93536,-18.6875 -24.6875,-18.6875 z m 0,3.59375 c 10.76142,0 19.67161,7.64455 21.71875,17.78125 a 1.80018,1.80018 0 0 0 2.59375,1.25 c 2.99746,-1.5055 6.3624,-2.375 9.9375,-2.375 12.00792,0 21.73405,9.47653 22.15625,21.375 a 1.80018,1.80018 0 0 0 2.21875,1.6875 c 1.5973,-0.36846 3.26196,-0.53125 5,-0.53125 12.27855,0 22.1875,9.8805 22.1875,22.15625 0,2.74785 -0.49436,5.38474 -1.40625,7.8125 a 1.80018,1.80018 0 0 0 1.53125,2.4375 c 11.44703,0.89382 20.4375,10.3761 20.4375,22.0625 0,8.94602 -5.27107,16.63817 -12.875,20.15625 a 1.80018,1.80018 0 0 0 -0.0937,3.21875 c 7.12158,3.6925 12,11.12676 12,19.71875 0,10.57687 -7.37685,19.41355 -17.25,21.65625 a 1.80018,1.80018 0 0 0 -0.9375,2.9375 c 3.40605,3.90317 5.4375,8.97 5.4375,14.5625 0,12.27857 -9.88053,22.21875 -22.15625,22.21875 -4.96407,0 -9.56534,-1.60905 -13.25,-4.34375 a 1.80018,1.80018 0 0 0 -2.78125,1.96875 c 0.65049,2.09152 1,4.29922 1,6.59375 0,12.27576 -9.91167,22.21875 -22.1875,22.21875 -9.53518,0 -17.63218,-6.02096 -20.78125,-14.4375 a 1.80018,1.80018 0 0 0 -3.46875,0.3125 c -1.93483,10.27878 -10.91586,18.03125 -21.78125,18.03125 -9.94418,0 -18.32161,-6.51735 -21.15625,-15.5 a 1.80018,1.80018 0 0 0 -3.375,-0.15625 c -3.33347,8.03767 -11.23848,13.71875 -20.5,13.71875 -12.02863,0 -21.79945,-9.56885 -22.1875,-21.5 A 1.80018,1.80018 0 0 0 363,460.53125 c -1.33625,-0.49997 -2.65545,-1.01786 -3.96875,-1.5625 a 1.80018,1.80018 0 0 0 -1.90625,0.3125 c -3.93988,3.55003 -9.11865,5.75 -14.84375,5.75 -12.27858,0 -22.1875,-9.91175 -22.1875,-22.1875 0,-2.32571 0.36304,-4.53879 1.03125,-6.65625 a 1.80018,1.80018 0 0 0 -2.8125,-2 c -3.70208,2.76862 -8.25905,4.40625 -13.25,4.40625 -12.27858,0 -22.1875,-9.91175 -22.1875,-22.1875 0,-5.59636 2.07748,-10.6832 5.5,-14.59375 a 1.80018,1.80018 0 0 0 -0.9375,-2.9375 c -9.8879,-2.23261 -17.28125,-11.0696 -17.28125,-21.65625 0,-11.46853 8.64245,-20.83928 19.78125,-22.03125 a 1.80018,1.80018 0 0 0 0.875,-3.21875 c -5.4295,-4.04546 -8.90625,-10.50681 -8.90625,-17.8125 0,-12.00794 9.47652,-21.73405 21.375,-22.15625 a 1.80018,1.80018 0 0 0 1.6875,-2.21875 c -0.36845,-1.59721 -0.53125,-3.26198 -0.53125,-5 0,-12.27858 9.8805,-22.1875 22.15625,-22.1875 3.79898,0 7.37858,0.94822 10.5,2.625 a 1.80018,1.80018 0 0 0 2.625,-1.46875 c 0.74297,-11.59583 10.33357,-20.75 22.125,-20.75 7.7381,0 14.55846,3.95044 18.53125,9.9375 a 1.80018,1.80018 0 0 0 3.15625,-0.28125 c 3.36755,-7.9618 11.23052,-13.5625 20.4375,-13.5625 7.41845,0 13.93604,3.6116 17.96875,9.1875 a 1.80018,1.80018 0 0 0 3.03125,-0.15625 c 3.85086,-6.57961 10.97102,-11 19.15625,-11 z" id="path4086" inkscape:connector-curvature="0"/>
    <path style="fill:#ffe6d5;fill-opacity:1;stroke:none;stroke-width:4.25504207999999990;stroke-linecap:round;stroke-linejoin:round;stroke-miterlimit:4;stroke-opacity:1;stroke-dashoffset:0" d="m 458.89113,353.85047 c 5.31048,24.786 -5.51948,40.50538 -24.18939,35.11022 -18.66992,-5.39516 -11.25694,-31.3959 -16.56742,-56.1819 -5.31048,-24.786 -21.33344,-38.9713 -2.66352,-33.57613 18.66991,5.39516 38.10986,29.86182 43.42033,54.64781 z" id="path4385" inkscape:connector-curvature="0" sodipodi:nodetypes="sssss"/>
    <path sodipodi:nodetypes="sssss" inkscape:connector-curvature="0" id="path4388" d="m 249.94487,352.6869 c -6.54291,24.48953 3.48769,40.73066 22.40397,36.27556 18.91628,-4.4551 12.81236,-30.7939 19.35526,-55.28344 6.54291,-24.48953 23.25496,-37.85611 4.33868,-33.401 -18.91627,4.4551 -39.55501,27.91935 -46.09791,52.40888 z" style="fill:#ffe6d5;fill-opacity:1;stroke:#000000;stroke-width:4.25504207999999990;stroke-linecap:round;stroke-linejoin:round;stroke-miterlimit:4;stroke-opacity:1;stroke-dashoffset:0"/>
    <path style="fill:#ffe6d5;stroke:none;stroke-width:3.59999989999999980;stroke-linecap:round;stroke-linejoin:round;stroke-miterlimit:4;stroke-opacity:1;stroke-dasharray:none;stroke-dashoffset:0" d="m 413.47216,350.49276 c 0,47.58977 -26.30396,68.16891 -58.75153,68.16891 -32.44758,0 -58.75153,-20.57914 -58.75153,-68.16891 0,-47.58977 26.30395,-104.16891 58.75153,-104.16891 32.44757,0 58.75153,56.57914 58.75153,104.16891 z" id="path3568" inkscape:connector-curvature="0" sodipodi:nodetypes="sssss"/>
    <path style="fill:#000000;stroke:none" d="m 364.90122,231.27287 c 0,0 18.30608,-6.73015 31.73898,-1.71155 13.43292,5.0186 21.22036,21.78893 21.22036,21.78893 -2.7775,1.79585 -2.89063,4.06811 -4.3877,2.21692 -5.55464,-6.86857 -11.996,-12.50087 -20.092,-15.82624 -6.99895,-2.87476 -16.99048,6.5851 -23.98861,-0.62561 -3.42229,-3.52624 -1.22385,-2.42763 -4.49103,-5.84245 z" id="path4402" inkscape:connector-curvature="0" sodipodi:nodetypes="czcsssc"/>
    <path sodipodi:nodetypes="czcsssc" inkscape:connector-curvature="0" id="path4404" d="m 349.79263,259.96366 c 0,0 -14.98787,-12.48084 -29.32593,-12.25897 -14.33807,0.22186 -27.29978,13.4083 -27.29978,13.4083 2.01416,2.62349 1.35853,4.80204 3.38983,3.56029 7.53681,-4.60735 15.49427,-7.75262 24.23667,-8.16958 7.55775,-0.36046 13.79715,11.90288 22.80859,7.45743 4.40685,-2.17397 1.96726,-1.87646 6.19062,-3.99747 z" style="fill:#000000;stroke:none"/>
    <path style="fill:#ffb380;stroke:none;filter:url(#filter3910)" d="m 374.94762,257.08136 c 17.14113,19.21335 28.7564,54.68469 28.7564,86.08659 0,45.82275 -24.74809,65.65568 -55.27816,65.65568 -13.98337,0 -26.75403,-4.18034 -36.48947,-13.08901 10.08121,11.57013 24.38839,16.94049 40.25309,16.94049 30.53008,0 55.27816,-19.83293 55.27816,-65.65569 0,-33.65109 -13.33758,-71.95534 -32.52002,-89.93806 z" id="path3836" inkscape:connector-curvature="0"/>
    <path style="fill:#ffb380;fill-opacity:1;stroke:none;filter:url(#filter3926)" d="m 435.71026,317.95636 c 7.29208,8.92592 13.18149,20.86132 15.52329,32.87927 4.13473,21.21908 -4.32031,34.66222 -18.85666,30.04347 -1.05851,-0.33634 -1.99193,-0.76796 -2.84675,-1.28414 1.5678,3.04069 3.90532,5.2727 7.51833,6.42068 14.53636,4.61875 22.99139,-8.82438 18.85667,-30.04346 -2.82597,-14.50266 -10.79466,-28.89405 -20.19488,-38.01582 z" id="path3848" inkscape:connector-curvature="0"/>
    <path style="fill:#ffb380;fill-opacity:1;stroke:none;filter:url(#filter3894)" d="m 295.56139,304.42505 c -0.87644,0.009 -2.00538,0.19376 -3.39911,0.50274 -2.15931,5.21441 -7.01808,13.71415 -9.75624,24.74586 -5.43269,21.88768 -0.38089,45.42619 -16.08742,49.40796 -4.90829,1.24431 -9.0785,0.68832 -12.35098,-1.34064 3.34511,5.99993 9.39545,8.71541 17.33289,6.70317 15.70653,-3.98177 10.65473,-27.52028 16.08742,-49.40794 4.75361,-19.15172 15.9653,-30.69276 8.17344,-30.61115 z" id="path3855" inkscape:connector-curvature="0"/>
    <path sodipodi:type="arc" style="fill:#ffffff;stroke:#000000;stroke-width:3.5999999;stroke-linecap:round;stroke-linejoin:round;stroke-miterlimit:4;stroke-opacity:1;stroke-dasharray:none;stroke-dashoffset:0" id="path3571" sodipodi:cx="61.199509" sodipodi:cy="714.05127" sodipodi:rx="33.782131" sodipodi:ry="27.906977" d="m 94.98164,714.05127 a 33.782131,27.906977 0 1 1 -67.564263,0 33.782131,27.906977 0 1 1 67.564263,0 z" transform="translate(254.84301,-416.31983)"/>
    <path sodipodi:type="arc" style="fill:#ffffff;stroke:#000000;stroke-width:3.5999999;stroke-linecap:round;stroke-linejoin:round;stroke-miterlimit:4;stroke-opacity:1;stroke-dasharray:none;stroke-dashoffset:0" id="path3573" sodipodi:cx="143.94125" sodipodi:cy="708.66571" sodipodi:rx="36.23011" sodipodi:ry="36.23011" d="m 180.17136,708.66571 a 36.23011,36.23011 0 1 1 -72.46022,0 36.23011,36.23011 0 1 1 72.46022,0 z" transform="translate(243.09271,-409.46548)"/>
    <path style="fill:#333333;fill-opacity:1;stroke:none;stroke-width:3.59999989999999980;stroke-linecap:round;stroke-linejoin:round;stroke-miterlimit:4;stroke-opacity:1;stroke-dashoffset:0" d="m 336.29214,303.99075 c 0,4.48521 -3.63598,8.12118 -8.12118,8.12118 -4.48521,0 -8.12118,-3.63597 -8.12118,-8.12118 0,-4.4852 3.63597,-8.12118 8.12118,-8.12118 4.4852,0 8.12118,3.63598 8.12118,8.12118 z" id="path4370" inkscape:connector-curvature="0"/>
    <path id="path4373" d="m 377.63634,303.25246 c 0,4.48521 -3.63597,8.12118 -8.12118,8.12118 -4.48521,0 -8.12118,-3.63597 -8.12118,-8.12118 0,-4.4852 3.63597,-8.12118 8.12118,-8.12118 4.48521,0 8.12118,3.63598 8.12118,8.12118 z" style="fill:#333333;fill-opacity:1;stroke:none;stroke-width:3.59999989999999980;stroke-linecap:round;stroke-linejoin:round;stroke-miterlimit:4;stroke-opacity:1;stroke-dashoffset:0" inkscape:connector-curvature="0"/>
    <path style="fill:#00ffff;stroke:none;filter:url(#filter4054)" d="m 408.55404,274.17511 c 4.77691,5.68551 7.66543,13.06471 7.66543,21.13198 0,17.96917 -14.30241,32.52586 -31.95772,32.52586 -7.92974,0 -15.17572,-2.93616 -20.76286,-7.80171 5.8632,6.97426 14.56672,11.39387 24.29228,11.39387 17.6553,0 31.95772,-14.55668 31.95772,-32.52585 0,-9.90191 -4.33829,-18.75665 -11.19485,-24.72415 z" id="path3841" inkscape:connector-curvature="0"/>
    <path inkscape:connector-curvature="0" id="path3846" d="m 335.94963,278.67511 c 4.39476,4.29516 7.0522,9.86984 7.0522,15.96433 0,13.57497 -13.15823,24.57194 -29.40111,24.57194 -7.29535,0 -13.96166,-2.21815 -19.10183,-5.89386 5.39414,5.26876 13.40138,8.60759 22.34889,8.60759 16.24289,0 29.40111,-10.99697 29.40111,-24.57193 0,-7.48048 -3.99122,-14.16987 -10.29926,-18.67807 z" style="fill:#00ffff;stroke:none;filter:url(#filter4050)"/>
    <path style="fill:#ffffff;stroke:none;stroke-width:3.59999989999999980;stroke-linecap:butt;stroke-linejoin:miter;stroke-miterlimit:4;stroke-opacity:1;stroke-dasharray:none" d="m 401.75939,395.64535 c 4.29451,-11.32589 0.26152,-21.18343 -7.43444,-30.15912 6.33808,1.55299 16.17763,3.66809 14.56264,12.82898 -1.13103,6.66102 -3.92852,12.8932 -7.1282,17.33014 z" id="path4406" inkscape:connector-curvature="0" sodipodi:nodetypes="cccc" inkscape:transform-center-x="2.5555474"/>
    <path style="font-size:medium;font-style:normal;font-variant:normal;font-weight:normal;font-stretch:normal;text-indent:0;text-align:start;text-decoration:none;line-height:normal;letter-spacing:normal;word-spacing:normal;text-transform:none;direction:ltr;block-progression:tb;writing-mode:lr-tb;text-anchor:start;baseline-shift:baseline;color:#000000;fill:#000000;fill-opacity:1;stroke:none;stroke-width:3.10938524999999990;marker:none;visibility:visible;display:inline;overflow:visible;enable-background:accumulate;font-family:Sans;-inkscape-font-specification:Sans" d="m 327.71342,385.95263 c 7.07005,7.12321 15.81836,10.40625 25.40625,10.40625 7.02172,0 13.59283,-1.76387 19.375,-5.5 l 1.53125,2.625 c -6.2766,4.02039 -13.40164,6 -20.90625,6 -1.11148,0 -2.21816,-0.039 -3.3125,-0.125 -0.7534,7.10379 -0.27662,13.20607 3.625,17.34375 l -2.625,2.46875 c -5.00415,-5.30693 -5.38193,-12.67342 -4.5625,-20.25 -7.6211,-1.28836 -14.67253,-4.78765 -20.5625,-10.625 0.67575,-0.78775 1.35793,-1.56292 2.03125,-2.34375 z" id="path3575" inkscape:connector-curvature="0"/>
    <path style="font-size:medium;font-style:normal;font-variant:normal;font-weight:normal;font-stretch:normal;text-indent:0;text-align:start;text-decoration:none;line-height:normal;letter-spacing:normal;word-spacing:normal;text-transform:none;direction:ltr;block-progression:tb;writing-mode:lr-tb;text-anchor:start;baseline-shift:baseline;color:#000000;fill:#000000;fill-opacity:1;fill-rule:nonzero;stroke:none;stroke-width:3.5999999;marker:none;visibility:visible;display:inline;overflow:visible;enable-background:accumulate;font-family:Sans;-inkscape-font-specification:Sans" d="m 389.3125,362.40625 3.65625,4.25 c 7.47433,8.71721 11.13305,17.69093 7.09375,28.34375 l 3.15625,1.6875 c 3.37627,-4.68182 6.25549,-11.10122 7.4375,-18.0625 0.46006,-2.60965 0.11065,-4.93792 -0.875,-6.8125 -0.98565,-1.87458 -2.53458,-3.26196 -4.25,-4.3125 -3.43085,-2.10108 -7.63787,-2.97979 -10.78125,-3.75 l -5.4375,-1.34375 z m 9.40625,6.125 c 1.795,0.55034 3.53698,1.20481 4.9375,2.0625 1.33485,0.81747 2.33439,1.75922 2.9375,2.90625 0.60311,1.14703 0.87868,2.52921 0.53125,4.5 -0.42,2.47354 -1.13313,4.87216 -1.96875,7.15625 -0.3343,-5.95056 -2.82913,-11.4718 -6.4375,-16.625 z" id="path4092" inkscape:connector-curvature="0"/>
    <path style="font-size:medium;font-style:normal;font-variant:normal;font-weight:normal;font-stretch:normal;text-indent:0;text-align:start;text-decoration:none;line-height:normal;letter-spacing:normal;word-spacing:normal;text-transform:none;direction:ltr;block-progression:tb;writing-mode:lr-tb;text-anchor:start;baseline-shift:baseline;color:#000000;fill:#000000;fill-opacity:1;fill-rule:nonzero;stroke:none;stroke-width:3.5999999;marker:none;visibility:visible;display:inline;overflow:visible;enable-background:accumulate;font-family:Sans;-inkscape-font-specification:Sans" d="m 358.34264,458.83136 a 1.80018,1.80018 0 0 0 -1.21875,0.46875 c -2.86349,2.58014 -6.39076,4.4301 -10.3125,5.25 a 1.80018,1.80018 0 0 0 -1.34375,1.25 c -4.25982,15.04304 -7.35056,28.19175 -8.90625,37.8125 -0.77785,4.81038 -1.16622,8.72259 -1.125,11.65625 0.0206,1.46683 0.11824,2.69034 0.4375,3.75 0.31926,1.05966 0.93394,2.20836 2.21875,2.625 1.31016,0.42486 2.51265,-0.18074 3.40625,-0.875 0.8936,-0.69426 1.69562,-1.62374 2.59375,-2.84375 1.79627,-2.44002 3.84221,-5.98652 6.09375,-10.5 4.50307,-9.02696 9.84831,-21.91018 15.34375,-37.0625 a 1.80018,1.80018 0 0 0 0,-1.25 c -0.80413,-2.18146 -1.2645,-4.50091 -1.34375,-6.9375 a 1.80018,1.80018 0 0 0 -1.1875,-1.625 c -1.33625,-0.49997 -2.65545,-1.01786 -3.96875,-1.5625 a 1.80018,1.80018 0 0 0 -0.6875,-0.15625 z m 142.46875,3.6875 a 1.80018,1.80018 0 0 0 -1.65625,1.4375 c -1.45708,7.06927 -6.28099,12.91281 -12.71875,15.78125 a 1.80018,1.80018 0 0 0 -1.03125,2.03125 c 2.6018,11.78662 5.24246,21.6316 7.6875,28.53125 1.22252,3.44983 2.37369,6.14858 3.53125,8.09375 0.57878,0.97259 1.15137,1.75273 1.84375,2.375 0.69238,0.62227 1.67739,1.17639 2.8125,1 1.35403,-0.21041 2.14102,-1.26591 2.625,-2.28125 0.48398,-1.01534 0.77961,-2.20681 1.03125,-3.6875 0.50328,-2.96138 0.73949,-7.00215 0.71875,-12 -0.0415,-9.9957 -1.06911,-23.81094 -2.96875,-39.6875 a 1.80018,1.80018 0 0 0 -1.875,-1.59375 z m -142.25,0.15625 c 0.71143,0.28936 1.43488,0.56569 2.15625,0.84375 0.17225,2.12751 0.59344,4.17541 1.25,6.125 -5.38996,14.8142 -10.6553,27.47802 -15,36.1875 -2.20028,4.41073 -4.17935,7.8352 -5.75,9.96875 -0.77327,1.0504 -1.45839,1.73974 -1.90625,2.09375 -0.14838,-0.52703 -0.26396,-1.42533 -0.28125,-2.65625 -0.0358,-2.5478 0.33448,-6.33574 1.09375,-11.03125 1.48772,-9.20041 4.46185,-21.99083 8.5625,-36.5625 3.67618,-0.95023 7.02352,-2.63275 9.875,-4.96875 z m 141.28125,9.21875 c 1.32128,12.51183 2.15378,23.77999 2.1875,31.90625 0.0203,4.88266 -0.18571,8.79016 -0.625,11.375 -0.21212,1.24816 -0.48373,2.17031 -0.71875,2.6875 -0.25661,-0.27127 -0.57566,-0.65195 -0.96875,-1.3125 -0.93678,-1.57417 -2.0709,-4.14144 -3.25,-7.46875 -2.26541,-6.39275 -4.76674,-15.72762 -7.25,-26.8125 4.49734,-2.34013 8.16777,-5.9531 10.625,-10.375 z m -38.28125,3.6875 a 1.80018,1.80018 0 0 0 -1.8125,2.1875 c 2.73079,12.88557 5.5274,23.71985 8.125,31.34375 1.2988,3.81195 2.53266,6.79511 3.75,8.9375 0.60867,1.0712 1.19273,1.9473 1.90625,2.625 0.71352,0.6777 1.73876,1.28003 2.9375,1.09375 1.06427,-0.16538 1.81622,-0.9174 2.28125,-1.65625 0.46503,-0.73885 0.74498,-1.57023 1,-2.5625 0.51003,-1.98454 0.81841,-4.58389 0.96875,-7.84375 0.30067,-6.51971 -0.0276,-15.60299 -0.90625,-26.40625 a 1.80018,1.80018 0 0 0 -1.8125,-1.65625 c -0.32767,0.009 -0.52679,0.0312 -0.59375,0.0312 -5.65838,0 -10.79357,-2.13168 -14.71875,-5.625 a 1.80018,1.80018 0 0 0 -1.125,-0.46875 z m -92.3125,0.875 a 1.80018,1.80018 0 0 0 -1.75,1.375 c -3.08639,11.95769 -5.20961,22.12956 -6.1875,29.5625 -0.48894,3.71647 -0.70912,6.75609 -0.5625,9.0625 0.0733,1.1532 0.22654,2.11797 0.5625,3 0.33596,0.88203 0.95537,1.82848 2.0625,2.1875 1.07263,0.34784 2.13418,-0.0113 2.90625,-0.5 0.77207,-0.48874 1.44647,-1.16046 2.15625,-2 1.41956,-1.67909 2.9488,-4.08499 4.65625,-7.1875 3.41491,-6.20502 7.47555,-15.18748 11.8125,-26.0625 a 1.80018,1.80018 0 0 0 -1.46875,-2.4375 c -5.03649,-0.65525 -9.51605,-2.98594 -12.90625,-6.4375 a 1.80018,1.80018 0 0 0 -1.28125,-0.5625 z m 1.0625,5.09375 c 2.9968,2.39674 6.53216,4.10024 10.40625,4.96875 -3.98224,9.83557 -7.71053,18.10789 -10.78125,23.6875 -1.64412,2.98743 -3.11268,5.24851 -4.25,6.59375 -0.44687,0.52857 -0.78101,0.77837 -1.0625,1 -0.10431,-0.37451 -0.23288,-0.83294 -0.28125,-1.59375 -0.11946,-1.87904 0.0591,-4.75467 0.53125,-8.34375 0.86212,-6.55303 2.79286,-15.76549 5.4375,-26.3125 z m 94.03125,0.0937 c 3.54051,2.10563 7.6285,3.37879 12,3.5625 0.76499,9.94389 1.05369,18.40497 0.78125,24.3125 -0.14407,3.12397 -0.44576,5.57643 -0.84375,7.125 -0.14718,0.57266 -0.30193,0.8689 -0.4375,1.15625 -0.28911,-0.31683 -0.65986,-0.76765 -1.09375,-1.53125 -1.01185,-1.78076 -2.21017,-4.6186 -3.46875,-8.3125 -2.18435,-6.411 -4.57054,-15.70066 -6.9375,-26.3125 z" id="path4114" inkscape:connector-curvature="0"/>
    <path style="font-size:medium;font-style:normal;font-variant:normal;font-weight:normal;font-stretch:normal;text-indent:0;text-align:start;text-decoration:none;line-height:normal;letter-spacing:normal;word-spacing:normal;text-transform:none;direction:ltr;block-progression:tb;writing-mode:lr-tb;text-anchor:start;baseline-shift:baseline;color:#000000;fill:#000000;fill-opacity:1;fill-rule:nonzero;stroke:none;stroke-width:3.5999999;marker:none;visibility:visible;display:inline;overflow:visible;enable-background:accumulate;font-family:Sans;-inkscape-font-specification:Sans" d="m 328.15625,294.0625 c -5.458,0 -9.90625,4.47951 -9.90625,9.9375 0,5.458 4.44825,9.90625 9.90625,9.90625 5.45799,0 9.9375,-4.44825 9.9375,-9.90625 0,-5.45799 -4.47951,-9.9375 -9.9375,-9.9375 z m 0,3.59375 c 3.51241,0 6.34375,2.83134 6.34375,6.34375 0,3.51242 -2.83134,6.3125 -6.34375,6.3125 -3.51242,0 -6.3125,-2.80008 -6.3125,-6.3125 0,-3.51241 2.80008,-6.34375 6.3125,-6.34375 z" id="path4120" inkscape:connector-curvature="0"/>
    <path style="font-size:medium;font-style:normal;font-variant:normal;font-weight:normal;font-stretch:normal;text-indent:0;text-align:start;text-decoration:none;line-height:normal;letter-spacing:normal;word-spacing:normal;text-transform:none;direction:ltr;block-progression:tb;writing-mode:lr-tb;text-anchor:start;baseline-shift:baseline;color:#000000;fill:#000000;fill-opacity:1;fill-rule:nonzero;stroke:none;stroke-width:3.5999999;marker:none;visibility:visible;display:inline;overflow:visible;enable-background:accumulate;font-family:Sans;-inkscape-font-specification:Sans" d="m 369.5,293.34375 c -5.458,0 -9.90625,4.44826 -9.90625,9.90625 0,5.458 4.44825,9.9375 9.90625,9.9375 5.458,0 9.9375,-4.4795 9.9375,-9.9375 0,-5.45799 -4.4795,-9.90625 -9.9375,-9.90625 z m 0,3.59375 c 3.51242,0 6.34375,2.80009 6.34375,6.3125 0,3.51242 -2.83133,6.3125 -6.34375,6.3125 -3.51242,0 -6.3125,-2.80008 -6.3125,-6.3125 0,-3.51241 2.80008,-6.3125 6.3125,-6.3125 z" id="path4126" inkscape:connector-curvature="0"/>
    <path style="font-size:medium;font-style:normal;font-variant:normal;font-weight:normal;font-stretch:normal;text-indent:0;text-align:start;text-decoration:none;line-height:normal;letter-spacing:normal;word-spacing:normal;text-transform:none;direction:ltr;block-progression:tb;writing-mode:lr-tb;text-anchor:start;baseline-shift:baseline;color:#000000;fill:#000000;fill-opacity:1;fill-rule:nonzero;stroke:none;stroke-width:3.5999999;marker:none;visibility:visible;display:inline;overflow:visible;enable-background:accumulate;font-family:Sans;-inkscape-font-specification:Sans" d="m 316.03051,268.02392 c -19.46097,0 -35.5625,13.12856 -35.5625,29.71875 0,16.59019 16.10153,29.6875 35.5625,29.6875 19.46097,0 35.59375,-13.09731 35.59375,-29.6875 0,-16.59019 -16.13278,-29.71875 -35.59375,-29.71875 z m 0,3.59375 c 17.85374,0 32,11.88999 32,26.125 0,14.23501 -14.14626,26.09375 -32,26.09375 -17.85375,0 -31.96875,-11.85874 -31.96875,-26.09375 0,-14.23501 14.115,-26.125 31.96875,-26.125 z" id="path4132" inkscape:connector-curvature="0"/>
    <path style="font-size:medium;font-style:normal;font-variant:normal;font-weight:normal;font-stretch:normal;text-indent:0;text-align:start;text-decoration:none;line-height:normal;letter-spacing:normal;word-spacing:normal;text-transform:none;direction:ltr;block-progression:tb;writing-mode:lr-tb;text-anchor:start;baseline-shift:baseline;color:#000000;fill:#000000;fill-opacity:1;fill-rule:nonzero;stroke:none;stroke-width:3.5999999;marker:none;visibility:visible;display:inline;overflow:visible;enable-background:accumulate;font-family:Sans;-inkscape-font-specification:Sans" d="m 387.03021,261.15952 c -20.98213,0 -38.03125,17.04912 -38.03125,38.03125 0,20.98213 17.04912,38.03125 38.03125,38.03125 20.98213,0 38.03125,-17.04912 38.03125,-38.03125 0,-20.98213 -17.04912,-38.03125 -38.03125,-38.03125 z m 0,3.625 c 19.03655,0 34.4375,15.3697 34.4375,34.40625 0,19.03655 -15.40095,34.4375 -34.4375,34.4375 -19.03655,0 -34.4375,-15.40095 -34.4375,-34.4375 0,-19.03655 15.40095,-34.40625 34.4375,-34.40625 z" id="path4138" inkscape:connector-curvature="0"/>
    <path style="font-size:medium;font-style:normal;font-variant:normal;font-weight:normal;font-stretch:normal;text-indent:0;text-align:start;text-decoration:none;line-height:normal;letter-spacing:normal;word-spacing:normal;text-transform:none;direction:ltr;block-progression:tb;writing-mode:lr-tb;text-anchor:start;baseline-shift:baseline;color:#000000;fill:#000000;fill-opacity:1;fill-rule:nonzero;stroke:none;stroke-width:3.5999999;marker:none;visibility:visible;display:inline;overflow:visible;enable-background:accumulate;font-family:Sans;-inkscape-font-specification:Sans" d="M 144.34375 52.25 C 130.01089 52.25 117.20549 62.471047 107.09375 77.59375 C 108.50332 77.64223 109.89021 77.750576 111.25 77.9375 C 120.73468 64.441327 132.24913 55.84375 144.34375 55.84375 C 154.21147 55.84375 163.71063 61.571326 172.03125 71 C 173.50184 70.81179 174.97975 70.693912 176.5 70.6875 C 167.31163 59.445525 156.36936 52.25 144.34375 52.25 z M 86.84375 128.625 C 84.858002 138.49393 83.78125 148.52028 83.78125 158.21875 C 83.78125 182.34527 90.48741 199.88431 101.5 211.375 C 112.51259 222.86569 127.73942 228.1875 144.34375 228.1875 C 160.94807 228.1875 176.17491 222.86569 187.1875 211.375 C 198.20009 199.88431 204.90625 182.34527 204.90625 158.21875 C 204.90625 149.73226 204.06729 140.9793 202.53125 132.3125 C 201.535 133.32816 200.48434 134.26305 199.375 135.15625 C 200.63565 142.90191 201.3125 150.68362 201.3125 158.21875 C 201.3125 181.682 194.84503 198.20992 184.59375 208.90625 C 174.34247 219.60258 160.187 224.59375 144.34375 224.59375 C 128.5005 224.59375 114.34503 219.60258 104.09375 208.90625 C 93.84247 198.20992 87.40625 181.682 87.40625 158.21875 C 87.40625 149.09503 88.396886 139.62755 90.21875 130.28125 C 89.053795 129.78522 87.924948 129.22563 86.84375 128.625 z " id="path3067" transform="translate(210.37389,192.26886)"/>
    <path style="font-size:medium;font-style:normal;font-variant:normal;font-weight:normal;font-stretch:normal;text-indent:0;text-align:start;text-decoration:none;line-height:normal;letter-spacing:normal;word-spacing:normal;text-transform:none;direction:ltr;block-progression:tb;writing-mode:lr-tb;text-anchor:start;baseline-shift:baseline;color:#000000;fill:#000000;fill-opacity:1;fill-rule:nonzero;stroke:none;stroke-width:4.25504208;marker:none;visibility:visible;display:inline;overflow:visible;enable-background:accumulate;font-family:Sans;-inkscape-font-specification:Sans" d="M 212.875 107.8125 C 212.837 109.39321 212.703 110.94444 212.46875 112.46875 C 218.65176 116.05263 224.80781 121.58108 230.15625 128.3125 C 237.81712 137.95429 243.86363 149.98679 246.4375 162 C 249.01137 174.01322 247.553 183.59397 243.65625 189.25 C 239.7595 194.90603 233.60639 197.13913 224.90625 194.625 C 220.71269 193.41316 218.25295 191.238 216.46875 188.0625 C 214.68455 184.887 213.71376 180.62995 213.15625 175.625 C 212.04123 165.6151 212.5734 152.8028 209.84375 140.0625 C 208.89088 135.61509 207.61857 131.52779 206.25 127.8125 C 205.2858 129.17637 204.23269 130.47178 203.09375 131.6875 C 204.07874 134.58078 204.98259 137.64741 205.6875 140.9375 C 208.26833 152.9832 207.73266 165.55799 208.90625 176.09375 C 209.49305 181.36163 210.50727 186.16466 212.75 190.15625 C 214.99273 194.14784 218.6086 197.23301 223.75 198.71875 C 233.71977 201.59978 242.29816 198.70765 247.15625 191.65625 C 252.01434 184.60488 253.33036 173.89778 250.59375 161.125 C 247.85715 148.35222 241.52295 135.79308 233.46875 125.65625 C 227.36686 117.97655 220.28374 111.67669 212.875 107.8125 z " transform="translate(210.37389,192.26886)" id="path3079"/>
    <path style="font-size:medium;font-style:normal;font-variant:normal;font-weight:normal;font-stretch:normal;text-indent:0;text-align:start;text-decoration:none;line-height:normal;letter-spacing:normal;word-spacing:normal;text-transform:none;direction:ltr;block-progression:tb;writing-mode:lr-tb;text-anchor:start;baseline-shift:baseline;color:#000000;fill:#000000;fill-opacity:1;fill-rule:nonzero;stroke:none;stroke-width:4.25504208;marker:none;visibility:visible;display:inline;overflow:visible;enable-background:accumulate;font-family:Sans;-inkscape-font-specification:Sans" d="M 72.625 111.3125 C 66.88168 114.82191 61.355891 119.61845 56.375 125.28125 C 47.82413 135.00277 40.8717 147.22375 37.5 159.84375 C 34.12829 172.46375 34.90674 183.21458 39.40625 190.5 C 43.90576 197.78542 52.36741 201.12903 62.46875 198.75 C 67.67799 197.52314 71.40428 194.62449 73.84375 190.75 C 76.28322 186.87551 77.55684 182.13821 78.40625 176.90625 C 80.10506 166.44233 80.19523 153.83912 83.375 141.9375 C 84.623212 137.26556 86.245641 133.03317 87.9375 129.21875 C 86.647053 128.55964 85.417284 127.8235 84.25 127.03125 C 82.433518 131.11569 80.648671 135.72561 79.28125 140.84375 C 75.91812 153.43167 75.80152 166.27711 74.1875 176.21875 C 73.38049 181.18957 72.19071 185.38642 70.25 188.46875 C 68.30929 191.55108 65.7489 193.62431 61.5 194.625 C 52.68506 196.70107 46.64038 194.12501 43.03125 188.28125 C 39.42217 182.43754 38.4538 172.83828 41.625 160.96875 C 44.7962 149.09922 51.42921 137.34051 59.5625 128.09375 C 64.075243 122.9632 69.050091 118.61622 74.09375 115.40625 C 73.483831 114.08544 72.988369 112.72075 72.625 111.3125 z " transform="translate(210.37389,192.26886)" id="path3088"/>
    <path inkscape:connector-curvature="0" id="path3097" d="m 359.25851,247.85247 c 42.12326,83.40525 -10.41408,136.97173 -57.72667,129.48086 90.7392,58.61771 135.29645,-35.19563 57.72667,-129.48086 z" style="fill:#000000;stroke:none;" transform="matrix(-0.04692251,-0.15007937,-0.09817989,0.05582599,437.31923,397.65791)" sodipodi:nodetypes="ccc"/>
  </g>
  <metadata>
    <rdf:RDF>
      <cc:Work>
        <dc:format>image/svg+xml</dc:format>
        <dc:type rdf:resource="http://purl.org/dc/dcmitype/StillImage"/>
        <cc:license rdf:resource="http://creativecommons.org/licenses/publicdomain/"/>
        <dc:publisher>
          <cc:Agent rdf:about="http://openclipart.org/">
            <dc:title>Open Clip Art Library</dc:title>
          </cc:Agent>
        </dc:publisher>
        <dc:title>Eid Sheep Color</dc:title>
        <dc:date>2012-08-23T15:45:00</dc:date>
        <dc:description>Eid Sheep Color</dc:description>
        <dc:source>http://openclipart.org/detail/171863/eid-sheep-color-by-halattas-171863</dc:source>
        <dc:creator>
          <cc:Agent>
            <dc:title>halattas</dc:title>
          </cc:Agent>
        </dc:creator>
        <dc:subject>
          <rdf:Bag>
            <rdf:li>Eid Sheep Color</rdf:li>
            <rdf:li>clip art</rdf:li>
            <rdf:li>clipart</rdf:li>
          </rdf:Bag>
        </dc:subject>
      </cc:Work>
      <cc:License rdf:about="http://creativecommons.org/licenses/publicdomain/">
        <cc:permits rdf:resource="http://creativecommons.org/ns#Reproduction"/>
        <cc:permits rdf:resource="http://creativecommons.org/ns#Distribution"/>
        <cc:permits rdf:resource="http://creativecommons.org/ns#DerivativeWorks"/>
      </cc:License>
    </rdf:RDF>
  </metadata>
</svg>