<?xml version="1.0" encoding="UTF-8" standalone="no"?>
<svg xmlns="http://www.w3.org/2000/svg" version="1.1" width="760" height="760">
	<defs>
		<radialGradient id="sea">
			<stop stop-color="#1c546f" offset=".5"/>
			<stop stop-color="#123a51" offset="1"/>
		</radialGradient>
		<radialGradient id="land" cx="330" cy="-68" r="1036" gradientUnits="userSpaceOnUse">
			<stop stop-color="#eaeaec" offset=".13"/>
			<stop stop-color="#777c41" offset=".18"/>
			<stop stop-color="#9a8d5a" offset=".27"/>
			<stop stop-color="#d1b387" offset=".37"/>
			<stop stop-color="#d3b58d" offset=".4"/>
			<stop stop-color="#d1b287" offset=".42"/>
			<stop stop-color="#b68d64" offset=".51"/>
			<stop stop-color="#968655" offset=".59"/>
		</radialGradient>
	</defs>
	<path fill="url(#sea)" d="m760,380a380,380,0,1,1,-760,0,380,380,0,1,1,760,0z"/>
	<path fill="url(#land)" d="m10,380c0,69,19,133,52,188l5-90c-42-59-52-84-53-154-3,18-4,37-4,56zm87-238,50-17c33-43,99-94,166-94-26,8-101,44-107,67,28-18,51-21,79-21l61-34-20-29c-92,13-172,60-229,128zm49,239c0,22,22,68,48,68h64l8,13c20,0,20,14,20,32,0,24,30,28,30,66,0,10-12,14-12,30,0,14,37,86,60,86,40,0,84-36,84-52,0-38,34-28,34-54,0-118,48-62,66-164l-41,16c-44-37-70-91-70-111,13,0,53,60,67,96,34-14,69-39,78-75l-18-8-6-12-14,18c-5,0-28-17-35-41,32,21,47,21,103,21,26,0,41,75,66,88,0-41,3-74,18-107,14,0,37,23,53,68-9-164-125-300-280-338l23,19h-25c0,53-16,35-52,75,0-10,0-14,8-19-15-9-29-12-39-12-15,0-56,26-68,52l21-2,8,18c18-11,12-47,39-47,0,8-11,11-11,25l25-1c-23,26-35,32-66,32l-5-16c-9,23-36,35-58,37,0,12-1,19-8,30l-26-5-17,38,33,7c15-24,33-37,58-42l32,35c0,4-6,7-20,7l12,8,18-22c-16-9-22-19-22-31,38,11,29,50,46,53,0-45,31-4,31-58,22,0,60,13,60,29-57,0-73,2-73,20,0,9,49-5,49,42-40,0-58,0-80-12l-7,20c-24-7-49-20-49-48l-58,9-16-10c-40,50-86,44-86,129zm106-217,15-3,7-14c-14,0-21,9-22,17zm9,11,32-5-5-39c-19,10,3,25-27,44zm2-72c13,0,24-2,24-11l-19-4zm218,98c27,0,46,33,46,47l-24-2c0-16-9-33-22-45zm10,431c24,0,48-37,48-77l-38,32z"/>
</svg>
