<?xml version="1.0" encoding="UTF-8" standalone="no"?>
<!-- Created with Inkscape (http://www.inkscape.org/) -->

<svg
   xmlns:dc="http://purl.org/dc/elements/1.1/"
   xmlns:cc="http://creativecommons.org/ns#"
   xmlns:rdf="http://www.w3.org/1999/02/22-rdf-syntax-ns#"
   xmlns:svg="http://www.w3.org/2000/svg"
   xmlns="http://www.w3.org/2000/svg"
   xmlns:sodipodi="http://sodipodi.sourceforge.net/DTD/sodipodi-0.dtd"
   xmlns:inkscape="http://www.inkscape.org/namespaces/inkscape"
   width="442.96808"
   height="430.59006"
   id="svg2"
   version="1.1"
   inkscape:version="0.48.0 r9654"
   sodipodi:docname="New document 1">
  <defs
     id="defs4" />
  <sodipodi:namedview
     id="base"
     pagecolor="#ffffff"
     bordercolor="#666666"
     borderopacity="1.0"
     inkscape:pageopacity="0.0"
     inkscape:pageshadow="2"
     inkscape:zoom="0.35"
     inkscape:cx="188.3255"
     inkscape:cy="182.39662"
     inkscape:document-units="px"
     inkscape:current-layer="layer1"
     showgrid="false"
     fit-margin-top="0"
     fit-margin-left="0"
     fit-margin-right="0"
     fit-margin-bottom="0"
     inkscape:window-width="1366"
     inkscape:window-height="716"
     inkscape:window-x="-8"
     inkscape:window-y="-8"
     inkscape:window-maximized="1" />
  <metadata
     id="metadata7">
    <rdf:RDF>
      <cc:Work
         rdf:about="">
        <dc:format>image/svg+xml</dc:format>
        <dc:type
           rdf:resource="http://purl.org/dc/dcmitype/StillImage" />
        <dc:title></dc:title>
      </cc:Work>
    </rdf:RDF>
  </metadata>
  <g
     inkscape:label="Layer 1"
     inkscape:groupmode="layer"
     id="layer1"
     transform="translate(-130.96022,-291.10134)">
    <path
       style="fill:#ffb380;fill-opacity:1;fill-rule:nonzero;stroke:none"
       d="M 359.28125,324.5 C 260.89003,324.41405 206.96896,375.58738 180.5,472 c -43.61034,-16.13398 -60.70248,33.21477 -42.09375,60.625 9.33665,13.75267 17.92251,26.39313 29.875,31 8.63581,89.78272 93.97388,159.86401 191,158.03125 94.83057,-1.79129 161.84584,-63.58927 169.65625,-145.5625 15.0627,-2.30886 24.83433,-16.65163 35.59375,-32.5 19.30579,-28.43699 0.16521,-80.51933 -47.125,-58.5625 C 495.3458,395.22929 460.49948,324.58843 359.28125,324.5 z"
       id="path3819-5"
       inkscape:connector-curvature="0" />
    <g
       id="g2997">
      <path
         id="path2993"
         d="m 240.09375,452.15625 c -5.34865,2.67789 -8.65625,7.80394 -8.65625,18.0625 0,24.06384 17.58435,43.5625 39.28125,43.5625 21.6969,0 39.28125,-19.49866 39.28125,-43.5625 0,-15.81291 -7.66636,-19.72657 -19.03125,-20.59375 0.2948,0.36669 0.66152,0.6825 0.9375,1.0625 1.10392,1.52001 2.03539,3.13463 2.8125,4.84375 0.77711,1.70912 1.40336,3.48382 1.8125,5.34375 0.40914,1.85993 0.625,3.8088 0.625,5.78125 0,1.97245 -0.21586,3.89007 -0.625,5.75 -0.40914,1.85993 -1.03539,3.66588 -1.8125,5.375 -0.77711,1.70912 -1.70858,3.32374 -2.8125,4.84375 -1.10392,1.52001 -2.36045,2.92615 -3.75,4.21875 -1.38955,1.2926 -2.92849,2.4731 -4.5625,3.5 -1.63401,1.0269 -3.38145,1.9021 -5.21875,2.625 -1.8373,0.7229 -3.75057,1.27565 -5.75,1.65625 -1.99943,0.3806 -4.06712,0.59375 -6.1875,0.59375 -2.12038,0 -4.18807,-0.21315 -6.1875,-0.59375 -1.99943,-0.3806 -3.94395,-0.93335 -5.78125,-1.65625 -1.8373,-0.7229 -3.58474,-1.5981 -5.21875,-2.625 -1.63401,-1.0269 -3.1417,-2.2074 -4.53125,-3.5 -1.38955,-1.2926 -2.64608,-2.69874 -3.75,-4.21875 -1.10392,-1.52001 -2.06664,-3.13463 -2.84375,-4.84375 -0.77711,-1.70912 -1.37211,-3.51507 -1.78125,-5.375 -0.40914,-1.85993 -0.625,-3.77755 -0.625,-5.75 0,-1.97245 0.21586,-3.92132 0.625,-5.78125 0.40914,-1.85993 1.00414,-3.63463 1.78125,-5.34375 0.54058,-1.18891 1.267,-2.27478 1.96875,-3.375 z"
         style="fill:#ffffff;fill-opacity:1;fill-rule:nonzero;stroke:none"
         inkscape:connector-curvature="0" />
      <path
         id="path2987"
         d="m 240.09375,452.15625 c -0.70175,1.10022 -1.42817,2.18609 -1.96875,3.375 -0.77711,1.70912 -1.37211,3.48382 -1.78125,5.34375 -0.40914,1.85993 -0.625,3.8088 -0.625,5.78125 0,1.97245 0.21586,3.89007 0.625,5.75 0.40914,1.85993 1.00414,3.66588 1.78125,5.375 0.77711,1.70912 1.73983,3.32374 2.84375,4.84375 1.10392,1.52001 2.36045,2.92615 3.75,4.21875 1.38955,1.2926 2.89724,2.4731 4.53125,3.5 1.63401,1.0269 3.38145,1.9021 5.21875,2.625 1.8373,0.7229 3.78182,1.27565 5.78125,1.65625 1.99943,0.3806 4.06712,0.59375 6.1875,0.59375 2.12038,0 4.18807,-0.21315 6.1875,-0.59375 1.99943,-0.3806 3.9127,-0.93335 5.75,-1.65625 1.8373,-0.7229 3.58474,-1.5981 5.21875,-2.625 1.63401,-1.0269 3.17295,-2.2074 4.5625,-3.5 1.38955,-1.2926 2.64608,-2.69874 3.75,-4.21875 1.10392,-1.52001 2.03539,-3.13463 2.8125,-4.84375 0.77711,-1.70912 1.40336,-3.51507 1.8125,-5.375 0.40914,-1.85993 0.625,-3.77755 0.625,-5.75 0,-1.97245 -0.21586,-3.92132 -0.625,-5.78125 -0.40914,-1.85993 -1.03539,-3.63463 -1.8125,-5.34375 -0.77711,-1.70912 -1.70858,-3.32374 -2.8125,-4.84375 -0.27598,-0.38 -0.6427,-0.69581 -0.9375,-1.0625 -5.93002,-0.45248 -12.81064,-0.125 -20.25,-0.125 -12.44738,0 -23.42716,-0.94747 -30.625,2.65625 z"
         style="fill:#800000;fill-opacity:1;fill-rule:nonzero;stroke:none"
         inkscape:connector-curvature="0" />
      <path
         d="m 268.57143,468.07648 c 0,3.94489 -3.83756,7.14285 -8.57143,7.14285 -4.73387,0 -8.57143,-3.19796 -8.57143,-7.14285 0,-3.94489 3.83756,-7.14286 8.57143,-7.14286 4.73387,0 8.57143,3.19797 8.57143,7.14286 z"
         sodipodi:ry="7.1428571"
         sodipodi:rx="8.5714283"
         sodipodi:cy="468.07648"
         sodipodi:cx="260"
         id="path2995"
         style="fill:#ffffff;fill-opacity:1;fill-rule:nonzero;stroke:none"
         sodipodi:type="arc" />
    </g>
    <g
       id="g3032">
      <path
         inkscape:connector-curvature="0"
         id="path2993-4"
         d="m 405.08928,454.36365 c -5.34865,2.67789 -8.65625,7.80394 -8.65625,18.0625 0,24.06384 17.58435,43.5625 39.28125,43.5625 21.6969,0 39.28125,-19.49866 39.28125,-43.5625 0,-15.81291 -7.66636,-19.72657 -19.03125,-20.59375 0.2948,0.36669 0.66152,0.6825 0.9375,1.0625 1.10392,1.52001 2.03539,3.13463 2.8125,4.84375 0.77711,1.70912 1.40336,3.48382 1.8125,5.34375 0.40914,1.85993 0.625,3.8088 0.625,5.78125 0,1.97245 -0.21586,3.89007 -0.625,5.75 -0.40914,1.85993 -1.03539,3.66588 -1.8125,5.375 -0.77711,1.70912 -1.70858,3.32374 -2.8125,4.84375 -1.10392,1.52001 -2.36045,2.92615 -3.75,4.21875 -1.38955,1.2926 -2.92849,2.4731 -4.5625,3.5 -1.63401,1.0269 -3.38145,1.9021 -5.21875,2.625 -1.8373,0.7229 -3.75057,1.27565 -5.75,1.65625 -1.99943,0.3806 -4.06712,0.59375 -6.1875,0.59375 -2.12038,0 -4.18807,-0.21315 -6.1875,-0.59375 -1.99943,-0.3806 -3.94395,-0.93335 -5.78125,-1.65625 -1.8373,-0.7229 -3.58474,-1.5981 -5.21875,-2.625 -1.63401,-1.0269 -3.1417,-2.2074 -4.53125,-3.5 -1.38955,-1.2926 -2.64608,-2.69874 -3.75,-4.21875 -1.10392,-1.52001 -2.06664,-3.13463 -2.84375,-4.84375 -0.77711,-1.70912 -1.37211,-3.51507 -1.78125,-5.375 -0.40914,-1.85993 -0.625,-3.77755 -0.625,-5.75 0,-1.97245 0.21586,-3.92132 0.625,-5.78125 0.40914,-1.85993 1.00414,-3.63463 1.78125,-5.34375 0.54058,-1.18891 1.267,-2.27478 1.96875,-3.375 z"
         style="fill:#ffffff;fill-opacity:1;fill-rule:nonzero;stroke:none" />
      <path
         inkscape:connector-curvature="0"
         id="path2987-9"
         d="m 405.08928,454.36365 c -0.70175,1.10022 -1.42817,2.18609 -1.96875,3.375 -0.77711,1.70912 -1.37211,3.48382 -1.78125,5.34375 -0.40914,1.85993 -0.625,3.8088 -0.625,5.78125 0,1.97245 0.21586,3.89007 0.625,5.75 0.40914,1.85993 1.00414,3.66588 1.78125,5.375 0.77711,1.70912 1.73983,3.32374 2.84375,4.84375 1.10392,1.52001 2.36045,2.92615 3.75,4.21875 1.38955,1.2926 2.89724,2.4731 4.53125,3.5 1.63401,1.0269 3.38145,1.9021 5.21875,2.625 1.8373,0.7229 3.78182,1.27565 5.78125,1.65625 1.99943,0.3806 4.06712,0.59375 6.1875,0.59375 2.12038,0 4.18807,-0.21315 6.1875,-0.59375 1.99943,-0.3806 3.9127,-0.93335 5.75,-1.65625 1.8373,-0.7229 3.58474,-1.5981 5.21875,-2.625 1.63401,-1.0269 3.17295,-2.2074 4.5625,-3.5 1.38955,-1.2926 2.64608,-2.69874 3.75,-4.21875 1.10392,-1.52001 2.03539,-3.13463 2.8125,-4.84375 0.77711,-1.70912 1.40336,-3.51507 1.8125,-5.375 0.40914,-1.85993 0.625,-3.77755 0.625,-5.75 0,-1.97245 -0.21586,-3.92132 -0.625,-5.78125 -0.40914,-1.85993 -1.03539,-3.63463 -1.8125,-5.34375 -0.77711,-1.70912 -1.70858,-3.32374 -2.8125,-4.84375 -0.27598,-0.38 -0.6427,-0.69581 -0.9375,-1.0625 -5.93002,-0.45248 -12.81064,-0.125 -20.25,-0.125 -12.44738,0 -23.42716,-0.94747 -30.625,2.65625 z"
         style="fill:#800000;fill-opacity:1;fill-rule:nonzero;stroke:none" />
      <path
         transform="translate(164.99553,2.2074026)"
         d="m 268.57143,468.07648 c 0,3.94489 -3.83756,7.14285 -8.57143,7.14285 -4.73387,0 -8.57143,-3.19796 -8.57143,-7.14285 0,-3.94489 3.83756,-7.14286 8.57143,-7.14286 4.73387,0 8.57143,3.19797 8.57143,7.14286 z"
         sodipodi:ry="7.1428571"
         sodipodi:rx="8.5714283"
         sodipodi:cy="468.07648"
         sodipodi:cx="260"
         id="path2995-4"
         style="fill:#ffffff;fill-opacity:1;fill-rule:nonzero;stroke:none"
         sodipodi:type="arc" />
    </g>
    <path
       style="fill:#c87137;stroke:none"
       d="m 305.71429,565.21933 c 5.90552,2.84276 12.53644,8.25073 24.99999,13.57142 13.09751,5.59132 19.31699,3.05715 26.07143,-0.71428 10.305,-5.75392 21.90403,-12.73884 19.64286,-15 -24.69417,-8.55228 -50.12941,-7.54324 -71.07143,1.78571"
       id="path3037"
       inkscape:connector-curvature="0"
       sodipodi:nodetypes="csscc" />
    <path
       style="fill:#c87137;fill-opacity:1;fill-rule:nonzero;stroke:none"
       d="m 390.92903,643.25043 c 0,12.27362 -21.03012,22.22335 -46.97209,22.22335 -25.94197,0 -41.64113,-10.96308 -46.97209,-22.22335 -5.31088,-11.21785 -7.54799,-32.49427 37.88072,-23.23351 25.41918,5.18177 56.06346,10.95989 56.06346,23.23351 z"
       id="path3808"
       inkscape:connector-curvature="0"
       sodipodi:nodetypes="sssss" />
    <g
       id="g3845"
       transform="translate(0,-6)">
      <path
         sodipodi:nodetypes="csssssssssssssssssssssccccccccssssssssssssssc"
         inkscape:connector-curvature="0"
         id="path3813"
         d="m 361.63461,358.38738 c -6.05512,28.19338 -5.47352,65.23716 13.13198,83.84267 0.79295,0.79294 0.011,-26.26397 10.10153,-26.26397 0.2671,0 -0.69113,8.40024 3.03046,12.12183 7.08023,7.08024 22.20597,7.05368 28.28427,13.13198 5.29248,5.29248 1.1704,-16.87999 12.12183,-14.14213 10.39339,2.59835 23.48292,8.711 32.32488,13.13198 6.18841,3.09421 16.5903,1.59244 15.15229,3.03046 -2.42811,2.4281 -5.45416,-10.10153 -2.02031,-10.10153 0.86171,0 3.88738,6.48937 5.05077,7.07107 16.26434,8.13217 27.36628,23.51 33.33503,41.41625 2.1176,6.3528 2.02031,14.47256 2.02031,22.22336 0,1.01015 -0.71429,3.74474 0,3.03046 3.30689,-3.3069 4.90789,-10.72734 9.09137,-12.12183 1.45289,-0.4843 5.28786,-3.65409 8.08122,-5.05077 4.68023,-2.34011 8.45406,19.37932 12.12183,21.21321 0.65026,0.32513 3.30777,-11.6663 4.04061,-13.13198 2.79485,-5.5897 11.45391,-25.57952 7.07107,-34.34519 -0.69646,-1.39291 -4.08559,-20.20305 -3.03046,-20.20305 1.34687,0 2.69374,0 4.04061,0 3.86024,0 17.01329,4.19991 18.18275,3.03046 1.61868,-1.61869 -9.43724,-11.33859 -10.10153,-13.13199 -4.33095,-11.69235 -11.11167,-23.37943 -11.11167,-33.33504 -39.10377,-55.34296 -70.42713,-72.50586 -120.20816,-96.97463 -16.36174,-8.18087 -83.83916,-7.07282 -97.9848,-1e-5 -58.53657,-6.50785 -111.63086,6.51199 -145.46196,52.52794 -13.19356,6.59677 -26.26397,33.3348 -26.26397,49.49747 -14.36206,40.99651 -6.57247,27.78739 -31.31474,60.60915 -1.45291,2.90583 29.07384,10.54027 19.19291,21.2132 19.17865,-8.31923 13.66603,24.74845 19.1929,19.1929 7.13416,-7.13416 13.40424,-22.02999 16.16244,-30.30457 4.63682,-13.91047 23.08,-23.93664 32.32488,-42.42641 2.38512,-4.77023 4.93003,-15.03155 8.08122,-18.18274 1.81328,-1.81328 0.46609,7.07106 3.03046,7.07106 4.19038,0 13.35658,-6.28551 15.15229,-8.08122 2.89534,-2.89534 9.22403,-6.19357 12.12183,-9.09137 0.65202,-0.65202 3.50827,-7.60341 5.05076,-6.06091 4.88526,4.88526 2.49873,22.22335 13.13198,22.22335 3.90298,0 16.60158,-3.33773 18.18275,-8.08122 0.43174,-1.29524 0.55763,-13.58451 3.03046,-11.11168 4.11968,4.11968 15.98976,20.28939 22.22335,17.1726 0.56892,-0.28446 3.05202,-12.16495 4.04061,-14.14214 1.93218,-3.86435 19.71193,30.7957 26.26397,24.24366 1.75577,-1.75577 -0.75533,-10.07174 -1.01015,-12.12183 -4.04061,-32.50765 14.14213,-40.01152 14.14213,-58.58885 z"
         style="fill:#552200;stroke:none" />
      <path
         sodipodi:nodetypes="cssssssssssscc"
         inkscape:connector-curvature="0"
         id="path3815"
         d="m 253.54829,321.01174 c -8.83674,4.41837 -18.68562,8.5841 -25.25381,15.15229 -18.90053,18.90052 -31.79474,20.6329 -40.40611,46.46702 -0.39063,1.17189 -4.36702,5.7345 -3.03045,7.07106 1.2436,1.24361 9.35691,-5.31631 10.10152,-6.06091 7.15929,-7.15929 20.16473,-6.0226 26.26397,-12.12183 0.4881,-0.4881 -5.69016,14.51289 -3.03046,17.17259 0.73859,0.73859 7.81734,-8.82749 9.09137,-10.10153 6.99946,-6.99946 18.45074,-11.37967 25.25382,-18.18274 16.841,-16.84101 14.71308,4.69362 20.44815,5.05076 1.62542,0.10122 7.26245,-12.55831 16.92749,-22.22335 4.78999,-4.78999 12.963,-11.53227 20.20305,-15.15229 1.34687,-0.67344 4.04061,-3.52615 4.04061,-2.02031 -17.34137,-10.77959 -43.56471,-12.82627 -60.60915,-5.05076 z"
         style="fill:#784421;stroke:none" />
      <path
         sodipodi:nodetypes="csssssssssssc"
         inkscape:connector-curvature="0"
         id="path3817"
         d="m 383.85797,315.96098 c 10.06058,18.11785 1.91335,38.69726 20.20305,55.55839 2.23842,2.06358 3.70617,8.11796 5.05076,11.11168 0.48048,1.06978 0.59704,-19.1929 2.02031,-19.1929 3.06953,0 11.25822,15.29883 14.14213,18.18274 7.05525,7.05525 15.52482,9.46391 22.22336,16.16244 1.37809,1.3781 -0.9235,-13.21864 0,-14.14213 1.51828,-1.51828 9.67934,1.30413 11.11168,2.0203 14.2447,7.12235 39.80021,33.63798 40.4061,33.33504 9.97331,-4.98666 -8.20519,-21.08924 -3.03046,-26.26397 0.71934,-0.71934 10.29486,4.04061 12.12183,4.04061 6.15437,0 -15.0915,-32.91727 -16.16244,-34.34519 C 471.62256,335.33236 417.8036,322.7501 383.85797,315.96098 z"
         style="fill:#784421;stroke:none" />
    </g>
  </g>
</svg>
