<?xml version="1.0" encoding="UTF-8" standalone="yes"?>
<svg width="304" height="250">
<path style="fill:#ffffff; stroke:none;" d="M0 0L0 250L304 250L304 0L0 0z"/>
<path style="fill:#000000; stroke:none;" d="M2 2L2 248L114 248C126.151 248 147.371 252.143 157 244L156 248C166.973 248 186.677 251.864 196.671 247.397C199.957 245.928 201.502 241.464 204 239L201 248L302 248L302 2L2 2z"/>
<path style="fill:#ffffff; stroke:none;" d="M26 19L26 20L55 20L26 19M213 47C218.48 47.0006 234.309 50.7293 231 41L236 40C229.377 37.8611 216.543 40.5458 213 47M244 42L245 53L252 55L253 55L257 49L253 49L253 48L258 48C256.784 40.8348 249.858 41.3081 244 42M231 53L243 53C238.936 47.8771 234.996 47.7718 231 53M208 50L207 56L221 52L208 50M264 50L264 51L270 53L264 50M256 55L265 55L265 53C260.98 51.178 258.861 51.6164 256 55M199 52L187 64L187 65L190 65L189 71L199 62C201.342 58.3272 201.567 55.6281 199 52M202 54L202 57L204 57L204 54L202 54M174 68L174 69L177 69L174 68M162 71L162 72L166 71L162 71M193 72L198 79L199 75L193 72M222 73L222 78L223 78L224 75L226 75L224 82L229 91C228.84 98.3129 240.942 106.88 245.933 98.6821C248.626 94.2585 246.184 81.3195 246 76L230 75L231 72L222 73z"/>
<path style="fill:#000000; stroke:none;" d="M225 73L226 74L225 73z"/>
<path style="fill:#ffffff; stroke:none;" d="M136.667 75.3333L137.333 75.6667L136.667 75.3333M120 79L120 80L124 79L120 79M126.667 78.3333L127.333 78.6667L126.667 78.3333M248 82L248 85L249 85L248 82M187 90L187 93L189 90L187 90M191 97L188 95C190.391 111.189 201.596 126.902 217 132.932C221.729 134.783 230.328 138.787 234 134L210 126L212 122L210 124L196 109L196 108L199 103L193 106L191 97L192 97L192 101L197 100L197 91C192.43 90.3326 191.326 92.7216 191 97M12 108L12 109L17 108L12 108z"/>
<path style="fill:#000000; stroke:none;" d="M195 107L196 108L195 107z"/>
<path style="fill:#ffffff; stroke:none;" d="M4 110L4 112L6 112L4 110M236 137L239 135L236 137M248 135L248 136L251 136L248 135M248 155L248 157L250 157L250 155L248 155M218 208L209 228L210 228C213.486 222.731 219.961 214.632 218 208M173 220L172 223L173 220M168 227L160 240C163.806 237.08 168.837 232.146 168 227M206 232L204 239L207 238L206 232z"/>
</svg>