<?xml version="1.0"?>
<svg xmlns:rdf="http://www.w3.org/1999/02/22-rdf-syntax-ns#" xmlns="http://www.w3.org/2000/svg" xmlns:cc="http://creativecommons.org/ns#" xmlns:dc="http://purl.org/dc/elements/1.1/" id="svg3888" viewBox="0 0 800 795.62" version="1.1">
  <g id="layer1" transform="translate(-152.76 65.044)">
    <path id="path3052" fill="#c89781" d="m745.25 589.47-322.92-313.09c15.912 78.156 32.798 156.12 47.736 234.47 7.9974 41.946 22.151 83.673 21.06 126.36-0.82701 32.357-17.784 62.244-26.676 93.366h312.39c-20.02-47.04-26.28-94.07-31.59-141.11z"/>
    <path id="path3830" d="m578.24 589.7c22.319 45.142 62.266 54.369 96.315 75.43 17.766 10.99 30.572 28.63 47.604 40.725 7.4968 5.3237 15.226 10.649 23.833 13.882 7.5914 2.8519 18.814 5.1924 29.3 7.0025-12.149-29.634-19.005-59.248-23.71-88.882l-173.34-48.16z" fill="#a7674b"/>
    <path id="path3828" fill="#a56a58" d="m533.94 517.17c-27.78-31.47-21.26-30.19-61.77-30.19l31.59-19.656 27.378 25.974z"/>
    <path id="path3822" fill="#c89781" d="m507.97 481.37c31.597 27.762 35.094 73.906 64.584 103.9 31.05 31.576 76.425 55.697 115.13 77.22 15.951 8.8707 32.566 17.912 50.544 21.06 26.291 4.6037 38.653 8.7801 84.24-1.404 11.873-2.6524 27.029-15.752 28.903-26.846 8.3097-49.203 11.345-59.165 21.642-89.686 12.646-37.483 43.376-70.608 50.544-109.51 7.6622-41.586-15.236-84.264-11.232-126.36 2.5807-27.134 23.683-51.395 22.464-78.624-2.43-54.62-25.31-109.96-58.95-153.05-35.56-45.538-87.94-78.792-141.81-99.681-58.5-22.687-124-25.651-186.73-23.868-40.92 1.162-89.32-3.776-120.74 22.464-46.5 38.829-55.09 110.06-64.59 169.88-9.1113 57.381-11.33 119.46 8.424 174.1 16.135 44.628 49.344 83.158 85.644 113.72 14.89 12.538 37.325 13.828 51.948 26.676z"/>
    <path id="path3879" fill="#a56a58" d="m920.74 300.39c-6.1973 1.1941-12.742 2.6278-17.383 4.1155-11.039 3.5385-22.566 7.1249-31.757 14.189-6.9968 5.3779-14.042 11.753-14.128 20.577-0.33942 34.8 25.905 64.526 43.392 86.566 3.3219 4.1867 6.1277 18.487-4.9403 28.361-8.0755 7.2042-20.66 12.013-27.826 13.391 6.5183 18.095 7.0044 27.964 15.909 47.175l-19.349 18.858c-3.0671 15.578-0.67957 31.167 3.4398 46.745 1.4598-4.5234 3.0543-9.2297 4.914-14.742 12.646-37.483 43.385-70.617 50.553-109.52 7.6622-41.586-15.244-84.255-11.241-126.35 0.95757-10.068 4.4441-19.786 8.4152-29.361z"/>
    <path id="path3836" d="m685.78 320.72c31.441-24.796 86.509-35.562 119.29-13.391-22.67-41.893-112.08-11.181-119.29 13.391z"/>
    <path id="path3847" d="m917.61 287.67c-15.024 0.36786-29.896 6.3204-43.55 20.577 15.22-8.7404 33.265-17.625 49.079-13.575 0.94624-2.2183 1.9003-4.416 2.8256-6.6339-2.7737-0.29398-5.5822-0.43642-8.3538-0.36855z"/>
    <path id="path3824" fill="#754d3a" d="m312.81 180.91c-4.3851 37.537-15.444 112.32-15.444 112.32-12.502 90.921-85.471 128.2-144.61 140.4 38.375 36.998 39.006 39.2 87.048 49.14-24.806 20.496-35.487 16.665-67.392 19.656 30.133 35.509 42.211 31.781 87.048 43.524-15.396 21.582-36.288 31.312-58.968 43.524 63.193 17.382 71.243 16.236 130.57 1.404-28.875 50.819-32.987 54.118-80.028 81.432 178.61 46.912 266.61-31.362 238.68-183.92l-50.544-103.9 9.828-51.948c64.414 33.118 122.15-28.08 122.15-28.08 6.6384 6.084 5.8478 12.168 22.464 18.252-2.3077-12.897-0.92981-23.584 1.404-33.696 3.552 13.104 19.545 26.208 37.908 39.312-4.2653-14.976-4.5698-29.952-4.212-44.928 4.2421 16.724 11.087 25.601 30.186 38.61-2.6881-9.828 3.6061-14.742 9.126-24.57 0.9982 8.9428 6.4992 23.114 22.464 30.186l16.848-41.418c3.831 4.214 8.5679 6.0122 7.02 24.57 26.952-14.742 42.977-42.12 55.458-56.862 4.0056 16.518 8.0762 33.045-0.70199 47.736 22.796-14.216 29.852-20.34 41.418-28.782l-0.70199 34.398c34.711-2.9471 36.054-17.811 46.332-29.484l1.404 35.1c16.338-28.05 19.515-31.6 22.464-57.564 9.1451 13.851 12.332 21.782 5.616 43.524 17.982-6.56 24.585-12.919 25.974-23.166 1.8839 8.424-1.2117 13.338-4.914 21.762-0.44055 7.93 42.598-25.145 44.858-42.872 9.52-74.67-40.1-161.1-71.6-193.67-98.4-101.74-152.81-118.57-258.97-125.02-182.1-11.064-288.76 78.866-308.18 245.04z"/>
    <path id="path3826" fill="#c89781" d="m506.57 478.56c-36.298 23.651-47.83-1.8626-68.094-20.358-31.738-27.059-26.788-35.338-39.312-69.498-15.904-31.53-15.328-83.935 28.782-83.538 26.338 0.23686 40.837 21.424 54.756 42.12z"/>
    <path id="path3832" fill="#a56a58" d="m456.11 337.54s-11.028-15.092-19.359-17.87c-7.7313-2.5781-17.311-1.6706-24.323 2.482-7.7799 4.6069-12.789 13.678-15.388 22.338-2.379 7.9255-1.3812 16.76 0.49639 24.82 1.9483 8.3626 7.9828 15.262 10.921 23.33 1.7577 4.8273 3.9711 14.892 3.9711 14.892s-1.756-15.983-0.49637-23.827c0.94594-5.8904 5.5213-10.927 5.9567-16.877 0.56598-7.735-6.0167-15.235-4.4675-22.834 1.2375-6.0706 5.3622-11.816 10.424-15.388 3.7708-2.661 8.8493-4.2288 13.403-3.4747 7.4252 1.2296 18.863 12.41 18.863 12.41z"/>
    <path id="path3834" fill="#a56a58" d="m481.92 416.96c1.713 5.3688 8.818 7.6776 10.921 12.906 0.98964 2.4611 2.2271 5.932 0.49639 7.9422-2.4924 2.8949-7.7702 2.13-11.417 0.99276-5.9461-1.8543-10.916-6.7471-14.395-11.913-1.8415-2.7346-0.43104-7.3385-2.9783-9.4314-5.7885-4.7559-15.77 1.1231-22.338-2.482-8.5626-4.7004-16.414-13.263-18.366-22.834-1.3402-6.5696 1.028-14.328 5.4603-19.359 3.921-4.4505 10.53-5.9754 16.381-6.9495 2.2908-0.38137 4.8418 1.4716 6.9495 0.49637 2.7933-1.2925 2.4322-7.9965 5.4603-7.4458 4.2264 0.76851 4.7759 8.3159 3.4747 12.41-1.0332 3.2509-6.3018 3.4623-7.9422 6.4531-2.0826 3.797 0.70043 9.1699-1.4892 12.906-1.8576 3.1697-9.7791 2.8775-8.935 6.4531 1.8874 7.9953 17.926 9.1251 24.323 3.9711 2.4515-1.9751-1.5143-7.009 0.49638-9.4314 3.5884-4.3233 12.115-7.6281 16.381-3.9711 7.4379 6.377-5.46 19.953-2.482 29.287z"/>
    <path id="path3849" d="m782.86 342.5c-1.6209-6.7561 0.53702-11.643 4.3434-16.877-6.8042-3.9129-7.2461-6.875-11.971-8.9448-13.642-5.9764-26.566-4.5123-46.107 2.9881-6.3663 2.4297-12.88 5.2871-17.87 9.9278-16.853 15.675-11.748 15.597-34.251 17.374 9.4147 2.4359 21.509 1.6558 24.82 11.417l3.4747-7.4458c23.61 18.5 41.534 19.978 62.822 10.936 8.3312-3.5385 12.08-1.6392 21.068-2.9941-10.087-5.8725-6.2287-8.1654-6.329-11.541z"/>
    <path id="path3851" fill="#e6e6e6" d="m780.13 341.26c-8.998-11.126-18.85-15.25-27.053-15.388-19.638-0.33073-31.164 7.4345-40.704 19.359 9.1861 10.066 23.703 16.023 38.47 15.884 11.758-0.11027 19.664-3.9745 29.783-12.162 3.6351-2.9408 1.2135-5.5797-0.49639-7.694z"/>
    <path id="path3855" d="m733.64 328.89c-8.7882 3.2724-15.389 9.0088-21.253 16.339 6.7191 7.3629 16.285 12.492 26.72 14.681 3.6264-3.4406 5.8968-8.3044 5.8968-13.698 0-7.7706-4.6563-14.425-11.364-17.322z" fill="#6f473b"/>
    <path id="path3857" d="m726.15 336.08c-5.6137 0-10.135 4.5215-10.135 10.135 0 1.0031 0.0979 1.9717 0.36855 2.887 3.3773 2.8576 7.2613 5.2327 11.425 7.1253 4.8165-0.79877 8.4767-4.9693 8.4767-10.012 0-5.6137-4.5215-10.135-10.135-10.135z"/>
    <path id="path3859" transform="matrix(.44856 0 0 .44856 527.33 109.08)" fill="#b3b3b3" d="m464.54 535.04c0 5.5092-4.4661 9.9753-9.9753 9.9753s-9.9752-4.4661-9.9752-9.9753 4.4661-9.9753 9.9752-9.9753c5.5092 0 9.9753 4.4661 9.9753 9.9753z"/>
    <path id="path3861" transform="matrix(.40013 0 0 .40013 538.18 131.27)" fill="#b3b3b3" d="m464.54 535.04c0 5.5092-4.4661 9.9753-9.9753 9.9753s-9.9752-4.4661-9.9752-9.9753 4.4661-9.9753 9.9752-9.9753c5.5092 0 9.9753 4.4661 9.9753 9.9753z"/>
    <path id="path3865" d="m916.01 305.79c-7.1149 2.5647-14.457 2.258-21.867 3.6855-6.3636 1.2259-11.131 2.7735-16.401 5.1597-2.135 1.2192-4.1911 2.5542-6.1425 4.0541-6.9968 5.3779-14.042 11.753-14.128 20.577-0.0353 3.6182 0.24098 7.227 0.79852 10.811 8.5076 5.6904 18.326 6.8196 29.177 5.8354 4.6096-0.41812 12.654-5.7125 12.654-5.7125 1.7505 1.4064 3.5589 2.8319 7.2482 4.2383l0.4914-4.9754c3.7983 0.73722 6.7065 0.61525 9.8894 0.7371-7.4413-4.5494-9.9088-8.2043-13.391-10.688 3.1393-8.9333 6.7808-11.042 16.155-10.197-0.96047-3.5862-0.28199-7.5436-6.2039-9.8894 2.8129-0.72641 5.6024-1.2621 8.4152-3.2555-4.5655-1.0042-7.6675-0.89166-14.619-3.6855 3.456-1.4251 5.7756-3.9624 7.9238-6.6953z"/>
    <path id="path3869" d="m880.51 319.18c-8.4006 0.55811-18.038 12.042-22.973 18.673-0.0461 0.47324-0.0567 0.92479-0.0614 1.4128-0.0212 2.175 0.046 4.3468 0.2457 6.5111 0.01 0.007-0.01 0.0544 0 0.0614 3.905 2.8655 11.537 6.5528 25.061 6.8182 7.127 0.13983 17.105-7.999 17.076-15.356-0.0252-6.3639-6.0702-19.003-19.349-18.12z" fill="#e6e6e6"/>
    <path id="path3871" d="m869.82 324.47c-5.0267 4.1277-9.4013 9.5737-12.285 13.452-0.0425 0.45331-0.0569 0.88456-0.0614 1.3514-0.0214 2.1952 0.0422 4.3882 0.2457 6.5725 2.9922 2.1965 8.1344 4.8771 16.523 6.1425 2.5474-3.2182 4.0541-7.3091 4.0541-11.732 0-6.5954-3.3526-12.41-8.4767-15.786z" fill="#6f473b"/>
    <path id="path3873" d="m863.62 330.43c-2.4157 2.6528-4.4663 5.2686-6.0811 7.4324-0.0461 0.47324-0.0567 0.92479-0.0614 1.4128-0.0212 2.175 0.046 4.3468 0.2457 6.5111 0.0104 0.008-0.0105 0.0538 0 0.0614 1.6929 1.2352 4.0481 2.5919 7.3096 3.8084 0.0179 0.007 0.0435-0.007 0.0614 0 3.6482-1.5431 6.2654-5.1878 6.2654-9.398 0-4.7572-3.326-8.72-7.7396-9.828z"/>
    <path id="path3875" transform="matrix(.44856 0 0 .44856 658.38 102.13)" fill="#b3b3b3" d="m464.54 535.04c0 5.5092-4.4661 9.9753-9.9753 9.9753s-9.9752-4.4661-9.9752-9.9753 4.4661-9.9753 9.9752-9.9753c5.5092 0 9.9753 4.4661 9.9753 9.9753z"/>
    <path id="path3877" fill="#a56a58" d="m768.84 537.58s11.566-17.237 15.388-26.805c4.9276-12.336 3.876-26.652 9.4314-38.718 4.2635-9.2602 17.87-24.82 17.87-24.82 0.78886 4.8753 0.83706 11.468 2.9783 13.403 2.7527 2.4876 4.1636 6.1895 15.388 6.4531 3.1632 0.0743 6.568-1.1598 10.585-3.1546 4.2159-2.0937 5.383-6.0181 15.098-8.162 9.6978-2.14 14.34-1.0571 14.427 0.27019 0.0892 1.3615-6.4285 3.6063-14.918 5.9584-7.9602 2.2054-5.0268 2.5353-12.782 3.5988-5.8734 0.80543-8.2162 2.1218-13.403 2.482-7.7749 0.53988-13.895-2.3751-16.381-5.4603-2.7009-3.3517-2.4385-6.1222-2.482-9.9278 0 0-10.437 12.556-13.899 19.856-5.7459 12.116-5.5028 26.452-10.921 38.718-4.1737 9.4499-16.381 26.309-16.381 26.309z"/>
    <path id="path3882" fill="#c7635e" d="m780.75 537.58c-4.1366 0.001-9.839 3.3102-9.9278 7.4458-0.27315 12.72 15.043 12.008 26.309 18.863 9.3698 5.7014 17.161 14.187 27.301 18.366 12.983 5.3516 32.296 12.305 41.2 0 9.2049-12.72 4.9943-29.772 1.9856-44.675 0 0 11.716-6.0281 14.892-11.417 11.679-19.819-13.284-16.977-25.316-14.892-17.313 2.9999-33.87 10.024-46.661 20.352-8.5418 6.8968-10.823 5.9517-29.783 5.9567z"/>
    <path id="path3884" fill="#753532" d="m788.2 541.55c-16.329-1.0972-26.988 4.8728-2.482 9.9278 12.017 2.4788 21.2 5.9367 31.769 8.935 18.029 5.1149 40.112 7.614 44.179-2.9783 1.7844-4.6473-2.4568-10.717-1.9855-16.381 4.915-4.3312 17.288-10.279 17.374-13.403 0.16098-5.8478-8.1774-3.4073-12.41-2.9783-16.916 1.7146-32.227 2.9312-47.653 10.921-15.489 8.0218-18.351 6.6582-28.791 5.9567z"/>
    <path id="path3886" d="m872.09 523.79c-2.5049-0.006-5.4238 0.65635-7.4324 0.85995-4.3803 0.44399-8.6417 0.84662-12.838 1.3514l0.1317 12.101c6.0281 1.4957 9.6819 1.1449 15.409-0.49141v-12.961l0.2457 12.961c9.3266-0.10378 9.0662-5.4269 8.2924-12.776-0.90872-0.74934-2.2658-1.0403-3.8084-1.0442zm-20.463 2.185c-6.2087 0.75599-12.45 1.8143-18.419 3.4047l-0.36855 8.7224c6.4208 1.256 12.537 0.7977 18.919 0zm-18.41 3.5276c-4.9633 1.3486-10.32 3.1312-15.242 5.5897 0.004 0.32732-0.01 0.65514 0 0.98281 4.6199 1.7207 9.6709 2.027 14.496 2.027z" fill="#e6e6e6"/>
  </g>
  <metadata>
    <rdf:RDF>
      <cc:Work>
        <dc:format>image/svg+xml</dc:format>
        <dc:type rdf:resource="http://purl.org/dc/dcmitype/StillImage"/>
        <cc:license rdf:resource="http://creativecommons.org/licenses/publicdomain/"/>
        <dc:publisher>
          <cc:Agent rdf:about="http://openclipart.org/">
            <dc:title>Openclipart</dc:title>
          </cc:Agent>
        </dc:publisher>
      </cc:Work>
      <cc:License rdf:about="http://creativecommons.org/licenses/publicdomain/">
        <cc:permits rdf:resource="http://creativecommons.org/ns#Reproduction"/>
        <cc:permits rdf:resource="http://creativecommons.org/ns#Distribution"/>
        <cc:permits rdf:resource="http://creativecommons.org/ns#DerivativeWorks"/>
      </cc:License>
    </rdf:RDF>
  </metadata>
</svg>
