<?xml version="1.0"?>
<svg xmlns:rdf="http://www.w3.org/1999/02/22-rdf-syntax-ns#" xmlns="http://www.w3.org/2000/svg" xmlns:dc="http://purl.org/dc/elements/1.1/" xmlns:cc="http://web.resource.org/cc/" xmlns:xlink="http://www.w3.org/1999/xlink" xmlns:sodipodi="http://inkscape.sourceforge.net/DTD/sodipodi-0.dtd" id="svg2" sodipodi:version="0.32" viewBox="0 0 500 500" sodipodi:docname="lente.svg" sodipodi:docbase="C:\Users\fro\openclip">
  <defs id="defs3">
    <linearGradient id="linearGradient2154" y2="161.57" gradientUnits="userSpaceOnUse" y1="163.15" gradientTransform="scale(1.1211 .89195)" x2="234.17" x1="36.672">
      <stop id="stop2150" stop-color="#006edc" stop-opacity=".78788" offset="0"/>
      <stop id="stop2152" stop-color="#fff" stop-opacity=".63351" offset="1"/>
    </linearGradient>
    <linearGradient id="linearGradient2204" y2="231.74" gradientUnits="userSpaceOnUse" y1="99.31" gradientTransform="scale(1.1211 .89195)" x2="53.268" x1="201.84">
      <stop id="stop2200" stop-color="#393939" offset="0"/>
      <stop id="stop2202" stop-color="#e5e5e5" offset="1"/>
    </linearGradient>
    <linearGradient id="linearGradient2216" y2="228.92" gradientUnits="userSpaceOnUse" y1="100.17" gradientTransform="scale(1.1211 .89195)" x2="49.224" x1="227.75">
      <stop id="stop2212" offset="0"/>
      <stop id="stop2214" stop-opacity="0" offset="1"/>
    </linearGradient>
    <radialGradient id="radialGradient2267" gradientUnits="userSpaceOnUse" cy="119.43" cx="419.69" gradientTransform="scale(.83684 1.195)" r="85.955">
      <stop id="stop2263" stop-color="#fff" offset="0"/>
      <stop id="stop2265" stop-opacity="0" offset="1"/>
    </radialGradient>
    <linearGradient id="linearGradient2282" y2="253.35" gradientUnits="userSpaceOnUse" y1="240.16" gradientTransform="scale(.98655 1.0136)" x2="269.47" x1="281.99">
      <stop id="stop2278" offset="0"/>
      <stop id="stop2280" stop-color="#fff" stop-opacity="0" offset="1"/>
    </linearGradient>
    <linearGradient id="linearGradient2292" y2="262.01" gradientUnits="userSpaceOnUse" y1="265.99" gradientTransform="scale(.99293 1.0071)" x2="256.41" x1="251.95">
      <stop id="stop2288" stop-color="#909090" offset="0"/>
      <stop id="stop2290" stop-color="#909090" stop-opacity="0" offset="1"/>
    </linearGradient>
    <linearGradient id="linearGradient2308" y2="367.09" gradientUnits="userSpaceOnUse" y1="346.37" gradientTransform="scale(.99742 1.0026)" x2="376.36" x1="397.08">
      <stop id="stop2304" stop-color="#252525" offset="0"/>
      <stop id="stop2306" stop-color="#252525" stop-opacity="0" offset="1"/>
    </linearGradient>
    <linearGradient id="linearGradient2351" y2="374.26" gradientUnits="userSpaceOnUse" y1="443.87" x2="363.21" x1="291.76">
      <stop id="stop2347" offset="0"/>
      <stop id="stop2349" stop-opacity="0" offset="1"/>
    </linearGradient>
  </defs>
  <sodipodi:namedview id="base" bordercolor="#666666" borderopacity="1.0" pagecolor="#ffffff"/>
  <g id="layer4" sodipodi:insensitive="true">
    <path id="path2235" d="m204.5 33.226s19.89 14.538 35.96 29.077c35.96 34.051 29.84 82.637 29.84 92.207-0.38 10.33-1.91 50.12-26.4 73.46-13 13.39-32.9 27.16-46.67 32.13-13.78 4.98-33.67 11.1-75.37 7.27 9.94 3.45 30.99 8.04 39.4 8.42 8.42 0.38 37.88-4.97 37.88-4.97l33.67-17.99 29.46-30.22 21.42-47.06-0.38-52.03-16.83-41.322-32.52-37.494-29.46-11.478z" sodipodi:nodetypes="ccccccccccccccc" fill-opacity=".44201" fill-rule="evenodd"/>
    <path id="path2239" d="m206.79 33.991s19.9 14.539 35.97 29.077c35.96 34.051 29.84 82.642 29.84 92.202-0.38 10.33-1.91 50.12-26.4 73.46-13.01 13.39-32.9 27.17-46.68 32.14-13.77 4.97-33.67 11.09-75.37 7.27 9.95 3.44 30.99 7.27 39.41 7.65s44-8.8 40.17-7.65l29.46-15.31 29.08-30.22 21.42-46.29 1.92-52.04-16.84-41.317-32.52-37.494-29.46-11.478z" sodipodi:nodetypes="ccccccccccccccc" fill-opacity=".44201" fill-rule="evenodd"/>
    <path id="path2257" sodipodi:rx="77.421738" sodipodi:ry="110.55418" sodipodi:type="arc" d="m434.78 139.26a77.422 110.55 0 1 1 -154.84 0 77.422 110.55 0 1 1 154.84 0z" transform="matrix(1.9782 0 0 1.4251 -532.8 -54.126)" sodipodi:cy="139.26204" sodipodi:cx="357.35709" fill="url(#radialGradient2267)"/>
  </g>
  <g id="layer7" fill-opacity=".15674" fill="#646464">
    <path id="path2356" d="m162.27 11.75c-74.451 0-134.86 61.53-134.86 137.34-0.001 75.82 60.409 137.35 134.86 137.35 74.46 0 134.9-61.53 134.9-137.35 0-75.81-60.44-137.34-134.9-137.34zm-1.41 11.469c67.64 0 122.55 56.239 122.55 125.53 0 69.29-54.91 125.53-122.55 125.53-67.649 0-122.55-56.24-122.55-125.53-0.004-69.292 54.901-125.53 122.55-125.53z"/>
    <rect id="rect2361" rx="6.7337" ry="6.4685" transform="matrix(.71419 -.69995 .71419 .69995 0 0)" width="57.825" y="382.01" x="-30.159" height="273.82"/>
    <path id="path2367" d="m237.08 263.29l19.96 19.59 31.32-30.68-19.22-19.22c-9.79 11.55-21.25 23.38-32.06 30.31z" sodipodi:nodetypes="ccccc" fill-rule="evenodd"/>
    <rect id="rect2376" rx="6.7337" ry="6.4685" transform="matrix(.71419 -.69995 .71419 .69995 0 0)" width="57.825" y="383.06" x="-28.42" height="273.82"/>
    <path id="path2378" d="m237.33 261.63l21.35 21.26 31.32-30.67-20.89-20.34c-9.8 11.55-20.97 22.82-31.78 29.75z" sodipodi:nodetypes="ccccc" fill-rule="evenodd"/>
    <path id="path2380" sodipodi:nodetypes="cccccccccc" d="m162.9 13.404c-69.543 0-133.46 60.125-131.36 133.13 0.002 75.82 56.9 138.05 131.36 138.05 74.45 0 134.89-61.53 134.89-137.34 0-75.818-60.44-133.84-134.89-133.84zm-1.42 7.956c67.65 0 122.55 56.239 122.55 125.53 0 69.29-54.9 125.53-122.55 125.53-67.648 0-122.55-56.24-122.55-125.53-0.003-69.291 54.902-125.53 122.55-125.53z"/>
  </g>
  <g id="layer5" sodipodi:insensitive="true">
    <rect id="rect2270" ry=".30124" transform="rotate(-45)" width="33.712" y="346.22" x="-10.78" height="39.478" fill="#e9e9e9"/>
    <path id="path2274" d="m252.91 240.98l25.7 25.7 10.51-10.08-26.84-27.12-9.37 11.5z" fill="url(#linearGradient2282)" fill-rule="evenodd"/>
    <path id="path2284" d="m238.29 253.48l26.55 26.98 3.27-2.98-27.13-27.55-2.69 3.55z" sodipodi:nodetypes="ccccc" fill="url(#linearGradient2292)" fill-rule="evenodd"/>
  </g>
  <g id="layer6" sodipodi:insensitive="true">
    <rect id="rect2295" rx="6.7351" ry="6.4698" transform="rotate(-45)" width="47.62" y="385.6" x="-18.088" height="263.55" fill="#659e21"/>
    <path id="rect2297" d="m293.44 254.58c-1.69 0.04-3.4 0.71-4.72 2.03l-15.08 15.08 184.9 187.43 16.56-16.13c2.64-2.64 2.72-6.81 0.18-9.35l-177.21-177.21c-1.27-1.27-2.94-1.88-4.63-1.85z" sodipodi:nodetypes="cccccccc" fill="url(#linearGradient2308)"/>
    <path id="path2312" d="m265.82 279.48l-1.19 1.19c-2.64 2.63-2.72 6.8-0.19 9.34l177.22 177.19c2.54 2.53 6.68 2.45 9.31-0.19l1.19-1.19-186.34-186.34z" fill="url(#linearGradient2351)" fill-rule="evenodd"/>
    <path id="path2353" d="m270.95 275.21c-3.07 3.07-5.65 3.97-7.35 8.68-0.87 5.42 3.75 7.64 6.11 10.6-1.06-4.26-3.79-7.15-3.01-10.79 1.01-2.69 2.12-5.18 4.25-8.49z" fill-opacity=".33856" sodipodi:nodetypes="ccccc" fill-rule="evenodd" fill="#fff"/>
  </g>
  <g id="layer2" sodipodi:insensitive="true">
    <path id="path1387" sodipodi:rx="113.40852" sodipodi:ry="90.225563" sodipodi:type="arc" d="m262.53 144.11a113.41 90.226 0 1 1 -226.82 0 113.41 90.226 0 1 1 226.82 0z" transform="matrix(.17963 1.0854 -1.3199 .24797 325.82 -48.789)" sodipodi:cy="144.11028" sodipodi:cx="149.12280" fill="url(#linearGradient2154)"/>
    <path id="path2194" sodipodi:rx="113.40852" sodipodi:ry="90.225563" sodipodi:type="arc" d="m262.53 144.11a113.41 90.226 0 1 1 -226.82 0 113.41 90.226 0 1 1 226.82 0z" transform="matrix(.18282 1.0988 -1.3433 .25102 328.92 -51.214)" stroke="url(#linearGradient2204)" sodipodi:cy="144.11028" sodipodi:cx="149.12280" stroke-width="5.6742" fill="none"/>
    <path id="path2206" sodipodi:rx="113.40852" sodipodi:ry="90.225563" sodipodi:type="arc" d="m262.53 144.11a113.41 90.226 0 1 1 -226.82 0 113.41 90.226 0 1 1 226.82 0z" transform="matrix(.18883 1.1311 -1.3875 .25841 334.38 -57.417)" stroke="url(#linearGradient2216)" sodipodi:cy="144.11028" sodipodi:cx="149.12280" stroke-width="1.6212" fill="none"/>
    <path id="path2218" sodipodi:rx="113.40852" sodipodi:ry="90.225563" sodipodi:type="arc" d="m262.53 144.11a113.41 90.226 0 1 1 -226.82 0 113.41 90.226 0 1 1 226.82 0z" transform="matrix(.17728 1.0623 -1.3026 .24269 323.56 -44.742)" stroke="#9f9f9f" sodipodi:cy="144.11028" sodipodi:cx="149.12280" stroke-width="1.9883" fill="none"/>
  </g>
  <g id="layer3" sodipodi:insensitive="true">
    <path id="path2229" d="m83.796 65.612s-20.544 48.388-18.651 86.498c1.892 38.12 12.974 75.96 12.974 75.96s-17.84-18.38-23.246-37.3c-5.406-18.93-11.083-51.9 0-79.21 11.083-27.296 28.923-45.948 28.923-45.948z" fill-opacity=".28527" fill="#fff" fill-rule="evenodd"/>
    <path id="path2231" d="m19.733 63.72z" stroke="#000" stroke-width="1px" fill="none"/>
    <path id="path2233" d="m77.378 77.1s-13.457 44.06-14.476 66.77c-0.208 24.32 11.587 76.49 11.587 76.49s-14.681-17.3-18.45-31.35c-4.04-18.92-8.281-46.22-2.974-65.15 8.281-27.297 24.313-46.76 24.313-46.76z" fill-opacity=".28527" sodipodi:nodetypes="cccccc" fill-rule="evenodd" fill="#fff"/>
  </g>
  <metadata>
    <rdf:RDF>
      <cc:Work>
        <dc:format>image/svg+xml</dc:format>
        <dc:type rdf:resource="http://purl.org/dc/dcmitype/StillImage"/>
        <cc:license rdf:resource="http://creativecommons.org/licenses/publicdomain/"/>
        <dc:publisher>
          <cc:Agent rdf:about="http://openclipart.org/">
            <dc:title>Openclipart</dc:title>
          </cc:Agent>
        </dc:publisher>
      </cc:Work>
      <cc:License rdf:about="http://creativecommons.org/licenses/publicdomain/">
        <cc:permits rdf:resource="http://creativecommons.org/ns#Reproduction"/>
        <cc:permits rdf:resource="http://creativecommons.org/ns#Distribution"/>
        <cc:permits rdf:resource="http://creativecommons.org/ns#DerivativeWorks"/>
      </cc:License>
    </rdf:RDF>
  </metadata>
</svg>
