<?xml version="1.0"?>
<svg xmlns:rdf="http://www.w3.org/1999/02/22-rdf-syntax-ns#" xmlns="http://www.w3.org/2000/svg" xmlns:cc="http://web.resource.org/cc/" xmlns:dc="http://purl.org/dc/elements/1.1/" viewBox="0 0 203 336">
  <defs>
    <clipPath id="imagebot_6" clipPathUnits="userSpaceOnUse">
      <path id="imagebot_269" d="m728.65 494.4h11.55v-10.83h-11.55v10.83z"/>
    </clipPath>
    <clipPath id="imagebot_17" clipPathUnits="userSpaceOnUse">
      <path id="imagebot_268" d="m712.26 545.33h12.1v-2h-12.1v2z"/>
    </clipPath>
    <clipPath id="imagebot_24" clipPathUnits="userSpaceOnUse">
      <path id="imagebot_267" d="m727.5 562.47h4.6v-12.13h-4.6v12.13z"/>
    </clipPath>
    <clipPath id="imagebot_35" clipPathUnits="userSpaceOnUse">
      <path id="imagebot_266" d="m625.35 549.18h22.79v-27.58h-22.79v27.58z"/>
    </clipPath>
    <clipPath id="imagebot_53" clipPathUnits="userSpaceOnUse">
      <path id="imagebot_264" d="m719.04 498.16h18.48v-2.94h-18.48v2.94z"/>
    </clipPath>
    <clipPath id="imagebot_60" clipPathUnits="userSpaceOnUse">
      <path id="imagebot_263" d="m755.05 541.74h79.17v-16.98h-79.17v16.98z"/>
    </clipPath>
    <clipPath id="imagebot_67" clipPathUnits="userSpaceOnUse">
      <path id="imagebot_262" d="m754.41 523.35h79.74v-11.07h-79.74v11.07z"/>
    </clipPath>
    <clipPath id="imagebot_74" clipPathUnits="userSpaceOnUse">
      <path id="imagebot_261" d="m754.41 505.28h76.33v-8.58h-76.33v8.58z"/>
    </clipPath>
    <clipPath id="imagebot_81" clipPathUnits="userSpaceOnUse">
      <path id="imagebot_260" d="m745.46 533.23h4.47v-5.14h-4.47v5.14z"/>
    </clipPath>
    <clipPath id="imagebot_88" clipPathUnits="userSpaceOnUse">
      <path id="imagebot_259" d="m745.67 524.69h5.3v-5.87h-5.3v5.87z"/>
    </clipPath>
    <clipPath id="imagebot_95" clipPathUnits="userSpaceOnUse">
      <path id="imagebot_258" d="m746.86 517.5h4.93v-4.87h-4.93v4.87z"/>
    </clipPath>
    <clipPath id="imagebot_102" clipPathUnits="userSpaceOnUse">
      <path id="imagebot_257" d="m747.42 511.04h4.15v-5.13h-4.15v5.13z"/>
    </clipPath>
    <clipPath id="imagebot_109" clipPathUnits="userSpaceOnUse">
      <path id="imagebot_256" d="m748.06 503.99h4.29v-4.55h-4.29v4.55z"/>
    </clipPath>
    <clipPath id="imagebot_116" clipPathUnits="userSpaceOnUse">
      <path id="imagebot_255" d="m719.87 528.38h4.77v-28.87h-4.77v28.87z"/>
    </clipPath>
    <clipPath id="imagebot_123" clipPathUnits="userSpaceOnUse">
      <path id="imagebot_254" d="m667.08 518.61h2.77v-4.95h-2.77v4.95z"/>
    </clipPath>
    <clipPath id="imagebot_130" clipPathUnits="userSpaceOnUse">
      <path id="imagebot_253" d="m631.87 530.88h9.82v-2.23h-9.82v2.23z"/>
    </clipPath>
    <clipPath id="imagebot_137" clipPathUnits="userSpaceOnUse">
      <path id="imagebot_252" d="m630.93 502.46h9.83v-2.22h-9.83v2.22z"/>
    </clipPath>
    <clipPath id="imagebot_144" clipPathUnits="userSpaceOnUse">
      <path id="imagebot_251" d="m602.94 497.8h13.85v-6.37h-13.85v6.37z"/>
    </clipPath>
    <clipPath id="imagebot_151" clipPathUnits="userSpaceOnUse">
      <path id="imagebot_250" d="m643.99 517.34h3.82v-2.35h-3.82v2.35z"/>
    </clipPath>
    <clipPath id="imagebot_158" clipPathUnits="userSpaceOnUse">
      <path id="imagebot_249" d="m588.14 565.83h35.26v-56.44h-35.26v56.44z"/>
    </clipPath>
    <clipPath id="imagebot_165" clipPathUnits="userSpaceOnUse">
      <path id="imagebot_248" d="m589.9 558.39h49.06v-49.01h-49.06v49.01z"/>
    </clipPath>
    <clipPath id="imagebot_172" clipPathUnits="userSpaceOnUse">
      <path id="imagebot_247" d="m589.9 509.39h38.02v-26.77h-38.02v26.77z"/>
    </clipPath>
    <clipPath id="imagebot_181" clipPathUnits="userSpaceOnUse">
      <path id="imagebot_246" d="m603.93 521.26h23.03v-12.92h-23.03v12.92z"/>
    </clipPath>
    <clipPath id="imagebot_188" clipPathUnits="userSpaceOnUse">
      <path id="imagebot_245" d="m670.28 541.99h9.71v-19.07h-9.71v19.07z"/>
    </clipPath>
    <clipPath id="imagebot_221" clipPathUnits="userSpaceOnUse">
      <path id="imagebot_242" d="m580.31 575.03h43.95v-25.15h-43.95v25.15z"/>
    </clipPath>
    <linearGradient id="imagebot_306" y2="1">
      <stop stop-color="#e92d28" offset="0"/>
      <stop stop-color="#6d0018" offset="1"/>
    </linearGradient>
  </defs>
  <g id="imagebot_2" label="Layer 1">
    <g id="imagebot_239" label="Layer 1" transform="matrix(0 1.25 1.25 0 157.5 77.722)">
      <path id="imagebot_240" fill="#f9dec5" d="m0 0c27.5 0 49.792-15.288 49.792-34.146 0-18.859-22.292-34.147-49.792-34.147-27.499 0-49.79 15.288-49.79 34.147 0 18.858 22.291 34.146 49.79 34.146"/>
    </g>
    <g id="imagebot_237" label="Layer 1" transform="matrix(0 1.25 1.25 0 92.654 86.86)">
      <path id="imagebot_238" d="m0 0c4.099 0 7.421-1.31 7.421-2.924 0-1.615-3.322-2.924-7.421-2.924s-7.421 1.309-7.421 2.924c0 1.614 3.322 2.924 7.421 2.924"/>
    </g>
    <g id="imagebot_235" label="Layer 1" transform="matrix(0 1.25 1.25 0 127.93 88.861)">
      <path id="imagebot_236" d="m0 0c4.099 0 7.421-1.309 7.421-2.923 0-1.615-3.322-2.924-7.421-2.924-4.1 0-7.422 1.309-7.422 2.924 0 1.614 3.322 2.923 7.422 2.923"/>
    </g>
    <g id="imagebot_233" label="Layer 1" transform="matrix(0 1.25 1.25 0 93.404 72.712)">
      <path id="imagebot_234" stroke="#000" fill="none" d="m0 0s-4.798-3.448-3.448-14.842"/>
    </g>
    <g id="imagebot_231" label="Layer 1" transform="matrix(0 1.25 1.25 0 116.83 74.024)">
      <path id="imagebot_232" stroke="#000" fill="none" d="m0 0s-5.697 4.947-4.798 14.993"/>
    </g>
    <g id="imagebot_229" label="Layer 1" transform="matrix(0 1.25 1.25 0 124.48 84.165)">
      <path id="imagebot_230" fill="#fff" d="m0 0c1.009-0.244 1.701-0.956 1.548-1.592-0.152-0.635-1.093-0.952-2.103-0.708-1.007 0.244-1.699 0.954-1.546 1.59s1.093 0.952 2.101 0.71"/>
    </g>
    <g id="imagebot_227" label="Layer 1" transform="matrix(0 1.25 1.25 0 89.842 81.895)">
      <path id="imagebot_228" fill="#fff" d="m0 0c1.009-0.244 1.701-0.955 1.548-1.59-0.152-0.636-1.093-0.953-2.103-0.709-1.007 0.243-1.699 0.955-1.547 1.589 0.154 0.636 1.093 0.953 2.102 0.71"/>
    </g>
    <g id="imagebot_225" label="Layer 1" transform="matrix(0 1.25 1.25 0 150.65 9.1139)">
      <path id="imagebot_226" fill="url(#imagebot_306)" d="m0 0s1.405 48.657 67.97 40.859-16.223-0.031-26.986-10.794c0 0 15.292 2.102 31.484-8.394 0 0-14.772 1.686-21.928-1.557 0 0-28.26-30.991-50.54-20.114"/>
    </g>
    <g id="imagebot_218" label="Layer 1" transform="matrix(0 1.25 1.25 0 -539.3 -708.04)">
      <g id="imagebot_219">
        <g id="imagebot_220" opacity=".5" clip-path="url(#imagebot_221)">
          <g id="imagebot_222" transform="translate(580.31 549.92)">
            <path id="imagebot_223" d="m0 0s6.248 35.384 43.954 22.154-39.695-23.217-43.954-22.154"/>
          </g>
        </g>
      </g>
    </g>
    <g id="imagebot_216" label="Layer 1" transform="matrix(0 1.25 1.25 0 168.9 98.732)">
      <path id="imagebot_217" fill="#f9dec5" d="m0 0c6.596-4.133 10.266-10.157 8.2-13.454-2.068-3.296-9.089-2.622-15.684 1.513-6.597 4.133-10.267 10.158-8.2 13.456 2.067 3.296 9.087 2.619 15.684-1.515"/>
    </g>
    <g id="imagebot_214" label="Layer 1" transform="matrix(0 1.25 1.25 0 95.464 113.94)">
      <path id="imagebot_215" fill="#ed1c24" d="m0 0s6.746 7.196-1.125 19.79 18.666-11.019 1.125-19.79"/>
    </g>
    <g id="imagebot_198" label="Layer 1" transform="matrix(0 1.25 1.25 0 149.95 191.34)">
      <path id="imagebot_199" fill="#f9dec5" d="m0 0s18.516 3.179 24.171-12.256c5.656-15.435 7.755-29.422 10.903-33.101h6.747s-8.902 24.32-8.902 40.02 2.067 17.481-33.929 16.746"/>
    </g>
    <g id="imagebot_196" label="Layer 1" transform="matrix(0 1.25 1.25 0 138.19 128.15)">
      <path id="imagebot_197" fill="#f9dec5" d="m0 0h11.501s7.674 13.269 14.6 21.589c6.925 8.32 34.444 3.148 34.444 3.148-3.559-4.272 0.748-21.589 0.748-21.589h-7.488c13.103-15.741 25.832-8.995 25.832-8.995 32.573 30.584 81.983 19.79 81.983 19.79 11.98-25.186-2.62-69.263-2.62-69.263-12.72 8.095-90.596 11.244-90.596 11.244-16.095 0-24.707-7.196-35.938-2.699-11.232 4.498-19.843 28.785-19.843 28.785l-4.882-1.087s-2.328 12.737-7.741 19.077"/>
    </g>
    <g id="imagebot_194" label="Layer 1" transform="matrix(0 1.25 1.25 0 116.99 116.91)">
      <path id="imagebot_195" fill="#fff" d="m0 0c-1.854 1.593-3.5 2.57-3.5 2.57 7.871-12.593 1.125-19.79 1.125-19.79 1.163 0.582 2.155 1.174 3.017 1.772 2.557 5.49 0.859 11.765-0.642 15.448"/>
    </g>
    <g id="imagebot_192" label="Layer 1" transform="matrix(0 1.25 1.25 0 138.85 142.92)">
      <path id="imagebot_193" fill="#003f7f" d="m0 0c0.995-4.061 1.853-10.422 0.995-19.015 1.278-3.429 9.365-24.167 19.661-28.29 11.232-4.497 19.843 2.7 35.939 2.7 0 0 77.875-3.149 90.595-11.245 0 0 14.61 44.078 2.63 69.264 0 0-49.42 10.794-81.993-19.79 0 0-12.728-6.746-25.832 8.995h7.488s-4.306 17.317-0.748 21.589-27.518 5.172-34.444-3.148c-6.117-7.351-12.81-18.544-14.291-21.06"/>
    </g>
    <g id="imagebot_185" label="Layer 1" transform="matrix(0 1.25 1.25 0 -539.3 -708.04)">
      <g id="imagebot_186">
        <g id="imagebot_187" opacity=".2" clip-path="url(#imagebot_188)">
          <g id="imagebot_189" transform="translate(670.28 541.99)">
            <path id="imagebot_190" d="m0 0c5.726-6.34 8.188-19.077 8.188-19.077l1.523 0.321c-0.784 7.14-3.107 14.076-4.978 18.756h-4.733z"/>
          </g>
        </g>
      </g>
    </g>
    <g id="imagebot_178" label="Layer 1" transform="matrix(0 1.25 1.25 0 -539.3 -708.04)">
      <g id="imagebot_179">
        <g id="imagebot_180" opacity=".2" clip-path="url(#imagebot_181)">
          <g id="imagebot_182" transform="translate(606.99 508.45)">
            <path id="imagebot_183" fill="#f15a24" d="m0 0s9.413-0.807 19.972 12.264-11.098-8.875-17.17-10.044c0 0 7.066 5.647 9.606 10.591 0 0-23.736-14.331-12.408-12.811"/>
          </g>
        </g>
      </g>
    </g>
    <g id="imagebot_176" label="Layer 1" transform="matrix(0 1.25 1.25 0 67.166 48.911)">
      <path id="imagebot_177" fill="url(#imagebot_306)" d="m0 0c-0.229 0.554 20.241-8.244 27.736 1.051 0 0-24.59-0.002-33.433 13.792 0 0 19.041-3.149 27.735 19.04 0 0-9.967-11.392-19.635-11.971-0.251-0.015-0.502-0.022-0.754-0.022-9.894 0 22.638 15.891 28.036 37.48 0 0-15.294-16.941-25.488-17.541 0 0 22.197 18.295 28.792 29.69 0 0 2.243 5.841 23.532 0.745 0 0-16.492 6.895-26.086 5.096 0 0 11.094 1.799 17.391 1.799 0 0-88.753 39.281-74.66-53.671 0 0-7.798 3.6-12.295 14.094 0 0 5.387-22.436 20.44-24.925 0 0 3.247-21.552 26.035-25.149 0 0-3.598 1.496-7.346 10.492"/>
    </g>
    <g id="imagebot_169" label="Layer 1" transform="matrix(0 1.25 1.25 0 -539.3 -708.04)">
      <g id="imagebot_170">
        <g id="imagebot_171" opacity=".3" clip-path="url(#imagebot_172)">
          <g id="imagebot_173" transform="translate(589.9 509.38)">
            <path id="imagebot_174" d="m0 0s4.529-28.602 38.021-26.67-29.701-1.665-38.021 26.67"/>
          </g>
        </g>
      </g>
    </g>
    <g id="imagebot_162" label="Layer 1" transform="matrix(0 1.25 1.25 0 -539.3 -708.04)">
      <g id="imagebot_163">
        <g id="imagebot_164" opacity=".3" clip-path="url(#imagebot_165)">
          <g id="imagebot_166" transform="translate(589.9 509.38)">
            <path id="imagebot_167" d="m0 0s4.571 57.734 49.061 47.87-38.492 9.925-49.061-47.87"/>
          </g>
        </g>
      </g>
    </g>
    <g id="imagebot_155" label="Layer 1" transform="matrix(0 1.25 1.25 0 -539.3 -708.04)">
      <g id="imagebot_156">
        <g id="imagebot_157" opacity=".3" clip-path="url(#imagebot_158)">
          <g id="imagebot_159" transform="translate(589.9 509.38)">
            <path id="imagebot_160" d="m0 0s-8.546 45.876 33.508 56.445-44.528-6.297-33.508-56.445"/>
          </g>
        </g>
      </g>
    </g>
    <g id="imagebot_148" label="Layer 1" transform="matrix(0 1.25 1.25 0 -539.3 -708.04)">
      <g id="imagebot_149">
        <g id="imagebot_150" opacity=".2" clip-path="url(#imagebot_151)">
          <g id="imagebot_152" transform="translate(644.24 516.99)">
            <path id="imagebot_153" fill="#f15a24" d="m0 0c0.396-0.699 0.96-2.158 2.104-1.986 0.873 0.131 1.484 1.632 1.466 2.34-0.679 0.054-1.035-0.543-1.713-0.601-0.747-0.065-1.442 0.693-2.104 0.124"/>
          </g>
        </g>
      </g>
    </g>
    <g id="imagebot_141" label="Layer 1" transform="matrix(0 1.25 1.25 0 -539.3 -708.04)">
      <g id="imagebot_142">
        <g id="imagebot_143" opacity=".2" clip-path="url(#imagebot_144)">
          <g id="imagebot_145" transform="translate(611.29 491.84)">
            <path id="imagebot_146" fill="#f15a24" d="m0 0c-2.727 0.27-6.805 3.726-8.359 5.964 2.027-0.739 4.204-1.914 6.361-2.684 2.384-0.85 5.021-2.85 7.493-2.988-1.638-1.428-5.268-0.319-7.113 0.193"/>
          </g>
        </g>
      </g>
    </g>
    <g id="imagebot_134" label="Layer 1" transform="matrix(0 1.25 1.25 0 -539.3 -708.04)">
      <g id="imagebot_135">
        <g id="imagebot_136" opacity=".2" clip-path="url(#imagebot_137)">
          <g id="imagebot_138" transform="translate(635.85 502.46)">
            <path id="imagebot_139" fill="#fff" d="m0 0c2.715 0 4.914-0.498 4.914-1.113 0-0.616-2.199-1.116-4.914-1.116-2.714 0-4.914 0.5-4.914 1.116 0 0.615 2.2 1.113 4.914 1.113"/>
          </g>
        </g>
      </g>
    </g>
    <g id="imagebot_127" label="Layer 1" transform="matrix(0 1.25 1.25 0 -539.3 -708.04)">
      <g id="imagebot_128">
        <g id="imagebot_129" opacity=".2" clip-path="url(#imagebot_130)">
          <g id="imagebot_131" transform="translate(636.78 530.88)">
            <path id="imagebot_132" fill="#fff" d="m0 0c2.715 0 4.914-0.499 4.914-1.114s-2.199-1.115-4.914-1.115c-2.714 0-4.913 0.5-4.913 1.115s2.199 1.114 4.913 1.114"/>
          </g>
        </g>
      </g>
    </g>
    <g id="imagebot_120" label="Layer 1" transform="matrix(0 1.25 1.25 0 -539.3 -708.04)">
      <g id="imagebot_121">
        <g id="imagebot_122" opacity=".2" clip-path="url(#imagebot_123)">
          <g id="imagebot_124" transform="translate(667.5 513.66)">
            <path id="imagebot_125" fill="#f15a24" d="m0 0c0.053 0.105 0.241 0.168 0.382 0.332 0.335 0.389 0.302 1.423 0.273 1.912-0.049 0.902-0.578 1.954-1.069 2.67 0.81 0.295 2.268-1.072 2.589-1.756 0.267-0.569 0.25-1.664-0.133-2.178-0.479-0.641-1.545-0.59-2.228-0.793"/>
          </g>
        </g>
      </g>
    </g>
    <g id="imagebot_113" label="Layer 1" transform="matrix(0 1.25 1.25 0 -539.3 -708.04)">
      <g id="imagebot_114">
        <g id="imagebot_115" opacity=".2" clip-path="url(#imagebot_116)">
          <g id="imagebot_117" transform="translate(720.13 499.51)">
            <path id="imagebot_118" fill="#f15a24" d="m0 0s5.813 5.395-0.262 28.874 10.563-26.177 0.262-28.874"/>
          </g>
        </g>
      </g>
    </g>
    <g id="imagebot_106" label="Layer 1" transform="matrix(0 1.25 1.25 0 -539.3 -708.04)">
      <g id="imagebot_107">
        <g id="imagebot_108" opacity=".2" clip-path="url(#imagebot_109)">
          <g id="imagebot_110" transform="translate(750.57 499.66)">
            <path id="imagebot_111" fill="#f15a24" d="m0 0c0.116 0.021 0.222-0.004 0.313-0.074-0.944 0.652-3.521 1.567-2.642 2.965 0.595 0.945 3.121 1.529 4.109 1.429-0.701-0.74-1.631-1.47-1.681-2.633-0.025-0.564 0.961-2.324-0.199-1.806"/>
          </g>
        </g>
      </g>
    </g>
    <g id="imagebot_99" label="Layer 1" transform="matrix(0 1.25 1.25 0 -539.3 -708.04)">
      <g id="imagebot_100">
        <g id="imagebot_101" opacity=".2" clip-path="url(#imagebot_102)">
          <g id="imagebot_103" transform="translate(751.57 505.92)">
            <path id="imagebot_104" fill="#f15a24" d="m0 0c-0.77-0.104-3.145 0.851-3.74 1.539-0.634 0.732-0.473 1.692 0.056 2.438 0.255 0.359 1.274 1.461 1.787 1.062 0.534-0.417-0.167-2.394-0.093-3.092 0.703-0.373 2.038-0.445 1.974-1.685-0.108-0.092-0.455-0.242-0.585-0.258-0.094 0.095-0.163 0.215-0.202 0.357"/>
          </g>
        </g>
      </g>
    </g>
    <g id="imagebot_92" label="Layer 1" transform="matrix(0 1.25 1.25 0 -539.3 -708.04)">
      <g id="imagebot_93">
        <g id="imagebot_94" opacity=".2" clip-path="url(#imagebot_95)">
          <g id="imagebot_96" transform="translate(750.16 512.79)">
            <path id="imagebot_97" fill="#f15a24" d="m0 0c-0.728-0.232-3.034 0.78-3.3 1.92 0.863 0.893 1.794 2.049 2.898 2.514 0.625 0.263 2.129 0.648 2.018-0.453-0.098-0.964-1.82-1.24-1.829-2.176-0.009-0.813 1.273-0.979 1.079-1.908-0.574-0.022-1.246-0.251-1.569 0.463"/>
          </g>
        </g>
      </g>
    </g>
    <g id="imagebot_85" label="Layer 1" transform="matrix(0 1.25 1.25 0 -539.3 -708.04)">
      <g id="imagebot_86">
        <g id="imagebot_87" opacity=".2" clip-path="url(#imagebot_88)">
          <g id="imagebot_89" transform="translate(750.97 519.17)">
            <path id="imagebot_90" fill="#f15a24" d="m0 0c-1.493 0.05-4.78-0.311-5.302 1.896 0.81 0.69 1.175 1.765 2.064 2.464 0.762 0.602 1.585 1.216 2.526 1.161-0.235-1.058-0.864-1.913-1.082-2.966 0.461-0.33 0.925-0.966 1.093-1.592 0.149-0.55 0.146-1.834-0.605-1.084"/>
          </g>
        </g>
      </g>
    </g>
    <g id="imagebot_78" label="Layer 1" transform="matrix(0 1.25 1.25 0 -539.3 -708.04)">
      <g id="imagebot_79">
        <g id="imagebot_80" opacity=".2" clip-path="url(#imagebot_81)">
          <g id="imagebot_82" transform="translate(749.56 528.56)">
            <path id="imagebot_83" fill="#f15a24" d="m0 0c0.064-0.176 0.124-0.283 0.095-0.469-0.756-0.046-2.892 0.694-3.49 1.312-0.411 0.422-0.379 1.033-0.709 1.556 0.73 0.725 1.565 1.031 2.426 1.452 0.632 0.306 1.353 1.131 2.043 0.703-0.4-0.805-1.558-1.639-1.57-2.511-0.015-0.862 1.522-1.713 1.205-2.405"/>
          </g>
        </g>
      </g>
    </g>
    <g id="imagebot_71" label="Layer 1" transform="matrix(0 1.25 1.25 0 -539.3 -708.04)">
      <g id="imagebot_72">
        <g id="imagebot_73" opacity=".2" clip-path="url(#imagebot_74)">
          <g id="imagebot_75" transform="translate(754.42 503.18)">
            <path id="imagebot_76" fill="#f15a24" d="m0 0s50.089 4.85 76.329-6.484-44.212 13.694-76.329 6.484"/>
          </g>
        </g>
      </g>
    </g>
    <g id="imagebot_64" label="Layer 1" transform="matrix(0 1.25 1.25 0 -539.3 -708.04)">
      <g id="imagebot_65">
        <g id="imagebot_66" opacity=".2" clip-path="url(#imagebot_67)">
          <g id="imagebot_68" transform="translate(754.42 512.29)">
            <path id="imagebot_69" fill="#f15a24" d="m0 0s52.785 17.801 79.732 2.266-27.666 21.242-79.732-2.266"/>
          </g>
        </g>
      </g>
    </g>
    <g id="imagebot_57" label="Layer 1" transform="matrix(0 1.25 1.25 0 -539.3 -708.04)">
      <g id="imagebot_58">
        <g id="imagebot_59" opacity=".2" clip-path="url(#imagebot_60)">
          <g id="imagebot_61" transform="translate(755.05 524.76)">
            <path id="imagebot_62" fill="#f15a24" d="m0 0s51.09 23.902 79.167 11.599-29.258 17.899-79.167-11.599"/>
          </g>
        </g>
      </g>
    </g>
    <g id="imagebot_50" label="Layer 1" transform="matrix(0 1.25 1.25 0 -539.3 -708.04)">
      <g id="imagebot_51">
        <g id="imagebot_52" opacity=".2" clip-path="url(#imagebot_53)">
          <g id="imagebot_54" transform="translate(719.04 495.22)">
            <path id="imagebot_55" fill="#f15a24" d="m0 0s11.781 3.961 18.476 2.693-16.136-2.168-18.476-2.693"/>
          </g>
        </g>
      </g>
    </g>
    <g id="imagebot_48" label="Layer 1" transform="matrix(0 1.25 1.25 0 115.08 144.16)">
      <path id="imagebot_49" fill="#fff" d="m0 0s4.917-8.734 13.145-13.736-1.979 17.907-14.14 32.751c0 0 8.181-18.421 0.995-19.015"/>
    </g>
    <g id="imagebot_32" label="Layer 1" transform="matrix(0 1.25 1.25 0 -539.3 -708.04)">
      <g id="imagebot_33">
        <g id="imagebot_34" opacity=".3" clip-path="url(#imagebot_35)">
          <g id="imagebot_36" transform="translate(636.75 549.18)">
            <path id="imagebot_37" fill="#fff" d="m0 0c6.293 0 11.396-6.176 11.396-13.793 0-7.616-5.103-13.792-11.396-13.792-6.291 0-11.394 6.176-11.394 13.792 0 7.617 5.103 13.793 11.394 13.793"/>
          </g>
        </g>
      </g>
    </g>
    <g id="imagebot_21" label="Layer 1" transform="matrix(0 1.25 1.25 0 -539.3 -708.04)">
      <g id="imagebot_22">
        <g id="imagebot_23" opacity=".2" clip-path="url(#imagebot_24)">
          <g id="imagebot_25" transform="translate(728.16 562.33)">
            <path id="imagebot_26" d="m0 0c-1.722-4.017 0.396-10.057 0.813-11.171 1.021-0.196 2.072-0.464 3.126-0.816-1.767 4.824-1.175 9.503-0.683 11.804-0.908 0.126-1.854 0.236-2.841 0.33l-0.415-0.147z"/>
          </g>
        </g>
      </g>
    </g>
    <g id="imagebot_14" label="Layer 1" transform="matrix(0 1.25 1.25 0 -539.3 -708.04)">
      <g id="imagebot_15">
        <g id="imagebot_16" opacity=".2" clip-path="url(#imagebot_17)">
          <g id="imagebot_18" transform="translate(712.27 543.61)">
            <path id="imagebot_19" fill="#f15a24" d="m0 0c-0.229-0.099 3.784 2.412 10.488 1.535 0 0 0.6-0.813 1.598-1.812 0 0-8.748 1.713-12.086 0.277"/>
          </g>
        </g>
      </g>
    </g>
    <g id="imagebot_12" label="Layer 1" transform="matrix(0 1.25 1.25 0 80.916 195.54)">
      <path id="imagebot_13" fill="#f9dec5" d="m0 0c-0.39-1.273 1.938-4.107 2.862-5.516 1.279-1.956 2.107-3.814 3.336-5.767 3.69-5.859 5.101-12.807 8.193-18.977 2.684-5.357 5.819-12.625 3.216-18.706-1.279-2.991-4.091-4.631-2.979-8.323 1.813 1.201 3.245 2.941 5.294 3.735 1.89 0.732 1.507-4.841 1.379-5.412-0.301-1.347-1.928-4.972-0.015-5.7 1.643-0.625 4.744 3.318 5.631 4.391 1.939 2.345 3.47 5.462 2.81 8.646-0.647 3.121-3.087 5.43-3.785 8.55-0.841 3.756-0.861 7.657-1.237 11.481-0.945 9.635-2.309 18.136-7.052 26.556-1.769 3.147-2.823 6.351-4.441 9.503-1.658 3.237-4.131 2.918-7.392 0.971-2.605-1.556-5.472-2.907-5.82-5.432"/>
    </g>
    <g id="imagebot_10" label="Layer 1" transform="matrix(0 1.25 1.25 0 79.722 190.76)">
      <path id="imagebot_11" fill="#fff" d="m0 0s1.709-0.174 8.459-10.402 4.296 6.34 11.661 10.023c0 0 0.871 1.689-8.463 9.742 0 0-9.069-4.482-11.657-9.363"/>
    </g>
    <g id="imagebot_3" label="Layer 1" transform="matrix(0 1.25 1.25 0 -539.3 -708.04)">
      <g id="imagebot_4">
        <g id="imagebot_5" opacity=".2" clip-path="url(#imagebot_6)">
          <g id="imagebot_7" transform="translate(729.93 483.57)">
            <path id="imagebot_8" d="m0 0c1.792 4.061 7.504 7.027 10.272 8.424-0.409 0.799-0.797 1.599-1.154 2.401l-0.014 0.007c-5.111-1.269-10.342-8.58-10.383-8.638 0.215-0.372 0.426-0.742 0.664-1.119 0.221-0.35 0.409-0.718 0.615-1.075"/>
          </g>
        </g>
      </g>
    </g>
    <title>Layer 1</title>
  </g>
  <metadata>
    <rdf:RDF>
      <cc:Work>
        <dc:format>image/svg+xml</dc:format>
        <dc:type rdf:resource="http://purl.org/dc/dcmitype/StillImage"/>
        <cc:license rdf:resource="http://creativecommons.org/licenses/publicdomain/"/>
        <dc:publisher>
          <cc:Agent rdf:about="http://openclipart.org/">
            <dc:title>Openclipart</dc:title>
          </cc:Agent>
        </dc:publisher>
      </cc:Work>
      <cc:License rdf:about="http://creativecommons.org/licenses/publicdomain/">
        <cc:permits rdf:resource="http://creativecommons.org/ns#Reproduction"/>
        <cc:permits rdf:resource="http://creativecommons.org/ns#Distribution"/>
        <cc:permits rdf:resource="http://creativecommons.org/ns#DerivativeWorks"/>
      </cc:License>
    </rdf:RDF>
  </metadata>
</svg>
