<?xml version="1.0"?>
<svg xmlns:rdf="http://www.w3.org/1999/02/22-rdf-syntax-ns#" xmlns="http://www.w3.org/2000/svg" xmlns:cc="http://web.resource.org/cc/" xmlns:dc="http://purl.org/dc/elements/1.1/" id="svg1872" viewBox="0 0 640 480">
  <g id="layer1">
    <g id="g2844" stroke="#000" transform="matrix(1.1701 0 0 1.1721 -26.336 -48.708)">
      <g id="g2828" fill-rule="evenodd" transform="translate(189.85 -31.032)">
        <path id="path2804" d="m85.191 345.76c0.112 0.83-0.759 19.17-2.581 26.46-5.282 13.22-13.815 25.01-18.071 38.72-1.643 6.57 15.36 14.75 26.461 15.49 11.1 0.75 38.21 10.55 44.53-5.16s-3-32.13-2.58-44.53c0-8.18-1.29-15.06-1.29-23.24" stroke-width="3" fill="#c8c8c8"/>
        <path id="path2806" d="m70.993 402.55c-3.151 1.19-4.518 3.59-4.518 8.39 0 4.45-0.202 6.03 3.227 7.75 2.899 1.45 5.165 2.04 8.39 2.58s7.154 1.29 10.972 1.29c3.468 0 2.581-5.67 2.581-8.39 0-4-0.035-5.84-1.936-7.74-1.697-1.7-7.279-1.99-9.681-2.59-3.189-0.79-5.739-1.29-9.035-1.29z" stroke-width="2" fill="#ffffc8"/>
        <path id="path2812" d="m90.504 413.11c-1.176 0.01-0.726 9.17 1.141 11.39 0.226 0.26 5.635 0.97 9.035 1.29s6.89 0.68 10.33 0c4.85-0.97 3.27-0.86 4.51-5.81 1.25-4.95-0.08-6.81-0.64-9.04-0.48-1.9-5.68-2.36-9.45-2.85-3.78-0.48-7.116-0.45-10.786 0.69-3.129 0.97-4.14 0.31-4.14 4.33z" stroke-width="2" fill="#ffffc8"/>
        <path id="path2814" d="m114.84 411.05c-2.54 1.6-0.91 5.88 0.12 13.11 1.03 7.22 17.92 0.29 21.04-3.12 4.23-4.55 1.64-10.32-2.17-15.76-4.09-3.29-10.14 0.48-13.14 1.98-5.67 2.83-2.46 0.66-5.81 3.87" stroke-width="2" fill="#ffffc8"/>
      </g>
      <g id="g2834" fill-rule="evenodd" transform="translate(293.21 -32.077)">
        <path id="path2836" d="m85.191 345.76c0.112 0.83-0.759 19.17-2.581 26.46-5.282 13.22-13.815 25.01-18.071 38.72-1.643 6.57 15.36 14.75 26.461 15.49 11.1 0.75 38.21 10.55 44.53-5.16s-3-32.13-2.58-44.53c0-8.18-1.29-15.06-1.29-23.24" stroke-width="3" fill="#c8c8c8"/>
        <path id="path2838" d="m70.993 402.55c-3.151 1.19-4.518 3.59-4.518 8.39 0 4.45-0.202 6.03 3.227 7.75 2.899 1.45 5.165 2.04 8.39 2.58s7.154 1.29 10.972 1.29c3.468 0 2.581-5.67 2.581-8.39 0-4-0.035-5.84-1.936-7.74-1.697-1.7-7.279-1.99-9.681-2.59-3.189-0.79-5.739-1.29-9.035-1.29z" stroke-width="2" fill="#ffffc8"/>
        <path id="path2840" d="m90.504 413.11c-1.176 0.01-0.726 9.17 1.141 11.39 0.226 0.26 5.635 0.97 9.035 1.29s6.89 0.68 10.33 0c4.85-0.97 3.27-0.86 4.51-5.81 1.25-4.95-0.08-6.81-0.64-9.04-0.48-1.9-5.68-2.36-9.45-2.85-3.78-0.48-7.116-0.45-10.786 0.69-3.129 0.97-4.14 0.31-4.14 4.33z" stroke-width="2" fill="#ffffc8"/>
        <path id="path2842" d="m114.84 411.05c-2.54 1.6-0.91 5.88 0.12 13.11 1.03 7.22 17.92 0.29 21.04-3.12 4.23-4.55 1.64-10.32-2.17-15.76-4.09-3.29-10.14 0.48-13.14 1.98-5.67 2.83-2.46 0.66-5.81 3.87" stroke-width="2" fill="#ffffc8"/>
      </g>
      <path id="path2774" d="m278.05 208.12c13.18-2.22 31.82-3.95 43.49-9.73 11.68-5.78 20.05-9.54 30.93-15.29 10.43-5.52 22.13-10.83 32.7-12.51 11.91-1.9 22.6-1.95 36.51 0 8.86 1.24 15.63 1.33 24.64 5.47 13.95 6.42 28.34 13.22 41.07 21.91 15.94 10.71 23.13 25.88 25.56 44.72-0.68 12.74 1.39 25.73-0.91 38.34-2.53 14.01-8.52 26.18-18.26 36.51-6.95 6.94-11.33 12.61-16.43 22.81-4.42 8.84-6.39 20.38-6.39 30.12-0.81 11.86 2.74 23.72 2.74 35.6-11.86 1.82-14.85 2.28-26.92 2.28-6.69 0-22.71-0.88-28.75-1.37-6-0.48-8.31 0.93-12.33-3.19-5.76-5.92-3.27-7.83 0-16.89 4.57-8.69 6.37-20.78 8.67-29.2 2.25-8.24-0.21-12.78-2.73-18.26-10.51-1.33-14.65 9.08-20.08 13.69-9.66 7.22-16.64 13.66-29.21 14.61-7.89 1.36-15.11 0.91-22.82 0.91-24.67-4.54-31.43-10.21-49.29-19.17-5.49-2.75-17.39 6.59-19.16 13.69-3.1 13.83 3.6 27.27 0.45 41.07-7.02 6.35-10.37 4.83-23.27 2.74-12.08-1.16-21.47-4.71-32.4-6.39-7.38-1.47-9.87-1.53-15.06-5.93-6.28-5.32-1.37-10.97 1.37-15.52 4.66-7.73 7.35-17.55 8.67-24.18 1.26-6.34 2.66-12.8 4.11-24.19 1.74-13.75 0.6-24.69-0.46-34.98" stroke-width="3" fill="#c8c8c8" fill-rule="evenodd"/>
      <path id="path2772" d="m284.77 206.72c-3.59 0.44-11.27 0.44-15.52-2.74-10.78-6.02-15.32-13.41-19.16-24.64-1.36-14.61 0.02-30.52-6.39-43.81-5.03-11.05-13.67-25.89-23.73-31.95-7.94-6.567-10.17-7.507-25.83-9.347-18.22-2.143-41.18 1.211-56.32 11.177-13.54 10.67-14.1 14.1-20.99 25.55-6.75 11.22-9.64 23.55-10.04 36.51-0.04 24.57 25.1 61.26 14.6 87.62-4.73 7.89-17.76 11.87-25.554 11.87-13.997 0-26.323 2.41-30.12-12.78-2.291-9.16-5.477-14.77-5.477-24.64 0-5.98 2.413-10.57 3.651-15.52-1.572-4.37-19.431-16.67-21.905-10.95-3.095 20.46-6.499 37.7 0.046 57.81 3.246 9.98 8.776 21.93 19.812 28.58 15.792 9.52 26.857 14.5 47.507 16.87 7.13 0.82 31.07-9.67 34.77-13.37 9.81-6.11 6.09-22.25 11.04-32.39 2.02-4.04 11.94 9.83 16.43 10.95 11.14 8.5 27.45-11.44 32.86-8.21 12.77 3.61 8.51 14.67 10.75 32.73" stroke-width="3" fill="#c8c8c8" fill-rule="evenodd"/>
      <path id="path1880" d="m217.98 154.69c10.22-13.64 15.94-17.49 24.53-27.75 8.84-10.57 14.56-14.2 22.58-18.07 5.34-2.57 21.22-5.11 27.11-2.58 8.9 3.83 10.3 15.63 10.97 21.94 1.58 14.85 0 24.31 0 39.37 0 8.67-1.9 18.6-5.16 31.63-5.03 14.62-4.15 18.2-12.26 32.91-4.6 8.34-14.53 17.75-19.37 22.59-4.83 4.83-17.04 0.78-21.29 1.29-4.26 0.51-25.82-19.58-28.4-36.79" stroke-width="3" fill="#c8c8c8" fill-rule="evenodd"/>
      <path id="path2776" d="m513.35 244.37v23.23c2.48 12.52 17.86 35.61 29.69 40.02 8.75 1.75 12.93-1.31 18.07-6.46" stroke-width="3" fill="none"/>
      <path id="path2782" d="m154.89 152.14c0 2.53 0.17 14.87 1.29 19.36 1.41 5.63 0 13.53 0 19.37 0 3.89 2.59 11.23 2.59 16.78" stroke-width="3" fill="none"/>
      <path id="path2786" d="m50.34 237.98c2.553 0.54 6.356-1.57 8.39-2.58" stroke-width="1px" fill="none"/>
      <path id="path2788" d="m52.922 250.24c2.937 1.03 6.121-0.8 8.39-1.94 6.521-3.26-0.962 0.97 1.291-1.29" stroke-width="1px" fill="none"/>
      <path id="path2790" d="m58.73 263.79c1.569-0.78 6.278-4.1 8.391-5.16" stroke-width="1px" fill="none"/>
      <path id="path2792" d="m70.993 273.48c0.856-0.43 2.118-4.6 2.581-6.46" stroke-width="1px" fill="none"/>
      <path id="path2794" d="m86.482 268.31c0.312-0.15-0.01 6.5-0.645 9.04" stroke-width="1px" fill="none"/>
      <path id="path2796" d="m100.68 270.25c1.39-0.7-2.052 7.98-2.581 9.03-0.215 0.43 0.431-0.86 0.646-1.29" stroke-width="1px" fill="none"/>
      <path id="path2798" d="m114.88 265.09c-0.42 0.83 0 7.3 0 10.32 0 1.49-0.98 1.47-1.29 1.94" stroke-width="1px" fill="none"/>
      <path id="path2802" d="m151.67 260.57c2.06-2.76 0 6.88 0 10.32 0 4.33-1.2 5.45-1.94 8.39-0.68 2.74-4.84 4.76-7.1 6.46-2.72 2.04-4.9 4.45-7.74 5.16-3.55 0.89-6.25 3.03-7.1 6.45-0.93 3.71 4.25 3.88 7.1 3.88h9.68c4.11 0 6.14-2.11 8.39-3.23 2.63-1.32 4.36-3.07 6.45-5.16 2.57-2.57 3.54-4.19 5.81-6.46 2.39-2.39 4.07-4.91 5.16-7.1 1.4-2.8 1.29-6.28 1.29-9.68v-1.93" stroke-width="3" fill="#ffffc8" fill-rule="evenodd"/>
      <path id="path2816" d="m251.68 390.86c-2.54 1.6-0.91 5.88 0.12 13.1 1.03 7.23 17.92 0.3 21.04-3.11 4.23-4.56 1.64-10.33-2.17-15.76-4.09-3.3-10.13 0.47-13.14 1.98-5.67 2.83-2.46 0.66-5.81 3.87" stroke-width="2" fill="#ffffc8" fill-rule="evenodd"/>
      <path id="path2818" d="m453.35 389.33c-2.75 0.8-2.17 5.53-2.81 12.99s16.82 5.79 20.52 3.38c5-3.21 3.84-9.71 1.47-16.25-3.12-4.51-9.66-2.64-12.83-2.08-5.97 1.06-2.46-0.1-6.33 2.05" stroke-width="2" fill="#ffffc8" fill-rule="evenodd"/>
      <path id="path2820" d="m427.26 398.1c-1.16 0.2 0.73 9.18 2.92 11.07 0.26 0.23 5.72 0.07 9.12-0.15 3.41-0.22 6.91-0.41 10.2-1.63 4.64-1.71 3.1-1.36 3.55-6.44 0.45-5.09-1.16-6.71-2.06-8.82-0.77-1.81-5.98-1.44-9.79-1.33-3.8 0.11-7.09 0.67-10.54 2.38-2.93 1.45-4.04 0.95-3.4 4.92z" stroke-width="2" fill="#ffffc8" fill-rule="evenodd"/>
      <path id="path2822" d="m226.35 389.94c-1.17-0.2-0.73 9.05 1.14 11.6 0.23 0.31 5.64 2 9.04 2.95 3.4 0.94 6.88 1.94 10.32 1.89 4.85-0.08 3.28-0.26 4.52-4.98 1.24-4.73-0.09-6.82-0.64-9.16-0.48-1.99-5.68-3.4-9.46-4.58-3.77-1.18-7.11-1.76-10.78-1.29-3.13 0.4-4.14-0.45-4.14 3.57z" stroke-width="2" fill="#ffffc8" fill-rule="evenodd"/>
      <path id="path2824" d="m407.51 389.32c-3.15 1.19-4.51 3.59-4.51 8.39 0 4.45-0.21 6.03 3.22 7.75 2.9 1.45 5.17 2.04 8.39 2.58 3.23 0.54 7.16 1.29 10.98 1.29 3.46 0 2.58-5.67 2.58-8.39 0-4-0.04-5.84-1.94-7.74-1.7-1.7-7.28-1.99-9.68-2.59-3.19-0.79-5.74-1.29-9.04-1.29z" stroke-width="2" fill="#ffffc8" fill-rule="evenodd"/>
      <path id="path2826" d="m205.51 379.64c-3.15 1.19-4.52 3.59-4.52 8.39 0 4.45-0.2 6.03 3.23 7.75 2.9 1.45 5.16 2.04 8.39 2.58 3.22 0.54 7.15 1.29 10.97 1.29 3.47 0 2.58-5.67 2.58-8.39 0-4-0.04-5.84-1.94-7.75-1.69-1.69-7.28-1.98-9.68-2.58-3.19-0.79-5.74-1.29-9.03-1.29z" stroke-width="2" fill="#ffffc8" fill-rule="evenodd"/>
    </g>
  </g>
  <metadata>
    <rdf:RDF>
      <cc:Work>
        <dc:format>image/svg+xml</dc:format>
        <dc:type rdf:resource="http://purl.org/dc/dcmitype/StillImage"/>
        <cc:license rdf:resource="http://creativecommons.org/licenses/publicdomain/"/>
        <dc:publisher>
          <cc:Agent rdf:about="http://openclipart.org/">
            <dc:title>Openclipart</dc:title>
          </cc:Agent>
        </dc:publisher>
      </cc:Work>
      <cc:License rdf:about="http://creativecommons.org/licenses/publicdomain/">
        <cc:permits rdf:resource="http://creativecommons.org/ns#Reproduction"/>
        <cc:permits rdf:resource="http://creativecommons.org/ns#Distribution"/>
        <cc:permits rdf:resource="http://creativecommons.org/ns#DerivativeWorks"/>
      </cc:License>
    </rdf:RDF>
  </metadata>
</svg>
