<?xml version="1.0"?>
<svg xmlns:rdf="http://www.w3.org/1999/02/22-rdf-syntax-ns#" xmlns="http://www.w3.org/2000/svg" xmlns:cc="http://web.resource.org/cc/" xmlns:xlink="http://www.w3.org/1999/xlink" xmlns:dc="http://purl.org/dc/elements/1.1/" id="Layer_1" version="1.1" xml:space="preserve" viewBox="0 0 360 288" enable-background="new 0 0 360 288" y="0px" x="0px">
<path d="m157.09 4.852c9.881-1.469 19.997 0.359 29.164 4.108 8.145 3.625 17.126 4.651 25.923 5.545 13.694 1.263 27.617 1.22 41.169-1.345 3.766-0.624 7.24-2.281 10.987-2.985 7.757-1.716 15.546-4.028 23.592-3.62 2.789 0.125 5.714 0.506 8.16 1.932-10.671 0.764-21.532 2.033-31.452 6.232-2.925 1.35-5.889 2.754-8.372 4.809-0.6 1.117 0.484 2.178 1.229 2.904 6.521-3.098 13.162-6.125 20.254-7.724 4.254-0.94 8.558-1.731 12.926-1.931 11.199-1.112 23.085-0.779 33.381 4.189 6.825 3.188 12.301 9.17 14.424 16.365-1.52-1.716-2.563-3.786-4.193-5.416-5.846-6.557-14.324-10.293-22.922-11.777-8.277-1.285-16.799-0.914-24.989 0.801-4.021 1.156-8.317 2.086-11.7 4.636 0.571 1.549 2.268 2.684 3.949 2.517 2.662-0.209 5.156-1.263 7.751-1.844 7.688-1.925 15.86-3.63 23.729-1.592 7.381 1.861 13.398 7.142 17.479 13.342 11.891 17.354 13.591 40.538 5.725 59.829-0.156 0.192-0.469 0.591-0.626 0.791 1.116-10.138-0.069-20.608-3.841-30.127-3.572-9.046-10.094-17.269-19.081-21.522-9.149-4.457-19.964-4.431-29.595-1.586-3.672 1.129-7.609 1.78-10.861 3.904l-0.169 0.441c0.44 0.908 1.56 1.279 2.513 1.397 3.942 0.463 7.701-1.091 11.561-1.586 8.916-1.576 18.58-0.662 26.443 4.017 6.606 3.867 11.293 10.401 13.75 17.506 1.967 5.932 2.431 12.267 1.879 18.461-0.897 6.528-4.826 12.256-9.576 16.715-2.657 2.328-5.457 4.705-8.938 5.717-3.534 1.113-7.011 2.415-10.188 4.329 3.934-5.642 8.616-10.978 10.954-17.532 1.541-4.195 1.039-8.884-0.664-12.95-2.021-4.711-4.858-9.028-7.788-13.229-3.386-4.776-9.288-7.093-14.972-7.771-12.17-1.183-24.319 1.866-35.521 6.378-3.051 1.184-5.847 2.872-8.717 4.416 0.519-6.551 4.241-12.563 9.112-16.914 1.492-1.451 3.36-2.425 4.957-3.742 0.213-0.969-0.953-1.737-1.81-1.285-6.11 2.264-10.828 7.297-13.399 13.143-4.304 9.938-4.762 21.217-10.328 30.664-3.157 5.514-8.358 9.412-13.354 13.198-10.671 7.614-22.829 13.913-36.064 15.438-3.813 0.598-7.871-0.554-11.494 1.104-11.586 4.496-23.037 10.82-30.603 20.855-2.937 3.996-5.397 8.562-5.959 13.535-0.431 2.479-1.035 5.012-0.437 7.523 0.137-0.15 0.414-0.457 0.551-0.613 5.349-12.406 13.699-24.011 25.384-31.293 5.61-3.479 11.967-5.852 18.575-6.534 1.792-0.29 3.753-0.054 5.365-1.026 0.729-0.409 1.5-0.78 2.358-0.851-1.246 1.156-2.843 1.813-4.243 2.759-11.996 7.664-21.593 19.167-26.305 32.537-1.972 5.775-2.984 11.869-2.783 17.973 0.268 1.947-1.302 3.428-1.722 5.231-1.192 3.599-0.985 7.813-3.683 10.788-7.107 8.572-13.885 17.419-21.406 25.641-6.891 7.401-14.44 14.242-22.818 19.978-1.166 0.758-2.533 1.103-3.867 1.467-4.113 1.07-8.041 2.879-12.301 3.353-1.438 0.146-2.887 0-4.32 0.125-1.182 0.387-2.074 1.334-2.858 2.254 0.452 1.102 1.885 1.215 2.909 1.467 4.004 0.521 8.039-0.227 11.962-0.993 5.86-1.36 11.804-3.039 16.805-6.472 14.103-9.014 23.304-23.241 34.339-35.363-0.169 0.667-0.349 1.339-0.643 1.963-4.631 9.546-11.799 17.602-19.375 24.969-8.067 7.858-16.832 14.956-25.346 22.318-0.354 0.35-0.66 0.748-0.91 1.178 3.426 0.141 6.666-1.188 9.646-2.721 7.381-3.861 13.825-9.229 19.801-14.936 8.111-8.076 15.355-17.285 19.758-27.873l0.375 0.054c1.611 7.385 0.414 15.226-2.418 22.18-3.144 7.738-9.31 13.659-15.351 19.257-6.149 5.729-13.521 10.439-21.87 12.228 0.038 0.887 1.236 1.209 1.874 1.688 4.478 2.355 9.854 0.853 13.95-1.592 7.773-4.644 13.891-11.547 18.939-18.913 3.209-4.811 6.08-9.936 7.681-15.494 0.202-0.773 0.338-1.587 0.801-2.259 0.67 1.642 1.045 3.383 1.612 5.063 0.734 2.557 1.879 5.084 1.721 7.8-0.577 7.589-3.322 14.985-7.871 21.13-5.665 7.803-13.836 13.604-22.748 17.306-9.958 4.028-20.982 5.755-31.681 4.224-5.572-0.983-11.188-2.463-16.031-5.447 7.136 0.216 14.653 0.264 21.233-2.865 2.636-1.309 5.142-3.057 6.879-5.438 0.021-1.428-1.781-0.813-2.565-0.434-8.987 3.965-19.261 4.899-28.854 2.748-11.308-2.439-21.521-8.49-30.15-15.972-5.3-4.644-10.132-9.849-14.01-15.716-1.101-1.697-2.142-3.483-2.636-5.465 1.377 0.946 2.462 2.224 3.682 3.342 4.178 3.859 9.091 7.104 14.643 8.65 4.406 1.174 8.922 1.871 13.455 2.34 3.933 0.426 7.799 1.328 11.732 1.73-2.756-1.598-5.992-2.27-8.966-3.42-10.22-3.221-21.294-5.523-29.556-12.744-4.141-3.975-8.226-8.051-11.75-12.585-7.985-10.368-13.363-23.099-13.318-36.259-0.153-11.125 3.541-22.258 10.313-31.147 3.426-4.55 8.012-8.362 13.426-10.353 3.59-1.338 7.539-1.188 11.106-2.57 6.738-2.382 12.507-6.781 17.589-11.658 4.113-3.996 8.285-7.955 11.969-12.354 5.746-6.663 10.19-14.301 14.097-22.124 8.476-16.817 15.126-34.542 24.854-50.735 5.338-8.933 11.788-17.283 19.6-24.249 8.42-7.613 18.58-13.857 30-15.56z" fill="#FEE880"/>
<path d="m255.7 67.712c5.816-1.854 12.125-2.522 18.16-1.646 6.398 9.927 8.209 22.184 7.158 33.757-1.406 7.803-4.845 15.067-8.656 21.983-3.691 6.787-7.107 14.004-7.512 21.824-0.201 3.662 0.325 7.347 1.172 10.906 1.101 3.286 1.559 6.86 3.658 9.739 3.297 5.211 8.688 9.847 8.646 16.461 0.193 1.582-1.461 2.318-2.533 3.099-4.814 3.076-10.891 4.705-14.342 9.521-0.27 3.884 1.013 7.867 3.326 10.98-2.932 3.5-5.045 7.766-8.803 10.523-2.518 1.937-6.146 1.729-8.798 0.172-2.043-1.129-4.751-2.162-5.146-4.76-0.409-1.291 1.307-2.217 0.97-3.49-0.578-0.989-1.362-1.989-2.463-2.414-1.122 1.716-1.472 3.808-2.644 5.502-0.889 1.501-3.572 0.704-3.91 2.683-0.565 0.904 0.112 2.013 1.153 2.063 2.093 0.312 3.398-1.711 4.896-2.786 0.753 0.401 0.677 1.483 1.134 2.146 1.166 1.766 3.247 2.563 5.006 3.6 1.606 0.888 3.183 2.383 5.188 1.777 2.031-0.215 4.353-1.943 6.242-0.653 0.604 2.321-0.095 5.495-2.621 6.403-2.275 0.723-4.944 0.635-7.006-0.656-2.356-1.418-3.815-3.87-6.096-5.383-1.008-0.815-2.682 0.223-2.468 1.479 0.35 2.086 1.836 3.866 3.534 5.103 2.656 1.861 3.684 5.238 3.74 8.32 0.065 4.049-1.176 8.299-4.047 11.277-1.83 1.896-4.605 2.148-7.082 2.531-8.797 1.242-17.857-0.599-25.785-4.446-9.539-4.581-17.69-11.417-25.51-18.388-2.713-2.521-5.621-4.855-8.078-7.633-7.703-9.076-12.998-19.988-16.162-31.367-1.274-4.267-3.17-8.367-3.934-12.771-0.604-3.266 0.146-6.57 1.02-9.717 2.494-8.053 7.363-15.258 13.41-21.142 5.605-5.694 12.153-10.385 18.858-14.729 6.166-4.056 13.504-5.991 19.49-10.356 11.396-7.912 22.808-17.345 27.896-30.568 1.172-2.512 1.301-5.346 2.282-7.9 3.96-5.491 10.22-8.992 16.64-11.03m11.15 18.629c-10.414 3.679-19.544 10.492-26.613 18.833-0.45 0.581-1.297 1.426-0.539 2.135 1.063 0.512 2.15-0.113 2.99-0.752 6.248-4.662 13.885-6.846 20.91-10.057 2.6-1.333 5.605-0.205 8.334-0.925 1.857-0.575 1.956-2.925 1.646-4.501-0.59-2.892-3.55-5.866-6.73-4.726m2.07 25.669c-0.441 0.365-0.889 0.844-1.51 0.866-0.061-0.265-0.189-0.802-0.25-1.069-0.691 0.161-1.318 0.784-2.043 0.607-0.049-0.414-0.143-1.248-0.189-1.662-1.63 0.29-3.145 1.221-4.838 1.033-3.316-0.21-6.673-0.26-9.945 0.402-9.131 1.717-17.346 6.442-24.834 11.691-0.021 0.248-0.07 0.737-0.094 0.984 2.44-0.161 4.527-1.656 6.711-2.619 7.426-3.915 15.057-8.594 23.799-8.346 1.223-0.092 2.315 1.526 1.11 2.317-4.787 3.818-10.534 6.39-16.466 7.911-7.402 2.104-15.159 2.242-22.796 2.237-0.175 2.71 3.159 1.278 4.569 2.543 2.92 2.297 2.092 6.809 4.861 9.207 0.398 0.474 1.549 0.667 1.155 1.468-2.402 0.27-4.832-0.048-7.229 0.258l0.07 0.452c5.604 0.731 11.073 2.415 16.063 5.062 3.973 2.143 8.053 4.582 10.453 8.515 3.855 6.021 4.129 13.633 2.738 20.444-1.252 5.984-4.091 11.572-4.818 17.672 1.39-1.192 2.111-2.908 3.013-4.453 4.173-7.84 5.196-16.93 4.563-25.656-0.164-3.188-2.164-5.928-2.469-9.088 1.346-0.748 3.227-0.686 4.063-2.174 5.17-7.417 8.029-16.09 10.486-24.678 0.187-2.49 4.51-1.365 4.188-4.156-0.708-0.092-1.405-0.188-2.104-0.28 1.135-1.183 2.959-1.351 4.25-2.351-0.558-0.279-1.102-0.56-1.646-0.838 0.771-1.017 1.879-1.711 2.694-2.679-0.107-0.516-0.213-1.026-0.314-1.538 1.466-1.656 4.111-2.398 4.75-4.689-0.682-0.113-1.354-0.231-2.031-0.344 0.087-1.007 0.294-2.002 0.414-3.002-2.5 1.55-4.22 4-6.36 5.97m-3.7 72.77c-4.248 1.141-6.684 5.646-11.14 6.317-1.353 0.321-2.363-1.012-3.633-1.025-0.528 0.424-1.247 0.994-1.041 1.764 1.731 2.012 4.776 2.475 7.2 1.532 3.341-1.317 5.91-3.942 9.088-5.55 1.027-0.65 2.65-0.661 3.289-1.736 0.01-1.88-2.5-1.54-3.77-1.3z" fill="#F9ECE1"/>
<path d="m280.34 65.76c7.218 1.646 14.538 5.114 18.836 11.311 3.396 4.781 4.005 11.008 2.931 16.628-1.264 5.561-3.777 10.81-7.016 15.51 0.571-1.42 0.528-2.872 0.055-4.302 0.92-2.813 2.263-5.523 2.625-8.497 1.035-6.028 0.17-12.89-4.313-17.446-2.707-2.995-6.449-4.656-10.12-6.168-1.35-2.172-2.22-4.624-2.99-7.039z" fill="#FEE880"/>
<path d="m252.14 125.58c2.135-0.962 4.113-2.253 6.313-3.076 1.667 3.688 1.591 8.001 0.43 11.82-0.958 2.699-2.2 5.544-4.618 7.271-1.455 0.65-3.572 0.833-4.662-0.554-1.717-1.92-1.813-4.637-1.887-7.061 0.021-2.119-0.021-4.276 0.459-6.353 1.17-0.94 2.65-1.36 3.97-2.05m0.92 1.46c-0.796 2.5-0.94 5.216-0.332 7.766 0.313 1.469 2.555 1.711 3.396 0.564 1.854-2.286 2.348-5.377 2.211-8.232-0.833 0.123-1.649 0.393-2.494 0.354-1.021-0.167-0.964-1.345-1.323-2.065-0.83 0.17-1.3 0.87-1.47 1.62z" fill="#97D0A2"/>
<path d="m229.16 130.94c5.115 0.043 10.018-1.5 15.021-2.291 0.252 3.684-1.033 7.464 0.215 11.072 1.158 3.142 4.091 5.535 7.392 6.224-0.321 1.559-1.981 2.731-3.159 3.807-6.236-2.44-8.813-9.545-14.734-12.481-0.795-0.457-1.748-0.813-2.174-1.688-0.86-1.54-1.95-2.98-2.57-4.64z" fill="#F0ECEC"/>
<g id="_x23_000000ff">
	<path d="m133.1 10.723c8.514-5.861 18.482-9.922 28.903-10.604 3.208-0.054 6.558-0.479 9.614 0.742 10.529 3.684 21.369 6.518 32.373 8.412 12.387 2.199 25.072 3.236 37.624 1.94 2.712-0.377 5.436-0.812 8.056-1.635 5.855-2.302 11.946-4.082 18.184-5.022 6.242-1.06 12.604-1.033 18.924-0.941 7.07 0.183 14.199 1.264 21.238 0.063 6.436-0.091 12.396 3.007 17.647 6.399 7.528 5.168 14.142 11.923 18.21 20.097 3.159 7.696 3.824 16.226 7.691 23.662 1.735 3.453 4.316 6.486 7.494 8.733 1.685 0.91 0.795 3.188-0.283 4.222-0.457 0.586-1.166 0.21-1.611-0.156-4.663-3.845-9.042-8.045-13.818-11.75 1.058 8.201 1.862 16.601 0.217 24.786-2.135 13.482-9.529 25.842-19.656 35.004-2.396 1.883-5.59 2.21-8.241 3.625-0.108-0.242-0.326-0.721-0.438-0.963 3.473-2.582 7.641-4.781 9.527-8.879 1.454-2.544 1.063-5.534 1.084-8.331-1.23 1.049-2.119 2.41-3.209 3.587-5.643 6.201-13.197 10.535-21.229 12.971-5.086 1.222-10.315 2.399-15.584 1.979l-0.301-0.345c3.823-7.514 6.944-15.649 6.914-24.185-0.127-3.403-0.09-7.061-1.938-10.067-1.009-1.705-2.152-3.77-4.363-4.017-0.026 3.108 0.854 6.153 0.845 9.271 0.377 12.961-4.478 25.352-10.394 36.699-1.987 4.297-4.979 8.217-5.823 12.959-0.904 5.066-0.583 10.341 0.809 15.294 1.502 6.441 4.693 12.479 9.063 17.482 2.229 2.71 3.972 6.271 3.146 9.836-1.109 3.551-4.366 5.971-7.738 7.311-3.145 1.414-6.825 2.279-9.168 4.947-0.926 4.322 3.416 7.422 3.484 11.584 0.039 1.395-0.725 2.678-1.793 3.543-2.271 1.91-4.748 3.564-7.023 5.471-0.971 0.619-0.352 1.796-0.189 2.668 0.688 2.264 2.506 4.533 1.258 6.97-2.229 4.427-7.25 7.276-12.229 7.261 0.877 3.883 1.16 8.125-0.558 11.844-1.973 4.574-5.99 8.502-11.079 9.398-8.779 1.747-17.827-0.107-26.169-2.938-8.283-3.062-16.303-7.058-23.197-12.567-1.297-1.06-2.8-1.851-4.047-2.968-1.896-1.959-4.637-2.883-6.232-5.157-11.7-11.036-20.71-25.04-24.751-40.576-0.262-0.517-0.164-1.495-0.867-1.614-1.045 1.533-2.25 3.004-2.968 4.713 0.539 16.179 4.031 32.152 9.097 47.515 0.725 3.897 0.519 8.121-1.302 11.724-1.362 3.291-2.713 6.713-5.229 9.338-1.863 1.838-3.203 4.094-4.45 6.359-1.471 2.6-3.862 4.47-6.068 6.427-7.795 4.539-16.08 8.349-24.763 10.937-11.737 3.555-24.256 5.33-36.474 3.488-5.948-1.222-12.143-3.488-15.998-8.367-0.932-1.043-1.406-2.635-2.865-3.08-6.782-2.434-12.91-6.342-18.613-10.648-8.04-6.136-15.322-13.229-21.691-21.044-3.164-3.995-6.248-8.136-8.229-12.842-1.138-2.437-0.233-5.292-1.498-7.695-2.146-4.507-5.273-8.46-7.74-12.784-2.985-5.436-3.595-11.688-4.358-17.719-0.991-10.826 0.234-21.969 4.516-32.042 2.223-5.483 5.453-10.522 9.188-15.123 3.248-3.775 7.556-6.561 12.147-8.486 6.122-2.742 12.741-4.265 18.749-7.271 2.364-1.14 4.396-2.817 6.477-4.382 5.109-4.039 10.285-8.094 14.425-13.146 12.59-14.894 18.604-33.674 27.859-50.511 2.042-3.334 3.448-6.981 5.294-10.417 8.301-15.772 19.281-30.641 34.131-40.979m23.99-5.871c-11.412 1.705-21.576 7.948-29.977 15.53-7.812 6.964-14.26 15.316-19.599 24.249-9.729 16.193-16.379 33.918-24.854 50.735-3.906 7.823-8.352 15.461-14.098 22.124-3.683 4.398-7.854 8.357-11.968 12.353-5.082 4.878-10.851 9.277-17.589 11.659-3.568 1.382-7.518 1.232-11.105 2.57-5.416 1.99-10.002 5.803-13.428 10.353-6.771 8.89-10.464 20.022-10.312 31.148-0.043 13.159 5.333 25.89 13.318 36.258 3.524 4.534 7.609 8.61 11.75 12.585 8.264 7.221 19.338 9.523 29.557 12.744 2.974 1.15 6.209 1.822 8.966 3.42-3.933-0.402-7.8-1.307-11.733-1.73-4.531-0.469-9.048-1.166-13.455-2.34-5.551-1.549-10.464-4.792-14.642-8.65-1.22-1.118-2.304-2.396-3.683-3.342 0.496 1.979 1.537 3.768 2.637 5.465 3.878 5.867 8.71 11.072 14.01 15.716 8.628 7.479 18.842 13.528 30.15 15.972 9.592 2.15 19.865 1.217 28.854-2.748 0.785-0.382 2.587-0.994 2.564 0.432-1.736 2.383-4.242 4.131-6.879 5.438-6.58 3.129-14.097 3.081-21.232 2.866 4.842 2.983 10.458 4.463 16.031 5.444 10.697 1.533 21.723-0.19 31.681-4.222 8.912-3.698 17.083-9.503 22.748-17.306 4.548-6.143 7.293-13.541 7.871-21.131 0.157-2.715-0.985-5.242-1.722-7.797-0.566-1.686-0.941-3.429-1.611-5.065-0.463 0.672-0.6 1.483-0.801 2.259-1.602 5.563-4.473 10.688-7.68 15.494-5.051 7.366-11.168 14.271-18.94 18.913-4.097 2.44-9.472 3.946-13.95 1.592-0.637-0.479-1.835-0.802-1.874-1.688 8.351-1.783 15.72-6.494 21.87-12.226 6.041-5.598 12.207-11.519 15.35-19.257 2.834-6.954 4.031-14.795 2.418-22.18l-0.375-0.055c-4.4 10.59-11.646 19.797-19.757 27.873-5.976 5.707-12.42 11.072-19.801 14.937-2.979 1.532-6.222 2.858-9.647 2.721 0.252-0.43 0.557-0.827 0.91-1.178 8.514-7.362 17.279-14.46 25.346-22.317 7.578-7.367 14.746-15.424 19.375-24.97 0.295-0.624 0.475-1.296 0.644-1.963-11.036 12.122-20.235 26.353-34.339 35.364-5 3.432-10.943 5.106-16.805 6.471-3.922 0.768-7.959 1.518-11.963 0.993-1.023-0.253-2.457-0.365-2.908-1.468 0.785-0.92 1.678-1.866 2.859-2.254 1.432-0.125 2.881 0.021 4.319-0.125 4.26-0.473 8.188-2.278 12.3-3.352 1.334-0.363 2.702-0.709 3.868-1.467 8.377-5.731 15.927-12.573 22.817-19.977 7.522-8.223 14.3-17.066 21.408-25.642 2.695-2.976 2.488-7.188 3.682-10.788 0.419-1.807 1.988-3.285 1.722-5.232-0.202-6.104 0.812-12.194 2.783-17.973 4.712-13.367 14.31-24.872 26.304-32.536 1.4-0.945 2.998-1.603 4.244-2.759-0.855 0.07-1.629 0.441-2.359 0.851-1.611 0.973-3.572 0.735-5.365 1.026-6.606 0.683-12.963 3.056-18.574 6.534-11.684 7.282-20.035 18.887-25.385 31.293-0.135 0.155-0.414 0.463-0.549 0.612-0.6-2.512 0.004-5.045 0.436-7.522 0.561-4.974 3.023-9.54 5.959-13.535 7.566-10.037 19.016-16.361 30.602-20.855 3.623-1.656 7.682-0.506 11.494-1.104 13.236-1.527 25.395-7.824 36.065-15.438 4.995-3.786 10.195-7.685 13.355-13.198 5.564-9.447 6.022-20.727 10.328-30.664 2.569-5.846 7.287-10.879 13.397-13.143 0.854-0.452 2.021 0.316 1.81 1.285-1.597 1.316-3.465 2.291-4.957 3.742-4.869 4.352-8.597 10.363-9.113 16.913 2.871-1.543 5.666-3.231 8.718-4.415 11.198-4.512 23.353-7.561 35.521-6.378 5.685 0.679 11.588 2.996 14.971 7.771 2.932 4.2 5.77 8.518 7.789 13.229 1.705 4.066 2.205 8.755 0.664 12.95-2.338 6.555-7.021 11.891-10.955 17.532 3.179-1.915 6.652-3.216 10.188-4.329 3.479-1.012 6.28-3.389 8.938-5.717 4.75-4.459 8.679-10.188 9.576-16.715 0.551-6.195 0.086-12.53-1.879-18.461-2.457-7.104-7.144-13.639-13.75-17.506-7.865-4.679-17.529-5.593-26.445-4.017-3.854 0.495-7.613 2.049-11.559 1.586-0.953-0.118-2.07-0.489-2.513-1.397l0.169-0.441c3.252-2.124 7.188-2.775 10.859-3.904 9.633-2.845 20.443-2.872 29.597 1.586 8.985 4.254 15.508 12.477 19.081 21.522 3.771 9.519 4.957 19.989 3.841 30.127 0.157-0.199 0.47-0.597 0.626-0.791 7.866-19.291 6.166-42.474-5.726-59.829-4.079-6.201-10.101-11.48-17.479-13.342-7.863-2.038-16.035-0.333-23.728 1.592-2.595 0.581-5.091 1.635-7.753 1.844-1.684 0.167-3.379-0.968-3.947-2.517 3.383-2.55 7.682-3.479 11.7-4.636 8.19-1.715 16.712-2.086 24.989-0.801 8.598 1.483 17.076 5.221 22.922 11.777 1.63 1.629 2.677 3.7 4.193 5.416-2.123-7.196-7.599-13.176-14.424-16.365-10.296-4.969-22.182-5.303-33.381-4.189-4.368 0.199-8.672 0.99-12.926 1.931-7.094 1.597-13.732 4.625-20.254 7.724-0.745-0.727-1.829-1.787-1.229-2.904 2.483-2.055 5.447-3.459 8.372-4.809 9.92-4.199 20.781-5.47 31.452-6.232-2.446-1.426-5.371-1.808-8.16-1.932-8.046-0.408-15.835 1.904-23.592 3.62-3.747 0.704-7.224 2.361-10.987 2.985-13.552 2.564-27.476 2.607-41.169 1.345-8.797-0.894-17.778-1.92-25.923-5.545-9.17-3.701-19.28-5.53-29.16-4.06m98.61 62.86c-6.411 2.038-12.676 5.539-16.646 11.041-0.98 2.554-1.111 5.388-2.283 7.899-5.086 13.225-16.498 22.658-27.895 30.568-5.986 4.367-13.324 6.303-19.49 10.357-6.705 4.345-13.252 9.035-18.857 14.73-6.047 5.882-10.916 13.089-13.412 21.141-0.871 3.146-1.623 6.452-1.019 9.717 0.763 4.403 2.659 8.508 3.933 12.772 3.166 11.379 8.459 22.289 16.162 31.367 2.457 2.773 5.367 5.107 8.08 7.633 7.815 6.97 15.971 13.806 25.508 18.387 7.929 3.851 16.99 5.689 25.787 4.447 2.476-0.383 5.25-0.635 7.082-2.532 2.871-2.979 4.111-7.229 4.047-11.277-0.061-3.082-1.084-6.459-3.74-8.319-1.699-1.234-3.188-3.018-3.535-5.104-0.213-1.26 1.46-2.297 2.468-1.479 2.277 1.512 3.736 3.965 6.097 5.383 2.061 1.291 4.729 1.377 7.006 0.656 2.525-0.908 3.226-4.082 2.619-6.404-1.892-1.291-4.211 0.438-6.242 0.654-2.004 0.604-3.577-0.894-5.188-1.779-1.759-1.036-3.84-1.834-5.006-3.598-0.457-0.662-0.381-1.742-1.133-2.146-1.498 1.076-2.809 3.098-4.896 2.785-1.039-0.049-1.722-1.155-1.152-2.063 0.338-1.979 3.021-1.182 3.91-2.683 1.172-1.694 1.521-3.786 2.643-5.502 1.102 0.425 1.885 1.425 2.463 2.413 0.337 1.273-1.379 2.199-0.97 3.49 0.396 2.599 3.104 3.631 5.146 4.76 2.652 1.562 6.28 1.766 8.797-0.172 3.76-2.76 5.873-7.022 8.806-10.522-2.315-3.112-3.599-7.101-3.328-10.979 3.453-4.813 9.524-6.442 14.342-9.521 1.073-0.777 2.729-1.518 2.533-3.1 0.044-6.613-5.353-11.25-8.646-16.461-2.104-2.877-2.562-6.453-3.66-9.738-0.846-3.561-1.373-7.244-1.172-10.906 0.402-7.819 3.818-15.037 7.514-21.823 3.813-6.916 7.25-14.183 8.654-21.984 1.053-11.573-0.759-23.83-7.156-33.758-6.04-0.889-12.35-0.221-18.16 1.634m24.64-1.952c0.772 2.415 1.64 4.867 2.996 7.035 3.671 1.512 7.413 3.173 10.12 6.168 4.482 4.557 5.35 11.417 4.313 17.446-0.363 2.974-1.705 5.684-2.625 8.497 0.477 1.43 0.52 2.882-0.055 4.302 3.234-4.7 5.752-9.949 7.016-15.51 1.073-5.62 0.465-11.847-2.931-16.628-4.29-6.198-11.61-9.666-18.83-11.312z"/>
	<path d="m266.85 86.341c3.188-1.14 6.146 1.834 6.729 4.732 0.312 1.575 0.212 3.926-1.646 4.501-2.729 0.72-5.734-0.409-8.334 0.925-7.025 3.211-14.664 5.396-20.912 10.058-0.838 0.64-1.93 1.262-2.988 0.752-0.76-0.711 0.087-1.555 0.539-2.136 7.06-8.337 16.19-15.15 26.61-18.829m-9.4 8.32c4.26-1.382 8.46-3.168 13.003-3.42-0.464-0.452-0.979-0.894-1.656-0.958-4.27-0.871-8.32 1.651-11.34 4.378z"/>
	<path d="m268.92 112.01c2.135-1.974 3.855-4.421 6.385-5.953-0.121 1-0.328 1.994-0.414 3 0.676 0.113 1.353 0.231 2.03 0.344-0.637 2.291-3.284 3.033-4.75 4.69 0.104 0.511 0.207 1.022 0.316 1.538-0.817 0.969-1.923 1.662-2.696 2.678 0.545 0.28 1.089 0.561 1.646 0.84-1.291 1-3.115 1.166-4.25 2.35 0.696 0.092 1.396 0.188 2.104 0.279 0.321 2.791-4.004 1.668-4.188 4.158-2.457 8.588-5.316 17.263-10.485 24.679-0.839 1.488-2.718 1.425-4.063 2.172 0.308 3.162 2.305 5.898 2.469 9.088 0.634 8.729-0.394 17.816-4.563 25.658-0.897 1.543-1.623 3.259-3.012 4.453 0.729-6.102 3.565-11.688 4.817-17.672 1.393-6.813 1.117-14.424-2.738-20.446-2.4-3.933-6.48-6.373-10.451-8.515-4.99-2.646-10.459-4.329-16.063-5.062l-0.07-0.452c2.396-0.307 4.826 0.011 7.229-0.258 0.393-0.801-0.757-0.995-1.154-1.468-2.771-2.398-1.943-6.91-4.863-9.207-1.41-1.264-4.744 0.167-4.568-2.543 7.637 0.005 15.395-0.135 22.796-2.237 5.933-1.522 11.679-4.093 16.466-7.911 1.205-0.791 0.109-2.408-1.107-2.318-8.743-0.248-16.374 4.433-23.801 8.347-2.185 0.963-4.271 2.458-6.711 2.619 0.021-0.247 0.069-0.736 0.093-0.984 7.489-5.249 15.704-9.976 24.836-11.69 3.271-0.662 6.629-0.613 9.944-0.403 1.692 0.188 3.207-0.743 4.836-1.033 0.052 0.414 0.145 1.248 0.19 1.662 0.726 0.177 1.353-0.446 2.043-0.608 0.06 0.27 0.19 0.808 0.25 1.07 0.58-0.04 1.03-0.51 1.47-0.88m-16.78 13.57c-1.315 0.688-2.8 1.113-3.965 2.049-0.479 2.076-0.438 4.232-0.459 6.352 0.072 2.426 0.17 5.142 1.887 7.062 1.09 1.387 3.207 1.204 4.662 0.554 2.418-1.726 3.66-4.57 4.618-7.271 1.161-3.819 1.237-8.132-0.43-11.82-2.21 0.82-4.19 2.12-6.32 3.08m-22.98 5.36c0.621 1.662 1.705 3.098 2.561 4.641 0.426 0.876 1.379 1.23 2.174 1.689 5.922 2.936 8.498 10.04 14.734 12.48 1.178-1.075 2.838-2.248 3.159-3.807-3.301-0.689-6.231-3.082-7.392-6.223-1.248-3.608 0.037-7.39-0.215-11.074-5 0.79-9.9 2.34-15.02 2.29z"/>
	<path d="m253.06 127.04c0.174-0.748 0.647-1.447 1.454-1.614 0.359 0.722 0.306 1.898 1.323 2.065 0.844 0.037 1.661-0.23 2.494-0.355 0.137 2.856-0.354 5.948-2.211 8.233-0.84 1.146-3.083 0.903-3.396-0.563-0.6-2.55-0.45-5.27 0.35-7.77z"/>
	<path d="m265.22 184.78c1.266-0.242 3.78-0.587 3.766 1.302-0.639 1.075-2.262 1.086-3.288 1.736-3.179 1.604-5.747 4.229-9.089 5.55-2.424 0.94-5.469 0.479-7.199-1.532-0.206-0.77 0.513-1.34 1.041-1.764 1.271 0.017 2.281 1.35 3.633 1.025 4.46-0.67 6.9-5.18 11.14-6.32z"/>
</g>
<path stroke="#B29379" stroke-width="3" stroke-miterlimit="10" d="m257.45 94.661c3.018-2.728 7.07-5.249 11.347-4.378 0.677 0.064 1.193 0.506 1.656 0.958-4.55 0.252-8.75 2.036-13.01 3.42z" fill="#B29379"/>
<metadata><rdf:RDF><cc:Work><dc:format>image/svg+xml</dc:format><dc:type rdf:resource="http://purl.org/dc/dcmitype/StillImage"/><cc:license rdf:resource="http://creativecommons.org/licenses/publicdomain/"/><dc:publisher><cc:Agent rdf:about="http://openclipart.org/"><dc:title>Openclipart</dc:title></cc:Agent></dc:publisher></cc:Work><cc:License rdf:about="http://creativecommons.org/licenses/publicdomain/"><cc:permits rdf:resource="http://creativecommons.org/ns#Reproduction"/><cc:permits rdf:resource="http://creativecommons.org/ns#Distribution"/><cc:permits rdf:resource="http://creativecommons.org/ns#DerivativeWorks"/></cc:License></rdf:RDF></metadata></svg>
