<?xml version="1.0" encoding="UTF-8" standalone="no"?>
<!-- Created with Inkscape (http://www.inkscape.org/) -->

<svg
   xmlns:dc="http://purl.org/dc/elements/1.1/"
   xmlns:cc="http://creativecommons.org/ns#"
   xmlns:rdf="http://www.w3.org/1999/02/22-rdf-syntax-ns#"
   xmlns:svg="http://www.w3.org/2000/svg"
   xmlns="http://www.w3.org/2000/svg"
   xmlns:xlink="http://www.w3.org/1999/xlink"
   xmlns:sodipodi="http://sodipodi.sourceforge.net/DTD/sodipodi-0.dtd"
   xmlns:inkscape="http://www.inkscape.org/namespaces/inkscape"
   width="94.015869"
   height="354.33392"
   id="svg4307"
   version="1.1"
   inkscape:version="0.48.4 r9939"
   sodipodi:docname="girlwriting.svg">
  <defs
     id="defs3">
    <radialGradient
       inkscape:collect="always"
       xlink:href="#linearGradient4541"
       id="radialGradient4131"
       gradientUnits="userSpaceOnUse"
       gradientTransform="matrix(0.9445803,0,0,1.1194487,-121.57709,-244.98759)"
       cx="-848.03162"
       cy="-303.86343"
       fx="-848.03162"
       fy="-303.86343"
       r="334.46259" />
    <linearGradient
       id="linearGradient4541">
      <stop
         id="stop4545"
         offset="0"
         style="stop-color:#583506;stop-opacity:1;" />
      <stop
         style="stop-color:#d7bc51;stop-opacity:1;"
         offset="0.89112663"
         id="stop3260" />
      <stop
         id="stop4543"
         offset="1"
         style="stop-color:#ffe680;stop-opacity:1" />
    </linearGradient>
    <radialGradient
       inkscape:collect="always"
       xlink:href="#linearGradient4717"
       id="radialGradient4133"
       gradientUnits="userSpaceOnUse"
       gradientTransform="matrix(0.9837402,0,0,0.58266608,-83.6024,-195.20651)"
       cx="-679.20471"
       cy="-4.1236963"
       fx="-679.20471"
       fy="-4.1236963"
       r="268.51587" />
    <linearGradient
       inkscape:collect="always"
       id="linearGradient4717">
      <stop
         id="stop4721"
         offset="0"
         style="stop-color:#ffffff;stop-opacity:1" />
      <stop
         id="stop4719"
         offset="1"
         style="stop-color:#e9c6af;stop-opacity:1;" />
    </linearGradient>
    <linearGradient
       inkscape:collect="always"
       xlink:href="#linearGradient4425"
       id="linearGradient4135"
       gradientUnits="userSpaceOnUse"
       gradientTransform="matrix(1.0834009,0,0,1.0105243,-5272.8811,-1272.595)"
       x1="3857.9043"
       y1="1159.5977"
       x2="3856.7864"
       y2="1405.5702" />
    <linearGradient
       inkscape:collect="always"
       id="linearGradient4425">
      <stop
         style="stop-color:#e6e6e6;stop-opacity:1"
         offset="0"
         id="stop4427" />
      <stop
         style="stop-color:#999999;stop-opacity:1"
         offset="1"
         id="stop4429" />
    </linearGradient>
    <radialGradient
       inkscape:collect="always"
       xlink:href="#linearGradient4717"
       id="radialGradient4137"
       gradientUnits="userSpaceOnUse"
       gradientTransform="matrix(-0.82665391,0,0,1.2105727,-646.43456,-136.98418)"
       cx="287.54718"
       cy="-527.51715"
       fx="287.54718"
       fy="-527.51715"
       r="293.20773" />
    <linearGradient
       inkscape:collect="always"
       xlink:href="#linearGradient4556"
       id="linearGradient4139"
       gradientUnits="userSpaceOnUse"
       gradientTransform="matrix(-0.82665391,0,0,0.78304069,-596.15702,-338.65279)"
       x1="111.23309"
       y1="-594.14624"
       x2="72.430847"
       y2="-595.43964" />
    <linearGradient
       inkscape:collect="always"
       id="linearGradient4556">
      <stop
         style="stop-color:#a95f2f;stop-opacity:1"
         offset="0"
         id="stop4558" />
      <stop
         style="stop-color:#e9c6af;stop-opacity:0;"
         offset="1"
         id="stop4560" />
    </linearGradient>
    <linearGradient
       inkscape:collect="always"
       xlink:href="#linearGradient4556"
       id="linearGradient11213"
       gradientUnits="userSpaceOnUse"
       gradientTransform="matrix(-0.82665391,0,0,0.78304069,-596.15702,-338.65279)"
       x1="111.23309"
       y1="-594.14624"
       x2="72.430847"
       y2="-595.43964" />
    <radialGradient
       inkscape:collect="always"
       xlink:href="#linearGradient4717"
       id="radialGradient11221"
       gradientUnits="userSpaceOnUse"
       gradientTransform="matrix(-0.82665391,0,0,1.2105727,-646.43456,-136.98418)"
       cx="287.54718"
       cy="-527.51715"
       fx="287.54718"
       fy="-527.51715"
       r="293.20773" />
    <linearGradient
       inkscape:collect="always"
       xlink:href="#linearGradient4425"
       id="linearGradient11225"
       gradientUnits="userSpaceOnUse"
       gradientTransform="matrix(1.0834009,0,0,1.0105243,-5272.8811,-1272.595)"
       x1="3857.9043"
       y1="1159.5977"
       x2="3856.7864"
       y2="1405.5702" />
    <radialGradient
       inkscape:collect="always"
       xlink:href="#linearGradient4717"
       id="radialGradient11228"
       gradientUnits="userSpaceOnUse"
       gradientTransform="matrix(0.9837402,0,0,0.58266608,-83.6024,-195.20651)"
       cx="-679.20471"
       cy="-4.1236963"
       fx="-679.20471"
       fy="-4.1236963"
       r="268.51587" />
    <radialGradient
       inkscape:collect="always"
       xlink:href="#linearGradient4541"
       id="radialGradient11242"
       gradientUnits="userSpaceOnUse"
       gradientTransform="matrix(0.9445803,0,0,1.1194487,-121.57709,-244.98759)"
       cx="-848.03162"
       cy="-303.86343"
       fx="-848.03162"
       fy="-303.86343"
       r="334.46259" />
  </defs>
  <sodipodi:namedview
     inkscape:document-units="mm"
     id="base"
     pagecolor="#ffffff"
     bordercolor="#666666"
     borderopacity="1.0"
     inkscape:pageopacity="0.0"
     inkscape:pageshadow="2"
     inkscape:zoom="1.7519531"
     inkscape:cx="98.731808"
     inkscape:cy="112.57548"
     inkscape:current-layer="g4184"
     showgrid="false"
     units="mm"
     fit-margin-top="0"
     fit-margin-left="0"
     fit-margin-right="0"
     fit-margin-bottom="0"
     inkscape:window-width="1855"
     inkscape:window-height="1056"
     inkscape:window-x="65"
     inkscape:window-y="24"
     inkscape:window-maximized="1" />
  <g
     inkscape:label="Layer 1"
     inkscape:groupmode="layer"
     id="layer1"
     transform="translate(-21.673281,-535.3203)">
    <g
       transform="matrix(0.10325022,0,0,0.10325022,162.0839,659.49765)"
       style="display:inline"
       id="g4184">
      <path
         sodipodi:nodetypes="ccssssssc"
         inkscape:connector-curvature="0"
         id="path4485"
         d="m -676.24669,-1023.2497 c 92.20087,139.87352 101.01195,704.6757 44.4709,768.82932 -27.88318,84.24065 -141.41096,-51.50197 -216.34715,-46.34438 -74.93627,5.15759 -29.122,-51.56571 -88.37391,-12.02418 -59.25187,39.54153 -14.75258,18.88823 -80.97545,27.48421 -72.7528,9.44363 -212.6718,-28.181 -174.5879,36.01646 34.9976,58.99498 123.1608,-253.79009 16.8449,-548.3094 -15.6108,-43.24539 79.4627,-187.13013 225.88412,-222.80273 146.42145,-35.6726 273.08449,-2.8493 273.08449,-2.8493 z"
         style="color:#000000;fill:url(#radialGradient11242);stroke:#000000;stroke-width:6;stroke-linecap:butt;stroke-linejoin:miter;stroke-miterlimit:4;stroke-opacity:1;stroke-dasharray:none;stroke-dashoffset:0;marker:none;visibility:visible;display:inline;overflow:visible;enable-background:accumulate" />
      <path
         inkscape:connector-curvature="0"
         id="path4453"
         d="m -906.44107,1872.2523 c 0,0 13.81854,63.2658 25.33395,85.0817 11.51539,21.8157 48.36484,28.3605 13.81854,54.5393 -34.54631,26.1789 -110.54814,58.9026 -135.88212,58.9026 -25.3339,0 -140.4881,-4.3632 -131.2759,-15.271 9.2125,-10.9079 62.1834,-61.0842 82.9112,-89.4447 20.7277,-28.3604 25.3339,-23.9973 25.3339,-43.6315 0,-19.6342 -20.7277,-52.3579 -20.7277,-52.3579 l 142.79127,-23.9974 z"
         style="color:#000000;fill:#eac8b2;fill-opacity:1;fill-rule:nonzero;stroke:#000000;stroke-width:6;stroke-linecap:butt;stroke-linejoin:miter;stroke-miterlimit:4;stroke-opacity:1;stroke-dasharray:none;stroke-dashoffset:0;marker:none;visibility:visible;display:inline;overflow:visible;enable-background:accumulate" />
      <path
         sodipodi:nodetypes="cscccscc"
         inkscape:connector-curvature="0"
         id="path4455"
         d="m -768.25595,1883.1602 c 0,0 -12.68349,70.9483 -12.68349,94.9456 0,23.9974 24.19889,70.8544 24.19889,70.8544 l 117.45736,28.3605 92.12341,-13.0895 c 0,0 -41.45553,-54.5393 -76.00173,-93.8078 -34.5463,-39.2684 -34.5463,-106.8973 -34.5463,-106.8973 z"
         style="color:#000000;fill:#eac8b2;fill-opacity:1;stroke:#000000;stroke-width:6;stroke-linecap:butt;stroke-linejoin:miter;stroke-miterlimit:4;stroke-opacity:1;stroke-dasharray:none;stroke-dashoffset:0;marker:none;visibility:visible;display:inline;overflow:visible;enable-background:accumulate" />
      <path
         sodipodi:nodetypes="ccssssssscsssssc"
         inkscape:connector-curvature="0"
         id="path4441"
         d="m -1120.294,506.61768 c 237.5122,33.09595 503.0546,-63.35387 562.00442,-95.97411 2.13345,-3.36818 81.30556,193.12938 52.58543,359.91205 -23.80161,138.21973 -78.30497,554.12078 -99.03273,689.37868 -20.72777,135.2577 -20.72777,377.4129 -16.12159,416.6812 4.60618,39.2684 4.60618,43.6315 -66.78947,41.45 -71.39565,-2.1816 -128.97276,19.6343 -133.57894,-39.2683 -4.60617,-58.9027 -2.30314,-274.8788 0,-346.8709 2.30305,-71.992 19.28716,-392.9532 3.16548,-482.3979 -16.12158,-89.4447 -23.46201,-152.02357 -23.46201,-152.02357 0,0 -69.3769,277.05117 -78.58927,407.94577 -9.21236,130.8948 52.8241,523.1702 43.61173,547.1676 -9.21236,23.9973 -181.94375,76.3552 -200.36835,47.9947 -18.4247,-28.3606 -117.4573,-565.0286 -108.245,-623.9312 9.2122,-58.9026 53.7745,-402.44203 66.7895,-475.5839 12.4818,-70.14539 29.8874,-300.7457 -1.9692,-294.48012 z"
         style="color:#000000;fill:#334966;fill-opacity:1;stroke:#000000;stroke-width:6;stroke-linecap:butt;stroke-linejoin:miter;stroke-miterlimit:4;stroke-opacity:1;stroke-dasharray:none;stroke-dashoffset:0;marker:none;visibility:visible;display:inline;overflow:visible;enable-background:accumulate" />
      <path
         inkscape:connector-curvature="0"
         id="path4421"
         d="m -988.20858,-417.93492 c 0,0 16.40028,52.81913 -6.56016,65.24716 -22.96046,12.42804 -45.92086,17.08854 -45.92086,17.08854 l 154.16287,177.09948 103.32188,-59.03316 27.88054,-142.92237 c 0,0 -21.32039,13.98153 -45.92086,-29.51658 -24.60046,-43.49813 -34.44059,-68.35419 -34.44059,-68.35419 z"
         style="color:#000000;fill:#eac8b2;fill-opacity:1;stroke:#000000;stroke-width:6;stroke-linecap:butt;stroke-linejoin:miter;stroke-miterlimit:4;stroke-opacity:1;stroke-dasharray:none;stroke-dashoffset:0;marker:none;visibility:visible;display:inline;overflow:visible;enable-background:accumulate" />
      <path
         id="path4584"
         d="m -835.69149,-458.31516 -152.51042,40.39483 c 0,0 11.84639,38.12239 1.32195,57.21064 l 7.71616,2.58232 c 19.21382,23.48368 42.70338,70.47436 85.40095,49.12553 42.69757,-21.34878 46.95952,-66.19087 87.52218,-51.24672 34.22157,12.60798 45.62017,13.07857 48.35693,12.91159 l 0.3689,-1.906 -1.96748,-9.6222 c -7.36732,1.76262 -23.68511,0.88112 -41.77826,-31.11079 -24.60039,-43.49813 -34.43081,-68.3392 -34.43091,-68.3392 z"
         style="color:#000000;fill:#dfae8e;fill-opacity:1;fill-rule:nonzero;stroke:none;stroke-width:6;marker:none;visibility:visible;display:inline;overflow:visible;enable-background:accumulate"
         inkscape:connector-curvature="0" />
      <path
         sodipodi:nodetypes="cssscc"
         inkscape:connector-curvature="0"
         id="path4437"
         d="m -1281.8155,-26.018475 c 0,0 -15.3847,45.474866 -2.5642,107.485982 12.8207,62.011123 44.8722,59.255073 78.2057,30.316553 33.3336,-28.938529 117.9495,9.64614 93.5904,-55.121021 -24.359,-64.767251 -111.5392,-115.754201 -111.5392,-115.754201 z"
         style="color:#000000;fill:#e2b293;fill-opacity:1;stroke:#000000;stroke-width:6;stroke-linecap:butt;stroke-linejoin:miter;stroke-miterlimit:4;stroke-opacity:1;stroke-dasharray:none;stroke-dashoffset:0;marker:none;visibility:visible;display:inline;overflow:visible;enable-background:accumulate" />
      <path
         inkscape:connector-curvature="0"
         d="m -1093.0583,570.63947 4.0477,-64.41352 m 105.2399,6.90145 2.42862,76.68276 m 348.10137,-150.29823 27.52429,72.08181 m -164.33618,-29.13945 21.04798,79.75008"
         style="color:#000000;fill:none;stroke:#000000;stroke-width:6;stroke-linecap:butt;stroke-linejoin:miter;stroke-miterlimit:4;stroke-opacity:1;stroke-dasharray:none;stroke-dashoffset:0;marker:none;visibility:visible;display:inline;overflow:visible;enable-background:accumulate"
         id="path4493" />
      <path
         transform="matrix(0.97234005,0,0,0.97504875,-2423.5437,-1281.0538)"
         d="m 1912.9375,1744 c -2.6772,1.4191 -5.7049,2.9396 -9,4.5312 3.9295,6.9745 8.797,13.5001 11.25,18.4063 5.0854,10.1708 4.8195,20.3889 8.6563,28.0625 4.2465,8.4928 9.5263,15.3327 14.5,22.1875 -0.1559,-0.5436 -0.3131,-1.211 -0.4688,-1.75 -6.6228,-22.9324 -13.0936,-41.7805 -18.0312,-54.8125 -2.4689,-6.516 -4.5423,-11.5754 -6.0626,-14.9375 -0.3514,-0.7772 -0.5589,-1.1015 -0.8437,-1.6875 z m -556.75,97.8438 c 1.0728,2.3245 2.0115,4.8894 2.8437,7.8124 2.2111,7.7659 3.7255,17.7924 4.75,29.5938 2.0491,23.6027 2.0777,54.2396 0.9063,86.5938 -2.3429,64.7082 -9.5168,136.0281 -15.6563,170.5312 -6.5638,36.8877 -21.2313,142.9171 -35.375,247 -14.1436,104.0829 -27.7865,206.2683 -32.5,236.4062 -1.0149,6.4891 -0.5708,21.6835 1.3126,42.2813 1.8833,20.5978 5.1113,46.8766 9.3124,76.8437 8.4023,59.9343 20.6816,134.6155 33.8438,208.3126 13.1622,73.697 27.2133,146.431 39.125,202.5 5.9558,28.0344 11.3708,51.8898 15.875,69.5937 2.2521,8.8519 4.2733,16.1805 6,21.6563 1.7267,5.4757 3.3584,9.2792 3.9688,10.2187 1.5945,2.4544 6.1452,4.8055 13.5937,5.8437 7.4485,1.0383 17.3878,0.8865 28.6875,-0.3124 9.1218,-0.9679 19.2478,-2.7262 29.6562,-4.8438 -2.7924,-0.9348 -7.9534,-2.6836 -13.2187,-4.7188 -2.7754,-1.0727 -5.5027,-2.1917 -7.8125,-3.2812 -2.3098,-1.0895 -4.0609,-1.8734 -5.7188,-3.5312 -2.0403,-2.0403 -1.9795,-4.3467 -1.875,-6.125 0.1046,-1.7784 0.4663,-3.4557 0.7813,-5.0313 0.315,-1.5756 0.5721,-3.0373 0.625,-3.9375 0.013,-0.2138 0.015,-0.2074 0,-0.3125 -1.6246,-1.335 -7.5512,-4.2026 -13.2813,-6.375 -3.0046,-1.1391 -5.9512,-2.2044 -8.375,-3.1563 -1.2118,-0.4759 -2.2739,-0.9235 -3.2187,-1.375 -0.9448,-0.4514 -1.6848,-0.7159 -2.75,-1.7812 -1.6725,-1.6725 -2.2885,-4.4664 -1.8125,-6.5 0.476,-2.0336 1.4982,-3.5819 2.6875,-5.0625 2.3786,-2.9612 5.6707,-5.7481 8.875,-8.5 3.2043,-2.7519 6.3287,-5.4349 8,-7.4063 0.585,-0.6899 0.6988,-0.9887 0.875,-1.3124 -9.2316,-8.9737 -18.8816,-14.119 -26.9375,-21.0313 -8.2899,-7.1131 -14.4688,-16.7563 -14.4688,-32.9063 0,-4.9121 2.4671,-8.8954 5.25,-12.0624 2.783,-3.1671 6.0013,-5.8315 8.6563,-8.5 2.655,-2.6686 4.6555,-5.2523 5.4687,-8 0.8133,-2.7478 0.7453,-5.8846 -1.6562,-10.6876 -22.6825,-45.3649 -17.6258,-95.7515 -38.875,-138.25 -3.3147,-6.6294 -3.4158,-14.0836 -3.6562,-21.0312 -0.2405,-6.9476 -0.6157,-13.3876 -2.8438,-17.8438 -9.7035,-19.407 -11.014,-43.6529 -19.4375,-60.5 -8.7904,-17.5808 -18.2155,-35.7371 -24.0625,-59.125 -1.9513,-7.8051 -3.1157,-23.9389 -3.9688,-45.0937 -0.853,-21.1548 -1.2338,-46.9387 -1.125,-72.4687 0.1089,-25.5301 0.7259,-50.8074 1.9063,-70.9376 0.5902,-10.065 1.2951,-18.8381 2.1875,-25.7812 0.8924,-6.9431 1.7206,-11.7848 3.4688,-15.2812 2.2806,-4.5613 3.3074,-14.7039 2.9374,-27.0938 -0.3699,-12.3899 -1.8467,-27.1422 -3.3437,-41.9688 -1.497,-14.8265 -3.0277,-29.7184 -3.4063,-42.5624 -0.3785,-12.8441 0.1075,-23.5273 3.8126,-30.9376 2.0072,-4.0144 3.5897,-11.8135 4.625,-21.0624 1.0352,-9.249 1.6604,-20.0402 2.375,-30.6876 0.7145,-10.6473 1.5201,-21.1341 3.0312,-30 1.5111,-8.8658 3.3756,-16.1568 8,-20.7812 -0.646,0.646 -0.2661,0.4836 -0.25,-0.5312 0.016,-1.0149 -0.1366,-2.5829 -0.375,-4.2813 -0.2384,-1.6984 -0.5542,-3.5121 -0.7188,-5.3125 -0.1645,-1.8004 -0.3149,-3.5237 0.375,-5.5938 4.8262,-14.4784 4.2282,-34.4563 11.0313,-48.0624 5.0345,-10.0692 10.4741,-16.4905 12.625,-25.0938 1.2431,-4.9726 0.5855,-11.0081 0.062,-17.4688 -0.523,-6.4606 -0.8903,-13.5008 2.4062,-20.0937 3.8767,-7.7535 3.0127,-26.5176 1.0313,-45.8125 -1.9814,-19.2949 -4.7374,-39.1446 -1.3437,-52.7188 15.8845,-63.5383 15.3095,-131.4226 6.4374,-197.2187 a 3.9880463,3.9880463 0 0 1 3.0313,-4.4063 c 0.019,-0.4166 0.015,-0.8735 0.031,-1.2812 0.094,-2.3269 0.1737,-4.4627 0.094,-5.9375 -0.08,-1.4748 -0.7557,-2.0994 0.125,-1.2187 -6.1252,-6.1251 -6.7715,-14.6938 -4.1875,-22.5938 1.9237,-5.8813 5.4307,-11.7464 9.75,-17.4375 -6.0729,-0.561 -12.1373,-1.2524 -18.1875,-1.9687 z m 603.4687,68.5312 c -0.063,9.0231 -0.1709,17.8434 -0.062,24.5 0.057,3.5194 0.1744,6.4823 0.375,8.5312 0.1002,1.0245 0.2135,1.827 0.3124,2.25 0.099,0.4231 0.475,0.475 -0.4687,-0.4687 1.7448,1.7448 3.0965,4.0199 4.7187,7.0625 0.4925,0.9237 0.9944,2.2453 1.5,3.2812 -1.7201,-15.4445 -3.8606,-30.5298 -6.375,-45.1562 z m 9.3126,148.8125 c -5.1264,6.9276 -10.5847,17.2154 -15.375,27.1563 -2.9981,6.2216 -5.7996,12.2582 -8.3126,17.25 -2.2969,4.5627 -4.1562,7.9976 -6.4374,10.5624 -0.028,0.1532 -0.069,0.4263 -0.094,0.875 -0.056,1.0244 -0.029,2.554 0.062,4.125 0.1823,3.1421 0.5937,6.0793 0.5937,8.125 0,1.3451 -0.2292,2.0676 -0.4687,3.2188 -0.02,0.097 -0.042,0.2137 -0.062,0.3125 a 3.9880463,3.9880463 0 0 1 4.7188,4.0313 c -0.046,1.5974 0.1211,6.7466 0.25,11.3437 0.064,2.2985 0.1043,4.5065 0.094,6.25 -0.01,0.8717 -0.011,1.6327 -0.062,2.3125 -0.026,0.3399 -0.046,0.6525 -0.125,1.0625 -0.079,0.41 0.3219,0.8028 -1.2188,2.3437 -1.8725,1.8725 -2.9662,5.383 -3.8437,9.9376 -0.8775,4.5545 -1.541,9.9258 -4.0625,14.9687 -11.0784,22.157 -14.3327,48.6441 -17.6562,75.8125 -3.3236,27.1684 -6.7277,55.0177 -19.0626,79.6875 -1.332,2.6639 -1.7534,10.3899 -1.2187,18.1875 0.5347,7.7976 1.6563,15.7038 1.6563,21.0938 0,22.7622 2.975,56.4813 -4.5313,79 -6.0384,18.1153 -3.0665,44.2072 0.1875,70.625 1.4796,12.0122 2.9166,24.0183 3.5,35.5937 23.6959,-171.1926 51.0515,-369.9267 66.4062,-459.0937 2.5362,-14.728 4.0784,-29.7199 5.0626,-44.7813 z m -344.0938,152.4063 c -0.2027,0.6076 -0.3995,1.2638 -0.5625,1.8437 -0.1012,0.3598 -0.1646,0.6711 -0.2813,1.0313 -0.058,0.18 -0.1363,0.3597 -0.25,0.625 -0.1136,0.2652 -0.1061,0.5749 -0.9374,1.4062 -0.956,0.9558 -1.4814,1.0356 -1.9688,1.2188 -0.4874,0.1831 -0.9168,0.2908 -1.375,0.4062 -0.9163,0.2307 -1.907,0.4436 -2.875,0.625 -0.968,0.1814 -1.9045,0.3483 -2.625,0.5 -0.7205,0.1517 -1.4269,0.4479 -0.8438,0.1562 -2.3713,1.1857 -6.8992,6.3043 -10.6562,12.125 -3.757,5.8208 -7.1391,12.2783 -9.1562,16.3126 -1.0605,2.1208 -1.0337,6.2276 -0.6876,10.9374 0.3462,4.7099 1.0218,10.0191 -1.4687,15 -5.6353,11.2707 -14.1014,21.734 -19.4375,32.4063 -0.1511,0.3023 -0.7783,2.4564 -1.1875,5.3437 -0.4092,2.8874 -0.7586,6.6598 -1.0625,10.9688 -0.6079,8.6181 -1.0294,19.4616 -1.5625,30.5312 -0.5331,11.0697 -1.1685,22.3526 -2.1875,32 -1.019,9.6475 -2.2001,17.4315 -4.8125,22.6563 -4.1548,8.3096 -2.6786,26.6328 -0.5937,45.1563 2.0848,18.5234 4.7554,37.2702 -1.5626,49.9062 -2.9426,5.8853 -2.0343,15.1872 -0.4374,25.2812 0.081,0.5151 0.166,1.0444 0.25,1.5626 23.759,-136.3367 64,-296.875 64,-296.875 l 3.875,0.9687 0,4 c 0,0 2.1805,-0.1402 3.8124,2.3125 -0.029,-4.9511 -0.1678,-9.6839 -0.6874,-13.875 -0.7908,-6.3779 -2.4278,-11.3388 -4.7188,-14.5312 z m 17.1875,103.3437 c 2.0069,12.8293 4.4625,27.1398 7.0313,42.25 0.041,-0.6524 0.02,-1.1888 0.062,-1.8437 0.422,-6.5621 0.8755,-13.1796 0.9063,-18.6563 0.031,-5.4767 -0.6622,-10.0119 -1.1875,-11.0625 -2.1389,-4.2778 -4.4418,-7.447 -6.8125,-10.6875 z m 13.2813,80.4687 c 7.1723,49.4687 6.8037,147.6663 4.375,244.7813 -2.5544,102.1352 -7.4272,202.0635 -8.5938,238.5313 -0.6717,20.9948 -1.3116,55.1263 -1.8125,93.125 -0.039,-0.6105 -0,-1.2982 0.1875,-2.125 0.1618,-0.6992 0.5919,-1.5284 1.25,-2.2813 -0.037,-1.2428 -0.1251,-2.9803 -0.2188,-4.7813 -0.096,-1.8479 -0.1761,-3.7473 -0.1874,-5.3437 -0.01,-0.7982 -0,-1.509 0.062,-2.2187 0.032,-0.3549 0.076,-0.6951 0.1876,-1.1563 0.1116,-0.4612 0.07,-1.0699 1.1874,-2.1875 2.1275,-2.1276 4.2429,-2.0397 5.5,-2.2188 0.5623,-0.08 0.8622,-0.1856 1.0626,-0.25 -0.013,-0.045 0.1238,-0.2054 0.3437,-1.1562 0.2794,-1.208 0.5091,-2.9841 0.625,-5.0625 0.2319,-4.1569 0.076,-9.585 -0.25,-15.125 -0.6514,-11.0799 -2,-22.2718 -2,-27.375 0,-11.484 2.9004,-20.7779 5.5937,-30 2.6614,-9.1125 5.128,-18.2151 5.1876,-30.0625 -0.058,-0.1843 -0.1199,-0.3619 -0.2188,-0.6562 -0.274,-0.816 -0.65,-1.9872 -1.125,-3.375 -0.9501,-2.7757 -2.2031,-6.463 -3.3125,-10.2813 -1.1094,-3.8183 -2.1053,-7.7574 -2.5625,-11.2813 -0.2286,-1.7619 -0.3182,-3.4013 -0.1562,-5.0312 0.1619,-1.6299 0.5198,-3.4262 2.0937,-5 2.8539,-2.8539 6.2374,-3.3702 9.2813,-4.25 3.0438,-0.8798 5.7481,-2.1231 5.8437,-2.2188 0.42,-0.4199 0.5112,-0.5714 0.1563,-2.125 -0.355,-1.5535 -1.4433,-3.9171 -2.8438,-6.4374 -1.4005,-2.5204 -3.0754,-5.2183 -4.4688,-7.9688 -1.3933,-2.7505 -2.6562,-5.5194 -2.6562,-8.75 l 0,-213.8438 c 0,-16.3532 -0.9554,-56.7491 -3.5938,-94.5624 -1.3191,-18.9067 -3.0644,-37.1841 -5.2812,-51.4376 -1.1084,-7.1267 -2.3428,-13.2736 -3.6562,-17.875 z m -108.3126,210.2188 c -2.1021,2.2382 -6.6145,9.4543 -11.1562,19.0625 -4.6567,9.8515 -9.6536,22.2748 -13.8125,35.1875 -4.1589,12.9127 -7.4689,26.3304 -8.8437,38.125 -1.3749,11.7946 -0.6455,21.9277 2.375,27.9688 1.3014,2.6027 8.9028,16.2899 16.2812,29.2187 3.6892,6.4644 7.3514,12.8138 10.25,17.6875 1.4493,2.4369 2.7051,4.5279 3.6562,6.0312 0.3935,0.6219 0.3077,0.4691 0.625,0.9063 -3.9799,-52.7842 -6.0266,-99.8143 -3.7812,-131.7187 0.903,-12.8299 2.4993,-27.3175 4.4062,-42.4688 z m 343.6876,6.1875 c -10.3638,35.8332 -14.8571,75.4328 -31.6876,109.0937 -5.7787,11.5575 -7.9401,26.2245 -10.1562,41.4688 -2.2161,15.2443 -4.5031,31.0686 -11.4375,44.9375 -0.9204,1.8407 -2.1242,9.2219 -2.4375,18.375 -0.3133,9.1531 -0.1113,20.4565 0.3125,31.9063 0.8476,22.8994 2.5625,46.2357 2.5625,55.9374 0,2.7385 -0.6451,7.6109 -0.9375,12.625 -0.1462,2.5071 -0.1912,4.9541 -0.094,6.7188 0.049,0.8823 0.1346,1.6022 0.2187,1.9688 0.084,0.3665 0.2978,0.2977 -0.375,-0.375 1.4397,1.4397 1.3775,2.1084 1.7187,3.125 0.3413,1.0165 0.6608,2.2226 1,3.6562 0.6786,2.8672 1.4027,6.6537 2.1876,11.2188 1.5697,9.1301 3.3143,21.3031 4.9687,34.5937 0.2908,2.3362 0.4979,4.8563 0.7813,7.25 2.8081,-67.2138 7.7559,-136.2844 15.9062,-189.4687 6.4457,-42.061 16.4621,-113.7201 27.4688,-193.0313 z m -333.3438,287.25 c -0.045,0.6762 -0.079,1.324 -0.125,2 -1.098,16.2035 -2.2845,32.2799 -2.9062,44.5313 -0.3109,6.1256 -0.466,11.3011 -0.4063,14.9687 0.03,1.8338 0.098,3.2892 0.2187,4.1875 0.1209,0.8983 0.9216,1.3278 -0.4374,-0.031 5.7469,5.7469 8.6777,14.6378 10.5624,24.7187 1.8848,10.0809 2.57,21.4381 2.6876,32.2187 0.1175,10.7807 -0.342,20.9726 -0.75,28.5 -0.2041,3.7638 -0.3895,6.8527 -0.5,9 -0.044,0.8504 -0.05,1.4046 -0.063,1.9063 5.3687,5.6673 9.1376,11.6769 11.75,18 -5.3822,-47.8852 -11.9706,-103.8978 -18.1562,-161.4375 -0.6689,-6.2219 -1.2213,-12.3389 -1.875,-18.5625 z m 91.9375,72.9687 c -0.2983,22.663 -0.5113,46.6476 -0.6563,71.1876 0.976,-11.8952 1.9376,-23.3695 1.9376,-32.5 l 0,-32.4063 c 0,-0.1108 -0.5595,-2.3959 -1,-4.5937 -0.1063,-0.5304 -0.2273,-1.0782 -0.2813,-1.6876 z m 195.3437,121.8126 c -1.7208,2.4791 -3.5838,5.1606 -5.5312,8.0937 -4.7351,7.1318 -9.6294,14.9775 -10.3438,16.4063 -1.2487,2.4975 -1.1632,4.8596 -0.2187,7.9687 0.9445,3.1091 2.845,6.6736 4.7187,10.4375 1.8738,3.7639 3.7892,7.7741 4.2188,12.2812 0.4296,4.5072 -1.0694,9.507 -5.125,13.5626 -2.1096,2.1096 -4.3123,2.2939 -6.5312,2.5312 -2.219,0.2373 -4.6176,0.2292 -6.9376,0.1875 -2.3199,-0.042 -4.5661,-0.1373 -6.3437,-0.094 -1.7776,0.043 -3.2041,0.4614 -2.8437,0.2812 -1.3564,0.6782 -1.6515,1.1869 -1.7188,1.3438 -0.067,0.1568 -0.1539,0.347 0.1562,1.1874 0.6203,1.6809 3.2188,4.9263 6.8438,8.2188 7.2499,6.5849 17.9526,13.7025 23.8438,19.5938 1.7373,1.7373 2.3333,3.8961 2.5937,6 0.2604,2.1038 0.1854,4.299 -0.094,6.6874 -0.5584,4.777 -1.9023,10.2472 -3.4063,15.6876 -1.504,5.4403 -3.2077,10.8377 -4.5,15.2812 -1.2923,4.4435 -2.0625,8.3813 -2.0625,8.8438 0,1.934 -1.3416,3.939 -2.6562,4.8124 -1.3147,0.8735 -2.5632,1.1712 -3.8126,1.4063 -2.4987,0.4702 -5.1969,0.5142 -8.0312,0.625 -2.8343,0.1108 -5.7341,0.2612 -8.0625,0.6875 -2.3284,0.4263 -3.9526,1.1714 -4.5313,1.75 -2.0491,2.0491 -4.5812,2.8289 -7.1874,3.3125 -2.6063,0.4836 -5.4214,0.5998 -8.2813,0.5937 -5.7198,-0.012 -11.7195,-0.5625 -15.4375,-0.5624 -9.4894,-3e-4 -20.7966,-5.6171 -27.6875,-9.0626 -2.5666,-1.2832 -9.0869,-1.6309 -16.4375,-1.125 -7.3506,0.506 -15.5816,1.5626 -22.8125,1.5626 -1.6031,0 -3.5381,-0.2491 -6.0937,-0.5626 -2.5557,-0.3134 -5.5666,-0.709 -8.4376,-1.0624 -2.8709,-0.3535 -5.6149,-0.6805 -7.625,-0.8126 -0.8812,-0.058 -1.541,-0.072 -2,-0.062 -1.6585,1.5538 -4.5405,4.0474 -8.75,5.9062 -2.4607,1.0866 -5.305,1.8946 -8.4062,1.7188 -1.9172,-0.1087 -3.8803,-0.7234 -5.75,-1.75 1.0571,1.32 2.1473,2.6123 3.375,3.6874 6.3666,5.5756 15.4436,8.3382 27.1562,9.4063 23.4253,2.1362 56.3987,-2.8097 93.125,-1.6875 18.1036,0.5532 31.6281,0.7059 41.4688,0 9.8407,-0.7059 15.8664,-2.37 19.0625,-4.5625 3.1961,-2.1925 4.3905,-4.8185 4.8125,-10.1563 0.422,-5.3377 -0.3929,-12.9663 -1.5625,-22.9374 -2.0408,-17.3988 -3.0227,-70.2472 -2.1563,-135.625 z m -196.0312,3.9687 c 0.054,56.576 0.5916,109.0892 2.4688,133.0937 0.2328,2.9778 0.6679,5.5854 1.1562,8.0938 0.01,-0.02 0.022,-0.043 0.031,-0.062 1.9767,-4.2719 5.8166,-6.8722 9.7188,-9.1875 3.9022,-2.3153 8.0874,-4.2327 11.0938,-5.875 1.0144,-0.5542 1.5747,-0.967 2.2187,-1.4062 -1.2111,-0.5067 -2.9421,-1.0755 -5.125,-1.7188 -4.9484,-1.4583 -11.6967,-3.2375 -14.8437,-9.5312 -7.0336,-14.0674 14.0891,-19.8631 16,-18.3438 0.015,-0.349 0.021,-0.7609 -0.125,-1.5 -0.3467,-1.7561 -1.3383,-4.1937 -2.5938,-6.5625 -1.2555,-2.3688 -2.7512,-4.6879 -3.9688,-6.4375 -0.6087,-0.8748 -1.1586,-1.5983 -1.5624,-2.125 -0.4039,-0.5267 -0.8831,-1.0705 -0.5313,-0.7188 -1.3776,-1.3777 -0.9971,-1.5863 -1.0937,-1.9062 -0.097,-0.3199 -0.1616,-0.5668 -0.2188,-0.8438 -0.1143,-0.5539 -0.2275,-1.1627 -0.3438,-1.9374 -0.2324,-1.5496 -0.4988,-3.6328 -0.8124,-6.1563 -0.6273,-5.0471 -1.4072,-11.8229 -2.3438,-19.0625 -1.8732,-14.4792 -4.4473,-31.1231 -6.9375,-38.5938 -0.9638,-2.8913 -1.6083,-6.0299 -2.1875,-9.2187 z m -65.5625,33.2813 c -0.039,3.1199 -0.062,5.9653 -0.062,9.25 0,4.2095 -1.689,7.9996 -2.9375,11.25 -0.6242,1.6251 -1.1795,3.0988 -1.4375,4.0624 -0.1057,0.395 -0.071,0.5881 -0.062,0.7188 2.0452,3.889 4.6809,6.9582 7.6563,9.5938 -0.805,-10.2525 -1.7775,-21.3527 -3.1563,-34.875 z"
         id="path4510"
         style="fill:#2c3f57;fill-opacity:1;stroke:none"
         inkscape:original="M 1914.4688 1738.75 C 1914.4417 1738.75 1914.4233 1738.7503 1914.4062 1738.7812 C 1910.1354 1741.1445 1904.7554 1743.8612 1898.4375 1746.8125 C 1902.7701 1755.6064 1909.2196 1763.9078 1911.625 1768.7188 C 1916.1449 1777.7586 1915.8656 1787.9499 1920.2812 1796.7812 C 1927.7566 1811.7317 1938.015 1821.4677 1944.0312 1833.5 C 1948.6314 1842.7002 1947.9775 1854.3924 1952.6562 1863.75 C 1958.5985 1875.6345 1953.3018 1944.3018 1957 1948 C 1961.2704 1952.2704 1970.9359 1974.2438 1973.0312 1988.75 C 1964.9501 1857.133 1917.0654 1738.5476 1914.4688 1738.75 z M 1344.5938 1836.2188 C 1344.1119 1836.2017 1343.5997 1836.2437 1343.0938 1836.3438 C 1344.4138 1836.5276 1345.7407 1836.6989 1347.0625 1836.875 C 1346.2735 1836.4849 1345.459 1836.2484 1344.5938 1836.2188 z M 1347.0625 1836.875 C 1373.9467 1850.1676 1357.2274 2067.4981 1345.0938 2135.6875 C 1331.8637 2210.0383 1286.5831 2559.2802 1277.2188 2619.1562 C 1267.854 2679.0325 1368.5208 3224.5457 1387.25 3253.375 C 1397.8171 3269.6407 1458.3131 3259.7777 1510.7188 3243.7188 C 1494.0485 3244.9722 1474.533 3251.6881 1464.5 3248.3438 C 1459.2972 3246.6094 1441.6503 3240.5878 1438.5938 3237.5312 C 1436.0737 3235.0113 1441.1136 3224.9264 1438.5938 3222.4062 C 1433.4029 3217.2157 1412.776 3211.7136 1410.5 3209.4375 C 1404.145 3203.0826 1435.816 3187.2536 1429.9375 3181.375 C 1410.0633 3161.5009 1388.9062 3159.9841 1388.9062 3129.5312 C 1388.9062 3115.0694 1417.1227 3110.3704 1406.1875 3088.5 C 1384.158 3044.4411 1389.2184 2994.0618 1367.3125 2950.25 C 1361.7989 2939.2228 1366.3748 2922.4996 1360.8125 2911.375 C 1351.6715 2893.093 1350.3701 2868.8653 1341.375 2850.875 C 1332.5676 2833.2602 1323.3455 2815.4445 1317.625 2792.5625 C 1310.8181 2765.3348 1310.3999 2584.5127 1319.7812 2565.75 C 1331.7387 2541.8351 1307.787 2447.1761 1319.7812 2423.1875 C 1329.7265 2403.2971 1323.8476 2334.9024 1337.0625 2321.6875 C 1339.7049 2319.045 1335.7691 2308.2866 1337.0625 2304.4062 C 1342.2314 2288.8996 1341.8967 2268.8316 1347.875 2256.875 C 1352.6725 2247.2799 1358.4056 2240.5963 1360.8125 2230.9688 C 1363.7947 2219.0399 1357.534 2205.0881 1362.9688 2194.2188 C 1372.8269 2174.5023 1356.9293 2119.0325 1362.9688 2094.875 C 1379.0209 2030.6664 1378.3861 1962.2882 1369.4688 1896.1562 L 1373.5 1904.1875 C 1370.9024 1897.6943 1374.2732 1883.6793 1371.625 1881.0312 C 1361.6263 1871.0327 1369.6005 1855.0536 1382.0938 1840.625 C 1370.3745 1839.6585 1358.6825 1838.4232 1347.0625 1836.875 z M 1973.375 1994.9062 C 1973.2695 1996.9417 1972.8989 1998.6578 1972.125 1999.8438 C 1971.5409 2001.0121 1975.4116 2046.2134 1969.9375 2051.6875 C 1955.9536 2065.6714 1942.2381 2105.3244 1935.4062 2112.1562 C 1933.879 2113.6838 1935.4062 2124.8819 1935.4062 2127.2812 C 1935.4062 2129.0894 1932.9767 2137.8203 1933.2188 2138.0625 C 1935.707 2140.5507 1938.7495 2136.6391 1939.5938 2134.7188 C 1939.4778 2138.7939 1940.3764 2154.6861 1939.7188 2155.3438 C 1933.8746 2161.1878 1935.292 2172.8223 1931.0625 2181.2812 C 1908.0575 2227.2915 1918.1954 2289.0778 1894.3438 2336.7812 C 1889.968 2345.5325 1894.3438 2368.2802 1894.3438 2377.8438 C 1894.3438 2400.9163 1897.0366 2434.5778 1890.0312 2455.5938 C 1877.0194 2494.6294 1903.0515 2561.2517 1890.0312 2600.3125 C 1877.0287 2639.3203 1873.4263 2683.2098 1855.4688 2719.125 C 1843.0816 2743.8992 1846.9584 2779.3643 1833.875 2805.5312 C 1827.0655 2819.1501 1833.875 2895.1105 1833.875 2913.5312 C 1833.875 2917.3164 1831.4662 2934.8726 1833.875 2937.2812 C 1837.4081 2940.8144 1848.5996 3025.3196 1849.0625 3064.6875 C 1850.9107 2978.501 1856.1913 2877.1928 1867.1875 2805.4375 C 1888.2579 2667.944 1943.6486 2245.1606 1967.8438 2104.6562 C 1974.0374 2068.6885 1975.2588 2031.3647 1973.375 1994.9062 z M 1624.2812 2206.0938 C 1621.5015 2206.2888 1620.4642 2213.2545 1620.0312 2213.6875 C 1619.2305 2214.4881 1612.7095 2215.1764 1611.375 2215.8438 C 1603.4467 2219.8079 1593.878 2237.8691 1589.7812 2246.0625 C 1586.2175 2253.1899 1591.1453 2264.9593 1587.625 2272 C 1582.2773 2282.6954 1573.7978 2293.1856 1568.1875 2304.4062 C 1563.1832 2314.4149 1565.4818 2389.6926 1557.375 2405.9062 C 1546.988 2426.6802 1565.8191 2479.7681 1555.2188 2500.9688 C 1547.7221 2515.9619 1560.5754 2541.0553 1555.2188 2557.125 C 1553.2568 2563.0105 1547.2288 2599.6774 1544.4375 2602.4688 C 1532.4783 2614.4279 1497.4368 2698.5608 1512.0312 2727.75 C 1515.1008 2733.8888 1541.8402 2781.3402 1544.4375 2783.9375 C 1548.3358 2787.8358 1546.0686 2824.4436 1553.0625 2831.4375 C 1561.4164 2839.7915 1546.0257 2962.6508 1550.9062 2967.5312 C 1569.6768 2986.3018 1560.7213 3061.5651 1561.7188 3062.5625 C 1582.2188 3083.0627 1579 3106.7985 1579 3140.3438 C 1579 3146.1797 1573.3291 3154.9706 1574.6562 3157.625 C 1578.6492 3165.6109 1584.8369 3170.5184 1591 3174.625 C 1584.2265 3075.0727 1538.5206 2763.0832 1546.5938 2648.375 C 1555.9584 2515.3169 1626.4688 2233.6875 1626.4688 2233.6875 C 1626.4687 2233.6875 1633.9244 2297.3269 1650.3125 2388.25 C 1666.7006 2479.1731 1649.4661 2805.4117 1647.125 2878.5938 C 1644.7838 2951.7757 1642.4427 3171.3425 1647.125 3231.2188 C 1651.8073 3291.0948 1710.3305 3268.9073 1782.9062 3271.125 C 1855.4821 3273.3426 1855.4636 3268.9174 1850.7812 3229 C 1848.6331 3210.6866 1847.4696 3148.9117 1848.875 3074.1875 C 1848.5887 3079.436 1847.9819 3083.0181 1846.8438 3084.1562 C 1843.9835 3087.0163 1827.4852 3112.0292 1825.2188 3116.5625 C 1818.0561 3130.8876 1842.948 3146.3959 1829.5625 3159.7812 C 1826.4671 3162.8767 1811.6811 3160.0657 1807.9375 3161.9375 C 1792.7135 3169.5495 1825.5196 3188.1444 1836.0312 3198.6562 C 1842.4068 3205.0318 1827.375 3241.0302 1827.375 3248.3438 C 1827.375 3253.4007 1807.5618 3248.7195 1801.4688 3254.8125 C 1797.0633 3259.2178 1781.5431 3256.9687 1773.375 3256.9688 C 1765.7046 3256.9686 1754.2207 3251.7198 1747.4688 3248.3438 C 1739.1905 3244.2047 1720.0935 3248.3438 1706.4375 3248.3438 C 1702.2748 3248.3438 1681.8353 3244.821 1680.5 3246.1562 C 1678.4585 3248.198 1666.8997 3258.4933 1658.9062 3250.5 C 1643.7621 3235.3557 1680.5 3228.8401 1680.5 3222.4062 C 1680.5 3216.521 1663.2015 3218.0278 1658.9062 3209.4375 C 1652.2682 3196.1612 1670.9268 3199.6045 1674.0312 3196.5 C 1679.5064 3191.025 1666.398 3173.7417 1665.375 3172.7188 C 1664.392 3171.7357 1660.1294 3122.3882 1654.5938 3105.7812 C 1646.1755 3080.5267 1654.5938 3037.6949 1654.5938 3010.7188 L 1654.5938 2978.3125 C 1654.5938 2975.4324 1651.7136 2969.6875 1654.5938 2969.6875 C 1655.2493 2969.6875 1653.7218 2955.4344 1654.5938 2954.5625 C 1656.0337 2953.1225 1659.6225 2953.8463 1661.0625 2952.4062 C 1666.3443 2947.1244 1661.0625 2909.1301 1661.0625 2900.5625 C 1661.0625 2878.9229 1671.875 2865.347 1671.875 2840.0938 C 1671.875 2839.0006 1661.1023 2811.9601 1665.375 2807.6875 C 1668.3247 2804.7378 1677.5504 2804.1682 1680.5 2801.2188 C 1686.5959 2795.1229 1671.875 2781.2025 1671.875 2773.125 L 1671.875 2559.2812 C 1671.875 2526.2609 1667.9781 2397.6969 1654.5938 2384.3125 C 1648.576 2378.2948 1657.4739 2333.9167 1652.4375 2323.8438 C 1647.5358 2314.0404 1642.2306 2309.8986 1637.3125 2300.0625 C 1627.2046 2279.8467 1642.5661 2223.2536 1626.5 2207.1875 C 1625.661 2206.3485 1624.9227 2206.0487 1624.2812 2206.0938 z "
         inkscape:radius="-3.9876475"
         sodipodi:type="inkscape:offset" />
      <path
         sodipodi:nodetypes="cccsscccscscsccsc"
         inkscape:connector-curvature="0"
         id="path4267"
         d="m -1030.7667,-340.83253 154.97637,154.52625 119.08701,-188.52203 c 0,0 105.55636,-9.80517 130.53594,7.22989 34.94997,23.83447 65.08525,161.56907 94.44921,209.47226 29.36386,47.90309 37.65889,84.624119 37.65889,84.624119 l -172.92089,30.905242 42.16505,82.437477 c 0,0 -12.80108,155.532992 31.24476,268.337222 44.04596,112.80413 40.78324,112.80413 40.78324,112.80413 0,0 -280.58871,103.53261 -411.0951,103.53261 -130.50628,0 -161.50158,-7.72633 -161.50158,-7.72633 0,0 57.7276,-170.85195 64.4399,-204.3905 26.0365,-130.09085 -11.983,-275.59078 -11.983,-275.59078 l -219.4709,-81.240935 c 0,0 109.9176,-246.950215 134.3874,-262.402845 24.4699,-15.45263 127.2437,-33.99578 127.2437,-33.99578 z"
         style="color:#000000;fill:#abc837;stroke:#000000;stroke-width:6;stroke-linecap:butt;stroke-linejoin:miter;stroke-miterlimit:4;stroke-opacity:1;stroke-dasharray:none;stroke-dashoffset:0;marker:none;visibility:visible;display:inline;overflow:visible;enable-background:accumulate" />
      <path
         sodipodi:nodetypes="cccccccccccccccccccccccccccccccccccccccccccccccccccccccccccccc"
         inkscape:connector-curvature="0"
         id="path4653"
         d="m -658.49525,-373.92871 c 25.15227,24.93285 49.89008,48.79236 53.92568,86.64164 0.0516,39.64945 31.05147,70.65183 44.9405,104.91107 -2.56579,34.72849 35.23866,47.52892 41.96272,78.02329 -1.28339,21.149919 34.76725,45.73398 14.17196,7.853391 -17.99369,-45.761231 -48.08227,-85.872941 -60.90129,-133.925311 -18.84247,-45.58209 -27.55388,-99.09686 -62.92672,-135.47996 -9.37848,-5.53627 -20.57591,-6.6679 -31.17285,-8.02412 z m -537.09135,131.05269 c -26.1892,50.31388 -50.315,101.66906 -74.0265,153.186741 49.444,7.925798 62.3912,-52.248701 53.952,-89.643621 8.7564,-20.14405 16.2728,-41.37798 20.0745,-63.54312 z m 486.70545,101.69414 c 4.17618,31.24398 -30.30116,58.702925 -59.98159,51.298116 -51.35065,-2.772967 -103.22848,-7.117754 -154.47348,-1.711512 -35.01967,33.65513 41.27318,62.267086 66.67915,62.063943 27.49584,34.518755 84.09164,46.463044 120.60424,64.650137 27.95908,30.045295 49.47711,14.038484 63.21228,58.187564 -22.08014,37.734602 18.03127,64.287432 2.77081,101.757012 -12.89792,34.50046 49.77725,54.89821 13.54807,86.96558 -6.08336,26.58833 57.5305,8.59582 50.99502,47.47806 -7.71508,30.27283 -76.5465,22.18471 -79.70371,34.18497 30.47499,5.75271 62.15634,-10.27527 87.81081,-6.78348 50.56917,26.81617 -44.59786,55.74442 -32.45418,59.87525 22.59917,-8.99749 71.543,-13.90389 73.81101,-1.20518 -24.4966,-74.61719 -61.39621,-146.19914 -67.10387,-225.83203 -2.58566,-36.361 -8.37369,-73.14531 -5.36049,-108.923845 3.23404,-24.396855 2.56411,-47.511307 -12.29272,-67.838429 -8.73837,-18.9474266 -20.91176,-37.428757 -27.92239,-56.620643 9.15872,-4.145186 24.82931,-0.822702 9.07097,-13.227567 -5.22622,-21.827818 -36.48102,-28.481345 -30.00299,-43.705606 -4.27484,-2.0512 5.07993,-10.83807 -4.75904,-7.16517 -16.14652,-5.28387 7.54371,-15.9604 -12.29675,-19.18431 -0.47377,-4.78521 0.6413,-9.94385 -2.15115,-14.26286 z m -273.35681,259.30772 c -43.65334,-7.23836 -80.25164,31.88174 -67.89414,73.61308 3.5768,68.41235 -8.4106,136.59646 -32.1842,200.70711 -7.6955,36.46203 -39.1868,98.12385 -34.6633,120.6212 34.8835,-4.14194 71.1194,-10.5634 106.7972,-10.91332 27.13473,-1.53788 -4.3588,-17.75247 -17.8002,-13.06584 -39.968,-24.55297 -3.3982,-50.3065 11.5585,-71.01365 -38.0255,-29.31132 81.54133,-39.57517 19.49034,-45.43659 -33.56714,-25.57686 4.03295,-84.46787 43.86872,-70.79851 46.18758,13.71905 49.88605,-3.20027 59.85403,-14.47078 14.49614,-8.21958 -10.51976,-8.01211 -48.29449,-9.7245 -21.81887,2.08277 -100.965,2.53116 -63.7056,-29.46784 29.17887,8.42593 23.12548,-17.4019 19.49488,-21.17985 -30.37068,1.44128 8.87919,-14.90463 -22.88788,-11.58687 -38.8998,-22.13504 34.81303,-25.83154 51.01946,-23.93331 37.36472,-12.33443 76.91688,-22.59809 116.48094,-20.28945 -14.05922,-34.05236 -36.04326,-56.01899 -73.6663,-44.4262 -21.83559,-6.60945 -44.72683,-8.76601 -67.46796,-8.63468 z m 128.50107,84.29424 c -18.61689,2.26063 -76.30037,14.60018 -28.49227,11.84836 4.23333,0.52748 52.17335,-5.69103 28.49227,-11.84836 z m 128.22433,182.69905 c -48.78397,-13.32329 -73.03848,42.35188 -114.48276,42.45409 -21.82231,-15.42229 36.9905,-40.25248 -6.56538,-21.94872 -29.35393,36.97132 -75.76807,31.96999 -117.98912,34.58978 -34.50252,11.79397 34.02964,14.47594 45.59272,13.36657 43.91554,8.85652 84.9987,-7.66845 120.83232,-30.00407 18.26855,-19.3244 67.99848,-12.44687 72.61222,-38.45765 z"
         style="fill:#9eb733;fill-opacity:1;stroke:none" />
      <rect
         ry="8.9005213"
         transform="matrix(0.76056862,0.64925756,-0.48069975,0.87688525,0,0)"
         y="411.63846"
         x="-955.21991"
         height="217.72046"
         width="16.446598"
         id="rect4433"
         style="color:#000000;fill:#4d4d4d;fill-opacity:1;fill-rule:nonzero;stroke:none;stroke-width:6.06391907;marker:none;visibility:visible;display:inline;overflow:visible;filter:url(#filter4006);enable-background:accumulate" />
      <path
         sodipodi:nodetypes="csscssccssssscccc"
         inkscape:connector-curvature="0"
         id="path4423"
         d="m -498.02262,-71.626294 c 0,0 47.74386,65.3699396 32.98362,108.868078 -14.76024,43.498139 9.84013,85.442756 -119.72216,29.516623 -129.5624,-55.92623 -247.79206,-122.147144 -247.79206,-122.147144 -26.24051,-4.660538 -39.12843,7.323916 -73.56903,-9.764714 -34.44059,-17.088531 -33.51297,-25.027049 -39.59178,-44.384299 -4.86093,-15.47895 -4.60439,-15.18744 -26.75219,-17.2886 -9.03628,-1.12717 -16.68356,-7.18691 -13.36386,-21.01316 0,0 9.17692,-13.84232 12.68738,-21.68241 3.31831,-7.41091 10.81248,-3.17235 5.71508,-11.75847 -3.57564,-6.02266 1.6652,-24.38663 10.23332,-26.34568 47.5609,-10.87449 71.45694,-11.09697 91.13729,4.43805 19.68035,15.53502 46.77153,64.88384 59.89173,71.09788 13.12031,6.21395 287.00523,96.317261 287.00523,96.317261 l -60.88683,-21.958606 41.48897,-6.748458 z"
         style="color:#000000;fill:url(#radialGradient11228);fill-opacity:1;stroke:#000000;stroke-width:6;stroke-linecap:butt;stroke-linejoin:miter;stroke-miterlimit:4;stroke-opacity:1;stroke-dasharray:none;stroke-dashoffset:0;marker:none;visibility:visible;display:inline;overflow:visible;enable-background:accumulate" />
      <path
         sodipodi:nodetypes="ccccc"
         inkscape:connector-curvature="0"
         id="path4269"
         d="m -1354.5964,-95.759891 c 10.6234,-3.302888 373.5914,-138.723949 373.5914,-138.723949 l 168.39626,358.14138 -290.46626,67.27447 z"
         style="color:#000000;fill:url(#linearGradient11225);fill-opacity:1;stroke:#000000;stroke-width:6;stroke-linecap:butt;stroke-linejoin:miter;stroke-miterlimit:4;stroke-opacity:1;stroke-dasharray:none;stroke-dashoffset:0;marker:none;visibility:visible;display:inline;overflow:visible;enable-background:accumulate" />
      <path
         sodipodi:nodetypes="csscssscsscssssscsc"
         inkscape:connector-curvature="0"
         id="path4271"
         d="m -1288.6585,91.986328 c 0,0 -6.9315,46.996502 6.2728,67.267582 13.2043,20.27099 11.265,27.05192 47.2352,42.5787 35.9703,15.52675 74.4162,4.87843 74.4162,4.87843 35.5724,-33.69558 72.8018,-77.11022 94.5508,-99.86826 23.5764,-24.670315 69.98724,-51.157352 69.98724,-58.058123 0,-6.90078 -38.24694,-8.625985 -70.57464,8.625995 -32.3277,17.251882 -66.4767,57.793948 -67.3873,53.049628 -0.9107,-4.74432 86.5108,-112.137481 80.1363,-121.626029 -6.3745,-9.488558 -40.0681,-1.725225 -57.3703,17.683202 -17.3022,19.408427 -54.1832,78.06495 -54.1832,78.06495 0,0 53.7279,-113.862695 48.7194,-120.763465 -5.0086,-6.90078 -28.6852,-1.725136 -46.4427,26.3091968 -17.7576,28.0344212 -67.8426,113.0000552 -75.1278,114.2939352 -7.2851,1.29389 -7.7839,-29.050899 -7.7839,-34.657785 0,-5.606877 1.6006,-19.560563 -4.774,-46.732333 -6.3743,-27.1717598 -27.5103,-34.197701 -27.5103,-34.197701 0,0 1.8509,35.519583 0.9402,45.008131 -0.9107,9.488548 -11.104,58.143946 -11.104,58.143946 z"
         style="color:#000000;fill:#eac8b2;fill-opacity:1;stroke:#000000;stroke-width:6;stroke-linecap:butt;stroke-linejoin:miter;stroke-miterlimit:4;stroke-opacity:1;stroke-dasharray:none;stroke-dashoffset:0;marker:none;visibility:visible;display:inline;overflow:visible;enable-background:accumulate" />
      <path
         style="color:#000000;fill:url(#radialGradient11221);stroke:#000000;stroke-width:6;stroke-linecap:round;stroke-linejoin:miter;stroke-miterlimit:4;stroke-opacity:1;stroke-dasharray:none;stroke-dashoffset:0;marker:none;visibility:visible;display:inline;overflow:visible;enable-background:accumulate"
         d="m -1140.7398,-803.93186 c 29.8714,217.97054 95.4544,440.74682 221.95744,415.31457 129.32086,-25.99873 208.84996,-179.49368 234.15617,-397.98208 22.8002,-196.85228 2.70796,-274.64693 -231.36858,-305.56463 -146.80643,-19.3906 -257.72093,47.6086 -224.74503,288.23214 z"
         id="path4351"
         inkscape:connector-curvature="0"
         sodipodi:nodetypes="sssss" />
      <path
         sodipodi:type="arc"
         style="color:#000000;fill:#ffffff;fill-opacity:1;fill-rule:nonzero;stroke:#000000;stroke-width:7.26305151;stroke-miterlimit:4;stroke-dasharray:none;marker:none;visibility:visible;display:inline;overflow:visible;enable-background:accumulate"
         id="path4355"
         sodipodi:cx="397.06671"
         sodipodi:cy="-643.81232"
         sodipodi:rx="70.814445"
         sodipodi:ry="112.12287"
         d="m 467.88116,-643.81232 a 70.814445,112.12287 0 1 1 -141.62889,0 70.814445,112.12287 0 1 1 141.62889,0 z"
         transform="matrix(-0.84879305,0,0,0.80401182,-528.38998,-331.9656)" />
      <path
         sodipodi:type="arc"
         style="color:#000000;fill:#000000;stroke:#000000;stroke-width:7.26305151;stroke-linecap:round;stroke-linejoin:miter;stroke-miterlimit:4;stroke-opacity:1;stroke-dasharray:none;stroke-dashoffset:0;marker:none;visibility:visible;display:inline;overflow:visible;enable-background:accumulate"
         id="path4359"
         sodipodi:cx="444.27634"
         sodipodi:cy="-637.06812"
         sodipodi:rx="26.976931"
         sodipodi:ry="46.3666"
         d="m 471.25327,-637.06812 a 26.976931,46.3666 0 1 1 -53.95386,0 26.976931,46.3666 0 1 1 53.95386,0 z"
         transform="matrix(-0.84879305,0,0,0.80401182,-489.51946,-319.18807)" />
      <path
         style="color:#000000;fill:none;stroke:#000000;stroke-width:6;stroke-linecap:butt;stroke-linejoin:miter;stroke-miterlimit:4;stroke-opacity:1;stroke-dasharray:none;marker:none;visibility:visible;display:inline;overflow:visible;enable-background:accumulate"
         d="m -992.07111,-806.89658 c 5.45875,17.23566 -42.63629,113.52637 -23.61339,126.74959 13.6152,9.46414 56.52914,11.52271 77.99577,-8.13366"
         id="path4365"
         inkscape:connector-curvature="0"
         sodipodi:nodetypes="csc" />
      <path
         style="color:#000000;fill:none;stroke:#000000;stroke-width:6;stroke-linecap:round;stroke-linejoin:miter;stroke-miterlimit:4;stroke-opacity:1;stroke-dasharray:none;stroke-dashoffset:0;marker:none;visibility:visible;display:inline;overflow:visible;enable-background:accumulate"
         d="m -799.54783,-627.19778 -1.89647,-3.81333 c -22.43369,38.80221 -112.41696,127.94386 -217.0685,65.62245"
         id="path4367"
         inkscape:connector-curvature="0"
         sodipodi:nodetypes="ccc" />
      <path
         style="color:#000000;fill:#eed4c2;fill-opacity:1;stroke:#000000;stroke-width:6;stroke-linecap:butt;stroke-linejoin:miter;stroke-miterlimit:4;stroke-opacity:1;stroke-dasharray:none;stroke-dashoffset:0;marker:none;visibility:visible;display:inline;overflow:visible;enable-background:accumulate"
         d="m -690.76011,-857.2456 c 0,0 17.50009,-42.90466 55.58839,-23.40254 38.08851,19.50212 -12.35298,161.86758 -36.02952,161.86758 -23.67664,0 -23.67664,-29.25318 -23.67664,-29.25318"
         id="path4369"
         inkscape:connector-curvature="0" />
      <path
         style="color:#000000;fill:url(#linearGradient11213);fill-opacity:1;stroke:#000000;stroke-width:6;stroke-linecap:butt;stroke-linejoin:miter;stroke-miterlimit:4;stroke-opacity:1;stroke-dasharray:none;stroke-dashoffset:0;marker:none;visibility:visible;display:inline;overflow:visible;enable-background:accumulate"
         d="m -647.28792,-867.89318 c 16.47863,11.02785 -11.02818,110.16196 -23.05897,109.21229 -12.03079,-0.94967 -12.03079,-18.99344 -18.04622,-26.59082 -6.54314,-17.49816 25.59817,-89.82533 41.10519,-82.62147 z"
         id="path4371"
         inkscape:connector-curvature="0"
         sodipodi:nodetypes="cscc" />
      <path
         style="color:#000000;fill:#e4b89c;fill-opacity:1;fill-rule:nonzero;stroke:none;stroke-width:6;marker:none;visibility:visible;display:inline;overflow:visible;enable-background:accumulate"
         d="m -974.46601,-679.53718 c -24.29552,-1.38656 -35.90049,-18.36215 -34.72589,-36.95883 0.9493,-9.88547 2.2876,-20.45875 3.8135,-30.27809 -4.5517,14.3273 -9.5151,28.21018 -12.0797,43.00189 -0.6529,4.71604 -1.2836,10.48311 -1.0514,15.40733 2.7894,12.40115 26.48071,13.25825 36.39851,13.50257 21.02551,-1.74329 31.83599,-5.50882 41.71435,-13.97926 -1.49061,2.1178 -26.20936,8.53893 -34.06937,9.30439 z"
         id="path4377"
         inkscape:connector-curvature="0"
         sodipodi:nodetypes="cccccccc" />
      <path
         sodipodi:nodetypes="scccsccccccccscccccscccsssccc"
         inkscape:connector-curvature="0"
         id="path4582"
         d="m -1002.8426,-1074.3687 c -22.5166,0.054 -53.5224,20.0989 -71.4307,32.5045 -35.9663,24.8998 -46.1158,70.44496 -63.6698,110.44837 -2.7905,7.94315 -5.3791,15.93463 -7.7914,24.01314 -0.841,27.68632 0.9075,58.75036 5.6609,93.43515 5.1509,37.58608 11.3512,75.27413 18.7176,111.84827 0.4751,-21.0568 0.1864,-41.56133 -8.2783,-60.32198 -0.1039,-0.23513 -0.1855,-0.48005 -0.2435,-0.73044 -11.9426,-50.08775 -1.5854,-109.47785 40.387,-143.89622 0.068,-0.0639 0.145,-0.11878 0.213,-0.18261 28.0317,-26.24386 60.9883,-48.01493 73.7439,-83.75685 0.045,-0.1241 0.095,-0.24602 0.1521,-0.36522 10.5433,-22.68271 20.05888,-47.63541 38.6828,-66.77421 -6.23103,-12.3038 -15.05871,-16.2483 -26.1436,-16.2219 z m 300.78816,325.68402 c -0.0487,0.0599 -0.1943,0.21122 -0.42609,0.94349 0.0945,4.1382 -0.36492,8.29364 -0.57802,12.47831 -6.9597,39.22719 -9.5849,81.25127 -29.30886,118.36133 -14.46656,59.0404 -58.78065,102.02876 -92.06553,148.27885 -14.678,20.114 -35.5952,26.57294 -56.82201,29.7349 -21.22681,3.16196 -43.1601,3.44063 -61.60025,10.46961 -0.14901,0.0596 -0.30162,0.11044 -0.45657,0.15217 -36.9806,9.38888 -71.47023,-9.17182 -95.59593,-35.18275 12.5994,19.77659 26.2929,36.02842 41.08707,47.81324 23.25967,18.52823 48.92686,26.30466 78.49157,20.36095 59.3164,-11.92499 108.20216,-50.71898 146.42236,-111.05696 37.87397,-59.79141 62.52975,-131.30729 78.3558,-227.17068 -3.29067,-2.23769 -5.47614,-8.5883 -7.50334,-15.18246 z"
         style="color:#000000;fill:#dfae8e;fill-opacity:1;fill-rule:nonzero;stroke:none;stroke-width:6;marker:none;visibility:visible;display:inline;overflow:visible;enable-background:accumulate" />
      <path
         transform="matrix(0.8256866,0,0,0.74515321,-1382.2135,-359.76059)"
         d="m 467.88116,-643.81232 a 70.814445,112.12287 0 1 1 -141.62889,0 70.814445,112.12287 0 1 1 141.62889,0 z"
         sodipodi:ry="112.12287"
         sodipodi:rx="70.814445"
         sodipodi:cy="-643.81232"
         sodipodi:cx="397.06671"
         id="path4411"
         style="color:#000000;fill:#ffffff;fill-opacity:1;fill-rule:nonzero;stroke:#000000;stroke-width:7.64928484;stroke-miterlimit:4;stroke-dasharray:none;marker:none;visibility:visible;display:inline;overflow:visible;enable-background:accumulate"
         sodipodi:type="arc" />
      <path
         transform="matrix(0.84879305,0,0,0.80401182,-1400.0236,-319.21026)"
         d="m 471.25327,-637.06812 a 26.976931,46.3666 0 1 1 -53.95386,0 26.976931,46.3666 0 1 1 53.95386,0 z"
         sodipodi:ry="46.3666"
         sodipodi:rx="26.976931"
         sodipodi:cy="-637.06812"
         sodipodi:cx="444.27634"
         id="path4413"
         style="color:#000000;fill:#000000;stroke:#000000;stroke-width:7.26305151;stroke-linecap:round;stroke-linejoin:miter;stroke-miterlimit:4;stroke-opacity:1;stroke-dasharray:none;stroke-dashoffset:0;marker:none;visibility:visible;display:inline;overflow:visible;enable-background:accumulate"
         sodipodi:type="arc" />
      <path
         sodipodi:nodetypes="cc"
         inkscape:connector-curvature="0"
         id="path4415"
         d="m -927.43934,-947.47542 c 39.3617,-23.61025 86.57034,-25.02922 108.98306,-17.95362"
         style="color:#000000;fill:none;stroke:#000000;stroke-width:6;stroke-linecap:butt;stroke-linejoin:miter;stroke-miterlimit:4;stroke-opacity:1;stroke-dasharray:none;stroke-dashoffset:0;marker:none;visibility:visible;display:inline;overflow:visible;enable-background:accumulate" />
      <path
         style="color:#000000;fill:none;stroke:#000000;stroke-width:6;stroke-linecap:butt;stroke-linejoin:miter;stroke-miterlimit:4;stroke-opacity:1;stroke-dasharray:none;stroke-dashoffset:0;marker:none;visibility:visible;display:inline;overflow:visible;enable-background:accumulate"
         d="m -1002.069,-940.74283 c -39.3618,-23.61024 -86.5704,-25.0292 -108.983,-17.95362"
         id="path4419"
         inkscape:connector-curvature="0"
         sodipodi:nodetypes="cc" />
      <path
         sodipodi:nodetypes="cc"
         inkscape:connector-curvature="0"
         id="path4443"
         d="M -998.56448,582.93992 C -1016.4251,701.14498 -1035.667,768.61716 -1114.9902,796.5847"
         style="color:#000000;fill:none;stroke:#000000;stroke-width:6;stroke-linecap:butt;stroke-linejoin:miter;stroke-miterlimit:4;stroke-opacity:1;stroke-dasharray:none;stroke-dashoffset:0;marker:none;visibility:visible;display:inline;overflow:visible;enable-background:accumulate" />
      <path
         sodipodi:nodetypes="cc"
         inkscape:connector-curvature="0"
         id="path4445"
         d="m -1103.4062,564.06669 c 197.22526,46.61508 386.64495,-4.2872 567.43681,-95.68502"
         style="color:#000000;fill:none;stroke:#000000;stroke-width:6;stroke-linecap:butt;stroke-linejoin:miter;stroke-miterlimit:4;stroke-opacity:1;stroke-dasharray:none;stroke-dashoffset:0;marker:none;visibility:visible;display:inline;overflow:visible;enable-background:accumulate" />
      <path
         transform="matrix(0.98956699,-0.1240654,0.1309755,0.93735875,-5270.481,-671.37232)"
         d="m 4249.9454,1856.3347 a 50.759392,39.223167 0 1 1 -101.5188,0 50.759392,39.223167 0 1 1 101.5188,0 z"
         sodipodi:ry="39.223167"
         sodipodi:rx="50.759392"
         sodipodi:cy="1856.3347"
         sodipodi:cx="4199.186"
         id="path4447"
         style="color:#000000;fill:#000000;fill-opacity:1;fill-rule:nonzero;stroke:none;stroke-width:6.17596245;marker:none;visibility:visible;display:inline;overflow:visible;filter:url(#filter4006);enable-background:accumulate"
         sodipodi:type="arc" />
      <path
         sodipodi:nodetypes="csc"
         inkscape:connector-curvature="0"
         id="path4449"
         d="m -885.07526,586.70305 c 0,0 -14.61899,226.51099 2.22159,275.85186 12.78691,37.46397 45.18839,26.106 45.18839,26.106"
         style="color:#000000;fill:none;stroke:#000000;stroke-width:6;stroke-linecap:butt;stroke-linejoin:miter;stroke-miterlimit:4;stroke-opacity:1;stroke-dasharray:none;stroke-dashoffset:0;marker:none;visibility:visible;display:inline;overflow:visible;enable-background:accumulate" />
      <path
         sodipodi:nodetypes="cc"
         inkscape:connector-curvature="0"
         id="path4451"
         d="m -690.98262,535.02245 c 9.38795,135.26879 101.02983,237.58279 182.97533,266.07535"
         style="color:#000000;fill:none;stroke:#000000;stroke-width:6;stroke-linecap:butt;stroke-linejoin:miter;stroke-miterlimit:4;stroke-opacity:1;stroke-dasharray:none;stroke-dashoffset:0;marker:none;visibility:visible;display:inline;overflow:visible;enable-background:accumulate" />
      <path
         sodipodi:nodetypes="csssscssc"
         inkscape:connector-curvature="0"
         id="path4475"
         d="m -1135.5957,2053.2984 c 2.5358,3.6029 -106.4552,84.6551 -112.8115,96.9958 -9.8932,19.2078 0,24.6598 27.769,31.2358 27.769,6.576 140.5806,14.7961 161.4073,1.644 20.8267,-13.1519 230.82978,-124.9437 223.88752,-156.1796 -6.94227,-31.2359 -15.62009,-46.0319 -15.62009,-46.0319 0,0 -8.67782,21.372 -48.59573,41.0999 -39.9179,19.728 -79.8359,47.6759 -91.98476,47.6759 -12.14894,0 -144.05174,-16.4399 -144.05174,-16.4399 z"
         style="color:#000000;fill:#000000;stroke:#000000;stroke-width:6;stroke-linecap:butt;stroke-linejoin:miter;stroke-miterlimit:4;stroke-opacity:1;stroke-dasharray:none;stroke-dashoffset:0;marker:none;visibility:visible;display:inline;overflow:visible;enable-background:accumulate" />
      <path
         sodipodi:nodetypes="csccscc"
         inkscape:connector-curvature="0"
         id="path4477"
         d="m -1107.8267,2020.4185 c 0,0 93.7204,6.5759 123.225,18.0839 29.50451,11.5079 39.91791,19.7279 39.91791,19.7279 l 19.09121,-11.5079 c 0,0 -57.27355,-31.236 -93.72042,-34.524 -36.4468,-3.288 -71.158,-6.576 -71.158,-6.576 z"
         style="color:#000000;fill:#000000;stroke:#000000;stroke-width:6;stroke-linecap:butt;stroke-linejoin:miter;stroke-miterlimit:4;stroke-opacity:1;stroke-dasharray:none;stroke-dashoffset:0;marker:none;visibility:visible;display:inline;overflow:visible;enable-background:accumulate" />
      <path
         sodipodi:nodetypes="csssscssc"
         inkscape:connector-curvature="0"
         id="path4479"
         d="m -783.27652,1984.2506 c 0,0 -10.41339,47.6758 -5.20669,64.1158 5.20669,16.4399 157.93624,159.4677 175.2919,164.3996 17.35555,4.932 85.0425,18.084 123.22493,11.508 38.18234,-6.576 53.80232,-36.1679 15.61999,-88.7757 -38.18234,-52.608 -64.21581,-75.624 -64.21581,-75.624 0,0 -93.72033,24.66 -109.34042,18.084 -15.62009,-6.576 -90.2492,-21.372 -105.86929,-46.0319 -15.62009,-24.66 -29.50461,-47.6758 -29.50461,-47.6758 z"
         style="color:#000000;fill:#000000;stroke:#000000;stroke-width:6;stroke-linecap:butt;stroke-linejoin:miter;stroke-miterlimit:4;stroke-opacity:1;stroke-dasharray:none;stroke-dashoffset:0;marker:none;visibility:visible;display:inline;overflow:visible;enable-background:accumulate" />
      <path
         sodipodi:nodetypes="cccscc"
         inkscape:connector-curvature="0"
         id="path4481"
         d="m -719.44541,2059.1456 c 12.44462,-9.3941 102.62265,-59.4822 146.81614,-33.8545 l -21.47093,-24.537 c 0,0 -12.97386,-3.3658 -53.15829,3.771 -32.52047,5.7755 -101.40595,38.7684 -101.30673,38.9093 z"
         style="color:#000000;fill:#000000;stroke:#000000;stroke-width:6;stroke-linecap:butt;stroke-linejoin:miter;stroke-miterlimit:4;stroke-opacity:1;stroke-dasharray:none;stroke-dashoffset:0;marker:none;visibility:visible;display:inline;overflow:visible;enable-background:accumulate" />
      <path
         sodipodi:nodetypes="csscccc"
         inkscape:connector-curvature="0"
         id="path4483"
         d="m -989.97731,-1048.4859 c 3.61304,24.8644 199.97852,187.3991 270.88147,214.76789 13.83902,5.3419 22.89838,-12.46255 24.81194,-17.74419 18.91288,-52.20161 60.87967,-33.53193 60.87967,-33.53193 10.57303,-164.58517 -186.15449,-357.16097 -283.19842,-306.42137 -262.65665,-45.5931 -322.97595,254.93809 -263.92955,407.97808 60.9924,-51.89339 138.9702,-197.66077 190.55489,-265.04848 z"
         style="color:#000000;fill:#ffe680;stroke:#000000;stroke-width:6;stroke-linecap:butt;stroke-linejoin:miter;stroke-miterlimit:4;stroke-opacity:1;stroke-dasharray:none;stroke-dashoffset:0;marker:none;visibility:visible;display:inline;overflow:visible;enable-background:accumulate" />
      <path
         d="m -747.9998,1755.3954 c -10.44969,7.9929 -16.03841,8.0192 -25.49894,12.7495 -42.6659,21.3329 28.67071,10.6558 14.87434,38.2484 -1.53719,3.0744 -36.05555,6.4427 -31.87367,10.6246 3.54156,3.5415 17.70762,-3.5416 21.24908,0 15.35599,15.3559 -19.07206,44.6752 -14.87435,48.873 2.35114,2.351 22.10858,4.8825 27.62382,2.1249 4.19083,-2.0954 3.94126,-10.316 6.37474,-12.7495 2.35133,-2.3512 32.4289,-1.2315 36.12353,0 6.21507,2.0717 50.04621,15.8261 55.24773,10.6246 2.40397,-2.4041 -1.76679,-7.7835 -2.12488,-8.4997 -16.80592,-33.6118 -73.55071,-9.8033 -84.99653,-21.2491 -3.13419,-3.1342 -5.89506,-8.0199 -8.49961,-10.6246 -27.61054,-27.6104 106.47807,-4.0173 87.12141,-23.3741 -19.68356,-19.6834 -62.50548,-3.0077 -80.74667,-21.249 -2.14692,-2.147 -2.98152,-9.768 0,-12.7495 4.604,-4.604 18.77005,0.3541 23.37406,-4.2499 1.77073,-1.7707 0.35414,-6.7288 2.12487,-8.4996 2.49674,-2.4967 11.71733,-3.2177 14.87435,-6.3747 3.18742,-3.1874 -1.06244,-13.8119 2.12498,-16.9993 2.9165,-2.9165 6.37474,-2.3777 6.37474,-8.4997 0,-15.6429 -20.04125,-29.458 -27.62392,-44.6231 -8.7065,-17.4131 -2.12488,-38.6961 -2.12488,-57.3727 0,-7.3587 -3.1582,-23.4323 0,-29.7487 11.0475,-22.095 -2.64429,-62.7087 6.37473,-80.7467 9.67902,-19.3582 13.78978,-39.2444 21.24909,-61.6225 6.28403,-18.8519 -2.76107,-44.2033 2.12498,-63.7474 9.29545,-37.1819 36.03794,-67.4841 42.49826,-106.2456 6.0382,-36.2296 -6.75416,-77.1044 2.12488,-112.6204 5.25425,-21.017 -0.30604,-92.884 6.37473,-106.2456 8.53907,-17.0782 10.6246,-145.85477 10.6246,-174.24275 0,-25.44661 17.19479,-133.4784 6.37473,-155.11862 -10.94391,-21.88773 -32.10426,-49.10359 -50.99798,-67.9972 -2.55772,-2.55783 -0.40235,-9.30441 -2.12488,-12.74947 -7.22055,-14.44121 -54.35823,-54.01226 -74.37194,-33.99865 -21.11706,21.11716 -35.18819,46.49382 -19.1242,78.62179 2.85491,5.70973 9.96224,9.29999 12.74947,14.87435 6.25737,12.51475 0,44.91718 0,59.49759 0,18.7132 1.3553,37.66269 -6.37474,53.12286 -1.6395,3.279 -10.30015,9.97561 -12.74947,14.87435 -2.05286,4.10573 0.40108,5.97366 -2.12487,8.49961 -9.01234,9.01234 26.39394,139.9094 31.87367,150.86888 9.77592,19.55186 -4.88466,81.82246 0,106.24556 14.45036,72.2518 8.49961,158.2753 8.49961,233.7403 0,52.5015 12.94012,135.8038 -19.1242,167.8681 -4.20687,4.2069 -1.91033,18.9096 -6.37474,23.374 -4.10229,4.1023 0,34.1874 0,40.3734 0,18.4898 -4.46018,43.7818 0,61.6225 3.11187,12.4475 8.60881,25.608 14.87435,31.8737 1.72027,1.7201 0,14.2967 0,16.9993 0,28.8919 14.08323,48.5792 8.49972,76.4968 z m -242.24003,-8.4996 c -4.75569,17.1023 -33.51477,5.8907 -42.49827,14.8744 -8.9818,8.9818 33.17664,22.5521 36.12354,25.4989 7.75964,7.7596 -28.57514,20.2979 -16.99934,31.8737 0.4819,0.4818 16.79964,-2.3246 21.24909,2.1248 1.05516,1.0552 0.83904,18.2853 0,19.1244 -0.61532,0.6153 -10.64519,4.2291 -8.49959,6.3747 1.53668,1.5366 32.56345,1.4352 33.99863,0 4.92579,-4.9258 0.98207,-14.303 10.62449,-19.1242 2.69801,-1.349 7.80047,0.9413 10.6246,0 7.8707,-2.6237 4.40184,-8.6517 8.49961,-12.7496 6.86434,-6.8642 23.76529,-6.766 31.87367,-14.8743 0.56251,-0.5625 0,-5.4998 0,-6.3748 0,-17.6597 -77.04299,9.5921 -65.87222,-12.7494 0.38818,-0.7764 7.6229,-12.3112 8.49961,-12.7495 12.07856,-6.0393 36.12353,-8.2129 36.12353,-29.7488 0,-1.597 4.52137,-3.9783 2.12488,-6.3747 -7.5204,-7.5204 -36.04542,10.7026 -44.62314,2.1248 -2.46191,-2.4619 -2.55999,-38.2484 -2.12488,-38.2484 4.16486,0 -16.56157,-3.0003 -21.24919,6.3748 -4.98421,9.9685 2.12498,42.4698 2.12498,53.1228 m 2.12488,-1117.70391 c 5.77397,54.6869 -20.90285,105.60903 -24.21645,159.48563 14.9262,48.11316 -21.0301,89.05535 -35.8771,131.67491 -30.5033,44.44115 -21.9639,97.64607 -34.3372,146.78217 -15.4937,41.7417 -17.2272,86.4956 -30.9529,128.7065 -5.3332,47.2282 -6.301,95.8018 0.014,143.0715 9.876,48.8076 36.6597,92.3155 47.1217,140.7638 20.4751,38.3044 64.4027,63.0001 66.1889,110.9302 5.62395,25.5687 12.2334,110.0847 45.31983,56.1801 -1.21688,-37.1817 -14.345,-74.0594 -33.38057,-105.8049 -31.41496,-37.5189 -38.71136,-86.8273 -40.13696,-134.1034 0.2139,-55.4395 -10.746,-112.3424 7.4006,-166.1782 14.0004,-43.7556 29.15732,-87.6365 50.48255,-128.0904 8.3126,-46.5392 3.60678,-93.0724 10.92915,-139.61242 0.32621,-47.04265 -6.73891,-98.36467 19.03252,-140.16488 31.1341,-34.18428 65.05189,-74.37223 43.73099,-124.11338 -10.19292,-40.27029 -39.64837,-73.26514 -68.74347,-101.77009 -9.92358,4.35335 -17.6544,12.73461 -22.57546,22.24286 z"
         style="color:#000000;fill:#374e6c;fill-opacity:1;fill-rule:nonzero;stroke:none;stroke-width:6;marker:none;visibility:visible;display:inline;overflow:visible;enable-background:accumulate"
         id="path4515"
         inkscape:connector-curvature="0" />
      <path
         transform="matrix(0.96395311,0,0,0.94369874,-2418.6759,-1240.4497)"
         d="m 1340.5625,1284.3438 c -17.1696,26.9345 -36.0896,64.6398 -43.4063,103.8437 -1.5002,8.1797 -1.5419,13.135 -1.0937,14.75 0.052,0.1863 0.013,0.1428 0.031,0.2187 -0.01,-0.016 0.2549,-0.1468 0.4374,-0.2187 3.4651,-7.3892 16.3084,-34.9714 27.9688,-62 5.9127,-13.7055 11.4863,-27.2024 15.25,-37.5937 1.8819,-5.1957 3.3,-9.6167 4.0938,-12.8438 0.3968,-1.6135 0.6534,-2.9408 0.7187,-3.8125 0.032,-0.4204 -0.037,-0.701 -0.062,-0.8437 -0.6157,-0.7273 -1.9956,-1.2789 -3.9375,-1.5 z m 58.8125,23.9374 c -0.1729,-0 -0.3814,0.029 -0.5625,0.031 -3.3466,12.4305 -9.8532,25.3875 -17.8437,33.5625 -7.2644,19.4682 -18.5951,34.4142 -28.8438,48.3125 -8.4833,11.5041 -16.1083,22.3094 -20.4375,34.4063 5.3522,-7.9006 14.6035,-20.4041 25.75,-35.4376 3.0739,-6.748 6.6606,-13.1166 13.0937,-17.8124 10.496,-14.3618 20.757,-28.8035 27.9688,-40.1876 3.6215,-5.7165 6.493,-10.6553 8.1875,-14.3437 0.8473,-1.8442 1.3984,-3.4016 1.625,-4.4375 0.2266,-1.0359 -0.042,-1.4048 0.1875,-1.0625 -1.124,-1.6731 -4.279,-2.9707 -9.125,-3.0313 z m 44.7188,81.4063 c -23.2437,7.9936 -48.297,25.7575 -63.2813,38.5313 a 2.3644909,2.3644909 0 0 1 -0.125,0.094 c -12.6703,9.3013 -25.903,27.9536 -40.5937,45.5 -14.6908,17.5464 -30.9656,34.1718 -50.9688,38.9375 a 2.3644909,2.3644909 0 0 1 -0.1875,0.031 c -15.0604,2.4884 -25.8312,-0.9457 -36.125,-4.8124 -10.2938,-3.8668 -20.1536,-8.1101 -34.5313,-8.125 a 2.3644909,2.3644909 0 0 1 -0.875,-0.1876 c -16.3275,-6.4959 -27.6127,-19.3317 -35.0624,-34.75 -4.4845,-9.2812 -7.477,-19.5428 -9.5626,-30 -0.096,2.2982 -0.2993,3.9354 -0.3124,6.4376 -0.075,14.3343 1.6913,31.1799 7.8437,40.625 13.6121,20.8974 10.6623,26.7345 46.9687,42.4062 34.8762,15.0546 71.9349,5.3944 73.5313,4.9688 35.8896,-34.0628 73.4365,-77.8477 95.5625,-101 13.3205,-13.9387 32.3162,-27.4599 47.7188,-38.6563 z"
         id="path4637"
         style="color:#000000;fill:#dfae8e;fill-opacity:1;fill-rule:nonzero;stroke:none;stroke-width:6;marker:none;visibility:visible;display:inline;overflow:visible;enable-background:accumulate"
         inkscape:original="M 1339.3438 1281.7812 C 1321.8593 1308.9678 1302.3537 1347.5104 1294.8438 1387.75 C 1291.7984 1404.3539 1293.8951 1407.678 1298.3438 1404.5938 C 1304.8278 1390.774 1351.3353 1291.1267 1346.5938 1284.5938 C 1345.2891 1282.7961 1342.7198 1281.7823 1339.3438 1281.7812 z M 1399.4062 1305.9062 C 1398.6514 1305.8963 1397.8649 1305.9257 1397.0625 1305.9688 C 1393.9275 1318.7291 1387.0075 1332.6129 1378.9375 1340.6562 C 1364.7115 1379.2356 1333.9393 1399.8978 1327 1432.1562 C 1328.4098 1431.3445 1329.728 1430.4974 1331 1429.6562 C 1335.4276 1422.6657 1346.7493 1407.5624 1359.4688 1390.4062 C 1362.593 1383.5086 1366.0144 1377.3658 1372.3125 1372.9375 C 1393.4228 1344.059 1413.6829 1314.7846 1410.4688 1310 C 1408.6463 1307.2872 1404.6337 1305.9715 1399.4062 1305.9062 z M 1349.7188 1330.7812 C 1333.0593 1350.7353 1304.6594 1395.36 1299.25 1403.9062 C 1306.9969 1397.5475 1320.5105 1375.2639 1327.6875 1366.75 C 1338.9795 1352.9254 1345.5626 1341.014 1349.7188 1330.7812 z M 1455.7812 1384.0312 C 1428.7019 1388.9519 1397.0995 1411.2165 1379.2812 1426.4062 C 1352.8073 1445.8408 1326.6934 1501.353 1288.5625 1510.4375 C 1259.4635 1515.2454 1247.9778 1497.4997 1218.2812 1497.4688 C 1186.9163 1484.9901 1174.8908 1448.2025 1172.1562 1413.9062 C 1172.1372 1413.9983 1171.9375 1414.875 1171.9375 1414.875 C 1171.9375 1414.875 1164.9212 1462.6439 1178.3438 1483.25 C 1191.7661 1503.856 1189.7788 1510.7479 1226.3438 1526.5312 C 1262.9086 1542.3147 1302 1531.5 1302 1531.5 C 1338.1603 1497.2475 1375.9852 1453.1029 1398.0938 1429.9688 C 1413.9782 1413.3472 1439.9978 1395.9406 1455.7812 1384.0312 z "
         inkscape:radius="-2.3642545"
         sodipodi:type="inkscape:offset" />
      <path
         inkscape:connector-curvature="0"
         id="path4770"
         d="m -821.48804,-1181.6861 c -0.0901,0.039 -0.12421,0.1171 -0.12421,0.2115 0,0.061 11.13576,10.9824 -3.26062,6.314 -2.50452,-0.8122 -5.00833,-6.314 -6.49004,-6.314 -0.2838,0 7.18672,11.9804 3.26052,15.7999 -0.44994,0.4377 -1.20138,0.5021 -2.0494,0.3323 3.96306,4.768 7.92911,11.3185 6.92478,12.2955 -1.12934,1.0987 -3.26479,-0.2104 -5.62065,-2.447 2.40763,4.5591 3.84402,8.8882 2.36003,10.3318 -1.22821,1.195 -10.07996,-3.2776 -17.04806,-7.764 3.0267,4.891 5.68275,10.549 5.68275,12.5071 0,5.4145 -10.80347,0.3194 -18.4766,-5.5285 4.67236,7.2256 9.65118,16.1503 8.75695,16.5853 -1.28912,0.6271 -3.98124,-0.5327 -7.01798,-2.5074 4.86872,6.5018 9.03708,12.7777 8.63274,13.5643 -4.86872,9.4733 -32.45046,-22.2104 -32.45046,-17.3708 0,7.1011 8.26905,16.1495 11.3344,22.1139 4.74212,9.2266 -31.62569,-21.3417 -11.3344,-1.6012 1.95967,1.9065 21.95225,23.6847 16.20978,23.6847 -14.31013,0 -31.56101,-18.2361 -32.45047,-17.3708 -0.35832,0.3486 22.529,27.7253 21.08496,28.4278 -7.77538,3.782 -27.57509,-24.8045 -27.57509,-17.3709 0,3.962 15.36712,24.4806 11.3344,23.8962 -1.11552,4.6025 -41.81655,-15.9811 -42.17001,-15.9811 -5.02532,0 22.43331,17.9193 17.85554,26.8266 -0.85428,1.6619 -9.44986,-4.2734 -15.4023,-9.4256 4.36462,5.568 9.30905,13.3358 7.26631,17.3104 -0.84434,1.6428 -16.08418,-9.2231 -24.81132,-18.0657 0.0926,0.1448 0.41079,0.6056 0.46575,0.6949 1.57749,2.5575 25.43397,27.399 22.73081,30.0288 -4.25809,4.1425 -28.87017,-26.8568 -29.22085,-26.8568 -4.46587,0 15.73022,24.1814 12.98017,26.8568 -4.31563,4.1985 -20.61345,-20.5428 -21.08496,-20.5428 -4.8391,0 3.58665,8.8616 6.49003,12.6277 2.30021,2.9837 7.9149,13.3149 12.2038,18.7303 -10.6733,-6.9011 -37.8374,-22.3379 -36.67358,-26.3734 -12.87126,21.3399 18.96898,33.8914 30.95982,45.5569 2.11866,2.0611 7.98177,11.6095 14.53282,19.93861 4.90021,4.26733 9.98933,8.63469 15.30919,13.11118 0.33477,0.0556 0.67055,0.0906 0.9937,0.0906 6.15317,0 -12.09479,-9.74563 4.87537,-3.14185 5.23112,2.03564 14.20778,5.29821 20.55701,8.85156 -0.42898,-0.36086 -0.81017,-0.69754 -1.08681,-0.96672 -3.19583,-3.10908 -22.73082,-17.62538 -22.73082,-22.1138 0,-3.53078 6.67298,2.87168 9.75065,4.74298 6.03552,3.66984 13.24111,6.84952 19.81184,10.36207 -5.38564,-4.24602 -10.08116,-8.77171 -8.44643,-10.36207 1.17455,-1.14263 17.86608,12.62783 21.08496,12.62783 7.39529,0 -26.58269,-15.48205 -19.4702,-18.94174 8.33821,-4.05595 29.22095,14.06141 29.22095,9.48598 0,-4.43371 -26.25129,-13.94593 -19.4703,-20.54283 0.3792,-0.3689 0.93418,-0.4644 1.64576,-0.3626 -0.9614,-1.7423 -1.14225,-3.2994 -0.031,-4.3804 1.12298,-1.0925 8.65589,3.6918 14.4086,8.0359 -1.94933,-3.0391 -3.16174,-6.3496 -1.42844,-8.0359 3.16284,-3.077 12.07243,7.0016 14.62593,9.486 4.03471,3.9252 -2.81365,-9.0512 0,-6.314 0.30199,0.2938 5.85536,6.314 6.49013,6.314 1.30542,0 1.36127,-1.6353 1.0248,-3.6554 -2.40206,-5.2058 -4.11957,-12.1446 -2.67066,-12.1446 1.86587,0 6.66453,11.1965 8.136,12.6279 2.40882,2.3435 -5.04898,-19.0443 0,-15.7697 1.8597,1.2062 14.0777,11.56 14.59482,11.057 0.51156,-0.4976 -16.24068,-20.936 -16.24068,-23.6848 0,-1.401 19.21561,14.4767 19.5013,14.1988 1.52165,-1.4803 -4.82569,-6.242 -4.87538,-6.314 -0.94798,-1.3834 -0.91917,-3.8376 -1.30412,-5.6492 2.48205,2.7194 6.6049,6.8063 7.79426,5.6492 0.2675,-0.2602 -8.6714,-12.0988 -9.75066,-14.1987 -1.21201,-2.3582 16.79855,9.4558 17.85555,9.4558 1.26815,0 -6.27291,-9.6973 -4.87538,-11.057 1.82035,-1.7709 12.36775,6.314 14.62593,6.314 1.93323,0 -8.69912,-8.9078 -4.87528,-12.6279 1.63563,-1.5912 6.74263,-0.4517 11.52072,1.4804 -7.79306,-5.5896 -17.12179,-12.9546 -14.75023,-14.1081 7.83092,-3.8092 26.01478,12.6693 32.45036,15.7998 6.58175,3.2016 -8.56497,-11.6436 -12.98006,-17.3708 -7.18592,-9.321 3.26071,-1.7482 9.2537,3.7159 -4.43427,-6.0273 -10.87184,-16.3437 -7.63895,-16.3437 8.72407,0 19.14844,10.7138 24.34558,15.7696 0.0413,0.04 0.0757,0.049 0.0931,0.061 -0.50679,-0.9767 -14.94024,-19.002 -11.45862,-19.002 6.07228,0 13.89904,7.3823 18.22818,12.9299 -2.12642,-5.6443 -4.66909,-13.3746 -5.24792,-14.5009 -6.35369,-12.3625 16.1923,11.0568 19.50131,11.0568 5.04549,0 -24.28109,-25.3484 -22.73082,-26.8567 0.19069,-0.1856 13.25353,6.6986 25.09085,13.6852 -0.94272,-1.235 -1.7826,-2.3776 -2.45324,-3.3533 1.43986,1.1383 2.91382,2.3159 4.40953,3.5043 -2.10594,-2.2551 -4.30778,-4.6382 -6.42793,-6.7972 -2.88212,-5.202 -9.76695,-14.9238 -4.40963,-14.9238 9.83015,0 60.36232,51.1363 48.69115,28.4277 -1.40529,-2.7345 -7.52874,-12.2119 -14.93646,-23.3524 -0.01,-0.011 -0.0216,-0.02 -0.031,-0.03 -31.41841,-35.9036 -68.01547,-64.762 -103.34448,-81.0538 -0.009,0 -0.0226,0 -0.0311,0 z m 78.53316,97.5787 c 5.17577,6.781 13.64932,16.3134 17.11017,16.3134 2.47102,0 0.86789,-2.2689 -2.54635,-5.5284 2.14459,1.2735 4.21526,2.4919 4.1611,2.3865 -0.85706,-1.6676 -5.46652,-4.967 -11.39641,-8.7005 -1.72287,-1.4122 -3.50139,-2.822 -5.31012,-4.2596 0.77409,0.8288 1.50396,1.5881 2.23582,2.3565 -1.38541,-0.845 -2.8063,-1.7133 -4.25421,-2.5679 z m -40.18272,23.2014 c 2.05029,2.7867 3.72636,4.7277 3.72636,4.169 0,-0.5526 -1.59597,-2.2268 -3.72636,-4.169 z m -13.97377,11.9632 c 5.12241,3.674 9.59534,6.6185 9.59534,6.4347 0,-1.5411 -4.62814,-4.4262 -9.59534,-6.4347 z m -49.43642,40.6628 c 1.76859,3.8329 3.92362,6.7261 5.46534,5.2263 1.80217,-1.7533 -6.16997,-12.3163 -6.49014,-12.6278 -1.75487,-1.7073 0.38506,3.5608 1.0248,7.4015 z m -20.71242,2.2053 c 2.65238,4.1352 6.70746,7.79043 6.70746,6.19306 0,-0.77046 -2.99977,-3.39336 -6.70746,-6.19306 z m -14.3776,-3.6555 c 3.35661,6.0825 16.31829,14.45575 17.82454,12.99041 0.28688,-0.2791 -12.5812,-12.23961 -17.82454,-12.99041 z m -4.56474,28.09546 c 6.42792,5.06774 13.82461,9.73351 12.63853,8.57967 -3.38483,-3.29297 -7.84116,-6.01512 -12.63853,-8.57967 z m -5.74486,7.97547 c 2.5369,2.13385 7.03935,5.36796 5.40332,3.77627 -1.30234,-1.26691 -3.19245,-2.53897 -5.40332,-3.77627 z m -55.11908,-99.57253 c -1.33374,-2.0838 -6.02429,-9.1085 -6.02429,-8.7609 0,1.943 2.49845,5.1884 6.02429,8.7609 z m 17.54501,0.7553 c -2.9949,-3.8205 -5.71376,-6.6272 -5.71376,-6.3744 0,0.9658 2.46984,3.5666 5.71376,6.3744 z m 39.71677,-1.4199 c 0.0155,-0.063 0.0311,-0.1377 0.0311,-0.2115 0,-2.1129 -13.16639,-12.358 -20.74343,-18.6698 6.23048,6.1707 16.00389,16.0198 17.48281,17.0989 1.58962,1.1599 2.62604,1.6949 3.22951,1.7824 z m -20.71232,-18.8813 c -2.86164,-2.8341 -5.18441,-5.0767 -5.24801,-5.0149 -0.2998,0.2917 2.02536,2.3304 5.24801,5.0149 z m 55.92646,-39.0919 c -6.4316,-8.5891 -14.09808,-17.5817 -14.09808,-14.8634 0,3.1004 7.80679,10.7724 14.09808,14.8634 z m -1.73897,-14.0779 c -3.84074,-5.9394 -7.48373,-10.7275 -7.48373,-8.6703 0,2.0535 3.28188,5.468 7.48373,8.6703 z m 12.79385,-6.9786 c -2.66381,-4.3044 -5.60992,-8.0056 -7.29751,-8.0056 -3.65442,0 1.07299,3.998 7.29751,8.0056 z m 14.68803,-2.5678 c -3.40113,-6.4406 -8.74582,-13.3529 -10.62004,-13.3529 -0.12431,0 5.73354,8.7135 10.62004,13.3529 z m -1.30413,-9.8485 c -2.37791,-2.8608 -4.74629,-5.0753 -6.05539,-5.0753 -2.51832,0 2.69908,4.4035 6.05539,5.0753 z m -219.63811,8.6703 c -1.5758,0.028 -5.0064,1.1595 -9.1917,3.1419 5.9345,-1.058 10.1233,-1.9658 10.1233,-2.6887 0,-0.3249 -0.319,-0.4644 -0.9316,-0.4532 z m -9.1917,3.1419 c -13.1964,2.3527 -35.6923,5.5238 -44.9027,9.4859 -22.7851,20.6843 -39.8142,46.7545 -52.107,75.767 -0.7313,2.1591 -1.7731,4.6389 -2.8879,7.0993 -1.5147,3.8709 -2.9603,7.7923 -4.3164,11.7517 3.2975,-3.2415 12.1107,-16.1939 12.1107,-15.1956 0,4.9774 -13.8193,30.7834 -13.0113,31.5696 2.4104,2.3449 11.887,-12.3759 13.0113,-14.1988 0.2831,-0.459 0.7168,-0.9138 1.2111,-1.3595 -4.72,8.8782 -10.4907,23.4733 -9.347,23.4733 2.9135,0 1.7616,-5.4845 3.2606,-7.915 1.5647,-2.5371 6.4679,-6.2952 9.7817,-9.9694 -6.5745,12.5155 -20.8925,41.5691 -16.2718,41.5691 1.5883,0 4.8362,-4.0296 8.2911,-9.3349 -1.9677,3.4703 -3.4157,7.0483 -3.4157,10.90586 0,7.07684 19.6428,-28.25986 21.0849,-26.85676 5.2684,5.1253 -21.4213,44.37605 -14.5949,41.05551 8.2798,-4.02755 15.2021,-17.98921 19.4703,-25.25571 0.5148,-0.8765 4.0762,-3.6688 6.8006,-6.2837 -0.1139,0.5528 -0.241,1.1349 -0.3106,1.5408 -1.8832,10.9927 -9.7506,18.74831 -9.7506,29.99861 0,0.24323 9.201,-11.12105 14.4086,-18.18651 -4.6933,8.40054 -12.3295,23.80281 -11.148,26.10155 1.1163,2.17217 13.3173,-15.63071 14.5948,-17.3708 4.287,-5.83885 5.0899,-8.30225 8.136,-14.22895 1.9506,-3.7955 -0.026,8.6879 -1.6458,12.62781 -2.609,6.34548 -6.4902,10.30105 -6.4902,17.37081 0,1.17692 0.9749,-2.16259 1.6459,-3.14185 2.4463,-3.56977 4.5767,-8.25646 5.6826,-12.8393 -0.9649,8.78622 -2.3028,24.04241 -0.8383,25.46713 0.8554,0.8322 1.2633,-2.05554 1.6458,-3.17207 1.6757,-4.89088 6.068,-9.87186 7.577,-15.34673 -0.7192,6.73026 -1.8311,20.08971 -1.0869,20.08971 2.164,0 -0.5249,-4.27142 0,-6.3139 0.9993,-3.88878 4.8442,-15.06536 4.8442,-11.0569 0,14.10646 -2.5109,29.99863 -1.6147,29.99863 5.865,0 8.1359,-24.26411 8.1359,-3.14184 0,1.20251 -0.9286,6.98142 0,7.88483 0.567,0.55169 7.1199,-7.71348 9.1917,-11.14753 0.2326,1.04639 0.746,2.41381 0.5279,3.2627 -1.3481,5.24605 -5.7482,11.1843 -8.1049,15.76966 -4.5444,8.84237 3.9955,0.65845 8.8191,-5.55866 -1.6354,5.08861 -3.1814,11.87258 -2.3289,11.87258 2.5665,0 4.909,-9.47222 8.1048,-11.02669 3.0625,-1.48973 0.5895,3.67286 -2.5464,9.27451 1.2588,-0.0637 3.499,0.82545 4.1611,0.18125 8.1684,-7.9466 22.0164,-28.94072 29.2209,-39.4544 4.3737,-6.38249 6.679,-10.53209 11.3655,-17.3708 2.164,-3.15802 9.9795,-11.18335 6.49,-9.48595 -1.8623,0.9059 -10.4378,11.03719 -14.3776,17.31037 0.076,-2.92685 0.1871,-6.25445 1.3974,-7.82442 4.1919,-5.43755 11.371,-9.52695 14.595,-15.79995 3.4387,-6.6908 -12.3873,8.9092 -17.8245,14.19881 -18.795,18.28477 6.144,-13.39341 19.284,-26.37341 -0.5735,0.3917 -1.1063,0.774 -1.4595,1.1178 -6.284,6.1133 -13.3665,11.4326 -19.4703,17.3708 -0.8554,0.8322 0.9748,-2.1929 1.6458,-3.1721 9.062,-13.224 -7.3918,9.63924 1.6148,-7.8848 2.2939,-4.4636 14.5949,-12.3718 14.5949,-17.3708 0,-0.9082 -10.9532,3.4596 -18.166,9.9089 2.6002,-4.1771 5.1858,-8.694 5.1858,-11.4799 0,-1.4886 -2.1474,2.0892 -3.2295,3.1419 -1.5751,1.5323 -5.4562,5.4337 -8.819,9.4256 3.4999,-5.5717 12.0485,-15.9665 12.0485,-20.4523 0,-0.5761 -11.6746,16.1008 -21.0849,25.2556 -3.4034,3.3111 17.8713,-26.8489 17.8554,-26.8568 -2.5434,-1.2372 -5.9584,-0.013 -9.5332,2.4169 8.7086,-8.6522 17.0235,-17.2135 16.0234,-18.1865 -0.5462,-0.5313 -21.4888,17.4957 -27.5751,26.3734 0.67,-2.6266 1.3347,-5.737 1.5836,-7.4317 1.2922,-8.7997 6.5635,-16.6773 11.3654,-23.6847 4.0244,-5.8727 -14.4259,11.0569 -17.8555,11.0569 -7.8716,0 17.7671,-22.0278 17.8555,-22.1138 3.4573,-3.3634 -27.2614,19.247 -27.5751,18.9418 -3.4629,-3.369 27.5872,-23.6664 30.8356,-26.8266 12.8085,-12.4608 -25.5179,19.4022 -25.9913,18.9417 -3.7459,-3.6443 18.2004,-24.9201 17.8555,-25.2556 -0.625,-0.6081 -18.404,10.4043 -19.4702,11.0266 -2.2808,1.3313 -6.7686,7.915 -9.7196,7.915 -0.7651,0 1.0737,-1.0747 1.6148,-1.601 7.4833,-7.2804 21.3533,-16.1763 27.575,-25.2557 0.671,-0.9793 -2.1922,0.9654 -3.2295,1.5709 -7.2794,4.2491 -13.3168,12.006 -21.116,15.8 -1.0821,0.5263 1.1047,-2.0892 1.6457,-3.1419 2.0033,-3.898 11.4135,-15.5131 18.9735,-20.1502 -1.705,0.4379 -3.3649,0.8496 -4.3785,1.1782 -2.7608,0.8953 -19.5345,10.9944 -21.085,9.486 -1.935,-1.8824 9.0728,-13.9189 16.9239,-20.3918 -3.8816,1.3008 -7.9949,2.5399 -8.8191,3.021 -1.2361,0.7215 -17.058,14.2482 -12.9802,6.3139 2.1544,-4.1917 9.4042,-11.6093 17.0482,-17.824 -4.0208,2.5112 -7.9197,5.2649 -12.1728,8.3683 -2.979,2.1735 5.988,-13.7407 9.7196,-17.3708 1.3793,-1.342 6.2545,-1.8303 4.8752,-3.1721 -1.5302,-1.4888 -4.3259,0 -6.49,0 -2.5638,0 -37.3257,12.9227 -37.3257,12.6277 0,-10.586 37.5556,-21.719 45.4305,-26.8264 3.2675,-2.1192 6.4817,-3.8692 9.347,-5.2264 z m -13.3838,31.5997 c 3.3396,-2.0857 6.7394,-4.0184 10.5269,-5.8607 2.8216,-1.3725 11.2906,-4.743 8.1359,-4.743 -3.9792,0 -11.4961,4.777 -18.6628,10.6037 z m 4.7511,8.4891 c 3.8178,-1.2794 7.4217,-2.6167 7.4217,-3.2929 0,-2.0058 -3.2839,-0.1186 -7.4217,3.2929 z m 8.5396,9.7276 c 3.755,-0.9643 7.7254,-1.9636 5.3721,-1.9636 -1.5513,0 -3.4051,0.757 -5.3721,1.9636 z m 36.0215,80.6006 c 3.4022,-2.3244 9.6409,-5.1962 6.6764,-5.1962 -1.0196,0 -3.5193,2.0775 -6.6764,5.1962 z m -54.3118,84.6185 c -0.2839,0.0144 -0.5338,0.036 -0.6832,0.18125 -1.0332,1.0052 -1.6751,2.92829 -2.2668,4.92425 0.9492,-1.63459 1.9769,-3.36729 2.95,-5.1055 z m -2.95,5.1055 c -2.724,4.69057 -4.7645,8.23008 -2.6084,6.13265 1.2443,-1.21058 1.8958,-3.7289 2.6084,-6.13265 z m 320.7777,-134.0724 c 1.26965,3.3672 2.38865,5.9815 2.85688,5.9815 1.06534,0 -0.26244,-2.6508 -2.85688,-5.9815 z m -385.5544,40.6929 c -1.4096,4.1383 -4.0218,8.0014 -6.521,11.8727 2.3801,-3.9493 4.684,-8.1808 6.521,-11.8727 z m 77.9742,0.1814 c -1.418,1.7623 -2.5464,3.2516 -3.3227,4.3502 0.1193,-0.5195 0.2579,-1.0193 0.4968,-1.3293 0.4122,-0.5345 1.4659,-1.6395 2.8259,-3.0209 z"
         style="color:#000000;fill:#fff2bd;fill-opacity:1;fill-rule:nonzero;stroke:none;stroke-width:1px;marker:none;visibility:visible;display:inline;overflow:visible;enable-background:accumulate" />
      <path
         sodipodi:nodetypes="cccscscssssssscccscccccccc"
         inkscape:connector-curvature="0"
         id="path4703"
         d="m -870.5053,-83.1081 c -11.4255,0.079 -23.3597,1.1216 -35.2092,1.3525 5.395,12.1836 0.7144,1.4442 6.1166,13.5963 10.3925,3.6287 18.3725,4.1856 26.1237,3.9886 10.5714,-0.2687 21.0536,-2.218 35.125,0.2812 1.7266,0.3119 5.0956,1.0796 5.3618,2.8139 0.2663,1.7342 7.4903,2.6281 5.9368,3.4436 3.4196,-0.7065 1.0152,0.3027 10.7951,5.5863 13.3024,7.1865 32.4326,17.3611 55.6563,29.3124 46.4473,23.9027 109.3388,54.9113 175.0624,83.2813 32.7936,14.1555 55.7541,22.0523 71.625,25.25 15.871,3.1977 24.1161,1.6359 28.75,-1.8437 4.634,-3.4797 6.8813,-9.8981 8.6563,-18.9688 1.775,-9.0707 3.0358,-20.3158 6.9687,-31.9062 7.4921,-22.0791 -2.6971,-52.1462 -13.875,-74.7188 -1.9572,7.7883 -2.0134,16.1757 0.5938,22.5312 0.047,0.1128 0.088,0.2276 0.1252,0.344 4.1558,13.1368 5.3683,31.4653 0.5,46.3125 -2.4341,7.4236 -6.522,14.1075 -12.9688,18.2187 -6.2724,4.0002 -14.5973,5.1413 -24.2812,2.75 -36.7978,-1.2479 -70.8914,-13.67 -104.3438,-25.2187 -36.2788,-5.2136 -64.5172,-26.7237 -94.8437,-41.7813 -0.2067,-0.098 -0.4055,-0.2134 -0.5937,-0.3437 -28.539,-20.3388 -59.4079,-32.7908 -93.2813,-41.6875 -0.8664,-0.2289 -1.6557,-0.7403 -2.2187,-1.4375 -14.549,-18.2019 -33.8673,-21.3066 -55.7813,-21.1563 z"
         style="color:#000000;fill:#dfae8e;fill-opacity:1;fill-rule:nonzero;stroke:none;stroke-width:6;marker:none;visibility:visible;display:inline;overflow:visible;enable-background:accumulate" />
    </g>
  </g>
  <metadata
     id="metadata11191">
    <rdf:RDF>
      <cc:Work>
        <dc:format>image/svg+xml</dc:format>
        <dc:type
           rdf:resource="http://purl.org/dc/dcmitype/StillImage" />
        <cc:license
           rdf:resource="http://creativecommons.org/licenses/publicdomain/" />
        <dc:publisher>
          <cc:Agent
             rdf:about="http://openclipart.org/">
            <dc:title>Open Clip Art Library</dc:title>
          </cc:Agent>
        </dc:publisher>
        <dc:title></dc:title>
        <dc:date>2011-12-28T03:28:30</dc:date>
        <dc:description />
        <dc:source>http://openclipart.org/detail/166636/writing-girl-by-chrisdesign</dc:source>
        <dc:creator>
          <cc:Agent>
            <dc:title>Chrisdesign</dc:title>
          </cc:Agent>
        </dc:creator>
        <dc:subject>
          <rdf:Bag>
            <rdf:li>clip art</rdf:li>
            <rdf:li>clipart</rdf:li>
            <rdf:li>girl kid writing</rdf:li>
          </rdf:Bag>
        </dc:subject>
      </cc:Work>
      <cc:License
         rdf:about="http://creativecommons.org/licenses/publicdomain/">
        <cc:permits
           rdf:resource="http://creativecommons.org/ns#Reproduction" />
        <cc:permits
           rdf:resource="http://creativecommons.org/ns#Distribution" />
        <cc:permits
           rdf:resource="http://creativecommons.org/ns#DerivativeWorks" />
      </cc:License>
    </rdf:RDF>
  </metadata>
</svg>
