<?xml version="1.0" encoding="utf-8"?>
<!-- Generator: Adobe Illustrator 12.0.1, SVG Export Plug-In . SVG Version: 6.00 Build 51448)  -->
<!DOCTYPE svg PUBLIC "-//W3C//DTD SVG 1.1//EN" "http://www.w3.org/Graphics/SVG/1.1/DTD/svg11.dtd" [
<!ENTITY ns_svg "http://www.w3.org/2000/svg">
<!ENTITY ns_xlink "http://www.w3.org/1999/xlink">
]>
<svg xmlns="http://www.w3.org/2000/svg" xmlns:xlink="http://www.w3.org/1999/xlink" xmlns:svg="http://www.w3.org/2000/svg" xmlns:dc="http://purl.org/dc/elements/1.1/" xmlns:cc="http://web.resource.org/cc/" xmlns:rdf="http://www.w3.org/1999/02/22-rdf-syntax-ns#" version="1.1" id="Layer_1" width="503.401" height="541.25" viewBox="0 0 503.401 541.25" overflow="visible" enable-background="new 0 0 503.401 541.25" xml:space="preserve">
<g>
	<path fill-rule="evenodd" clip-rule="evenodd" d="M223.987,51.029c4.543,4.455,6.119,11.878,8.999,17.998   c-5.651-0.348-6.429-5.569-10.999-6.999c-7.22,1.112-11.592,5.073-19.998,4.999C208.365,60.737,216.34,56.046,223.987,51.029z    M211.989,63.027c3.688-1.646,8.174-2.491,11.999-4c-0.156,2.821,2.826,2.506,3.999,4c-1.144-3.522-2.197-7.135-4.999-8.999   C220.13,57.19,211.989,60.333,211.989,63.027z"/>
	<path fill-rule="evenodd" clip-rule="evenodd" d="M251.983,51.029c8.492,4.173,14.492,10.838,22.997,14.998   c-6.609,2.591-13.834-2.815-19.997-4c-4.801,1.198-6.06,5.939-10.999,6.999C245.658,62.034,248.578,56.289,251.983,51.029z    M249.983,63.027c1.286-1.714,2.068-3.932,5-4c1.986,1.723,8.012,4.595,9.999,3c-4.887-2.113-7.585-6.414-12.999-7.999   C252.089,57.19,247.566,60.867,249.983,63.027z"/>
	<path fill-rule="evenodd" clip-rule="evenodd" fill="#FFEA53" d="M251.983,54.028c5.414,1.585,8.112,5.886,12.999,7.999   c-1.987,1.595-8.013-1.277-9.999-3c-2.932,0.067-3.714,2.286-5,4C247.566,60.867,252.089,57.19,251.983,54.028z"/>
	<path fill-rule="evenodd" clip-rule="evenodd" fill="#FFFFFF" d="M233.986,98.023c-1.895-2.772-2.538-6.794-6-7.999   c-6.204,1.794-6.313,9.684-6.999,16.998c-5.1,0.233-7.958,2.707-11.999,4c0.354-16.98,1.934-38.057,13.999-39.995   C231.633,75.045,232.126,87.217,233.986,98.023z"/>
	<path fill-rule="evenodd" clip-rule="evenodd" fill="#FFFFFF" d="M266.981,111.021c-3.479-2.187-7.981-3.35-11.998-4.999   c3.556-12.939-11.906-21.722-11.999-6c-1.285-10.957,2.921-25.069,10.999-29.996C265.723,76.285,266.67,93.335,266.981,111.021z"/>
	<path fill-rule="evenodd" clip-rule="evenodd" fill="#0000FF" d="M228.986,94.023c2.379,2.287,2.898,6.434,3,10.999   c-4.021-0.688-5.708,0.958-8.999,1c1.314-3.019,0.686-7.98,2-10.999C226.57,94.94,228.801,95.504,228.986,94.023z"/>
	<path fill-rule="evenodd" clip-rule="evenodd" fill="#0000FF" d="M250.983,94.023c0.682,3.985,2.529,6.803,2,11.999   c-3.291-0.042-4.978-1.688-8.999-1C244.825,99.863,244.668,93.708,250.983,94.023z"/>
	<path fill-rule="evenodd" clip-rule="evenodd" d="M297.978,127.019c27.81-3.238,40.159,15.759,32.996,37.995   c-2.757,8.559-16.217,21.694-25.997,28.997c-21.227,15.849-61.882,28.352-98.987,16.998c-18.294-5.598-39.884-19.515-50.994-31.996   c-4.335-4.871-10.139-13.442-10.999-17.998c-4.53-24.014,14.366-40.338,36.995-32.996c11.364,3.688,15.48,17.508,24.997,23.997   c15.729,10.725,41.136,11.943,59.992,2C280.062,146.591,280.477,135.728,297.978,127.019z M145.997,159.015   c3.198,14.264,18.811,27.271,33.996,36.996c30.206,19.342,71.537,24.061,105.987,6.999c13.904-6.886,45.548-26.583,44.994-49.994   c-0.347-14.653-13.211-29.598-32.996-23.997c-14.808,4.192-16.01,19-30.996,26.997c-21.359,11.396-50.256,7.033-64.992-4   c-11.811-8.843-15.604-25.002-33.996-22.997C152.38,130.721,142.81,144.8,145.997,159.015z"/>
	<path fill-rule="evenodd" clip-rule="evenodd" d="M258.982,205.009c-3.327,6.68-16.7,8.619-25.997,6   c-0.142-4.141,6.958-1.042,9.999-2c-8.573,3.298,3.578,1.384,6.999,0C250.532,206.222,251.499,206.302,258.982,205.009z"/>
	<path fill-rule="evenodd" clip-rule="evenodd" fill="#FFEA53" d="M251.983,356.99c11.132,3.41,0.285,19.854-6.999,9.999   C244.05,360.389,247.269,357.941,251.983,356.99z"/>
	<path fill-rule="evenodd" clip-rule="evenodd" d="M167.994,384.987c4.339,2.685,1.388,14.467,1,18.997   C165.681,400.479,170.191,391.705,167.994,384.987z"/>
	<path fill-rule="evenodd" clip-rule="evenodd" d="M177.993,399.985c4.824,1.696,4.213,10.059,3,14.998   C179.203,410.773,180.027,403.949,177.993,399.985z"/>
	<path fill-rule="evenodd" clip-rule="evenodd" d="M455.958,271.001c13.282,9.716,34.838,11.156,44.994,23.997   c3.303,46.511-36.707,11.741-51.993,4c5.162,11.799,16.047,35.326-4,36.995c-4.791,0.398-7.729-3.931-11.998-4   c-2.694-0.043-6.407,3.403-8.999,3c-8.293-1.291-10.785-10.176-17.998-13.998c-21.694,3.363-31.655-5.007-35.995-18.998   c-13.689,2.357-16.388-6.276-22.997-10.998c-12.937,1.51-22.442-4.293-31.996-3c-4.569-4.096-4.546-12.785-15.998-9.999   c3.528,21.566,12.299,44.754,17.998,65.992c3.728,13.89,4.903,25.404,11.998,36.995c9.44,15.424,34.16,35.505,18.998,60.992   c-6.049,10.168-20.8,10.211-23.997,24.997c21.76,5.626,32.149-7.983,46.994-15.998c14.435-7.793,39.883-12.407,61.992-6.999   c25.155,6.152,44.527,27.076,53.993,51.993c-12.606,13.301-35.759,14.853-60.992,15.998   c-59.829,2.718-126.153-8.241-167.979-24.997c-27.85,14.275-56.955,43.639-91.988,51.994c-9.109,2.172-19.04,1.504-28.996,2   c-27.161,1.353-62.059-1.317-65.992-26.997c-0.758-4.947,0.384-11.762,2-15.998c8.794-23.06,41.12-37.933,69.991-37.995   c5.883-5.246,5.933-9.945,3-17.998c8.05-9.425,16.118-16.671,17.998-30.996c3.724-28.389-7.625-61.398-5-90.988   c-3.173-1.471-6.767,5.204-11.999,4.999c5.787,24.988-20.781,20.02-30.996,27.997c-6.828,5.332-4.443,13.61-8.999,21.997   c-9.406-2.66-9.826,7.657-16.998,8.999c-14.704,2.749-19.573-13.754-19.998-29.996c-7.44,4.479-18.46,23.733-32.996,24.996   c-8.521,0.741-15.494-2.681-16.998-9.998c-3.635-17.684,16.115-24.757,23.997-33.996c-12.89,4.122-43.115,16.227-43.995-5.999   c-0.695-17.574,22.862-22.646,38.995-26.997c-17.982-8.979-5.111-38.216,22.997-25.996c-3.16-13.634,2.576-27.22,11.999-27.997   c12.444-1.026,11.714,13.496,15.998,23.997c32.254-9.407,61.542-21.781,80.99-43.995c-13.677-4.894-36.658-5.059-54.993-5.999   c-6.492-0.333-15.294,2.654-18.998-3c24.7-2.285,47.952-9.466,64.992-20.998c-11.802-11.529-26.885-19.775-36.995-32.996   c-8.479,3.78-19.998,4.372-25.997-2c-7.755-8.236-1.162-17.566-2-28.997c-0.786-10.719-9.05-20.013-16.998-23.997   c-6.819-3.418-14.836-3.343-20.997-8.999c-22.482-20.638-21.503-61.02-6.999-85.989C64.324,6.092,79.317-0.544,97.003,0.035   c33.77,1.105,53.867,26.406,61.992,52.993c7.286-5.517,20.283-2.593,20.998,6.999c22.949-29.714,94.613-31.156,115.986,1   c1.014-9.991,13.605-13.861,21.997-7.999c8.41-30.717,33.247-56.836,74.99-51.993c13.428,1.558,21.92,8.251,31.996,14.998   c17.99,31.568,10.996,77.27-16.998,90.988c-11.135,5.457-25.413,8.111-27.996,22.997c-1.394,8.027,2.582,14.535,1.999,20.998   c-1.254,13.916-15.105,21.896-29.996,13.998c-10.033,8.631-18.218,19.111-29.996,25.997c17.997,9.117,44.051,15.892,65.992,9.999   c0.801,5.134-1.072,7.594-2,10.999c-12.746,5.918-35.918,1.411-37.995,17.998c9.552,2.779,22.061,2.603,28.996,7.999   c8.675-3.792,19.161-3.495,29.996-3c-5.757-23.415,24.649-35.439,22.997-6c7.686-3.943,19.277-1.811,22.997,4   c1.369,6.072-7.054,6.431-2.999,11.999c20.148,0.774,57.984-4.289,52.993,17.998C499.62,277.877,472.926,274.634,455.958,271.001z    M286.979,56.028c0.625,0.504,0.817-1.351,0-2c-29.782-23.633-94.909-18.691-109.986,15.998c3.848,5.976,1.33,14.542-3,17.998   c3.239,1.427,4.135,5.198,4,9.999c-4.208,6.607-7.08,17.076-15.998,16.998c-6.904-0.061-7.343-5.029-12.998-8.999   c-21.764,1.68-39.429,20.411-31.996,43.994c3.955,12.549,23.979,28.908,39.995,39.995c16.675,11.544,37.434,21.273,55.993,24.997   c40.416,8.109,75.91-6.038,99.987-20.998c1.78-0.485-0.434-1.066-0.999-2c6.058,2.23,10.352-4.371,11.998-6.999   c-0.22,1.257-1.558,2.043,1,2c0.438-2.323,4.415-2.677,2-5c5.667-0.083,13.102-7.524,18.997-13.998   c5.57-6.118,12.192-14.259,13.998-20.998c5.788-21.595-11.565-38.938-32.995-40.995c-10.637,22.519-38.373-6.285-24.997-18.998   c-5.273-1.34-5.079-13.228-2-16.998C297.626,64.139,291.395,59.586,286.979,56.028z M132.999,15.033   c-21.578-16.624-62.101-17.756-78.99,2c-19.911,23.29-10.714,68.781,8.999,83.99c6.383,4.924,14.331,4.931,19.998,7.999   c7.101,3.845,13.77,12.374,14.998,19.998c1.459,9.061-2.658,16.771-2,21.997c1.297,10.291,14.12,20.004,25.997,11.999   c-15.996-19.893-5.385-56.915,20.997-57.993c-5.576-5.365,1.712-16.922-4-22.997c8.004-36.28-26.253-63.339-59.992-60.993   c-4.767,21.776,9.051,32.692,19.998,41.995c-15.606-5.725-24.147-18.514-21.998-41.995c-3.491-0.758-7.549,3.026-9.999,0   c26.489-9.709,63.187,7.534,72.991,34.996c2.982,0.289,6.856-7.122,14.998-4.999C149.73,35.089,144.912,24.211,132.999,15.033z    M379.968,154.016c1.05-4.589-1.878-11.453-2-16.998c-0.232-10.541,4.663-20.637,12.998-25.997   c9.568-6.153,19.113-6.383,24.997-11.999c16.478-15.724,24.782-63.015,5.999-82.989C410.363,3.699,381.465-1.639,361.97,5.034   c-22.251,7.617-33.255,24.616-40.995,45.995c8.004-1.005,11.888,2.111,14.998,5.999c9.305-26.001,44.4-46.788,72.991-34.996   c-4.367,0.701-5.632-1.701-9.999-1c3.905,21.438-5.848,37.332-21.997,41.995c11.628-8.758,26.192-21.618,19.998-41.995   c-32.205-2.106-56.175,20.166-62.992,49.994c0.52,4.146,5.046,4.285,3.999,9.999c-6.25,6.77,1.212,16.29-4.999,23.997   c19.863,1.954,34.717,23.741,27.996,45.994c-1.39,4.602-7.428,8.155-6.999,12.999C365.51,169.275,377.957,162.801,379.968,154.016z    M159.995,55.028c-7.721-5.247-17.285,0.105-18.998,6.999c0.259,5.073,3.714,6.951,5,10.999c-3.994,0.673-4.987,4.345-6,7.999   c0.961,3.705,4.667,4.666,6,7.999c-1.814,2.853-4.897,4.435-4,9.999c7.196,2.713,14.264,15.154,21.998,13.999   c6.619-0.989,7.27-10.538,11.999-15.998c0.779-6.112-4.329-6.336-5-10.999c6.896-1.781,6.788-10.992,3-15.998   C185.384,61.733,170.152,44.868,159.995,55.028z M315.976,55.028c-10.887-9.599-24.083,7.001-13.998,15.998   c-0.852,2.814-3.23,4.102-3,7.999c1.055,3.944,3.871,6.128,6.999,7.999c-2.124,2.875-5.533,4.465-5.999,8.999   c4.983,7.272,6.678,18.306,15.998,16.998c3.94-0.553,4.692-5.52,7.999-7.999c4.441-3.33,12.372-2.891,10.999-8.999   c-0.99-3.343-4.01-4.656-5-7.999c2.699-1.967,6.405-2.927,5.999-7.999c0.269-4.601-4.193-4.472-4.999-7.999   c6.028-5.365,4.022-16.185-3-18.998C322.239,51.96,320.034,54.42,315.976,55.028z M318.976,193.011   c-34.232,30.037-115.536,33.998-153.981,5c-16.476,12.854-38.716,19.944-65.992,21.997c22.607-3.212,73.046,14.271,87.989-8.999   c-0.611,9.721-9.563,11.101-16.998,13.998c11.759,3.997,13.764,14.21,21.998,19.998c26.999,18.978,49.353-12.343,79.99-12.999   c1.304-2.685-9.051-7.566-6-11.999c6.358,14.618,35.264,14.742,54.993,17.998c12.578,2.076,27.183,0.682,25.997-12.999   c-0.776-8.966-13.134-12.305-21.997-13.998c-9.332-1.783-20.5-0.406-23.997-4c17.459,0.888,38.804,0.98,46.994,14.998   c6.891-12.44,37.868-0.793,37.995-19.998C360.536,210.814,334.723,198.193,318.976,193.011z M407.964,242.005   c-3.561,6.657-14.747,10.309-17.997,15.998c-15.747,27.557,12.948,56.919,39.994,48.994c-8.029,20.133,14.457,36.099,24.997,19.997   c-0.213-13.385-7.435-27.256-12.998-28.996c11.148-8.909,7.913-28.183,0-37.996c5.546,13.389,58.572,19.099,59.992,1   c0.236-3.01-2.711-8.085-4.999-9.999c-15.289-12.786-56.823,3.979-75.99-3c5.051,12.6-0.771,28.342-9.999,28.996   c7.313-5.984,12.657-15.46,7.999-27.996c7.923-6.396,13.57-26.68,3.999-35.996C403.596,210.763,413.601,231.467,407.964,242.005z    M429.961,232.006c0.152,6.383-5.832,11.182-4.999,14.998c7.544,1.583,14.125,0.534,21.997,0c-1.223-3.666,0.826-8.685,4-12.998   C447.084,228.773,435.613,227.323,429.961,232.006z M172.994,230.006c-14.148,14.849-33.041,24.952-51.994,34.996   c15.571,3.339,5.029,25.706,8.999,37.995c3.409,10.554,12.903,10.683,17.998,19.998c4.342-1.657,6.795-5.203,10.999-7   c3.195-30.134,13.491-53.167,22.997-76.99C180.235,234.763,177.235,231.764,172.994,230.006z M296.978,236.005   c-3.97,12.062-2.701,28.164,1,39.996c3.901,0.413,9.089,0.3,13.999,1.999c2.671,1.329,1.312,6.687,2.999,8.999   c10.276-2.016,20.274,3.295,32.996,2c6.238,4.565,11.034,14.305,21.997,10.998c2.438-13.652,10.157-20.113,6.999-31.996   c-1.396-5.253-7.111-8.408-7.999-13.998c-1.533-9.659,3.52-10.773,5.999-15.998c-8.743-2.255-17.587-4.41-26.996-6   C340.315,249.287,313.156,238.491,296.978,236.005z M349.972,416.982c-2.226-11.793-14.846-23.104-20.998-29.996   c-0.14-3.595-6.08-14.037-8.999-14.998c-2.002-18.576-9.576-37.005-13.998-56.993c-6.028-27.252-18.659-55.091-10.998-78.99   c-14.615-3-37.756-6.716-44.995,7c2.072,0.595,6.569-1.236,7,1c0.972,4.096-2.476,6.406,0,8.999   c19.966-5.795,21.337,14.325,12.998,22.998c0.575,2.09,2.479,2.854,2,5.999c-3.96,4.211-5.113,10.087-5,15.998   c-5.13,0.797-6.56-2.105-10.998-2c-1.406,7.26-10.712,6.619-7.999,17.998c12.656-8.648,27.519,4.056,17.997,16.997   c8.284,15.241-7.414,16.896-14.998,20.998c0.707,5.715,7.121,3.768,7.999,9.998c0.754,5.343-1.635,7.065-5.999,10.999   c-1.44,11.203,19.738,14.398,18.998,23.997c-0.256,3.312-3.331,8.562-9.999,4.999c-2.021,13.027,4.609,27.109,4.999,41.995   c0.437,16.652-7.556,27.464-12.998,39.995c7.149-6.279,7.727-14.357,16.998-16.998c14.341-4.085,33.659,7.072,50.993,2   C326.162,447.208,355.416,445.844,349.972,416.982z M370.969,249.004c-1.093,8.287,6.385,11.737,7.999,19.998   c2.615,13.379-6.112,20.649-6.999,32.996c4.592,12.739,14.245,20.417,34.995,16.998c8.105,3.448,11.023,16.671,22.997,12.998   c0.907-5.413-6.035-14.238-1.999-22.997c-22.824,3.628-39.883-8.184-42.995-25.996c-4.203-24.06,11.675-32.533,21.997-45.995   C390.86,235.425,372.559,236.944,370.969,249.004z M159.995,324.994c0.111,33.714,15.809,84.902-2,107.986   c-2.948,3.822-13.909,6.744-7.999,15.998c17.383-4.614,18.745-25.249,23.997-41.994c-1.97,13.719-2.039,24.435-7.999,32.995   c-5.341,7.673-16.73,9.779-18.998,19.998c9.987,0.679,16.008,5.323,22.997,8.999c7.701-2.817,16.04-5.481,23.997-3   c5.394,1.683,8.772,9.563,15.998,10.999c9.787,1.943,19.341-2.082,28.997-2c0.214,6.118,7.146,5.519,4.999,13.998   c22.14-14.535,25.633-54.755,13.998-81.989c-4.514,0.848-5.641-1.692-6.999-4c-1.218,2.781-6.141,1.857-9.999,2   c-1.83-4.503-4.347-8.317-5-13.998c5.514-4.485,9.43-10.568,14.998-14.998c-1.663-6.607-9.333-6.039-8.999-12.999   c0.248-5.155,4.811-5.217,7.999-9.998c-0.85-2.934-2.516,1.3-4.999,0c0-2,0-4,0-6c-3.22-0.22-4.23,1.769-7.999,1   c2.567-10.565-10.293-5.705-8.999-14.998c0.021-3.688,10.088-2.519,7.999-4.999c-2.801,1.149-5.198,1.149-7.999,0   c-3.276-9.635,0.821-15.471,7.999-14.998c5.953,0.392,5.156,7.13,9.999,5.999c2.175-4.463-0.994-8.769,0-14.998   c-7.162-6.17-15.847-10.816-24.997-14.998c-2.72-5.947,2.077-10.619,4-14.998c-3.705-0.628-7.97-0.695-8.999-4   c-1.289-16.79,14.777-18.187,26.997-15.998c2.896-2.003-2.883-3.704-2-7c2.211-2.122,9.174,0.509,8-4.999   c-12.194,2.821-31.298,14.645-49.994,8.999c-6.679-2.017-9.631-8.204-15.998-10.999   C176.111,265.396,159.884,291.025,159.995,324.994z M244.984,247.004c-2.276,2.394,2.193,3.682,1,7.999   c-6.898,2.955-10.813,3.09-14.998-1c-8.096,1.569-12.394,6.938-12.999,15.998c2.198,2.135,7.875,0.791,8.999,4   c-1.485,5.896-7.074,10.032-3,15.998c12.993-0.661,14.911,9.752,24.997,11.998c3.266-2.066,3.316-7.348,7.999-7.999   c2.675,0.991,5.271,2.061,8.998,2c-3.29-6.517,2.034-10.662,4-14.998c-6.646-8.523,8.311-15.597,1-24.997   c-5.237-3.526-13.56,1.759-16.998-4C256.65,241.064,252.618,246.197,244.984,247.004z M67.007,282   c5.862,7.904,14.3,5.32,18.998,11.998c0.598,5.931-1.754,8.911-1,14.998c2.025,3.975,6.592,5.407,9.999,7.999   c-16.973,1.821-8.387-18.995-12.999-24.997c-9.196,1.983-17.834,9.271-29.996,10.999c-19.438,2.761-51.004,6.977-49.994,25.997   c1.375,25.903,48.872-0.699,58.993-4c0.61-5.389-1.799-13.797,3-14.998c-3.921,17.727,3.807,31.18,15.998,35.996c-2,0-4,0-5.999,0   c-5.438,15.727,1.808,42.046,19.998,33.995c8.008-10.269,3.334-25.135-4-32.996c33.963,2.458,42.689-47.016,16.998-59.992   c-2.667,0-5.333,0-7.999,0c-11.705-6.626-11.826-24.836-18.998-35.996C62.408,247.373,58.995,271.195,67.007,282z M111.001,354.99   c6.269-9.387,21.758-5.546,28.997-11.998c12.787-11.397,1.018-29.224-7.999-30.996c-9.161-12.251,3.312-39.976-11.999-45.994   c-12.759-0.761-17.515,6.482-27.997,7.999c1.374,4.959,4.252,8.412,7.999,10.998c37.688,2.86,28.146,65.97-6.999,63.992   c7.994,3.006,4.993,17.004,8.999,23.997C111.859,370.993,105.334,363.478,111.001,354.99z M446.959,295.998   c13.658,1.154,28.263,23.526,41.995,21.997c8.707-0.97,12.787-13.361,9.999-20.997c-3.682-10.083-43.394-22.063-48.994-23.997   C452.822,280.547,450.134,291.161,446.959,295.998z M63.007,281c0.779-0.221,1.163-0.838,1-2   c-5.712-3.286-15.015-2.982-23.997-2.999c-26.645,22.273,23.143,33.069,35.995,13.998C69.213,288.841,64.861,281.287,63.007,281z    M249.983,314.995c-1.967,2.699-1.807,7.526-6.999,7c-1.866-8.557-15.551-9.243-14.999,1.999c1.406,0.261,1.14,2.193,2,3   c5.326,1.617,8.947-3.659,11.999-1c-0.697,5.635-7.179,5.486-11.999,6.999c-0.738,8.07,11.398,3.267,8.999,12.999   c2.833-0.168,4.167-1.833,6.999-2c0,1.999,0,3.999,0,5.999c6.377-4.288,19.638-1.693,20.997-10.999   C262.27,327.751,272.711,306.273,249.983,314.995z M60.008,327.994c-10.644,6.038-39.905,23.394-37.996,38.995   c0.483,3.946,4.899,9.135,7.999,9.999c19.433,5.413,35.931-24.809,41.995-32.996C66.304,340.362,65.333,332,60.008,327.994z    M244.984,366.989c7.284,9.855,18.131-6.589,6.999-9.999C247.269,357.941,244.05,360.389,244.984,366.989z M237.985,391.986   c1.246,4.086,2.65,8.016,5,10.998c1.667,0,3.333,0,5,0c2.426-1.351,0.623-1.998,1.999-2.999c1.334,0,2.667,0,4,0   c-0.418,3.417,0.302,5.697,3.999,4.999c0.735-5.488,4.504-5.321,9.999-3.999c0.429-1.904,2.154-2.513,2-5   c-6.119-3.88-6.792-13.205-17.998-11.998c0.39-1.428,1.2-1.687,0-3C242.904,380.24,245.088,390.757,237.985,391.986z    M421.962,443.979c-32.391-3.49-51.87,8.689-70.991,22.997c0.359,2.874,1.68,9.439-2.999,11.999   c-10.398,4.548-17.508-3.153-24.997-2c-10.453,1.609-13.582,16.731-26.996,15.998c41.165,10.209,108.957,18.74,158.979,10.998   c11.17-1.729,22.329-6.486,28.997-13.998C471.122,471.003,451.95,447.21,421.962,443.979z M195.991,498.973   c-16.64-9.503-26.405-36.055-45.995-35.995c0.61-0.057,1.184-0.149,1-1c-31.93-3.05-55.191,10.641-69.991,27.996   c32.398-21.396,65.06-5.761,81.99,14.998c2.825,3.464,5.264,9.129,8.999,11.999c20.831,16.005,48.761-18.677,64.992-23.997   c-6.255,0.256-8.199-3.8-13.998-4C220.154,498.472,209.528,500.179,195.991,498.973z M207.989,478.976   c-7.757-7.776-23.801-17.46-36.996-7.999c11.774,9.949,21.441,35.537,45.994,22.997c2.898-1.435,1.828-6.838,5-7.999   c6.431,0.796,13.593,8.48,19.998,2.999C241.228,471.356,222.484,479.681,207.989,478.976z M309.977,471.976   c-19.612,0.031-44.612-11.767-49.994,9.999c5.999,4.896,11.554,0,18.998,1c8.019,1.077,13,8.078,20.997,6.999   c8.161-1.101,13.851-13.697,21.997-14.998c11.548-1.844,24.283,12.599,27.997-3.999C338.52,465.24,324.541,471.953,309.977,471.976   z M154.996,503.972c-7.537-8.479-20.054-17.165-38.995-17.997c-13.216-0.581-40.44,10.64-42.995,19.997   c-2.124,7.779,4.771,18.473,9.999,22.997c21.945,18.99,83.853,12.445,104.987-2C166.857,529.176,163.247,513.254,154.996,503.972z    M290.979,489.974c-6.541-0.457-8.636-5.362-15.998-4.999C278.065,488.241,286.583,491.346,290.979,489.974z"/>
	<path fill-rule="evenodd" clip-rule="evenodd" fill="#FFEA53" d="M222.987,54.028c2.802,1.864,3.855,5.477,4.999,8.999   c-1.173-1.494-4.155-1.178-3.999-4c-3.825,1.508-8.311,2.354-11.999,4C211.989,60.333,220.13,57.19,222.987,54.028z"/>
	<path fill-rule="evenodd" clip-rule="evenodd" fill="#FFEA53" d="M327.974,53.028c7.022,2.812,9.028,13.633,3,18.998   c0.806,3.527,5.268,3.398,4.999,7.999c0.406,5.072-3.3,6.032-5.999,7.999c0.99,3.343,4.01,4.656,5,7.999   c1.373,6.108-6.558,5.669-10.999,8.999c-3.307,2.479-4.059,7.446-7.999,7.999c-9.32,1.308-11.015-9.726-15.998-16.998   c0.466-4.534,3.875-6.124,5.999-8.999c-3.128-1.871-5.944-4.054-6.999-7.999c-0.23-3.897,2.148-5.185,3-7.999   c-10.085-8.997,3.111-25.597,13.998-15.998C320.034,54.42,322.239,51.96,327.974,53.028z"/>
	<path fill-rule="evenodd" clip-rule="evenodd" fill="#FFEA53" d="M173.993,70.026c3.789,5.006,3.896,14.217-3,15.998   c0.67,4.662,5.779,4.886,5,10.999c-4.729,5.46-5.379,15.009-11.999,15.998c-7.734,1.155-14.801-11.285-21.998-13.999   c-0.897-5.563,2.186-7.146,4-9.999c-1.333-3.333-5.039-4.294-6-7.999c1.013-3.654,2.006-7.326,6-7.999   c-1.285-4.048-4.74-5.926-5-10.999c1.713-6.894,11.277-12.246,18.998-6.999C170.152,44.868,185.384,61.733,173.993,70.026z"/>
	<path fill-rule="evenodd" clip-rule="evenodd" d="M237.985,105.022c5.525-11.052,2.347-35.652,14.998-36.996   c14.467-1.536,16.395,29.337,14.998,42.995c4.967,5.602,11.099,8.248,10.999,16.998c-0.33,28.741-85.949,33.42-80.99-6   c2.736-4.263,7.068-6.93,9.999-10.999c-0.154-15.072,0.706-42.995,13.998-42.995C235.613,68.026,232.958,93.374,237.985,105.022z    M246.984,146.017c6.076-0.711,29.748-2.758,29.996-17.998c0.097-5.906-6.895-12.985-9.999-14.998   c-18.13-11.757-67.083-8.196-67.991,14.998c-0.531,13.577,29.935,23.682,48.994,18.998   C246.951,147.323,245.404,146.202,246.984,146.017z M222.987,71.026c-12.064,1.938-13.644,23.015-13.999,39.995   c4.041-1.292,6.899-3.767,11.999-4c0.686-7.313,0.795-15.203,6.999-16.998c3.461,1.205,4.105,5.227,6,7.999   C232.126,87.217,231.633,75.045,222.987,71.026z M253.983,70.026c-8.077,4.927-12.283,19.039-10.999,29.996   c0.093-15.722,15.554-6.939,11.999,6c4.017,1.649,8.519,2.812,11.998,4.999C266.67,93.335,265.723,76.285,253.983,70.026z    M224.987,95.023c-1.314,3.019-0.686,7.98-2,10.999c3.291-0.042,4.978-1.688,8.999-1c-0.102-4.564-0.621-8.712-3-10.999   C228.801,95.504,226.57,94.94,224.987,95.023z M243.984,105.022c4.021-0.688,5.708,0.958,8.999,1c0.529-5.195-1.318-8.014-2-11.999   C244.668,93.708,244.825,99.863,243.984,105.022z"/>
	<path fill-rule="evenodd" clip-rule="evenodd" d="M170.994,149.017c-2.921,1.079-3.238,4.761-3,8.999   c-4.617-5.885,1.529-15.804,10.999-13.998c0.302,3.634-5.331,1.335-6.999,3c14.127,22.258,40.171,39.962,76.991,35.996   c25.171-2.712,43.105-18.967,54.992-34.996c-2.583-3.16-6.265,1-8.998,1c4.335-8.149,18.357-2.454,15.998,7.999   c-3.735,0.068-1.047-6.286-4-7c-17.171,28.571-41.31,61.342-81.99,56.993c-1.539-0.529-0.063-1.043,1-1   C201.458,193.209,180.985,176.354,170.994,149.017z M228.986,185.012c-21.908-1.911-37.879-13.915-49.994-22.997   c8.998,12.333,18.076,24.586,31.996,31.996c4.209-7.576,16.51-7.046,21.997-1c6.845-5.014,19.074-0.335,17.998,8.999   c20.243-8.421,38.069-24.588,45.994-41.995C283.886,176.844,256.225,187.387,228.986,185.012z M213.988,196.011   c7.869,6.474,23.819,13.927,35.995,6.999c-0.478-9.922-12.557-12.34-19.997-6.999C228.673,188.831,214.938,187.854,213.988,196.011   z"/>
	<path fill-rule="evenodd" clip-rule="evenodd" d="M296.978,160.015c-7.925,17.406-25.751,33.573-45.994,41.995   c1.076-9.334-11.153-14.013-17.998-8.999c-5.487-6.046-17.788-6.576-21.997,1c-13.92-7.41-22.998-19.664-31.996-31.996   c12.114,9.082,28.085,21.086,49.994,22.997C256.225,187.387,283.886,176.844,296.978,160.015z"/>
	<path fill-rule="evenodd" clip-rule="evenodd" fill="#E31836" d="M167.994,129.019c18.391-2.005,22.185,14.154,33.996,22.997   c14.736,11.032,43.632,15.396,64.992,4c14.986-7.996,16.188-22.805,30.996-26.997c19.785-5.602,32.649,9.344,32.996,23.997   c0.554,23.412-31.09,43.108-44.994,49.994c-34.45,17.062-75.781,12.343-105.987-6.999c-15.185-9.724-30.798-22.732-33.996-36.996   C142.81,144.8,152.38,130.721,167.994,129.019z M225.987,206.009c-1.063-0.043-2.539,0.471-1,1   c40.68,4.349,64.819-28.422,81.99-56.993c2.953,0.713,0.265,7.067,4,7c2.359-10.453-11.663-16.148-15.998-7.999   c2.733,0,6.415-4.16,8.998-1c-11.887,16.029-29.821,32.284-54.992,34.996c-36.819,3.967-62.863-13.738-76.991-35.996   c1.668-1.665,7.301,0.635,6.999-3c-9.47-1.806-15.616,8.113-10.999,13.998c-0.239-4.238,0.079-7.92,3-8.999   C180.985,176.354,201.458,193.209,225.987,206.009z M249.983,209.009c-3.421,1.384-15.571,3.298-6.999,0   c-3.042,0.958-10.141-2.141-9.999,2c9.296,2.619,22.669,0.681,25.997-6C251.499,206.302,250.532,206.222,249.983,209.009z"/>
	<path fill-rule="evenodd" clip-rule="evenodd" fill="#FFFFFF" d="M422.962,213.008c9.571,9.315,3.924,29.599-3.999,35.996   c4.658,12.536-0.686,22.012-7.999,27.996c9.229-0.654,15.05-16.396,9.999-28.996c19.167,6.978,60.701-9.786,75.99,3   c2.288,1.914,5.235,6.989,4.999,9.999c-1.42,18.099-54.446,12.389-59.992-1c7.913,9.813,11.148,29.086,0,37.996   c5.563,1.74,12.785,15.611,12.998,28.996c-10.54,16.102-33.026,0.136-24.997-19.997c-27.046,7.925-55.741-21.438-39.994-48.994   c3.25-5.689,14.437-9.341,17.997-15.998C413.601,231.467,403.596,210.763,422.962,213.008z"/>
	<path fill-rule="evenodd" clip-rule="evenodd" fill="#FFFFFF" d="M80.005,251.003c7.172,11.16,7.293,29.37,18.998,35.996   c2.666,0,5.333,0,7.999,0c25.691,12.977,16.965,62.45-16.998,59.992c7.334,7.861,12.008,22.728,4,32.996   c-18.189,8.051-25.436-18.269-19.998-33.995c2,0,4,0,5.999,0c-12.191-4.816-19.919-18.27-15.998-35.996   c-4.798,1.201-2.389,9.609-3,14.998c-10.121,3.301-57.617,29.903-58.993,4c-1.01-19.021,30.556-23.236,49.994-25.997   c12.162-1.728,20.8-9.016,29.996-10.999c4.612,6.002-3.974,26.818,12.999,24.997c-3.407-2.592-7.974-4.024-9.999-7.999   c-0.754-6.087,1.598-9.067,1-14.998c-4.698-6.678-13.136-4.094-18.998-11.998C58.995,271.195,62.408,247.373,80.005,251.003z"/>
	<path fill-rule="evenodd" clip-rule="evenodd" fill="#FFFFFF" d="M449.959,273.001c5.601,1.934,45.312,13.914,48.994,23.997   c2.788,7.636-1.292,20.027-9.999,20.997c-13.732,1.529-28.337-20.843-41.995-21.997   C450.134,291.161,452.822,280.547,449.959,273.001z"/>
	<path fill-rule="evenodd" clip-rule="evenodd" fill="#FFFFFF" d="M72.006,343.992c-6.063,8.188-22.562,38.409-41.995,32.996   c-3.1-0.864-7.516-6.053-7.999-9.999c-1.91-15.602,27.352-32.957,37.996-38.995C65.333,332,66.304,340.362,72.006,343.992z"/>
	<path fill-rule="evenodd" clip-rule="evenodd" d="M405.964,448.979c-2.311-4.153,24.729-0.696,13.999,0   C416.418,447.528,409.509,447.528,405.964,448.979z"/>
	<path fill-rule="evenodd" clip-rule="evenodd" fill="#FFEA53" d="M274.98,484.975c7.362-0.363,9.457,4.542,15.998,4.999   C286.583,491.346,278.065,488.241,274.98,484.975z"/>
	<path fill-rule="evenodd" clip-rule="evenodd" fill="#F8B9CD" d="M154.996,51.029c-8.142-2.123-12.016,5.288-14.998,4.999   c-9.804-27.462-46.501-44.705-72.991-34.996c2.449,3.026,6.507-0.758,9.999,0c-2.15,23.481,6.392,36.27,21.998,41.995   c-10.946-9.303-24.764-20.219-19.998-41.995c33.739-2.346,67.997,24.713,59.992,60.993c5.712,6.075-1.577,17.632,4,22.997   c-26.382,1.078-36.993,38.1-20.997,57.993c-11.877,8.005-24.7-1.708-25.997-11.999c-0.658-5.226,3.459-12.936,2-21.997   c-1.228-7.624-7.897-16.153-14.998-19.998c-5.667-3.068-13.614-3.075-19.998-7.999c-19.713-15.208-28.91-60.7-8.999-83.99   c16.89-19.755,57.412-18.624,78.99-2C144.912,24.211,149.73,35.089,154.996,51.029z"/>
	<path fill-rule="evenodd" clip-rule="evenodd" fill="#F8B9CD" d="M353.971,164.015c-0.429-4.844,5.609-8.397,6.999-12.999   c6.721-22.253-8.133-44.041-27.996-45.994c6.211-7.708-1.251-17.228,4.999-23.997c1.047-5.713-3.479-5.853-3.999-9.999   c6.817-29.828,30.787-52.101,62.992-49.994c6.194,20.377-8.37,33.237-19.998,41.995c16.149-4.663,25.902-20.557,21.997-41.995   c4.367-0.701,5.632,1.701,9.999,1c-28.591-11.792-63.687,8.995-72.991,34.996c-3.11-3.888-6.994-7.004-14.998-5.999   c7.74-21.379,18.744-38.378,40.995-45.995c19.495-6.673,48.394-1.335,59.992,10.999c18.783,19.975,10.479,67.265-5.999,82.989   c-5.884,5.616-15.429,5.846-24.997,11.999c-8.335,5.36-13.23,15.457-12.998,25.997c0.122,5.545,3.05,12.409,2,16.998   C377.957,162.801,365.51,169.275,353.971,164.015z"/>
	<path fill-rule="evenodd" clip-rule="evenodd" fill="#FFFFFF" d="M299.978,70.026c-3.079,3.77-3.273,15.658,2,16.998   c-13.376,12.713,14.36,41.517,24.997,18.998c21.43,2.057,38.783,19.4,32.995,40.995c-1.806,6.738-8.428,14.88-13.998,20.998   c-5.896,6.474-13.33,13.915-18.997,13.998c2.415,2.323-1.562,2.677-2,5c-2.558,0.043-1.22-0.743-1-2   c-1.646,2.628-5.94,9.229-11.998,6.999c0.565,0.934,2.779,1.515,0.999,2c-24.077,14.96-59.571,29.106-99.987,20.998   c-18.559-3.724-39.318-13.453-55.993-24.997c-16.016-11.087-36.04-27.446-39.995-39.995c-7.433-23.583,10.232-42.314,31.996-43.994   c5.655,3.97,6.094,8.938,12.998,8.999c8.918,0.079,11.791-10.391,15.998-16.998c0.135-4.801-0.76-8.572-4-9.999   c4.33-3.455,6.848-12.021,3-17.998c15.077-34.689,80.204-39.631,109.986-15.998c0.817,0.649,0.625,2.503,0,2   C291.395,59.586,297.626,64.139,299.978,70.026z M201.99,67.026c8.406,0.074,12.777-3.887,19.998-4.999   c4.569,1.43,5.348,6.651,10.999,6.999c-2.879-6.119-4.455-13.542-8.999-17.998C216.34,56.046,208.365,60.737,201.99,67.026z    M243.984,69.026c4.939-1.06,6.198-5.801,10.999-6.999c6.163,1.184,13.388,6.59,19.997,4c-8.505-4.16-14.505-10.825-22.997-14.998   C248.578,56.289,245.658,62.034,243.984,69.026z M221.987,68.026c-13.292,0-14.152,27.922-13.998,42.995   c-2.931,4.068-7.263,6.736-9.999,10.999c-4.958,39.42,80.66,34.741,80.99,6c0.1-8.75-6.032-11.396-10.999-16.998   c1.396-13.657-0.531-44.53-14.998-42.995c-12.651,1.343-9.473,25.944-14.998,36.996C232.958,93.374,235.613,68.026,221.987,68.026z    M265.981,154.016c-18.856,9.944-44.263,8.725-59.992-2c-9.517-6.489-13.633-20.31-24.997-23.997   c-22.629-7.343-41.525,8.981-36.995,32.996c0.859,4.556,6.663,13.127,10.999,17.998c11.109,12.481,32.7,26.398,50.994,31.996   c37.105,11.354,77.761-1.149,98.987-16.998c9.78-7.302,23.24-20.438,25.997-28.997c7.163-22.236-5.187-41.233-32.996-37.995   C280.477,135.728,280.062,146.591,265.981,154.016z"/>
	<path fill-rule="evenodd" clip-rule="evenodd" fill="#E31836" d="M247.984,147.017c-19.06,4.685-49.525-5.421-48.994-18.998   c0.908-23.194,49.861-26.755,67.991-14.998c3.104,2.013,10.096,9.092,9.999,14.998c-0.248,15.239-23.92,17.286-29.996,17.998   C245.404,146.202,246.951,147.323,247.984,147.017z"/>
	<path fill-rule="evenodd" clip-rule="evenodd" fill="#F8B9CD" d="M229.986,196.011c7.44-5.341,19.52-2.923,19.997,6.999   c-12.176,6.928-28.126-0.525-35.995-6.999C214.938,187.854,228.673,188.831,229.986,196.011z"/>
	<path fill-rule="evenodd" clip-rule="evenodd" fill="#FFFFFF" d="M385.967,202.01c-0.127,19.204-31.104,7.557-37.995,19.998   c-8.19-14.018-29.535-14.11-46.994-14.998c3.497,3.593,14.665,2.216,23.997,4c8.863,1.693,21.221,5.032,21.997,13.998   c1.186,13.68-13.419,15.074-25.997,12.999c-19.729-3.256-48.635-3.38-54.993-17.998c-3.051,4.432,7.304,9.313,6,11.999   c-30.637,0.656-52.992,31.976-79.99,12.999c-8.233-5.787-10.239-16.001-21.998-19.998c7.435-2.897,16.387-4.277,16.998-13.998   c-14.943,23.27-65.381,5.786-87.989,8.999c27.276-2.053,49.516-9.143,65.992-21.997c38.445,28.999,119.749,25.038,153.981-5   C334.723,198.193,360.536,210.814,385.967,202.01z"/>
	<path fill-rule="evenodd" clip-rule="evenodd" fill="#E31836" d="M450.959,234.006c-3.174,4.313-5.223,9.333-4,12.998   c-7.872,0.534-14.453,1.583-21.997,0c-0.833-3.816,5.151-8.615,4.999-14.998C435.613,227.323,447.084,228.773,450.959,234.006z"/>
	<path fill-rule="evenodd" clip-rule="evenodd" fill="#FFEA53" d="M347.972,232.006c9.409,1.589,18.253,3.745,26.996,6   c-2.479,5.225-7.532,6.339-5.999,15.998c0.888,5.59,6.604,8.745,7.999,13.998c3.158,11.882-4.562,18.343-6.999,31.996   c-10.963,3.307-15.759-6.433-21.997-10.998c-12.722,1.295-22.72-4.016-32.996-2c-1.688-2.312-0.328-7.67-2.999-8.999   c-4.91-1.699-10.098-1.586-13.999-1.999c-3.701-11.832-4.97-27.934-1-39.996C313.156,238.491,340.315,249.287,347.972,232.006z"/>
	<path fill-rule="evenodd" clip-rule="evenodd" fill="#E31836" d="M406.964,237.005c-10.322,13.462-26.2,21.935-21.997,45.995   c3.112,17.812,20.171,29.624,42.995,25.996c-4.036,8.759,2.906,17.584,1.999,22.997c-11.974,3.673-14.892-9.55-22.997-12.998   c-20.75,3.419-30.403-4.259-34.995-16.998c0.887-12.347,9.614-19.616,6.999-32.996c-1.614-8.26-9.092-11.711-7.999-19.998   C372.559,236.944,390.86,235.425,406.964,237.005z"/>
	<path fill-rule="evenodd" clip-rule="evenodd" fill="#FFEA53" d="M182.992,240.005c6.367,2.795,9.319,8.982,15.998,10.999   c18.696,5.646,37.8-6.177,49.994-8.999c1.175,5.508-5.788,2.877-8,4.999c-0.883,3.295,4.896,4.997,2,7   c-12.219-2.189-28.286-0.792-26.997,15.998c1.029,3.304,5.294,3.372,8.999,4c-1.922,4.379-6.719,9.051-4,14.998   c9.15,4.182,17.835,8.828,24.997,14.998c-0.994,6.229,2.175,10.535,0,14.998c-4.843,1.131-4.046-5.607-9.999-5.999   c-7.178-0.473-11.275,5.363-7.999,14.998c2.801,1.149,5.198,1.149,7.999,0c2.089,2.48-7.978,1.311-7.999,4.999   c-1.294,9.293,11.566,4.433,8.999,14.998c3.769,0.769,4.779-1.22,7.999-1c0,2,0,4,0,6c2.483,1.3,4.149-2.934,4.999,0   c-3.188,4.781-7.75,4.843-7.999,9.998c-0.334,6.96,7.335,6.392,8.999,12.999c-5.568,4.43-9.484,10.513-14.998,14.998   c0.652,5.681,3.169,9.495,5,13.998c3.857-0.143,8.781,0.781,9.999-2c1.358,2.308,2.485,4.848,6.999,4   c11.635,27.234,8.142,67.454-13.998,81.989c2.147-8.479-4.785-7.88-4.999-13.998c-9.656-0.082-19.21,3.943-28.997,2   c-7.226-1.436-10.604-9.316-15.998-10.999c-7.957-2.481-16.296,0.183-23.997,3c-6.989-3.676-13.01-8.32-22.997-8.999   c2.268-10.219,13.656-12.325,18.998-19.998c5.96-8.561,6.029-19.276,7.999-32.995c-5.252,16.745-6.614,37.38-23.997,41.994   c-5.91-9.254,5.051-12.176,7.999-15.998c17.809-23.084,2.111-74.272,2-107.986C159.884,291.025,176.111,265.396,182.992,240.005z    M168.994,403.984c0.388-4.53,3.339-16.312-1-18.997C170.191,391.705,165.681,400.479,168.994,403.984z M180.992,414.983   c1.214-4.939,1.824-13.302-3-14.998C180.027,403.949,179.203,410.773,180.992,414.983z"/>
	<path fill-rule="evenodd" clip-rule="evenodd" fill="#E31836" d="M181.992,239.005c-9.506,23.823-19.802,46.856-22.997,76.99   c-4.203,1.797-6.656,5.343-10.999,7c-5.094-9.315-14.588-9.444-17.998-19.998c-3.97-12.289,6.572-34.656-8.999-37.995   c18.953-10.043,37.846-20.147,51.994-34.996C177.235,231.764,180.235,234.763,181.992,239.005z"/>
	<path fill-rule="evenodd" clip-rule="evenodd" fill="#FFFFFF" d="M253.983,252.003c3.438,5.758,11.761,0.473,16.998,4   c7.311,9.4-7.646,16.474-1,24.997c-1.966,4.336-7.29,8.481-4,14.998c-3.727,0.061-6.323-1.009-8.998-2   c-4.683,0.651-4.733,5.933-7.999,7.999c-10.086-2.246-12.004-12.659-24.997-11.998c-4.074-5.966,1.515-10.102,3-15.998   c-1.124-3.209-6.801-1.864-8.999-4c0.605-9.061,4.902-14.429,12.999-15.998c4.185,4.09,8.1,3.955,14.998,1   c1.193-4.317-3.276-5.605-1-7.999C252.618,246.197,256.65,241.064,253.983,252.003z"/>
	<path fill-rule="evenodd" clip-rule="evenodd" fill="#E31836" d="M321.975,468.977c-17.334,5.072-36.652-6.085-50.993-2   c-9.271,2.641-9.849,10.719-16.998,16.998c5.442-12.531,13.435-23.343,12.998-39.995c-0.39-14.886-7.021-28.968-4.999-41.995   c6.668,3.562,9.743-1.687,9.999-4.999c0.74-9.599-20.438-12.794-18.998-23.997c4.364-3.934,6.753-5.656,5.999-10.999   c-0.878-6.23-7.292-4.283-7.999-9.998c7.584-4.103,23.282-5.757,14.998-20.998c9.521-12.941-5.341-25.646-17.997-16.997   c-2.713-11.379,6.593-10.738,7.999-17.998c4.438-0.105,5.868,2.797,10.998,2c-0.113-5.911,1.04-11.787,5-15.998   c0.479-3.146-1.425-3.909-2-5.999c8.339-8.673,6.968-28.793-12.998-22.998c-2.476-2.593,0.972-4.903,0-8.999   c-0.431-2.236-4.928-0.405-7-1c7.239-13.716,30.38-9.999,44.995-7c-7.661,23.898,4.97,51.738,10.998,78.99   c4.422,19.988,11.996,38.417,13.998,56.993c2.919,0.961,8.859,11.403,8.999,14.998c6.152,6.892,18.772,18.203,20.998,29.996   C355.416,445.844,326.162,447.208,321.975,468.977z"/>
	<path fill-rule="evenodd" clip-rule="evenodd" fill="#FFEA53" d="M102.002,372.988c-4.006-6.993-1.005-20.991-8.999-23.997   c35.145,1.978,44.687-61.132,6.999-63.992c-3.747-2.586-6.625-6.039-7.999-10.998c10.482-1.517,15.238-8.76,27.997-7.999   c15.311,6.019,2.837,33.743,11.999,45.994c9.017,1.772,20.786,19.599,7.999,30.996c-7.239,6.452-22.728,2.611-28.997,11.998   C105.334,363.478,111.859,370.993,102.002,372.988z"/>
	<path fill-rule="evenodd" clip-rule="evenodd" fill="#FFFFFF" d="M76.005,289.999c-12.853,19.071-62.64,8.275-35.995-13.998   c8.981,0.017,18.285-0.287,23.997,2.999c0.163,1.162-0.221,1.779-1,2C64.861,281.287,69.213,288.841,76.005,289.999z"/>
	<path fill-rule="evenodd" clip-rule="evenodd" fill="#FFFFFF" d="M266.981,338.992c-1.359,9.306-14.62,6.711-20.997,10.999   c0-2,0-4,0-5.999c-2.833,0.167-4.167,1.832-6.999,2c2.399-9.732-9.737-4.929-8.999-12.999c4.82-1.513,11.301-1.364,11.999-6.999   c-3.051-2.659-6.672,2.617-11.999,1c-0.86-0.807-0.594-2.739-2-3c-0.553-11.242,13.132-10.556,14.999-1.999   c5.192,0.526,5.032-4.301,6.999-7C272.711,306.273,262.27,327.751,266.981,338.992z"/>
	<path fill-rule="evenodd" clip-rule="evenodd" fill="#FFFFFF" d="M251.983,380.987c1.2,1.313,0.39,1.572,0,3   c11.206-1.207,11.879,8.118,17.998,11.998c0.154,2.487-1.571,3.096-2,5c-5.495-1.322-9.264-1.489-9.999,3.999   c-3.697,0.698-4.417-1.582-3.999-4.999c-1.333,0-2.666,0-4,0c-1.376,1.001,0.427,1.648-1.999,2.999c-1.667,0-3.333,0-5,0   c-2.35-2.982-3.753-6.912-5-10.998C245.088,390.757,242.904,380.24,251.983,380.987z"/>
	<path fill-rule="evenodd" clip-rule="evenodd" fill="#FFEA53" d="M483.955,489.974c-6.668,7.512-17.827,12.27-28.997,13.998   c-50.022,7.742-117.814-0.789-158.979-10.998c13.414,0.733,16.543-14.389,26.996-15.998c7.489-1.153,14.599,6.548,24.997,2   c4.679-2.56,3.358-9.125,2.999-11.999c19.121-14.308,38.601-26.487,70.991-22.997C451.95,447.21,471.122,471.003,483.955,489.974z    M419.963,448.979c10.73-0.696-16.31-4.153-13.999,0C409.509,447.528,416.418,447.528,419.963,448.979z"/>
	<path fill-rule="evenodd" clip-rule="evenodd" fill="#E31836" d="M222.987,488.974c5.799,0.2,7.743,4.256,13.998,4   c-16.231,5.32-44.161,40.002-64.992,23.997c-3.735-2.87-6.174-8.535-8.999-11.999c-16.93-20.759-49.592-36.395-81.99-14.998   c14.8-17.355,38.061-31.046,69.991-27.996c0.184,0.851-0.39,0.943-1,1c19.59-0.06,29.354,26.492,45.995,35.995   C209.528,500.179,220.154,498.472,222.987,488.974z"/>
	<path fill-rule="evenodd" clip-rule="evenodd" fill="#FFFFFF" d="M241.985,488.974c-6.404,5.481-13.567-2.203-19.998-2.999   c-3.171,1.161-2.101,6.564-5,7.999c-24.553,12.54-34.22-13.048-45.994-22.997c13.195-9.461,29.238,0.223,36.996,7.999   C222.484,479.681,241.228,471.356,241.985,488.974z"/>
	<path fill-rule="evenodd" clip-rule="evenodd" fill="#FFFFFF" d="M349.972,470.977c-3.714,16.598-16.449,2.155-27.997,3.999   c-8.146,1.301-13.836,13.897-21.997,14.998c-7.997,1.079-12.979-5.922-20.997-6.999c-7.444-1-12.999,3.896-18.998-1   c5.382-21.766,30.382-9.968,49.994-9.999C324.541,471.953,338.52,465.24,349.972,470.977z"/>
	<path fill-rule="evenodd" clip-rule="evenodd" d="M187.992,526.969c-21.134,14.445-83.042,20.99-104.987,2   c-5.229-4.524-12.123-15.218-9.999-22.997c2.555-9.357,29.778-20.578,42.995-19.997c18.941,0.832,31.458,9.519,38.995,17.997   C163.247,513.254,166.857,529.176,187.992,526.969z"/>
</g>
<metadata><rdf:RDF><cc:Work><dc:format>image/svg+xml</dc:format><dc:type rdf:resource="http://purl.org/dc/dcmitype/StillImage"/><cc:license rdf:resource="http://creativecommons.org/licenses/publicdomain/"/><dc:publisher><cc:Agent rdf:about="http://openclipart.org/"><dc:title>Open Clip Art Library</dc:title></cc:Agent></dc:publisher><dc:title>big earred clown</dc:title><dc:date>2007-01-11T06:39:02</dc:date><dc:description>a big earred clown from a U.S. patent drawing</dc:description><dc:source>http://openclipart.org/detail/2859/big-earred-clown-by-johnny_automatic</dc:source><dc:creator><cc:Agent><dc:title>johnny_automatic</dc:title></cc:Agent></dc:creator><dc:subject><rdf:Bag><rdf:li>cartoon</rdf:li><rdf:li>cartoon</rdf:li><rdf:li>clip art</rdf:li><rdf:li>clipart</rdf:li><rdf:li>clown</rdf:li><rdf:li>clown</rdf:li><rdf:li>costume</rdf:li><rdf:li>costume</rdf:li><rdf:li>externalsource</rdf:li><rdf:li>image</rdf:li><rdf:li>media</rdf:li><rdf:li>people</rdf:li><rdf:li>people</rdf:li><rdf:li>png</rdf:li><rdf:li>public domain</rdf:li><rdf:li>svg</rdf:li><rdf:li>uspto</rdf:li><rdf:li>uspto</rdf:li></rdf:Bag></dc:subject></cc:Work><cc:License rdf:about="http://creativecommons.org/licenses/publicdomain/"><cc:permits rdf:resource="http://creativecommons.org/ns#Reproduction"/><cc:permits rdf:resource="http://creativecommons.org/ns#Distribution"/><cc:permits rdf:resource="http://creativecommons.org/ns#DerivativeWorks"/></cc:License></rdf:RDF></metadata></svg>
