<?xml version="1.0" encoding="UTF-8" standalone="no"?>
<!-- Created with Inkscape (http://www.inkscape.org/) -->
<svg xmlns:dc="http://purl.org/dc/elements/1.1/" xmlns:cc="http://creativecommons.org/ns#" xmlns:rdf="http://www.w3.org/1999/02/22-rdf-syntax-ns#" xmlns:svg="http://www.w3.org/2000/svg" xmlns="http://www.w3.org/2000/svg" xmlns:sodipodi="http://sodipodi.sourceforge.net/DTD/sodipodi-0.dtd" xmlns:inkscape="http://www.inkscape.org/namespaces/inkscape" width="128" height="128" id="svg2" sodipodi:version="0.32" inkscape:version="0.46" version="1.0" sodipodi:docname="bye.svg" inkscape:output_extension="org.inkscape.output.svg.inkscape">
  <defs id="defs4">
    <filter inkscape:collect="always" id="filter3527" x="-0.058160469" width="1.1163209" y="-0.26240865" height="1.5248173">
      <feGaussianBlur inkscape:collect="always" stdDeviation="1.8929948" id="feGaussianBlur3529"/>
    </filter>
  </defs>
  <sodipodi:namedview id="base" pagecolor="#ffffff" bordercolor="#666666" borderopacity="1.0" gridtolerance="10000" guidetolerance="10" objecttolerance="10" inkscape:pageopacity="0.0" inkscape:pageshadow="2" inkscape:zoom="1" inkscape:cx="64" inkscape:cy="64" inkscape:document-units="px" inkscape:current-layer="layer1" showgrid="false" inkscape:window-width="1538" inkscape:window-height="961" inkscape:window-x="127" inkscape:window-y="31"/>
  <g inkscape:label="Layer 1" inkscape:groupmode="layer" id="layer1">
    <path style="fill:#000000;fill-opacity:0.88477367;fill-rule:evenodd;stroke:none;stroke-width:1px;stroke-linecap:butt;stroke-linejoin:miter;stroke-opacity:1;filter:url(#filter3527)" d="M 16.61701,71.958369 C 16.135117,75.186333 15.226213,78.543318 18.708841,78.524561 C 21.334247,77.624984 25.804742,74.891213 28.627116,74.81225 C 34.198906,76.676887 38.045228,79.956432 44.158011,80.068679 C 50.438726,80.961255 58.913434,80.300161 65.032406,82.200708 C 70.01971,76.126315 77.248265,75.646666 82.37794,74.07969 C 84.067644,74.085493 85.597076,76.429956 87.150911,77.084894 C 90.063199,77.695634 93.941239,75.507537 94.255503,72.697603 C 91.939344,70.929946 85.577987,69.766775 83.085047,68.069282 C 70.126019,71.022068 57.040002,65.520989 44.194174,64.887302 C 35.328313,66.83187 25.337405,69.416479 16.61701,71.958369 z" id="path2607" sodipodi:nodetypes="ccccccccccc" transform="matrix(1.2187485,0,0,1.2195976,5.679234,6.0587196)"/>
    <g id="g2678" transform="matrix(1.0941092,-0.2441266,0.2440259,1.0948316,-147.99665,39.050292)">
      <path sodipodi:nodetypes="cccccccc" id="path2641" d="M 209.33692,90.923451 C 211.19054,93.113411 212.66743,96.691751 215.25564,98.692081 C 216.22424,98.920581 217.23666,98.685301 218.21878,98.597691 C 219.4534,98.184931 220.09324,97.268721 220.68046,96.170091 C 221.11187,93.452131 219.75333,90.816681 218.73115,88.362031 C 218.17032,86.135531 217.08744,83.600581 215.04106,82.405621 C 212.26384,80.476261 210.20663,81.342011 207.11548,82.269811 C 207.96116,85.131601 208.71004,88.006611 209.33692,90.923451 z" style="fill:#e6e6e6;fill-rule:evenodd;stroke:#333333;stroke-width:0.89177769px;stroke-linecap:butt;stroke-linejoin:miter;stroke-opacity:1"/>
      <path sodipodi:nodetypes="ccc" id="path2643" d="M 219.10718,97.683501 C 219.10575,94.484071 218.73171,91.092131 217.28366,88.922411 C 216.29375,86.153061 215.15625,83.737721 211.78834,81.717571" style="fill:none;fill-rule:evenodd;stroke:#333333;stroke-width:0.89177769px;stroke-linecap:butt;stroke-linejoin:miter;stroke-opacity:1"/>
    </g>
    <path style="fill:#00325c;fill-opacity:1;fill-rule:evenodd;stroke:#00192e;stroke-width:0.99999994px;stroke-linecap:butt;stroke-linejoin:miter;stroke-opacity:1" d="M 78.351896,92.578605 C 79.23989,92.554185 81.63223,92.893848 83.020035,92.291785 C 84.086202,91.82926 85.126564,91.256171 86.131321,90.762217 C 88.798757,89.593478 91.696815,90.076789 94.498389,89.67994 C 96.797809,88.594477 100.77559,88.486782 102.12038,86.463261 C 103.67945,83.110552 102.62721,78.707627 99.521585,77.700178 C 98.483422,78.210566 97.784374,78.14241 96.762407,78.8672 C 94.063293,80.923195 90.494917,80.991732 87.231466,81.203666 C 83.063083,82.033862 78.879026,82.119392 74.754463,83.16979 C 74.387245,85.73542 76.280367,91.454465 78.351896,92.578605 z" id="path2633" sodipodi:nodetypes="cscccccccc"/>
    <g id="g2682" transform="matrix(0.9456026,-0.6024474,0.6020724,0.9461916,-152.66243,122.94637)">
      <path sodipodi:nodetypes="cccccccc" id="path2637" d="M 211.17708,102.00961 C 212.45458,104.98339 213.58722,107.41278 216.07095,109.63686 C 216.89993,110.07256 217.57253,109.90016 218.42918,109.67248 C 219.1263,109.27994 219.80048,108.85543 220.5274,108.49829 C 220.20039,105.7536 221.17325,102.43487 219.66461,99.819401 C 219.06803,96.859991 217.39351,94.099051 215.09112,92.037351 C 213.29841,91.831961 211.16252,92.925011 209.33845,93.454511 C 210.77874,95.992521 211.30513,99.116321 211.17708,102.00961 z" style="fill:#e6e6e6;fill-rule:evenodd;stroke:#333333;stroke-width:0.89177769px;stroke-linecap:butt;stroke-linejoin:miter;stroke-opacity:1"/>
      <path sodipodi:nodetypes="ccc" id="path2639" d="M 219.05833,108.81401 C 217.83135,105.75207 219.23444,102.12633 218.07991,98.911751 C 217.31767,95.860061 214.74118,94.745191 214.10985,92.519461" style="fill:none;fill-rule:evenodd;stroke:#333333;stroke-width:0.89177769px;stroke-linecap:butt;stroke-linejoin:miter;stroke-opacity:1"/>
    </g>
    <path sodipodi:nodetypes="cccccccccccccccc" id="path2686" d="M 30.272272,89.177666 C 30.621444,84.785666 26.608701,79.301546 25.678121,75.817364 C 25.922532,74.066648 28.443945,74.496627 28.09974,72.480584 C 26.87095,71.417907 25.397466,71.994513 23.979011,72.544144 C 23.599684,70.241408 24.195724,67.63279 21.129682,66.985751 C 20.445677,68.349923 20.615856,70.166299 21.13254,71.500955 C 20.057506,70.291276 20.245959,65.642886 18.574617,68.486571 C 18.038977,70.244736 18.587205,72.383952 19.480413,73.753084 C 17.459249,72.980924 16.681932,69.583091 17.286087,73.040998 C 17.992983,74.272207 18.000112,76.064137 19.251535,76.526801 C 20.245768,77.561485 20.994937,78.224448 21.644649,79.524511 C 21.986523,83.018856 22.302725,86.453897 23.914206,89.521961 C 25.157771,91.328393 26.556496,95.895869 29.949198,96.864887 C 31.044657,97.551908 42.897888,90.571249 44.085537,90.932651 C 47.164774,89.796969 40.133283,87.062781 39.554228,83.858184 C 38.622784,79.745424 32.165092,88.623992 30.272272,89.177666 z" style="fill:#e9d2af;fill-opacity:1;fill-rule:evenodd;stroke:#3f2d10;stroke-width:0.99999994px;stroke-linecap:butt;stroke-linejoin:miter;stroke-opacity:1"/>
    <path style="fill:#1a1a1a;fill-opacity:1;fill-rule:evenodd;stroke:#000000;stroke-width:0.99999994000000003px;stroke-linecap:butt;stroke-linejoin:miter;stroke-opacity:1" d="M 43.857536,75.695085 C 39.960414,77.642231 42.899098,75.282312 40.308048,78.709517 C 37.813664,80.892249 34.687042,82.061411 33.227704,85.109567 C 37.140656,87.384554 37.195273,91.279578 41.151057,93.322162 C 44.84067,88.939515 45.63488,85.800799 47.620685,80.511154" id="path2593" sodipodi:nodetypes="ccccc"/>
    <path id="path2635" d="M 81.748828,98.923047 C 82.636823,98.898627 85.029164,99.238302 86.416969,98.636238 C 89.25808,96.942801 92.089002,96.184214 95.370479,96.280535 C 98.424145,95.60556 106.31669,93.894938 108.0935,91.221383 C 108.65842,87.835127 106.1956,86.114895 102.91852,84.044633 C 98.990423,86.318396 95.164831,87.253516 90.628398,87.54812 C 86.456349,88.412193 82.304523,88.456567 78.151396,89.514244 C 77.784166,92.079874 79.677298,97.79892 81.748828,98.923047 z" style="fill:#00325c;fill-opacity:1;fill-rule:evenodd;stroke:#00192e;stroke-width:0.99999994px;stroke-linecap:butt;stroke-linejoin:miter;stroke-opacity:1" sodipodi:nodetypes="cccccccc"/>
    <path style="fill:#1a1a1a;fill-opacity:1;fill-rule:evenodd;stroke:#000000;stroke-width:0.99999994000000003px;stroke-linecap:butt;stroke-linejoin:miter;stroke-opacity:1" d="M 88.926868,71.448717 C 84.650588,74.0304 79.193069,71.082713 74.847061,70.072712 C 69.153504,70.671223 63.772137,66.309777 58.107478,66.713678 C 54.587171,66.75126 51.323125,67.464253 48.075256,68.779572 C 45.120451,70.389053 40.255508,72.427795 39.615894,75.768954 C 39.647788,80.174244 37.468876,80.882045 37.804763,85.298754 C 38.740635,88.65356 44.679515,95.116688 48.042499,95.943541 C 51.101198,96.524977 53.905374,96.704103 56.487656,98.520243 C 61.370333,99.638178 66.160485,101.97725 71.213733,101.97099 C 77.118177,101.77969 79.14084,104.58524 84.980622,104.74631 C 82.823874,99.370416 88.015276,93.514344 88.168585,87.772592 C 87.133538,82.794865 92.111388,74.890725 88.926868,71.448717 z" id="path2581" sodipodi:nodetypes="cccccccccccc"/>
    <path style="fill:#e9d2af;fill-opacity:1;fill-rule:evenodd;stroke:#3f2d10;stroke-width:0.99999994px;stroke-linecap:butt;stroke-linejoin:miter;stroke-opacity:1" d="M 35.269596,25.304837 C 23.554329,25.236183 18.919942,32.970621 18.763618,43.030765 C 18.763618,45.135261 19.735743,49.277111 20.256921,51.363125 C 20.014324,55.470535 18.997314,58.574254 20.208842,62.583591 C 21.617789,68.255749 25.425378,71.274997 30.909902,72.498155 C 35.778589,72.402489 42.321824,70.747983 45.970645,67.342581 C 51.195151,63.064914 52.76808,55.824631 54.690034,49.49637 C 55.373186,43.451592 52.442292,37.684914 50.72667,32.046741 C 48.337514,25.877004 41.111474,24.441289 35.269596,25.304837 z" id="path2550" sodipodi:nodetypes="ccccccccc"/>
    <path style="fill:#28170b;fill-rule:evenodd;stroke:#120a04;stroke-width:0.99999994px;stroke-linecap:butt;stroke-linejoin:miter;stroke-opacity:1" d="M 20.208842,33.236487 C 19.486197,22.173725 49.640707,18.520878 51.215049,27.267821 C 59.685831,27.91866 59.728553,49.631589 57.624424,57.103606 C 48.885215,57.01452 53.429338,46.88341 48.348657,44.340798 C 46.183993,43.799292 45.46063,45.459839 43.592644,45.927126 C 39.63606,43.382492 43.637605,35.553336 37.251266,32.839905 C 34.132919,34.100928 30.180429,36.047087 26.946549,32.839905 C 24.182441,32.839905 22.562742,34.178633 20.208842,33.236487 z" id="path2554" sodipodi:nodetypes="cccccccc"/>
    <path style="fill:#28170b;fill-rule:evenodd;stroke:#120a04;stroke-width:0.99999994px;stroke-linecap:butt;stroke-linejoin:miter;stroke-opacity:1" d="M 56.364995,55.534792 C 54.594311,55.534792 57.643884,61.843247 57.950346,63.069859 C 58.425405,64.97129 61.864789,67.763595 63.102705,69.415179 C 64.154152,70.817981 68.673893,69.485497 69.840412,69.018598 C 71.803575,68.232842 74.089564,69.30457 74.992769,70.208345 C 77.811182,73.028509 76.125826,68.90661 75.389114,67.432267 C 74.810494,66.274308 72.16677,64.716567 71.029419,63.863024 C 69.095997,62.412056 68.702208,60.741198 67.066066,59.104035 C 65.504584,57.54158 63.633007,57.517705 61.517365,57.517705 C 60.195732,57.517705 57.981196,55.858234 56.364995,55.534792 z" id="path2556"/>
    <path style="fill:#e9d2af;fill-opacity:1;fill-rule:evenodd;stroke:#3f2d10;stroke-width:0.99999994px;stroke-linecap:butt;stroke-linejoin:miter;stroke-opacity:1" d="M 37.845199,81.042468 C 41.999636,84.64353 49.694975,78.566531 50.387096,72.634018 C 47.867264,70.83627 45.433144,68.357736 42.109304,68.497685 C 39.734911,69.448727 37.89932,71.242101 36.104051,73.011469 C 35.11002,75.27517 36.535234,79.530199 37.845199,81.042468 z" id="path2619" sodipodi:nodetypes="ccccc"/>
    <path style="fill:#28170b;fill-rule:evenodd;stroke:#120a04;stroke-width:0.99999994px;stroke-linecap:butt;stroke-linejoin:miter;stroke-opacity:1" d="M 18.886022,69.708188 C 19.6213,71.179664 21.115209,72.09181 22.9847,72.09181 C 25.929024,72.941269 28.777723,74.263159 31.70753,75.281657 C 35.554499,76.270844 38.357811,74.306078 41.201053,72.09181 C 45.992045,69.613123 50.956072,65.393964 51.955697,59.858218 C 52.23595,57.539048 51.323393,57.544702 49.993936,57.965341 C 47.785452,60.220439 45.01882,62.603491 42.006776,63.784185 C 38.190826,64.868883 35.167618,65.371706 34.089669,60.979923 C 32.824009,57.342425 28.737178,56.298047 25.366839,55.441505 C 18.203058,55.13183 16.639961,64.483199 18.886022,69.708188 z M 25.296775,59.858218 C 28.753645,58.397587 35.956886,67.29388 29.710739,66.938979 C 27.086586,66.064487 26.540835,64.364898 24.981494,66.553392 C 19.420337,68.240164 21.613071,61.256187 25.296775,59.858218 z" id="path2558" sodipodi:nodetypes="cccccccccccccc"/>
    <path style="fill:#ffffff;fill-rule:evenodd;stroke:#333333;stroke-width:0.99999976px;stroke-linecap:butt;stroke-linejoin:miter;stroke-opacity:1" d="M 29.948645,43.811171 C 28.281837,47.494629 29.571532,49.654388 33.141012,49.121997 C 34.237513,49.607981 36.52201,46.915366 35.997658,45.129562 C 36.390073,40.333543 32.260097,40.229439 29.948645,43.811171 z" id="path2565" sodipodi:nodetypes="cccc"/>
    <path style="fill:#ffffff;fill-rule:evenodd;stroke:#333333;stroke-width:0.99999976px;stroke-linecap:butt;stroke-linejoin:miter;stroke-opacity:1" d="M 22.627008,41.354288 C 19.754827,42.003615 18.406904,44.211969 18.966191,47.496495 C 22.282111,53.660719 28.588101,44.791706 22.627008,41.354288 z" id="path2567" sodipodi:nodetypes="ccc"/>
    <path style="fill:#e9d2af;fill-opacity:1;fill-rule:evenodd;stroke:#3f2d10;stroke-width:0.99999994px;stroke-linecap:butt;stroke-linejoin:miter;stroke-opacity:1" d="M 26.242625,45.556483 C 25.776758,48.26043 23.161012,49.51918 21.7586,50.884581 C 21.042041,53.884927 21.472418,56.037485 24.841367,55.3714 C 27.195414,54.277006 28.140467,52.461624 28.484638,50.043302" id="path2569" sodipodi:nodetypes="cccc"/>
    <path style="fill:#e9d2af;fill-opacity:1;fill-rule:evenodd;stroke:#3f2d10;stroke-width:0.99999994px;stroke-linecap:butt;stroke-linejoin:miter;stroke-opacity:1" d="M 45.860224,46.117336 C 52.43311,43.504304 51.274921,53.244842 46.420728,52.286712" id="path2571" sodipodi:nodetypes="cc"/>
    <path style="fill:#e9d2af;fill-opacity:1;fill-rule:evenodd;stroke:#3f2d10;stroke-width:0.99999994px;stroke-linecap:butt;stroke-linejoin:miter;stroke-opacity:1" d="M 47.121358,47.659679 C 48.075422,45.98505 50.588058,48.983056 47.121358,50.604154" id="path2573" sodipodi:nodetypes="cs"/>
    <path style="fill:none;fill-rule:evenodd;stroke:#3f2d10;stroke-width:0.99999994px;stroke-linecap:butt;stroke-linejoin:miter;stroke-opacity:1" d="M 23.283729,63.816769 C 25.52267,61.669609 28.02582,62.729881 29.465518,63.503758" id="path2575" sodipodi:nodetypes="cc"/>
    <path style="fill:#000000;fill-rule:evenodd;stroke:#000000;stroke-width:0.99999976px;stroke-linecap:butt;stroke-linejoin:miter;stroke-opacity:1" d="M 34.532405,45.112753 C 35.173998,45.127927 33.752953,42.607092 32.149085,44.50126 C 30.90595,45.969397 32.251169,47.916848 33.179349,48.067683 C 35.043564,48.370631 35.334826,45.359607 34.532405,45.112753 z" id="path2577" sodipodi:nodetypes="cssc"/>
    <path style="fill:#000000;fill-rule:evenodd;stroke:#000000;stroke-width:0.99999976px;stroke-linecap:butt;stroke-linejoin:miter;stroke-opacity:1" d="M 22.547041,44.120452 C 23.105121,42.955016 19.890313,43.889922 20.716633,46.577334 C 21.286915,48.43203 23.309345,47.29098 23.462247,47.191556 C 25.512731,45.858251 23.854577,42.459297 22.547041,44.120452 z" id="path2579" sodipodi:nodetypes="cssc"/>
    <g id="g3779" transform="matrix(0.9819927,0,0,0.9819634,-101.32171,-19.876026)"/>
    <path style="fill:#000000;fill-opacity:1;fill-rule:evenodd;stroke:#000000;stroke-width:1px;stroke-linecap:butt;stroke-linejoin:miter;stroke-opacity:1" d="M 61.998652,68.296321 C 55.499843,71.982535 63.958945,83.593205 66.974633,86.943596 C 70.548031,83.734394 72.726633,82.060367 73.332833,77.20496 C 73.027732,73.373285 71.07883,69.951082 68.356851,67.576991 C 66.508279,66.909803 63.788971,67.563328 61.998652,68.296321 z" id="path2421" sodipodi:nodetypes="ccccc"/>
    <path style="fill:#e9d2af;fill-opacity:1;fill-rule:evenodd;stroke:#3f2d10;stroke-width:0.99999994px;stroke-linecap:butt;stroke-linejoin:miter;stroke-opacity:1" d="M 67.403573,49.154061 C 64.578528,48.494761 62.994449,47.133704 63.079547,44.198538 C 64.992201,43.779162 66.778222,45.089786 68.582853,45.76344 C 69.422709,45.76344 69.762132,45.517123 69.762132,44.720173 C 70.219137,41.530261 68.830903,34.172713 73.503623,34.679398 C 74.075233,37.098399 73.761433,42.196928 73.431001,44.720173 C 73.694513,45.76921 74.494854,44.658054 74.610282,44.198538 C 75.292221,41.894962 77.29862,33.72545 80.592979,35.332115 C 82.100244,36.581163 77.038255,44.948915 77.623994,47.45875 C 80.644954,46.49218 82.338194,41.764715 85.496909,41.373472 C 87.427748,44.320858 82.675585,48.55187 80.50668,50.979777 C 77.861185,52.957798 77.761709,56.092422 78.279151,59.065103 C 78.538469,62.644598 78.356033,66.764157 77.361933,70.280229 C 77.109238,73.604064 75.938479,75.059269 72.644817,75.496567 C 69.849376,78.460437 62.732015,85.377952 61.017719,71.20385 C 61.280639,67.876716 67.797548,67.923403 70.286256,66.498385 C 70.96443,64.46787 70.67935,62.133187 70.67935,59.977961 C 71.172759,57.618718 70.315625,55.483726 70.024196,53.196721 C 70.024196,52.569933 69.645807,51.820774 69.500069,51.240596 C 69.127695,50.195132 68.289413,49.705078 67.403573,49.154061 z" id="path2411" sodipodi:nodetypes="cccccccccccccccccccc"/>
    <path style="fill:none;fill-rule:evenodd;stroke:#3f2d10;stroke-width:0.99999994px;stroke-linecap:butt;stroke-linejoin:miter;stroke-opacity:1" d="M 70.16995,66.472866 C 68.976343,69.942353 67.319697,70.526976 72.335906,74.007333" id="path2419" sodipodi:nodetypes="cc"/>
    <path style="fill:#1a1a1a;fill-rule:evenodd;stroke:#000000;stroke-width:1px;stroke-linecap:butt;stroke-linejoin:miter;stroke-opacity:1" d="M 58.759028,81.138154 C 59.41017,81.797093 61.67077,82.565431 62.512149,83.407487 C 63.58803,84.913465 65.818133,85.935483 67.125361,87.24188" id="path2425" sodipodi:nodetypes="ccc"/>
    <path style="fill:#1a1a1a;fill-rule:evenodd;stroke:#000000;stroke-width:1px;stroke-linecap:butt;stroke-linejoin:miter;stroke-opacity:1" d="M 55.553237,68.617689 C 58.007782,68.841938 60.677665,68.616516 62.981289,67.83516" id="path2427" sodipodi:nodetypes="cc"/>
    <path style="fill:#f2f2f2;fill-rule:evenodd;stroke:#4d4d4d;stroke-width:1px;stroke-linecap:butt;stroke-linejoin:miter;stroke-opacity:1" d="M 18.412973,70.887023 C 18.015947,71.03215 16.194407,74.018614 15.358005,74.64642 C 11.577311,77.504314 8.9868522,77.763587 7.4663691,82.311947 C 10.099408,81.308367 12.660234,81.423494 14.816232,79.651349 C 15.204494,78.8742 16.310621,77.782629 16.45592,77.643625 C 15.687544,79.115914 15.134896,79.801946 14.347092,80.590383 C 13.263924,82.273808 12.722665,85.186585 14.705655,87.720217 C 15.512387,84.716978 15.803895,81.557919 18.774791,80.795986 C 19.195705,80.480048 19.187015,74.32313 19.187015,75.74331 C 19.187015,76.882538 18.766709,79.815378 19.038493,80.903395 C 19.503612,82.734345 20.988064,85.133017 21.540574,85.755075 C 21.950116,84.935331 21.779577,83.546252 22.009714,82.624958 C 22.214089,81.806809 22.166094,80.873815 22.166094,79.96436 C 22.765114,77.768677 22.764284,75.543379 22.883219,73.288314 C 19.293318,71.888526 18.88585,71.902196 18.412973,70.887023 z" id="path2453" sodipodi:nodetypes="ccccccccsccsccc"/>
    <g id="g2557" transform="translate(-196.14583,-32.186174)"/>
    <path style="fill:#bbc9d3;fill-opacity:1;fill-rule:evenodd;stroke:#274166;stroke-width:1.00000012px;stroke-linecap:butt;stroke-linejoin:miter;stroke-opacity:1" d="M 35.245312,49.521035 C 34.299143,52.333732 32.610066,55.272552 33.003447,58.079012 C 34.215973,60.589405 36.75407,60.030683 38.234463,58.079012 C 39.16169,54.960567 37.321216,52.539875 35.245312,49.521035 z" id="path3216" sodipodi:nodetypes="cccc"/>
    <path style="font-size:12px;font-style:normal;font-variant:normal;font-weight:normal;font-stretch:normal;fill:#ffffff;fill-opacity:1;stroke:none;stroke-width:1px;stroke-linecap:butt;stroke-linejoin:miter;stroke-opacity:1;font-family:Rufscript;-inkscape-font-specification:Rufscript" d="M 50.403207,96.000111 C 50.343293,96.054589 50.333317,96.241219 50.180078,95.916539 C 49.201116,94.584026 48.123193,93.357597 47.140678,92.026555 C 46.655752,91.37714 46.165689,90.725494 45.707712,90.059414 C 45.519612,89.651878 45.66319,89.483544 45.735786,89.302234 C 45.929438,88.982183 46.177701,88.724373 46.472875,88.537424 C 46.761991,88.641195 47.127329,88.946484 47.464886,89.219925 C 47.929731,89.608294 48.342697,90.282149 48.493125,90.78228 C 48.737505,91.454595 48.659881,91.89103 48.846894,92.521732 C 48.926771,92.911458 49.364577,93.389234 49.642061,93.467645 C 50.046228,93.640241 50.386462,93.64586 50.86111,93.998672 C 51.127286,94.197555 51.438979,94.446826 51.683728,94.796381 C 51.715291,95.101169 51.449541,95.213818 51.081353,94.897407 C 50.774492,94.717422 50.417798,94.435395 50.138735,94.312314 C 49.927696,94.298678 49.268198,93.584683 49.484587,94.197329 C 49.657601,94.603819 50.004094,95.028886 50.279384,95.431511 C 50.444,95.622275 50.360528,95.717906 50.393829,95.858339 C 50.396955,95.905597 50.400081,95.952854 50.403207,96.000111 z M 48.273524,92.692496 C 48.246311,92.060797 48.243468,91.424326 47.948847,90.586571 C 47.838703,90.231217 47.475173,89.75683 47.197869,89.650348 C 46.719781,89.411601 46.540776,89.711901 46.33077,89.905238 C 46.06478,89.985164 46.683517,90.626189 46.928932,90.95558 C 47.390367,91.516855 47.825029,92.114584 48.273524,92.692496 z M 52.715972,93.952088 C 52.039628,93.030145 51.377787,92.077518 50.635135,91.229051 C 50.123668,90.620454 49.612995,90.010393 49.102565,89.399909 C 48.783791,89.191993 48.650246,89.393413 48.460823,89.434781 C 48.267485,89.537971 47.961301,89.620453 47.518485,89.123179 C 47.197713,88.722104 47.630472,88.753291 47.660392,88.577445 C 48.177515,88.109425 48.657464,87.582433 49.342583,87.346985 C 49.494425,87.286761 49.832826,87.245234 50.107271,87.776306 C 50.241949,88.167875 50.025098,88.246862 49.897958,88.367567 C 49.736606,88.492389 49.563204,88.601503 49.415419,88.744375 C 49.622858,89.285812 50.136087,89.799452 50.52909,90.272137 C 51.351876,91.271142 52.141207,92.328917 52.878421,93.402798 C 53.191951,93.814005 53.376982,94.284875 53.035443,94.173137 C 52.957612,94.175187 52.829131,94.113007 52.715972,93.952088 z M 52.894838,90.432249 C 53.005187,90.798655 53.496269,91.220377 53.783112,91.558247 C 54.122318,91.926421 54.542769,92.324792 54.764194,92.78888 C 54.893267,93.20554 54.499576,93.213265 54.136111,92.715729 C 53.054661,91.396731 52.019801,90.016181 50.976785,88.65206 C 50.65043,88.206396 50.287368,87.764833 50.006427,87.300708 C 49.858985,86.739951 50.074123,86.501785 50.231567,86.249091 C 50.415212,86.0478 50.568147,85.777562 50.926083,85.831089 C 51.184716,86.018268 51.642711,86.256425 51.834537,86.625931 C 51.450289,86.79968 50.975456,86.871288 50.803967,87.33168 C 50.719691,87.585111 51.216698,88.164397 51.4812,88.534054 C 51.794781,88.99998 52.291089,89.501689 52.471117,89.324479 C 52.728326,89.201633 52.670075,88.637095 53.085361,88.742521 C 53.500623,88.913141 53.732315,89.609427 53.572414,89.73695 C 53.430064,90.072706 53.167108,90.263716 52.894838,90.432249 z M 58.932492,91.851564 C 58.488021,91.3748 58.090291,90.798182 57.680834,90.264511 C 56.365667,88.507794 55.107523,86.706131 53.781202,84.959137 C 53.686251,84.899767 53.96076,85.465794 54.001566,85.637202 C 54.214316,86.235636 54.335008,86.796401 54.422789,87.299649 C 54.662342,87.454299 55.083674,87.536047 55.26963,87.912255 C 55.479368,88.441808 55.156971,88.415105 54.770638,88.072534 C 54.043339,87.593003 53.312111,87.101101 52.592529,86.648375 C 53.769129,88.1821 54.952733,89.712182 56.101623,91.270966 C 56.420269,91.694936 56.366008,92.126632 56.027632,91.881298 C 55.669098,91.565834 55.362306,91.077174 55.039725,90.673076 C 53.985734,89.258622 52.932509,87.841414 51.903615,86.408496 C 51.580092,85.967189 51.671727,85.697636 51.866051,85.683058 C 52.135294,85.701998 52.521843,85.919943 52.90796,86.310151 C 53.163167,86.511587 53.71759,87.109015 53.706714,86.80306 C 53.52326,86.158221 53.356004,85.522922 53.162397,84.872106 C 53.011686,84.478514 52.977675,84.118489 52.672553,83.672013 C 52.530914,83.315699 52.759574,83.047703 53.119274,83.530117 C 53.824163,84.412634 54.493229,85.335017 55.194581,86.221979 C 56.254383,87.612187 57.277956,89.039915 58.362966,90.404046 C 58.670393,90.748841 59.042818,91.184573 59.06427,91.530296 C 59.098979,91.702138 59.17418,92.040996 58.932493,91.851563 L 58.932492,91.851564 z" id="text2419"/>
  </g>
  <metadata>
    <rdf:RDF>
      <cc:Work>
        <dc:format>image/svg+xml</dc:format>
        <dc:type rdf:resource="http://purl.org/dc/dcmitype/StillImage"/>
        <cc:license rdf:resource="http://creativecommons.org/licenses/publicdomain/"/>
        <dc:publisher>
          <cc:Agent rdf:about="http://openclipart.org/">
            <dc:title>Open Clip Art Library</dc:title>
          </cc:Agent>
        </dc:publisher>
        <dc:title>Comic characters: Bye</dc:title>
        <dc:date>2009-03-05T14:06:14</dc:date>
        <dc:description>Comic characters: a bearded guy crying and taking goodbye</dc:description>
        <dc:source>http://openclipart.org/detail/21857/comic-characters:-bye-by-nicubunu</dc:source>
        <dc:creator>
          <cc:Agent>
            <dc:title>nicubunu</dc:title>
          </cc:Agent>
        </dc:creator>
        <dc:subject>
          <rdf:Bag>
            <rdf:li>cartoon</rdf:li>
            <rdf:li>cartoon</rdf:li>
            <rdf:li>character</rdf:li>
            <rdf:li>character</rdf:li>
            <rdf:li>clip art</rdf:li>
            <rdf:li>clipart</rdf:li>
            <rdf:li>comic</rdf:li>
            <rdf:li>comic</rdf:li>
            <rdf:li>funny</rdf:li>
            <rdf:li>funny</rdf:li>
            <rdf:li>guy</rdf:li>
            <rdf:li>guy</rdf:li>
            <rdf:li>human</rdf:li>
            <rdf:li>human</rdf:li>
            <rdf:li>image</rdf:li>
            <rdf:li>media</rdf:li>
            <rdf:li>people</rdf:li>
            <rdf:li>people</rdf:li>
            <rdf:li>png</rdf:li>
            <rdf:li>public domain</rdf:li>
            <rdf:li>svg</rdf:li>
          </rdf:Bag>
        </dc:subject>
      </cc:Work>
      <cc:License rdf:about="http://creativecommons.org/licenses/publicdomain/">
        <cc:permits rdf:resource="http://creativecommons.org/ns#Reproduction"/>
        <cc:permits rdf:resource="http://creativecommons.org/ns#Distribution"/>
        <cc:permits rdf:resource="http://creativecommons.org/ns#DerivativeWorks"/>
      </cc:License>
    </rdf:RDF>
  </metadata>
</svg>
