<?xml version="1.0" encoding="UTF-8" standalone="no"?>
<!-- Created with Inkscape (http://www.inkscape.org/) -->
<svg xmlns:dc="http://purl.org/dc/elements/1.1/" xmlns:cc="http://creativecommons.org/ns#" xmlns:rdf="http://www.w3.org/1999/02/22-rdf-syntax-ns#" xmlns:svg="http://www.w3.org/2000/svg" xmlns="http://www.w3.org/2000/svg" xmlns:sodipodi="http://sodipodi.sourceforge.net/DTD/sodipodi-0.dtd" xmlns:inkscape="http://www.inkscape.org/namespaces/inkscape" width="128" height="128" id="svg2" sodipodi:version="0.32" inkscape:version="0.46" version="1.0" sodipodi:docname="laptop1.svg" inkscape:output_extension="org.inkscape.output.svg.inkscape">
  <defs id="defs4">
    <filter inkscape:collect="always" id="filter3451">
      <feGaussianBlur inkscape:collect="always" stdDeviation="1.7283288" id="feGaussianBlur3453"/>
    </filter>
  </defs>
  <sodipodi:namedview id="base" pagecolor="#ffffff" bordercolor="#666666" borderopacity="1.0" gridtolerance="10000" guidetolerance="10" objecttolerance="10" inkscape:pageopacity="0.0" inkscape:pageshadow="2" inkscape:zoom="1" inkscape:cx="64" inkscape:cy="64" inkscape:document-units="px" inkscape:current-layer="g2565" showgrid="false" inkscape:window-width="1538" inkscape:window-height="961" inkscape:window-x="127" inkscape:window-y="31"/>
  <g inkscape:label="Layer 1" inkscape:groupmode="layer" id="layer1">
    <path style="fill:#000000;fill-rule:evenodd;stroke:none;stroke-width:1px;stroke-linecap:butt;stroke-linejoin:miter;stroke-opacity:1;filter:url(#filter3451);fill-opacity:0.83950615" d="M 14.142136,111.38299 C 13.663125,115.57561 18.40243,116.49341 21.213203,118.10051 C 26.418614,122.0071 31.894457,125.98607 38.53732,126.58579 C 45.124001,125.32647 51.363636,122.59495 57.629203,120.22183 C 60.37236,119.30251 64.294684,119.50263 65.053824,116.68629 C 65.488931,114.94586 64.653457,112.49046 65.760931,111.38299 C 72.397803,109.50524 74.835298,104.62913 79.19596,100.06928 C 86.920317,97.182754 81.299582,106.13622 79.19596,108.90812 C 75.539781,112.33672 68.743049,117.78822 72.831999,123.05025 C 77.013462,125.08164 82.993846,123.27693 87.327688,121.28249 C 93.663399,117.73825 91.875577,106.63181 96.520076,102.1906 C 99.684762,99.968212 103.98389,100.82775 107.83378,99.362175 C 114.6021,95.762816 113.3731,86.989226 106.77312,84.15938 C 100.27546,81.655956 72.595388,74.862546 72.478445,85.22004 C 74.381615,89.6872 70.759803,91.328268 68.589357,96.180195 C 67.112022,98.578959 54.929939,101.4994 53.033009,101.12995 C 46.966432,101.81139 41.672876,99.665591 36.415999,97.947966 C 31.358079,97.73412 15.595028,106.57626 14.142136,111.38299 z" id="path2611" sodipodi:nodetypes="cccccccccccccccccc"/>
    <g id="g3779" transform="translate(-101,-22)"/>
    <g id="g2565">
      <g transform="matrix(0.9812391,-0.1927948,0.1927948,0.9812391,23.503371,14.34097)" id="g2515">
        <path style="fill:#e6e6e6;fill-rule:evenodd;stroke:#333333;stroke-width:1px;stroke-linecap:butt;stroke-linejoin:miter;stroke-opacity:1" d="M 21.435218,93.181057 C 18.259398,93.805187 15.764587,93.151429 13.068277,95.112389 C 12.468117,95.831319 12.377008,97.775777 12.419608,98.661137 C 12.656898,99.425177 12.930278,100.17351 13.126708,100.95924 C 15.878838,101.21624 18.919068,102.86471 21.793138,101.93931 C 24.811838,101.97788 27.862988,100.92087 30.362438,99.103077 C 30.939928,97.393547 30.320068,95.075667 30.185658,93.181057 C 27.401678,94.055907 24.237008,93.914177 21.435218,93.181057 z" id="path2637" sodipodi:nodetypes="cccccccc"/>
        <path style="fill:none;fill-rule:evenodd;stroke:#333333;stroke-width:1px;stroke-linecap:butt;stroke-linejoin:miter;stroke-opacity:1" d="M 13.126708,99.456627 C 16.337854,100.29479 19.612184,101.58527 23.013498,100.5807 C 26.157228,100.4767 27.788578,98.191977 30.097278,98.042417" id="path2639" sodipodi:nodetypes="ccc"/>
      </g>
      <path sodipodi:nodetypes="csccscccc" id="path2523" d="M 38.974542,122.72916 C 39.177793,123.13638 41.271968,124.04179 41.932643,123.71087 C 44.442228,122.45386 49.882482,119.54939 52.875827,119.54939 C 56.135235,117.1749 59.561813,117.03758 62.88164,114.96538 C 62.634937,114.4054 63.451968,113.1331 63.027154,112.60491 C 60.464948,109.41923 54.771841,107.08781 51.350513,104.84188 C 46.682787,100.91165 40.52378,98.092224 34.541043,96.804304 C 28.560916,99.882336 21.586068,101.09259 16.436946,105.66625 C 22.872079,113.24395 32.091564,116.00604 38.974542,122.72916 z" style="fill:#333333;fill-rule:evenodd;stroke:#1a1a1a;stroke-width:0.99999994px;stroke-linecap:butt;stroke-linejoin:miter;stroke-opacity:1"/>
      <path sodipodi:nodetypes="ccccccc" id="path2527" d="M 35.156854,98.914216 C 38.476731,100.25839 41.268646,100.99603 44.531854,102.66422 C 49.174624,104.61986 54.275812,109.41119 58.781854,111.66422 C 57.714427,113.76551 51.643153,113.94389 48.906854,115.16422 C 43.847077,115.48468 41.110372,118.26256 37.281854,120.53922 C 31.686323,118.4372 22.553809,113.16831 18.906854,108.16422 C 22.077864,103.60231 29.934498,100.85616 35.156854,98.914216 z" style="fill:#b3b3b3;fill-rule:evenodd;stroke:#4d4d4d;stroke-width:1px;stroke-linecap:butt;stroke-linejoin:miter;stroke-opacity:1"/>
      <path sodipodi:nodetypes="cccccccccccccccc" id="path2645" d="M 66.208893,74.736109 C 63.406533,76.493399 59.898633,77.881568 56.585768,77.633593 C 55.121331,77.051421 56.027433,74.957383 54.208605,74.829182 C 53.028176,75.669224 53.215627,77.068075 53.391374,78.413559 C 51.31682,78.25512 49.183827,77.186759 47.974452,79.706844 C 49.011092,80.588169 50.620154,80.824955 51.885393,80.65956 C 50.610208,81.335238 47.509643,81.305529 49.618597,83.355461 C 51.027835,84.191562 52.111296,83.052067 53.486091,82.567671 C 52.389531,84.155815 50.259335,85.378665 53.381905,85.586635 C 54.597803,85.234524 55.174191,84.339367 55.83978,83.352782 C 56.946318,82.710087 58.348313,82.621967 59.611733,82.333968 C 62.710343,82.776933 65.654813,82.047742 68.652983,81.300326 C 70.164823,78.711674 73.962963,79.138481 75.588033,76.809146 C 76.414903,76.005187 77.107183,75.277016 77.671573,74.324296 C 77.339843,71.415642 75.707423,69.612479 72.809553,69.436344 C 69.050573,69.373469 68.555873,73.056559 66.208893,74.736109 z" style="fill:#e9d2af;fill-opacity:1;fill-rule:evenodd;stroke:#3f2d10;stroke-width:1px;stroke-linecap:butt;stroke-linejoin:miter;stroke-opacity:1"/>
      <path sodipodi:nodetypes="ccccccccc" id="path2503" d="M 79.970713,84.871689 C 74.752273,86.196534 66.559083,82.32704 62.116263,85.932349 C 60.990223,88.346096 62.456493,92.316532 61.939493,94.947961 C 62.050803,98.438506 58.562023,101.63078 61.409163,104.14035 C 64.837263,105.78059 70.590733,105.89353 73.076423,103.25647 C 75.347753,100.07215 72.496563,95.619156 75.020963,92.649864 C 80.342173,90.912236 85.234653,93.346892 89.163103,88.05367 C 91.291813,82.778009 84.833233,80.53565 80.501043,80.982602 C 79.952633,82.151241 80.171233,83.569923 79.970713,84.871689 z" style="fill:#00325c;fill-opacity:1;fill-rule:evenodd;stroke:#00192e;stroke-width:1px;stroke-linecap:butt;stroke-linejoin:miter;stroke-opacity:1"/>
      <path sodipodi:nodetypes="ccccc" id="path2593" d="M 76.639763,52.061053 C 74.377653,55.220455 73.063213,58.625697 72.447783,62.407072 C 71.390083,65.167327 70.256093,67.652771 70.375243,70.663573 C 74.409023,70.825219 78.267563,69.461145 82.238283,69.421772 C 83.321983,64.429359 82.252043,59.284813 81.614163,54.287896" style="fill:#1a1a1a;fill-opacity:1;fill-rule:evenodd;stroke:#000000;stroke-width:1px;stroke-linecap:butt;stroke-linejoin:miter;stroke-opacity:1"/>
      <path sodipodi:nodetypes="cccccccc" id="path2641" d="M 81.126341,109.04993 C 79.196878,111.17337 75.841753,113.1044 74.196113,115.93141 C 74.095907,116.92154 74.461239,117.89462 74.676205,118.85693 C 75.246484,120.02716 76.113324,120.79203 77.279165,121.23092 C 80.030182,121.30412 83.840909,120.48843 86.141254,119.1548 C 88.275581,118.30834 89.397617,115.77905 90.315444,113.59428 C 91.866054,110.58912 90.739366,108.66242 89.416284,105.7187 C 86.689259,106.93044 83.936488,108.04794 81.126341,109.04993 z" style="fill:#e6e6e6;fill-rule:evenodd;stroke:#333333;stroke-width:1px;stroke-linecap:butt;stroke-linejoin:miter;stroke-opacity:1"/>
      <path sodipodi:nodetypes="ccc" id="path2643" d="M 79.073466,120.86849 C 82.245378,120.44974 83.93455,119.51146 85.896852,117.79276 C 88.513416,116.45008 88.509745,114.00724 90.073335,110.4046" style="fill:none;fill-rule:evenodd;stroke:#333333;stroke-width:1px;stroke-linecap:butt;stroke-linejoin:miter;stroke-opacity:1"/>
      <path sodipodi:nodetypes="ccccccscccc" id="path2505" d="M 90.046993,88.230447 C 88.779553,88.230447 81.706573,87.115666 80.854603,87.700117 C 79.348433,92.161874 80.479043,97.104406 79.970713,102.01903 C 79.687683,106.13243 78.866013,108.11325 81.738483,111.21142 C 88.719573,113.41165 92.801643,107.85077 91.461203,107.67589 C 92.125403,104.12668 88.955203,97.656706 93.444963,96.340726 C 94.749233,97.080696 98.479693,99.125166 101.24232,99.136366 C 104.79612,99.150776 108.26955,99.122646 110.24242,93.973088 C 110.25787,89.875314 107.69348,83.736144 103.31412,82.741486 C 99.886023,85.264457 92.843743,80.384029 91.107653,84.34136 C 90.841233,85.407035 90.046993,87.082046 90.046993,88.230447 z" style="fill:#00325c;fill-opacity:1;fill-rule:evenodd;stroke:#00192e;stroke-width:1px;stroke-linecap:butt;stroke-linejoin:miter;stroke-opacity:1"/>
      <path sodipodi:nodetypes="ccccccccccccc" id="path2581" d="M 107.84653,84.075709 C 104.56636,81.060839 104.72136,75.525387 104.49687,71.55165 C 102.55852,66.826879 104.94226,61.127682 103.17766,56.37894 C 102.26367,53.374393 100.83596,50.758339 98.896943,48.306922 C 96.779643,46.180054 94.221863,45.169525 91.202843,45.45835 C 87.441543,46.58849 83.484373,46.642048 79.789443,48.035329 C 77.153413,49.676442 75.511523,51.992994 75.646463,55.07925 C 75.915193,57.843556 76.464373,60.289236 75.557313,62.954733 C 75.823883,67.414969 75.022443,72.101688 76.293653,76.426522 C 77.936393,81.433782 75.417573,80.992857 74.992633,85.282988 C 77.090673,84.905678 80.335973,89.422089 79.816313,88.19001 C 80.275153,84.73192 88.156713,87.926437 92.689423,87.388098 C 96.689213,85.255778 105.69918,87.663863 107.84653,84.075709 z" style="fill:#1a1a1a;fill-opacity:1;fill-rule:evenodd;stroke:#000000;stroke-width:1px;stroke-linecap:butt;stroke-linejoin:miter;stroke-opacity:1"/>
      <path sodipodi:nodetypes="ccccccccccccccssc" id="path2647" d="M 98.152213,70.72643 C 96.752233,70.899842 95.785673,71.627363 94.788873,72.54658 C 92.456863,74.104707 91.326233,76.873269 88.700103,77.932214 C 86.940423,78.384042 85.817933,78.709429 84.042163,78.390286 C 83.021773,77.267608 81.726653,76.909788 80.490373,77.441391 C 80.368863,78.694368 81.413793,79.472571 82.263093,80.35654 C 81.449123,81.50575 78.816653,81.11255 77.491513,82.04682 C 76.994073,84.770974 80.649163,83.667947 81.955923,82.724825 C 80.901453,83.876062 78.413733,84.820129 77.694933,85.616116 C 78.689473,87.437634 81.764653,85.797516 83.105693,84.69489 C 81.616043,85.880591 79.542673,86.36985 81.020723,88.053147 C 82.873443,88.511438 84.260603,86.882451 85.744873,85.914676 C 88.264443,84.605988 91.003013,83.790215 93.367933,82.179514 C 96.390193,79.274423 104.22941,77.497875 106.04125,73.614193 C 105.93001,73.135982 105.75735,64.743098 105.39929,64.069529 C 104.08096,61.589514 98.442303,66.266535 97.129243,66.065986 C 96.613103,65.987155 98.653093,70.923631 98.152213,70.72643 z" style="fill:#e9d2af;fill-opacity:1;fill-rule:evenodd;stroke:#3f2d10;stroke-width:1px;stroke-linecap:butt;stroke-linejoin:miter;stroke-opacity:1"/>
      <path sodipodi:nodetypes="ccccccc" id="path2585" d="M 93.942513,53.012126 C 93.829563,55.553673 94.245423,57.933573 94.838793,60.378216 C 95.269293,62.865168 95.226013,65.354871 95.014363,67.853199 C 99.242203,67.807603 103.88975,66.476173 108.19625,65.55777 C 107.95372,63.454902 107.57922,61.377477 107.37534,59.264329 C 106.9708,56.469379 104.94493,54.666602 103.96505,52.191417 C 102.69067,49.99448 100.78421,48.83237 98.199743,49.333524" style="fill:#1a1a1a;fill-opacity:1;fill-rule:evenodd;stroke:#000000;stroke-width:1px;stroke-linecap:butt;stroke-linejoin:miter;stroke-opacity:1"/>
      <path sodipodi:nodetypes="ccccccccc" id="path2550" d="M 74.131153,6.7524644 C 63.812503,8.4094394 60.867663,15.890314 62.203913,24.759927 C 62.512213,26.61058 63.974393,30.110339 64.738593,31.86834 C 65.126863,35.515874 64.686653,38.394313 66.340083,41.742453 C 68.410823,46.523902 72.203543,48.620814 77.208723,48.89245 C 81.478813,48.094626 86.994003,45.6805 89.705813,42.150979 C 93.676333,37.623418 93.999703,31.02587 94.763803,25.17918 C 94.479363,19.763374 91.055573,15.121909 88.719963,10.415302 C 85.713813,5.3399819 79.145083,5.1367116 74.131153,6.7524644 z" style="fill:#e9d2af;fill-opacity:1;fill-rule:evenodd;stroke:#3f2d10;stroke-width:1px;stroke-linecap:butt;stroke-linejoin:miter;stroke-opacity:1"/>
      <path sodipodi:nodetypes="cccccccc" id="path2554" d="M 62.040753,15.93517 C 59.784183,6.3127224 85.782863,-1.3198899 88.449593,6.1412204 C 95.998623,5.4718195 99.217143,24.559489 98.460313,31.438685 C 90.757373,32.64143 93.271683,23.066201 88.428553,21.575055 C 86.444473,21.416185 86.051233,22.982476 84.475993,23.66723 C 80.621703,22.009525 82.995803,14.538127 76.978763,13.088163 C 74.419583,14.654204 71.226783,16.945016 67.911353,14.598738 C 65.479133,15.00393 64.250033,16.418615 62.040753,15.93517 z" style="fill:#28170b;fill-rule:evenodd;stroke:#120a04;stroke-width:1px;stroke-linecap:butt;stroke-linejoin:miter;stroke-opacity:1"/>
      <path id="path2556" d="M 97.122273,30.243718 C 95.564193,30.503284 99.171783,35.60378 99.621153,36.63752 C 100.31772,38.239957 103.7532,40.191275 105.08444,41.462181 C 106.21515,42.541648 109.99699,40.707335 110.95504,40.125753 C 112.56737,39.146985 114.73589,39.754342 115.66305,40.416707 C 118.5562,42.483545 116.46935,39.105888 115.60511,37.917371 C 114.92632,36.983905 112.37183,36.001609 111.24599,35.417739 C 109.33215,34.425205 108.74087,33.01361 107.06134,31.813765 C 105.45845,30.66867 103.80809,30.922034 101.94648,31.232168 C 100.78354,31.425907 98.591793,30.291229 97.122273,30.243718 z" style="fill:#28170b;fill-rule:evenodd;stroke:#120a04;stroke-width:1px;stroke-linecap:butt;stroke-linejoin:miter;stroke-opacity:1"/>
      <path sodipodi:nodetypes="ccccc" id="path2619" d="M 79.386073,48.080282 C 80.977353,52.718013 89.634663,51.482873 92.825773,47.220269 C 91.687513,44.705175 90.920293,41.703734 88.293983,40.321869 C 86.036653,39.990736 83.817603,40.550363 81.640403,41.109567 C 79.859763,42.408917 79.053103,46.327492 79.386073,48.080282 z" style="fill:#e9d2af;fill-opacity:1;fill-rule:evenodd;stroke:#3f2d10;stroke-width:1px;stroke-linecap:butt;stroke-linejoin:miter;stroke-opacity:1"/>
      <path sodipodi:nodetypes="cccccccccccccc" id="path2558" d="M 66.219843,48.201601 C 67.082403,49.387802 68.530563,49.970935 70.175583,49.696885 C 72.890823,50.01227 75.591133,50.757116 78.318363,51.223291 C 81.848333,51.529233 84.027213,49.390515 86.204673,47.026538 C 90.057283,44.144514 93.807163,39.706578 93.875783,34.692023 C 93.782623,32.611498 92.980473,32.750251 91.872263,33.315039 C 90.259333,35.621871 88.174003,38.123043 85.696593,39.602861 C 82.497733,41.116097 79.911193,42.001447 78.319283,38.29742 C 76.672703,35.284208 72.923583,34.964887 69.832443,34.705727 C 63.483453,35.483543 63.478013,43.936096 66.219843,48.201601 z M 70.417833,38.59997 C 73.245653,36.808768 80.887283,43.576072 75.339133,44.17961 C 72.901953,43.795274 72.172743,42.380684 71.121243,44.533796 C 66.474933,46.832317 67.381233,40.369314 70.417833,38.59997 z" style="fill:#28170b;fill-rule:evenodd;stroke:#120a04;stroke-width:1px;stroke-linecap:butt;stroke-linejoin:miter;stroke-opacity:1"/>
      <path sodipodi:nodetypes="cccc" id="path2565" d="M 71.333353,23.74761 C 70.478733,26.92979 71.810163,28.490342 74.624333,27.582158 C 75.575693,27.82473 77.062173,25.354989 76.399433,23.991648 C 76.075073,20.087728 72.722683,20.560303 71.333353,23.74761 z" style="fill:#ffffff;fill-rule:evenodd;stroke:#333333;stroke-width:1px;stroke-linecap:butt;stroke-linejoin:miter;stroke-opacity:1"/>
      <path sodipodi:nodetypes="ccc" id="path2567" d="M 65.086263,22.760773 C 62.851403,23.668949 62.057223,25.623719 62.948693,28.185788 C 66.453703,32.688954 70.364733,24.718173 65.086263,22.760773 z" style="fill:#ffffff;fill-rule:evenodd;stroke:#333333;stroke-width:1px;stroke-linecap:butt;stroke-linejoin:miter;stroke-opacity:1"/>
      <path sodipodi:nodetypes="cccc" id="path2569" d="M 69.154913,25.884642 C 69.141113,28.330734 67.023853,29.821098 65.989863,31.227385 C 65.798883,33.970874 66.492933,35.8007 69.359793,34.721106 C 71.270853,33.413633 71.836483,31.678685 71.785043,29.501607" style="fill:#e9d2af;fill-opacity:1;fill-rule:evenodd;stroke:#3f2d10;stroke-width:1px;stroke-linecap:butt;stroke-linejoin:miter;stroke-opacity:1"/>
      <path sodipodi:nodetypes="cc" id="path2571" d="M 86.499173,23.502089 C 91.900033,20.240716 92.307893,28.976138 87.896183,28.845155" style="fill:#e9d2af;fill-opacity:1;fill-rule:evenodd;stroke:#3f2d10;stroke-width:1px;stroke-linecap:butt;stroke-linejoin:miter;stroke-opacity:1"/>
      <path sodipodi:nodetypes="cs" id="path2573" d="M 87.834833,24.673527 C 88.429003,23.061032 91.079153,25.329093 88.266193,27.262841" style="fill:#e9d2af;fill-opacity:1;fill-rule:evenodd;stroke:#3f2d10;stroke-width:1px;stroke-linecap:butt;stroke-linejoin:miter;stroke-opacity:1"/>
      <path sodipodi:nodetypes="cc" id="path2575" d="M 69.318173,42.077958 C 70.337133,42.322983 72.998443,41.658805 74.620103,41.19469" style="fill:none;fill-rule:evenodd;stroke:#3f2d10;stroke-width:1px;stroke-linecap:butt;stroke-linejoin:miter;stroke-opacity:1"/>
      <path sodipodi:nodetypes="cssc" id="path2577" d="M 72.992463,24.785157 C 73.315143,24.369837 70.973003,24.085331 71.430583,26.059139 C 71.785253,27.589004 73.715253,27.645811 74.266393,27.107384 C 75.373343,26.025972 73.545133,24.376073 72.992463,24.785157 z" style="fill:#000000;fill-rule:evenodd;stroke:#000000;stroke-width:1px;stroke-linecap:butt;stroke-linejoin:miter;stroke-opacity:1"/>
      <path sodipodi:nodetypes="cssc" id="path2579" d="M 64.635353,26.352878 C 64.930573,25.34191 62.456953,26.52554 63.484403,28.572183 C 64.193493,29.984656 65.675683,28.796072 65.785983,28.695646 C 67.265133,27.348907 65.470083,24.842937 64.635353,26.352878 z" style="fill:#000000;fill-rule:evenodd;stroke:#000000;stroke-width:1px;stroke-linecap:butt;stroke-linejoin:miter;stroke-opacity:1"/>
      <path sodipodi:nodetypes="ccc" id="path2509" d="M 89.693433,88.407224 C 91.647603,88.273929 93.718213,88.047613 95.527063,88.760777 C 96.917663,88.998561 98.263573,89.361886 99.592933,89.821437" style="fill:none;fill-rule:evenodd;stroke:#00192e;stroke-width:1px;stroke-linecap:butt;stroke-linejoin:miter;stroke-opacity:1"/>
      <path sodipodi:nodetypes="cccc" id="path2529" d="M 33.221194,101.31067 C 35.470376,103.01586 38.952743,104.48999 41.562184,105.58211 C 44.284098,106.74649 46.623143,108.37172 49.156854,109.91422 C 50.497159,110.81517 51.812758,111.70063 53.071068,112.72488" style="fill:none;fill-rule:evenodd;stroke:#4d4d4d;stroke-width:1px;stroke-linecap:butt;stroke-linejoin:miter;stroke-opacity:1"/>
      <path sodipodi:nodetypes="ccc" id="path2531" d="M 29.61764,103.08211 C 33.384364,105.50623 38.373882,109.14304 42.531854,110.91422 C 44.101802,111.50542 45.361639,112.6619 46.781854,113.53922" style="fill:none;fill-rule:evenodd;stroke:#4d4d4d;stroke-width:1px;stroke-linecap:butt;stroke-linejoin:miter;stroke-opacity:1"/>
      <path sodipodi:nodetypes="cccc" id="path2533" d="M 26.498922,106.00889 C 28.504499,108.06048 33.248148,109.57574 35.406854,111.41422 C 37.402158,112.53454 39.53405,113.41706 40.906854,115.28922 C 41.175944,115.55831 41.361384,115.64148 41.656854,115.78922" style="fill:none;fill-rule:evenodd;stroke:#4d4d4d;stroke-width:1px;stroke-linecap:butt;stroke-linejoin:miter;stroke-opacity:1"/>
      <path sodipodi:nodetypes="ccc" id="path2535" d="M 51.906854,109.16422 C 49.839038,109.7246 48.73478,110.89088 46.763009,112.62133 C 42.986188,112.91397 38.745867,115.78713 36.86764,117.40166" style="fill:none;fill-rule:evenodd;stroke:#4d4d4d;stroke-width:1px;stroke-linecap:butt;stroke-linejoin:miter;stroke-opacity:1"/>
      <path sodipodi:nodetypes="cc" id="path2537" d="M 36.781854,101.16422 C 33.419421,103.51281 27.558562,105.66813 23.718592,107.20083" style="fill:none;fill-rule:evenodd;stroke:#4d4d4d;stroke-width:1px;stroke-linecap:butt;stroke-linejoin:miter;stroke-opacity:1"/>
      <path sodipodi:nodetypes="cc" id="path2539" d="M 38.430903,103.89905 C 35.878307,105.36089 29.723922,110.31935 27.063261,111.41055" style="fill:none;fill-rule:evenodd;stroke:#4d4d4d;stroke-width:1px;stroke-linecap:butt;stroke-linejoin:miter;stroke-opacity:1"/>
      <path sodipodi:nodetypes="ccc" id="path2541" d="M 45.656854,108.16422 C 44.011092,109.34658 42.466545,110.53618 40.531854,111.41422 C 38.336392,112.49168 36.755787,114.25209 35.050699,115.94715" style="fill:none;fill-rule:evenodd;stroke:#4d4d4d;stroke-width:1px;stroke-linecap:butt;stroke-linejoin:miter;stroke-opacity:1"/>
      <path sodipodi:nodetypes="ccc" id="path2525" d="M 38.99219,121.98713 C 42.788178,118.54626 46.836444,118.05021 51.967698,116.62875 C 55.344544,116.15303 58.674905,113.80909 61.902916,112.67337" style="fill:none;fill-rule:evenodd;stroke:#1a1a1a;stroke-width:0.99999994px;stroke-linecap:butt;stroke-linejoin:miter;stroke-opacity:1"/>
      <path sodipodi:nodetypes="ccc" style="fill:none;fill-rule:evenodd;stroke:#4d4d4d;stroke-width:1px;stroke-linecap:butt;stroke-linejoin:miter;stroke-opacity:1" d="M 41.629126,105.6705 C 39.724353,106.89315 37.939891,108.27478 36.156854,109.66422 C 35.45994,110.61095 32.490712,113.39395 31.498922,113.80071" id="path2543"/>
      <path sodipodi:nodetypes="cccccccccc" id="path2519" d="M 17.877045,94.389842 C 22.159907,96.291163 25.676617,99.559236 30.075276,101.27796 C 32.15076,103.28988 32.889356,106.08906 33.71813,108.75762 C 35.266977,113.61901 36.899955,114.81332 39.695702,122.80886 C 39.7674,123.8234 39.275932,124.00432 39.468186,124.38951 C 36.05112,124.9252 29.510452,119.67105 25.985668,117.34275 C 22.057755,116.55467 20.448429,112.9987 16.852685,111.18072 C 16.3927,107.42207 14.039995,104.68413 13.897612,100.80542 C 13.422447,97.592944 9.9568641,92.081942 9.2333871,88.912428 C 11.482958,89.529765 15.382843,93.366576 17.877045,94.389842 z" style="fill:#333333;fill-rule:evenodd;stroke:#1a1a1a;stroke-width:0.99999994px;stroke-linecap:butt;stroke-linejoin:miter;stroke-opacity:1"/>
      <path sodipodi:nodetypes="ccccc" id="path2521" d="M 9.5153423,90.276592 C 10.686203,91.532231 17.712382,96.036786 19.730954,97.431211 C 22.774169,100.29564 26.531545,101.43457 29.32531,103.38459 C 31.133356,106.15694 32.271001,108.81803 32.895216,112.05509 C 33.089687,115.42102 37.566771,121.28544 38.599636,124.38951" style="fill:none;fill-rule:evenodd;stroke:#1a1a1a;stroke-width:0.99999994px;stroke-linecap:butt;stroke-linejoin:miter;stroke-opacity:1"/>
      <path style="fill:#00325c;fill-opacity:1;fill-rule:evenodd;stroke:#00192e;stroke-width:1px;stroke-linecap:butt;stroke-linejoin:miter;stroke-opacity:1" d="M 24.612911,107.01267 C 23.850616,106.59786 22.903222,107.15351 22.18939,107.56608 C 21.237059,108.20338 20.883598,109.38154 20.388776,110.37112 C 21.504994,111.00928 22.453875,111.4636 23.462339,112.00222 C 24.301965,112.50629 25.232497,112.14115 25.675865,111.30869 C 26.108776,110.42308 26.298469,109.2111 26.237911,108.26955 C 26.087931,107.63163 25.126218,107.35649 24.612911,107.01267 z" id="path2545" sodipodi:nodetypes="ccccccc"/>
      <path style="font-size:12px;font-style:normal;font-variant:normal;font-weight:normal;font-stretch:normal;fill:#ffffff;fill-opacity:1;stroke:none;stroke-width:1px;stroke-linecap:butt;stroke-linejoin:miter;stroke-opacity:1;font-family:Rufscript;-inkscape-font-specification:Rufscript" d="M 78.315994,66.432213 C 77.961483,66.613584 78.151942,66.110106 78.04179,65.920252 C 77.871244,65.062531 77.599598,64.225198 77.502701,63.353161 C 77.451339,63.003908 77.40458,62.6533 77.388989,62.300344 C 77.536485,61.983211 77.929375,61.934438 78.227213,61.83569 C 78.666514,61.721244 79.114805,61.641174 79.566641,61.597145 C 79.876049,61.736787 80.11587,62.000707 80.310222,62.271927 C 80.51629,62.641722 80.351964,63.090898 80.089331,63.385291 C 79.802564,63.736772 79.370155,63.961247 79.151055,64.367198 C 79.043819,64.694488 79.377224,64.907381 79.647937,64.980699 C 80.032802,65.111504 80.440309,65.258473 80.689013,65.601848 C 80.893966,65.789557 80.933275,66.138858 80.566371,66.121454 C 80.185563,66.19192 79.947351,65.840275 79.668192,65.65137 C 79.384255,65.485198 79.124389,65.261032 78.830235,65.132367 C 78.495777,65.262319 78.603359,65.710888 78.620294,65.992371 C 78.711727,66.239049 78.453604,66.293759 78.315994,66.432213 z M 78.394569,64.219215 C 78.908177,63.834593 79.485688,63.459355 79.774316,62.865154 C 79.882617,62.55962 79.607175,62.298184 79.323051,62.254861 C 78.934725,62.16545 78.542776,62.293125 78.160101,62.346817 C 77.914907,62.56472 78.186072,62.92794 78.205299,63.201783 C 78.283232,63.53805 78.32699,63.880921 78.394569,64.219215 z M 82.820862,65.717659 C 82.742842,65.028923 82.681026,64.329614 82.434095,63.675811 C 82.31877,63.300484 82.204965,62.924693 82.091646,62.548756 C 81.793608,62.350546 81.417706,62.482179 81.085056,62.459186 C 80.813802,62.516234 80.179951,62.254178 80.450407,61.940304 C 80.754269,61.870732 81.064625,61.830234 81.372238,61.770307 C 82.327266,61.613343 83.289878,61.430372 84.261722,61.465158 C 84.678416,61.407339 84.799061,61.972177 84.364157,62.03606 C 83.920741,62.149517 83.458262,62.158393 83.009076,62.242865 C 82.806077,62.635286 83.085334,63.036675 83.168113,63.42021 C 83.356029,64.131717 83.451764,64.866906 83.473898,65.60127 C 83.486688,65.944914 83.029282,66.021592 82.843674,65.790098 L 82.82826,65.756266 L 82.820865,65.71766 L 82.820862,65.717659 z M 85.905045,63.80418 C 85.744129,64.126546 86.061599,64.437467 86.149707,64.739064 C 86.319215,65.004444 86.45568,65.574172 85.987373,65.597077 C 85.581197,65.641588 85.540179,65.187162 85.468807,64.899209 C 85.237516,63.90815 85.068789,62.903109 84.913587,61.897866 C 84.801341,61.579513 85.048737,61.353538 85.319102,61.244398 C 85.796984,61.046757 86.309837,60.931779 86.822849,60.874021 C 87.115033,60.82091 87.364474,60.959921 87.554215,61.173603 C 87.741802,61.304917 87.776298,61.610394 87.47077,61.515844 C 86.913741,61.531104 86.330397,61.510424 85.809793,61.739293 C 85.524408,61.989608 85.734012,62.418735 85.755522,62.737557 C 85.834007,63.1085 86.247891,63.192378 86.556107,63.065903 C 86.881065,62.974963 87.244032,62.764796 87.576069,62.939102 C 87.90114,63.226005 87.434716,63.580869 87.133075,63.597527 C 86.73396,63.716571 86.318405,63.765523 85.905045,63.80418 z M 92.158859,65.678963 C 91.965316,65.222718 91.954977,64.717014 91.865402,64.23536 C 91.714768,63.137893 91.633609,62.03125 91.447121,60.938678 C 91.261825,61.077723 91.200099,61.375616 91.030472,61.557044 C 90.824959,61.844252 90.581992,62.102259 90.329558,62.348365 C 90.524417,62.481075 91.058697,62.638772 90.796403,62.945408 C 90.475533,63.262498 90.136943,62.848655 89.892271,62.652176 C 89.469487,62.316393 89.047951,61.978764 88.613657,61.657861 C 88.810075,62.736211 89.028135,63.812309 89.160905,64.90076 C 89.150423,65.27147 88.527816,65.389494 88.466383,64.977376 C 88.341093,64.464314 88.291558,63.934604 88.209911,63.412644 C 88.115272,62.725348 88.021846,62.037298 87.96063,61.346157 C 87.991917,60.987172 88.472636,60.915679 88.738755,61.061405 C 89.140051,61.196834 89.300331,61.611016 89.569834,61.896967 C 89.855623,62.165199 90.020905,61.669807 90.195592,61.508582 C 90.505653,61.112616 90.825152,60.720227 91.07927,60.285827 C 91.051583,59.943117 91.498267,59.650514 91.760133,59.924755 C 91.951243,60.564774 91.999464,61.241367 92.153726,61.891984 C 92.33009,62.867063 92.411199,63.861598 92.656166,64.822767 C 92.817846,65.118808 92.74393,65.485242 92.442944,65.657438 C 92.364424,65.724748 92.238346,65.771373 92.158859,65.678963 z" id="text2429"/>
    </g>
  </g>
  <metadata>
    <rdf:RDF>
      <cc:Work>
        <dc:format>image/svg+xml</dc:format>
        <dc:type rdf:resource="http://purl.org/dc/dcmitype/StillImage"/>
        <cc:license rdf:resource="http://creativecommons.org/licenses/publicdomain/"/>
        <dc:publisher>
          <cc:Agent rdf:about="http://openclipart.org/">
            <dc:title>Open Clip Art Library</dc:title>
          </cc:Agent>
        </dc:publisher>
        <dc:title>Comic characters: Operator</dc:title>
        <dc:date>2009-03-05T14:25:02</dc:date>
        <dc:description>Comic characters: a bearded guy operating a laptop computer</dc:description>
        <dc:source>http://openclipart.org/detail/21881/comic-characters:-operator-by-nicubunu</dc:source>
        <dc:creator>
          <cc:Agent>
            <dc:title>nicubunu</dc:title>
          </cc:Agent>
        </dc:creator>
        <dc:subject>
          <rdf:Bag>
            <rdf:li>cartoon</rdf:li>
            <rdf:li>cartoon</rdf:li>
            <rdf:li>character</rdf:li>
            <rdf:li>character</rdf:li>
            <rdf:li>clip art</rdf:li>
            <rdf:li>clipart</rdf:li>
            <rdf:li>comic</rdf:li>
            <rdf:li>comic</rdf:li>
            <rdf:li>funny</rdf:li>
            <rdf:li>funny</rdf:li>
            <rdf:li>guy</rdf:li>
            <rdf:li>guy</rdf:li>
            <rdf:li>human</rdf:li>
            <rdf:li>human</rdf:li>
            <rdf:li>image</rdf:li>
            <rdf:li>media</rdf:li>
            <rdf:li>people</rdf:li>
            <rdf:li>people</rdf:li>
            <rdf:li>png</rdf:li>
            <rdf:li>public domain</rdf:li>
            <rdf:li>svg</rdf:li>
          </rdf:Bag>
        </dc:subject>
      </cc:Work>
      <cc:License rdf:about="http://creativecommons.org/licenses/publicdomain/">
        <cc:permits rdf:resource="http://creativecommons.org/ns#Reproduction"/>
        <cc:permits rdf:resource="http://creativecommons.org/ns#Distribution"/>
        <cc:permits rdf:resource="http://creativecommons.org/ns#DerivativeWorks"/>
      </cc:License>
    </rdf:RDF>
  </metadata>
</svg>
