<?xml version="1.0" encoding="UTF-8" standalone="no"?>
<!-- Created with Inkscape (http://www.inkscape.org/) -->
<svg xmlns:dc="http://purl.org/dc/elements/1.1/" xmlns:cc="http://creativecommons.org/ns#" xmlns:rdf="http://www.w3.org/1999/02/22-rdf-syntax-ns#" xmlns:svg="http://www.w3.org/2000/svg" xmlns="http://www.w3.org/2000/svg" xmlns:sodipodi="http://sodipodi.sourceforge.net/DTD/sodipodi-0.dtd" xmlns:inkscape="http://www.inkscape.org/namespaces/inkscape" width="128" height="128" id="svg2" sodipodi:version="0.32" inkscape:version="0.46" version="1.0" sodipodi:docname="the-bearded.svg" inkscape:output_extension="org.inkscape.output.svg.inkscape">
  <defs id="defs4">
    <filter inkscape:collect="always" id="filter3443" x="-0.12513924" width="1.2502785" y="-0.32663372" height="1.6532674">
      <feGaussianBlur inkscape:collect="always" stdDeviation="1.9634296" id="feGaussianBlur3445"/>
    </filter>
  </defs>
  <sodipodi:namedview id="base" pagecolor="#ffffff" bordercolor="#666666" borderopacity="1.0" gridtolerance="10000" guidetolerance="10" objecttolerance="10" inkscape:pageopacity="0.0" inkscape:pageshadow="2" inkscape:zoom="1" inkscape:cx="64" inkscape:cy="64" inkscape:document-units="px" inkscape:current-layer="g3447" showgrid="false" inkscape:window-width="1538" inkscape:window-height="961" inkscape:window-x="127" inkscape:window-y="31"/>
  <g inkscape:label="Layer 1" inkscape:groupmode="layer" id="layer1">
    <g id="g3447" transform="translate(-30.499412,-45.211109)">
      <path id="path2651" d="M 81.834607,155.98332 C 79.962593,156.58873 75.721021,155.34443 72.939541,154.64906 C 70.583049,154.05994 68.212179,155.8184 67.157748,156.87283 C 65.74444,158.28614 65.432354,161.09008 65.823489,162.65462 C 66.65543,165.98239 71.205838,165.75883 73.384295,165.32314 C 75.392063,164.92159 77.62858,166.60659 79.610841,167.10215 C 81.887167,167.67124 83.873758,167.99166 86.726894,167.99166 C 89.626703,167.99166 91.410847,169.43009 94.2877,167.99166 C 96.518788,166.87612 98.578411,167.21977 100.51425,165.76789 C 102.02661,164.63362 102.74065,162.64406 103.18277,160.87561 C 103.9666,157.74028 101.30614,157.26877 99.624739,156.42808 C 97.463742,155.34758 93.718371,156.01447 92.063933,156.42808 C 90.290653,156.8714 88.747907,154.20431 86.28214,154.20431 C 84.282792,154.20431 85.222725,155.98332 81.834607,155.98332 z" style="fill:#000000;fill-opacity:0.72839505;fill-rule:evenodd;stroke:none;stroke-width:1px;stroke-linecap:butt;stroke-linejoin:miter;stroke-opacity:1;filter:url(#filter3443)"/>
      <path sodipodi:nodetypes="cccccccc" id="path2637" d="M 80.601738,154.09096 C 77.425916,154.71509 74.812767,155.31198 72.116457,157.27294 C 71.516296,157.99187 71.543529,158.68568 71.586127,159.57104 C 71.823424,160.33508 72.096801,161.08341 72.293234,161.86914 C 75.045356,162.12614 78.085591,163.77461 80.959659,162.84921 C 83.978358,162.88778 87.029506,161.83077 89.528962,160.01298 C 90.106449,158.30345 89.486592,155.98557 89.352185,154.09096 C 86.568197,154.96581 83.403526,154.82408 80.601738,154.09096 z" style="fill:#e6e6e6;fill-rule:evenodd;stroke:#333333;stroke-width:1px;stroke-linecap:butt;stroke-linejoin:miter;stroke-opacity:1"/>
      <path sodipodi:nodetypes="ccc" id="path2639" d="M 72.293234,160.36653 C 75.544633,159.81031 78.794616,161.94392 82.180017,161.4906 C 85.323746,161.3866 86.955098,159.10188 89.263797,158.95232" style="fill:none;fill-rule:evenodd;stroke:#333333;stroke-width:1px;stroke-linecap:butt;stroke-linejoin:miter;stroke-opacity:1"/>
      <path sodipodi:nodetypes="cccccccc" id="path2641" d="M 91.827059,154.62129 C 89.29651,155.97338 85.48773,156.66542 82.988224,158.77554 C 82.561299,159.6745 82.578604,160.71376 82.457894,161.69236 C 82.602021,162.98615 83.363326,163.80422 84.314049,164.60917 C 86.880686,165.60205 89.742756,164.8276 92.357389,164.34401 C 94.65203,164.26353 97.357917,163.73746 98.95619,161.98785 C 101.42602,159.67802 101.01186,157.48483 100.75428,154.26774 C 97.778695,154.49322 94.810502,154.62129 91.827059,154.62129 z" style="fill:#e6e6e6;fill-rule:evenodd;stroke:#333333;stroke-width:1px;stroke-linecap:butt;stroke-linejoin:miter;stroke-opacity:1"/>
      <path sodipodi:nodetypes="ccccccccccccccc" id="path2647" d="M 73.54074,115.72098 C 72.779263,116.90848 72.720953,118.11684 72.79074,119.47098 C 72.498444,122.26035 73.904934,124.89949 73.04074,127.59598 C 72.263463,129.23807 71.796224,130.30931 70.41574,131.47098 C 68.900119,131.53812 67.797124,132.30542 67.41574,133.59598 C 68.301682,134.49031 69.568057,134.18412 70.79074,134.09598 C 71.154275,135.45652 69.169236,137.22971 69.04074,138.84598 C 70.817796,140.96978 72.305789,137.45378 72.41574,135.84598 C 72.627101,137.39278 71.763029,139.9094 71.91574,140.97098 C 73.952279,141.37041 74.656552,137.95709 74.66574,136.22098 C 74.625452,138.12448 73.67645,140.03174 75.91574,139.97098 C 77.452418,138.83907 77.086293,136.73105 77.29074,134.97098 C 77.894759,132.1968 79.017841,129.56926 79.29074,126.72098 C 78.988349,122.53981 80.994404,117.34677 79.16574,113.47098 C 76.475827,112.12184 75.538871,114.62345 73.54074,115.72098 z" style="fill:#e9d2af;fill-opacity:1;fill-rule:evenodd;stroke:#3f2d10;stroke-width:1px;stroke-linecap:butt;stroke-linejoin:miter;stroke-opacity:1"/>
      <path sodipodi:nodetypes="ccccc" id="path2593" d="M 80.220457,99.666313 C 77.521518,102.46179 75.724245,105.63877 74.563603,109.28986 C 73.114419,111.86622 71.629881,114.15958 71.308399,117.15554 C 75.275409,117.90409 79.291701,117.11768 83.225661,117.65816 C 85.026289,112.87733 84.718522,107.63172 84.816651,102.59521" style="fill:#1a1a1a;fill-opacity:1;fill-rule:evenodd;stroke:#000000;stroke-width:1px;stroke-linecap:butt;stroke-linejoin:miter;stroke-opacity:1"/>
      <path sodipodi:nodetypes="cscccccccc" id="path2633" d="M 91.66574,132.47098 C 91.520576,133.25001 90.776113,135.27284 91.04074,136.59598 C 91.244038,137.61247 91.548535,138.62716 91.79074,139.59598 C 92.309429,142.14129 91.344967,144.57827 91.16574,147.09598 C 91.680828,149.30473 91.02911,152.79408 92.54074,154.34598 C 95.170733,156.33375 99.20554,156.24081 100.66574,153.72098 C 100.41548,152.71995 100.60591,152.12304 100.16574,151.09598 C 98.87966,148.35684 99.48877,145.23187 99.915737,142.34598 C 99.973457,138.55505 100.68316,134.88994 100.54074,131.09598 C 98.373369,130.29511 93.033819,130.87489 91.66574,132.47098 z" style="fill:#00325c;fill-opacity:1;fill-rule:evenodd;stroke:#00192e;stroke-width:1px;stroke-linecap:butt;stroke-linejoin:miter;stroke-opacity:1"/>
      <path sodipodi:nodetypes="cccccccc" style="fill:#00325c;fill-opacity:1;fill-rule:evenodd;stroke:#00192e;stroke-width:1px;stroke-linecap:butt;stroke-linejoin:miter;stroke-opacity:1" d="M 80.54074,132.34598 C 80.395576,133.12501 79.651113,135.14784 79.91574,136.47098 C 80.859197,139.26605 80.989761,141.87711 80.29074,144.72098 C 80.306668,147.51064 79.41852,152.17055 81.41574,154.22098 C 84.261313,155.34799 87.122052,156.06625 89.54074,153.59598 C 88.295209,149.7442 88.197221,146.23258 88.79074,142.22098 C 88.819621,138.42051 89.559146,134.79122 89.41574,130.97098 C 87.248369,130.17011 81.908819,130.74989 80.54074,132.34598 z" id="path2635"/>
      <path sodipodi:nodetypes="cccccccccccc" id="path2581" d="M 105.45034,135.62256 C 102.64523,132.1613 104.5774,126.97731 104.93518,123.01335 C 103.70705,118.0563 106.89693,112.76596 105.84419,107.81055 C 105.37842,104.70479 104.34775,101.9084 102.78721,99.200273 C 101.00294,96.787204 98.619997,95.414235 95.591146,95.259415 C 91.705196,95.828595 87.782568,95.304118 83.923884,96.143298 C 81.07659,97.382181 79.114233,99.434343 78.79736,102.50725 C 78.659833,105.28118 78.846241,107.78082 77.559923,110.28542 C 77.172773,114.73681 75.695999,119.25641 76.322486,123.72045 C 77.216955,128.91383 74.988206,131.04549 75.563603,136.22503 C 80.045482,133.65923 85.854342,137.52693 90.943175,136.95726 C 95.211306,135.43144 102.80237,138.85895 105.45034,135.62256 z" style="fill:#1a1a1a;fill-opacity:1;fill-rule:evenodd;stroke:#000000;stroke-width:1px;stroke-linecap:butt;stroke-linejoin:miter;stroke-opacity:1"/>
      <path sodipodi:nodetypes="cccccccccccccccc" id="path2645" d="M 104.29074,124.47098 C 104.8437,127.7322 104.78593,131.50434 103.29074,134.47098 C 102.19311,135.60178 100.60429,133.9642 99.790737,135.59598 C 100.11591,137.00784 101.48022,137.3692 102.79074,137.72098 C 101.85152,139.57752 100.04911,141.14033 101.91574,143.22098 C 103.12633,142.59983 103.96006,141.20339 104.29074,139.97098 C 104.42781,141.40759 103.21545,144.26146 105.91574,143.09598 C 107.22693,142.11323 106.58798,140.67654 106.66574,139.22098 C 107.71428,140.84123 108.03024,143.27706 109.41574,140.47098 C 109.55502,139.21281 108.94808,138.33808 108.29074,137.34598 C 108.1197,136.07782 108.57405,134.74857 108.79074,133.47098 C 110.38424,130.77685 110.83565,127.77721 111.29074,124.72098 C 109.47634,122.33461 111.32224,118.98787 109.79074,116.59598 C 109.3638,115.52463 108.95546,114.60662 108.29074,113.72098 C 105.47609,112.91596 103.18595,113.73538 101.91574,116.34598 C 100.42111,119.79562 103.63559,121.66029 104.29074,124.47098 z" style="fill:#e9d2af;fill-opacity:1;fill-rule:evenodd;stroke:#3f2d10;stroke-width:1px;stroke-linecap:butt;stroke-linejoin:miter;stroke-opacity:1"/>
      <path sodipodi:nodetypes="ccccccc" id="path2585" d="M 96.125156,104.70179 C 96.253819,107.24259 96.893558,109.57231 97.716146,111.94964 C 98.380628,114.38454 98.573726,116.86712 98.60003,119.37426 C 102.80447,118.92781 107.30476,117.16151 111.50472,115.83873 C 111.0638,113.76835 110.49392,111.73582 110.09051,109.65154 C 109.42265,106.90757 107.23492,105.3051 106.02465,102.93403 C 104.54762,100.86789 102.53951,99.891873 100.01424,100.63593" style="fill:#1a1a1a;fill-opacity:1;fill-rule:evenodd;stroke:#000000;stroke-width:1px;stroke-linecap:butt;stroke-linejoin:miter;stroke-opacity:1"/>
      <path sodipodi:nodetypes="ccccccccc" id="path2550" d="M 85.993427,52.886309 C 75.542761,52.825104 71.408634,59.720358 71.269185,68.688979 C 71.269185,70.565137 72.136371,74.257597 72.601292,76.117279 C 72.384876,79.779035 71.47765,82.546002 72.558398,86.120328 C 73.81526,91.177058 77.211843,93.868717 82.10434,94.959163 C 86.447478,94.873876 92.284413,93.398883 95.539363,90.362968 C 100.19991,86.549426 101.60305,80.094713 103.31754,74.453066 C 103.92695,69.064144 101.31243,63.923149 99.781997,58.896717 C 97.650743,53.396395 91.204711,52.116455 85.993427,52.886309 z" style="fill:#e9d2af;fill-opacity:1;fill-rule:evenodd;stroke:#3f2d10;stroke-width:1px;stroke-linecap:butt;stroke-linejoin:miter;stroke-opacity:1"/>
      <path sodipodi:nodetypes="cccccccc" id="path2554" d="M 72.558398,59.957377 C 71.913756,50.094922 98.81326,46.838407 100.21766,54.636309 C 107.77407,55.216533 107.81218,74.573613 105.93518,81.23492 C 98.139323,81.155499 102.19293,72.123613 97.660683,69.856872 C 95.729683,69.37412 95.084403,70.854498 93.418048,71.271085 C 89.88856,69.002543 93.458161,62.022849 87.761194,59.603823 C 84.97945,60.728026 81.453614,62.463027 78.568806,59.603823 C 76.103067,59.603823 74.658207,60.7973 72.558398,59.957377 z" style="fill:#28170b;fill-rule:evenodd;stroke:#120a04;stroke-width:1px;stroke-linecap:butt;stroke-linejoin:miter;stroke-opacity:1"/>
      <path id="path2556" d="M 104.8117,79.836321 C 103.23215,79.836321 105.95254,85.460309 106.22592,86.553836 C 106.6497,88.248961 109.71782,90.738301 110.82211,92.21069 C 111.76006,93.461288 115.79192,92.273377 116.83252,91.857137 C 118.58377,91.156635 120.623,92.112082 121.42871,92.917797 C 123.94289,95.431974 122.43946,91.7573 121.78227,90.442923 C 121.26611,89.410602 118.90776,88.021876 117.89318,87.260942 C 116.16846,85.967404 115.81718,84.477833 114.35765,83.018302 C 112.96472,81.625372 111.29517,81.604088 109.4079,81.604088 C 108.22893,81.604088 106.25344,80.124669 104.8117,79.836321 z" style="fill:#28170b;fill-rule:evenodd;stroke:#120a04;stroke-width:1px;stroke-linecap:butt;stroke-linejoin:miter;stroke-opacity:1"/>
      <path sodipodi:nodetypes="ccccc" id="path2619" d="M 83.235284,98.238756 C 84.973995,102.82325 93.587404,101.31198 96.640614,96.949539 C 95.422526,94.472116 94.559752,91.496737 91.890614,90.199539 C 89.623852,89.940738 87.42382,90.571021 85.265614,91.199539 C 83.527419,92.555148 82.846437,96.49751 83.235284,98.238756 z" style="fill:#e9d2af;fill-opacity:1;fill-rule:evenodd;stroke:#3f2d10;stroke-width:1px;stroke-linecap:butt;stroke-linejoin:miter;stroke-opacity:1"/>
      <path sodipodi:nodetypes="cccccccccccccc" id="path2558" d="M 71.378366,92.471906 C 72.03428,93.783729 73.366934,94.596906 75.034616,94.596906 C 77.661119,95.354199 80.202316,96.532664 82.815866,97.440656 C 86.247576,98.322516 88.748287,96.570926 91.284616,94.596906 C 95.558453,92.387155 99.986637,88.625775 100.87836,83.690656 C 101.12836,81.623114 100.31431,81.628156 99.12836,82.003156 C 97.158273,84.013576 94.69028,86.138068 92.003366,87.190656 C 88.599332,88.157664 85.902458,88.605933 84.940866,84.690656 C 83.811828,81.447827 80.166154,80.516764 77.159616,79.753156 C 70.769134,79.47708 69.37476,87.813828 71.378366,92.471906 z M 77.097116,83.690656 C 80.180841,82.388502 86.60653,90.319551 81.034616,90.003156 C 78.693729,89.223546 78.206886,87.708363 76.815866,89.659406 C 71.855014,91.163163 73.811053,84.936947 77.097116,83.690656 z" style="fill:#28170b;fill-rule:evenodd;stroke:#120a04;stroke-width:1px;stroke-linecap:butt;stroke-linejoin:miter;stroke-opacity:1"/>
      <path sodipodi:nodetypes="cccc" id="path2565" d="M 80.440866,69.190656 C 79.074938,72.189137 80.131835,73.947267 83.056983,73.513879 C 83.955548,73.90949 85.82767,71.717595 85.397973,70.263879 C 85.719547,66.35973 82.335083,66.274986 80.440866,69.190656 z" style="fill:#ffffff;fill-rule:evenodd;stroke:#333333;stroke-width:1px;stroke-linecap:butt;stroke-linejoin:miter;stroke-opacity:1"/>
      <path sodipodi:nodetypes="ccc" id="path2567" d="M 74.440866,67.190656 C 72.087145,67.719234 70.982542,69.516923 71.440866,72.190656 C 74.158225,77.208579 79.325916,69.988852 74.440866,67.190656 z" style="fill:#ffffff;fill-rule:evenodd;stroke:#333333;stroke-width:1px;stroke-linecap:butt;stroke-linejoin:miter;stroke-opacity:1"/>
      <path sodipodi:nodetypes="cccc" id="path2569" d="M 77.940866,70.940656 C 77.525291,73.351226 75.191902,74.473402 73.940866,75.690656 C 73.301663,78.365467 73.685579,80.284472 76.690866,79.690656 C 78.790806,78.715004 79.633855,77.096591 79.940866,74.940656" style="fill:#e9d2af;fill-opacity:1;fill-rule:evenodd;stroke:#3f2d10;stroke-width:1px;stroke-linecap:butt;stroke-linejoin:miter;stroke-opacity:1"/>
      <path sodipodi:nodetypes="cc" id="path2571" d="M 95.440863,71.440656 C 101.30424,69.111138 100.27107,77.79483 95.940863,76.940656" style="fill:#e9d2af;fill-opacity:1;fill-rule:evenodd;stroke:#3f2d10;stroke-width:1px;stroke-linecap:butt;stroke-linejoin:miter;stroke-opacity:1"/>
      <path sodipodi:nodetypes="cs" id="path2573" d="M 96.565863,72.815656 C 97.416943,71.322723 99.658347,73.995447 96.565863,75.440656" style="fill:#e9d2af;fill-opacity:1;fill-rule:evenodd;stroke:#3f2d10;stroke-width:1px;stroke-linecap:butt;stroke-linejoin:miter;stroke-opacity:1"/>
      <path sodipodi:nodetypes="cc" id="path2575" d="M 75.440866,86.940656 C 76.405722,87.349802 79.139987,87.131978 80.815866,86.940656" style="fill:none;fill-rule:evenodd;stroke:#3f2d10;stroke-width:1px;stroke-linecap:butt;stroke-linejoin:miter;stroke-opacity:1"/>
      <path sodipodi:nodetypes="cssc" id="path2577" d="M 81.703429,69.556773 C 82.089965,69.200124 79.826421,68.534604 79.953429,70.556773 C 80.051871,72.124122 81.946299,72.497312 82.578429,72.056773 C 83.84804,71.171967 82.315807,69.244069 81.703429,69.556773 z" style="fill:#000000;fill-rule:evenodd;stroke:#000000;stroke-width:1px;stroke-linecap:butt;stroke-linejoin:miter;stroke-opacity:1"/>
      <path sodipodi:nodetypes="cssc" id="path2579" d="M 73.056983,69.526442 C 73.514323,68.577731 70.879819,69.338782 71.556983,71.526442 C 72.024322,73.036237 73.68168,72.107378 73.806983,72.026442 C 75.487331,70.941079 74.128489,68.174198 73.056983,69.526442 z" style="fill:#000000;fill-rule:evenodd;stroke:#000000;stroke-width:1px;stroke-linecap:butt;stroke-linejoin:miter;stroke-opacity:1"/>
      <path sodipodi:nodetypes="ccc" id="path2643" d="M 83.165001,162.75302 C 86.293311,163.42388 89.688124,163.77091 92.11367,162.81108 C 95.029188,162.42517 97.629618,161.82057 100.31234,158.95232" style="fill:none;fill-rule:evenodd;stroke:#333333;stroke-width:1px;stroke-linecap:butt;stroke-linejoin:miter;stroke-opacity:1"/>
      <path style="font-size:12px;font-style:normal;font-variant:normal;font-weight:normal;font-stretch:normal;fill:#ffffff;fill-opacity:1;stroke:none;stroke-width:1px;stroke-linecap:butt;stroke-linejoin:miter;stroke-opacity:1;font-family:Rufscript;-inkscape-font-specification:Rufscript" d="M 79.403356,114.70436 C 79.065206,114.7997 79.2916,114.2197 79.213659,113.92805 C 79.155171,112.74073 79.003673,111.54038 79.012886,110.36325 C 79.005304,109.88687 79.002008,109.41054 79.026952,108.94337 C 79.183385,108.60015 79.522467,108.6767 79.787205,108.66289 C 80.208449,108.68289 80.634477,108.75488 81.059653,108.87883 C 81.322037,109.1826 81.508232,109.6214 81.652799,110.05191 C 81.790989,110.59233 81.615098,111.1043 81.360473,111.38535 C 81.061913,111.75821 80.630613,111.87574 80.380918,112.33433 C 80.248531,112.71983 80.524374,113.12868 80.759335,113.33062 C 81.090439,113.65243 81.440091,114.00424 81.625492,114.55032 C 81.755301,114.82956 81.820509,115.31534 81.509897,115.19018 C 81.155779,115.18397 80.959597,114.64054 80.737337,114.27441 C 80.515795,113.90909 80.27184,113.58291 80.047236,113.229 C 79.716284,113.14675 79.734152,113.82307 79.726622,114.17907 C 79.781103,114.59469 79.583134,114.57028 79.403356,114.70436 z M 79.718068,111.84434 C 80.221622,111.54335 80.781516,111.27968 81.106206,110.61667 C 81.237149,110.26002 81.018701,109.81049 80.76839,109.64247 C 80.429585,109.37419 80.063582,109.38527 79.714136,109.30649 C 79.469958,109.49497 79.673339,110.07579 79.660387,110.44105 C 79.693259,110.9109 79.694709,111.37592 79.718068,111.84434 z M 83.526715,115.53769 C 83.532652,114.6074 83.554307,113.66965 83.404746,112.71876 C 83.342617,112.18325 83.281899,111.64771 83.221637,111.11219 C 82.984917,110.74583 82.644293,110.76409 82.357306,110.61307 C 82.105229,110.5151 81.795114,110.29404 81.72706,109.86469 C 81.7899,109.4385 82.223137,109.83786 82.443443,109.77191 C 83.390731,109.95891 84.348156,110.08729 85.289507,110.54778 C 85.593992,110.60809 85.759183,111.29558 85.406981,111.3202 C 85.006962,111.35952 84.588925,111.15603 84.181477,111.09197 C 83.952285,111.02881 83.967119,111.52968 83.984733,111.78678 C 84.080529,112.46964 84.145644,113.1549 84.159468,113.83289 C 84.172094,114.46352 84.171823,115.09859 84.113835,115.7045 C 84.058951,116.12682 83.623066,115.97 83.529094,115.59102 L 83.526714,115.53769 L 83.526715,115.53769 z M 86.506836,114.24771 C 86.326796,114.6057 86.577522,115.13637 86.623349,115.56489 C 86.746257,115.97803 86.805918,116.77578 86.382942,116.62204 C 86.013362,116.52087 86.02667,115.91119 85.994363,115.50705 C 85.896051,114.12173 85.855451,112.74268 85.827018,111.36867 C 85.761365,110.90878 86.00841,110.71062 86.263189,110.67409 C 86.70303,110.60247 87.164443,110.65628 87.620154,110.76866 C 87.87678,110.81738 88.104175,111.03481 88.245619,111.39297 C 88.408577,111.62439 88.464705,112.1384 88.165031,111.87253 C 87.663241,111.67401 87.14179,111.41819 86.649137,111.513 C 86.365298,111.72808 86.506137,112.37084 86.490272,112.79575 C 86.518373,113.28292 86.854529,113.57282 87.137398,113.53745 C 87.451587,113.55715 87.81152,113.40211 88.102541,113.77303 C 88.362743,114.27528 87.904826,114.55591 87.632173,114.45937 C 87.26071,114.45835 86.882219,114.3593 86.506836,114.24771 z M 91.914731,119.14938 C 91.791301,118.47749 91.83781,117.81284 91.810533,117.14853 C 91.796376,115.65583 91.845604,114.17841 91.798716,112.67806 C 91.617015,112.78702 91.528738,113.15195 91.356425,113.32242 C 91.140223,113.61699 90.893614,113.85875 90.639826,114.08123 C 90.80013,114.331 91.262415,114.74653 90.993094,115.04421 C 90.67003,115.3326 90.411698,114.65921 90.213708,114.30659 C 89.871176,113.70213 89.529965,113.09579 89.175458,112.50627 C 89.232829,113.99195 89.30988,115.48315 89.308994,116.95707 C 89.258684,117.43721 88.68668,117.34721 88.676991,116.78476 C 88.622761,116.10704 88.636138,115.43689 88.620817,114.76443 C 88.610582,113.78795 88.601546,112.81093 88.623554,111.84298 C 88.691248,111.38632 89.130734,111.48145 89.35358,111.77619 C 89.698924,112.11049 89.797121,112.71438 90.007541,113.19361 C 90.234535,113.65607 90.437583,113.07377 90.612203,112.93168 C 90.93427,112.53602 91.264404,112.14876 91.540483,111.68098 C 91.553439,111.22244 91.986759,111.01541 92.19161,111.47634 C 92.292575,112.38734 92.26122,113.29007 92.327937,114.20047 C 92.378699,115.54337 92.341792,116.87435 92.45568,118.22598 C 92.560137,118.65522 92.475745,119.10189 92.198384,119.21453 C 92.117555,119.2817 91.983426,119.31966 91.914731,119.14938 z" id="text3212"/>
    </g>
  </g>
  <metadata>
    <rdf:RDF>
      <cc:Work>
        <dc:format>image/svg+xml</dc:format>
        <dc:type rdf:resource="http://purl.org/dc/dcmitype/StillImage"/>
        <cc:license rdf:resource="http://creativecommons.org/licenses/publicdomain/"/>
        <dc:publisher>
          <cc:Agent rdf:about="http://openclipart.org/">
            <dc:title>Open Clip Art Library</dc:title>
          </cc:Agent>
        </dc:publisher>
        <dc:title>Comic characters: Bearded guy</dc:title>
        <dc:date>2009-03-05T13:58:11</dc:date>
        <dc:description>Comic characters: a bearded guy</dc:description>
        <dc:source>http://openclipart.org/detail/21847/comic-characters:-bearded-guy-by-nicubunu</dc:source>
        <dc:creator>
          <cc:Agent>
            <dc:title>nicubunu</dc:title>
          </cc:Agent>
        </dc:creator>
        <dc:subject>
          <rdf:Bag>
            <rdf:li>cartoon</rdf:li>
            <rdf:li>cartoon</rdf:li>
            <rdf:li>character</rdf:li>
            <rdf:li>character</rdf:li>
            <rdf:li>clip art</rdf:li>
            <rdf:li>clipart</rdf:li>
            <rdf:li>comic</rdf:li>
            <rdf:li>comic</rdf:li>
            <rdf:li>funny</rdf:li>
            <rdf:li>funny</rdf:li>
            <rdf:li>guy</rdf:li>
            <rdf:li>guy</rdf:li>
            <rdf:li>human</rdf:li>
            <rdf:li>human</rdf:li>
            <rdf:li>image</rdf:li>
            <rdf:li>media</rdf:li>
            <rdf:li>people</rdf:li>
            <rdf:li>people</rdf:li>
            <rdf:li>png</rdf:li>
            <rdf:li>public domain</rdf:li>
            <rdf:li>svg</rdf:li>
          </rdf:Bag>
        </dc:subject>
      </cc:Work>
      <cc:License rdf:about="http://creativecommons.org/licenses/publicdomain/">
        <cc:permits rdf:resource="http://creativecommons.org/ns#Reproduction"/>
        <cc:permits rdf:resource="http://creativecommons.org/ns#Distribution"/>
        <cc:permits rdf:resource="http://creativecommons.org/ns#DerivativeWorks"/>
      </cc:License>
    </rdf:RDF>
  </metadata>
</svg>