<?xml version="1.0" encoding="UTF-8" standalone="no"?>
<!-- Created with Inkscape (http://www.inkscape.org/) -->
<svg xmlns:dc="http://purl.org/dc/elements/1.1/" xmlns:cc="http://creativecommons.org/ns#" xmlns:rdf="http://www.w3.org/1999/02/22-rdf-syntax-ns#" xmlns:svg="http://www.w3.org/2000/svg" xmlns="http://www.w3.org/2000/svg" xmlns:sodipodi="http://sodipodi.sourceforge.net/DTD/sodipodi-0.dtd" xmlns:inkscape="http://www.inkscape.org/namespaces/inkscape" width="128" height="128" id="svg2" sodipodi:version="0.32" inkscape:version="0.46" version="1.0" sodipodi:docname="issue.svg" inkscape:output_extension="org.inkscape.output.svg.inkscape">
  <defs id="defs4">
    <filter inkscape:collect="always" id="filter3545" x="-0.13756142" width="1.2751228" y="-0.26432987" height="1.5286597">
      <feGaussianBlur inkscape:collect="always" stdDeviation="4.0386908" id="feGaussianBlur3547"/>
    </filter>
  </defs>
  <sodipodi:namedview id="base" pagecolor="#ffffff" bordercolor="#666666" borderopacity="1.0" gridtolerance="10000" guidetolerance="10" objecttolerance="10" inkscape:pageopacity="0.0" inkscape:pageshadow="2" inkscape:zoom="1" inkscape:cx="64" inkscape:cy="92.284271" inkscape:document-units="px" inkscape:current-layer="g2474" showgrid="false" inkscape:window-width="1538" inkscape:window-height="961" inkscape:window-x="127" inkscape:window-y="31"/>
  <g inkscape:label="Layer 1" inkscape:groupmode="layer" id="layer1">
    <path style="fill:#000000;fill-rule:evenodd;stroke:none;stroke-width:1px;stroke-linecap:butt;stroke-linejoin:miter;stroke-opacity:1;filter:url(#filter3545);fill-opacity:0.76131689999999985" d="M 34.648232,92.114331 C 34.648232,93.71318 31.46652,95.297115 31.996582,96.887302 C 40.90196,103.61153 42.253792,108.95355 50.204582,112.26688 C 51.41407,112.56925 56.403002,117.04546 57.452426,117.57017 C 62.09917,119.57205 63.265086,121.48182 69.119688,120.04505 C 70.259559,119.19015 70.975508,118.29963 71.948115,117.57017 C 79.240198,115.07493 83.783471,111.54567 88.211571,105.54936 C 90.527606,99.113063 106.35052,107.61189 101.46982,99.362175 C 89.025314,75.34766 58.638066,84.527437 34.648232,92.114331 z" id="path2601" sodipodi:nodetypes="ccccccccc"/>
    <g id="g3779" transform="translate(-101,-22)"/>
    <g id="g2474" transform="translate(0,4.5)">
      <path style="fill:#28170b;fill-rule:evenodd;stroke:#120a04;stroke-width:1px;stroke-linecap:butt;stroke-linejoin:miter;stroke-opacity:1" d="M 73.96309,30.631393 C 72.44213,31.057613 76.57915,35.73894 77.13746,36.71814 C 78.00291,38.23603 81.62893,39.80516 83.08956,40.92496 C 84.33017,41.87608 87.89194,39.64431 88.78163,38.96272 C 90.2789,37.81565 92.5003,38.18541 93.49354,38.74384 C 96.59286,40.48634 94.15365,37.35365 93.16618,36.26536 C 92.39061,35.41061 89.74502,34.70976 88.56274,34.25081 C 86.55296,33.47063 85.81278,32.131103 84.01355,31.119543 C 82.29643,30.154137 80.68307,30.584143 78.8658,31.093393 C 77.73057,31.411513 75.42916,30.520023 73.96309,30.631393 z" id="path2866"/>
      <path sodipodi:nodetypes="ccccccc" style="fill:#00325c;fill-opacity:1;fill-rule:evenodd;stroke:#00192e;stroke-width:1px;stroke-linecap:butt;stroke-linejoin:miter;stroke-opacity:1" d="M 79.190565,84.866 C 82.35246,82.954664 85.968928,81.928489 89.204485,83.946001 C 90.750641,87.112118 90.840763,91.01136 88.185642,93.576328 C 86.654211,94.439599 85.42539,95.06862 83.600478,95.570386 C 78.03872,95.869662 71.537708,97.193827 66.033895,95.750714 C 64.256979,94.575896 64.526176,92.741553 65.047305,90.771455 C 69.600299,88.653973 74.485891,87.080454 79.190565,84.866 z" id="path2556"/>
      <path sodipodi:nodetypes="ccccccc" id="path2554" d="M 54.143444,87.051891 C 50.106726,85.485896 46.323838,82.712744 41.810811,83.2154 C 38.742727,83.964083 38.956148,86.590721 38.759523,89.171143 C 38.413489,91.30521 39.04518,92.737513 40.786824,93.91944 C 45.488973,96.737276 50.841256,96.707932 56.102773,96.172871 C 59.495832,96.520687 63.485871,96.574482 65.40808,93.336828 C 66.516686,88.891578 57.121093,88.375517 54.143444,87.051891 z" style="fill:#00325c;fill-opacity:1;fill-rule:evenodd;stroke:#00192e;stroke-width:1px;stroke-linecap:butt;stroke-linejoin:miter;stroke-opacity:1"/>
      <path style="fill:#1a1a1a;fill-opacity:1;fill-rule:evenodd;stroke:#000000;stroke-width:1px;stroke-linecap:butt;stroke-linejoin:miter;stroke-opacity:1" d="M 79.44514,85.712023 C 76.64003,82.250763 78.71496,80.1452 79.07274,76.18124 C 77.84461,71.22419 79.37916,66.33918 78.32642,61.38377 C 77.86065,58.27801 80.72275,55.4084 79.16221,52.70027 C 77.37794,50.2872 72.87,49.16424 69.84115,49.00942 C 65.9552,49.57859 62.03257,49.05412 58.17388,49.8933 C 55.32659,51.13218 50.36423,52.05934 50.04736,55.13225 C 49.90983,57.90618 52.803347,62.32371 51.517027,64.82831 C 51.129877,69.2797 49.808437,74.30819 50.434927,78.77223 C 51.329397,83.96561 49.088084,82.592066 49.663474,87.771606 C 54.145354,85.205806 60.457893,93.751804 65.546723,93.182134 C 69.814863,91.656314 76.79717,88.948413 79.44514,85.712023 z" id="path2794" sodipodi:nodetypes="cccccccccccc"/>
      <path style="fill:#e9d2af;fill-opacity:1;fill-rule:evenodd;stroke:#3f2d10;stroke-width:1px;stroke-linecap:butt;stroke-linejoin:miter;stroke-opacity:1" d="M 59.807265,53.16537 C 60.463587,58.02437 69.19555,58.5012 73.15665,54.94273 C 72.53071,52.25395 72.36352,49.16051 70.05711,47.29303 C 67.9077,46.52805 65.62211,46.6442 63.37766,46.76809 C 61.377825,47.69526 59.822491,51.38129 59.807265,53.16537 z" id="path2792" sodipodi:nodetypes="ccccc"/>
      <path sodipodi:nodetypes="ccccccc" id="path2649" d="M 51.279811,15.54233 C 49.870609,20.342799 51.913205,25.996141 53.171351,30.697981 C 51.348077,36.55211 51.585202,41.88926 57.137545,46.55944 C 63.56249,48.64797 77.29241,49.61406 79.49179,40.56941 C 80.85831,29.191961 78.37862,35.74454 80.96472,26.240264 C 81.81956,13.926762 77.45061,5.580092 65.87502,6.474709 C 57.873213,6.212589 54.438815,10.339288 51.279811,15.54233 z" style="fill:#e9d2af;fill-opacity:1;fill-rule:evenodd;stroke:#3f2d10;stroke-width:0.99999994px;stroke-linecap:butt;stroke-linejoin:miter;stroke-opacity:1"/>
      <path sodipodi:nodetypes="ccccccccccccccc" id="path2654" d="M 66.35922,33.14105 C 60.798159,32.829476 57.929596,36.11407 54.750161,38.08381 C 54.210837,38.26385 53.835315,38.99259 53.414983,39.48351 C 51.73506,42.99785 54.173912,46.82571 57.316767,49.01212 C 59.949604,50.54043 62.63204,51.04311 65.51999,50.54082 C 68.25057,50.05471 71.22093,50.1906 73.631,48.89424 C 77.61468,48.30905 78.99963,46.14022 79.46838,42.2492 C 79.293,39.60128 77.99321,36.46467 75.73158,35.16574 C 72.78506,34.3319 69.42272,32.631876 66.35922,33.14105 z M 65.58544,36.50974 C 67.40061,37.03526 70.92652,38.1016 72.32826,39.27836 C 72.89119,41.60009 71.79169,43.91055 69.39635,43.63074 C 67.84007,41.75412 64.72621,42.21477 62.97789,43.9743 C 60.892404,44.34645 60.019906,41.86486 60.073237,40.1281 C 60.750047,38.30285 64.00639,37.48378 65.58544,36.50974 z" style="fill:#28170b;fill-opacity:1;fill-rule:evenodd;stroke:#120a04;stroke-width:0.99999994px;stroke-linecap:butt;stroke-linejoin:miter;stroke-opacity:1"/>
      <path sodipodi:nodetypes="ccccscscccccc" id="path2665" d="M 65.91255,12.61335 C 70.39414,11.58335 69.65798,10.517133 70.79884,9.12303 C 79.725582,8.808283 80.337409,16.722569 78.93719,20.28325 C 80.59356,18.788842 79.72244,18.033859 81.76839,19.475248 C 82.2381,19.877758 81.88297,23.535862 81.80262,24.010154 C 81.71811,24.508977 79.94147,30.873173 80.31483,31.025207 C 84.79244,28.307876 85.60462,16.370776 80.83039,9.833845 C 77.30757,5.010352 71.09762,3.086169 65.75316,4.896201 C 50.380862,1.719525 45.018896,20.868585 52.577231,34.06765 C 53.458557,31.081851 50.944231,25.084485 52.054145,21.834191 C 52.977832,21.011247 53.220717,22.638304 54.414936,22.509889 C 50.396519,14.377879 54.809449,9.983032 60.192453,9.136528 C 61.574666,7.912975 61.543828,12.178157 65.91255,12.61335 z" style="fill:#28170b;fill-opacity:1;fill-rule:evenodd;stroke:#120a04;stroke-width:0.99999994px;stroke-linecap:butt;stroke-linejoin:miter;stroke-opacity:1"/>
      <path style="fill:#ffffff;fill-rule:evenodd;stroke:#333333;stroke-width:1px;stroke-linecap:butt;stroke-linejoin:miter;stroke-opacity:1" d="M 69.49076,22.269019 C 68.07539,25.244483 69.10304,27.019864 72.03496,26.634947 C 72.92686,27.045375 74.835,24.884764 74.42942,23.424136 C 74.81557,19.525844 71.43296,19.385098 69.49076,22.269019 z" id="path2696" sodipodi:nodetypes="cccc"/>
      <path style="fill:#ffffff;fill-rule:evenodd;stroke:#333333;stroke-width:0.99999994px;stroke-linecap:butt;stroke-linejoin:miter;stroke-opacity:1" d="M 61.577746,20.137765 C 58.985862,20.623514 57.743826,22.40089 58.202576,25.082583 C 61.10176,30.149182 66.89264,23.024319 61.577746,20.137765 z" id="path2698" sodipodi:nodetypes="ccc"/>
      <path style="fill:#000000;fill-rule:evenodd;stroke:#000000;stroke-width:1px;stroke-linecap:butt;stroke-linejoin:miter;stroke-opacity:1" d="M 72.029728,24.412331 C 72.555298,24.432194 71.420308,22.363772 70.083908,23.886713 C 69.048088,25.067117 70.127648,26.667955 70.886468,26.801593 C 72.410528,27.069999 72.684378,24.622649 72.029728,24.412331 z" id="path2700" sodipodi:nodetypes="cssc"/>
      <path style="fill:#000000;fill-rule:evenodd;stroke:#000000;stroke-width:1px;stroke-linecap:butt;stroke-linejoin:miter;stroke-opacity:1" d="M 61.148056,24.044582 C 61.621034,23.10357 58.9743,23.820915 59.615161,26.019482 C 60.05745,27.536805 61.729955,26.635503 61.856578,26.556652 C 63.554665,25.499248 62.241799,22.710257 61.148056,24.044582 z" id="path2702" sodipodi:nodetypes="cssc"/>
      <path style="fill:#e9d2af;fill-opacity:1;fill-rule:evenodd;stroke:#3f2d10;stroke-width:1px;stroke-linecap:butt;stroke-linejoin:miter;stroke-opacity:1" d="M 64.30389,25.964012 C 63.16616,28.133429 59.916382,33.33316 64.9338,33.22544 C 69.61638,33.21461 67.18913,27.907528 67.05559,25.884542" id="path2704" sodipodi:nodetypes="ccc"/>
      <path style="fill:none;fill-rule:evenodd;stroke:#3f2d10;stroke-width:1px;stroke-linecap:butt;stroke-linejoin:miter;stroke-opacity:1" d="M 63.22219,39.74089 C 64.18013,40.16594 66.91763,39.99341 68.59645,39.82985" id="path2706" sodipodi:nodetypes="cc"/>
      <path style="fill:#e9d2af;fill-opacity:1;fill-rule:evenodd;stroke:#3f2d10;stroke-width:1px;stroke-linecap:butt;stroke-linejoin:miter;stroke-opacity:1" d="M 80.25474,20.661411 C 87.66808,17.704179 84.59176,27.838346 80.4054,26.664726" id="path2708" sodipodi:nodetypes="cc"/>
      <path style="fill:#e9d2af;fill-opacity:1;fill-rule:evenodd;stroke:#3f2d10;stroke-width:1px;stroke-linecap:butt;stroke-linejoin:miter;stroke-opacity:1" d="M 81.22978,22.177755 C 83.35734,20.594817 84.17113,23.781446 81.05514,25.175276" id="path2710" sodipodi:nodetypes="cs"/>
      <path sodipodi:nodetypes="cc" id="path2743" d="M 52.738489,22.739241 C 44.991532,20.818965 49.419082,30.439873 53.40665,28.70716" style="fill:#e9d2af;fill-opacity:1;fill-rule:evenodd;stroke:#3f2d10;stroke-width:1px;stroke-linecap:butt;stroke-linejoin:miter;stroke-opacity:1"/>
      <path sodipodi:nodetypes="cs" id="path2745" d="M 51.979,24.374227 C 49.65571,23.095725 49.283404,26.363481 52.560156,27.320052" style="fill:#e9d2af;fill-opacity:1;fill-rule:evenodd;stroke:#3f2d10;stroke-width:1px;stroke-linecap:butt;stroke-linejoin:miter;stroke-opacity:1"/>
      <path style="fill:#e9d2af;fill-opacity:1;fill-rule:evenodd;stroke:#3f2d10;stroke-width:1px;stroke-linecap:butt;stroke-linejoin:miter;stroke-opacity:1" d="M 86.714357,64.774603 C 90.362124,65.926716 91.303078,69.899183 92.901542,72.729554 C 93.179088,74.905522 91.220181,76.001105 89.366008,76.972195 C 86.807211,77.358388 85.167366,77.475883 83.178823,75.911535 C 82.633067,75.365779 81.047782,72.690668 80.880727,72.022448 C 80.106908,68.716807 82.336224,62.585536 86.714357,64.774603 z" id="path2580" sodipodi:nodetypes="cccccc"/>
      <path style="fill:#1a1a1a;fill-opacity:1;fill-rule:evenodd;stroke:#000000;stroke-width:0.99999994000000003px;stroke-linecap:butt;stroke-linejoin:miter;stroke-opacity:1" d="M 75.94986,61.42952 C 76.25144,62.28807 76.77162,62.60306 77.98004,64.80943 C 79.04219,67.099 79.64758,68.51437 80.09261,70.98183 C 84.16326,69.83883 86.30497,68.3451 90.2247,66.33886 C 89.4439,64.37132 88.29227,62.46265 87.54612,60.47513 C 86.42897,57.88142 84.62915,57.29221 83.03955,55.15681 C 81.19988,53.70902 80.58313,53.22107 78.47956,52.02077" id="path2796" sodipodi:nodetypes="ccccccc"/>
      <path sodipodi:nodetypes="cccccc" id="path2578" d="M 42.571961,63.713943 C 38.924194,64.866056 37.099357,69.722406 35.500893,72.552777 C 35.223347,74.728745 38.242914,79.183086 40.097087,80.154176 C 42.655884,80.540369 44.118952,76.415223 46.107495,74.850875 C 46.653251,74.305119 48.238536,71.630008 48.405591,70.961788 C 49.17941,67.656147 46.950094,61.524876 42.571961,63.713943 z" style="fill:#e9d2af;fill-opacity:1;fill-rule:evenodd;stroke:#3f2d10;stroke-width:1px;stroke-linecap:butt;stroke-linejoin:miter;stroke-opacity:1"/>
      <path sodipodi:nodetypes="ccccccc" id="path2798" d="M 52.83521,61.19361 C 52.150578,63.64383 53.245363,62.43919 51.91979,64.57723 C 50.73578,66.80623 49.376102,71.06045 48.798735,73.50035 C 44.795601,72.13963 41.544314,68.30131 37.738397,66.08673 C 38.624104,64.16412 41.002293,62.18182 41.854473,60.2374 C 43.109792,57.70767 44.346528,57.75091 46.048901,55.70428 C 47.611945,54.51248 48.055994,52.90922 51.292687,52.78515" style="fill:#1a1a1a;fill-opacity:1;fill-rule:evenodd;stroke:#000000;stroke-width:0.99999994000000003px;stroke-linecap:butt;stroke-linejoin:miter;stroke-opacity:1"/>
      <path style="fill:none;fill-rule:evenodd;stroke:#006ca9;stroke-width:1px;stroke-linecap:butt;stroke-linejoin:miter;stroke-opacity:1" d="M 62.1479,69.92997 C 63.66884,69.45076 65.88775,69.27255 67.46452,69.10129" id="path2806" sodipodi:nodetypes="cc"/>
      <g transform="matrix(0.3682894,0.9297112,0.9297112,-0.3682894,-54.108308,162.3489)" id="g2564">
        <path sodipodi:nodetypes="cccccccc" id="path2818" d="M -14.95934,120.89166 C -12.60409,122.53015 -8.9022501,123.66245 -6.6664001,126.05015 C -6.3474301,126.99283 -6.4860401,128.02295 -6.4804901,129.00895 C -6.7747901,130.27704 -7.6264701,131.00056 -8.6647201,131.68892 C -11.32979,132.37513 -14.08177,131.27159 -16.622,130.48583 C -18.89152,130.1378 -21.51741,129.29919 -22.90032,127.37483 C -25.08336,124.79226 -24.4158,122.66248 -23.78411,119.49751 C -20.85525,120.0691 -17.92235,120.54309 -14.95934,120.89166 z" style="fill:#e6e6e6;fill-rule:evenodd;stroke:#333333;stroke-width:1px;stroke-linecap:butt;stroke-linejoin:miter;stroke-opacity:1"/>
        <path sodipodi:nodetypes="ccc" id="path2824" d="M -7.3066801,129.97973 C -10.49194,130.2805 -13.90405,130.22852 -16.20085,128.99187 C -19.05131,128.26797 -21.56329,127.36369 -23.89252,124.20164" style="fill:none;fill-rule:evenodd;stroke:#333333;stroke-width:1px;stroke-linecap:butt;stroke-linejoin:miter;stroke-opacity:1"/>
      </g>
      <path sodipodi:nodetypes="cccccc" id="path2560" d="M 38.941757,88.43235 C 38.487157,94.211342 42.136216,98.478628 47.603815,100.27639 C 49.273614,100.90164 50.647852,101.89428 52.376786,102.39771 C 53.443821,101.41409 54.437239,100.13096 55.558766,99.03895 C 56.220514,98.156621 57.401589,96.280083 57.84798,95.387302 C 54.977499,94.75446 51.329999,92.115568 48.893028,90.066234" style="fill:#00325c;fill-opacity:1;fill-rule:evenodd;stroke:#00192e;stroke-width:1px;stroke-linecap:butt;stroke-linejoin:miter;stroke-opacity:1"/>
      <g id="g2568" transform="matrix(-0.3154575,0.9489397,-0.9489397,-0.3154575,186.29316,156.75308)">
        <path style="fill:#e6e6e6;fill-rule:evenodd;stroke:#333333;stroke-width:1px;stroke-linecap:butt;stroke-linejoin:miter;stroke-opacity:1" d="M -14.95934,120.89166 C -12.60409,122.53015 -8.9022501,123.66245 -6.6664001,126.05015 C -6.3474301,126.99283 -6.4860401,128.02295 -6.4804901,129.00895 C -6.7747901,130.27704 -7.6264701,131.00056 -8.6647201,131.68892 C -11.32979,132.37513 -14.08177,131.27159 -16.622,130.48583 C -18.89152,130.1378 -21.51741,129.29919 -22.90032,127.37483 C -25.08336,124.79226 -24.4158,122.66248 -23.78411,119.49751 C -20.85525,120.0691 -17.92235,120.54309 -14.95934,120.89166 z" id="path2570" sodipodi:nodetypes="cccccccc"/>
        <path style="fill:none;fill-rule:evenodd;stroke:#333333;stroke-width:1px;stroke-linecap:butt;stroke-linejoin:miter;stroke-opacity:1" d="M -7.3066801,129.97973 C -10.49194,130.2805 -13.90405,130.22852 -16.20085,128.99187 C -19.05131,128.26797 -21.56329,127.36369 -23.89252,124.20164" id="path2572" sodipodi:nodetypes="ccc"/>
      </g>
      <path sodipodi:nodetypes="ccccccc" style="fill:#00325c;fill-opacity:1;fill-rule:evenodd;stroke:#00192e;stroke-width:1px;stroke-linecap:butt;stroke-linejoin:miter;stroke-opacity:1" d="M 90.276643,88.55735 C 90.759028,92.549692 88.717878,95.371069 86.210779,98.280069 C 83.375993,100.03253 81.533556,101.89305 78.341614,103.02271 C 77.274579,102.03909 74.781161,100.63096 73.659634,99.53895 C 72.918241,97.929974 72.112948,96.548473 71.672197,95.171311 C 73.741708,94.190016 75.625855,92.967099 77.548721,91.739331 C 79.21093,90.453755 81.320157,89.569436 82.218138,87.643137" id="path2562"/>
      <path style="font-size:9.67460823px;font-style:normal;font-variant:normal;font-weight:normal;font-stretch:normal;fill:#ffffff;fill-opacity:1;stroke:none;stroke-width:1px;stroke-linecap:butt;stroke-linejoin:miter;stroke-opacity:1;font-family:Rufscript;-inkscape-font-specification:Rufscript" d="M 57.03668,70.457123 C 56.877893,70.463479 56.644669,70.570716 56.778932,70.3095 C 56.772894,69.084245 56.485829,67.879118 56.472422,66.653189 C 56.457036,66.052625 56.436077,65.448481 56.482986,64.849746 C 56.658266,64.523725 57.082786,64.485895 57.409466,64.409243 C 58.090329,64.302998 58.785723,64.256514 59.473121,64.274461 C 59.812355,64.46304 60.0382,64.805482 60.256923,65.116723 C 60.544363,65.552393 60.416774,66.13608 60.07371,66.500987 C 59.679631,67.009974 59.047838,67.23699 58.61093,67.695988 C 58.28417,67.963998 58.424459,68.441302 58.774717,68.609625 C 59.216886,68.889712 59.751774,69.041967 60.096222,69.460665 C 60.288186,69.69608 60.493895,69.98155 60.476291,70.29769 C 60.171566,70.493765 59.617474,70.444829 59.400048,70.094488 C 59.121333,69.852568 58.882155,69.527818 58.581407,69.33209 C 58.26145,69.23158 58.043469,68.516 57.674338,68.977057 C 57.47627,69.29585 57.532631,69.701674 57.501823,70.062915 C 57.541622,70.249031 57.297418,70.269689 57.186863,70.36824 C 57.136802,70.397867 57.086741,70.427495 57.03668,70.457123 z M 57.499628,67.54718 C 58.191994,67.15752 58.928696,66.77567 59.435491,66.145764 C 59.674056,65.885062 59.64802,65.44229 59.330739,65.25726 C 58.847979,64.905267 58.213393,65.006506 57.65404,65.030216 C 57.137678,64.961607 57.375774,65.615712 57.382709,65.920086 C 57.463357,66.457661 57.458947,67.005319 57.499628,67.54718 z M 63.102209,70.244545 C 63.099591,69.397243 63.155791,68.537938 62.96209,67.705556 C 62.856932,67.117786 62.754744,66.52949 62.653435,65.941046 C 62.388291,65.67721 61.941202,65.739214 61.591588,65.681055 C 61.163747,65.658152 60.580445,65.573481 60.454888,65.082326 C 60.411516,64.702107 61.063866,64.910143 61.316267,64.818083 C 62.684241,64.764517 64.061739,64.659418 65.426202,64.818448 C 65.737973,64.848885 66.324851,64.972145 66.143105,65.409828 C 65.901407,65.702922 65.464334,65.655256 65.121438,65.671796 C 64.719305,65.675827 64.316289,65.665191 63.914724,65.685954 C 63.614278,66.10051 63.832826,66.632266 63.907746,67.086918 C 64.053654,68.044391 64.077883,69.022366 64.000415,69.987166 C 64.020464,70.370275 63.766544,70.732827 63.353164,70.51654 C 63.226918,70.483706 63.094878,70.390296 63.102208,70.244546 L 63.102209,70.244545 z M 67.486013,68.21798 C 67.235919,68.468836 67.517374,68.924044 67.57378,69.236121 C 67.686883,69.61939 67.909322,70.054732 67.716306,70.445313 C 67.436466,70.750958 66.800967,70.583291 66.801995,70.126701 C 66.617122,68.864678 66.578071,67.586233 66.506911,66.314045 C 66.506582,65.90472 66.443064,65.481783 66.536504,65.081291 C 66.954924,64.681435 67.57465,64.633165 68.119482,64.550957 C 68.646146,64.510954 69.204236,64.416284 69.711499,64.604935 C 69.905091,64.83005 70.356564,65.172896 70.231501,65.477808 C 69.417685,65.413553 68.578665,65.248574 67.769597,65.448837 C 67.340342,65.563504 67.456624,66.127419 67.447042,66.464224 C 67.403442,66.880078 67.608958,67.397295 68.101822,67.370109 C 68.654197,67.40921 69.218956,67.046126 69.757042,67.290912 C 70.219167,67.574671 69.776978,68.09244 69.374009,68.098722 C 68.756463,68.237205 68.115561,68.236351 67.486014,68.21798 L 67.486013,68.21798 z M 75.441114,71.708966 C 75.289034,71.229351 75.327633,70.710478 75.297551,70.212156 C 75.250514,68.586097 75.346568,66.958115 75.270459,65.332989 C 75.188499,65.255933 74.966151,65.714548 74.831466,65.834906 C 74.473095,66.285869 74.012099,66.674024 73.565712,67.013378 C 73.766822,67.210692 74.342103,67.443965 74.199898,67.750313 C 73.916952,68.158771 73.435003,68.00171 73.219164,67.627785 C 72.620241,67.022743 72.029452,66.408582 71.411604,65.822949 C 71.497805,67.255021 71.599429,68.687976 71.612367,70.122905 C 71.625692,70.515884 71.036594,70.75029 70.783833,70.455499 C 70.580671,70.109948 70.661541,69.683474 70.618813,69.300654 C 70.588805,67.993564 70.563219,66.685162 70.594656,65.378014 C 70.593759,64.972532 71.053501,64.851443 71.379714,64.927768 C 71.786116,65.056923 72.147433,65.356416 72.30745,65.758733 C 72.478981,65.990876 72.665505,66.590765 73.00451,66.403046 C 73.463542,65.937152 73.93725,65.484055 74.387085,65.01014 C 74.605619,64.708817 74.970777,64.478642 75.005181,64.078122 C 75.194744,63.803064 75.870728,63.742871 75.88132,64.188767 C 75.975279,65.024985 75.965793,65.869367 76.048946,66.706695 C 76.116439,68.001829 76.082583,69.303545 76.220561,70.594117 C 76.308236,70.934842 76.39345,71.358389 76.024959,71.574516 C 75.880067,71.692463 75.605109,71.928015 75.441113,71.708964 L 75.441114,71.708966 z" id="text2453"/>
    </g>
    <path style="fill:#ececec;fill-rule:evenodd;stroke:#666666;stroke-width:1px;stroke-linecap:butt;stroke-linejoin:miter;stroke-opacity:1" d="M 28.488503,53.884624 C 36.211121,60.710307 44.708843,65.543762 54.617066,68.374038 C 57.811295,69.172062 64.42003,72.789594 65.642414,73.807568 C 65.394692,84.293157 68.079966,94.818545 67.454799,107.6162 C 61.800842,106.08178 56.274432,102.46613 50.237134,100.97522 C 47.003846,99.342394 35.022079,98.872529 31.056049,95.239826 C 31.326449,90.407803 31.877482,85.276843 31.207082,80.448549 C 30.535203,77.091399 31.055015,73.576515 30.300889,70.185214 C 30.090442,65.385711 28.201997,59.275604 28.488503,53.884624 z" id="path2512" sodipodi:nodetypes="ccccccccc"/>
    <path style="fill:#ececec;fill-rule:evenodd;stroke:#666666;stroke-width:1px;stroke-linecap:butt;stroke-linejoin:miter;stroke-opacity:1" d="M 66.246542,73.807568 C 69.822917,71.322054 72.264507,71.968282 75.485417,69.076903 C 79.897186,66.764117 94.23293,62.95601 100.08427,63.922022 C 98.76401,70.213579 99.931301,68.214025 99.980376,73.093976 C 100.67832,82.560122 99.780027,91.874995 100.58451,100.86535 C 96.437803,101.34557 86.716128,103.93508 82.558016,105.2013 C 80.342277,106.07937 66.436167,108.99816 66.246543,107.46527 C 67.690746,101.21505 65.591877,94.611811 65.491381,88.447913 C 65.039319,83.56034 66.851493,78.645642 66.246542,73.807568 z" id="path2514" sodipodi:nodetypes="ccccccccc"/>
    <g id="g2516" transform="matrix(0.6153815,-0.1238831,0.1238831,0.6153815,7.5621686,86.510572)">
      <path sodipodi:nodetypes="ccccccc" id="path2466" d="M 133.92094,5.2262341 C 131.43859,5.2113041 129.80178,7.8928841 128.56024,9.8979741 C 127.02138,12.792044 127.72335,16.239724 127.81404,19.403204 C 131.49052,19.502604 134.49663,19.364854 137.76691,19.359034 C 140.56489,19.494424 142.41679,17.315894 142.40883,14.618014 C 142.30269,11.800354 141.14217,8.4888641 139.71648,6.1973641 C 138.47591,4.7921441 135.67972,5.3988841 133.92094,5.2262341 z" style="fill:#333333;fill-opacity:1;fill-rule:evenodd;stroke:#000000;stroke-width:1.59304881px;stroke-linecap:butt;stroke-linejoin:miter;stroke-opacity:1"/>
    </g>
    <path style="font-size:12px;font-style:normal;font-variant:normal;font-weight:normal;font-stretch:normal;fill:#000000;fill-opacity:1;stroke:none;stroke-width:1px;stroke-linecap:butt;stroke-linejoin:miter;stroke-opacity:1;font-family:handfont;-inkscape-font-specification:handfont" d="M 72.635921,76.026174 C 72.202715,75.845627 72.042227,75.248317 71.621418,75.120523 C 71.371437,75.500287 71.514421,76.064435 71.159352,76.382778 C 70.604814,76.339212 70.520443,75.497987 70.189547,75.113983 C 70.1376,74.559068 69.289687,74.056872 69.695959,73.525371 C 70.254185,73.423458 70.157553,74.248574 70.426712,74.558723 C 70.600406,74.813545 70.730978,75.466083 71.009176,75.426595 C 71.259202,75.037007 71.155159,74.547722 71.341814,74.155881 C 71.909439,73.936719 71.883002,74.892064 72.310606,75.072507 C 72.655477,75.077187 72.369858,74.392205 72.470271,74.139738 C 72.528761,73.704367 72.412043,72.963015 72.884041,72.774103 C 73.435132,72.913039 72.88716,73.450822 72.935715,73.806039 C 72.881298,74.462081 72.990987,75.124969 72.915896,75.778422 C 72.886691,75.913249 72.772787,76.014262 72.635921,76.026174 z M 74.981535,75.358733 C 74.395746,75.498301 74.469858,74.810121 74.448756,74.443902 C 74.377635,73.850008 74.307879,73.25503 74.18938,72.668301 C 73.768155,72.308073 74.461295,71.946165 74.78331,71.878606 C 75.045619,71.714815 75.793811,71.404457 75.769831,71.926452 C 75.422624,72.233963 74.672949,72.137959 74.599374,72.732476 C 74.531133,73.166763 74.915112,73.33195 75.194989,72.998854 C 75.580937,72.593941 75.998656,73.222037 75.458566,73.369768 C 74.973011,73.486033 74.63051,73.867427 74.846928,74.379068 C 74.8372,74.685163 74.918208,74.98001 75.238868,74.699896 C 75.579394,74.559642 76.050949,73.848933 76.383574,74.269455 C 76.412455,74.754086 75.665727,74.74592 75.416639,75.107554 C 75.279547,75.203945 75.136722,75.294174 74.981535,75.358733 z M 78.159048,74.648894 C 77.601347,74.710609 77.036598,74.307011 77.128317,73.705588 C 77.027466,73.167626 76.980103,72.621062 76.863344,72.089467 C 76.589073,71.579127 76.873309,70.990024 77.392398,70.791897 C 77.908381,70.606047 78.497405,71.205701 78.564652,71.664011 C 78.42103,71.996476 78.44204,72.385592 78.877191,72.401252 C 79.352324,72.678665 79.587735,73.313637 79.306699,73.808025 C 79.09602,74.254391 78.652048,74.590681 78.159048,74.648894 z M 78.477984,74.114362 C 79.010004,73.846758 79.247733,72.982782 78.628535,72.667119 C 78.198383,72.441306 77.331152,72.763663 77.544433,73.342323 C 77.594031,73.688219 77.621536,74.193153 78.080308,74.221896 C 78.216988,74.22268 78.358076,74.178691 78.477984,74.114362 z M 77.59992,72.309641 C 78.13041,72.152884 78.261857,71.386818 77.715671,71.157854 C 77.121873,71.152807 77.23709,71.872807 77.357842,72.256476 C 77.376201,72.455502 77.483462,72.368044 77.59992,72.309641 z M 81.282849,73.795479 C 80.645868,73.851464 80.218552,73.215066 80.162536,72.644469 C 80.059458,72.076971 80.141054,71.469555 80.50599,71.008169 C 80.791877,70.461255 81.463021,70.112861 82.060413,70.354801 C 82.516055,70.55655 82.08825,70.956719 81.737477,70.79235 C 81.21865,70.662634 80.894589,71.151681 80.730005,71.565816 C 80.558426,72.073165 80.600496,72.672209 80.881844,73.131322 C 81.350847,73.574438 81.908142,73.00363 82.334745,72.789559 C 82.982131,72.65519 82.455455,73.390684 82.12652,73.438935 C 81.857216,73.580994 81.574423,73.709248 81.282849,73.795479 z M 84.674508,72.933762 C 84.08801,73.123379 83.461437,72.689395 83.367822,72.094383 C 83.158267,71.396668 83.123076,70.562244 83.568966,69.947362 C 84.002763,69.497286 84.656304,69.780106 85.100391,70.051203 C 85.732603,70.479657 86.093975,71.324505 85.811639,72.06111 C 85.67204,72.519615 85.253351,72.832446 84.7896,72.905483 L 84.732177,72.920116 L 84.674507,72.933761 L 84.674508,72.933762 z M 84.81531,72.496084 C 85.489213,72.222217 85.554229,71.276944 85.176131,70.735209 C 85.02363,70.332585 84.555117,70.792687 84.389643,70.34497 C 84.053547,69.841734 83.686889,70.515572 83.67083,70.866151 C 83.596271,71.379733 83.648032,71.949 83.92002,72.397596 C 84.139365,72.655205 84.539311,72.660111 84.81531,72.496084 z M 87.326471,72.242983 C 86.788093,72.430034 86.981114,71.643358 86.867685,71.347521 C 86.755604,70.641033 86.627303,69.935361 86.580548,69.220594 C 86.990977,68.543868 87.42182,69.936239 87.795756,69.488959 C 87.881682,69.09531 88.023135,68.161694 88.602879,68.65803 C 88.895521,69.038569 89.049417,69.508108 89.262145,69.936424 C 89.465758,70.392413 89.666621,70.860133 89.970084,71.258062 C 89.986027,71.730694 89.299908,71.550488 89.345456,71.134898 C 89.020516,70.503985 88.77072,69.836932 88.431333,69.213165 C 88.090978,69.469342 88.262427,70.302143 87.710674,70.290373 C 87.488876,70.153738 87.003898,69.666705 87.139954,70.270094 C 87.22245,70.894916 87.359544,71.510752 87.455598,72.133404 C 87.439366,72.188376 87.389597,72.24761 87.326471,72.242983 z M 91.552232,71.251945 C 91.28846,71.194604 90.351809,71.310677 90.73529,70.837697 C 91.36798,70.819414 91.122564,70.124152 91.037621,69.692037 C 90.988039,69.20353 90.945775,68.710923 90.856387,68.226768 C 90.625969,68.593503 89.784707,68.281266 90.373089,67.976666 C 90.816199,67.800123 91.400632,67.314713 91.853161,67.619278 C 91.804551,68.010406 91.170775,67.991192 91.364842,68.486125 C 91.453455,69.154119 91.515578,69.82606 91.630479,70.4902 C 91.741393,70.652864 92.368541,70.446561 92.076379,70.889242 C 91.938033,71.070951 91.710429,71.106524 91.552232,71.251945 z M 94.236373,70.446179 C 93.599392,70.502168 93.172073,69.865768 93.116055,69.29517 C 93.012978,68.727671 93.094575,68.120256 93.459508,67.65887 C 93.745397,67.111957 94.416539,66.763562 95.013931,67.005502 C 95.469573,67.207253 95.041766,67.60742 94.690994,67.443052 C 94.172169,67.313336 93.848106,67.802384 93.683527,68.216516 C 93.511947,68.723865 93.554019,69.32291 93.835367,69.782023 C 94.304368,70.225139 94.861662,69.65433 95.288266,69.440259 C 95.935652,69.305892 95.408977,70.041384 95.080042,70.089636 C 94.810735,70.231696 94.527945,70.359946 94.236373,70.446179 z" id="text2522"/>
    <path sodipodi:nodetypes="ccccc" id="path2550" d="M 32.711038,61.322927 C 41.52197,67.338258 51.363055,72.617249 61.100921,75.128523 C 61.962531,78.657893 61.539165,82.508508 61.097628,86.363665 C 51.588391,81.048576 42.281974,77.744456 33.356351,73.119367 C 34.040298,69.710397 32.967282,65.117681 32.711038,61.322927 z" style="fill:none;fill-rule:evenodd;stroke:#666666;stroke-width:1px;stroke-linecap:butt;stroke-linejoin:miter;stroke-opacity:1"/>
    <path style="fill:#e9d2af;fill-opacity:1;fill-rule:evenodd;stroke:#3f2d10;stroke-width:1px;stroke-linecap:butt;stroke-linejoin:miter;stroke-opacity:1" d="M 31.125,67.625 C 27.850721,66.172388 28.518993,69.769414 29.125,72.625 C 24.885431,72.751824 25.993804,77.056237 29.125,77.75 C 28.633564,78.017368 27.372669,77.420168 27.125,79.25 C 27.416221,81.069071 28.559859,81.903999 30.125,82.625 C 31.061218,82.859054 31.586232,82.690507 32.375,82.375 C 33.302283,81.413093 31.957423,79.871156 31.375,78.75 C 32.139954,78.7164 32.919768,78.310127 33.875,77.625 C 33.979361,76.635151 31.65355,73.9321 31.625,73.875 C 33.481537,73.482635 35.288727,73.420706 35,71.625 C 34.32002,69.670508 32.931492,68.490112 31.125,67.625 z" id="path2528" sodipodi:nodetypes="ccccccccccc"/>
    <path sodipodi:nodetypes="ccccccccccc" id="path2530" d="M 100.25105,69.125 C 103.52533,67.672388 102.85705,71.269414 102.25105,74.125 C 106.49062,74.251824 105.38224,78.556237 102.25105,79.25 C 102.74248,79.517368 104.00338,78.920168 104.25105,80.75 C 103.95983,82.569071 102.81619,83.403999 101.25105,84.125 C 100.31483,84.359054 99.789814,84.190507 99.001046,83.875 C 98.073763,82.913093 99.418623,81.371156 100.00105,80.25 C 99.236092,80.2164 98.456278,79.810127 97.501046,79.125 C 97.396685,78.135151 99.722496,75.4321 99.751046,75.375 C 97.894509,74.982635 96.087319,74.920706 96.376046,73.125 C 97.056026,71.170508 98.444554,69.990112 100.25105,69.125 z" style="fill:#e9d2af;fill-opacity:1;fill-rule:evenodd;stroke:#3f2d10;stroke-width:1px;stroke-linecap:butt;stroke-linejoin:miter;stroke-opacity:1"/>
    <path style="fill:none;fill-rule:evenodd;stroke:#0c0c0c;stroke-width:1px;stroke-linecap:butt;stroke-linejoin:miter;stroke-opacity:1" d="M 70,81.375 C 70.335711,80.723881 70.513319,79.653796 71.290953,79.455381 C 71.555492,79.690473 71.645895,80.395617 72.064187,79.880677 C 72.48431,79.441563 73.122254,79.318445 73.633432,79.691874 C 74.422464,80.106688 75.409437,79.755785 76.030674,79.190457 C 76.343408,78.957116 76.684255,78.25966 76.638516,78.099046 C 76.367763,78.521713 76.449783,79.335286 77.092055,79.305184 C 77.794841,79.360085 78.324921,78.65596 79.036185,78.835027 C 79.622829,79.107377 80.079474,78.721667 80.138882,78.129665 C 80.549783,77.683852 81.002389,78.616397 81.526046,78.376275 C 82.092361,78.450761 82.910435,77.898633 83.262814,77.987151 C 83.244799,78.013352 83.189153,78.099345 83.25,78.125" id="path2534"/>
    <path style="fill:none;fill-rule:evenodd;stroke:#0c0c0c;stroke-width:1px;stroke-linecap:butt;stroke-linejoin:miter;stroke-opacity:1" d="M 70.5,84.625 C 71.262985,84.729037 71.94617,84.252145 72.304963,83.618964 C 72.869655,83.385357 73.189592,84.075307 73.594817,84.319567 C 74.2763,84.667099 74.657925,83.74951 75.042247,83.356022 C 75.42378,82.649297 76.094065,82.900088 76.63423,83.220472 C 77.526114,83.408338 78.436278,83.191787 79.273005,82.871153 C 79.889762,82.600122 80.561261,82.667573 81.20579,82.592671 C 81.726039,82.329525 82.195165,82.652064 82.685312,82.782359 C 83.339394,82.804236 83.569552,81.9258 84.211293,81.864343 C 84.36083,81.850267 84.50832,81.909722 84.625,82" id="path2536"/>
    <path style="fill:none;fill-rule:evenodd;stroke:#666666;stroke-width:1px;stroke-linecap:butt;stroke-linejoin:miter;stroke-opacity:1" d="M 69.375,92 C 78.896357,88.725073 87.019567,89.100407 96.25,85.5 L 97,96.875 C 87.678538,97.973019 78.724985,101.60112 70,103 C 70.416309,99.083333 69.87095,95.666667 69.375,92 z" id="path2544" sodipodi:nodetypes="ccccc"/>
    <path style="fill:none;fill-rule:evenodd;stroke:#666666;stroke-width:1px;stroke-linecap:butt;stroke-linejoin:miter;stroke-opacity:1" d="M 78.5,89.75 C 78.904784,93.39681 80.114134,96.507244 79.625,100.75" id="path2546" sodipodi:nodetypes="cc"/>
    <path style="fill:none;fill-rule:evenodd;stroke:#666666;stroke-width:1px;stroke-linecap:butt;stroke-linejoin:miter;stroke-opacity:1" d="M 87.5,87.875 C 88.594408,92.136075 88.419193,95.127527 88.875,98.75" id="path2548" sodipodi:nodetypes="cc"/>
    <path sodipodi:nodetypes="cc" id="path2552" d="M 41.598626,66.918102 C 41.763919,70.632028 43.154585,73.76338 42.375064,77.430169" style="fill:none;fill-rule:evenodd;stroke:#666666;stroke-width:1px;stroke-linecap:butt;stroke-linejoin:miter;stroke-opacity:1"/>
    <path sodipodi:nodetypes="cc" id="path2555" d="M 51.084546,71.531666 C 51.906734,76.294522 51.278853,77.870458 51.497425,81.596198" style="fill:none;fill-rule:evenodd;stroke:#666666;stroke-width:1px;stroke-linecap:butt;stroke-linejoin:miter;stroke-opacity:1"/>
    <path style="fill:none;fill-rule:evenodd;stroke:#666666;stroke-width:1px;stroke-linecap:butt;stroke-linejoin:miter;stroke-opacity:1" d="M 34.387815,82.35531 C 44.245316,84.784252 51.317865,89.740456 60.902698,91.691179 C 59.934773,95.227999 60.466375,98.76482 60.774405,102.30164 C 52.197435,97.922252 43.215484,96.783871 34.283128,93.037051 C 34.967075,89.560782 34.644059,86.12485 34.387815,82.35531 z" id="path2557" sodipodi:nodetypes="ccccc"/>
    <path style="fill:none;fill-rule:evenodd;stroke:#666666;stroke-width:1px;stroke-linecap:butt;stroke-linejoin:miter;stroke-opacity:1" d="M 43.025403,85.151759 C 43.190696,88.84942 43.581362,92.130832 42.801841,95.874325" id="path2559" sodipodi:nodetypes="cc"/>
    <path style="fill:none;fill-rule:evenodd;stroke:#666666;stroke-width:1px;stroke-linecap:butt;stroke-linejoin:miter;stroke-opacity:1" d="M 52.261323,88.606521 C 53.083511,93.288475 52.20563,95.151594 52.424202,98.855829" id="path2561" sodipodi:nodetypes="cc"/>
    <path style="fill:none;fill-rule:evenodd;stroke:#0c0c0c;stroke-width:1px;stroke-linecap:butt;stroke-linejoin:miter;stroke-opacity:1" d="M 36,79.875 C 36.397299,80.1992 36.475118,80.816253 36.943889,81.068115 C 37.390972,81.156402 37.423782,80.541809 37.718429,80.361177 C 37.970606,80.451129 38.281542,80.843135 38.497886,80.423662 C 38.650201,80.23974 38.816959,79.660364 39.039371,80.096745 C 39.268581,80.439674 39.393413,80.901329 39.777576,81.107154 C 40.101693,81.202054 40.498944,80.985685 40.484971,80.637112 C 41.03679,81.451423 41.501071,82.37773 42.315111,82.968145 C 42.713261,83.275299 43.27432,83.232464 43.674336,82.954143 C 44.336771,82.529904 44.910382,81.968788 45.625,81.625 C 46.049775,81.63382 46.181777,82.218802 46.572815,82.356833 C 46.973443,82.642124 47.269253,82.032432 47.592022,82.114571 C 47.898682,82.462935 47.961289,83.007215 48.405702,83.236339 C 49.065023,83.717778 49.487647,84.494216 50.245772,84.841517 C 50.629127,85.010082 51.066943,84.916143 51.425035,84.729994 C 51.870775,84.660895 52.2696,84.951458 52.651275,85.140427 C 53.159344,85.425831 53.662448,85.747835 54.248121,85.845069 C 54.599959,85.913122 54.936365,86.10702 55.089192,86.443883 C 55.146156,86.544116 55.198353,86.646958 55.25,86.75" id="path2565"/>
    <path style="fill:none;fill-rule:evenodd;stroke:#666666;stroke-width:1px;stroke-linecap:butt;stroke-linejoin:miter;stroke-opacity:1" d="M 73.375,95.75 C 73.035734,95.817122 72.733322,95.575123 72.535534,95.325505 C 72.321305,95.044266 72.104528,94.710941 72.156673,94.340021 C 72.230132,93.804705 72.611204,93.38259 72.982122,93.018144 C 73.240808,92.769815 73.521703,92.458779 73.909231,92.455979 C 74.25991,92.468168 74.58508,92.64539 74.860472,92.85136 C 75.197918,93.111174 75.297049,93.547161 75.389545,93.939632 C 75.512996,94.530522 75.189785,95.126278 74.741634,95.493844 C 74.463089,95.729262 74.096144,95.785685 73.756727,95.881034 C 73.56003,95.930791 73.407422,96.101823 73.3891,96.305463 C 73.323737,96.580361 73.483581,96.831523 73.588799,97.073085 C 73.731133,97.383109 73.912255,97.674596 74.047136,97.987668 C 74.23162,98.562196 74.135676,99.179727 74.276113,99.76241 C 74.323191,100.13294 74.234298,100.50298 74.25086,100.8742 C 74.246611,100.23838 74.243603,99.598157 74.145206,98.968541 C 74.091393,98.742844 74.039424,98.481726 73.842937,98.335433 C 73.649797,98.234353 73.487282,98.447935 73.404643,98.598705 C 73.261147,98.835432 73.257505,99.13271 73.0786,99.351235 C 72.874056,99.639636 72.582323,99.849071 72.302657,100.05623 C 72.344657,99.890963 72.475452,99.744754 72.565664,99.595547 C 72.848885,99.197924 73.132033,98.766056 73.571175,98.525338 C 73.771175,98.410534 74.010166,98.491482 74.176821,98.627845 C 74.408721,98.802919 74.63174,99.004233 74.918637,99.083951 C 75.306502,99.210975 75.718839,99.247889 76.125,99.25" id="path2568"/>
    <path id="path2571" d="M 44.781562,75.625022 C 44.571906,75.66922 44.385025,75.509869 44.262799,75.345501 C 44.130412,75.160311 43.99645,74.940823 44.028674,74.69658 C 44.07407,74.344086 44.30956,74.066132 44.538776,73.826152 C 44.698636,73.662633 44.87222,73.457822 45.1117,73.455978 C 45.328409,73.464005 45.529354,73.580702 45.699537,73.716328 C 45.908068,73.88741 45.969328,74.174499 46.026488,74.432933 C 46.102777,74.822021 45.903042,75.214314 45.626099,75.456348 C 45.453967,75.611366 45.227206,75.64852 45.017457,75.711305 C 44.895905,75.744069 44.801598,75.85669 44.790276,75.990782 C 44.749883,76.171797 44.848662,76.337182 44.913683,76.496245 C 45.001641,76.70039 45.113569,76.892328 45.196921,77.098479 C 45.310926,77.476793 45.251636,77.883425 45.338422,78.267109 C 45.367514,78.511095 45.312581,78.754759 45.322816,78.999199 C 45.32019,78.580525 45.318332,78.158952 45.257525,77.744363 C 45.224271,77.595746 45.192155,77.423806 45.070733,77.327475 C 44.951378,77.260916 44.850949,77.401555 44.799881,77.500834 C 44.711205,77.656714 44.708954,77.852465 44.598396,77.996359 C 44.471994,78.186265 44.291713,78.324174 44.118888,78.460583 C 44.144843,78.351758 44.22567,78.255483 44.281418,78.157233 C 44.45644,77.895407 44.631416,77.611031 44.902792,77.452523 C 45.026386,77.376927 45.174075,77.43023 45.277062,77.520022 C 45.420369,77.635304 45.558188,77.767866 45.735481,77.820358 C 45.97517,77.904001 46.229981,77.928308 46.480976,77.929698" style="fill:none;fill-rule:evenodd;stroke:#666666;stroke-width:1px;stroke-linecap:butt;stroke-linejoin:miter;stroke-opacity:1"/>
    <path style="fill:none;fill-rule:evenodd;stroke:#666666;stroke-width:1px;stroke-linecap:butt;stroke-linejoin:miter;stroke-opacity:1" d="M 48.531562,76.500022 C 48.321906,76.54422 48.135025,76.384869 48.012799,76.220501 C 47.880412,76.035311 47.74645,75.815823 47.778674,75.57158 C 47.82407,75.219086 48.05956,74.941132 48.288776,74.701152 C 48.448636,74.537633 48.62222,74.332822 48.8617,74.330978 C 49.078409,74.339005 49.279354,74.455702 49.449537,74.591328 C 49.658068,74.76241 49.719328,75.049499 49.776488,75.307933 C 49.852777,75.697021 49.653042,76.089314 49.376099,76.331348 C 49.203967,76.486366 48.977206,76.52352 48.767457,76.586305 C 48.645905,76.619069 48.551598,76.73169 48.540276,76.865782 C 48.499883,77.046797 48.598662,77.212182 48.663683,77.371245 C 48.751641,77.57539 48.863569,77.767328 48.946921,77.973479 C 49.060926,78.351793 49.001636,78.758425 49.088422,79.142109 C 49.117514,79.386095 49.062581,79.629759 49.072816,79.874199 C 49.07019,79.455525 49.068332,79.033952 49.007525,78.619363 C 48.974271,78.470746 48.942155,78.298806 48.820733,78.202475 C 48.701378,78.135916 48.600949,78.276555 48.549881,78.375834 C 48.461205,78.531714 48.458954,78.727465 48.348396,78.871359 C 48.221994,79.061265 48.041713,79.199174 47.868888,79.335583 C 47.894843,79.226758 47.97567,79.130483 48.031418,79.032233 C 48.20644,78.770407 48.381416,78.486031 48.652792,78.327523 C 48.776386,78.251927 48.924075,78.30523 49.027062,78.395022 C 49.170369,78.510304 49.308188,78.642866 49.485481,78.695358 C 49.72517,78.779001 49.979981,78.803308 50.230976,78.804698" id="path2573"/>
    <path style="fill:none;fill-rule:evenodd;stroke:#666666;stroke-width:1px;stroke-linecap:butt;stroke-linejoin:miter;stroke-opacity:1" d="M 34.25,66.625 C 34.566453,66.53019 34.791126,66.267241 35.030546,66.054083 C 35.268983,65.841266 35.486277,65.579922 35.792447,65.464773 C 36.004441,65.397862 36.096332,65.652651 36.107427,65.818788 C 36.148191,66.308757 36.104454,66.801187 36.101939,67.292116 C 36.100401,67.837301 36.070741,68.398809 36.239917,68.924352 C 36.304756,69.140248 36.496578,69.3483 36.739948,69.315161 C 37.128238,69.260727 37.437926,68.988439 37.729415,68.746947 C 38.118143,68.40929 38.457706,68.018812 38.838558,67.673624 C 38.996663,67.655812 38.834544,67.949805 38.822477,68.044768 C 38.555534,68.844448 38.212446,69.633857 38.130338,70.480734 C 38.083408,70.629906 38.162898,70.862379 38.320269,70.671528 C 38.497857,70.525013 38.632105,70.311597 38.852467,70.225545 C 39.089763,70.254894 39.001559,70.597121 39.008265,70.768891 C 38.962808,71.268653 38.855869,71.760278 38.75,72.25 C 38.997045,72.227146 39.281336,72.229303 39.4747,72.412757 C 39.731712,72.648906 39.745345,73.021241 39.757965,73.345655 C 39.780426,73.48486 39.840962,73.613799 39.875,73.75" id="path2575"/>
    <path style="fill:none;fill-rule:evenodd;stroke:#666666;stroke-width:1px;stroke-linecap:butt;stroke-linejoin:miter;stroke-opacity:1" d="M 81.125,91.875 C 81.626562,91.790184 82.099914,91.596621 82.591879,91.474868 C 82.756766,91.424247 83.007567,91.444531 83.028349,91.660561 C 83.0695,92.00133 82.956736,92.337007 82.876586,92.664453 C 82.671502,93.438882 82.360979,94.182332 82.182381,94.96393 C 82.143497,95.050548 82.144343,95.319109 82.266583,95.132392 C 82.495025,94.782094 82.646739,94.384538 82.759318,93.984424 C 82.98633,93.816233 83.265768,93.733342 83.53541,93.658672 C 83.7779,93.606018 84.054695,93.547228 84.282637,93.677716 C 84.474542,93.810866 84.420897,94.078436 84.352124,94.26482 C 84.178342,94.679534 83.956058,95.072534 83.771532,95.482735 C 83.440735,96.202308 83.096487,96.922644 82.881595,97.687337 C 82.857434,97.852097 82.747436,98.093797 82.903117,98.217692 C 83.090503,98.224258 83.228313,98.059902 83.363645,97.95108 C 83.963928,97.373647 84.462379,96.701335 84.968128,96.042443 C 85.090688,95.867806 85.240993,95.698868 85.297202,95.489033 C 85.203461,95.393969 85.063109,95.671818 85.086345,95.784964 C 85.113483,96.015562 85.372836,96.101203 85.569007,96.140152 C 85.799474,96.194313 86.030028,96.125517 86.249866,96.061467 C 86.468124,96.022715 86.525808,96.29786 86.578439,96.452535 C 86.595281,96.509656 86.610545,96.567232 86.625,96.625" id="path2579"/>
    <path id="path2582" d="M 91.375,96.25 C 91.035734,96.317122 90.733322,96.075123 90.535534,95.825505 C 90.321305,95.544266 90.104528,95.210941 90.156673,94.840021 C 90.230132,94.304705 90.611204,93.88259 90.982122,93.518144 C 91.240808,93.269815 91.521703,92.958779 91.909231,92.955979 C 92.25991,92.968168 92.58508,93.14539 92.860472,93.35136 C 93.197918,93.611174 93.297049,94.047161 93.389545,94.439632 C 93.512996,95.030522 93.189785,95.626278 92.741634,95.993844 C 92.463089,96.229262 92.096144,96.285685 91.756727,96.381034 C 91.56003,96.430791 91.407422,96.601823 91.3891,96.805463 C 91.323737,97.080361 91.483581,97.331523 91.588799,97.573085" style="fill:none;fill-rule:evenodd;stroke:#666666;stroke-width:1px;stroke-linecap:butt;stroke-linejoin:miter;stroke-opacity:1" sodipodi:nodetypes="cssssssssss"/>
    <path style="fill:none;fill-rule:evenodd;stroke:#666666;stroke-width:1px;stroke-linecap:butt;stroke-linejoin:miter;stroke-opacity:1" d="M 94.693628,90.461489 C 94.881503,90.75185 94.768555,91.122336 94.609822,91.398439 C 94.427794,91.701515 94.198319,92.026229 93.834425,92.11501 C 93.309914,92.244809 92.776768,92.046942 92.300955,91.837173 C 91.974542,91.688713 91.581654,91.54282 91.435682,91.183824 C 91.317269,90.853518 91.361616,90.485854 91.451087,90.153801 C 91.567625,89.744176 91.936002,89.490781 92.266406,89.259648 C 92.769699,88.92635 93.44276,89.006221 93.950045,89.286589 C 94.27181,89.458275 94.459985,89.77831 94.67414,90.058369 C 94.793137,90.222701 95.008493,90.301206 95.204462,90.242889 C 95.484037,90.201913 95.658243,89.96049 95.843738,89.773369 C 96.079107,89.526437 96.282904,89.250327 96.523862,89.009191" id="path2584" sodipodi:nodetypes="cssssssssssc"/>
    <path style="fill:none;fill-rule:evenodd;stroke:#666666;stroke-width:1px;stroke-linecap:butt;stroke-linejoin:miter;stroke-opacity:1" d="M 53.25,81.125 C 53.519976,80.838843 53.55721,80.420353 53.597356,80.047587 C 53.647408,79.269846 53.616293,78.48974 53.625,77.710938 C 53.637947,77.351755 53.588778,76.984135 53.678205,76.632065 C 53.717723,76.370786 54.021988,76.415505 54.159824,76.567295 C 54.462946,76.804451 54.700952,77.133041 55.068214,77.280606 C 55.278745,77.33194 55.361259,77.544785 55.360727,77.741649 C 55.3881,78.213324 55.369621,78.686242 55.375,79.158454 C 55.372249,78.750763 55.359691,78.33813 55.463656,77.939857 C 55.583846,77.373477 55.819617,76.830308 55.842745,76.245456 C 55.84423,76.0709 55.884342,75.765427 56.133752,75.852278 C 56.431667,75.939348 56.696016,76.111376 56.987201,76.21772 C 57.193965,76.260268 57.342338,76.463759 57.215403,76.662276 C 57.117114,76.936029 56.920421,77.179053 56.917358,77.48115 C 56.868999,78.079195 57.015585,78.672036 56.994841,79.269273 C 56.988262,79.566312 56.850831,79.848468 56.873162,80.14598 C 56.929994,80.401965 57.228079,80.459977 57.443777,80.517391 C 58.078241,80.679027 58.698659,80.895177 59.301406,81.149679 C 59.490224,81.250765 59.43167,81.497432 59.355722,81.653278 C 59.1677,82.086674 58.827698,82.460655 58.753139,82.938393 C 58.736859,83.190575 58.778289,83.44386 58.758144,83.69536 C 58.609471,83.816251 58.393832,83.562793 58.22293,83.526206 C 57.818758,83.348769 57.409571,83.181733 57.02078,82.971151 C 56.35209,82.62956 55.701171,82.243725 54.986718,82.002122 C 54.371197,81.789124 53.804338,81.462154 53.25,81.125 z" id="path2586"/>
    <path sodipodi:nodetypes="cssssssssssc" id="path2589" d="M 50.693628,92.961489 C 50.881503,93.25185 50.768555,93.622336 50.609822,93.898439 C 50.427794,94.201515 50.198319,94.526229 49.834425,94.61501 C 49.309914,94.744809 48.776768,94.546942 48.300955,94.337173 C 47.974542,94.188713 47.581654,94.04282 47.435682,93.683824 C 47.317269,93.353518 47.361616,92.985854 47.451087,92.653801 C 47.567625,92.244176 47.936002,91.990781 48.266406,91.759648 C 48.769699,91.42635 49.44276,91.506221 49.950045,91.786589 C 50.27181,91.958275 50.459985,92.27831 50.67414,92.558369 C 50.793137,92.722701 51.008493,92.801206 51.204462,92.742889 C 51.484037,92.701913 51.658243,92.46049 51.843738,92.273369 C 52.079107,92.026437 52.282904,91.750327 52.523862,91.509191" style="fill:none;fill-rule:evenodd;stroke:#666666;stroke-width:1px;stroke-linecap:butt;stroke-linejoin:miter;stroke-opacity:1"/>
    <path style="fill:none;fill-rule:evenodd;stroke:#666666;stroke-width:1px;stroke-linecap:butt;stroke-linejoin:miter;stroke-opacity:1" d="M 36.5,85.375 C 40.75,87 40.75,87 40.75,87" id="path2591"/>
    <path style="fill:none;fill-rule:evenodd;stroke:#666666;stroke-width:1px;stroke-linecap:butt;stroke-linejoin:miter;stroke-opacity:1" d="M 36.875,88.75 L 41.25,90.25" id="path2593"/>
    <path style="fill:none;fill-rule:evenodd;stroke:#666666;stroke-width:1px;stroke-linecap:butt;stroke-linejoin:miter;stroke-opacity:1" d="M 39.25,92.125 L 35.875,91.25" id="path2595"/>
    <path style="fill:none;fill-rule:evenodd;stroke:#666666;stroke-width:1px;stroke-linecap:butt;stroke-linejoin:miter;stroke-opacity:1" d="M 55.154327,98.124741 C 54.589869,97.55752 54.132865,96.878168 53.836016,96.13431 C 53.697485,95.780235 53.641791,95.382928 53.754079,95.013442 C 53.925416,94.374303 54.362218,93.838532 54.493039,93.18507 C 54.666339,92.593297 55.072484,92.034563 55.668202,91.819025 C 55.865623,91.73463 56.097577,91.721352 56.29118,91.823968 C 56.817625,92.05272 57.234773,92.462547 57.650508,92.846406 C 57.983341,93.15943 58.319153,93.493913 58.486799,93.928665 C 58.689452,94.419609 58.775059,94.947347 58.902489,95.460305 C 58.999089,95.998709 58.832816,96.540529 58.611706,97.027037 C 58.49774,97.283669 58.398367,97.548509 58.315756,97.815403 C 58.161215,98.03011 57.884787,98.092018 57.645637,98.164465 C 57.080946,98.304935 56.471389,98.352064 55.909932,98.172891 C 55.662487,98.089012 55.425096,97.87788 55.43113,97.597548 C 55.433211,97.318336 55.620377,97.070671 55.583013,96.786199 C 55.553471,96.176582 55.198985,95.652347 55.048597,95.072755 C 54.980469,94.806882 54.924324,94.499804 55.060772,94.246322 C 55.241281,93.966592 55.608328,93.92046 55.913561,93.932545 C 56.25278,93.944554 56.593978,94.00242 56.913428,94.117407 C 57.202881,94.257385 57.316685,94.603129 57.288349,94.906052 C 57.271189,95.343983 57.113784,95.760869 56.934222,96.155527 C 56.820986,96.324044 56.679144,96.025982 56.568543,96.003418" id="path2597"/>
  </g>
  <metadata>
    <rdf:RDF>
      <cc:Work>
        <dc:format>image/svg+xml</dc:format>
        <dc:type rdf:resource="http://purl.org/dc/dcmitype/StillImage"/>
        <cc:license rdf:resource="http://creativecommons.org/licenses/publicdomain/"/>
        <dc:publisher>
          <cc:Agent rdf:about="http://openclipart.org/">
            <dc:title>Open Clip Art Library</dc:title>
          </cc:Agent>
        </dc:publisher>
        <dc:title>Comic characters: Newspaper</dc:title>
        <dc:date>2009-03-05T14:34:10</dc:date>
        <dc:description>Comic characters: a bearded guy reading the newspaper</dc:description>
        <dc:source>http://openclipart.org/detail/21891/comic-characters:-newspaper-by-nicubunu</dc:source>
        <dc:creator>
          <cc:Agent>
            <dc:title>nicubunu</dc:title>
          </cc:Agent>
        </dc:creator>
        <dc:subject>
          <rdf:Bag>
            <rdf:li>cartoon</rdf:li>
            <rdf:li>cartoon</rdf:li>
            <rdf:li>character</rdf:li>
            <rdf:li>character</rdf:li>
            <rdf:li>clip art</rdf:li>
            <rdf:li>clipart</rdf:li>
            <rdf:li>comic</rdf:li>
            <rdf:li>comic</rdf:li>
            <rdf:li>funny</rdf:li>
            <rdf:li>funny</rdf:li>
            <rdf:li>guy</rdf:li>
            <rdf:li>guy</rdf:li>
            <rdf:li>human</rdf:li>
            <rdf:li>human</rdf:li>
            <rdf:li>image</rdf:li>
            <rdf:li>media</rdf:li>
            <rdf:li>people</rdf:li>
            <rdf:li>people</rdf:li>
            <rdf:li>png</rdf:li>
            <rdf:li>public domain</rdf:li>
            <rdf:li>svg</rdf:li>
          </rdf:Bag>
        </dc:subject>
      </cc:Work>
      <cc:License rdf:about="http://creativecommons.org/licenses/publicdomain/">
        <cc:permits rdf:resource="http://creativecommons.org/ns#Reproduction"/>
        <cc:permits rdf:resource="http://creativecommons.org/ns#Distribution"/>
        <cc:permits rdf:resource="http://creativecommons.org/ns#DerivativeWorks"/>
      </cc:License>
    </rdf:RDF>
  </metadata>
</svg>
