<?xml version="1.0" encoding="UTF-8" standalone="no"?>
<!-- Created with Inkscape (http://www.inkscape.org/) -->
<svg xmlns:dc="http://purl.org/dc/elements/1.1/" xmlns:cc="http://creativecommons.org/ns#" xmlns:rdf="http://www.w3.org/1999/02/22-rdf-syntax-ns#" xmlns:svg="http://www.w3.org/2000/svg" xmlns="http://www.w3.org/2000/svg" xmlns:sodipodi="http://sodipodi.sourceforge.net/DTD/sodipodi-0.dtd" xmlns:inkscape="http://www.inkscape.org/namespaces/inkscape" width="128" height="128" id="svg2" sodipodi:version="0.32" inkscape:version="0.46" version="1.0" sodipodi:docname="cast.svg" inkscape:output_extension="org.inkscape.output.svg.inkscape">
  <defs id="defs4">
    <filter inkscape:collect="always" id="filter3554" x="-0.065113582" width="1.1302272" y="-0.17723516" height="1.3544703">
      <feGaussianBlur inkscape:collect="always" stdDeviation="2.1423995" id="feGaussianBlur3556"/>
    </filter>
  </defs>
  <sodipodi:namedview id="base" pagecolor="#ffffff" bordercolor="#666666" borderopacity="1.0" gridtolerance="10000" guidetolerance="10" objecttolerance="10" inkscape:pageopacity="0.0" inkscape:pageshadow="2" inkscape:zoom="1" inkscape:cx="64" inkscape:cy="64" inkscape:document-units="px" inkscape:current-layer="g2667" showgrid="false" inkscape:window-width="1538" inkscape:window-height="961" inkscape:window-x="127" inkscape:window-y="31"/>
  <g inkscape:label="Layer 1" inkscape:groupmode="layer" id="layer1">
    <path style="fill:#000000;fill-opacity:0.81967211;fill-rule:evenodd;stroke:none;stroke-width:1px;stroke-linecap:butt;stroke-linejoin:miter;stroke-opacity:1;filter:url(#filter3554)" d="M 62,92.75 C 56.846653,96.976573 67.827758,104.50491 62.5,108.5 C 61.334529,109.3741 58.023057,109.25 56.5,109.25 C 50.435712,107.4182 47.038033,100.66229 36,101.25 C 22.900815,101.89429 20.659777,112.90186 28.75,118.75 C 35.078924,122.94243 51.960308,124.87095 56,116.75 C 57.36376,112.84602 61.650857,112.07566 65.5,113.5 C 67.338948,114.13317 68.283583,115.88921 69.75,117 C 73.557188,118.12484 78.018175,118.37885 81.5,116.75 C 91.30002,112.8477 96.97357,112.04985 105.25,110.75 C 106.98011,110.31747 106.04281,108.54281 105.5,108 C 100.62251,105.69455 95.28992,104.00289 90.5,101.25 C 82.304128,98.747221 70.735186,90.615365 62,92.75 z M 84.5,102 C 87.484192,105.87719 99.06715,106.30559 100.75,107.25 C 92.39345,107.91977 65.545092,121.63667 70.75,111.75 C 69.663595,108.26552 63.670965,98.563132 64.5,95.5 C 69.09351,95.977898 78.495938,95.874294 84.5,102 z" id="path2695" sodipodi:nodetypes="cccccccccccccccccc"/>
    <g id="g3779" transform="translate(-101,-22)"/>
    <g id="g2572" transform="translate(11.667262,0.3535534)">
      <g id="g2651" transform="translate(-9,3)">
        <path style="fill:#333333;fill-rule:evenodd;stroke:#000000;stroke-width:1px;stroke-linecap:butt;stroke-linejoin:miter;stroke-opacity:1" d="M 79.469888,17.859276 C 68.450957,10.096902 61.053895,12.054964 58.812598,24.060786 C 57.926109,37.413983 69.628797,48.691389 79.537988,37.924103 C 82.553668,44.557433 93.241188,44.176595 99.781178,41.98344 C 104.47112,37.4498 104.03184,28.442766 102.12013,21.700427 C 98.780468,13.770707 85.608238,10.142955 80.772708,17.316879 C 80.405928,17.898933 80.415308,17.778167 79.469888,17.859276 z" id="path2570" sodipodi:nodetypes="ccccccc"/>
        <path sodipodi:nodetypes="ccccccc" id="path2566" d="M 64.787119,75.022317 C 68.595745,76.958784 72.930521,77.22791 77.024596,78.222965 C 81.481668,82.277048 96.288578,81.471768 96.891678,83.565884 C 97.518778,84.355013 97.246788,84.394648 96.974048,84.813166 C 90.745578,86.415537 83.925698,82.389716 77.854139,81.299994 C 73.428095,80.671167 69.243296,79.578006 65.297785,77.443933 C 64.443118,76.886952 64.400948,76.140303 64.787119,75.022317 z" style="fill:#4d4d4d;fill-opacity:1;fill-rule:evenodd;stroke:#000000;stroke-width:1px;stroke-linecap:butt;stroke-linejoin:miter;stroke-opacity:1"/>
        <path sodipodi:nodetypes="ccccccc" id="path2558" d="M 80.425208,41.862512 C 77.357063,48.865832 74.502507,56.1413 71.35777,66.257775 C 67.279108,74.775803 66.171749,83.787923 61.783634,92.272222 C 60.973397,93.503888 59.036489,92.480157 58.591564,91.606642 C 60.776249,83.094967 64.405394,74.818495 66.835357,66.341154 C 70.546146,58.557066 73.287849,50.522249 77.398942,42.642736 C 78.251615,41.346543 78.521202,41.22852 80.425208,41.862512 z" style="fill:#4d4d4d;fill-rule:evenodd;stroke:#000000;stroke-width:1px;stroke-linecap:butt;stroke-linejoin:miter;stroke-opacity:1"/>
        <path sodipodi:nodetypes="ccccc" id="path2552" d="M 100.248,27.772818 C 106.56097,24.062343 111.46489,18.054848 118.63278,16.105556 C 123.46761,17.987563 117.81104,37.812002 118.52922,44.318759 C 117.44768,46.929646 107.49948,38.582012 103.42998,38.025866 C 99.394148,37.427687 100.74483,31.187094 100.248,27.772818 z" style="fill:#999999;fill-rule:evenodd;stroke:#333333;stroke-width:1px;stroke-linecap:butt;stroke-linejoin:miter;stroke-opacity:1"/>
        <path sodipodi:nodetypes="cccccccc" id="path2562" d="M 66.483649,81.15938 C 67.564065,85.282642 69.231021,89.671435 70.19596,94.417632 C 79.833428,94.144751 88.876548,89.899684 97.242798,87.876894 C 99.136488,87.473103 99.286648,85.213523 97.242798,84.871691 C 89.119348,85.086114 80.791848,92.522597 71.963726,90.528545 C 70.015992,88.009643 70.124313,84.657633 69.312076,81.68971 C 68.628452,78.794805 68.644912,75.756222 65.599765,74.441865 C 63.94372,76.274248 65.589209,79.182746 66.483649,81.15938 z" style="fill:#4d4d4d;fill-opacity:1;fill-rule:evenodd;stroke:#000000;stroke-width:1px;stroke-linecap:butt;stroke-linejoin:miter;stroke-opacity:1"/>
        <path sodipodi:nodetypes="ccccccc" id="path2554" d="M 77.832738,42.396447 C 76.454915,52.495494 74.725581,62.847531 71.582738,76.896447 C 70.217549,89.325141 65.901012,101.13054 64.832738,113.64645 C 64.832738,115.53597 67.169896,115.05929 68.082738,114.14645 C 71.139962,102.5194 72.765357,90.583065 75.582738,78.896447 C 76.845031,67.545539 79.122658,56.285184 80.082738,44.646447 C 80.082738,42.657939 79.910888,42.396447 77.832738,42.396447 z" style="fill:#4d4d4d;fill-rule:evenodd;stroke:#000000;stroke-width:1px;stroke-linecap:butt;stroke-linejoin:miter;stroke-opacity:1"/>
        <path style="fill:#4d4d4d;fill-rule:evenodd;stroke:#000000;stroke-width:1px;stroke-linecap:butt;stroke-linejoin:miter;stroke-opacity:1" d="M 81.590778,41.926542 C 85.126778,51.486136 89.060808,61.216433 95.176718,74.248899 C 99.205808,86.085395 104.56652,94.021487 108.32468,106.00755 C 108.73461,107.85206 106.3497,107.89378 105.26056,107.20073 C 99.753658,96.513867 96.991588,87.866108 91.705888,77.069067 C 88.011078,66.262363 83.344758,55.764334 79.882508,44.611091 C 79.451098,42.669945 79.562128,42.377398 81.590778,41.926542 z" id="path2556" sodipodi:nodetypes="ccccccc"/>
        <path sodipodi:nodetypes="ccccccc" id="path2542" d="M 79.969888,23.319904 C 68.950957,15.55753 61.553895,17.515592 59.312598,29.521414 C 58.426109,42.874611 70.128797,54.152017 80.037988,43.384731 C 83.053668,50.018061 93.741188,49.637223 100.28118,47.444068 C 104.97112,42.910428 104.53184,33.903394 102.62013,27.161055 C 99.280468,19.231335 86.108238,15.603583 81.272708,22.777506 C 80.905928,23.359561 80.915308,23.238795 79.969888,23.319904 z" style="fill:#666666;fill-rule:evenodd;stroke:#000000;stroke-width:1px;stroke-linecap:butt;stroke-linejoin:miter;stroke-opacity:1"/>
        <path sodipodi:nodetypes="ccccc" id="path2546" d="M 68.964466,27.208974 C 66.645278,28.401313 66.032319,30.145704 65.714466,32.680683 C 65.629084,37.828336 70.098147,40.441636 74.714466,39.201333 C 76.630134,37.454324 76.32571,34.617941 76.214466,32.079775 C 75.654905,28.361539 72.002058,27.498168 68.964466,27.208974 z" style="fill:#1a1a1a;fill-rule:evenodd;stroke:#000000;stroke-width:1px;stroke-linecap:butt;stroke-linejoin:miter;stroke-opacity:1"/>
        <path style="fill:#1a1a1a;fill-rule:evenodd;stroke:#000000;stroke-width:1px;stroke-linecap:butt;stroke-linejoin:miter;stroke-opacity:1" d="M 88.925038,27.375338 C 86.277308,28.655184 85.577508,30.541528 85.214628,33.285667 C 85.117158,38.860857 90.219318,41.713816 95.489608,40.393532 C 97.676658,38.510882 97.329098,35.437162 97.202098,32.68742 C 96.563268,28.657254 92.392948,27.703798 88.925038,27.375338 z" id="path2548" sodipodi:nodetypes="ccccc"/>
        <path sodipodi:nodetypes="cc" id="path2568" d="M 104.33274,27.396447 C 109.35361,24.440966 114.79193,21.539924 120.20774,20.44302" style="fill:none;fill-rule:evenodd;stroke:#333333;stroke-width:1px;stroke-linecap:butt;stroke-linejoin:miter;stroke-opacity:1"/>
        <path sodipodi:nodetypes="ccccc" id="path2600" d="M 71.771338,35.899342 C 72.491114,41.1696 72.224947,50.099254 76.013979,53.577012 C 77.173689,53.577012 77.590131,53.59185 78.135299,53.046681 C 80.213079,48.311841 77.212443,42.228187 75.660426,37.667109 C 75.057457,35.558322 73.461603,33.799969 71.771338,35.899342 z" style="fill:#666666;fill-opacity:1;fill-rule:evenodd;stroke:#000000;stroke-width:1px;stroke-linecap:butt;stroke-linejoin:miter;stroke-opacity:1"/>
        <path sodipodi:nodetypes="ccccc" id="path2602" d="M 79.019183,49.687924 C 78.166205,49.687924 77.057361,48.901068 75.483649,49.687924 C 72.791522,53.563713 76.025099,59.844792 78.488853,63.29973 C 79.593473,65.488601 80.718539,64.936276 81.84761,63.122953 C 82.547768,58.952423 81.411313,53.232249 79.019183,49.687924 z" style="fill:#1a1a1a;fill-opacity:1;fill-rule:evenodd;stroke:#000000;stroke-width:1px;stroke-linecap:butt;stroke-linejoin:miter;stroke-opacity:1"/>
        <path sodipodi:nodetypes="cc" id="path2604" d="M 81.84761,61.178409 C 80.125026,59.986051 78.464634,59.807979 77.781746,61.885516" style="fill:none;fill-rule:evenodd;stroke:#000000;stroke-width:1px;stroke-linecap:butt;stroke-linejoin:miter;stroke-opacity:1"/>
      </g>
      <g id="g2667" transform="translate(-9,3)">
        <path sodipodi:nodetypes="cccccccc" id="path3006" d="M 36.59487,103.04049 C 39.31301,103.95894 43.18372,104.01651 45.99565,105.68781 C 46.56431,106.50451 46.71781,107.53252 46.99749,108.47804 C 47.06764,109.77794 46.45091,110.70986 45.64519,111.65993 C 43.2763,113.06057 40.32594,112.76634 37.66739,112.71841 C 35.39066,113.01561 32.63512,112.94075 30.77138,111.47717 C 27.95596,109.604 28.00456,107.37258 27.73067,104.15683 C 30.70292,103.89091 33.65189,103.53012 36.59487,103.04049 z" style="fill:#e6e6e6;fill-rule:evenodd;stroke:#333333;stroke-width:1px;stroke-linecap:butt;stroke-linejoin:miter;stroke-opacity:1"/>
        <path sodipodi:nodetypes="cscccccccc" id="path3008" d="M 36.77395,82.038989 C 36.91911,82.81802 37.66358,84.840849 37.39895,86.163989 C 37.19565,87.18048 36.89115,88.19517 36.64895,89.163989 C 36.13026,91.7093 37.09472,94.14628 37.27395,96.663989 C 36.75886,98.87274 37.41058,102.36209 35.89895,103.91399 C 33.26896,105.90176 29.23415,105.80882 27.77395,103.28899 C 28.02421,102.28796 27.83378,101.69105 28.27395,100.66399 C 29.56003,97.92485 28.95092,94.79988 28.52395,91.913989 C 28.46623,88.123059 21.21579,84.28117 21.35821,80.48721 C 23.52558,79.68634 35.40587,80.442899 36.77395,82.038989 z" style="fill:#00325c;fill-opacity:1;fill-rule:evenodd;stroke:#00192e;stroke-width:1px;stroke-linecap:butt;stroke-linejoin:miter;stroke-opacity:1"/>
        <path sodipodi:nodetypes="ccc" id="path3010" d="M 45.72404,109.14037 C 42.74824,110.31554 39.45642,111.21501 36.90623,110.66627 C 33.96691,110.76407 31.30251,110.59445 28.18544,108.20537" style="fill:none;fill-rule:evenodd;stroke:#333333;stroke-width:1px;stroke-linecap:butt;stroke-linejoin:miter;stroke-opacity:1"/>
        <path style="fill:#e6e6e6;fill-rule:evenodd;stroke:#333333;stroke-width:1px;stroke-linecap:butt;stroke-linejoin:miter;stroke-opacity:1" d="M 42.50929,107.16831 C 45.1306,108.33475 48.97931,108.75084 51.62422,110.67558 C 52.11474,111.54148 52.17229,112.57929 52.36313,113.54666 C 52.31249,114.84747 51.61204,115.71822 50.72173,116.58951 C 48.23321,117.76456 45.32282,117.19812 42.68016,116.90398 C 40.38568,116.98888 37.64895,116.65894 35.92889,115.02891 C 33.29921,112.90284 33.55443,110.68553 33.57978,107.45824 C 36.56388,107.46896 39.53359,107.38305 42.50929,107.16831 z" id="path3012" sodipodi:nodetypes="cccccccc"/>
        <path style="fill:#00325c;fill-opacity:1;fill-rule:evenodd;stroke:#00192e;stroke-width:1px;stroke-linecap:butt;stroke-linejoin:miter;stroke-opacity:1" d="M 39.49882,83.58188 C 39.64398,84.36091 43.57043,87.974729 43.3058,89.29787 C 43.1025,90.31436 42.798,91.32905 42.5558,92.29787 C 42.03711,94.84318 43.00157,97.28016 43.1808,99.79787 C 42.66571,102.00662 43.31743,105.49597 41.8058,107.04787 C 39.17581,109.03564 35.141,108.9427 33.6808,106.42287 C 33.93106,105.42184 33.74063,104.82493 34.1808,103.79787 C 35.46688,101.05873 34.85777,97.933759 34.4308,95.04787 C 34.37308,91.25694 23.41033,85.82406 23.55275,82.0301 C 25.72012,81.22923 38.13074,81.985789 39.49882,83.58188 z" id="path3014" sodipodi:nodetypes="cscccccccc"/>
        <path style="fill:none;fill-rule:evenodd;stroke:#333333;stroke-width:1px;stroke-linecap:butt;stroke-linejoin:miter;stroke-opacity:1" d="M 51.73419,114.65547 C 48.66229,115.54976 45.30126,116.14024 42.81291,115.35749 C 39.87718,115.18243 37.23998,114.76658 34.35776,112.09886" id="path3016" sodipodi:nodetypes="ccc"/>
        <path sodipodi:nodetypes="ccccccccc" id="path2964" d="M 46.344965,7.4073717 C 56.709483,8.7478693 59.881826,16.135143 58.817567,25.041487 C 58.566023,26.900706 57.211604,30.443561 56.50155,32.224119 C 56.225069,35.881822 56.753134,38.745436 55.20292,42.142602 C 53.279434,46.985161 50.196685,48.392339 45.20216,48.816984 C 40.909666,48.150174 38.618651,45.28145 35.800126,41.836553 C 31.692947,37.432587 27.228367,32.277287 26.28575,26.456721 C 26.404345,21.034747 29.684534,16.290704 31.875049,11.514843 C 34.724513,6.349924 41.28395,5.9457773 46.344965,7.4073717 z" style="fill:#e9d2af;fill-opacity:1;fill-rule:evenodd;stroke:#3f2d10;stroke-width:1px;stroke-linecap:butt;stroke-linejoin:miter;stroke-opacity:1"/>
        <path sodipodi:nodetypes="cccc" id="path2968" d="M 58.008181,22.707628 C 58.959763,25.862172 57.676694,27.462728 54.836062,26.64107 C 53.892571,26.912635 52.331221,24.489529 52.951942,23.106548 C 53.156714,19.194535 56.521985,19.56432 58.008181,22.707628 z" style="fill:#ffffff;fill-rule:evenodd;stroke:#333333;stroke-width:1px;stroke-linecap:butt;stroke-linejoin:miter;stroke-opacity:1"/>
        <path id="path2976" d="M 26.878357,30.472322 C 28.351421,31.042465 23.784438,35.305362 23.134778,36.226495 C 22.127703,37.654372 18.367889,38.868438 16.806578,39.842974 C 15.480456,40.670708 12.149191,38.107568 11.328978,37.343783 C 9.9486488,36.058371 7.7020209,36.213347 6.6598034,36.673925 C 3.4076256,38.111098 6.136089,35.226826 7.2233992,34.238274 C 8.0773789,33.461854 10.778003,33.018018 11.998845,32.674591 C 14.074195,32.090793 14.939456,30.828446 16.827411,29.994135 C 18.62922,29.197892 20.193901,29.780682 21.953935,30.461899 C 23.053422,30.887448 25.429737,30.220832 26.878357,30.472322 z" style="fill:#28170b;fill-rule:evenodd;stroke:#120a04;stroke-width:1px;stroke-linecap:butt;stroke-linejoin:miter;stroke-opacity:1"/>
        <path sodipodi:nodetypes="cccccccccccc" id="path2989" d="M 20.922185,91.223787 C 23.234386,87.818902 18.757398,82.187546 20.212429,78.323216 C 19.842206,72.218231 21.52838,64.015265 22.746533,59.097907 C 23.316088,56.009495 26.140609,55.144863 27.790993,52.490533 C 29.655107,50.138591 30.518784,49.872288 33.551123,49.819024 C 37.415826,50.518062 36.893766,50.140878 40.722169,51.10886 C 43.526364,52.442431 45.418871,54.559175 45.632617,57.640985 C 45.677139,60.417962 45.407096,62.909955 46.608784,65.456246 C 46.846588,69.918103 50.670998,74.508452 49.895311,78.94899 C 48.827363,84.109491 49.838734,85.753698 49.090145,90.91106 C 44.696742,88.196551 37.406396,92.404589 32.339511,91.664756 C 28.124883,89.996807 23.460247,94.547072 20.922185,91.223787 z" style="fill:#1a1a1a;fill-opacity:1;fill-rule:evenodd;stroke:#000000;stroke-width:1px;stroke-linecap:butt;stroke-linejoin:miter;stroke-opacity:1"/>
        <path sodipodi:nodetypes="ccccc" id="path2987" d="M 44.249805,56.274981 C 40.978556,59.927316 32.820066,55.178958 31.540207,50.010315 C 34.930612,48.275866 36.33956,44.555603 38.820556,44.256615 C 41.028706,44.830415 42.854819,46.209796 44.642549,47.572491 C 45.776856,49.462559 45.238896,54.790105 44.249805,56.274981 z" style="fill:#e9d2af;fill-opacity:1;fill-rule:evenodd;stroke:#3f2d10;stroke-width:1px;stroke-linecap:butt;stroke-linejoin:miter;stroke-opacity:1"/>
        <path style="fill:#28170b;fill-opacity:1;fill-rule:evenodd;stroke:#120a04;stroke-width:1px;stroke-linecap:butt;stroke-linejoin:miter;stroke-opacity:1" d="M 29.092204,31.983437 C 34.008767,31.698702 36.103026,35.790643 37.93709,37.622829 C 40.093755,38.4493 40.226086,39.443839 42.298537,40.423996 C 43.206208,40.546804 43.993412,40.68684 44.791081,40.414348 C 46.815189,39.682111 48.383142,38.098928 50.098979,36.843753 C 52.50306,36.08469 54.205544,35.791071 56.784934,36.140053 C 58.039296,37.283113 59.545999,37.574399 57.461314,40.930234 C 53.973696,40.550555 52.576217,39.569681 50.24325,40.205952 C 48.445572,41.340199 48.124895,43.528961 50.108628,44.697201 C 51.784968,44.616752 53.265563,45.06628 54.394217,43.321859 C 57.051249,43.931791 56.324918,45.979029 55.222156,47.691065 C 54.023821,51.935714 51.05535,52.223859 46.947175,51.04944 C 44.325654,50.358538 40.802555,50.343844 38.466832,49.020047 C 36.447216,47.330539 35.145386,45.868874 33.831929,43.567234 C 32.877334,40.518847 30.998181,38.681328 29.682713,36.069166 C 29.547302,34.367674 27.599672,32.970359 29.092204,31.983437 z" id="path2978" sodipodi:nodetypes="cccccccccccccccc"/>
        <path sodipodi:nodetypes="cccsccccc" id="path2983" d="M 59.35471,15.41107 C 61.315821,5.7240881 35.095794,-1.1095155 32.658585,6.4296903 C 24.67705,6.0177474 22.024254,25.161461 26.849772,31.771174 C 27.397036,31.129894 32.582604,30.872832 32.440504,29.771254 C 31.897763,25.56384 32.459378,17.87989 36.260071,19.092733 C 40.666311,19.306417 38.726086,25.37024 39.443012,26.149803 C 45.500761,23.4053 38.408174,14.637987 44.336587,13.022429 C 47.442486,15.384437 51.453874,14.826494 54.695964,12.379875 C 57.139452,12.710465 57.161245,15.961883 59.35471,15.41107 z" style="fill:#28170b;fill-rule:evenodd;stroke:#120a04;stroke-width:1px;stroke-linecap:butt;stroke-linejoin:miter;stroke-opacity:1"/>
        <path sodipodi:nodetypes="cc" id="path2970" d="M 38.338614,21.266546 C 32.840499,18.17194 32.700099,26.915753 37.105734,26.649854" style="fill:#e9d2af;fill-opacity:1;fill-rule:evenodd;stroke:#3f2d10;stroke-width:1px;stroke-linecap:butt;stroke-linejoin:miter;stroke-opacity:1"/>
        <path sodipodi:nodetypes="cs" id="path2972" d="M 37.039421,22.478299 C 36.396196,20.884739 33.816673,23.232821 36.687484,25.0796" style="fill:#e9d2af;fill-opacity:1;fill-rule:evenodd;stroke:#3f2d10;stroke-width:1px;stroke-linecap:butt;stroke-linejoin:miter;stroke-opacity:1"/>
        <path sodipodi:nodetypes="cc" id="path2985" d="M 55.027477,41.959203 C 54.016486,42.23529 51.814663,42.221264 50.179567,41.806986" style="fill:none;fill-rule:evenodd;stroke:#3f2d10;stroke-width:1px;stroke-linecap:butt;stroke-linejoin:miter;stroke-opacity:1"/>
        <path sodipodi:nodetypes="cc" id="path3001" d="M 47.774476,70.100551 C 46.197975,69.860759 46.477909,70.049452 44.893555,70.122545" style="fill:none;fill-rule:evenodd;stroke:#006ca9;stroke-width:1px;stroke-linecap:butt;stroke-linejoin:miter;stroke-opacity:1"/>
        <path sodipodi:nodetypes="cccccccccccccccc" id="path2993" d="M 56.901824,64.174789 C 60.181839,63.747146 63.771216,62.585807 66.169006,60.286426 C 66.928241,58.905455 66.271757,56.491676 69.093246,54.860398 C 70.53839,54.757278 68.408919,57.705638 69.129527,58.8554 C 70.629042,57.413072 73.094635,54.481626 75.63118,55.6561 C 75.392318,56.995611 72.801738,58.952169 71.720468,59.629695 C 73.134123,59.339481 76.757038,56.968566 76.434601,59.891913 C 75.879527,61.433641 73.068639,61.619068 71.699862,62.120218 C 73.556351,62.647556 77.227752,61.985372 74.951303,64.132794 C 73.789276,64.634883 71.52503,64.561124 70.383785,64.2236 C 69.121213,64.43193 67.983628,65.256095 66.825738,65.837889 C 64.717303,68.151346 61.981891,69.462494 59.193452,70.793764 C 56.379942,69.75888 53.721599,72.505013 50.985776,71.742203 C 49.836319,71.648193 43.338923,72.776991 42.297309,72.401191 C 40.702325,69.946322 43.064186,66.016567 45.18756,64.036685 C 48.047285,61.596219 54.022577,64.372615 56.901824,64.174789 z" style="fill:#e9d2af;fill-opacity:1;fill-rule:evenodd;stroke:#3f2d10;stroke-width:0.99999994px;stroke-linecap:butt;stroke-linejoin:miter;stroke-opacity:1"/>
        <path sodipodi:nodetypes="cccccc" id="path2991" d="M 34.293169,59.244058 C 36.835573,59.335689 39.174366,59.941421 41.563429,60.72929 C 44.007751,61.358227 46.49288,61.51514 49.000138,61.504912 C 48.614987,65.71541 46.425414,70.998159 45.163962,75.216945 C 43.087378,74.806234 40.425469,74.525104 38.335534,74.152101 C 35.511589,73.67065 30.132278,69.666793 30.07536,66.614788" style="fill:#1a1a1a;fill-opacity:1;fill-rule:evenodd;stroke:#000000;stroke-width:1px;stroke-linecap:butt;stroke-linejoin:miter;stroke-opacity:1"/>
        <path sodipodi:nodetypes="cccc" id="path2966" d="M 57.428606,27.622897 C 58.025416,29.995104 60.437033,30.937479 61.776596,32.056571 C 62.616393,34.675336 62.378798,36.61788 59.33719,36.25321 C 57.169433,35.439261 56.206344,33.889287 55.737045,31.762773" style="fill:#e9d2af;fill-opacity:1;fill-rule:evenodd;stroke:#3f2d10;stroke-width:1px;stroke-linecap:butt;stroke-linejoin:miter;stroke-opacity:1"/>
        <path sodipodi:nodetypes="cssc" id="path2974" d="M 56.884708,23.431495 C 56.549474,23.02624 58.881814,22.67021 58.484833,24.657093 C 58.177147,26.197093 56.249791,26.312924 55.682428,25.79161 C 54.542911,24.744572 56.319784,23.03951 56.884708,23.431495 z" style="fill:#000000;fill-rule:evenodd;stroke:#000000;stroke-width:1px;stroke-linecap:butt;stroke-linejoin:miter;stroke-opacity:1"/>
      </g>
    </g>
  </g>
  <metadata>
    <rdf:RDF>
      <cc:Work>
        <dc:format>image/svg+xml</dc:format>
        <dc:type rdf:resource="http://purl.org/dc/dcmitype/StillImage"/>
        <cc:license rdf:resource="http://creativecommons.org/licenses/publicdomain/"/>
        <dc:publisher>
          <cc:Agent rdf:about="http://openclipart.org/">
            <dc:title>Open Clip Art Library</dc:title>
          </cc:Agent>
        </dc:publisher>
        <dc:title>Comic characters: Filmmaker</dc:title>
        <dc:date>2009-03-05T14:17:18</dc:date>
        <dc:description>Comic characters: a bearded film maker</dc:description>
        <dc:source>http://openclipart.org/detail/21870/comic-characters:-filmmaker-by-nicubunu</dc:source>
        <dc:creator>
          <cc:Agent>
            <dc:title>nicubunu</dc:title>
          </cc:Agent>
        </dc:creator>
        <dc:subject>
          <rdf:Bag>
            <rdf:li>cartoon</rdf:li>
            <rdf:li>cartoon</rdf:li>
            <rdf:li>character</rdf:li>
            <rdf:li>character</rdf:li>
            <rdf:li>clip art</rdf:li>
            <rdf:li>clipart</rdf:li>
            <rdf:li>comic</rdf:li>
            <rdf:li>comic</rdf:li>
            <rdf:li>funny</rdf:li>
            <rdf:li>funny</rdf:li>
            <rdf:li>guy</rdf:li>
            <rdf:li>guy</rdf:li>
            <rdf:li>human</rdf:li>
            <rdf:li>human</rdf:li>
            <rdf:li>image</rdf:li>
            <rdf:li>media</rdf:li>
            <rdf:li>people</rdf:li>
            <rdf:li>people</rdf:li>
            <rdf:li>png</rdf:li>
            <rdf:li>public domain</rdf:li>
            <rdf:li>svg</rdf:li>
          </rdf:Bag>
        </dc:subject>
      </cc:Work>
      <cc:License rdf:about="http://creativecommons.org/licenses/publicdomain/">
        <cc:permits rdf:resource="http://creativecommons.org/ns#Reproduction"/>
        <cc:permits rdf:resource="http://creativecommons.org/ns#Distribution"/>
        <cc:permits rdf:resource="http://creativecommons.org/ns#DerivativeWorks"/>
      </cc:License>
    </rdf:RDF>
  </metadata>
</svg>
