<?xml version="1.0" encoding="UTF-8" standalone="no"?>
<!-- Created with Inkscape (http://www.inkscape.org/) -->
<svg xmlns:dc="http://purl.org/dc/elements/1.1/" xmlns:cc="http://creativecommons.org/ns#" xmlns:rdf="http://www.w3.org/1999/02/22-rdf-syntax-ns#" xmlns:svg="http://www.w3.org/2000/svg" xmlns="http://www.w3.org/2000/svg" xmlns:sodipodi="http://sodipodi.sourceforge.net/DTD/sodipodi-0.dtd" xmlns:inkscape="http://www.inkscape.org/namespaces/inkscape" width="128" height="128" id="svg2" sodipodi:version="0.32" inkscape:version="0.46" version="1.0" sodipodi:docname="rtfm4.svg" inkscape:output_extension="org.inkscape.output.svg.inkscape">
  <defs id="defs4">
    <inkscape:perspective sodipodi:type="inkscape:persp3d" inkscape:vp_x="0 : 64 : 1" inkscape:vp_y="0 : 1000 : 0" inkscape:vp_z="400 : 64 : 1" inkscape:persp3d-origin="200 : 42.666667 : 1" id="perspective149"/>
    <filter inkscape:collect="always" id="filter3443" x="-0.12513924" width="1.2502785" y="-0.32663372" height="1.6532674">
      <feGaussianBlur inkscape:collect="always" stdDeviation="1.9634296" id="feGaussianBlur3445"/>
    </filter>
  </defs>
  <sodipodi:namedview id="base" pagecolor="#ffffff" bordercolor="#666666" borderopacity="1.0" gridtolerance="10000" guidetolerance="10" objecttolerance="10" inkscape:pageopacity="0.0" inkscape:pageshadow="2" inkscape:zoom="1" inkscape:cx="140.30667" inkscape:cy="94.710678" inkscape:document-units="px" inkscape:current-layer="layer1" showgrid="false" inkscape:window-width="1538" inkscape:window-height="961" inkscape:window-x="21" inkscape:window-y="39"/>
  <g inkscape:label="Layer 1" inkscape:groupmode="layer" id="layer1">
    <g id="g3779" transform="translate(-101,-22)"/>
    <path sodipodi:nodetypes="ccccsssssssc" style="fill:#000000;fill-opacity:0.72839505;fill-rule:evenodd;stroke:none;stroke-width:1px;stroke-linecap:butt;stroke-linejoin:miter;stroke-opacity:1;filter:url(#filter3443)" d="M 113.66276,-51.66473 C 108.19802,-51.24235 106.83993,-54.92461 102.16788,-50.77522 C 100.75457,-49.36191 100.44248,-46.55797 100.83362,-44.99343 C 103.70822,-41.14241 106.83223,-42.11379 111.43899,-40.5459 C 113.71532,-39.97681 115.70191,-39.65639 118.55504,-39.65639 C 121.45485,-39.65639 123.239,-38.21796 126.11585,-39.65639 C 128.34694,-40.77193 130.40656,-40.42828 132.3424,-41.88016 C 133.85476,-43.01443 134.5688,-45.00399 135.01092,-46.77244 C 135.79475,-49.90777 133.13429,-50.37928 131.45289,-51.21997 C 129.29189,-52.30047 125.54652,-51.63358 123.89208,-51.21997 C 122.1188,-50.77665 120.57606,-53.44374 118.11029,-53.44374 C 116.11094,-53.44374 117.05087,-51.66473 113.66276,-51.66473 z" id="path3529" transform="matrix(-1.1230681,0,0,1.0735209,198.26735,166.26859)"/>
    <path style="fill:#e6e6e6;fill-rule:evenodd;stroke:#333333;stroke-width:1px;stroke-linecap:butt;stroke-linejoin:miter;stroke-opacity:1" d="M 56.62411,108.66371 C 59.49051,108.78838 63.22396,107.7651 66.39022,108.58667 C 67.16394,109.21257 67.5978,110.15709 68.12988,110.98723 C 68.55946,112.2161 68.22684,113.28297 67.71777,114.41991 C 65.83298,116.42517 62.91748,116.96469 60.35088,117.65946 C 58.24713,118.57931 54.07988,120.27524 51.88213,119.38895 C 48.65627,118.37447 47.83116,115.21789 48.42206,112.20583 C 51.20249,111.12223 53.93412,109.954 56.62411,108.66371 z" id="path3523" sodipodi:nodetypes="cccccccc"/>
    <path style="fill:none;fill-rule:evenodd;stroke:#333333;stroke-width:1px;stroke-linecap:butt;stroke-linejoin:miter;stroke-opacity:1" d="M 67.75174,112.16731 C 65.15946,114.04252 60.94273,116.22884 58.33607,116.32844 C 55.51244,117.15078 52.63898,118.64597 49.02752,117.10282" id="path3527" sodipodi:nodetypes="ccc"/>
    <path sodipodi:nodetypes="cccccccc" id="path3521" d="M 68.12411,108.91371 C 70.99051,109.03838 74.72396,108.0151 77.89022,108.83667 C 78.66394,109.46257 79.0978,110.40709 79.62988,111.23723 C 80.05946,112.4661 79.72684,113.53297 79.21777,114.66991 C 77.33298,116.67517 74.41748,117.21469 71.85088,117.90946 C 69.74713,118.82931 65.57988,120.52524 63.38213,119.63895 C 60.15627,118.62447 59.33116,115.46789 59.92206,112.45583 C 62.70249,111.37223 65.43412,110.204 68.12411,108.91371 z" style="fill:#e6e6e6;fill-rule:evenodd;stroke:#333333;stroke-width:1px;stroke-linecap:butt;stroke-linejoin:miter;stroke-opacity:1"/>
    <path style="fill:#e9d2af;fill-opacity:1;fill-rule:evenodd;stroke:#3f2d10;stroke-width:1px;stroke-linecap:butt;stroke-linejoin:miter;stroke-opacity:1" d="M 49.47231,77.699481 C 52.76309,77.364694 56.38386,76.305245 58.84568,74.074539 C 59.64363,72.715575 57.64231,71.619797 58.99876,70.401365 C 60.44625,70.339112 61.15762,71.558078 61.84545,72.72774 C 63.38512,71.328365 64.41197,69.175077 66.91431,70.420735 C 66.63769,71.752968 65.51345,72.928231 64.41346,73.574937 C 65.83475,73.324784 68.26313,71.396718 67.85822,74.309784 C 67.25981,75.83521 65.70489,75.6016 64.3225,76.063881 C 66.16335,76.643466 68.59543,76.299868 66.2592,78.382108 C 65.08346,78.851163 64.07876,78.498873 62.94752,78.129226 C 61.67957,78.30181 60.51914,79.093496 59.34528,79.642337 C 57.17231,81.895294 54.40094,83.12863 51.57601,84.380574 C 48.79287,83.266604 43.80798,86.436514 41.09479,85.596713 C 39.94846,85.470251 39.64976,75.520227 38.61917,75.115142 C 37.0942,72.616189 40.98818,72.790224 43.16665,70.871129 C 46.0942,68.51244 46.58862,77.815877 49.47231,77.699481 z" id="path3467" sodipodi:nodetypes="cccccccccccccccc"/>
    <path sodipodi:nodetypes="ccccc" id="path3349" d="M 46.34527,59.18604 C 43.64633,61.98152 41.84905,65.1585 40.68841,68.809593 C 39.23923,71.385953 37.75469,73.679313 37.43321,76.675273 C 41.40022,77.423823 45.41651,76.637413 49.35047,77.177893 C 51.1511,72.397063 50.84333,67.15145 50.94146,62.11494" style="fill:#1a1a1a;fill-opacity:1;fill-rule:evenodd;stroke:#000000;stroke-width:1px;stroke-linecap:butt;stroke-linejoin:miter;stroke-opacity:1"/>
    <path sodipodi:nodetypes="cscccccccc" id="path3351" d="M 68.60915,90.740713 C 68.75431,91.519743 69.49878,93.542573 69.23415,94.865713 C 69.03085,95.882203 68.72635,96.896893 68.48415,97.865713 C 67.96546,100.41102 68.92992,102.848 69.10915,105.36571 C 68.59406,107.57446 69.24578,111.06381 67.73415,112.61571 C 65.10416,114.60348 61.06935,114.51054 59.60915,111.99071 C 59.85941,110.98968 59.66898,110.39277 60.10915,109.36571 C 61.39523,106.62657 60.78612,103.5016 60.35915,100.61571 C 60.30143,96.824783 59.59173,93.159673 59.73415,89.365713 C 61.90152,88.564843 67.24107,89.144623 68.60915,90.740713 z" style="fill:#00325c;fill-opacity:1;fill-rule:evenodd;stroke:#00192e;stroke-width:1px;stroke-linecap:butt;stroke-linejoin:miter;stroke-opacity:1"/>
    <path sodipodi:nodetypes="cccccccc" style="fill:#00325c;fill-opacity:1;fill-rule:evenodd;stroke:#00192e;stroke-width:1px;stroke-linecap:butt;stroke-linejoin:miter;stroke-opacity:1" d="M 57.48415,90.615713 C 57.62931,91.394743 58.37378,93.417573 58.10915,94.740713 C 57.16569,97.535783 57.03513,100.14684 57.73415,102.99071 C 57.71822,105.78037 58.60637,110.44028 56.60915,112.49071 C 53.76358,113.61772 50.90284,114.33598 48.48415,111.86571 C 49.72968,108.01393 49.82767,104.50231 49.23415,100.49071 C 49.20527,96.690243 48.46574,93.060953 48.60915,89.240713 C 50.77652,88.439843 56.11607,89.019623 57.48415,90.615713 z" id="path3353"/>
    <path sodipodi:nodetypes="cccccccccccc" id="path3355" d="M 44.70271,93.892293 C 47.50782,90.431033 44.32565,85.747043 43.96787,81.783083 C 41.82478,78.511641 43.07735,71.125075 44.30886,66.080283 C 44.77463,62.97452 45.8053,60.17813 47.36584,57.47 C 49.15011,55.05693 51.53305,53.68397 54.5619,53.52915 C 58.44785,54.09832 62.37048,53.57385 66.22917,54.41303 C 69.07646,55.65191 71.03882,57.70407 71.35569,60.77698 C 71.49322,63.55091 71.30681,66.050553 72.59313,68.555153 C 72.98028,73.006543 72.45705,77.776143 71.83056,82.240183 C 70.93609,87.433563 75.16484,89.315223 74.58945,94.494763 C 70.10757,91.928963 64.29871,95.796663 59.20988,95.226993 C 54.94174,93.701173 47.35068,97.128683 44.70271,93.892293 z" style="fill:#1a1a1a;fill-opacity:1;fill-rule:evenodd;stroke:#000000;stroke-width:1px;stroke-linecap:butt;stroke-linejoin:miter;stroke-opacity:1"/>
    <path sodipodi:nodetypes="cccccccccccccccc" id="path3357" d="M 78.70111,74.495137 C 81.5721,72.852365 84.45024,70.413363 85.79355,67.374926 C 85.97062,65.80899 83.69673,65.62073 84.44123,63.95632 C 85.73861,63.3114 86.88383,64.13626 87.98751,64.92563 C 88.82592,63.02145 88.88946,60.6367 91.68205,60.75838 C 91.9705,62.0881 91.42065,63.61873 90.67824,64.65653 C 91.87534,63.85056 93.31104,61.10225 94.12446,63.9286 C 94.19735,65.56558 92.68162,65.98379 91.60624,66.967792 C 93.52379,66.749566 95.60656,65.44758 94.31769,68.299337 C 93.43389,69.205579 92.37272,69.29182 91.18886,69.413611 C 90.10036,70.086409 89.36162,71.28124 88.51195,72.259625 C 87.44162,75.20105 85.41027,77.453882 83.33754,79.745475 C 80.34186,79.858201 78.92745,83.408901 76.10707,83.743735 C 75.00822,84.093867 68.78966,77.611045 67.68338,77.659563 C 65.27473,75.995618 68.95425,73.455855 70.16524,70.817265 C 71.88213,67.47268 76.11338,75.772976 78.70111,74.495137 z" style="fill:#e9d2af;fill-opacity:1;fill-rule:evenodd;stroke:#3f2d10;stroke-width:1px;stroke-linecap:butt;stroke-linejoin:miter;stroke-opacity:1"/>
    <path sodipodi:nodetypes="ccccccc" id="path3359" d="M 70.07477,59.41862 C 71.81859,61.27099 73.05622,63.34589 74.20155,65.58566 C 75.49791,67.751229 77.15511,69.609774 78.94554,71.364996 C 75.7118,74.088887 71.32105,76.112179 67.45824,78.225964 C 66.27002,76.474099 65.19841,74.655418 63.97419,72.92099 C 62.45721,70.538937 62.81624,67.85097 61.9439,65.33587 C 61.47627,62.8395 62.16283,60.71494 64.4484,59.40849" style="fill:#1a1a1a;fill-opacity:1;fill-rule:evenodd;stroke:#000000;stroke-width:1px;stroke-linecap:butt;stroke-linejoin:miter;stroke-opacity:1"/>
    <path sodipodi:nodetypes="ccccc" id="path3367" d="M 51.86009,56.50849 C 53.59881,61.09298 62.21221,59.58171 65.26542,55.21927 C 64.04734,52.74185 63.18456,49.76647 60.51542,48.46927 C 58.24866,48.21047 56.04863,48.84075 53.89042,49.46927 C 52.15223,50.82488 51.47125,54.76724 51.86009,56.50849 z" style="fill:#e9d2af;fill-opacity:1;fill-rule:evenodd;stroke:#3f2d10;stroke-width:1px;stroke-linecap:butt;stroke-linejoin:miter;stroke-opacity:1"/>
    <path style="fill:#e9d2af;fill-opacity:1;fill-rule:evenodd;stroke:#3f2d10;stroke-width:1px;stroke-linecap:butt;stroke-linejoin:miter;stroke-opacity:1" d="M 54.28279,10.94107 C 49.83093,11.00211 45.26444,12.6908 43.53279,17.15982 C 42.00236,22.18625 39.36088,27.3334 39.97029,32.72232 C 41.68478,38.36396 43.09098,44.81503 47.75154,48.62857 C 51.00649,51.66448 56.8459,53.13704 61.18904,53.22232 C 66.08154,52.13188 69.49468,49.4353 70.75154,44.37857 C 71.65771,41.38162 71.15527,38.96243 70.84529,36.09732 C 71.98384,36.82363 73.2714,37.13257 74.84529,36.81607 C 77.6191,35.51594 76.78741,33.71871 74.68904,31.94107 C 73.72469,31.80681 72.50868,31.88071 71.31404,31.69107 C 71.6816,29.99037 72.03279,28.14492 72.03279,26.97232 C 71.89334,18.0037 67.76471,11.09861 57.31404,11.15982 C 56.33693,11.01547 55.31014,10.92698 54.28279,10.94107 z" id="path3375"/>
    <path sodipodi:nodetypes="ccc" id="path3373" d="M 70.06568,24.21039 C 67.71196,24.73896 66.60735,26.53665 67.06568,29.21039 C 69.78304,34.22831 74.95073,27.00858 70.06568,24.21039 z" style="fill:#ffffff;fill-rule:evenodd;stroke:#333333;stroke-width:1px;stroke-linecap:butt;stroke-linejoin:miter;stroke-opacity:1"/>
    <path sodipodi:nodetypes="cc" id="path3377" d="M 61.51885,32.08312 C 56.63316,30.1537 58.18291,38.73816 61.57671,37.59745" style="fill:#e9d2af;fill-opacity:1;fill-rule:evenodd;stroke:#3f2d10;stroke-width:1px;stroke-linecap:butt;stroke-linejoin:miter;stroke-opacity:1"/>
    <path sodipodi:nodetypes="cs" id="path3379" d="M 60.73314,33.52856 C 59.92782,32.09771 58.35684,34.91101 60.95171,36.14445" style="fill:#e9d2af;fill-opacity:1;fill-rule:evenodd;stroke:#3f2d10;stroke-width:1px;stroke-linecap:butt;stroke-linejoin:miter;stroke-opacity:1"/>
    <path sodipodi:nodetypes="cssc" id="path3385" d="M 70.93179,25.54617 C 71.38913,24.59746 68.75463,25.35851 69.43179,27.54617 C 69.89913,29.05597 71.55649,28.12711 71.68179,28.04617 C 73.36214,26.96081 72.0033,24.19393 70.93179,25.54617 z" style="fill:#000000;fill-rule:evenodd;stroke:#000000;stroke-width:1px;stroke-linecap:butt;stroke-linejoin:miter;stroke-opacity:1"/>
    <path style="fill:#28170b;fill-opacity:1;fill-rule:evenodd;stroke:#120a04;stroke-width:1px;stroke-linecap:butt;stroke-linejoin:miter;stroke-opacity:1" d="M 70.40779,17.25357 C 67.72664,18.00096 64.72362,15.53759 63.90779,18.50357 C 62.78748,20.83707 61.36241,22.01618 62.90779,24.50357 C 63.87804,26.12453 63.29863,30.747 64.15779,33.75357 C 63.78419,34.12717 59.00181,30.50357 58.40779,30.50357 C 57.20773,33.86036 58.0108,37.37183 58.40779,41.00357 C 58.22191,46.96221 54.09469,48.67993 50.65779,51.75357 C 47.37538,50.76936 43.65757,49.26478 43.15779,46.25357 C 34.97338,35.94554 32.81934,18.14942 44.65779,12.00357 C 48.06812,7.81763 57.93485,6.6748 66.15779,10.25357 C 68.40604,12.15136 74.19517,16.05524 70.40779,17.25357 z" id="path3433" sodipodi:nodetypes="ccccccccccc"/>
    <path style="fill:#28170b;fill-opacity:1;fill-rule:evenodd;stroke:#120a04;stroke-width:1px;stroke-linecap:butt;stroke-linejoin:miter;stroke-opacity:1" d="M 57.65779,53.00357 C 61.15503,56.50541 64.91098,54.78911 68.40779,53.50357 C 70.67044,52.34327 72.33536,47.89841 73.40779,45.75357 C 70.05611,43.44244 72.22519,41.70559 72.40779,39.50357 C 70.45711,37.92392 67.30487,40.33512 66.15779,42.00357 C 65.47339,47.73124 60.44497,48.11476 55.65779,49.50357 C 53.78786,51.21348 56.02531,52.05714 57.65779,53.00357 z" id="path3435" sodipodi:nodetypes="ccccccc"/>
    <path id="path3465" d="M 46.71884,43.51351 C 48.38653,42.9592 45.86621,51.59184 45.89132,52.8067 C 45.93026,54.68989 41.6932,55.72458 40.94975,57.6187 C 37.98448,61.75017 38.5261,58.83052 35.36338,62.43685 C 34.93078,58.39598 36.36288,54.83643 37.0297,52.92685 C 37.61219,50.81225 39.1191,49.52102 41.11168,48.85871 C 42.35641,48.44497 45.27941,44.31452 46.71884,43.51351 z" style="fill:#28170b;fill-rule:evenodd;stroke:#120a04;stroke-width:0.99999988px;stroke-linecap:butt;stroke-linejoin:miter;stroke-opacity:1" sodipodi:nodetypes="cscccsc"/>
    <path sodipodi:nodetypes="ccc" id="path3525" d="M 80.00174,112.41731 C 77.40946,114.29252 73.19273,116.47884 70.58607,116.57844 C 67.76244,117.40078 64.88898,118.89597 61.27752,117.35282" style="fill:none;fill-rule:evenodd;stroke:#333333;stroke-width:1px;stroke-linecap:butt;stroke-linejoin:miter;stroke-opacity:1"/>
    <path style="font-size:7.68487883px;font-style:normal;font-variant:normal;font-weight:normal;font-stretch:normal;fill:#ffffff;fill-opacity:1;stroke:none;stroke-width:1px;stroke-linecap:butt;stroke-linejoin:miter;stroke-opacity:1;font-family:Rufscript;-inkscape-font-specification:Rufscript" d="M 45.55414,70.306773 C 45.42801,70.294842 45.24275,70.355088 45.3494,70.161951 C 45.3446,69.188042 45.11657,68.200078 45.10592,67.224846 C 45.0937,66.746153 45.07705,66.264019 45.11431,65.793438 C 45.25354,65.553206 45.59076,65.568543 45.85025,65.542581 C 46.39108,65.530977 46.94347,65.568397 47.48948,65.656143 C 47.75895,65.842206 47.93835,66.138364 48.11208,66.408975 C 48.34041,66.785774 48.23906,67.235777 47.96655,67.488959 C 47.65352,67.851133 47.15167,67.963916 46.80461,68.281804 C 46.54506,68.459761 46.6565,68.853897 46.93472,69.025049 C 47.28595,69.294804 47.71083,69.47293 47.98443,69.84234 C 48.13692,70.049863 48.30032,70.298614 48.28634,70.547854 C 48.04428,70.671021 47.60415,70.572912 47.43144,70.271381 C 47.21005,70.049418 47.02006,69.765888 46.78116,69.578261 C 46.52701,69.464217 46.35386,68.872501 46.06065,69.199272 C 45.90332,69.431326 45.94808,69.759709 45.92361,70.043363 C 45.95523,70.195457 45.76125,70.18576 45.67343,70.252224 C 45.63367,70.270407 45.5939,70.288589 45.55414,70.306773 z M 45.92187,68.044796 C 46.47184,67.809294 47.05703,67.584737 47.45959,67.138561 C 47.64909,66.956981 47.62841,66.602488 47.37638,66.421592 C 46.99291,66.090377 46.48884,66.102958 46.04452,66.061988 C 45.63436,65.952286 45.82349,66.49732 45.829,66.739835 C 45.89306,67.175473 45.88955,67.610026 45.92187,68.044796 z M 50.37219,70.786372 C 50.37012,70.11305 50.41476,69.436482 50.26089,68.754583 C 50.17736,68.276455 50.09619,67.798226 50.01572,67.319975 C 49.8051,67.082051 49.44997,67.083509 49.17226,66.999934 C 48.83241,66.936001 48.36907,66.806384 48.26933,66.402817 C 48.23488,66.09616 48.75307,66.331153 48.95356,66.28501 C 50.04019,66.388709 51.13438,66.452492 52.21822,66.724688 C 52.46587,66.782196 52.93205,66.942849 52.78769,67.271086 C 52.5957,67.478061 52.24851,67.393471 51.97614,67.369953 C 51.65671,67.330164 51.33658,67.278631 51.0176,67.252188 C 50.77895,67.549365 50.95255,67.995122 51.01206,68.364277 C 51.12796,69.140431 51.14721,69.919861 51.08567,70.677953 C 51.1016,70.984413 50.8999,71.245254 50.57154,71.029256 C 50.47126,70.989679 50.36637,70.901363 50.37219,70.786372 L 50.37219,70.786372 z M 53.8544,69.645269 C 53.65575,69.817794 53.87931,70.209474 53.92412,70.463398 C 54.01396,70.779933 54.19065,71.149521 54.03733,71.439137 C 53.81505,71.652007 53.31025,71.450878 53.31106,71.088306 C 53.16421,70.066072 53.13319,69.046384 53.07667,68.028234 C 53.07641,67.703057 53.02595,67.360311 53.10018,67.052177 C 53.43254,66.779293 53.92481,66.807202 54.35759,66.800148 C 54.77594,66.824677 55.21925,66.809145 55.62219,67.013227 C 55.77596,67.212741 56.13458,67.533343 56.03524,67.762174 C 55.3888,67.624132 54.72233,67.403378 54.07966,67.47596 C 53.73869,67.521153 53.83106,67.981523 53.82345,68.248035 C 53.78882,68.5737 53.95206,69.006513 54.34356,69.037611 C 54.78233,69.127723 55.23094,68.899692 55.65836,69.15166 C 56.02544,69.426465 55.6742,69.790476 55.35411,69.752385 C 54.86357,69.796365 54.35448,69.727166 53.8544,69.645269 L 53.8544,69.645269 z M 60.17341,73.268752 C 60.05262,72.87152 60.08327,72.463487 60.05938,72.064439 C 60.02202,70.767775 60.09832,69.484881 60.03786,68.18585 C 59.97275,68.115876 59.79614,68.456403 59.68915,68.537607 C 59.40449,68.857511 59.0383,69.11655 58.68372,69.338388 C 58.84347,69.516622 59.30044,69.763421 59.18748,69.991561 C 58.96272,70.285764 58.57989,70.109482 58.40845,69.789384 C 57.9327,69.244746 57.46342,68.693742 56.97263,68.162493 C 57.04112,69.309255 57.12183,70.458364 57.13211,71.599563 C 57.1427,71.913145 56.67475,72.036361 56.47398,71.775176 C 56.3126,71.478973 56.37684,71.148855 56.3429,70.8402 C 56.31906,69.798725 56.29873,68.75668 56.32371,67.721729 C 56.32299,67.399545 56.68818,67.352508 56.9473,67.448011 C 57.27012,67.59405 57.55713,67.870577 57.68424,68.207261 C 57.82049,68.409999 57.96865,68.906451 58.23794,68.793582 C 58.60256,68.47258 58.97884,68.16331 59.33616,67.834956 C 59.50976,67.618971 59.79981,67.475172 59.82714,67.160704 C 59.97772,66.962483 60.51468,66.986938 60.52309,67.342261 C 60.59772,68.016542 60.59019,68.686251 60.65624,69.36026 C 60.70985,70.396246 60.68295,71.426624 60.79256,72.466522 C 60.8622,72.746544 60.92989,73.092094 60.63719,73.224376 C 60.52209,73.302577 60.30369,73.460285 60.17342,73.268754 L 60.17341,73.268752 z" id="path2625"/>
  </g>
  <metadata>
    <rdf:RDF>
      <cc:Work>
        <dc:format>image/svg+xml</dc:format>
        <dc:type rdf:resource="http://purl.org/dc/dcmitype/StillImage"/>
        <cc:license rdf:resource="http://creativecommons.org/licenses/publicdomain/"/>
        <dc:publisher>
          <cc:Agent rdf:about="http://openclipart.org/">
            <dc:title>Open Clip Art Library</dc:title>
          </cc:Agent>
        </dc:publisher>
        <dc:title>Comic characters: Looking away</dc:title>
        <dc:date>2009-03-05T13:53:15</dc:date>
        <dc:description>Comic characters: a bearded guy looking away</dc:description>
        <dc:source>http://openclipart.org/detail/21841/comic-characters:-looking-away-by-nicubunu</dc:source>
        <dc:creator>
          <cc:Agent>
            <dc:title>nicubunu</dc:title>
          </cc:Agent>
        </dc:creator>
        <dc:subject>
          <rdf:Bag>
            <rdf:li>cartoon</rdf:li>
            <rdf:li>cartoon</rdf:li>
            <rdf:li>character</rdf:li>
            <rdf:li>character</rdf:li>
            <rdf:li>clip art</rdf:li>
            <rdf:li>clipart</rdf:li>
            <rdf:li>comic</rdf:li>
            <rdf:li>comic</rdf:li>
            <rdf:li>funny</rdf:li>
            <rdf:li>funny</rdf:li>
            <rdf:li>guy</rdf:li>
            <rdf:li>guy</rdf:li>
            <rdf:li>human</rdf:li>
            <rdf:li>human</rdf:li>
            <rdf:li>image</rdf:li>
            <rdf:li>media</rdf:li>
            <rdf:li>people</rdf:li>
            <rdf:li>people</rdf:li>
            <rdf:li>png</rdf:li>
            <rdf:li>public domain</rdf:li>
            <rdf:li>svg</rdf:li>
          </rdf:Bag>
        </dc:subject>
      </cc:Work>
      <cc:License rdf:about="http://creativecommons.org/licenses/publicdomain/">
        <cc:permits rdf:resource="http://creativecommons.org/ns#Reproduction"/>
        <cc:permits rdf:resource="http://creativecommons.org/ns#Distribution"/>
        <cc:permits rdf:resource="http://creativecommons.org/ns#DerivativeWorks"/>
      </cc:License>
    </rdf:RDF>
  </metadata>
</svg>
