<?xml version="1.0" encoding="UTF-8" standalone="no"?>
<!-- Created with Inkscape (http://www.inkscape.org/) -->
<svg xmlns:dc="http://purl.org/dc/elements/1.1/" xmlns:cc="http://creativecommons.org/ns#" xmlns:rdf="http://www.w3.org/1999/02/22-rdf-syntax-ns#" xmlns:svg="http://www.w3.org/2000/svg" xmlns="http://www.w3.org/2000/svg" xmlns:sodipodi="http://sodipodi.sourceforge.net/DTD/sodipodi-0.dtd" xmlns:inkscape="http://www.inkscape.org/namespaces/inkscape" width="128" height="128" id="svg2" sodipodi:version="0.32" inkscape:version="0.46" version="1.0" sodipodi:docname="rtfm2.svg" inkscape:output_extension="org.inkscape.output.svg.inkscape">
  <defs id="defs4">
    <inkscape:perspective sodipodi:type="inkscape:persp3d" inkscape:vp_x="0 : 64 : 1" inkscape:vp_y="0 : 1000 : 0" inkscape:vp_z="400 : 64 : 1" inkscape:persp3d-origin="200 : 42.666667 : 1" id="perspective149"/>
    <filter inkscape:collect="always" id="filter3443" x="-0.12513924" width="1.2502785" y="-0.32663372" height="1.6532674">
      <feGaussianBlur inkscape:collect="always" stdDeviation="1.9634296" id="feGaussianBlur3445"/>
    </filter>
  </defs>
  <sodipodi:namedview id="base" pagecolor="#ffffff" bordercolor="#666666" borderopacity="1.0" gridtolerance="10000" guidetolerance="10" objecttolerance="10" inkscape:pageopacity="0.0" inkscape:pageshadow="2" inkscape:zoom="1" inkscape:cx="140.30667" inkscape:cy="94.710678" inkscape:document-units="px" inkscape:current-layer="layer1" showgrid="false" inkscape:window-width="1538" inkscape:window-height="961" inkscape:window-x="21" inkscape:window-y="39"/>
  <g inkscape:label="Layer 1" inkscape:groupmode="layer" id="layer1">
    <g id="g3779" transform="translate(-101,-22)"/>
    <path id="path3018" d="M 55.24199,112.04398 C 49.77725,112.46636 48.41916,108.7841 43.74711,112.93349 C 42.3338,114.3468 42.02171,117.15074 42.41285,118.71528 C 45.28745,122.5663 48.41146,121.59492 53.01822,123.16281 C 55.29455,123.7319 57.28114,124.05232 60.13427,124.05232 C 63.03408,124.05232 64.81823,125.49075 67.69508,124.05232 C 69.92617,122.93678 71.98579,123.28043 73.92163,121.82855 C 75.43399,120.69428 76.14803,118.70472 76.59015,116.93627 C 77.37398,113.80094 74.71352,113.32943 73.03212,112.48874 C 70.87112,111.40824 67.12575,112.07513 65.47131,112.48874 C 63.69803,112.93206 62.15529,110.26497 59.68952,110.26497 C 57.69017,110.26497 58.6301,112.04398 55.24199,112.04398 z" style="fill:#000000;fill-opacity:0.72839505;fill-rule:evenodd;stroke:none;stroke-width:1px;stroke-linecap:butt;stroke-linejoin:miter;stroke-opacity:1;filter:url(#filter3443)" sodipodi:nodetypes="ccccsssssssc"/>
    <path sodipodi:nodetypes="cccccccc" id="path3006" d="M 63.94154,108.47247 C 61.2234,109.39092 57.35269,109.44849 54.54076,111.11979 C 53.9721,111.93649 53.8186,112.9645 53.53892,113.91002 C 53.46877,115.20992 54.0855,116.14184 54.89122,117.09191 C 57.26011,118.49255 60.21047,118.19832 62.86902,118.15039 C 65.14575,118.44759 67.90129,118.37273 69.76503,116.90915 C 72.58045,115.03598 72.53185,112.80456 72.80574,109.58881 C 69.83349,109.32289 66.88452,108.9621 63.94154,108.47247 z" style="fill:#e6e6e6;fill-rule:evenodd;stroke:#333333;stroke-width:1px;stroke-linecap:butt;stroke-linejoin:miter;stroke-opacity:1"/>
    <path sodipodi:nodetypes="cscccccccc" id="path3008" d="M 64.01246,87.47097 C 63.8673,88.25 63.12283,90.27283 63.38746,91.59597 C 63.59076,92.61246 63.89526,93.62715 64.13746,94.59597 C 64.65615,97.14128 63.69169,99.57826 63.51246,102.09597 C 64.02755,104.30472 63.37583,107.79407 64.88746,109.34597 C 67.51745,111.33374 71.55226,111.2408 73.01246,108.72097 C 72.7622,107.71994 72.95263,107.12303 72.51246,106.09597 C 71.22638,103.35683 71.83549,100.23186 72.26246,97.34597 C 72.32018,93.55504 79.57062,89.71315 79.4282,85.91919 C 77.26083,85.11832 65.38054,85.87488 64.01246,87.47097 z" style="fill:#00325c;fill-opacity:1;fill-rule:evenodd;stroke:#00192e;stroke-width:1px;stroke-linecap:butt;stroke-linejoin:miter;stroke-opacity:1"/>
    <path sodipodi:nodetypes="ccc" id="path3010" d="M 54.06237,115.07235 C 57.03817,116.24752 60.32999,117.14699 62.88018,116.59825 C 65.8195,116.69605 68.4839,116.52643 71.60097,114.13735" style="fill:none;fill-rule:evenodd;stroke:#333333;stroke-width:1px;stroke-linecap:butt;stroke-linejoin:miter;stroke-opacity:1"/>
    <path style="fill:#e6e6e6;fill-rule:evenodd;stroke:#333333;stroke-width:1px;stroke-linecap:butt;stroke-linejoin:miter;stroke-opacity:1" d="M 58.52712,110.35029 C 55.90581,111.51673 52.0571,111.93282 49.41219,113.85756 C 48.92167,114.72346 48.86412,115.76127 48.67328,116.72864 C 48.72392,118.02945 49.42437,118.9002 50.31468,119.77149 C 52.8032,120.94654 55.71359,120.3801 58.35625,120.08596 C 60.65073,120.17086 63.38746,119.84092 65.10752,118.21089 C 67.7372,116.08482 67.48198,113.86751 67.45663,110.64022 C 64.47253,110.65094 61.50282,110.56503 58.52712,110.35029 z" id="path3012" sodipodi:nodetypes="cccccccc"/>
    <path style="fill:#00325c;fill-opacity:1;fill-rule:evenodd;stroke:#00192e;stroke-width:1px;stroke-linecap:butt;stroke-linejoin:miter;stroke-opacity:1" d="M 61.53759,86.76386 C 61.39243,87.54289 57.46598,91.15671 57.73061,92.47985 C 57.93391,93.49634 58.23841,94.51103 58.48061,95.47985 C 58.9993,98.02516 58.03484,100.46214 57.85561,102.97985 C 58.3707,105.1886 57.71898,108.67795 59.23061,110.22985 C 61.8606,112.21762 65.89541,112.12468 67.35561,109.60485 C 67.10535,108.60382 67.29578,108.00691 66.85561,106.97985 C 65.56953,104.24071 66.17864,101.11574 66.60561,98.22985 C 66.66333,94.43892 77.62608,89.00604 77.48366,85.21208 C 75.31629,84.41121 62.90567,85.16777 61.53759,86.76386 z" id="path3014" sodipodi:nodetypes="cscccccccc"/>
    <path style="fill:none;fill-rule:evenodd;stroke:#333333;stroke-width:1px;stroke-linecap:butt;stroke-linejoin:miter;stroke-opacity:1" d="M 49.30222,117.83745 C 52.37412,118.73174 55.73515,119.32222 58.2235,118.53947 C 61.15923,118.36441 63.79643,117.94856 66.67865,115.28084" id="path3016" sodipodi:nodetypes="ccc"/>
    <path sodipodi:nodetypes="ccccccccc" id="path2964" d="M 57.2049,9.423629 C 46.75406,9.413599 42.65374,16.329013 42.55821,25.29821 C 42.5674,27.174345 43.45266,30.862514 43.92668,32.719896 C 43.7282,36.38266 42.83453,39.15403 43.93277,42.72303 C 45.21438,47.77354 48.08945,49.56727 52.98723,50.63374 C 57.3299,50.52719 59.9724,47.97856 63.21244,44.92675 C 67.85426,41.09043 72.94757,36.55526 74.63441,30.905296 C 75.21743,25.513454 72.57776,20.385324 71.02274,15.366446 C 68.86457,9.876626 62.41235,8.628266 57.2049,9.423629 z" style="fill:#e9d2af;fill-opacity:1;fill-rule:evenodd;stroke:#3f2d10;stroke-width:1px;stroke-linecap:butt;stroke-linejoin:miter;stroke-opacity:1"/>
    <path sodipodi:nodetypes="cccc" id="path2966" d="M 43.60196,28.037456 C 42.70362,30.312656 40.19045,30.935505 38.71751,31.872117 C 37.54636,34.36041 37.53095,36.31737 40.59418,36.34879 C 42.84894,35.82178 44.00424,34.40925 44.74439,32.361206" style="fill:#e9d2af;fill-opacity:1;fill-rule:evenodd;stroke:#3f2d10;stroke-width:1px;stroke-linecap:butt;stroke-linejoin:miter;stroke-opacity:1"/>
    <path sodipodi:nodetypes="cccc" id="path2968" d="M 45.24004,23.29409 C 43.88881,26.299224 44.9543,28.052158 47.87729,27.604451 C 48.77778,27.995657 50.63915,25.794622 50.20234,24.343027 C 50.50479,20.43735 47.11995,20.36918 45.24004,23.29409 z" style="fill:#ffffff;fill-rule:evenodd;stroke:#333333;stroke-width:1px;stroke-linecap:butt;stroke-linejoin:miter;stroke-opacity:1"/>
    <path sodipodi:nodetypes="cssc" id="path2974" d="M 46.50438,23.654021 C 46.88917,23.295483 44.62239,22.641055 44.7593,24.662578 C 44.86541,26.229426 46.76164,26.593335 47.39161,26.149706 C 48.65687,25.258694 47.11522,23.338322 46.50438,23.654021 z" style="fill:#000000;fill-rule:evenodd;stroke:#000000;stroke-width:1px;stroke-linecap:butt;stroke-linejoin:miter;stroke-opacity:1"/>
    <path id="path2976" d="M 76.07005,31.303597 C 74.50814,31.068189 76.35998,37.03479 76.46733,38.15685 C 76.63375,39.8962 79.29661,42.81499 80.16913,44.43552 C 80.91022,45.81194 85.07409,45.23818 86.16511,44.98168 C 88.0012,44.54998 89.87526,45.79868 90.55189,46.71548 C 92.66329,49.57627 91.7243,45.71857 91.27034,44.32093 C 90.9138,43.22321 88.78875,41.49853 87.89891,40.59488 C 86.38624,39.05874 86.26088,37.53346 85.03517,35.87271 C 83.86539,34.28774 82.21765,34.01788 80.35146,33.736613 C 79.18566,33.560903 77.45271,31.803595 76.07005,31.303597 z" style="fill:#28170b;fill-rule:evenodd;stroke:#120a04;stroke-width:1px;stroke-linecap:butt;stroke-linejoin:miter;stroke-opacity:1"/>
    <path sodipodi:nodetypes="cccccccccccc" id="path2989" d="M 80.63161,91.28924 C 77.89024,88.21932 81.5848,82.04633 79.63246,78.40785 C 79.19367,72.30741 76.43957,64.39876 74.58305,59.6852 C 73.61085,56.69898 70.69692,56.21471 68.71064,53.80143 C 66.55241,51.7161 65.66114,51.56612 62.6483,51.91355 C 58.90967,53.11656 59.37738,52.67377 55.71023,54.13858 C 53.10658,55.8306 51.51001,58.17861 51.70489,61.26167 C 52.02728,64.02023 52.62387,66.45478 51.76877,69.1374 C 52.12195,73.59161 48.93686,78.64657 50.29185,82.94588 C 52.03157,87.92028 51.24606,89.68359 52.6688,94.69703 C 56.66549,91.4264 64.44746,94.6354 69.37237,93.23328 C 73.32998,91.02365 78.55438,94.91844 80.63161,91.28924 z" style="fill:#1a1a1a;fill-opacity:1;fill-rule:evenodd;stroke:#000000;stroke-width:1px;stroke-linecap:butt;stroke-linejoin:miter;stroke-opacity:1"/>
    <path sodipodi:nodetypes="ccccc" id="path2987" d="M 54.46303,55.53091 C 56.29863,60.07747 65.58514,58.38378 68.54509,53.95754 C 65.94575,51.17427 65.88473,47.19661 63.65294,46.0724 C 61.3812,45.86176 59.19504,46.53858 57.05065,47.21275 C 55.34161,48.60494 54.03733,53.7983 54.46303,55.53091 z" style="fill:#e9d2af;fill-opacity:1;fill-rule:evenodd;stroke:#3f2d10;stroke-width:1px;stroke-linecap:butt;stroke-linejoin:miter;stroke-opacity:1"/>
    <path style="fill:#28170b;fill-opacity:1;fill-rule:evenodd;stroke:#120a04;stroke-width:1px;stroke-linecap:butt;stroke-linejoin:miter;stroke-opacity:1" d="M 71.13733,36.02303 C 66.29878,35.10537 65.36931,38.60656 63.31387,40.18639 C 61.06849,40.72725 59.13277,41.98218 56.95104,42.68632 C 56.03511,42.69081 55.23641,42.72795 54.48064,42.35467 C 52.56812,41.36702 51.21789,39.5945 49.67863,38.12813 C 47.39279,37.06478 45.74252,36.55363 43.13966,36.56638 C 41.74811,37.53777 40.2164,37.63192 41.84997,41.229 C 45.35741,41.30317 46.86992,40.5111 49.10111,41.4435 C 50.73715,42.80053 50.77231,45.01238 48.65425,45.91449 C 47.00236,45.6181 45.47609,45.87254 44.58231,43.9969 C 41.86874,44.25838 42.32444,46.38231 43.19673,48.22249 C 43.83653,52.5864 46.74288,53.25571 50.96837,52.62199 C 53.65719,52.27563 57.15265,52.71631 59.63985,51.70543 C 61.86085,50.29106 63.34064,49.00987 64.9405,46.89725 C 66.281,43.99777 68.38184,42.41848 70.02382,39.9982 C 70.37796,38.32847 72.48982,37.19454 71.13733,36.02303 z" id="path2978" sodipodi:nodetypes="cccccccccccccccc"/>
    <path sodipodi:nodetypes="cccsccccc" id="path2983" d="M 43.27,15.679124 C 42.57707,5.819944 69.4603,2.431749 70.90287,10.22268 C 78.87072,10.845554 79.02755,30.171559 73.38839,36.10231 C 72.92858,35.39569 71.46692,35.40397 71.2611,34.3125 C 70.39204,29.704151 70.91969,22.276107 66.99414,22.987662 C 63.57796,21.875589 64.82054,26.387805 64.00889,27.068193 C 58.35657,23.563925 64.14082,17.619205 58.47087,15.251131 C 55.69467,16.388941 52.17737,18.141187 49.27861,15.296143 C 46.81289,15.308217 45.3739,16.508755 43.27,15.679124 z" style="fill:#28170b;fill-rule:evenodd;stroke:#120a04;stroke-width:1px;stroke-linecap:butt;stroke-linejoin:miter;stroke-opacity:1"/>
    <path sodipodi:nodetypes="cc" id="path2970" d="M 65.83757,23.516457 C 71.68947,21.158256 70.69883,29.846903 66.36449,29.013943" style="fill:#e9d2af;fill-opacity:1;fill-rule:evenodd;stroke:#3f2d10;stroke-width:1px;stroke-linecap:butt;stroke-linejoin:miter;stroke-opacity:1"/>
    <path sodipodi:nodetypes="cs" id="path2972" d="M 66.96929,24.885932 C 67.81304,23.388849 70.06752,26.050566 66.98214,27.5109" style="fill:#e9d2af;fill-opacity:1;fill-rule:evenodd;stroke:#3f2d10;stroke-width:1px;stroke-linecap:butt;stroke-linejoin:miter;stroke-opacity:1"/>
    <path sodipodi:nodetypes="cc" id="path2985" d="M 44.13044,42.56384 C 45.09728,42.96825 45.45548,42.74867 47.1304,42.54915" style="fill:none;fill-rule:evenodd;stroke:#3f2d10;stroke-width:1px;stroke-linecap:butt;stroke-linejoin:miter;stroke-opacity:1"/>
    <path sodipodi:nodetypes="cccccccccccccccc" id="path2993" d="M 71.29165,83.0228 C 71.01187,86.31872 70.01304,89.95667 67.82376,92.45539 C 66.47831,93.27593 65.34927,91.29319 64.15366,92.66981 C 64.1156,94.11813 65.34626,94.80904 66.52725,95.47724 C 65.15378,97.04007 63.01794,98.10274 64.30524,100.58393 C 65.63266,100.2851 66.78898,99.14139 67.41722,98.03076 C 67.19084,99.45603 65.3036,101.91626 68.2095,101.46275 C 69.72472,100.83894 69.46518,99.28815 69.9043,97.89823 C 70.51455,99.72914 70.21162,102.16662 72.25455,99.79595 C 72.7039,98.61253 72.33488,97.61386 71.9464,96.48894 C 72.09777,95.21828 72.86997,94.0448 73.39913,92.86193 C 75.61548,90.65164 76.80235,87.86006 78.00694,85.0146 C 76.84664,82.25045 79.47051,79.47136 78.5855,76.77259 C 78.43992,75.62852 78.27401,74.63758 77.85177,73.61391 C 75.32769,72.13088 72.90542,72.35184 71.02298,74.56206 C 68.71352,77.52859 71.35986,80.13757 71.29165,83.0228 z" style="fill:#e9d2af;fill-opacity:1;fill-rule:evenodd;stroke:#3f2d10;stroke-width:0.99999994px;stroke-linecap:butt;stroke-linejoin:miter;stroke-opacity:1"/>
    <path sodipodi:nodetypes="cccccc" id="path2991" d="M 64.75957,63.76765 C 64.88823,66.30845 65.52797,68.63817 66.35056,71.0155 C 67.01504,73.4504 67.20814,75.93298 67.23444,78.44012 C 71.43888,77.99367 76.68917,75.72737 80.88913,74.40459 C 80.44821,72.33421 80.12833,69.67668 79.72492,67.5924 C 79.20238,64.77577 75.12058,59.45536 72.06807,59.44291" style="fill:#1a1a1a;fill-opacity:1;fill-rule:evenodd;stroke:#000000;stroke-width:1px;stroke-linecap:butt;stroke-linejoin:miter;stroke-opacity:1"/>
    <path style="font-size:7.68487883px;font-style:normal;font-variant:normal;font-weight:normal;font-stretch:normal;fill:#ffffff;fill-opacity:1;stroke:none;stroke-width:1px;stroke-linecap:butt;stroke-linejoin:miter;stroke-opacity:1;font-family:Rufscript;-inkscape-font-specification:Rufscript" d="M 52.08642,70.639567 C 52.02254,70.633296 51.9287,70.701852 51.98272,70.503931 C 51.98029,69.530237 51.86479,68.552503 51.8594,67.57775 C 51.85321,67.099604 51.84478,66.618218 51.86364,66.145963 C 51.93417,65.899486 52.10497,65.899694 52.23641,65.862092 C 52.51033,65.826222 52.79013,65.838862 53.06668,65.902112 C 53.20317,66.076086 53.29404,66.364196 53.38203,66.627012 C 53.49768,66.993568 53.44634,67.448116 53.30832,67.713525 C 53.14977,68.089743 52.89558,68.225041 52.71979,68.558499 C 52.58833,68.7481 52.64477,69.137236 52.7857,69.295907 C 52.96359,69.549903 53.1788,69.708969 53.31738,70.066105 C 53.39461,70.266785 53.47738,70.508206 53.47029,70.758072 C 53.34769,70.8921 53.12476,70.813736 53.03728,70.519953 C 52.92515,70.307924 52.82891,70.032915 52.70791,69.856007 C 52.57918,69.753365 52.49149,69.169419 52.34297,69.509343 C 52.26328,69.748455 52.28595,70.07483 52.27356,70.359582 C 52.28957,70.510256 52.19132,70.509262 52.14684,70.579667 C 52.1267,70.599633 52.10656,70.6196 52.08642,70.639567 z M 52.27268,68.361093 C 52.55124,68.100917 52.84765,67.850108 53.05155,67.385872 C 53.14752,67.195788 53.13705,66.842225 53.0094,66.672636 C 52.81516,66.358622 52.55985,66.393819 52.3348,66.372782 C 52.12705,66.281481 52.22285,66.818031 52.22564,67.060299 C 52.25809,67.493063 52.25631,67.927773 52.27268,68.361093 z M 54.52678,70.903012 C 54.52574,70.229785 54.54835,69.551214 54.47041,68.876217 C 54.4281,68.401836 54.387,67.927251 54.34623,67.452608 C 54.23955,67.224133 54.05967,67.241522 53.91901,67.170406 C 53.74688,67.121722 53.51219,67.01289 53.46167,66.613797 C 53.44423,66.308688 53.70669,66.520432 53.80824,66.465295 C 54.35862,66.520244 54.91284,66.534939 55.46181,66.758511 C 55.58725,66.804909 55.82337,66.944647 55.75025,67.27936 C 55.653,67.494948 55.47716,67.425936 55.3392,67.414637 C 55.1774,67.389177 55.01525,67.352005 54.85369,67.339874 C 54.73281,67.647758 54.82074,68.085726 54.85088,68.452211 C 54.90958,69.223164 54.91934,70.001733 54.88817,70.762585 C 54.89624,71.068331 54.79407,71.33822 54.62776,71.136954 C 54.57697,71.101876 54.52383,71.018264 54.52678,70.903012 L 54.52678,70.903012 z M 56.29054,69.605687 C 56.18993,69.787125 56.30316,70.168774 56.32586,70.420689 C 56.37136,70.733193 56.46085,71.094853 56.3832,71.391348 C 56.27062,71.614192 56.01493,71.435709 56.01534,71.073101 C 55.94095,70.057453 55.92524,69.039157 55.89662,68.023544 C 55.89648,67.698377 55.87093,67.357897 55.90852,67.046431 C 56.07687,66.758638 56.32621,66.764462 56.54541,66.737992 C 56.7573,66.743751 56.98184,66.70833 57.18594,66.894337 C 57.26382,67.086952 57.44546,67.391464 57.39515,67.624753 C 57.06772,67.515712 56.73015,67.324857 56.40464,67.426272 C 56.23193,67.486761 56.27872,67.942988 56.27486,68.20984 C 56.25732,68.537059 56.34001,68.96255 56.5383,68.976083 C 56.76054,69.046511 56.98776,68.798353 57.20426,69.031148 C 57.39019,69.289484 57.21228,69.669252 57.05016,69.645522 C 56.8017,69.71151 56.54384,69.665149 56.29054,69.605687 L 56.29054,69.605687 z M 59.49115,72.945679 C 59.42997,72.553866 59.4455,72.14446 59.4334,71.746483 C 59.41447,70.451494 59.45312,69.165177 59.42249,67.868857 C 59.38952,67.801806 59.30006,68.150255 59.24587,68.236259 C 59.10169,68.568934 58.91621,68.844402 58.73662,69.082148 C 58.81753,69.253215 59.04899,69.479512 58.99177,69.71272 C 58.87793,70.017006 58.68403,69.8579 58.59719,69.545493 C 58.35622,69.022198 58.11853,68.492248 57.86994,67.983017 C 57.90463,69.126706 57.94551,70.272195 57.95072,71.412933 C 57.95608,71.726039 57.71906,71.870249 57.61737,71.618071 C 57.53563,71.329108 57.56817,70.996109 57.55098,70.688977 C 57.5389,69.64857 57.52861,68.607438 57.54126,67.571366 C 57.54089,67.249213 57.72587,67.185794 57.85711,67.269672 C 58.02062,67.401227 58.16599,67.664879 58.23037,67.995859 C 58.29938,68.192484 58.37443,68.68229 58.51083,68.557341 C 58.69551,68.219981 58.8861,67.89383 59.06708,67.549445 C 59.15501,67.325672 59.30192,67.16886 59.31576,66.853165 C 59.39203,66.648188 59.66401,66.648555 59.66826,67.003499 C 59.70607,67.674434 59.70225,68.344479 59.73571,69.015527 C 59.76286,70.049106 59.74923,71.080691 59.80476,72.115673 C 59.84003,72.392571 59.87431,72.735082 59.72606,72.880497 C 59.66776,72.963861 59.55713,73.131366 59.49115,72.945679 L 59.49115,72.945679 z" id="path2627"/>
  </g>
  <metadata>
    <rdf:RDF>
      <cc:Work>
        <dc:format>image/svg+xml</dc:format>
        <dc:type rdf:resource="http://purl.org/dc/dcmitype/StillImage"/>
        <cc:license rdf:resource="http://creativecommons.org/licenses/publicdomain/"/>
        <dc:publisher>
          <cc:Agent rdf:about="http://openclipart.org/">
            <dc:title>Open Clip Art Library</dc:title>
          </cc:Agent>
        </dc:publisher>
        <dc:title>Comic characters: Profile</dc:title>
        <dc:date>2009-03-05T14:32:45</dc:date>
        <dc:description>Comic characters: profile view of a bearded guy</dc:description>
        <dc:source>http://openclipart.org/detail/21889/comic-characters:-profile-by-nicubunu</dc:source>
        <dc:creator>
          <cc:Agent>
            <dc:title>nicubunu</dc:title>
          </cc:Agent>
        </dc:creator>
        <dc:subject>
          <rdf:Bag>
            <rdf:li>cartoon</rdf:li>
            <rdf:li>cartoon</rdf:li>
            <rdf:li>character</rdf:li>
            <rdf:li>character</rdf:li>
            <rdf:li>clip art</rdf:li>
            <rdf:li>clipart</rdf:li>
            <rdf:li>comic</rdf:li>
            <rdf:li>comic</rdf:li>
            <rdf:li>funny</rdf:li>
            <rdf:li>funny</rdf:li>
            <rdf:li>guy</rdf:li>
            <rdf:li>guy</rdf:li>
            <rdf:li>human</rdf:li>
            <rdf:li>human</rdf:li>
            <rdf:li>image</rdf:li>
            <rdf:li>media</rdf:li>
            <rdf:li>people</rdf:li>
            <rdf:li>people</rdf:li>
            <rdf:li>png</rdf:li>
            <rdf:li>public domain</rdf:li>
            <rdf:li>svg</rdf:li>
          </rdf:Bag>
        </dc:subject>
      </cc:Work>
      <cc:License rdf:about="http://creativecommons.org/licenses/publicdomain/">
        <cc:permits rdf:resource="http://creativecommons.org/ns#Reproduction"/>
        <cc:permits rdf:resource="http://creativecommons.org/ns#Distribution"/>
        <cc:permits rdf:resource="http://creativecommons.org/ns#DerivativeWorks"/>
      </cc:License>
    </rdf:RDF>
  </metadata>
</svg>
