<?xml version="1.0" encoding="UTF-8" standalone="no"?>
<!-- Created with Inkscape (http://www.inkscape.org/) -->
<svg xmlns:dc="http://purl.org/dc/elements/1.1/" xmlns:cc="http://creativecommons.org/ns#" xmlns:rdf="http://www.w3.org/1999/02/22-rdf-syntax-ns#" xmlns:svg="http://www.w3.org/2000/svg" xmlns="http://www.w3.org/2000/svg" xmlns:sodipodi="http://sodipodi.sourceforge.net/DTD/sodipodi-0.dtd" xmlns:inkscape="http://www.inkscape.org/namespaces/inkscape" width="128" height="128" id="svg2" sodipodi:version="0.32" inkscape:version="0.46" version="1.0" sodipodi:docname="old.svg" inkscape:output_extension="org.inkscape.output.svg.inkscape" inkscape:export-xdpi="90" inkscape:export-ydpi="90">
  <defs id="defs4">
    <filter inkscape:collect="always" id="filter3443" x="-0.12513924" width="1.2502785" y="-0.32663372" height="1.6532674">
      <feGaussianBlur inkscape:collect="always" stdDeviation="1.9634296" id="feGaussianBlur3445"/>
    </filter>
  </defs>
  <sodipodi:namedview id="base" pagecolor="#ffffff" bordercolor="#666666" borderopacity="1.0" gridtolerance="10000" guidetolerance="10" objecttolerance="10" inkscape:pageopacity="0" inkscape:pageshadow="2" inkscape:zoom="1" inkscape:cx="64" inkscape:cy="64" inkscape:document-units="px" inkscape:current-layer="g2682" showgrid="false" inkscape:window-width="1026" inkscape:window-height="741" inkscape:window-x="585" inkscape:window-y="184" showguides="true" inkscape:guide-bbox="true"/>
  <g inkscape:label="Layer 1" inkscape:groupmode="layer" id="layer1">
    <g transform="translate(-237.48788,-101.70871)" id="g3765"/>
    <g id="g4184" transform="translate(-302.48787,-113.70871)"/>
    <g id="g2682" transform="translate(-178,-324)">
      <path id="path3018" d="M 516.74766,456.56568 C 511.28292,456.98806 509.92483,453.3058 505.25278,457.45519 C 503.83947,458.8685 503.52738,461.67244 503.91852,463.23698 C 506.79312,467.088 509.91713,466.11662 514.52389,467.68451 C 516.80022,468.2536 518.78681,468.57402 521.63994,468.57402 C 524.53975,468.57402 526.3239,470.01245 529.20075,468.57402 C 531.43184,467.45848 533.49146,467.80213 535.4273,466.35025 C 536.93966,465.21598 537.6537,463.22642 538.09582,461.45797 C 538.87965,458.32264 536.21919,457.85113 534.53779,457.01044 C 532.37679,455.92994 528.63142,456.59683 526.97698,457.01044 C 525.2037,457.45376 523.66096,454.78667 521.19519,454.78667 C 519.19584,454.78667 520.13577,456.56568 516.74766,456.56568 z" style="fill:#000000;fill-opacity:0.72839505;fill-rule:evenodd;stroke:none;stroke-width:1px;stroke-linecap:butt;stroke-linejoin:miter;stroke-opacity:1;filter:url(#filter3443)" sodipodi:nodetypes="ccccsssssssc" transform="matrix(-1,0,0,1,764,-22)"/>
      <path sodipodi:nodetypes="cccccccc" id="path2604" d="M 246.43787,431.3397 C 248.79336,434.42482 251.98132,435.17229 255.17315,435.64668 C 255.77331,436.36561 255.49608,435.93442 255.45348,436.81978 C 255.21619,437.58382 254.94281,438.33215 254.74638,439.11788 C 251.99425,439.37488 248.95402,441.02335 246.07995,440.09795 C 243.06125,440.13652 240.0101,439.07951 237.51065,437.26172 C 236.93316,435.55219 237.55302,433.23431 237.68743,431.3397 C 240.47141,432.21455 243.63608,432.07282 246.43787,431.3397 z" style="fill:#2b1100;fill-rule:evenodd;stroke:#0e0300;stroke-width:1px;stroke-linecap:butt;stroke-linejoin:miter;stroke-opacity:1"/>
      <path sodipodi:nodetypes="ccc" id="path2606" d="M 254.74638,437.61527 C 251.49498,437.05905 248.24499,439.19266 244.85959,438.73934 C 241.71586,438.63534 240.08451,436.35062 237.77581,436.20106" style="fill:none;fill-rule:evenodd;stroke:#0e0300;stroke-width:1px;stroke-linecap:butt;stroke-linejoin:miter;stroke-opacity:1"/>
      <path sodipodi:nodetypes="cccccccc" id="path2608" d="M 235.21255,431.87003 C 237.53673,435.28586 241.42962,436.51174 244.05139,437.39928 C 244.47831,438.29824 244.46101,437.9625 244.58172,438.9411 C 244.43759,440.23489 243.67628,441.05296 242.72556,441.85791 C 240.15892,442.85079 237.29685,442.07634 234.68222,441.59275 C 232.38758,441.51227 229.68169,440.9862 228.08342,439.23659 C 225.61359,436.92676 226.02775,434.73357 226.28533,431.51648 C 229.26092,431.74196 232.22911,431.87003 235.21255,431.87003 z" style="fill:#2b1100;fill-rule:evenodd;stroke:#0e0300;stroke-width:1px;stroke-linecap:butt;stroke-linejoin:miter;stroke-opacity:1"/>
      <path sodipodi:nodetypes="cccccccccccccc" id="path2610" d="M 254.24887,394.46972 C 257.64732,398.99138 254.32106,402.53 254.74887,406.34472 C 255.52615,407.98681 255.99339,409.05805 257.37387,410.21972 C 258.88949,410.28686 259.99249,411.05416 260.37387,412.34472 C 259.48793,413.23905 258.22155,412.93286 256.99887,412.84472 C 256.63534,414.20526 258.62037,415.97845 258.74887,417.59472 C 256.97181,419.71852 255.48382,416.20252 255.37387,414.59472 C 255.16251,416.14152 256.02658,418.65814 255.87387,419.71972 C 253.83733,420.11915 253.13306,416.70583 253.12387,414.96972 C 253.16416,416.87322 254.11316,418.78048 251.87387,418.71972 C 250.33719,417.58781 250.70332,415.47979 250.49887,413.71972 C 249.89485,410.94554 248.77177,408.318 248.49887,405.46972 C 248.80126,401.28855 246.79521,396.09551 248.62387,392.21972 C 251.31378,390.87058 252.25074,393.37219 254.24887,394.46972 z" style="fill:#ffccaa;fill-opacity:1;fill-rule:evenodd;stroke:#3f2d10;stroke-width:1px;stroke-linecap:butt;stroke-linejoin:miter;stroke-opacity:1"/>
      <path sodipodi:nodetypes="ccccc" id="path2612" d="M 247.56915,378.41505 C 250.26809,381.21053 252.94037,383.76251 254.10101,387.4136 C 255.55019,389.98996 256.15973,392.90832 256.48121,395.90428 C 252.5142,396.65283 248.49791,395.86642 244.56395,396.4069 C 242.76332,391.62607 243.07109,386.38046 242.97296,381.34395" style="fill:#a96a00;fill-opacity:1;fill-rule:evenodd;stroke:#472c00;stroke-width:1px;stroke-linecap:butt;stroke-linejoin:miter;stroke-opacity:1"/>
      <path sodipodi:nodetypes="cccccccc" id="path2614" d="M 235.37387,409.71972 C 235.51903,410.49875 237.3885,411.52158 237.12387,412.84472 C 237.61077,416.36033 235.59001,420.04655 235.87387,424.34472 C 235.35878,426.55347 237.7605,430.16782 236.24887,431.71972 C 233.61888,433.70749 227.08407,433.61455 225.62387,431.09472 C 226.64181,427.23727 227.72072,423.60207 227.12387,419.59472 C 227.06615,415.80379 226.35645,412.13868 226.49887,408.34472 C 228.66624,407.54385 234.00579,408.12363 235.37387,409.71972 z" style="fill:#002f23;fill-opacity:1;fill-rule:evenodd;stroke:#00140f;stroke-width:1px;stroke-linecap:butt;stroke-linejoin:miter;stroke-opacity:1"/>
      <path sodipodi:nodetypes="cccccccc" style="fill:#002f23;fill-opacity:1;fill-rule:evenodd;stroke:#00140f;stroke-width:1px;stroke-linecap:butt;stroke-linejoin:miter;stroke-opacity:1" d="M 246.49887,409.59472 C 246.64403,410.37375 248.3885,412.52158 248.12387,413.84472 C 247.18041,416.63979 246.04985,419.12585 246.74887,421.96972 C 246.73294,424.75938 249.74609,429.79429 247.74887,431.84472 C 244.9033,432.97173 239.91756,433.31499 237.49887,430.84472 C 238.7444,426.99294 238.84239,423.48132 238.24887,419.46972 C 238.21999,415.66925 237.48046,412.03996 237.62387,408.21972 C 239.79124,407.41885 245.13079,407.99863 246.49887,409.59472 z" id="path2616"/>
      <path sodipodi:nodetypes="cccccccccccc" id="path2618" d="M 222.33927,414.3713 C 225.14438,410.91004 223.21221,405.72605 222.85443,401.76209 C 224.08256,396.80504 220.89268,391.5147 221.94542,386.55929 C 222.41119,383.45353 223.44186,380.65714 225.0024,377.94901 C 226.78667,375.53594 229.16961,374.16298 232.19846,374.00816 C 236.08441,374.57733 240.00704,374.05286 243.86573,374.89204 C 246.71302,376.13092 248.67538,378.18308 248.99225,381.25599 C 249.12978,384.02992 249.56837,386.15456 250.85469,388.65916 C 251.24184,393.11055 255.46861,397.50515 254.84212,401.96919 C 254.1594,409.49177 252.91674,411.06302 252.22601,414.97377 C 247.74413,412.40797 241.93527,416.27567 236.84644,415.706 C 232.5783,414.18018 224.98724,417.60769 222.33927,414.3713 z" style="fill:#a96a00;fill-opacity:1;fill-rule:evenodd;stroke:#472c00;stroke-width:1px;stroke-linecap:butt;stroke-linejoin:miter;stroke-opacity:1"/>
      <path sodipodi:nodetypes="cccccccccccccccc" id="path2620" d="M 224.99887,404.21972 C 224.44591,407.48094 223.00368,410.25308 224.49887,413.21972 C 225.5965,414.35052 227.18532,412.71294 227.99887,414.34472 C 227.6737,415.75658 226.30939,416.11794 224.99887,416.46972 C 225.93809,418.32626 227.7405,419.88907 225.87387,421.96972 C 224.66328,421.34857 223.82955,419.95213 223.49887,418.71972 C 223.3618,420.15633 224.57416,423.0102 221.87387,421.84472 C 220.56268,420.86197 221.20163,419.42528 221.12387,417.96972 C 220.07533,419.58997 219.75937,422.0258 218.37387,419.21972 C 218.23459,417.96155 218.84153,417.08682 219.49887,416.09472 C 219.66991,414.82656 219.21556,413.49731 218.99887,412.21972 C 217.40537,409.52559 216.32896,406.77595 215.87387,403.71972 C 217.68827,401.33335 216.46737,397.73661 217.99887,395.34472 C 218.42581,394.27337 218.83415,393.35536 219.49887,392.46972 C 222.31352,391.6647 224.60366,392.48412 225.87387,395.09472 C 227.65368,398.62584 227.47448,401.92916 224.99887,404.21972 z" style="fill:#ffccaa;fill-opacity:1;fill-rule:evenodd;stroke:#3f2d10;stroke-width:1px;stroke-linecap:butt;stroke-linejoin:miter;stroke-opacity:1"/>
      <path sodipodi:nodetypes="ccccccc" id="path2622" d="M 231.66445,383.45053 C 231.53579,385.99133 231.77105,388.69605 230.94846,391.07338 C 230.28398,393.50828 229.21588,395.61586 229.18958,398.123 C 224.98514,397.67655 220.48485,395.91025 216.28489,394.58747 C 216.72581,392.51709 217.29569,390.48456 217.6991,388.40028 C 218.36696,385.65631 219.55469,383.42884 220.76496,381.05777 C 222.24199,378.99163 225.2501,378.64061 227.77537,379.38467" style="fill:#a96a00;fill-opacity:1;fill-rule:evenodd;stroke:#472c00;stroke-width:1px;stroke-linecap:butt;stroke-linejoin:miter;stroke-opacity:1"/>
      <path sodipodi:nodetypes="ccccc" id="path2624" d="M 244.55433,376.9875 C 249.02436,389.19182 234.50738,380.43525 231.149,375.69828 C 232.36708,373.22086 233.22986,370.24548 235.899,368.94828 C 238.16576,368.68948 240.36579,369.31976 242.524,369.94828 C 244.26219,371.30389 244.94317,375.24625 244.55433,376.9875 z" style="fill:#ffccaa;fill-opacity:1;fill-rule:evenodd;stroke:#3f2d10;stroke-width:1px;stroke-linecap:butt;stroke-linejoin:miter;stroke-opacity:1"/>
      <path sodipodi:nodetypes="ccccccccc" id="path2626" d="M 240.79618,335.13505 C 251.24685,335.07384 255.38098,341.9691 255.52042,350.93772 C 255.52042,352.81388 254.65324,356.50634 254.18832,358.36602 C 254.40473,362.02778 257.61006,365.14829 256.52931,368.72262 C 255.27245,373.77935 249.57777,376.11746 244.68527,377.2079 C 240.34213,377.12262 235.5052,375.02262 232.25025,371.98671 C 227.5897,368.17317 226.81156,361.96845 225.09707,356.32681 C 224.48766,350.93788 225.47718,346.17189 227.00761,341.14546 C 229.13887,335.64513 235.5849,334.3652 240.79618,335.13505 z" style="fill:#ffccaa;fill-opacity:1;fill-rule:evenodd;stroke:#3f2d10;stroke-width:1px;stroke-linecap:butt;stroke-linejoin:miter;stroke-opacity:1"/>
      <path sodipodi:nodetypes="cccscccc" id="path2628" d="M 248.60112,336.87797 C 244.21915,332.9378 230.58081,332.18785 226.57195,336.88505 C 216.70717,340.03013 223.68348,358.28785 225.97943,364.48366 C 227.35347,364.46966 228.90755,364.30094 228.68762,363.61116 C 225.89128,354.84076 225.30666,353.8631 229.12893,352.10561 C 231.05993,351.62286 231.70521,353.10324 233.37156,353.51982 C 236.43878,351.43619 220.83697,342.65793 234.43223,337.07959 C 243.28711,335.63541 240.46259,334.99982 248.60112,336.87797 z" style="fill:#e6e6e6;fill-opacity:1;fill-rule:evenodd;stroke:#b3b3b3;stroke-width:1px;stroke-linecap:butt;stroke-linejoin:miter;stroke-opacity:1"/>
      <path sodipodi:nodetypes="cccc" id="path2630" d="M 246.34874,351.4394 C 247.71467,354.43788 246.65778,356.19601 243.73263,355.76262 C 242.83406,356.15823 241.58694,353.96634 242.01664,352.51262 C 242.82042,350.01517 244.51279,348.59656 246.34874,351.4394 z" style="fill:#ffffff;fill-rule:evenodd;stroke:#333333;stroke-width:1px;stroke-linecap:butt;stroke-linejoin:miter;stroke-opacity:1"/>
      <path sodipodi:nodetypes="ccc" id="path2632" d="M 252.72374,349.9394 C 255.07746,350.46797 255.80707,351.76566 255.34874,354.4394 C 252.63138,359.45732 247.83869,352.73759 252.72374,349.9394 z" style="fill:#ffffff;fill-rule:evenodd;stroke:#333333;stroke-width:1px;stroke-linecap:butt;stroke-linejoin:miter;stroke-opacity:1"/>
      <path sodipodi:nodetypes="ccc" id="path2634" d="M 250.72374,356.8144 C 256.64658,362.69753 254.54483,360.09924 253.84874,363.9394 C 249.05698,366.66958 247.95364,365.84089 248.59874,361.9394" style="fill:#ffccaa;fill-opacity:1;fill-rule:evenodd;stroke:#3f2d10;stroke-width:1px;stroke-linecap:butt;stroke-linejoin:miter;stroke-opacity:1"/>
      <path sodipodi:nodetypes="cc" id="path2636" d="M 231.34875,353.6894 C 225.48537,351.35988 226.51854,360.04357 230.84875,359.1894" style="fill:#ffccaa;fill-opacity:1;fill-rule:evenodd;stroke:#3f2d10;stroke-width:1px;stroke-linecap:butt;stroke-linejoin:miter;stroke-opacity:1"/>
      <path sodipodi:nodetypes="cs" id="path2638" d="M 230.22375,355.0644 C 229.37267,353.57146 227.13126,356.24419 230.22375,357.6894" style="fill:#ffccaa;fill-opacity:1;fill-rule:evenodd;stroke:#3f2d10;stroke-width:1px;stroke-linecap:butt;stroke-linejoin:miter;stroke-opacity:1"/>
      <path sodipodi:nodetypes="cc" id="path2640" d="M 253.68973,367.52519 C 253.47618,370.84665 246.52425,375.31253 243.0344,368.68572" style="fill:none;fill-rule:evenodd;stroke:#3f2d10;stroke-width:1px;stroke-linecap:butt;stroke-linejoin:miter;stroke-opacity:1"/>
      <path sodipodi:nodetypes="cssc" id="path2642" d="M 245.10763,352.65906 C 244.72109,352.30241 246.35964,352.01189 246.23263,354.03406 C 246.13419,355.60141 244.48976,355.0996 243.85763,354.65906 C 242.58802,353.77426 244.49525,352.34636 245.10763,352.65906 z" style="fill:#000000;fill-rule:evenodd;stroke:#000000;stroke-width:1px;stroke-linecap:butt;stroke-linejoin:miter;stroke-opacity:1"/>
      <path sodipodi:nodetypes="cssc" id="path2644" d="M 253.22375,352.70196 C 252.76641,351.75325 255.02591,351.7643 254.34875,353.95196 C 253.88141,355.46176 252.18966,354.57023 252.09875,354.45196 C 251.1684,353.2416 252.15224,351.34972 253.22375,352.70196 z" style="fill:#000000;fill-rule:evenodd;stroke:#000000;stroke-width:1px;stroke-linecap:butt;stroke-linejoin:miter;stroke-opacity:1"/>
      <path sodipodi:nodetypes="ccc" id="path2654" d="M 243.87461,440.00176 C 240.7463,440.67262 237.35149,441.01965 234.92594,440.05982 C 232.01042,439.67391 229.40999,439.06931 226.72727,436.20106" style="fill:none;fill-rule:evenodd;stroke:#0e0300;stroke-width:1px;stroke-linecap:butt;stroke-linejoin:miter;stroke-opacity:1"/>
    </g>
    <g transform="translate(-283.91001,-402.23598)" id="g4035"/>
    <g id="g4037" transform="translate(-348.91,-414.23598)"/>
    <g id="g3779" transform="translate(-235.33087,-456.23598)"/>
    <g transform="translate(-602.38175,-724.06374)" id="g4080"/>
    <g id="g4082" transform="translate(-667.38174,-736.06374)"/>
    <g transform="translate(-802.35444,-986.94142)" id="g2996"/>
    <g id="g2998" transform="translate(-867.35443,-998.94142)"/>
    <g id="g4126" transform="translate(-637.7753,-1074.9414)"/>
    <g id="g3109" transform="translate(-540.7753,-1139.9414)"/>
    <g transform="translate(-697.01069,-1434.617)" id="g4449"/>
    <g id="g4451" transform="translate(-762.01068,-1446.617)"/>
    <g id="g4524" transform="translate(-722.10204,-1407.617)"/>
    <g id="g3922" transform="translate(-413.43155,-1486.617)"/>
    <g transform="translate(-607.43155,-1523.617)" id="g4629"/>
    <g transform="translate(-792.98913,-1161.8728)" id="g3869"/>
    <g id="g3871" transform="translate(-857.98912,-1173.8728)"/>
    <g id="g3959" transform="translate(-693.40999,-1272.8728)"/>
    <g id="g2979" inkscape:label="Layer 1" transform="translate(-285.03974,-1050.0847)"/>
    <g id="g4951" transform="translate(175.13505,-1121.4974)"/>
    <g transform="translate(-850.88173,-1028.449)" id="g4625"/>
    <g id="g4627" transform="translate(-915.88172,-1040.449)"/>
    <g id="g4690" transform="translate(-1061.3026,-1019.449)"/>
    <g transform="translate(-685.13175,-1033.0324)" id="g5403"/>
    <g id="g5405" transform="translate(-750.13174,-1045.0324)"/>
    <g transform="matrix(1.2752406,0,0,1.2752406,-682.94508,-1232.8982)" id="g5523"/>
    <g transform="translate(-901.71439,-1891.991)" id="g6346"/>
    <g id="g6377" transform="translate(-966.71438,-1903.991)"/>
    <g id="g2803" transform="translate(-848.80574,-1937.991)"/>
    <g transform="translate(-909.99756,-369.94332)" id="g7732"/>
    <g id="g7734" transform="translate(-974.99755,-381.94332)"/>
    <g id="g7797" transform="translate(-1120.4184,-360.94332)"/>
    <g transform="translate(-249.12876,-800.59148)" id="g6281"/>
    <g id="g6283" transform="translate(-314.12875,-812.59148)"/>
    <g transform="translate(-320.91,-375.23598)" id="g5485"/>
    <g id="g5487" transform="translate(-385.90999,-387.23598)"/>
    <g id="g5497" transform="translate(-272.33087,-429.23598)"/>
    <g transform="translate(-639.38174,-697.06374)" id="g5499"/>
    <g id="g5501" transform="translate(-704.38173,-709.06374)"/>
    <g transform="translate(-839.35443,-959.94142)" id="g5503"/>
    <g id="g5505" transform="translate(-904.35442,-971.94142)"/>
    <g id="g5507" transform="translate(-674.77529,-1047.9414)"/>
    <g id="g5509" transform="translate(-577.77529,-1112.9414)"/>
    <g transform="translate(-734.01068,-1407.617)" id="g5529"/>
    <g id="g5531" transform="translate(-799.01067,-1419.617)"/>
    <g id="g5533" transform="translate(-759.10203,-1380.617)"/>
    <g id="g5535" transform="translate(-450.43154,-1459.617)"/>
    <g transform="translate(-644.43154,-1496.617)" id="g5537"/>
    <g transform="translate(-829.98913,-1134.8728)" id="g5539"/>
    <g id="g5541" transform="translate(-894.98912,-1146.8728)"/>
    <g id="g5543" transform="translate(-730.40998,-1245.8728)"/>
    <g id="g5565" inkscape:label="Layer 1" transform="translate(-322.03973,-1023.0847)"/>
    <g id="g5567" transform="translate(138.13505,-1094.4974)"/>
    <g transform="translate(-887.88172,-1001.449)" id="g5569"/>
    <g id="g5571" transform="translate(-952.88171,-1013.449)"/>
    <g id="g5573" transform="translate(-1098.3026,-992.44899)"/>
    <g transform="translate(-722.13174,-1006.0324)" id="g5605"/>
    <g id="g5607" transform="translate(-787.13173,-1018.0324)"/>
    <g transform="matrix(1.2752406,0,0,1.2752406,-719.94508,-1205.8982)" id="g5609"/>
    <g transform="translate(-938.71438,-1864.991)" id="g5629"/>
    <g id="g5631" transform="translate(-1003.7144,-1876.991)"/>
    <g id="g5633" transform="translate(-885.80573,-1910.991)"/>
    <g transform="translate(-946.99755,-342.94332)" id="g5661"/>
    <g id="g5663" transform="translate(-1011.9975,-354.94332)"/>
    <g id="g5665" transform="translate(-1157.4184,-333.94332)"/>
    <g transform="translate(-286.12875,-773.59148)" id="g5806"/>
    <g id="g5808" transform="translate(-351.12874,-785.59148)"/>
    <g transform="translate(-314.98786,-547.09396)" id="g7622"/>
    <g id="g7624" transform="translate(-379.98785,-559.09396)"/>
    <g id="g7694" transform="translate(-525.40872,-538.09396)"/>
  </g>
  <metadata>
    <rdf:RDF>
      <cc:Work>
        <dc:format>image/svg+xml</dc:format>
        <dc:type rdf:resource="http://purl.org/dc/dcmitype/StillImage"/>
        <cc:license rdf:resource="http://creativecommons.org/licenses/publicdomain/"/>
        <dc:publisher>
          <cc:Agent rdf:about="http://openclipart.org/">
            <dc:title>Open Clip Art Library</dc:title>
          </cc:Agent>
        </dc:publisher>
        <dc:title>Comic characters: Older</dc:title>
        <dc:date>2009-03-05T15:48:50</dc:date>
        <dc:description>Comic characters: an old guy</dc:description>
        <dc:source>http://openclipart.org/detail/21917/comic-characters:-older-by-nicubunu</dc:source>
        <dc:creator>
          <cc:Agent>
            <dc:title>nicubunu</dc:title>
          </cc:Agent>
        </dc:creator>
        <dc:subject>
          <rdf:Bag>
            <rdf:li>cartoon</rdf:li>
            <rdf:li>cartoon</rdf:li>
            <rdf:li>character</rdf:li>
            <rdf:li>character</rdf:li>
            <rdf:li>clip art</rdf:li>
            <rdf:li>clipart</rdf:li>
            <rdf:li>comic</rdf:li>
            <rdf:li>comic</rdf:li>
            <rdf:li>funny</rdf:li>
            <rdf:li>funny</rdf:li>
            <rdf:li>guy</rdf:li>
            <rdf:li>guy</rdf:li>
            <rdf:li>human</rdf:li>
            <rdf:li>human</rdf:li>
            <rdf:li>image</rdf:li>
            <rdf:li>media</rdf:li>
            <rdf:li>people</rdf:li>
            <rdf:li>people</rdf:li>
            <rdf:li>png</rdf:li>
            <rdf:li>public domain</rdf:li>
            <rdf:li>svg</rdf:li>
          </rdf:Bag>
        </dc:subject>
      </cc:Work>
      <cc:License rdf:about="http://creativecommons.org/licenses/publicdomain/">
        <cc:permits rdf:resource="http://creativecommons.org/ns#Reproduction"/>
        <cc:permits rdf:resource="http://creativecommons.org/ns#Distribution"/>
        <cc:permits rdf:resource="http://creativecommons.org/ns#DerivativeWorks"/>
      </cc:License>
    </rdf:RDF>
  </metadata>
</svg>
