<?xml version="1.0" encoding="UTF-8" standalone="no"?>
<!-- Created with Inkscape (http://www.inkscape.org/) -->
<svg xmlns:dc="http://purl.org/dc/elements/1.1/" xmlns:cc="http://creativecommons.org/ns#" xmlns:rdf="http://www.w3.org/1999/02/22-rdf-syntax-ns#" xmlns:svg="http://www.w3.org/2000/svg" xmlns="http://www.w3.org/2000/svg" xmlns:sodipodi="http://sodipodi.sourceforge.net/DTD/sodipodi-0.dtd" xmlns:inkscape="http://www.inkscape.org/namespaces/inkscape" width="128" height="128" id="svg2" sodipodi:version="0.32" inkscape:version="0.46" version="1.0" sodipodi:docname="rtfm1.svg" inkscape:output_extension="org.inkscape.output.svg.inkscape">
  <defs id="defs4">
    <filter inkscape:collect="always" id="filter3443" x="-0.12513924" width="1.2502785" y="-0.32663372" height="1.6532674">
      <feGaussianBlur inkscape:collect="always" stdDeviation="1.9634296" id="feGaussianBlur3445"/>
    </filter>
  </defs>
  <sodipodi:namedview id="base" pagecolor="#ffffff" bordercolor="#666666" borderopacity="1.0" gridtolerance="10000" guidetolerance="10" objecttolerance="10" inkscape:pageopacity="0.0" inkscape:pageshadow="2" inkscape:zoom="1" inkscape:cx="140.30667" inkscape:cy="94.710678" inkscape:document-units="px" inkscape:current-layer="layer1" showgrid="false" inkscape:window-width="1538" inkscape:window-height="961" inkscape:window-x="21" inkscape:window-y="39"/>
  <g inkscape:label="Layer 1" inkscape:groupmode="layer" id="layer1">
    <g id="g3779" transform="translate(-101,-22)"/>
    <path id="path2866" d="M 68.96309,32.631393 C 67.44213,33.057613 71.57915,37.73894 72.13746,38.71814 C 73.00291,40.23603 76.62893,41.80516 78.08956,42.92496 C 79.33017,43.87608 82.89194,41.64431 83.78163,40.96272 C 85.2789,39.81565 87.5003,40.18541 88.49354,40.74384 C 91.59286,42.48634 89.15365,39.35365 88.16618,38.26536 C 87.39061,37.41061 84.74502,36.70976 83.56274,36.25081 C 81.55296,35.47063 80.81278,34.131103 79.01355,33.119543 C 77.29643,32.154137 75.68307,32.584143 73.8658,33.093393 C 72.73057,33.411513 70.42916,32.520023 68.96309,32.631393 z" style="fill:#28170b;fill-rule:evenodd;stroke:#120a04;stroke-width:1px;stroke-linecap:butt;stroke-linejoin:miter;stroke-opacity:1"/>
    <path id="path2812" d="M 51.83461,111.98332 C 49.96259,112.58873 45.72102,111.34443 42.93954,110.64906 C 40.58305,110.05994 38.21218,111.8184 37.15775,112.87283 C 35.74444,114.28614 35.43235,117.09008 35.82349,118.65462 C 36.65543,121.98239 41.20584,121.75883 43.3843,121.32314 C 45.39206,120.92159 47.62858,122.60659 49.61084,123.10215 C 51.88717,123.67124 58.12376,122.74166 60.97689,122.74166 C 63.8767,122.74166 72.16085,125.43009 75.0377,123.99166 C 77.26879,122.87612 79.32841,123.21977 81.26425,121.76789 C 82.77661,120.63362 83.49065,118.64406 83.93277,116.87561 C 84.7166,113.74028 82.05614,113.26877 80.37474,112.42808 C 78.21374,111.34758 74.46837,112.01447 72.81393,112.42808 C 71.04065,112.8714 58.74791,110.20431 56.28214,110.20431 C 54.28279,110.20431 55.22272,111.98332 51.83461,111.98332 z" style="fill:#000000;fill-opacity:0.72839505;fill-rule:evenodd;stroke:none;stroke-width:1px;stroke-linecap:butt;stroke-linejoin:miter;stroke-opacity:1;filter:url(#filter3443)" sodipodi:nodetypes="cssssssssssssc"/>
    <path sodipodi:nodetypes="cccccccc" id="path2818" d="M 71.04066,110.14166 C 73.39591,111.78015 77.09775,112.91245 79.3336,115.30015 C 79.65257,116.24283 79.51396,117.27295 79.51951,118.25895 C 79.22521,119.52704 78.37353,120.25056 77.33528,120.93892 C 74.67021,121.62513 71.91823,120.52159 69.378,119.73583 C 67.10848,119.3878 64.48259,118.54919 63.09968,116.62483 C 60.91664,114.04226 61.5842,111.91248 62.21589,108.74751 C 65.14475,109.3191 68.07765,109.79309 71.04066,110.14166 z" style="fill:#e6e6e6;fill-rule:evenodd;stroke:#333333;stroke-width:1px;stroke-linecap:butt;stroke-linejoin:miter;stroke-opacity:1"/>
    <path sodipodi:nodetypes="ccccccccc" id="path2820" d="M 66.54434,86.91032 C 68.72148,89.63478 68.50644,90.70744 71.36909,95.09598 C 70.8504,97.64129 71.81486,100.07827 71.99409,102.59598 C 71.479,104.80473 72.13072,108.29408 70.61909,109.84598 C 67.9891,111.83375 63.95429,111.74081 62.49409,109.22098 C 62.74435,108.21995 62.55392,107.62304 62.99409,106.59598 C 64.28017,103.85684 63.67106,100.73187 63.24409,97.84598 C 63.18637,94.05505 59.11791,91.27382 59.26033,87.47986 C 61.4277,86.67899 65.17626,85.31423 66.54434,86.91032 z" style="fill:#00325c;fill-opacity:1;fill-rule:evenodd;stroke:#00192e;stroke-width:1px;stroke-linecap:butt;stroke-linejoin:miter;stroke-opacity:1"/>
    <path sodipodi:nodetypes="ccc" id="path2824" d="M 78.69332,119.22973 C 75.50806,119.5305 72.09595,119.47852 69.79915,118.24187 C 66.94869,117.51797 64.43671,116.61369 62.10748,113.45164" style="fill:none;fill-rule:evenodd;stroke:#333333;stroke-width:1px;stroke-linecap:butt;stroke-linejoin:miter;stroke-opacity:1"/>
    <g id="g2845" transform="translate(-43,-65)">
      <g id="g2839">
        <g id="g2834">
          <path style="fill:#e6e6e6;fill-rule:evenodd;stroke:#333333;stroke-width:1px;stroke-linecap:butt;stroke-linejoin:miter;stroke-opacity:1" d="M 91.60174,176.09096 C 88.42592,176.71509 85.81277,177.31198 83.11646,179.27294 C 82.5163,179.99187 82.54353,180.68568 82.58613,181.57104 C 82.82342,182.33508 83.0968,183.08341 83.29323,183.86914 C 86.04536,184.12614 89.08559,185.77461 91.95966,184.84921 C 94.97836,184.88778 98.02951,183.83077 100.52896,182.01298 C 101.10645,180.30345 100.48659,177.98557 100.35218,176.09096 C 97.5682,176.96581 94.40353,176.82408 91.60174,176.09096 z" id="path2814" sodipodi:nodetypes="cccccccc"/>
          <path style="fill:none;fill-rule:evenodd;stroke:#333333;stroke-width:1px;stroke-linecap:butt;stroke-linejoin:miter;stroke-opacity:1" d="M 83.29323,182.36653 C 86.54463,181.81031 89.79462,183.94392 93.18002,183.4906 C 96.32375,183.3866 97.9551,181.10188 100.2638,180.95232" id="path2816" sodipodi:nodetypes="ccc"/>
          <path id="path2822" d="M 95.076274,151.87111 C 94.931114,152.65014 91.888547,157.50139 92.153177,158.82453 C 93.096637,161.6196 91.98976,163.87711 91.29074,166.72098 C 91.30667,169.51064 90.41852,174.17055 92.41574,176.22098 C 95.26131,177.34799 98.12205,178.06625 100.54074,175.59598 C 99.29521,171.7442 100.0811,168.0558 100.67462,164.0442 C 100.7035,160.24373 103.56435,157.49833 103.42094,153.67809 C 101.25357,152.87722 96.444354,150.27502 95.076274,151.87111 z" style="fill:#00325c;fill-opacity:1;fill-rule:evenodd;stroke:#00192e;stroke-width:1px;stroke-linecap:butt;stroke-linejoin:miter;stroke-opacity:1" sodipodi:nodetypes="cccccccc"/>
        </g>
      </g>
    </g>
    <path sodipodi:nodetypes="cccccccccccc" id="path2794" d="M 74.97547,91.60111 C 72.17036,88.13985 73.71496,82.1452 74.07274,78.18124 C 72.84461,73.22419 74.37916,68.33918 73.32642,63.38377 C 72.86065,60.27801 75.72275,57.4084 74.16221,54.70027 C 72.37794,52.2872 67.87,51.16424 64.84115,51.00942 C 60.9552,51.57859 57.03257,51.05412 53.17388,51.8933 C 50.32659,53.13218 45.36423,54.05934 45.04736,57.13225 C 44.90983,59.90618 47.803347,64.32371 46.517027,66.82831 C 46.129877,71.2797 44.808437,76.30819 45.434927,80.77223 C 46.329397,85.96561 44.795191,88.1276 45.370581,93.30714 C 49.852461,90.74134 55.10434,93.27693 60.19317,92.70726 C 64.46131,91.18144 72.3275,94.8375 74.97547,91.60111 z" style="fill:#1a1a1a;fill-opacity:1;fill-rule:evenodd;stroke:#000000;stroke-width:1px;stroke-linecap:butt;stroke-linejoin:miter;stroke-opacity:1"/>
    <path sodipodi:nodetypes="ccccc" id="path2792" d="M 54.807265,55.16537 C 55.463587,60.02437 64.19555,60.5012 68.15665,56.94273 C 67.53071,54.25395 67.36352,51.16051 65.05711,49.29303 C 62.9077,48.52805 60.62211,48.6442 58.37766,48.76809 C 56.377825,49.69526 54.822491,53.38129 54.807265,55.16537 z" style="fill:#e9d2af;fill-opacity:1;fill-rule:evenodd;stroke:#3f2d10;stroke-width:1px;stroke-linecap:butt;stroke-linejoin:miter;stroke-opacity:1"/>
    <path style="fill:#e9d2af;fill-opacity:1;fill-rule:evenodd;stroke:#3f2d10;stroke-width:0.99999994px;stroke-linecap:butt;stroke-linejoin:miter;stroke-opacity:1" d="M 46.279811,17.54233 C 44.870609,22.342799 46.913205,27.996141 48.171351,32.697981 C 46.348077,38.55211 46.585202,43.88926 52.137545,48.55944 C 58.56249,50.64797 72.29241,51.61406 74.49179,42.56941 C 75.85831,31.191961 73.37862,37.74454 75.96472,28.240264 C 76.81956,15.926762 72.45061,7.580092 60.87502,8.474709 C 52.873213,8.212589 49.438815,12.339288 46.279811,17.54233 z" id="path2649" sodipodi:nodetypes="ccccccc"/>
    <path style="fill:#28170b;fill-opacity:1;fill-rule:evenodd;stroke:#120a04;stroke-width:0.99999994px;stroke-linecap:butt;stroke-linejoin:miter;stroke-opacity:1" d="M 61.35922,35.14105 C 55.798159,34.829476 52.929596,38.11407 49.750161,40.08381 C 49.210837,40.26385 48.835315,40.99259 48.414983,41.48351 C 46.73506,44.99785 49.173912,48.82571 52.316767,51.01212 C 54.949604,52.54043 57.63204,53.04311 60.51999,52.54082 C 63.25057,52.05471 66.22093,52.1906 68.631,50.89424 C 72.61468,50.30905 73.99963,48.14022 74.46838,44.2492 C 74.293,41.60128 72.99321,38.46467 70.73158,37.16574 C 67.78506,36.3319 64.42272,34.631876 61.35922,35.14105 z M 60.58544,38.50974 C 62.40061,39.03526 65.92652,40.1016 67.32826,41.27836 C 67.89119,43.60009 66.79169,45.91055 64.39635,45.63074 C 62.84007,43.75412 59.72621,44.21477 57.97789,45.9743 C 55.892404,46.34645 55.019906,43.86486 55.073237,42.1281 C 55.750047,40.30285 59.00639,39.48378 60.58544,38.50974 z" id="path2654" sodipodi:nodetypes="ccccccccccccccc"/>
    <path style="fill:#28170b;fill-opacity:1;fill-rule:evenodd;stroke:#120a04;stroke-width:0.99999994px;stroke-linecap:butt;stroke-linejoin:miter;stroke-opacity:1" d="M 60.91255,14.61335 C 65.39414,13.58335 64.65798,12.517133 65.79884,11.12303 C 74.55433,10.260836 74.9288,18.796936 73.93719,22.28325 C 75.59356,20.788842 74.72244,20.033859 76.76839,21.475248 C 77.2381,21.877758 76.88297,25.535862 76.80262,26.010154 C 76.71811,26.508977 74.94147,32.873173 75.31483,33.025207 C 79.79244,30.307876 80.60462,18.370776 75.83039,11.833845 C 72.30757,7.010352 66.09762,5.086169 60.75316,6.896201 C 45.380862,3.719525 40.018896,22.868585 47.577231,36.06765 C 48.458557,33.081851 45.944231,27.084485 47.054145,23.834191 C 47.977832,23.011247 48.220717,24.638304 49.414936,24.509889 C 45.396519,16.377879 49.809449,11.983032 55.192453,11.136528 C 56.574666,9.912975 56.543828,14.178157 60.91255,14.61335 z" id="path2665" sodipodi:nodetypes="ccccscscccccc"/>
    <path sodipodi:nodetypes="cccc" id="path2696" d="M 64.49076,24.269019 C 63.07539,27.244483 64.10304,29.019864 67.03496,28.634947 C 67.92686,29.045375 69.835,26.884764 69.42942,25.424136 C 69.81557,21.525844 66.43296,21.385098 64.49076,24.269019 z" style="fill:#ffffff;fill-rule:evenodd;stroke:#333333;stroke-width:1px;stroke-linecap:butt;stroke-linejoin:miter;stroke-opacity:1"/>
    <path sodipodi:nodetypes="ccc" id="path2698" d="M 56.577746,22.137765 C 53.985862,22.623514 52.743826,24.40089 53.202576,27.082583 C 56.10176,32.149182 61.89264,25.024319 56.577746,22.137765 z" style="fill:#ffffff;fill-rule:evenodd;stroke:#333333;stroke-width:0.99999994px;stroke-linecap:butt;stroke-linejoin:miter;stroke-opacity:1"/>
    <path sodipodi:nodetypes="cssc" id="path2700" d="M 67.47167,25.263282 C 67.99724,25.283145 66.86225,23.214723 65.52585,24.737664 C 64.49003,25.918068 65.56959,27.518906 66.32841,27.652544 C 67.85247,27.92095 68.12632,25.4736 67.47167,25.263282 z" style="fill:#000000;fill-rule:evenodd;stroke:#000000;stroke-width:1px;stroke-linecap:butt;stroke-linejoin:miter;stroke-opacity:1"/>
    <path sodipodi:nodetypes="cssc" id="path2702" d="M 55.352561,24.453592 C 55.825539,23.51258 53.178805,24.229925 53.819666,26.428492 C 54.261955,27.945815 55.93446,27.044513 56.061083,26.965662 C 57.75917,25.908258 56.446304,23.119267 55.352561,24.453592 z" style="fill:#000000;fill-rule:evenodd;stroke:#000000;stroke-width:1px;stroke-linecap:butt;stroke-linejoin:miter;stroke-opacity:1"/>
    <path sodipodi:nodetypes="ccc" id="path2704" d="M 59.30389,27.964012 C 58.16616,30.133429 54.916382,35.33316 59.9338,35.22544 C 64.61638,35.21461 62.18913,29.907528 62.05559,27.884542" style="fill:#e9d2af;fill-opacity:1;fill-rule:evenodd;stroke:#3f2d10;stroke-width:1px;stroke-linecap:butt;stroke-linejoin:miter;stroke-opacity:1"/>
    <path sodipodi:nodetypes="cc" id="path2706" d="M 58.22219,41.74089 C 59.18013,42.16594 61.91763,41.99341 63.59645,41.82985" style="fill:none;fill-rule:evenodd;stroke:#3f2d10;stroke-width:1px;stroke-linecap:butt;stroke-linejoin:miter;stroke-opacity:1"/>
    <path sodipodi:nodetypes="cc" id="path2708" d="M 75.25474,22.661411 C 82.66808,19.704179 79.59176,29.838346 75.4054,28.664726" style="fill:#e9d2af;fill-opacity:1;fill-rule:evenodd;stroke:#3f2d10;stroke-width:1px;stroke-linecap:butt;stroke-linejoin:miter;stroke-opacity:1"/>
    <path sodipodi:nodetypes="cs" id="path2710" d="M 76.22978,24.177755 C 78.35734,22.594817 79.17113,25.781446 76.05514,27.175276" style="fill:#e9d2af;fill-opacity:1;fill-rule:evenodd;stroke:#3f2d10;stroke-width:1px;stroke-linecap:butt;stroke-linejoin:miter;stroke-opacity:1"/>
    <path style="fill:#e9d2af;fill-opacity:1;fill-rule:evenodd;stroke:#3f2d10;stroke-width:1px;stroke-linecap:butt;stroke-linejoin:miter;stroke-opacity:1" d="M 47.738489,24.739241 C 39.991532,22.818965 44.419082,32.439873 48.40665,30.70716" id="path2743" sodipodi:nodetypes="cc"/>
    <path style="fill:#e9d2af;fill-opacity:1;fill-rule:evenodd;stroke:#3f2d10;stroke-width:1px;stroke-linecap:butt;stroke-linejoin:miter;stroke-opacity:1" d="M 46.979,26.374227 C 44.65571,25.095725 44.283404,28.363481 47.560156,29.320052" id="path2745" sodipodi:nodetypes="cs"/>
    <path sodipodi:nodetypes="cccccccccccccccc" id="path2808" d="M 78.29074,77.72098 C 78.8437,80.9822 78.78593,84.75434 77.29074,87.72098 C 76.19311,88.85178 74.60429,87.2142 73.79074,88.84598 C 74.11591,90.25784 75.48022,90.6192 76.79074,90.97098 C 75.85152,92.82752 74.04911,94.39033 75.91574,96.47098 C 77.12633,95.84983 77.96006,94.45339 78.29074,93.22098 C 78.42781,94.65759 77.21545,97.51146 79.91574,96.34598 C 81.22693,95.36323 80.58798,93.92654 80.66574,92.47098 C 81.71428,94.09123 82.03024,96.52706 83.41574,93.72098 C 83.55502,92.46281 82.94808,91.58808 82.29074,90.59598 C 82.1197,89.32782 82.57405,87.99857 82.79074,86.72098 C 84.38424,84.02685 84.83565,81.02721 85.29074,77.97098 C 83.47634,75.58461 85.32224,72.23787 83.79074,69.84598 C 83.3638,68.77463 82.95546,67.85662 82.29074,66.97098 C 79.47609,66.16596 77.18595,66.98538 75.91574,69.59598 C 74.42111,73.04562 77.63559,74.91029 78.29074,77.72098 z" style="fill:#e9d2af;fill-opacity:1;fill-rule:evenodd;stroke:#3f2d10;stroke-width:1px;stroke-linecap:butt;stroke-linejoin:miter;stroke-opacity:1"/>
    <path sodipodi:nodetypes="ccccccc" id="path2796" d="M 70.94986,63.42952 C 71.25144,64.28807 71.77162,64.60306 72.98004,66.80943 C 74.04219,69.099 74.64758,70.51437 75.09261,72.98183 C 79.16326,71.83883 81.30497,70.3451 85.2247,68.33886 C 84.4439,66.37132 83.29227,64.46265 82.54612,62.47513 C 81.42897,59.88142 79.62915,59.29221 78.03955,57.15681 C 76.19988,55.70902 75.58313,55.22107 73.47956,54.02077" style="fill:#1a1a1a;fill-opacity:1;fill-rule:evenodd;stroke:#000000;stroke-width:0.99999994px;stroke-linecap:butt;stroke-linejoin:miter;stroke-opacity:1"/>
    <path style="fill:#e9d2af;fill-opacity:1;fill-rule:evenodd;stroke:#3f2d10;stroke-width:1px;stroke-linecap:butt;stroke-linejoin:miter;stroke-opacity:1" d="M 40.439601,77.36199 C 39.220863,80.43705 38.49332,84.13881 39.33923,87.35143 C 40.177847,88.68569 42.072344,87.41411 42.528955,89.17936 C 41.917427,90.49278 40.507804,90.56268 39.152787,90.63439 C 39.685608,92.64559 41.123817,94.54891 38.865485,96.19613 C 37.810442,95.33692 37.285175,93.79769 37.217877,92.52346 C 36.785198,93.9002 37.377893,96.94374 34.978827,95.24245 C 33.900541,94.00863 34.824157,92.73612 35.050637,91.29619 C 33.688224,92.66311 32.872869,94.98007 32.10088,91.94729 C 32.226157,90.68765 33.001657,89.95818 33.850852,89.12438 C 34.281748,87.91947 34.11361,86.52481 34.167203,85.23009 C 33.168489,82.26358 33.350422,79.23563 33.540518,76.15155 C 35.811307,74.19442 34.701352,70.53711 36.696566,68.51578 C 37.336865,67.55656 37.927098,66.74348 38.761383,66.01535 C 41.681887,65.81294 43.751692,67.09048 44.451539,69.90808 C 45.196508,73.59305 41.664654,74.74886 40.439601,77.36199 z" id="path2810" sodipodi:nodetypes="cccccccccccccccc"/>
    <path style="fill:#1a1a1a;fill-opacity:1;fill-rule:evenodd;stroke:#000000;stroke-width:0.99999994px;stroke-linecap:butt;stroke-linejoin:miter;stroke-opacity:1" d="M 47.83521,63.19361 C 47.150578,65.64383 48.245363,64.43919 46.91979,66.57723 C 45.73578,68.80623 44.376102,73.06045 43.798735,75.50035 C 39.795601,74.13963 36.544314,70.30131 32.738397,68.08673 C 33.624104,66.16412 36.002293,64.18182 36.854473,62.2374 C 38.109792,59.70767 39.346528,59.75091 41.048901,57.70428 C 42.611945,56.51248 43.055994,54.90922 46.292687,54.78515" id="path2798" sodipodi:nodetypes="ccccccc"/>
    <path style="font-size:7.68487883px;font-style:normal;font-variant:normal;font-weight:normal;font-stretch:normal;fill:#ffffff;fill-opacity:1;stroke:none;stroke-width:1px;stroke-linecap:butt;stroke-linejoin:miter;stroke-opacity:1;font-family:Rufscript;-inkscape-font-specification:Rufscript" d="M 52.943657,70.183838 C 52.817528,70.188883 52.632268,70.274063 52.738916,70.066572 C 52.734119,69.093309 52.506093,68.136035 52.495444,67.162237 C 52.483223,66.685188 52.466572,66.205295 52.503835,65.729699 C 52.643065,65.470728 52.980277,65.440679 53.23977,65.379792 C 53.780601,65.295398 54.332992,65.258472 54.879005,65.272731 C 55.148469,65.422526 55.327866,65.694539 55.501605,65.941768 C 55.729929,66.287836 55.628579,66.751479 55.356072,67.041338 C 55.043041,67.445643 54.541186,67.62597 54.194135,67.990569 C 53.934578,68.203458 54.046016,68.582596 54.324237,68.716302 C 54.675467,68.938785 55.100347,69.059727 55.373954,69.392313 C 55.526437,69.579312 55.689844,69.806071 55.675856,70.057193 C 55.433802,70.212939 54.993669,70.174067 54.82096,69.895781 C 54.599566,69.703615 54.409578,69.445655 54.170684,69.290182 C 53.916532,69.210344 53.74338,68.641932 53.450168,69.008166 C 53.292836,69.261395 53.337605,69.583754 53.313133,69.870701 C 53.344746,70.018539 53.150768,70.03495 53.062951,70.113234 C 53.023186,70.136768 52.983422,70.160303 52.943657,70.183838 z M 53.31139,67.872368 C 53.86136,67.562846 54.446548,67.259528 54.849113,66.759172 C 55.038614,66.552087 55.017932,66.200378 54.765904,66.053402 C 54.382432,65.773798 53.878358,65.854222 53.434044,65.873053 C 53.02388,65.818554 53.213006,66.338133 53.218516,66.579907 C 53.282578,67.006923 53.279075,67.441948 53.31139,67.872368 z M 57.761715,70.014977 C 57.759636,69.341934 57.804278,68.659358 57.650413,67.998168 C 57.566882,67.531282 57.485712,67.063978 57.405238,66.596557 C 57.194625,66.386981 56.839487,66.436235 56.561776,66.390037 C 56.221926,66.371845 55.758588,66.304588 55.658855,65.914445 C 55.624403,65.612425 56.142588,65.777675 56.343079,65.704548 C 57.429709,65.661998 58.523903,65.578514 59.607744,65.704837 C 59.855395,65.729014 60.321568,65.826924 60.177206,66.17459 C 59.985216,66.407405 59.638034,66.369543 59.365659,66.382683 C 59.046231,66.385886 58.726101,66.377439 58.407124,66.393928 C 58.168469,66.723225 58.342068,67.145617 58.401583,67.506762 C 58.517483,68.267317 58.536726,69.044157 58.475192,69.810531 C 58.491117,70.114847 58.28942,70.402835 57.961058,70.231031 C 57.860777,70.20495 57.755892,70.130752 57.761714,70.014977 L 57.761715,70.014977 z M 61.243923,68.405205 C 61.045266,68.604466 61.268832,68.966057 61.31364,69.21395 C 61.403481,69.518394 61.580173,69.864201 61.426852,70.174452 C 61.204568,70.417239 60.699769,70.284051 60.700584,69.92137 C 60.553732,68.9189 60.522715,67.903387 60.466189,66.892844 C 60.465928,66.567702 60.415473,66.231748 60.489696,65.913623 C 60.822063,65.596007 61.314331,65.557661 61.74711,65.49236 C 62.165458,65.460583 62.608769,65.385386 63.011706,65.535237 C 63.165481,65.714055 63.524102,65.98639 63.424761,66.228591 C 62.778318,66.177554 62.111855,66.046499 61.469184,66.205578 C 61.128212,66.296662 61.22058,66.7446 61.212966,67.012136 C 61.178337,67.342462 61.341585,67.753305 61.733083,67.731711 C 62.171852,67.762769 62.62046,67.47436 63.04788,67.668802 C 63.414963,67.894201 63.06372,68.305486 62.743626,68.310475 C 62.253087,68.420477 61.743996,68.419796 61.243925,68.405205 L 61.243923,68.405205 z M 67.562935,71.178215 C 67.442136,70.79724 67.472795,70.385082 67.448901,69.989249 C 67.411537,68.697613 67.487836,67.40445 67.427381,66.113556 C 67.362273,66.052345 67.185659,66.416642 67.078673,66.512246 C 66.794007,66.870462 66.427821,67.178787 66.073241,67.448347 C 66.232987,67.605081 66.689956,67.790376 66.576996,68.03372 C 66.352244,68.358173 65.969414,68.233416 65.797968,67.936392 C 65.322218,67.455785 64.852942,66.967941 64.362152,66.502747 C 64.430639,67.640291 64.511352,68.778538 64.52163,69.918353 C 64.532217,70.23051 64.064274,70.416707 63.863497,70.182544 C 63.702119,69.908061 63.766357,69.569297 63.732416,69.26521 C 63.708579,68.226943 63.688255,67.187634 63.713227,66.149321 C 63.712515,65.827234 64.077703,65.731046 64.336825,65.791675 C 64.659645,65.894265 64.946653,66.132164 65.073757,66.45174 C 65.210009,66.63614 65.358173,67.112651 65.627458,66.963539 C 65.992084,66.593463 66.368362,66.233549 66.725685,65.857104 C 66.899277,65.617754 67.189334,65.434917 67.216662,65.116771 C 67.367237,64.898283 67.904196,64.850469 67.912608,65.20466 C 67.987243,65.868897 67.979713,66.539619 68.045758,67.204739 C 68.099375,68.233509 68.072475,69.267508 68.18208,70.292653 C 68.251722,70.563303 68.319414,70.899742 68.026707,71.071419 C 67.911615,71.165111 67.693206,71.352213 67.562937,71.178215 L 67.562935,71.178215 z" id="text2618"/>
  </g>
  <metadata>
    <rdf:RDF>
      <cc:Work>
        <dc:format>image/svg+xml</dc:format>
        <dc:type rdf:resource="http://purl.org/dc/dcmitype/StillImage"/>
        <cc:license rdf:resource="http://creativecommons.org/licenses/publicdomain/"/>
        <dc:publisher>
          <cc:Agent rdf:about="http://openclipart.org/">
            <dc:title>Open Clip Art Library</dc:title>
          </cc:Agent>
        </dc:publisher>
        <dc:title>Comic characters: Front</dc:title>
        <dc:date>2009-03-05T14:19:45</dc:date>
        <dc:description>Comic characters: a bearded guy, frontal view</dc:description>
        <dc:source>http://openclipart.org/detail/21874/comic-characters:-front-by-nicubunu</dc:source>
        <dc:creator>
          <cc:Agent>
            <dc:title>nicubunu</dc:title>
          </cc:Agent>
        </dc:creator>
        <dc:subject>
          <rdf:Bag>
            <rdf:li>cartoon</rdf:li>
            <rdf:li>cartoon</rdf:li>
            <rdf:li>character</rdf:li>
            <rdf:li>character</rdf:li>
            <rdf:li>clip art</rdf:li>
            <rdf:li>clipart</rdf:li>
            <rdf:li>comic</rdf:li>
            <rdf:li>comic</rdf:li>
            <rdf:li>funny</rdf:li>
            <rdf:li>funny</rdf:li>
            <rdf:li>guy</rdf:li>
            <rdf:li>guy</rdf:li>
            <rdf:li>human</rdf:li>
            <rdf:li>human</rdf:li>
            <rdf:li>image</rdf:li>
            <rdf:li>media</rdf:li>
            <rdf:li>people</rdf:li>
            <rdf:li>people</rdf:li>
            <rdf:li>png</rdf:li>
            <rdf:li>public domain</rdf:li>
            <rdf:li>svg</rdf:li>
          </rdf:Bag>
        </dc:subject>
      </cc:Work>
      <cc:License rdf:about="http://creativecommons.org/licenses/publicdomain/">
        <cc:permits rdf:resource="http://creativecommons.org/ns#Reproduction"/>
        <cc:permits rdf:resource="http://creativecommons.org/ns#Distribution"/>
        <cc:permits rdf:resource="http://creativecommons.org/ns#DerivativeWorks"/>
      </cc:License>
    </rdf:RDF>
  </metadata>
</svg>