<?xml version="1.0" encoding="UTF-8" standalone="no"?>
<!-- Created with Inkscape (http://www.inkscape.org/) -->
<svg xmlns:dc="http://purl.org/dc/elements/1.1/" xmlns:cc="http://creativecommons.org/ns#" xmlns:rdf="http://www.w3.org/1999/02/22-rdf-syntax-ns#" xmlns:svg="http://www.w3.org/2000/svg" xmlns="http://www.w3.org/2000/svg" xmlns:sodipodi="http://sodipodi.sourceforge.net/DTD/sodipodi-0.dtd" xmlns:inkscape="http://www.inkscape.org/namespaces/inkscape" width="128" height="128" id="svg2" sodipodi:version="0.32" inkscape:version="0.46" version="1.0" sodipodi:docname="countdown-15.svg" inkscape:output_extension="org.inkscape.output.svg.inkscape">
  <defs id="defs4">
    <filter inkscape:collect="always" id="filter3443" x="-0.12513924" width="1.2502785" y="-0.32663372" height="1.6532674">
      <feGaussianBlur inkscape:collect="always" stdDeviation="1.9634296" id="feGaussianBlur3445"/>
    </filter>
  </defs>
  <sodipodi:namedview id="base" pagecolor="#ffffff" bordercolor="#666666" borderopacity="1.0" gridtolerance="10000" guidetolerance="10" objecttolerance="10" inkscape:pageopacity="0.0" inkscape:pageshadow="2" inkscape:zoom="1" inkscape:cx="64" inkscape:cy="64" inkscape:document-units="px" inkscape:current-layer="layer1" showgrid="false" inkscape:window-width="1538" inkscape:window-height="961" inkscape:window-x="127" inkscape:window-y="31"/>
  <g inkscape:label="Layer 1" inkscape:groupmode="layer" id="layer1">
    <path style="fill:#e9d2af;fill-opacity:1;fill-rule:evenodd;stroke:#3f2d10;stroke-width:0.99999994px;stroke-linecap:butt;stroke-linejoin:miter;stroke-opacity:1" d="M 69.72945,68.102142 C 66.54912,69.011453 62.79363,69.370126 59.68017,68.211287 C 58.43519,67.245086 59.88752,65.485335 58.17597,64.85674 C 56.8086,65.335669 56.59993,66.731494 56.39485,68.072828 C 54.44604,67.344125 52.69395,65.725099 50.83189,67.809854 C 51.58279,68.944538 53.06267,69.619144 54.32403,69.811862 C 52.91131,70.106563 49.94112,69.216395 51.39735,71.771651 C 52.51874,72.966439 53.87618,72.17292 55.33143,72.089641 C 53.83673,73.310505 51.45062,73.893224 54.3924,74.960744 C 55.65826,74.96039 56.4607,74.260667 57.37424,73.49791 C 58.6158,73.188018 59.98705,73.492982 61.28075,73.567423 C 64.1342,74.854022 67.16533,74.971798 70.25311,75.086994 C 72.42479,73.020439 75.95471,74.485916 78.16306,72.699916 C 79.1808,72.157413 80.04816,71.650302 80.85507,70.891954 C 81.34471,68.005675 80.27767,65.81989 77.5429,64.845393 C 73.94945,63.740403 72.45073,67.140954 69.72945,68.102142 z" id="path2512" sodipodi:nodetypes="cccccccccccccccc"/>
    <path style="fill:#000000;fill-opacity:0.72839505;fill-rule:evenodd;stroke:none;stroke-width:1px;stroke-linecap:butt;stroke-linejoin:miter;stroke-opacity:1;filter:url(#filter3443)" d="M 25.75,108.25 C 22.06153,110.34586 17.35467,108.43047 14.75,112 C 13.38315,115.35883 14.79652,116.60396 18,117.5 C 20.44575,118.11144 22.15224,118.75 25,118.75 C 31.26115,117.04747 37.46795,118.95496 43.75,119 C 49.80573,118.26373 55.73062,119.29537 61.75,119.25 C 63.12786,119.25 64.70208,119.54077 65.875,118.9375 C 68.12384,120.20421 70.6961,120.02115 74.03125,121.15625 C 76.30758,121.72534 78.27187,122.0625 81.125,122.0625 C 84.0248,122.0625 85.81065,123.50093 88.6875,122.0625 C 90.91859,120.94696 92.97041,121.29563 94.90625,119.84375 C 96.41861,118.70948 97.15163,116.70595 97.59375,114.9375 C 98.37758,111.80217 95.71265,111.34069 94.03125,110.5 C 91.87025,109.4195 88.12319,110.08639 86.46875,110.5 C 84.69547,110.94332 83.15327,108.25 80.6875,108.25 C 78.68816,108.25 79.63811,110.03125 76.25,110.03125 C 71.45216,110.40208 69.80127,107.62915 66.3125,109.75 C 55.01361,110.92119 35.58537,106.3314 25.75,108.25 z" id="path3018" sodipodi:nodetypes="ccccccccsssssssccc"/>
    <path sodipodi:nodetypes="ccccccccccccc" id="path2544" d="M 24.78661,116.06694 C 30.62023,116.95448 36.65832,116.00367 42.75,115.75 C 50.02123,115.46277 57.23923,114.83245 64.5,114.5 C 66.40883,114.5 66.75,114.67505 66.75,112.75 C 64.88235,105.07438 63.85821,97.54147 65.28033,89.603553 C 66.40824,83.930229 65.76643,77.976168 64,72.5 C 60.08403,71.408443 58.87821,67.95174 54.97056,67.217514 C 50.82009,67.217514 41.24509,66.108877 37.34404,66.889087 C 31.15282,67.676184 24.11303,67.046312 17.88693,66.71231 C 15.7388,66.71231 15.28308,67.035232 16.66726,68.419417 C 17.28545,74.88273 15.37452,81.646271 16.69759,89.078427 C 18.84451,96.148307 16.79543,103.62141 17.8566,110.82843 C 18.69138,113.06836 22.93411,115.61097 24.78661,116.06694 z" style="fill:#cccccc;fill-rule:evenodd;stroke:none;stroke-width:1px;stroke-linecap:butt;stroke-linejoin:miter;stroke-opacity:1"/>
    <path style="fill:#999999;fill-rule:evenodd;stroke:none;stroke-width:1px;stroke-linecap:butt;stroke-linejoin:miter;stroke-opacity:1" d="M 24.78661,116.06694 C 30.62023,116.95448 36.65832,116.00367 42.75,115.75 C 50.02123,115.46277 57.23923,114.83245 64.5,114.5 C 66.40883,114.5 66.75,114.67505 66.75,112.75 C 64.88235,105.07438 63.85821,97.54147 65.28033,89.603553 C 66.40824,83.930229 65.76643,77.976168 64,72.5 C 61.70903,73.533443 59.75321,75.07674 55.84556,74.342514 C 51.69509,74.342514 42.99509,72.608877 39.09404,73.389087 C 32.90282,74.176184 31.23803,73.546312 25.01193,73.21231 C 22.8638,73.21231 23.40808,75.910232 24.79226,77.294417 C 25.41045,83.75773 23.24952,86.646271 24.57259,94.078427 C 26.71951,101.14831 23.92043,99.87141 24.9816,107.07843 C 25.81638,109.31836 22.93411,115.61097 24.78661,116.06694 z" id="path2501" sodipodi:nodetypes="ccccccccccccc"/>
    <g id="g3779" transform="translate(-101,-22)"/>
    <path sodipodi:nodetypes="cccccccc" id="path3006" d="M 84.94154,106.47247 C 82.2234,107.39092 78.35269,107.44849 75.54076,109.11979 C 74.9721,109.93649 74.8186,110.9645 74.53892,111.91002 C 74.46877,113.20992 75.0855,114.14184 75.89122,115.09191 C 78.26011,116.49255 81.21047,116.19832 83.86902,116.15039 C 86.14575,116.44759 88.90129,116.37273 90.76503,114.90915 C 93.58045,113.03598 93.53185,110.80456 93.80574,107.58881 C 90.83349,107.32289 87.88452,106.9621 84.94154,106.47247 z" style="fill:#e6e6e6;fill-rule:evenodd;stroke:#333333;stroke-width:1px;stroke-linecap:butt;stroke-linejoin:miter;stroke-opacity:1"/>
    <path sodipodi:nodetypes="cscccccccc" id="path3008" d="M 85.01246,85.47097 C 84.8673,86.25 84.12283,88.27283 84.38746,89.59597 C 84.59076,90.61246 84.89526,91.62715 85.13746,92.59597 C 85.65615,95.14128 84.69169,97.57826 84.51246,100.09597 C 85.02755,102.30472 84.37583,105.79407 85.88746,107.34597 C 88.51745,109.33374 92.55226,109.2408 94.01246,106.72097 C 93.7622,105.71994 93.95263,105.12303 93.51246,104.09597 C 92.22638,101.35683 92.83549,98.23186 93.26246,95.34597 C 93.32018,91.55504 100.57062,87.71315 100.4282,83.91919 C 98.26083,83.11832 86.38054,83.87488 85.01246,85.47097 z" style="fill:#00325c;fill-opacity:1;fill-rule:evenodd;stroke:#00192e;stroke-width:1px;stroke-linecap:butt;stroke-linejoin:miter;stroke-opacity:1"/>
    <path sodipodi:nodetypes="ccc" id="path3010" d="M 75.06237,113.07235 C 78.03817,114.24752 81.32999,115.14699 83.88018,114.59825 C 86.8195,114.69605 89.4839,114.52643 92.60097,112.13735" style="fill:none;fill-rule:evenodd;stroke:#333333;stroke-width:1px;stroke-linecap:butt;stroke-linejoin:miter;stroke-opacity:1"/>
    <path style="fill:#e6e6e6;fill-rule:evenodd;stroke:#333333;stroke-width:1px;stroke-linecap:butt;stroke-linejoin:miter;stroke-opacity:1" d="M 79.52712,108.35029 C 76.90581,109.51673 73.0571,109.93282 70.41219,111.85756 C 69.92167,112.72346 69.86412,113.76127 69.67328,114.72864 C 69.72392,116.02945 70.42437,116.9002 71.31468,117.77149 C 73.8032,118.94654 76.71359,118.3801 79.35625,118.08596 C 81.65073,118.17086 84.38746,117.84092 86.10752,116.21089 C 88.7372,114.08482 88.48198,111.86751 88.45663,108.64022 C 85.47253,108.65094 82.50282,108.56503 79.52712,108.35029 z" id="path3012" sodipodi:nodetypes="cccccccc"/>
    <path style="fill:#00325c;fill-opacity:1;fill-rule:evenodd;stroke:#00192e;stroke-width:1px;stroke-linecap:butt;stroke-linejoin:miter;stroke-opacity:1" d="M 82.53759,84.76386 C 82.39243,85.54289 78.46598,89.15671 78.73061,90.47985 C 78.93391,91.49634 79.23841,92.51103 79.48061,93.47985 C 79.9993,96.02516 79.03484,98.46214 78.85561,100.97985 C 79.3707,103.1886 78.71898,106.67795 80.23061,108.22985 C 82.8606,110.21762 86.89541,110.12468 88.35561,107.60485 C 88.10535,106.60382 88.29578,106.00691 87.85561,104.97985 C 86.56953,102.24071 87.17864,99.11574 87.60561,96.22985 C 87.66333,92.43892 98.62608,87.00604 98.48366,83.21208 C 96.31629,82.41121 83.90567,83.16777 82.53759,84.76386 z" id="path3014" sodipodi:nodetypes="cscccccccc"/>
    <path style="fill:none;fill-rule:evenodd;stroke:#333333;stroke-width:1px;stroke-linecap:butt;stroke-linejoin:miter;stroke-opacity:1" d="M 70.30222,115.83745 C 73.37412,116.73174 76.73515,117.32222 79.2235,116.53947 C 82.15923,116.36441 84.79643,115.94856 87.67865,113.28084" id="path3016" sodipodi:nodetypes="ccc"/>
    <path sodipodi:nodetypes="ccccccccc" id="path2964" d="M 72.17127,9.184676 C 61.96017,11.410359 59.434,19.04279 61.25923,27.824825 C 61.66952,29.655571 63.3232,33.069014 64.18356,34.782012 C 64.77315,38.402455 64.49297,41.300841 66.32922,44.552316 C 68.66149,49.211788 71.8537,50.349012 76.86625,50.343141 C 81.08561,49.310141 83.12179,46.255258 85.63404,42.581024 C 89.34782,37.840592 93.35315,32.320908 93.79239,26.440893 C 93.20858,21.049136 89.53308,16.604336 86.94049,12.034248 C 83.65797,7.1331334 77.08806,7.2938255 72.17127,9.184676 z" style="fill:#e9d2af;fill-opacity:1;fill-rule:evenodd;stroke:#3f2d10;stroke-width:1px;stroke-linecap:butt;stroke-linejoin:miter;stroke-opacity:1"/>
    <path sodipodi:nodetypes="cccc" id="path2966" d="M 62.86476,30.277408 C 62.47388,32.692106 60.15211,33.838117 58.91361,35.068119 C 58.30182,37.749334 58.70537,39.664295 61.70442,39.03975 C 63.79427,38.042635 64.62068,36.415674 64.90561,34.256712" style="fill:#e9d2af;fill-opacity:1;fill-rule:evenodd;stroke:#3f2d10;stroke-width:1px;stroke-linecap:butt;stroke-linejoin:miter;stroke-opacity:1"/>
    <path sodipodi:nodetypes="cccc" id="path2968" d="M 63.4503,25.293436 C 62.77315,28.518049 64.18894,30.002498 66.94851,28.939913 C 67.91184,29.129445 69.25932,26.581199 68.52211,25.256637 C 67.98212,21.376663 64.66104,22.034103 63.4503,25.293436 z" style="fill:#ffffff;fill-rule:evenodd;stroke:#333333;stroke-width:1px;stroke-linecap:butt;stroke-linejoin:miter;stroke-opacity:1"/>
    <path sodipodi:nodetypes="cssc" id="path2974" d="M 65.27537,26.714163 C 65.57456,26.281616 63.22026,26.127209 63.78642,28.072657 C 64.22523,29.580543 66.15541,29.530417 66.6759,28.962302 C 67.72129,27.821269 65.80454,26.27511 65.27537,26.714163 z" style="fill:#000000;fill-rule:evenodd;stroke:#000000;stroke-width:1px;stroke-linecap:butt;stroke-linejoin:miter;stroke-opacity:1"/>
    <path id="path2976" d="M 95.28,26.522885 C 93.70389,26.627025 96.78915,32.05941 97.13403,33.132537 C 97.66865,34.796031 100.89422,37.077667 102.09318,38.474053 C 103.11154,39.660093 107.05631,38.208943 108.06721,37.725006 C 109.76846,36.91055 111.86625,37.729478 112.72332,38.480325 C 115.39779,40.823263 113.65535,37.255705 112.91294,35.987518 C 112.32984,34.99147 109.88506,33.761266 108.82252,33.068872 C 107.01628,31.891854 106.56756,30.428692 105.01497,29.068566 C 103.53324,27.770501 101.86591,27.859346 99.98275,27.983776 C 98.80635,28.061502 96.73761,26.715553 95.28,26.522885 z" style="fill:#28170b;fill-rule:evenodd;stroke:#120a04;stroke-width:1px;stroke-linecap:butt;stroke-linejoin:miter;stroke-opacity:1"/>
    <path sodipodi:nodetypes="cccccccccccc" id="path2989" d="M 101.63161,89.28924 C 98.89024,86.21932 102.5848,80.04633 100.63246,76.40785 C 100.19367,70.30741 97.43957,62.39876 95.58305,57.6852 C 94.61085,54.69898 91.69692,54.21471 89.71064,51.80143 C 87.55241,49.7161 86.66114,49.56612 83.6483,49.91355 C 79.90967,51.11656 80.37738,50.67377 76.71023,52.13858 C 74.10658,53.8306 72.51001,56.17861 72.70489,59.26167 C 73.02728,62.02023 73.62387,64.45478 72.76877,67.1374 C 73.12195,71.59161 69.93686,76.64657 71.29185,80.94588 C 73.03157,85.92028 72.24606,87.68359 73.6688,92.69703 C 77.66549,89.4264 85.44746,92.6354 90.37237,91.23328 C 94.32998,89.02365 99.55438,92.91844 101.63161,89.28924 z" style="fill:#1a1a1a;fill-opacity:1;fill-rule:evenodd;stroke:#000000;stroke-width:1px;stroke-linecap:butt;stroke-linejoin:miter;stroke-opacity:1"/>
    <path sodipodi:nodetypes="ccccc" id="path2987" d="M 75.46303,53.53091 C 77.29863,58.07747 86.58514,56.38378 89.54509,51.95754 C 86.94575,49.17427 86.88473,45.19661 84.65294,44.0724 C 82.3812,43.86176 80.19504,44.53858 78.05065,45.21275 C 76.34161,46.60494 75.03733,51.7983 75.46303,53.53091 z" style="fill:#e9d2af;fill-opacity:1;fill-rule:evenodd;stroke:#3f2d10;stroke-width:1px;stroke-linecap:butt;stroke-linejoin:miter;stroke-opacity:1"/>
    <path style="fill:#28170b;fill-opacity:1;fill-rule:evenodd;stroke:#120a04;stroke-width:1px;stroke-linecap:butt;stroke-linejoin:miter;stroke-opacity:1" d="M 91.47096,32.188215 C 86.54811,32.326782 86.38907,35.945753 84.71914,37.928685 C 82.64142,38.937324 81.01894,40.577267 79.03832,41.731791 C 78.14455,41.932098 77.37228,42.139224 76.55416,41.936246 C 74.47464,41.380552 72.77652,39.937878 70.95922,38.834702 C 68.49883,38.284915 66.77742,38.138596 64.23753,38.707814 C 63.08597,39.95438 61.60985,40.37399 63.97505,43.538386 C 67.41717,42.860583 68.72525,41.763313 71.10424,42.196871 C 72.99269,43.172536 73.50016,45.325671 71.62409,46.659963 C 69.94703,46.72378 68.51051,47.298807 67.23621,45.657763 C 64.64138,46.493635 65.54085,48.47093 66.78657,50.081931 C 68.34502,54.207981 71.32727,54.240118 75.31941,52.717215 C 77.87191,51.803721 81.38073,51.486507 83.59413,49.967002 C 85.46118,48.110286 86.63267,46.542216 87.7436,44.136277 C 88.43286,41.017167 90.14726,39.025052 91.23353,36.309563 C 91.22231,34.602728 93.04274,33.043307 91.47096,32.188215 z" id="path2978" sodipodi:nodetypes="cccccccccccccccc"/>
    <path sodipodi:nodetypes="cccsccccc" id="path2983" d="M 59.89698,18.276122 C 57.11116,8.793357 82.64742,-0.2668582 85.72312,7.0351765 C 93.63978,5.9392757 97.9269,24.784426 93.68688,31.784149 C 93.08656,31.192239 91.6605,31.512983 91.22597,30.490801 C 89.39128,26.17501 88.31783,18.806025 84.63534,20.340803 C 81.06035,19.985205 83.23936,24.127191 82.59203,24.965446 C 76.32096,22.751342 80.69973,15.706939 74.65447,14.606502 C 72.18591,16.311818 69.12483,18.775874 65.6846,16.616737 C 63.27853,17.15596 62.12964,18.636517 59.89698,18.276122 z" style="fill:#28170b;fill-rule:evenodd;stroke:#120a04;stroke-width:1px;stroke-linecap:butt;stroke-linejoin:miter;stroke-opacity:1"/>
    <path sodipodi:nodetypes="cc" id="path2970" d="M 83.61865,21.104754 C 88.83068,17.549387 89.72151,26.248834 85.30931,26.362288" style="fill:#e9d2af;fill-opacity:1;fill-rule:evenodd;stroke:#3f2d10;stroke-width:1px;stroke-linecap:butt;stroke-linejoin:miter;stroke-opacity:1"/>
    <path sodipodi:nodetypes="cs" id="path2972" d="M 85.01712,22.200452 C 85.5211,20.557538 88.29276,22.675405 85.59116,24.761916" style="fill:#e9d2af;fill-opacity:1;fill-rule:evenodd;stroke:#3f2d10;stroke-width:1px;stroke-linecap:butt;stroke-linejoin:miter;stroke-opacity:1"/>
    <path sodipodi:nodetypes="cc" id="path2985" d="M 66.48826,44.354528 C 67.51923,44.542767 67.82217,44.251649 69.41564,43.698474" style="fill:none;fill-rule:evenodd;stroke:#3f2d10;stroke-width:1px;stroke-linecap:butt;stroke-linejoin:miter;stroke-opacity:1"/>
    <path style="fill:none;fill-rule:evenodd;stroke:#333333;stroke-width:1px;stroke-linecap:butt;stroke-linejoin:miter;stroke-opacity:1" d="M 63.66578,73.497321 C 57.50113,73.879898 51.5986,75.181329 45.28101,74.027652 C 38.88841,73.285998 32.44059,73.315652 26.01235,72.966991 C 25.01712,72.966991 24.72819,73.367262 24.24458,73.850875 C 25.31168,78.846127 24.3128,83.992209 24.0678,89.053671 C 24.71046,93.147959 24.97745,97.283591 25.12846,101.42804 C 24.87401,106.13741 24.95169,110.85513 24.95169,115.57017" id="path2507" sodipodi:nodetypes="ccccccc"/>
    <path sodipodi:nodetypes="ccccccccccccc" id="path2546" d="M 24.78661,116.06694 C 30.62023,116.95448 36.65832,116.00367 42.75,115.75 C 50.02123,115.46277 57.23923,114.83245 64.5,114.5 C 66.40883,114.5 66.75,114.67505 66.75,112.75 C 64.88235,105.07438 63.85821,97.54147 65.28033,89.603553 C 66.40824,83.930229 65.76643,77.976168 64,72.5 C 60.08403,71.408443 58.87821,67.95174 54.97056,67.217514 C 50.82009,67.217514 41.24509,66.108877 37.34404,66.889087 C 31.15282,67.676184 24.11303,67.046312 17.88693,66.71231 C 15.7388,66.71231 15.28308,67.035232 16.66726,68.419417 C 17.28545,74.88273 15.37452,81.646271 16.69759,89.078427 C 18.84451,96.148307 16.79543,103.62141 17.8566,110.82843 C 18.69138,113.06836 22.93411,115.61097 24.78661,116.06694 z" style="fill:none;fill-rule:evenodd;stroke:#333333;stroke-width:1px;stroke-linecap:butt;stroke-linejoin:miter;stroke-opacity:1"/>
    <path sodipodi:nodetypes="cccccccccccccccc" id="path2993" d="M 77.47945,74.602142 C 74.29912,75.511453 70.54363,75.870126 67.43017,74.711287 C 66.18519,73.745086 67.63752,71.985335 65.92597,71.35674 C 64.5586,71.835669 64.34993,73.231494 64.14485,74.572828 C 62.19604,73.844125 60.44395,72.225099 58.58189,74.309854 C 59.33279,75.444538 60.81267,76.119144 62.07403,76.311862 C 60.66131,76.606563 57.69112,75.716395 59.14735,78.271651 C 60.26874,79.466439 61.62618,78.67292 63.08143,78.589641 C 61.58673,79.810505 59.20062,80.393224 62.1424,81.460744 C 63.40826,81.46039 64.2107,80.760667 65.12424,79.99791 C 66.3658,79.688018 67.73705,79.992982 69.03075,80.067423 C 71.8842,81.354022 74.91533,81.471798 78.00311,81.586994 C 80.17479,79.520439 83.70471,80.985916 85.91306,79.199916 C 86.9308,78.657413 87.79816,78.150302 88.60507,77.391954 C 89.09471,74.505675 88.02767,72.31989 85.2929,71.345393 C 81.69945,70.240403 80.20073,73.640954 77.47945,74.602142 z" style="fill:#e9d2af;fill-opacity:1;fill-rule:evenodd;stroke:#3f2d10;stroke-width:0.99999994px;stroke-linecap:butt;stroke-linejoin:miter;stroke-opacity:1"/>
    <path sodipodi:nodetypes="cccccc" id="path2991" d="M 85.87346,59.702229 C 84.46297,61.819482 83.58871,64.071713 82.83295,66.471122 C 81.9159,68.822566 80.59185,70.931454 79.11923,72.960689 C 82.76194,75.107141 88.32888,76.415133 92.49011,77.855107 C 93.36953,75.929618 94.69599,73.604687 95.61381,71.690382 C 96.8723,69.116928 96.76397,62.411994 94.31983,60.583306" style="fill:#1a1a1a;fill-opacity:1;fill-rule:evenodd;stroke:#000000;stroke-width:1px;stroke-linecap:butt;stroke-linejoin:miter;stroke-opacity:1"/>
    <path style="fill:none;fill-rule:evenodd;stroke:#333333;stroke-width:1px;stroke-linecap:butt;stroke-linejoin:miter;stroke-opacity:1" d="M 16.1066,66.962311 C 21.78871,71.200328 18.83384,70.310718 24.81066,74.103553" id="path2503" sodipodi:nodetypes="cc"/>
    <path style="fill:none;fill-rule:evenodd;stroke:#333333;stroke-width:1px;stroke-linecap:butt;stroke-linejoin:miter;stroke-opacity:1" d="M 36.9725,73.497322 C 35.1079,74.467089 33.62462,76.82391 32.37631,78.447069 C 31.92108,79.851193 31.53001,80.484829 30.60854,81.275496" id="path2516" sodipodi:nodetypes="ccc"/>
    <path style="fill:none;fill-rule:evenodd;stroke:#333333;stroke-width:1px;stroke-linecap:butt;stroke-linejoin:miter;stroke-opacity:1" d="M 38.91705,82.15938 C 38.55153,83.621452 34.96002,85.436322 34.32085,87.99301 C 33.88079,89.753269 32.22041,91.64547 30.96209,92.589205 C 29.34207,93.804225 28.34016,94.745572 26.89623,96.478292 C 26.07631,97.462202 25.82445,97.936998 25.48202,99.30672 C 25.42897,99.51891 25.20629,99.72031 25.12846,99.83705" id="path2518"/>
    <path style="fill:none;fill-rule:evenodd;stroke:#333333;stroke-width:1px;stroke-linecap:butt;stroke-linejoin:miter;stroke-opacity:1" d="M 64.72645,92.412428 C 64.05456,94.892242 62.80218,96.414237 60.83736,97.892505 C 59.76596,98.9639 59.35318,100.15376 58.71604,101.42804" id="path2520" sodipodi:nodetypes="ccc"/>
    <path style="fill:none;fill-rule:evenodd;stroke:#333333;stroke-width:1px;stroke-linecap:butt;stroke-linejoin:miter;stroke-opacity:1" d="M 59.42314,108.49911 C 57.40075,109.37119 55.55519,110.58576 53.76629,111.85786 C 52.63565,112.91694 52.26379,114.4138 50.93786,115.21662" id="path2522" sodipodi:nodetypes="ccc"/>
    <path style="fill:none;fill-rule:evenodd;stroke:#333333;stroke-width:1px;stroke-linecap:butt;stroke-linejoin:miter;stroke-opacity:1" d="M 19.64839,95.417632 C 19.78195,96.756631 20.94032,97.611408 21.94648,98.42284 C 22.36716,98.63318 24.83887,100.41623 24.95169,100.1906 C 23.77863,105.57436 21.29751,103.91156 19.47161,105.31713" id="path2524" sodipodi:nodetypes="cccc"/>
    <path style="fill:none;fill-rule:evenodd;stroke:#333333;stroke-width:1px;stroke-linecap:butt;stroke-linejoin:miter;stroke-opacity:1" d="M 37.14928,73.497322 C 35.90168,73.996363 34.74067,71.265487 33.79052,70.315341 C 32.81838,69.343203 31.09521,69.449348 29.72465,68.901127" id="path2526" sodipodi:nodetypes="css"/>
    <path style="fill:none;fill-rule:evenodd;stroke:#333333;stroke-width:1px;stroke-linecap:butt;stroke-linejoin:miter;stroke-opacity:1" d="M 16.64319,74.204428 C 16.85509,75.012014 19.73548,78.379596 20.53227,80.391613" id="path2528" sodipodi:nodetypes="cc"/>
    <path style="fill:none;fill-rule:evenodd;stroke:#333333;stroke-width:1px;stroke-linecap:butt;stroke-linejoin:miter;stroke-opacity:1" d="M 46.51844,66.956584 C 47.00847,67.936645 48.85352,68.584557 49.8772,69.608234 C 50.66331,70.394347 52.0851,70.04837 52.70563,70.668894" id="path2530" sodipodi:nodetypes="css"/>
    <path style="font-size:12px;font-style:normal;font-variant:normal;font-weight:normal;font-stretch:normal;fill:#ffffff;fill-opacity:1;stroke:none;stroke-width:1px;stroke-linecap:butt;stroke-linejoin:miter;stroke-opacity:1;font-family:Rufscript;-inkscape-font-specification:Rufscript" d="M 72.908653,68.011803 C 72.861397,67.999173 72.791988,68.084962 72.831945,67.822971 C 72.830148,66.516385 72.744716,65.196908 72.740726,63.888702 C 72.736147,63.246756 72.729909,62.600312 72.74387,61.967927 C 72.796034,61.641881 72.922374,61.653443 73.019596,61.611672 C 73.222235,61.581228 73.429166,61.617686 73.633753,61.720222 C 73.734712,61.962663 73.801925,62.355231 73.867018,62.713673 C 73.952562,63.213129 73.91459,63.819615 73.812492,64.166599 C 73.695212,64.660906 73.507186,64.825642 73.37716,65.261438 C 73.279914,65.507143 73.321665,66.032987 73.425904,66.255186 C 73.557496,66.607733 73.716682,66.83537 73.819192,67.323704 C 73.876322,67.598065 73.937543,67.92745 73.932303,68.262234 C 73.841615,68.433966 73.676714,68.314096 73.612006,67.914139 C 73.529059,67.622245 73.457878,67.246904 73.368373,67.001548 C 73.273152,66.855326 73.20828,66.066039 73.098424,66.51231 C 73.039478,66.827868 73.056251,67.267272 73.047082,67.648509 C 73.058927,67.851731 72.98625,67.843904 72.953348,67.935426 C 72.93845,67.960886 72.923552,67.986344 72.908653,68.011803 z M 73.046429,64.967033 C 73.252481,64.636354 73.471729,64.319419 73.622554,63.710015 C 73.693553,63.46132 73.685804,62.986242 73.591379,62.750267 C 73.447707,62.316122 73.25885,62.34647 73.092383,62.303382 C 72.938711,62.167155 73.009569,62.893382 73.011634,63.218625 C 73.035635,63.801416 73.034322,64.384557 73.046429,64.967033 z M 74.713793,68.526504 C 74.713014,67.623149 74.72974,66.71419 74.672093,65.803384 C 74.640797,65.164103 74.610386,64.524623 74.580235,63.885092 C 74.501327,63.571497 74.36827,63.582943 74.264223,63.478233 C 74.136895,63.401537 73.9633,63.240012 73.925934,62.701206 C 73.913026,62.290679 74.107169,62.592121 74.182285,62.524851 C 74.589404,62.63494 74.999356,62.69127 75.405428,63.02751 C 75.498214,63.09805 75.672871,63.301139 75.618784,63.745401 C 75.546853,64.028236 75.416777,63.92402 75.314729,63.899744 C 75.195052,63.854896 75.075111,63.794309 74.955603,63.767362 C 74.866188,64.172469 74.931229,64.76591 74.953527,65.259624 C 74.99695,66.297907 75.00416,67.34317 74.981105,68.361964 C 74.987072,68.772722 74.911504,69.12809 74.788479,68.847059 C 74.750908,68.796637 74.711611,68.680945 74.713793,68.526504 z M 76.018442,66.902378 C 75.94371,67.15668 76.03012,67.689984 76.048866,68.046803 C 76.081907,68.45323 76.14296,68.928298 76.086978,69.30436 C 76.003696,69.595912 75.814568,69.339549 75.814873,68.853055 C 75.759854,67.485428 75.748232,66.118119 75.727054,64.753556 C 75.726957,64.317266 75.708053,63.858746 75.735862,63.44333 C 75.860386,63.068309 76.04482,63.0926 76.206966,63.071567 C 76.363705,63.093296 76.529796,63.060602 76.680761,63.323654 C 76.738374,63.587236 76.872736,64.007808 76.835516,64.31749 C 76.59332,64.149553 76.343622,63.871187 76.102838,63.985747 C 75.975089,64.0555 76.009695,64.670717 76.006843,65.028504 C 75.993869,65.466383 76.055031,66.042737 76.20171,66.073995 C 76.3661,66.183171 76.534177,65.865225 76.694314,66.19187 C 76.831846,66.550769 76.700248,67.048557 76.580322,67.006005 C 76.396536,67.078128 76.2058,66.998894 76.018442,66.902378 z M 78.38593,71.595169 C 78.340671,71.065423 78.352159,70.517138 78.343204,69.982362 C 78.329207,68.243599 78.357793,66.520273 78.335143,64.778952 C 78.31075,64.686809 78.244579,65.148419 78.204496,65.260234 C 78.097842,65.697065 77.960646,66.05441 77.827799,66.361535 C 77.89044,66.598729 78.054646,66.911817 78.016536,67.224445 C 77.93233,67.625191 77.788899,67.398902 77.724665,66.974006 C 77.54642,66.255969 77.370601,65.529222 77.186722,64.829551 C 77.212378,66.366355 77.24262,67.905983 77.246471,69.43688 C 77.250437,69.857335 77.075117,70.035166 76.999894,69.690095 C 76.939431,69.296988 76.963499,68.852343 76.950783,68.439123 C 76.941852,67.04239 76.934238,65.6448 76.943593,64.255513 C 76.943326,63.823251 77.080148,63.750382 77.177232,63.871592 C 77.29818,64.058908 77.40571,64.422256 77.453332,64.870593 C 77.50438,65.138969 77.559891,65.80111 77.660781,65.642474 C 77.797392,65.202032 77.93837,64.77702 78.072244,64.326909 C 78.137282,64.032476 78.245955,63.831784 78.256194,63.409124 C 78.312609,63.13914 78.513787,63.1576 78.516939,63.63412 C 78.544901,64.536822 78.54208,65.435585 78.566824,66.338151 C 78.586912,67.726723 78.576835,69.109924 78.617899,70.502248 C 78.643992,70.876098 78.669351,71.337919 78.559686,71.523229 C 78.516567,71.63123 78.434738,71.84867 78.38593,71.595169 z" id="text2428"/>
  </g>
  <metadata>
    <rdf:RDF>
      <cc:Work>
        <dc:format>image/svg+xml</dc:format>
        <dc:type rdf:resource="http://purl.org/dc/dcmitype/StillImage"/>
        <cc:license rdf:resource="http://creativecommons.org/licenses/publicdomain/"/>
        <dc:publisher>
          <cc:Agent rdf:about="http://openclipart.org/">
            <dc:title>Open Clip Art Library</dc:title>
          </cc:Agent>
        </dc:publisher>
        <dc:title>Comic characters: Guy and the stone block</dc:title>
        <dc:date>2009-03-05T13:59:41</dc:date>
        <dc:description>Comic characters: a bearded guy pushing a stone block</dc:description>
        <dc:source>http://openclipart.org/detail/21849/comic-characters:-guy-and-the-stone-block-by-nicubunu</dc:source>
        <dc:creator>
          <cc:Agent>
            <dc:title>nicubunu</dc:title>
          </cc:Agent>
        </dc:creator>
        <dc:subject>
          <rdf:Bag>
            <rdf:li>cartoon</rdf:li>
            <rdf:li>cartoon</rdf:li>
            <rdf:li>character</rdf:li>
            <rdf:li>character</rdf:li>
            <rdf:li>clip art</rdf:li>
            <rdf:li>clipart</rdf:li>
            <rdf:li>comic</rdf:li>
            <rdf:li>comic</rdf:li>
            <rdf:li>funny</rdf:li>
            <rdf:li>funny</rdf:li>
            <rdf:li>guy</rdf:li>
            <rdf:li>guy</rdf:li>
            <rdf:li>human</rdf:li>
            <rdf:li>human</rdf:li>
            <rdf:li>image</rdf:li>
            <rdf:li>media</rdf:li>
            <rdf:li>people</rdf:li>
            <rdf:li>people</rdf:li>
            <rdf:li>png</rdf:li>
            <rdf:li>public domain</rdf:li>
            <rdf:li>svg</rdf:li>
          </rdf:Bag>
        </dc:subject>
      </cc:Work>
      <cc:License rdf:about="http://creativecommons.org/licenses/publicdomain/">
        <cc:permits rdf:resource="http://creativecommons.org/ns#Reproduction"/>
        <cc:permits rdf:resource="http://creativecommons.org/ns#Distribution"/>
        <cc:permits rdf:resource="http://creativecommons.org/ns#DerivativeWorks"/>
      </cc:License>
    </rdf:RDF>
  </metadata>
</svg>
