<?xml version="1.0" encoding="UTF-8" standalone="no"?>
<!-- Created with Inkscape (http://www.inkscape.org/) -->
<svg xmlns:dc="http://purl.org/dc/elements/1.1/" xmlns:cc="http://creativecommons.org/ns#" xmlns:rdf="http://www.w3.org/1999/02/22-rdf-syntax-ns#" xmlns:svg="http://www.w3.org/2000/svg" xmlns="http://www.w3.org/2000/svg" xmlns:sodipodi="http://sodipodi.sourceforge.net/DTD/sodipodi-0.dtd" xmlns:inkscape="http://www.inkscape.org/namespaces/inkscape" width="128" height="128" id="svg2" sodipodi:version="0.32" inkscape:version="0.46" version="1.0" sodipodi:docname="countdown-08.svg" inkscape:output_extension="org.inkscape.output.svg.inkscape">
  <defs id="defs4">
    <filter inkscape:collect="always" id="filter3465" x="-0.12292648" width="1.245853" y="-0.1847253" height="1.3694506">
      <feGaussianBlur inkscape:collect="always" stdDeviation="2.2333214" id="feGaussianBlur3467"/>
    </filter>
  </defs>
  <sodipodi:namedview id="base" pagecolor="#ffffff" bordercolor="#666666" borderopacity="1.0" gridtolerance="10000" guidetolerance="10" objecttolerance="10" inkscape:pageopacity="0.0" inkscape:pageshadow="2" inkscape:zoom="1" inkscape:cx="64" inkscape:cy="64" inkscape:document-units="px" inkscape:current-layer="layer1" showgrid="false" inkscape:window-width="1538" inkscape:window-height="961" inkscape:window-x="127" inkscape:window-y="31"/>
  <g inkscape:label="Layer 1" inkscape:groupmode="layer" id="layer1">
    <path style="fill:#000000;fill-opacity:0.77049178;fill-rule:evenodd;stroke:none;stroke-width:1px;stroke-linecap:butt;stroke-linejoin:miter;stroke-opacity:1;filter:url(#filter3465)" d="M 64.06669,105.55831 C 61.46122,103.30694 57.76288,107.05533 53.84596,107.05533 C 46.2937,106.93086 39.3413,111.45506 42.11903,119.16193 C 43.86248,126.81834 50.81517,124.62766 57.56885,124.74854 C 65.71568,124.3745 74.43181,118.2886 71.21834,114.53838 C 72.05918,113.69755 72.27305,112.12993 73.22355,111.41706 C 76.45916,108.99036 75.84322,107.61588 79.31238,105.30311 C 80.70308,102.96357 99.39873,100.46572 91.64601,90.683933 C 85.58322,87.46305 74.68892,102.30955 71.88776,104.06567 C 69.80713,106.12915 66.96427,105.0671 64.06669,105.55831 z" id="path2537" sodipodi:nodetypes="cccccscccc"/>
    <g id="g3779" transform="translate(-101,-22)"/>
    <g id="g2584" transform="matrix(0.6921924,-0.6599584,0.659769,0.6923911,-175.08976,192.6006)">
      <path sodipodi:nodetypes="cccccccc" id="path2480" d="M 282.90062,109.14166 C 285.25587,110.78015 289.23865,110.59283 291.4745,112.98053 C 291.79347,113.92321 291.37392,116.27295 291.37947,117.25895 C 291.08517,118.52704 290.23349,119.25056 289.19524,119.93892 C 286.53017,120.62513 283.77819,119.52159 281.23796,118.73583 C 278.96844,118.3878 276.34255,117.54919 274.95964,115.62483 C 272.7766,113.04226 273.44416,110.91248 274.07585,107.74751 C 277.00471,108.3191 279.93761,108.79309 282.90062,109.14166 z" style="fill:#e6e6e6;fill-rule:evenodd;stroke:#333333;stroke-width:1.04559505px;stroke-linecap:butt;stroke-linejoin:miter;stroke-opacity:1"/>
      <path sodipodi:nodetypes="ccc" id="path2484" d="M 290.50428,118.79357 C 287.60876,120.38172 284.00381,118.69135 281.65911,117.24187 C 278.80865,116.51797 276.29667,115.61369 273.96744,112.45164" style="fill:none;fill-rule:evenodd;stroke:#333333;stroke-width:1.04559505px;stroke-linecap:butt;stroke-linejoin:miter;stroke-opacity:1"/>
    </g>
    <path style="fill:#00325c;fill-opacity:1;fill-rule:evenodd;stroke:#00192e;stroke-width:1px;stroke-linecap:butt;stroke-linejoin:miter;stroke-opacity:1" d="M 63.86756,86.236077 C 66.59286,84.313394 73.01384,83.734706 77.36682,81.252815 C 79.76671,81.89388 82.14814,81.112608 84.56166,81.085708 C 86.64049,81.704055 90.00854,81.281679 91.40332,82.813907 C 93.1501,85.43893 92.83031,89.286096 90.34142,90.535966 C 89.40022,90.239661 88.81954,90.387292 87.86438,89.908175 C 85.32341,88.523291 82.30562,88.925857 79.52648,89.168213 C 75.90458,89.006158 73.01678,92.731456 69.40345,92.378123 C 65.38225,92.122825 62.26568,87.450909 63.86756,86.236077 z" id="path2482" sodipodi:nodetypes="ccccccccc"/>
    <path sodipodi:nodetypes="cccccsc" id="path2525" d="M 52.96763,122.5828 C 52.15128,122.80799 50.06023,122.9664 49.29875,122.73185 C 47.51936,121.72916 47.52893,117.86108 49.01575,115.82847 C 49.92361,113.84269 50.32846,110.10828 52.69886,108.89582 C 54.37502,108.91669 59.35539,107.23317 60.85191,109.55691 C 60.3956,109.95814 61.19922,112.18456 60.85918,112.64047 C 57.65279,116.93943 57.84443,121.48863 52.96763,122.5828 z" style="fill:#e6e6e6;fill-rule:evenodd;stroke:#333333;stroke-width:1px;stroke-linecap:butt;stroke-linejoin:miter;stroke-opacity:1"/>
    <path id="path2496" d="M 55.90604,85.247714 C 55.76723,85.99288 52.85777,90.633249 53.11082,91.898872 C 54.01301,94.572442 52.0194,96.851385 51.35096,99.571637 C 50.82098,102.24003 50.10985,108.09409 52.0197,110.05539 C 54.02361,111.01384 59.03031,109.78782 60.74554,109.45755 C 59.5545,105.77321 60.32574,100.87438 60.89329,97.037163 C 60.92091,93.401898 68.07987,89.953952 67.94274,86.299776 C 65.87017,85.533719 57.21428,83.721005 55.90604,85.247714 z" style="fill:#00325c;fill-opacity:1;fill-rule:evenodd;stroke:#00192e;stroke-width:1px;stroke-linecap:butt;stroke-linejoin:miter;stroke-opacity:1" sodipodi:nodetypes="cccccccc"/>
    <path style="fill:#1a1a1a;fill-opacity:1;fill-rule:evenodd;stroke:#000000;stroke-width:1px;stroke-linecap:butt;stroke-linejoin:miter;stroke-opacity:1" d="M 81.86411,83.829838 C 79.18171,80.519038 77.67396,79.053309 78.01609,75.26166 C 77.18622,71.911119 77.57556,68.594987 77.52023,65.265188 C 77.49726,63.88277 80.16208,62.710708 79.86675,61.320139 C 79.61682,59.653163 80.34533,57.8446 81.14256,56.30725 C 81.76609,55.104857 79.83235,53.938252 79.17743,52.801396 C 77.47121,50.493221 73.16047,49.419075 70.26411,49.270985 C 66.54815,49.815414 62.79711,49.313742 59.10722,50.116443 C 56.38448,51.30147 48.20396,53.371973 47.90095,56.311305 C 47.76943,58.964654 52.90837,58.390439 53.59216,63.338686 C 53.22195,67.596576 52.42257,73.47003 53.02165,77.740021 C 53.87699,82.707647 51.6927,83.819126 52.24292,88.773514 C 56.52875,86.319248 60.59463,91.614209 65.46086,91.069302 C 69.54229,89.609809 79.33197,86.925544 81.86411,83.829838 z" id="path2498" sodipodi:nodetypes="ccscsccccccccc"/>
    <path sodipodi:nodetypes="ccccccc" id="path2502" d="M 52.68377,18.949616 C 51.33621,23.541411 53.28946,28.949005 54.49256,33.446458 C 52.74905,39.046111 55.00432,43.136705 60.31378,47.603874 C 66.45768,49.601617 73.33238,49.172973 78.64738,42.550597 C 79.95412,31.66772 78.59717,38.273646 81.07014,29.182516 C 81.88759,17.404276 77.70975,9.4204324 66.64052,10.27616 C 58.98875,10.025434 55.70458,13.972748 52.68377,18.949616 z" style="fill:#e9d2af;fill-opacity:1;fill-rule:evenodd;stroke:#3f2d10;stroke-width:0.99999994px;stroke-linecap:butt;stroke-linejoin:miter;stroke-opacity:1"/>
    <path style="fill:#e9d2af;fill-opacity:1;fill-rule:evenodd;stroke:#3f2d10;stroke-width:1px;stroke-linecap:butt;stroke-linejoin:miter;stroke-opacity:1" d="M 63.36617,46.438699 C 62.11993,47.103464 61.1849,49.083887 60.92273,50.872978 C 63.0072,53.334822 69.35852,53.349413 72.39981,51.065751 C 71.80125,48.493851 72.19802,48.12929 69.9925,46.342988" id="path2500" sodipodi:nodetypes="cccc"/>
    <path style="fill:#e9d2af;fill-opacity:1;fill-rule:evenodd;stroke:#3f2d10;stroke-width:1px;stroke-linecap:butt;stroke-linejoin:miter;stroke-opacity:1" d="M 80.39122,23.846173 C 87.48027,21.017491 84.53852,30.71113 80.53529,29.588527" id="path2520" sodipodi:nodetypes="cc"/>
    <path sodipodi:nodetypes="cc" id="path2524" d="M 54.07864,25.833681 C 46.67056,23.996878 50.90443,33.19957 54.71757,31.542177" style="fill:#e9d2af;fill-opacity:1;fill-rule:evenodd;stroke:#3f2d10;stroke-width:1px;stroke-linecap:butt;stroke-linejoin:miter;stroke-opacity:1"/>
    <path style="fill:#28170b;fill-opacity:1;fill-rule:evenodd;stroke:#120a04;stroke-width:1px;stroke-linecap:butt;stroke-linejoin:miter;stroke-opacity:1" d="M 54.41495,40.508849 C 53.45534,42.580598 54.31691,44.006284 55.17564,45.919803 C 56.42972,47.715059 57.8208,47.447503 59.90887,47.695273 C 61.30926,46.558374 61.55339,46.260663 61.59931,44.482518 C 61.2584,42.086447 60.81925,42.722835 58.8946,41.692496 C 57.60175,41.360704 55.75329,40.508849 54.41495,40.508849 z" id="path2580" sodipodi:nodetypes="cccccc"/>
    <path sodipodi:nodetypes="cccccc" id="path2582" d="M 79.1949,39.763431 C 80.41429,41.69365 79.74428,43.218815 79.14015,45.227349 C 78.1287,47.169757 76.7147,47.084396 74.67621,47.600192 C 73.14059,46.653994 72.86002,46.390363 72.5846,44.633089 C 72.61287,42.21304 73.13061,42.787276 74.90589,41.516619 C 76.14498,41.020373 77.86779,39.936558 79.1949,39.763431 z" style="fill:#28170b;fill-opacity:1;fill-rule:evenodd;stroke:#120a04;stroke-width:0.99999994px;stroke-linecap:butt;stroke-linejoin:miter;stroke-opacity:1"/>
    <path sodipodi:nodetypes="ccsccc" id="path2506" d="M 67.35259,46.584571 C 83.29617,38.535816 77.22322,37.295087 80.44868,33.75946 C 84.73042,31.16025 85.50707,19.74205 80.94169,13.489276 C 77.57297,8.8754583 72.98701,5.1749032 67.03113,7.2444389 C 52.33127,4.2058511 46.69674,24.044341 53.92443,36.66965 C 58.86687,40.785647 56.43215,43.020576 67.35259,46.584571 z" style="fill:#28170b;fill-opacity:1;fill-rule:evenodd;stroke:#120a04;stroke-width:0.99999994px;stroke-linecap:butt;stroke-linejoin:miter;stroke-opacity:1"/>
    <path style="fill:#e9d2af;fill-opacity:1;fill-rule:evenodd;stroke:#3f2d10;stroke-width:1px;stroke-linecap:butt;stroke-linejoin:miter;stroke-opacity:1" d="M 85.27162,32.054988 C 85.15137,28.218184 82.83812,23.776769 80.85832,20.760958 C 79.60972,19.736689 76.41429,20.11457 75.33362,18.453623 C 75.36185,16.772236 78.59675,17.897737 79.75464,17.186884 C 78.51238,15.300417 73.30775,12.430782 74.64805,9.6234984 C 75.9027,10.041857 80.16807,12.952425 80.71863,14.274233 C 80.56596,12.609365 76.16826,7.6254116 78.92379,8.3085791 C 80.34332,9.1139108 82.73094,12.927144 83.08842,14.562541 C 83.75299,12.472607 81.37476,6.9244364 83.22047,9.7838694 C 83.59692,11.180381 85.39746,15.023855 84.97621,16.307177 C 85.06415,17.788715 85.74942,19.191189 86.20213,20.591379 C 88.22064,23.274231 90.58222,28.266276 91.60596,31.630839 C 90.37435,34.773101 91.40442,36.446601 90.4387,39.52797 C 90.24862,40.846647 89.87689,46.721252 89.4279,47.88536 C 86.95073,49.468313 83.97064,49.757342 82.27106,47.092656 C 80.19732,43.527895 85.20811,35.404142 85.27162,32.054988 z" id="path2521" sodipodi:nodetypes="cccccccccccccccc"/>
    <path style="fill:#1a1a1a;fill-opacity:1;fill-rule:evenodd;stroke:#000000;stroke-width:0.99999994000000003px;stroke-linecap:butt;stroke-linejoin:miter;stroke-opacity:1" d="M 77.70414,53.054822 C 78.37468,50.735635 80.52919,46.587802 80.59058,44.190307 C 84.60419,44.678107 86.72573,46.460122 90.72237,47.78599 C 90.27086,49.759766 87.33381,52.795437 86.91796,54.783055 C 86.23972,57.397779 84.62447,58.216898 83.43299,60.467142 C 81.90507,62.10375 78.47587,64.002219 76.66251,65.443283" id="path2530" sodipodi:nodetypes="cccccc"/>
    <path sodipodi:nodetypes="cssssssssc" style="fill:#28170b;fill-rule:evenodd;stroke:#120a04;stroke-width:0.99999994px;stroke-linecap:butt;stroke-linejoin:miter;stroke-opacity:1" d="M 67.12715,29.308973 C 65.45857,29.508953 70.41524,35.801939 70.88849,36.863468 C 71.62207,38.508977 78.51769,40.947518 79.93259,42.283616 C 81.13433,43.418448 86.64462,43.500912 87.67367,42.95194 C 89.40545,42.028046 91.72079,42.727607 92.70782,43.433251 C 95.78778,45.635114 93.57978,42.142013 92.66385,40.907704 C 91.94446,39.938269 89.35584,37.976292 88.01882,38.210495 C 84.48295,38.829871 81.91038,34.562399 80.47308,32.886147 C 79.1076,31.293649 75.40854,31.260136 73.41489,31.49907 C 72.16948,31.648327 68.69879,29.415489 67.12715,29.308973 z" id="path2476"/>
    <path style="font-size:6.5168519px;font-style:normal;font-variant:normal;font-weight:normal;font-stretch:normal;fill:#ffffff;fill-opacity:1;stroke:none;stroke-width:1px;stroke-linecap:butt;stroke-linejoin:miter;stroke-opacity:1;font-family:handfont;-inkscape-font-specification:handfont" d="M 58.38665,62.525443 C 57.92992,62.561149 58.0159,61.994735 58.14983,61.721313 C 58.30639,61.410161 58.02713,61.271704 57.77282,61.258472 C 57.44938,61.007947 57.73578,60.421489 58.13123,60.673587 C 58.41371,60.736624 58.32394,60.415463 58.35041,60.246649 C 58.41505,59.647916 58.37917,59.015636 58.6531,58.463446 C 58.88213,58.1481 59.34669,58.280948 59.59215,58.504258 C 59.88026,58.703373 60.14629,59.103586 59.95393,59.450739 C 59.72721,59.752867 59.32168,59.546188 59.2958,59.214642 C 59.0232,58.804916 59.05971,59.483337 59.01584,59.679577 C 58.9799,59.979187 58.95178,60.2797 58.92881,60.580571 C 59.18898,60.842324 59.72596,60.409999 59.87283,60.894881 C 59.87929,61.323437 59.35014,61.34095 59.03543,61.365807 C 58.7169,61.387736 58.76038,61.697627 58.74341,61.924013 C 58.73134,62.167746 58.69172,62.47697 58.41157,62.550378 L 58.39803,62.536833 L 58.38665,62.525443 z M 62.00468,60.19409 C 62.35851,60.150152 62.78883,60.365791 62.80792,60.75606 C 62.79101,61.162475 62.31681,61.462359 61.94148,61.369896 C 61.53463,61.273047 61.72177,61.927427 61.99979,61.966006 C 62.35306,62.083969 62.63081,61.66776 62.97869,61.854555 C 63.30104,62.203736 62.63031,62.448196 62.35267,62.485942 C 61.98893,62.587572 61.59037,62.426427 61.33087,62.167792 C 60.96607,61.734374 61.04383,61.07262 61.33398,60.622939 C 61.48773,60.40326 61.71414,60.175377 62.00468,60.194089 L 62.00468,60.19409 z M 62.12308,60.71771 C 61.90401,60.662851 61.78561,60.991108 62.06856,60.904718 C 62.14777,60.880248 62.23106,60.770382 62.12309,60.717708 M 66.04647,62.824651 C 65.71954,62.733426 65.72552,62.34746 65.64599,62.077528 C 65.67506,61.870365 65.4643,61.52049 65.40163,61.904424 C 65.29254,62.218841 64.98105,62.522268 64.6453,62.531578 C 64.23541,62.416296 64.05804,61.930199 64.09186,61.539073 C 64.09628,61.118529 64.2758,60.581504 64.74562,60.503018 C 65.00571,60.542125 65.20997,60.414023 65.20865,60.143654 C 65.36912,59.430794 65.14573,58.682962 65.35008,57.97689 C 65.56144,57.706833 66.14587,57.936539 66.02642,58.314378 C 66.04834,58.904453 66.01566,59.495378 65.96059,60.08247 C 66.0187,60.751687 66.13559,61.416106 66.27569,62.072536 C 66.33525,62.324099 66.67378,62.733403 66.2194,62.80128 C 66.16268,62.814615 66.10462,62.821731 66.04647,62.824654 L 66.04647,62.824651 z M 64.83128,61.540539 C 65.01918,61.42845 64.80289,61.018301 64.73157,61.347299 C 64.64741,61.461153 64.6786,61.871778 64.83128,61.54054 L 64.83128,61.540539 z M 68.17627,62.531676 C 67.71396,62.438985 67.47066,61.947222 67.38727,61.522011 C 67.29859,61.126069 67.37504,60.692866 67.60617,60.36074 C 67.92439,60.066216 68.44489,60.036993 68.79337,60.2995 C 69.13736,60.475911 69.08596,60.959419 69.39771,61.166526 C 69.56278,61.457234 69.5762,61.847102 69.34749,62.109012 C 69.13256,62.481692 68.67024,62.547048 68.27864,62.529179 C 68.24452,62.530011 68.2104,62.530844 68.17627,62.531676 z M 68.4754,61.970654 C 68.85171,61.93838 68.90971,61.367591 68.61407,61.188344 C 68.50535,60.9683 68.16065,60.505579 67.97916,60.911485 C 67.92402,61.255543 67.89501,61.781588 68.23081,61.978448 C 68.31166,61.99485 68.39512,61.985097 68.47541,61.970656 L 68.4754,61.970654 z M 70.77942,62.525443 C 70.51168,62.312681 70.59725,61.905249 70.58925,61.600946 C 70.62565,61.188341 70.53705,60.763548 70.62518,60.359279 C 70.75505,60.072721 71.24268,60.118082 71.26141,60.45041 C 71.29397,60.575272 71.27064,60.723241 71.34533,60.831081 C 71.64141,60.759908 72.07851,60.574172 72.32178,60.915627 C 72.50506,61.127082 72.39198,61.549453 72.0737,61.422571 C 71.8622,61.398114 71.5882,61.297189 71.45354,61.52895 C 71.24705,61.81412 71.41315,62.215347 71.26081,62.492717 C 71.11518,62.569117 70.93502,62.567294 70.77941,62.525443 M 75.68703,62.525443 C 75.38525,62.443299 75.19716,62.145042 75.16201,61.849102 C 74.91853,61.59634 74.82663,62.182283 74.57378,62.239381 C 74.31093,62.424484 73.95085,62.579198 73.63133,62.472068 C 73.3061,62.232672 73.3947,61.79332 73.39996,61.440801 C 73.41074,60.896727 73.68802,60.259945 74.26677,60.133898 C 74.61412,60.085837 75.1636,60.021687 75.27339,60.46369 C 75.26027,60.640722 75.30409,60.800443 75.3781,60.961222 C 75.45418,61.178797 75.54907,61.393447 75.64818,61.596059 C 75.69581,61.919371 76.31185,62.191729 75.89774,62.4896 C 75.84028,62.539557 75.75733,62.53928 75.68703,62.525443 z M 74.1914,61.914556 C 74.44167,61.648439 74.68276,61.324589 74.72841,60.954196 C 74.6147,60.586859 74.07435,60.847607 74.04768,61.148995 C 74.01175,61.406536 73.86365,61.831735 74.08858,61.997149 C 74.13105,61.981006 74.16218,61.947477 74.19141,61.914554" id="text2650"/>
    <path sodipodi:nodetypes="cccccccccccccccc" id="path2532" d="M 48.17894,25.466601 C 49.27612,21.788146 52.66131,15.096604 55.34631,12.687525 C 56.81525,12.016718 59.93751,12.709042 61.40688,11.379772 C 61.80946,9.7470754 58.26469,10.498044 57.32704,9.5146314 C 59.01029,8.0086761 64.80923,7.0995006 64.23121,4.042708 C 62.91133,4.1262065 58.00995,5.3152225 57.13976,6.4522375 C 57.713,4.8817865 63.30612,2.2558342 60.46757,2.2113969 C 58.88934,2.6268206 55.53877,4.635179 54.77506,6.1247471 C 55.32978,3.9343065 59.63928,0.72720924 55.10996,3.0194071 C 54.389,4.2731819 52.42486,5.9800499 52.50401,7.3284567 C 52.04023,8.7382344 51.01918,9.9187724 50.22355,11.156596 C 47.58625,13.233882 43.00318,20.467873 41.15329,23.458674 C 41.54059,26.811502 40.26928,37.083178 40.4151,40.309122 C 40.26173,41.632572 41.34952,47.352024 41.48595,48.592275 C 43.47606,50.756272 46.47857,46.067498 48.80289,43.926187 C 51.71905,41.010445 47.38409,28.720632 48.17894,25.466601 z" style="fill:#e9d2af;fill-opacity:1;fill-rule:evenodd;stroke:#3f2d10;stroke-width:1px;stroke-linecap:butt;stroke-linejoin:miter;stroke-opacity:1"/>
    <path sodipodi:nodetypes="ccccc" id="path2534" d="M 53.87422,52.165232 C 52.86791,48.72133 51.70534,44.888041 50.72135,40.708575 C 46.71186,41.229176 42.83648,42.060395 38.85081,43.418904 C 39.43987,49.238213 44.28765,53.930715 47.49103,57.723104 C 48.73149,59.135639 51.21732,62.337306 54.22821,63.064415" style="fill:#1a1a1a;fill-opacity:1;fill-rule:evenodd;stroke:#000000;stroke-width:0.99999994000000003px;stroke-linecap:butt;stroke-linejoin:miter;stroke-opacity:1"/>
    <path style="fill:#e6e6e6;fill-rule:evenodd;stroke:#333333;stroke-width:1px;stroke-linecap:butt;stroke-linejoin:miter;stroke-opacity:1" d="M 55.59734,122.46323 C 54.78098,122.68843 51.61415,123.08597 50.85266,122.85142 C 49.07327,121.84873 49.08284,117.98065 50.56967,115.94803 C 51.47753,113.96226 51.50191,112.63004 53.87231,111.41758 C 55.54847,111.43845 59.35539,110.34189 60.85191,112.66563 C 56.09285,116.85034 60.99133,121.25303 55.59734,122.46323 z" id="path2492" sodipodi:nodetypes="cccccc"/>
    <path style="fill:#f2f2f2;fill-rule:evenodd;stroke:#666666;stroke-width:1px;stroke-linecap:butt;stroke-linejoin:miter;stroke-opacity:1" d="M 53.46009,55.335956 C 59.93337,57.600521 71.17939,58.267339 78.91593,55.866286 C 78.20672,59.419589 79.11865,68.381974 80.17114,72.137101 C 80.88934,75.807123 82.27876,78.472752 84.39602,80.7918 C 81.21633,84.770805 61.04977,87.018248 57.07773,86.025557 C 57.40904,83.100578 56.53232,77.426695 55.69385,74.415275 C 53.31583,68.828255 52.46525,61.590639 53.46009,55.335956 z" id="path2527" sodipodi:nodetypes="ccccccc"/>
    <path style="font-size:12px;font-style:normal;font-variant:normal;font-weight:normal;font-stretch:normal;fill:#000000;fill-opacity:1;stroke:none;stroke-width:1px;stroke-linecap:butt;stroke-linejoin:miter;stroke-opacity:1;font-family:Rufscript;-inkscape-font-specification:Rufscript" d="M 60.868726,65.859041 C 60.625531,65.87786 60.40665,65.93269 60.516221,65.670622 C 60.265765,64.534135 59.698446,63.409197 59.470136,62.271334 C 59.35864,61.764521 59.235242,61.25439 59.193679,60.750704 C 59.366653,60.446489 59.916458,60.428516 60.328456,60.366269 C 61.13489,60.293465 61.966622,60.268774 62.800395,60.301371 C 63.271433,60.492372 63.632737,60.821387 63.961194,61.128884 C 64.378465,61.546719 64.26729,62.067022 63.894363,62.382199 C 63.466884,62.84262 62.656833,63.015822 62.247631,63.485174 C 61.949685,63.789195 62.45789,64.16361 62.882126,64.304612 C 63.542588,64.540106 64.259657,64.770935 64.726071,65.224666 C 65.015956,65.440474 65.370671,66.000953 64.686147,65.878447 C 64.099576,65.967993 63.700044,65.535856 63.260954,65.279823 C 62.926898,64.989483 62.465055,64.879485 62.126986,64.614082 C 61.763965,64.168762 61.147705,64.534306 61.30778,64.911063 C 61.237779,65.146328 61.527152,65.517352 61.287274,65.669924 C 61.147758,65.732964 61.008241,65.796003 60.868726,65.859041 z M 60.929905,63.226484 C 61.736181,62.879164 62.617015,62.546508 63.117835,61.955026 C 63.375742,61.689321 63.114713,61.277216 62.66408,61.128608 C 61.999589,60.863393 61.274696,60.936117 60.604921,60.946558 C 60.01389,60.929634 60.482244,61.535067 60.521081,61.804929 C 60.699803,62.276199 60.790325,62.752919 60.929905,63.226484 z M 68.353221,65.81471 C 68.200258,65.025329 68.107915,64.226486 67.706791,63.446771 C 67.481426,62.929332 67.259265,62.411533 67.038123,61.893625 C 66.662808,61.647402 66.119294,61.692771 65.67548,61.63135 C 65.14087,61.600044 64.402581,61.508804 64.160302,61.059469 C 64.064799,60.701339 64.9677,60.921766 65.292715,60.838241 C 66.973567,60.826706 68.657478,60.760862 70.371814,60.953747 C 70.763948,60.973338 71.485198,61.17539 71.245761,61.531139 C 70.887273,61.78297 70.275887,61.696781 69.778666,61.704336 C 69.364903,61.762569 68.671492,61.537635 68.469258,61.82554 C 68.345505,62.330096 68.817534,62.845397 68.946459,63.356557 C 69.195778,64.151576 69.407053,64.957938 69.420615,65.747012 C 69.546935,66.178475 68.905021,66.193488 68.499255,65.992164 C 68.418902,65.949512 68.363791,65.881614 68.353221,65.81471 z M 63.027479,74.820643 C 62.76047,75.0707 63.228042,75.518652 63.367959,75.829259 C 63.564275,76.153563 63.869476,76.529173 63.705673,76.850004 C 63.36808,77.154444 62.508195,76.900604 62.478313,76.452272 C 62.021354,75.214566 61.709327,73.968032 61.395748,72.724854 C 61.371673,72.401332 61.057472,71.923273 61.568558,71.780694 C 62.373754,71.492525 63.356679,71.479514 64.296509,71.476784 C 64.853434,71.436779 65.39433,71.643967 65.729851,72.016875 C 66.037125,72.196211 66.106835,72.529631 65.61466,72.372115 C 64.66402,72.283513 63.662336,72.150277 62.783739,72.337546 C 62.382959,72.546228 62.656052,73.032131 62.710259,73.367882 C 62.720365,73.773169 63.271506,74.13066 63.812439,74.069839 C 64.432433,74.067862 65.031823,73.816891 65.680407,74.034044 C 66.303515,74.3032 65.846417,74.762787 65.347795,74.758607 C 64.605792,74.868925 63.811955,74.853013 63.027479,74.820643 z M 73.508084,78.187654 C 73.226941,77.730677 73.182892,77.242225 73.054266,76.771072 C 72.716752,75.310242 72.548856,73.851119 72.172576,72.390382 C 72.04349,72.332996 71.838815,72.760144 71.676174,72.880138 C 71.314498,73.26072 70.830269,73.588854 70.354687,73.875326 C 70.650685,74.060769 71.375555,74.283732 71.271049,74.560449 C 70.992162,74.924624 70.366803,74.770097 70.033229,74.425062 C 69.18391,73.860575 68.342976,73.288114 67.473501,72.740874 C 67.83284,74.044142 68.211441,75.348591 68.480417,76.652657 C 68.577031,77.031709 67.780841,77.230706 67.456603,76.881989 C 67.184876,76.512494 67.186417,76.102515 67.064482,75.715762 C 66.815682,74.570103 66.550471,73.422565 66.380119,72.278857 C 66.35179,71.876779 67.037105,71.837536 67.470907,71.975491 C 67.920389,72.134027 68.338054,72.374757 68.573138,72.704509 C 68.826741,72.919612 69.164505,73.470084 69.551577,73.306665 C 70.050676,72.880251 70.582897,72.473593 71.060141,72.034144 C 71.314964,71.778796 71.640497,71.54473 71.654689,71.194862 C 71.945636,70.976004 72.746882,71.008819 72.762519,71.455479 C 72.999089,72.204791 73.155235,72.956735 73.392507,73.706036 C 73.698159,74.868296 73.884338,76.034025 74.27818,77.193849 C 74.474918,77.520671 74.610307,77.919895 74.171227,78.105241 C 74.018582,78.20319 73.730271,78.379568 73.508084,78.187654 z" id="text2409"/>
  </g>
  <metadata>
    <rdf:RDF>
      <cc:Work>
        <dc:format>image/svg+xml</dc:format>
        <dc:type rdf:resource="http://purl.org/dc/dcmitype/StillImage"/>
        <cc:license rdf:resource="http://creativecommons.org/licenses/publicdomain/"/>
        <dc:publisher>
          <cc:Agent rdf:about="http://openclipart.org/">
            <dc:title>Open Clip Art Library</dc:title>
          </cc:Agent>
        </dc:publisher>
        <dc:title>Comic characters: Dancer</dc:title>
        <dc:date>2009-03-05T14:09:55</dc:date>
        <dc:description>Comic characters: a bearded guy dancing graciously</dc:description>
        <dc:source>http://openclipart.org/detail/21862/comic-characters:-dancer-by-nicubunu</dc:source>
        <dc:creator>
          <cc:Agent>
            <dc:title>nicubunu</dc:title>
          </cc:Agent>
        </dc:creator>
        <dc:subject>
          <rdf:Bag>
            <rdf:li>cartoon</rdf:li>
            <rdf:li>cartoon</rdf:li>
            <rdf:li>character</rdf:li>
            <rdf:li>character</rdf:li>
            <rdf:li>clip art</rdf:li>
            <rdf:li>clipart</rdf:li>
            <rdf:li>comic</rdf:li>
            <rdf:li>comic</rdf:li>
            <rdf:li>funny</rdf:li>
            <rdf:li>funny</rdf:li>
            <rdf:li>guy</rdf:li>
            <rdf:li>guy</rdf:li>
            <rdf:li>human</rdf:li>
            <rdf:li>human</rdf:li>
            <rdf:li>image</rdf:li>
            <rdf:li>media</rdf:li>
            <rdf:li>people</rdf:li>
            <rdf:li>people</rdf:li>
            <rdf:li>png</rdf:li>
            <rdf:li>public domain</rdf:li>
            <rdf:li>svg</rdf:li>
          </rdf:Bag>
        </dc:subject>
      </cc:Work>
      <cc:License rdf:about="http://creativecommons.org/licenses/publicdomain/">
        <cc:permits rdf:resource="http://creativecommons.org/ns#Reproduction"/>
        <cc:permits rdf:resource="http://creativecommons.org/ns#Distribution"/>
        <cc:permits rdf:resource="http://creativecommons.org/ns#DerivativeWorks"/>
      </cc:License>
    </rdf:RDF>
  </metadata>
</svg>
