<?xml version="1.0" encoding="UTF-8" standalone="no"?>
<!-- Created with Inkscape (http://www.inkscape.org/) -->
<svg xmlns:dc="http://purl.org/dc/elements/1.1/" xmlns:cc="http://creativecommons.org/ns#" xmlns:rdf="http://www.w3.org/1999/02/22-rdf-syntax-ns#" xmlns:svg="http://www.w3.org/2000/svg" xmlns="http://www.w3.org/2000/svg" xmlns:sodipodi="http://sodipodi.sourceforge.net/DTD/sodipodi-0.dtd" xmlns:inkscape="http://www.inkscape.org/namespaces/inkscape" width="128" height="128" id="svg2" sodipodi:version="0.32" inkscape:version="0.46" version="1.0" sodipodi:docname="countdown-13.svg" inkscape:output_extension="org.inkscape.output.svg.inkscape">
  <defs id="defs4">
    <filter inkscape:collect="always" id="filter3443" x="-0.12513924" width="1.2502785" y="-0.32663372" height="1.6532674">
      <feGaussianBlur inkscape:collect="always" stdDeviation="1.9634296" id="feGaussianBlur3445"/>
    </filter>
  </defs>
  <sodipodi:namedview id="base" pagecolor="#ffffff" bordercolor="#666666" borderopacity="1.0" gridtolerance="10000" guidetolerance="10" objecttolerance="10" inkscape:pageopacity="0.0" inkscape:pageshadow="2" inkscape:zoom="1" inkscape:cx="64" inkscape:cy="64" inkscape:document-units="px" inkscape:current-layer="layer1" showgrid="false" inkscape:window-width="1538" inkscape:window-height="961" inkscape:window-x="127" inkscape:window-y="31"/>
  <g inkscape:label="Layer 1" inkscape:groupmode="layer" id="layer1">
    <path style="fill:#ffcb6c;fill-opacity:1;fill-rule:evenodd;stroke:#9e6400;stroke-width:1px;stroke-linecap:butt;stroke-linejoin:miter;stroke-opacity:1" d="M 24.534175,2.8310249 C 30.762896,13.813366 41.507988,18.736898 53.725582,19.278192 C 63.251356,19.278192 72.004374,20.519031 81.623708,18.217084 C 89.458694,16.819426 98.11245,13.078614 102.68587,6.2796236 C 101.3423,10.501621 100.51035,16.197493 101.39258,21.13513 C 99.90372,27.130342 103.90602,26.049011 105.93938,31.868564 C 98.00625,36.342141 89.56226,43.238219 81.597584,43.24448 C 69.591892,44.810046 58.468194,46.038303 43.739775,42.983115 C 31.728036,40.150977 18.098875,33.39078 10.731589,24.051727 C 13.079162,22.470285 20.649662,15.71597 21.57808,12.115716 C 22.426401,8.9599888 23.019454,5.7413817 24.534175,2.8310249 z" id="path2518" sodipodi:nodetypes="ccccccccccc"/>
    <g id="g3779" transform="translate(-101,-22)"/>
    <path sodipodi:nodetypes="cssssssssssssc" style="fill:#000000;fill-opacity:0.72839505;fill-rule:evenodd;stroke:none;stroke-width:1px;stroke-linecap:butt;stroke-linejoin:miter;stroke-opacity:1;filter:url(#filter3443)" d="M 82.44457,112.73332 C 80.57255,113.33873 76.33098,112.09443 73.5495,111.39906 C 71.19301,110.80994 68.82214,112.5684 67.76771,113.62283 C 66.3544,115.03614 66.04231,117.84008 66.43345,119.40462 C 67.26539,122.73239 71.8158,122.50883 73.99426,122.07314 C 76.00202,121.67159 78.23854,123.35659 80.2208,123.85215 C 82.49713,124.42124 88.73372,123.49166 91.58685,123.49166 C 94.48666,123.49166 102.77081,126.18009 105.64766,124.74166 C 107.87875,123.62612 109.93837,123.96977 111.87421,122.51789 C 113.38657,121.38362 114.10061,119.39406 114.54273,117.62561 C 115.32656,114.49028 112.6661,114.01877 110.9847,113.17808 C 108.8237,112.09758 105.07833,112.76447 103.42389,113.17808 C 101.65061,113.6214 89.35787,110.95431 86.8921,110.95431 C 84.89275,110.95431 85.83268,112.73332 82.44457,112.73332 z" id="path2478" transform="matrix(0.9643297,0,0,0.9643799,-6.2157055,3.9405826)"/>
    <g id="g2584" transform="matrix(0.6980366,-0.6653741,0.6653395,0.6980729,-180.07625,222.65067)">
      <path sodipodi:nodetypes="cccccccc" id="path2480" d="M 282.90062,109.14166 C 285.25587,110.78015 289.23865,110.59283 291.4745,112.98053 C 291.79347,113.92321 291.37392,116.27295 291.37947,117.25895 C 291.08517,118.52704 290.23349,119.25056 289.19524,119.93892 C 286.53017,120.62513 283.77819,119.52159 281.23796,118.73583 C 278.96844,118.3878 276.34255,117.54919 274.95964,115.62483 C 272.7766,113.04226 273.44416,110.91248 274.07585,107.74751 C 277.00471,108.3191 279.93761,108.79309 282.90062,109.14166 z" style="fill:#e6e6e6;fill-rule:evenodd;stroke:#333333;stroke-width:1.03696275px;stroke-linecap:butt;stroke-linejoin:miter;stroke-opacity:1"/>
      <path sodipodi:nodetypes="ccc" id="path2484" d="M 290.50428,118.79357 C 287.60876,120.38172 284.00381,118.69135 281.65911,117.24187 C 278.80865,116.51797 276.29667,115.61369 273.96744,112.45164" style="fill:none;fill-rule:evenodd;stroke:#333333;stroke-width:1.03696275px;stroke-linecap:butt;stroke-linejoin:miter;stroke-opacity:1"/>
    </g>
    <path style="fill:#00325c;fill-opacity:1;fill-rule:evenodd;stroke:#00192e;stroke-width:1px;stroke-linecap:butt;stroke-linejoin:miter;stroke-opacity:1" d="M 87.231989,93.332295 C 89.33147,95.959709 89.1241,96.994161 91.88464,101.22638 C 91.38445,103.68103 92.31451,106.0312 92.48734,108.45923 C 91.99063,110.58931 92.6191,113.95437 91.16139,115.45099 C 88.625214,117.36795 84.734327,117.27832 83.326213,114.84825 C 83.567546,113.88288 83.383909,113.30723 83.808378,112.31675 C 85.048583,109.67518 84.4612,106.66152 84.04946,103.87843 C 83.993799,100.22253 80.070462,97.540367 80.207802,93.881548 C 82.297861,93.109205 85.912709,91.793058 87.231989,93.332295 z" id="path2482" sodipodi:nodetypes="ccccccccc"/>
    <g id="g2600" transform="matrix(0.8143442,0.5165299,-0.516503,0.8143866,-83.434041,-113.01255)">
      <path sodipodi:nodetypes="ccccccc" id="path2492" d="M 260.4617,110.09096 C 257.29681,110.7594 254.91139,107.94455 251.97642,113.27294 C 251.37626,113.99187 251.40349,114.68568 251.44609,115.57104 C 252.16159,117.85941 257.52823,119.37504 260.81962,118.84921 C 263.83832,118.88778 266.88947,117.83077 269.38892,116.01298 C 269.96641,114.30345 269.34655,111.98557 269.21214,110.09096 C 266.42816,110.96581 263.26349,110.82408 260.4617,110.09096 z" style="fill:#e6e6e6;fill-rule:evenodd;stroke:#333333;stroke-width:1.03696275px;stroke-linecap:butt;stroke-linejoin:miter;stroke-opacity:1"/>
      <path sodipodi:nodetypes="ccc" id="path2494" d="M 251.51045,115.51818 C 255.26069,117.34371 258.65458,117.94392 262.03998,117.4906 C 265.18371,117.3866 266.81506,115.10188 269.12376,114.95232" style="fill:none;fill-rule:evenodd;stroke:#333333;stroke-width:1.03696275px;stroke-linecap:butt;stroke-linejoin:miter;stroke-opacity:1"/>
    </g>
    <path id="path2496" d="M 73.279999,92.057045 C 73.140017,92.808325 70.205986,97.486773 70.461177,98.762783 C 71.370983,101.45829 71.62954,103.75594 70.955454,106.49851 C 70.420993,109.1888 68.788393,113.56218 70.714371,115.53957 C 73.458439,116.62644 76.217136,117.31911 78.54955,114.93683 C 77.348449,111.22225 78.226847,108.02688 78.799196,104.15817 C 78.827046,100.49307 81.465307,97.483822 81.327013,93.79966 C 79.236953,93.027317 74.59928,90.517807 73.279999,92.057045 z" style="fill:#00325c;fill-opacity:1;fill-rule:evenodd;stroke:#00192e;stroke-width:1px;stroke-linecap:butt;stroke-linejoin:miter;stroke-opacity:1" sodipodi:nodetypes="cccccccc"/>
    <path sodipodi:nodetypes="cccccccccccccccc" id="path2532" d="M 56.987071,72.150943 C 57.044776,68.961522 58.11335,64.032999 60.059521,61.488137 C 61.301443,60.612234 62.515033,62.447662 63.577097,61.04629 C 63.52079,59.650225 62.292311,59.064361 61.1131,58.497181 C 62.334356,56.905228 64.321261,55.745622 62.923417,53.440727 C 61.665362,53.813451 60.626152,54.988172 60.092935,56.09719 C 60.219292,54.711214 61.877312,52.222761 59.11038,52.845624 C 57.692478,53.54311 58.041719,55.018705 57.708389,56.384313 C 57.003715,54.661696 57.138789,52.296806 55.325212,54.709072 C 54.968796,55.876635 55.387942,56.813927 55.833915,57.871433 C 55.769807,59.103827 55.102105,60.282554 54.668851,61.45471 C 52.678127,63.723779 51.715254,66.486112 50.738793,69.301437 C 52.032586,71.886773 49.686256,74.729292 50.710972,77.269388 C 50.924465,78.360912 51.147688,79.303789 51.61966,80.261713 C 54.143455,81.526782 60.892201,82.863522 62.561648,80.615958 C 64.707128,77.492454 63.620926,68.009745 56.987071,72.150943 z" style="fill:#e9d2af;fill-opacity:1;fill-rule:evenodd;stroke:#3f2d10;stroke-width:1px;stroke-linecap:butt;stroke-linejoin:miter;stroke-opacity:1"/>
    <g id="g3331" transform="matrix(-0.4770913,-0.8380863,-0.8380427,0.4771161,248.64431,160.15023)" inkscape:transform-center-x="1.9299876" inkscape:transform-center-y="3.0023827">
      <path sodipodi:nodetypes="cccc" id="path3333" d="M 184,64.5 C 186.13654,64.856224 187.48615,67.309182 190.25,66.5 C 189.41405,64.488957 188.29208,63.2415 186.25,62.5 C 184.58272,62.08318 184.57266,63.354683 184,64.5 z" style="fill:#666666;fill-rule:evenodd;stroke:#333333;stroke-width:1.03696275px;stroke-linecap:butt;stroke-linejoin:miter;stroke-opacity:1"/>
      <path sodipodi:nodetypes="csccc" id="path3335" d="M 186.25,59.875 C 187.98405,59.875 182.77549,61.324015 182,62.875 C 180.9578,64.959402 181.5989,64.994781 183.5,65.375 C 186.45855,65.798837 187.66301,63.750752 188.75,61.375 C 189.32612,60.222757 186.99829,60.062072 186.25,59.875 z" style="fill:#666666;fill-rule:evenodd;stroke:#333333;stroke-width:1.03696275px;stroke-linecap:butt;stroke-linejoin:miter;stroke-opacity:1"/>
    </g>
    <path style="fill:#e9d2af;fill-opacity:1;fill-rule:evenodd;stroke:#3f2d10;stroke-width:1px;stroke-linecap:butt;stroke-linejoin:miter;stroke-opacity:1" d="M 99.78238,50.135061 C 100.8709,47.136603 101.46836,43.547798 100.56286,40.474643 C 99.71708,39.211988 97.9266,40.49089 97.43694,38.802056 C 97.98957,37.518786 99.34637,37.411872 100.65049,37.304745 C 100.08049,35.380938 98.64078,33.586538 100.77143,31.935311 C 101.81251,32.733973 102.362,34.203019 102.46261,35.42945 C 102.84106,34.090171 102.18438,31.172911 104.54462,32.745612 C 105.6186,33.904738 104.764,35.157304 104.58609,36.551713 C 105.86101,35.195823 106.58195,32.939467 107.41116,35.841326 C 107.32573,37.059098 106.59867,37.784042 105.8035,38.611624 C 105.42195,39.785212 105.62314,41.124907 105.60779,42.37449 C 106.65369,45.206102 106.56324,48.13007 106.46651,51.108362 C 104.33254,53.05867 106.22828,57.276377 104.36175,59.280843 C 103.77146,60.464551 102.50207,62.470375 101.71831,63.195679 C 98.90885,63.472712 96.87789,60.129407 96.12427,57.432947 C 95.30281,53.901642 98.67482,52.688408 99.78238,50.135061 z" id="path2528" sodipodi:nodetypes="cccccccccccccccc"/>
    <path style="fill:#1a1a1a;fill-opacity:1;fill-rule:evenodd;stroke:#000000;stroke-width:1px;stroke-linecap:butt;stroke-linejoin:miter;stroke-opacity:1" d="M 95.24184,95.895277 C 92.53679,92.557307 93.06196,87.499472 93.40698,83.676709 C 92.22266,78.896229 94.78734,74.185224 93.77215,69.406326 C 93.32299,66.411193 96.083,63.643799 94.57813,61.032133 C 92.8575,58.705017 88.510362,57.622057 85.589552,57.472752 C 81.842215,58.021648 78.059507,57.515859 74.338457,58.325148 C 71.592731,59.519899 66.80738,60.414033 66.501813,63.377486 C 66.369189,66.052608 69.159496,70.312785 67.919059,72.728171 C 67.545719,77.021002 67.597368,81.870377 68.201511,86.175407 C 69.064075,91.183799 66.861344,92.304398 67.416209,97.299443 C 71.738219,94.825037 75.838434,100.16345 80.745744,99.61407 C 84.861638,98.1426 92.68832,99.016386 95.24184,95.895277 z" id="path2498" sodipodi:nodetypes="cccccccccccc"/>
    <path sodipodi:nodetypes="cccccc" id="path2534" d="M 69.025811,70.205198 C 66.682547,72.96099 67.314434,77.128429 64.689114,80.570452 C 61.211905,78.441234 59.148712,73.636244 56.038141,70.745577 C 57.279118,69.124717 59.936753,67.764273 61.150824,66.115787 C 62.868276,64.002172 64.022521,64.305173 66.058057,62.740865 C 67.781218,61.951197 68.538988,60.537093 71.610118,61.106907" style="fill:#1a1a1a;fill-opacity:1;fill-rule:evenodd;stroke:#000000;stroke-width:0.99999987999999995px;stroke-linecap:butt;stroke-linejoin:miter;stroke-opacity:1"/>
    <path sodipodi:nodetypes="ccccccc" id="path2502" d="M 67.690301,25.197763 C 66.331367,29.827238 68.301107,35.279208 69.514369,39.813568 C 67.756136,45.459172 70.030449,49.583333 75.384736,54.087161 C 81.580506,56.101297 88.513246,55.669135 93.87313,48.992416 C 95.1909,38.020233 93.82249,44.680368 96.31634,35.514635 C 97.14069,23.639741 92.92758,15.590381 81.764895,16.453131 C 74.048512,16.200348 70.736618,20.180053 67.690301,25.197763 z" style="fill:#e9d2af;fill-opacity:1;fill-rule:evenodd;stroke:#3f2d10;stroke-width:0.99999988px;stroke-linecap:butt;stroke-linejoin:miter;stroke-opacity:1"/>
    <path style="fill:#e9d2af;fill-opacity:1;fill-rule:evenodd;stroke:#3f2d10;stroke-width:1px;stroke-linecap:butt;stroke-linejoin:miter;stroke-opacity:1" d="M 78.63337,54.105783 C 77.376607,54.776004 76.433685,56.772678 76.169295,58.576451 C 78.27137,61.058497 84.676313,61.073208 87.743277,58.770806 C 87.139664,56.177801 87.539784,55.810247 85.315644,54.009287" id="path2500" sodipodi:nodetypes="cccc"/>
    <path style="fill:#e9d2af;fill-opacity:1;fill-rule:evenodd;stroke:#3f2d10;stroke-width:1px;stroke-linecap:butt;stroke-linejoin:miter;stroke-opacity:1" d="M 95.63169,30.134501 C 102.78059,27.282606 99.814,37.055793 95.77697,35.923978" id="path2520" sodipodi:nodetypes="cc"/>
    <path sodipodi:nodetypes="cc" id="path2524" d="M 69.096949,32.138319 C 61.626326,30.286443 65.895944,39.564654 69.741276,37.89366" style="fill:#e9d2af;fill-opacity:1;fill-rule:evenodd;stroke:#3f2d10;stroke-width:1px;stroke-linecap:butt;stroke-linejoin:miter;stroke-opacity:1"/>
    <path style="fill:#1a1a1a;fill-opacity:1;fill-rule:evenodd;stroke:#000000;stroke-width:0.99999987999999995px;stroke-linecap:butt;stroke-linejoin:miter;stroke-opacity:1" d="M 91.79465,60.007321 C 92.33286,57.633541 94.91887,56.749523 94.83924,54.332872 C 98.90858,54.586974 101.4754,60.283629 105.5771,61.382228 C 102.83091,64.515072 101.90779,66.027104 99.8595,69.763352 C 98.41787,71.500731 94.13649,74.939862 92.39596,76.497275" id="path2530" sodipodi:nodetypes="ccccc"/>
    <path style="fill:#28170b;fill-opacity:1;fill-rule:evenodd;stroke:#120a04;stroke-width:1px;stroke-linecap:butt;stroke-linejoin:miter;stroke-opacity:1" d="M 69.436094,46.933913 C 68.46839,49.022663 69.337231,50.460048 70.203209,52.38927 C 71.467879,54.199258 72.870709,53.929507 74.9764,54.179309 C 76.388622,53.033081 76.634806,52.732927 76.681113,50.940191 C 76.33733,48.524458 75.894471,49.166067 73.953574,48.127273 C 72.64981,47.792758 70.785741,46.933913 69.436094,46.933913 z" id="path2580" sodipodi:nodetypes="cccccc"/>
    <path sodipodi:nodetypes="cccccc" id="path2582" d="M 94.42527,46.182378 C 95.65496,48.128437 94.97929,49.666117 94.37005,51.691134 C 93.35006,53.649481 91.92413,53.56342 89.86843,54.083449 C 88.31984,53.129486 88.036905,52.863692 87.759159,51.091997 C 87.787665,48.652089 88.309772,49.231037 90.10004,47.949953 C 91.3496,47.449635 93.08696,46.356926 94.42527,46.182378 z" style="fill:#28170b;fill-opacity:1;fill-rule:evenodd;stroke:#120a04;stroke-width:0.99999988px;stroke-linecap:butt;stroke-linejoin:miter;stroke-opacity:1"/>
    <path sodipodi:nodetypes="ccsccc" id="path2506" d="M 82.482974,53.059494 C 98.56117,44.944689 92.43694,43.693778 95.68963,40.129138 C 100.00753,37.508599 100.79073,25.996699 96.1868,19.692614 C 92.78964,15.040935 88.164968,11.310012 82.158795,13.396531 C 67.33483,10.333009 61.652719,30.334296 68.941442,43.063209 C 73.925609,47.212983 71.470329,49.466252 82.482974,53.059494 z" style="fill:#28170b;fill-opacity:1;fill-rule:evenodd;stroke:#120a04;stroke-width:0.99999988px;stroke-linecap:butt;stroke-linejoin:miter;stroke-opacity:1"/>
    <path sodipodi:nodetypes="cssssssssc" style="fill:#28170b;fill-rule:evenodd;stroke:#120a04;stroke-width:0.99999988px;stroke-linecap:butt;stroke-linejoin:miter;stroke-opacity:1" d="M 80.721394,39.563168 C 79.038726,39.764788 84.037242,46.109415 84.514489,47.179655 C 85.254265,48.838668 92.2081,51.297219 93.63495,52.644282 C 94.84684,53.788426 100.40364,53.871567 101.44139,53.31809 C 103.18779,52.386614 105.52267,53.091916 106.51804,53.803351 C 109.624,56.023283 107.39736,52.501517 106.47369,51.257079 C 105.74824,50.279689 103.13776,48.301611 101.78945,48.537736 C 98.22373,49.162195 95.62944,44.859703 94.18,43.169696 C 92.80299,41.564129 89.072702,41.530341 87.062219,41.771236 C 85.806295,41.921718 82.306299,39.670557 80.721394,39.563168 z" id="path2476"/>
    <g id="g3321" transform="matrix(0.9643297,0,0,0.9643799,-158.51045,-55.41033)">
      <path sodipodi:nodetypes="cccc" id="path3319" d="M 184,64.5 C 186.13654,64.856224 187.48615,67.309182 190.25,66.5 C 189.41405,64.488957 188.29208,63.2415 186.25,62.5 C 184.58272,62.08318 184.57266,63.354683 184,64.5 z" style="fill:#666666;fill-rule:evenodd;stroke:#333333;stroke-width:1.03696275px;stroke-linecap:butt;stroke-linejoin:miter;stroke-opacity:1"/>
      <path sodipodi:nodetypes="csccc" id="path3317" d="M 186.25,59.875 C 187.98405,59.875 182.77549,61.324015 182,62.875 C 180.9578,64.959402 181.5989,64.994781 183.5,65.375 C 186.45855,65.798837 187.66301,63.750752 188.75,61.375 C 189.32612,60.222757 186.99829,60.062072 186.25,59.875 z" style="fill:#666666;fill-rule:evenodd;stroke:#333333;stroke-width:1.03696275px;stroke-linecap:butt;stroke-linejoin:miter;stroke-opacity:1"/>
    </g>
    <g transform="matrix(-0.9643297,0,0,0.9643799,281.8995,-51.121219)" id="g3325">
      <path style="fill:#666666;fill-rule:evenodd;stroke:#333333;stroke-width:1.03696275px;stroke-linecap:butt;stroke-linejoin:miter;stroke-opacity:1" d="M 184,64.5 C 186.13654,64.856224 187.48615,67.309182 190.25,66.5 C 189.41405,64.488957 188.29208,63.2415 186.25,62.5 C 184.58272,62.08318 184.57266,63.354683 184,64.5 z" id="path3327" sodipodi:nodetypes="cccc"/>
      <path style="fill:#666666;fill-rule:evenodd;stroke:#333333;stroke-width:1.03696275px;stroke-linecap:butt;stroke-linejoin:miter;stroke-opacity:1" d="M 186.25,59.875 C 187.98405,59.875 182.77549,61.324015 182,62.875 C 180.9578,64.959402 181.5989,64.994781 183.5,65.375 C 186.45855,65.798837 187.66301,63.750752 188.75,61.375 C 189.32612,60.222757 186.99829,60.062072 186.25,59.875 z" id="path3329" sodipodi:nodetypes="csccc"/>
    </g>
    <g transform="matrix(0.6306227,-0.7295904,0.7295525,0.6306555,-154.22016,121.47646)" id="g3337">
      <path style="fill:#666666;fill-rule:evenodd;stroke:#333333;stroke-width:1.03696275px;stroke-linecap:butt;stroke-linejoin:miter;stroke-opacity:1" d="M 184,64.5 C 186.13654,64.856224 187.48615,67.309182 190.25,66.5 C 189.41405,64.488957 188.29208,63.2415 186.25,62.5 C 184.58272,62.08318 184.57266,63.354683 184,64.5 z" id="path3339" sodipodi:nodetypes="cccc"/>
      <path style="fill:#666666;fill-rule:evenodd;stroke:#333333;stroke-width:1.03696275px;stroke-linecap:butt;stroke-linejoin:miter;stroke-opacity:1" d="M 186.25,59.875 C 187.98405,59.875 182.77549,61.324015 182,62.875 C 180.9578,64.959402 181.5989,64.994781 183.5,65.375 C 186.45855,65.798837 187.66301,63.750752 188.75,61.375 C 189.32612,60.222757 186.99829,60.062072 186.25,59.875 z" id="path3341" sodipodi:nodetypes="csccc"/>
    </g>
    <path style="fill:none;fill-rule:evenodd;stroke:none;stroke-width:1px;stroke-linecap:butt;stroke-linejoin:miter;stroke-opacity:1" d="M 19.263978,21.707891 C 30.472151,35.060669 55.792721,39.520419 65.798422,39.507703" id="path3347" sodipodi:nodetypes="cc"/>
    <path style="font-size:12px;font-style:normal;font-variant:normal;font-weight:normal;font-stretch:normal;fill:#ffffff;fill-opacity:1;stroke:none;stroke-width:1px;stroke-linecap:butt;stroke-linejoin:miter;stroke-opacity:1;font-family:Rufscript;-inkscape-font-specification:Rufscript" d="M 74.860995,70.99541 C 74.734651,71.01427 74.557575,71.12021 74.642202,70.899805 C 74.531046,69.921157 74.197051,68.982985 74.079947,68.004439 C 74.015533,67.525829 73.946353,67.044843 73.931882,66.562289 C 74.043663,66.286535 74.37964,66.219462 74.634056,66.129855 C 75.168943,65.985541 75.720658,65.888821 76.271544,65.843053 C 76.55901,65.964318 76.769213,66.218384 76.971018,66.448133 C 77.238536,66.771357 77.187224,67.248887 76.944731,67.570276 C 76.673972,68.011236 76.188771,68.247485 75.879447,68.652213 C 75.641573,68.894752 75.795108,69.264017 76.089626,69.368138 C 76.467295,69.553599 76.907968,69.628855 77.219571,69.933569 C 77.39341,70.105044 77.58258,70.315327 77.595946,70.5695 C 77.369438,70.752639 76.922385,70.761616 76.718225,70.500508 C 76.474493,70.331363 76.255169,70.092594 75.997838,69.962277 C 75.73342,69.909721 75.49712,69.356777 75.242138,69.757268 C 75.111516,70.029222 75.191776,70.348647 75.198505,70.64001 C 75.246463,70.785291 75.053098,70.822993 74.9733,70.911345 C 74.935865,70.939368 74.898429,70.967388 74.860995,70.99541 z M 74.978428,68.629736 C 75.49792,68.25825 76.053523,67.889159 76.403867,67.341783 C 76.571894,67.112739 76.51266,66.761155 76.243048,66.64082 C 75.826701,66.401417 75.328351,66.537396 74.883398,66.604886 C 74.46479,66.594867 74.711831,67.096937 74.743789,67.339578 C 74.854891,67.762186 74.898893,68.200234 74.978428,68.629736 z M 79.689852,70.299145 C 79.61423,69.622244 79.584569,68.930647 79.357535,68.282253 C 79.222488,67.82166 79.089771,67.360387 78.957743,66.89892 C 78.722955,66.711082 78.371041,66.799435 78.086598,66.783297 C 77.742698,66.802122 77.2692,66.785079 77.126237,66.403463 C 77.058579,66.103374 77.597963,66.213015 77.791682,66.11754 C 78.88026,65.956015 79.971975,65.752482 81.076196,65.76116 C 81.327991,65.758427 81.807693,65.806001 81.700436,66.171551 C 81.532716,66.426754 81.17929,66.42659 80.906697,66.469567 C 80.58568,66.507686 80.262684,66.534163 79.943572,66.585603 C 79.739445,66.942973 79.960246,67.348963 80.059577,67.705799 C 80.259272,68.458307 80.363504,69.23776 80.385326,70.015508 C 80.434594,70.319932 80.263136,70.631704 79.91401,70.494732 C 79.810271,70.479448 79.696643,70.416258 79.689852,70.299145 z M 83.01733,68.299162 C 82.83986,68.53465 83.112429,68.882736 83.191195,69.139054 C 83.311911,69.423998 83.512496,69.743617 83.394662,70.059165 C 83.197552,70.327709 82.675137,70.248865 82.636335,69.883891 C 82.379069,68.89138 82.236917,67.873092 82.069643,66.862589 C 82.033859,66.535503 81.946393,66.203022 81.986311,65.874858 C 82.285995,65.518999 82.777063,65.426641 83.205335,65.313662 C 83.622751,65.235989 84.060536,65.111899 84.48229,65.218639 C 84.656536,65.381742 85.047087,65.61655 84.973604,65.871075 C 84.317661,65.890349 83.632835,65.831319 83.003642,66.061573 C 82.670554,66.190463 82.812417,66.631027 82.833988,66.901019 C 82.835236,67.237134 83.04436,67.632636 83.435876,67.568139 C 83.880702,67.55145 84.300524,67.212278 84.751782,67.361203 C 85.145718,67.547866 84.837275,68.00002 84.515784,68.04001 C 84.034286,68.204273 83.522031,68.25921 83.01733,68.299162 z M 89.677656,70.398641 C 89.514499,70.028551 89.500316,69.610541 89.43303,69.214915 C 89.254327,67.919521 89.189805,66.610173 88.987952,65.318047 C 88.915765,65.26358 88.777875,65.649381 88.680686,65.757255 C 88.433428,66.148745 88.098703,66.498947 87.771421,66.808884 C 87.956849,66.949185 88.41779,67.085507 88.342187,67.342774 C 88.151518,67.693751 87.752734,67.61006 87.547797,67.329966 C 87.016652,66.898417 86.491231,66.458883 85.946639,66.044483 C 86.139814,67.181452 86.345378,68.317789 86.480245,69.463399 C 86.524999,69.776294 86.074559,70.014745 85.846981,69.801096 C 85.654634,69.542579 85.682252,69.19474 85.614884,68.892516 C 85.477469,67.85055 85.343476,66.807152 85.255161,65.759808 C 85.219252,65.435842 85.576152,65.299176 85.843471,65.331861 C 86.179458,65.399807 86.494199,65.607792 86.65699,65.915422 C 86.814216,66.086055 87.015338,66.549273 87.269966,66.369835 C 87.596374,65.957677 87.935615,65.55447 88.253978,65.136702 C 88.402474,64.876933 88.674317,64.661297 88.667052,64.338233 C 88.794672,64.101968 89.329667,63.9952 89.376827,64.350622 C 89.524483,65.010738 89.590183,65.686354 89.729298,66.348294 C 89.895632,67.377451 89.98154,68.420665 90.203807,69.44006 C 90.303445,69.704743 90.408297,70.035829 90.132573,70.240527 C 90.027019,70.347361 89.827724,70.559463 89.677656,70.398641 z" id="text2422"/>
  </g>
  <metadata>
    <rdf:RDF>
      <cc:Work>
        <dc:format>image/svg+xml</dc:format>
        <dc:type rdf:resource="http://purl.org/dc/dcmitype/StillImage"/>
        <cc:license rdf:resource="http://creativecommons.org/licenses/publicdomain/"/>
        <dc:publisher>
          <cc:Agent rdf:about="http://openclipart.org/">
            <dc:title>Open Clip Art Library</dc:title>
          </cc:Agent>
        </dc:publisher>
        <dc:title>Comic characters:  Putting a banner</dc:title>
        <dc:date>2009-03-05T13:56:35</dc:date>
        <dc:description>Comic characters: a bearded guy nailing a banner</dc:description>
        <dc:source>http://openclipart.org/detail/21845/comic-characters:--putting-a-banner-by-nicubunu</dc:source>
        <dc:creator>
          <cc:Agent>
            <dc:title>nicubunu</dc:title>
          </cc:Agent>
        </dc:creator>
        <dc:subject>
          <rdf:Bag>
            <rdf:li>cartoon</rdf:li>
            <rdf:li>cartoon</rdf:li>
            <rdf:li>character</rdf:li>
            <rdf:li>character</rdf:li>
            <rdf:li>clip art</rdf:li>
            <rdf:li>clipart</rdf:li>
            <rdf:li>comic</rdf:li>
            <rdf:li>comic</rdf:li>
            <rdf:li>funny</rdf:li>
            <rdf:li>funny</rdf:li>
            <rdf:li>guy</rdf:li>
            <rdf:li>guy</rdf:li>
            <rdf:li>human</rdf:li>
            <rdf:li>human</rdf:li>
            <rdf:li>image</rdf:li>
            <rdf:li>media</rdf:li>
            <rdf:li>people</rdf:li>
            <rdf:li>people</rdf:li>
            <rdf:li>png</rdf:li>
            <rdf:li>public domain</rdf:li>
            <rdf:li>svg</rdf:li>
          </rdf:Bag>
        </dc:subject>
      </cc:Work>
      <cc:License rdf:about="http://creativecommons.org/licenses/publicdomain/">
        <cc:permits rdf:resource="http://creativecommons.org/ns#Reproduction"/>
        <cc:permits rdf:resource="http://creativecommons.org/ns#Distribution"/>
        <cc:permits rdf:resource="http://creativecommons.org/ns#DerivativeWorks"/>
      </cc:License>
    </rdf:RDF>
  </metadata>
</svg>
