<?xml version="1.0" encoding="UTF-8" standalone="no"?>
<!-- Created with Inkscape (http://www.inkscape.org/) -->
<svg xmlns:dc="http://purl.org/dc/elements/1.1/" xmlns:cc="http://creativecommons.org/ns#" xmlns:rdf="http://www.w3.org/1999/02/22-rdf-syntax-ns#" xmlns:svg="http://www.w3.org/2000/svg" xmlns="http://www.w3.org/2000/svg" xmlns:sodipodi="http://sodipodi.sourceforge.net/DTD/sodipodi-0.dtd" xmlns:inkscape="http://www.inkscape.org/namespaces/inkscape" width="128" height="128" id="svg2" sodipodi:version="0.32" inkscape:version="0.46" version="1.0" sodipodi:docname="togas.svg" inkscape:output_extension="org.inkscape.output.svg.inkscape" inkscape:export-xdpi="90" inkscape:export-ydpi="90">
  <defs id="defs4">
    <filter inkscape:collect="always" id="filter3443" x="-0.12513924" width="1.2502785" y="-0.32663372" height="1.6532674">
      <feGaussianBlur inkscape:collect="always" stdDeviation="1.9634296" id="feGaussianBlur3445"/>
    </filter>
  </defs>
  <sodipodi:namedview id="base" pagecolor="#ffffff" bordercolor="#666666" borderopacity="1.0" gridtolerance="10000" guidetolerance="10" objecttolerance="10" inkscape:pageopacity="0" inkscape:pageshadow="2" inkscape:zoom="1" inkscape:cx="242.36921" inkscape:cy="50.049046" inkscape:document-units="px" inkscape:current-layer="g3285" showgrid="false" inkscape:window-width="1328" inkscape:window-height="956" inkscape:window-x="344" inkscape:window-y="42" showguides="true" inkscape:guide-bbox="true"/>
  <g inkscape:label="Layer 1" inkscape:groupmode="layer" id="layer1">
    <path id="path3018" d="M 373.74766,21.565684 C 368.28292,21.988064 366.92483,18.305804 362.25278,22.455194 C 360.83947,23.868504 360.52738,26.672444 360.91852,28.236984 C 363.79312,32.088004 366.91713,31.116624 371.52389,32.684514 C 373.80022,33.253604 375.78681,33.574024 378.63994,33.574024 C 381.53975,33.574024 383.3239,35.012454 386.20075,33.574024 C 388.43184,32.458484 390.49146,32.802134 392.4273,31.350254 C 393.93966,30.215984 394.6537,28.226424 395.09582,26.457974 C 395.87965,23.322644 393.21919,22.851134 391.53779,22.010444 C 389.37679,20.929944 385.63142,21.596834 383.97698,22.010444 C 382.2037,22.453764 380.66096,19.786674 378.19519,19.786674 C 376.19584,19.786674 377.13577,21.565684 373.74766,21.565684 z" style="fill:#000000;fill-opacity:0.72839505;fill-rule:evenodd;stroke:none;stroke-width:1px;stroke-linecap:butt;stroke-linejoin:miter;stroke-opacity:1;filter:url(#filter3443)" sodipodi:nodetypes="ccccsssssssc" transform="matrix(-1,0,0,1,445,89)"/>
    <g transform="translate(-237.48788,-101.70871)" id="g3765"/>
    <g id="g4184" transform="translate(-302.48787,-113.70871)"/>
    <g id="g3779" transform="translate(88.09126,418.29129)"/>
    <g id="g2603" transform="translate(-380,-84)">
      <g id="g3285">
        <path style="fill:#7f0c11;fill-opacity:1;fill-rule:evenodd;stroke:#560512;stroke-width:1px;stroke-linecap:butt;stroke-linejoin:miter;stroke-opacity:1" d="M 426.91572,138.07255 L 412.77358,158.57864 L 421.96597,166.35682 C 421.96597,166.35682 434.51712,145.32039 433.27968,144.43651 C 432.04224,143.55262 427.0925,138.07255 426.91572,138.07255 z" id="path3283"/>
        <path style="fill:#e9d2af;fill-opacity:1;fill-rule:evenodd;stroke:#3f2d10;stroke-width:1px;stroke-linecap:butt;stroke-linejoin:miter;stroke-opacity:1" d="M 448.71493,143.15137 C 447.99696,141.59249 457.52806,147.42616 461.23876,151.31785 C 463.91028,150.46404 470.49272,147.94528 472.95692,146.55044 C 474.80578,145.61498 476.07125,143.36716 475.15599,141.07049 C 474.91331,139.57292 475.44009,138.33686 476.62604,137.70084 C 477.68194,138.38624 477.63987,139.68843 477.80238,140.90347 C 479.20843,140.98252 480.54057,138.67818 482.09686,138.22347 C 484.53785,139.53116 481.39823,141.7035 479.84645,142.13834 C 481.40389,142.03051 483.69202,140.67239 484.76246,140.60587 C 485.56797,142.51852 482.36939,143.90266 480.67148,144.26495 C 482.52694,143.83814 484.20117,142.52088 484.59737,144.72568 C 483.80187,146.46054 481.66345,146.53105 479.98182,147.0894 C 477.3886,148.24532 466.30221,156.29781 463.56906,157.14462 C 459.41385,157.69942 449.90714,153.4737 445.74032,152.47202 C 443.87202,150.11294 448.04698,145.33104 448.71493,143.15137 z" id="path2647" sodipodi:nodetypes="ccccccccccccccc"/>
        <path sodipodi:nodetypes="ccccc" id="path3279" d="M 430.98158,160.87674 C 441.31491,164.65166 443.11635,161.12934 450.25024,158.04831 C 452.90663,164.51171 453.53928,169.38891 451.48767,182.4435 L 427.09249,185.80226 C 428.86758,176.14075 425.03739,169.37338 430.98158,160.87674 z" style="fill:#7f0c11;fill-opacity:1;fill-rule:evenodd;stroke:#560512;stroke-width:1px;stroke-linecap:butt;stroke-linejoin:miter;stroke-opacity:1" inkscape:transform-center-x="-9.1923882"/>
        <path style="fill:#e9d2af;fill-opacity:1;fill-rule:evenodd;stroke:#3f2d10;stroke-width:1px;stroke-linecap:butt;stroke-linejoin:miter;stroke-opacity:1" d="M 454.3125,146.75 C 454.48401,144.1774 450.92022,140.71647 446.8125,138.03125 C 447.25811,137.62941 447.61235,137.14138 447.84375,136.53125 C 448.23259,134.79 447.5507,130.85561 445.8125,129.5 C 443.92407,128.95005 442.00041,128.39336 440.03125,128.4375 C 439.74994,128.44381 439.47085,128.46765 439.1875,128.5 C 436.81931,129.65094 435.87779,132.10183 434.84375,134.375 C 433.1777,135.05778 429.62983,136.6041 427.90625,138.0625 C 425.60816,140.00704 423.05361,147.6198 423.9375,150.625 C 424.82139,153.63021 431.1904,162.72835 430.4375,164.78125 C 429.71685,166.74621 428.26357,174.44778 431.34375,176.78125 C 432.67262,177.78797 436.84565,184.92987 430.96875,195.70343 C 430.39668,198.06602 430.05334,199.18392 432.03125,201.71875 C 433.69123,201.5579 441.93664,206.46907 444.50904,206.31954 C 446.3429,206.21294 446.48106,205.29491 446.34682,204.653 C 447.53313,204.81601 448.3313,204.57067 448.1633,203.58674 C 448.89208,203.74595 449.91753,203.09163 449.46875,201.9375 C 448.91643,200.71058 447.26982,200.80702 445.65811,200.46772 C 443.53457,200.02068 441.65151,199.28915 440.6875,197.9375 C 438.36855,197.11665 438.75452,194.11769 439.17586,192.97579 C 441.59932,186.40772 439.46114,170.48963 440,171.65625 C 440.86781,168.60424 446.37908,189.70105 444.46875,195.25 C 444.2999,199.99022 447.71088,197.71973 455.12438,201.7398 C 457.59491,203.34533 458.57876,202.09092 459.17534,200.99243 C 461.00779,201.70459 461.26946,201.04781 461.19701,200.10386 C 461.94807,199.74884 463.55137,199.29365 462.09375,198.71875 C 461.08067,193.2864 450.84674,197.447 451.125,191.625 C 451.3127,187.6977 450.11666,171.78773 448.65809,170.0769 C 447.11207,168.26351 453.92908,159.45023 450.36571,149.89124" id="path3266" sodipodi:nodetypes="cccccccssssccscccscsccccccsss"/>
        <path style="fill:#e9d2af;fill-opacity:1;fill-rule:evenodd;stroke:#3f2d10;stroke-width:1px;stroke-linecap:butt;stroke-linejoin:miter;stroke-opacity:1" d="M 431.67434,147.88727 C 433.16897,151.33691 427.45449,159.95158 426.79934,162.76227 C 426.24638,166.02349 426.30415,169.79563 427.79934,172.76227 C 428.89697,173.89307 430.48579,172.25549 431.29934,173.88727 C 430.97417,175.29913 429.60986,175.66049 428.29934,176.01227 C 429.23856,177.86881 431.04097,179.43162 429.17434,181.51227 C 427.96375,180.89112 427.13002,179.49468 426.79934,178.26227 C 426.66227,179.69888 427.87463,182.55275 425.17434,181.38727 C 423.86315,180.40452 424.5021,178.96783 424.42434,177.51227 C 423.3758,179.13252 423.05984,181.56835 421.67434,178.76227 C 421.53506,177.5041 422.142,176.62937 422.79934,175.63727 C 422.97038,174.36911 422.51603,173.03986 422.29934,171.76227 C 420.70584,169.06814 420.25443,166.0685 419.79934,163.01227 C 421.61374,160.6259 419.76784,157.27916 421.29934,154.88727 C 420.67025,153.99192 422.98653,140.61009 426.42434,139.26227" id="path2645" sodipodi:nodetypes="ccccccccccccccc"/>
        <path style="fill:#7f0c11;fill-opacity:1;fill-rule:evenodd;stroke:#560512;stroke-width:1px;stroke-linecap:butt;stroke-linejoin:miter;stroke-opacity:1" d="M 426.03184,140.19386 C 433.38788,146.12836 435.17231,153.32826 436.10811,164.76583 L 449.54314,163.35162 C 447.46273,152.97663 442.31317,144.49954 430.80481,135.06734 C 428.28224,135.998 426.33618,136.13448 426.03184,140.19386 z" id="path3281" sodipodi:nodetypes="ccccc"/>
        <path style="fill:#7f0c11;fill-opacity:1;fill-rule:evenodd;stroke:#560512;stroke-width:1px;stroke-linecap:butt;stroke-linejoin:miter;stroke-opacity:1" d="M 429.3906,162.99806 C 439.72393,166.77298 445.94478,162.19 453.07867,159.10897 C 455.73506,165.57237 456.36771,170.44957 454.3161,183.50416 L 430.0977,185.62548 C 431.87279,176.4943 433.69945,170.78759 429.3906,162.99806 z" id="path3277" sodipodi:nodetypes="ccccc"/>
        <path style="fill:#e9d2af;fill-opacity:1;fill-rule:evenodd;stroke:#3f2d10;stroke-width:1px;stroke-linecap:butt;stroke-linejoin:miter;stroke-opacity:1" d="M 445.09665,91.177599 C 455.54732,91.116394 459.68145,98.011648 459.8209,106.98027 C 459.8209,108.85643 458.95371,112.54889 458.48879,114.40857 C 458.7052,118.07032 459.61243,120.83729 458.53168,124.41162 C 457.27482,129.46835 453.87824,132.16001 448.98574,133.25045 C 444.6426,133.16517 438.80567,131.69017 435.55072,128.65426 C 430.89017,124.84072 429.48703,118.386 427.77254,112.74436 C 427.16313,107.35543 429.77765,102.21444 431.30808,97.188007 C 433.43934,91.687685 439.88537,90.407745 445.09665,91.177599 z" id="path2550" sodipodi:nodetypes="ccccccccc"/>
        <path style="fill:#28170b;fill-rule:evenodd;stroke:#120a04;stroke-width:1px;stroke-linecap:butt;stroke-linejoin:miter;stroke-opacity:1" d="M 458.53168,98.248667 C 459.17632,88.386212 432.27682,85.129697 430.87242,92.927599 C 423.31601,93.507823 423.2779,112.8649 425.1549,119.52621 C 432.95076,119.44679 428.89715,110.4149 433.4294,108.14816 C 435.3604,107.66541 436.00568,109.14579 437.67203,109.56238 C 441.20152,107.29383 437.63192,100.31414 443.32889,97.895113 C 446.11063,99.019316 449.63647,100.75432 452.52127,97.895113 C 454.98701,97.895113 456.43187,99.08859 458.53168,98.248667 z" id="path2554" sodipodi:nodetypes="cccccccc"/>
        <path style="fill:#28170b;fill-rule:evenodd;stroke:#120a04;stroke-width:1px;stroke-linecap:butt;stroke-linejoin:miter;stroke-opacity:1" d="M 426.27838,118.12761 C 427.85793,118.12761 425.13754,123.7516 424.86416,124.84513 C 424.44038,126.54025 421.37226,129.02959 420.26797,130.50198 C 419.33002,131.75258 415.29816,130.56467 414.25756,130.14843 C 412.50631,129.44792 410.46708,130.40337 409.66137,131.20909 C 407.14719,133.72326 408.65062,130.04859 409.30781,128.73421 C 409.82397,127.70189 412.18232,126.31317 413.1969,125.55223 C 414.92162,124.25869 415.2729,122.76912 416.73243,121.30959 C 418.12536,119.91666 419.79491,119.89538 421.68218,119.89538 C 422.86115,119.89538 424.83664,118.41596 426.27838,118.12761 z" id="path2556"/>
        <path style="fill:#28170b;fill-rule:evenodd;stroke:#120a04;stroke-width:1px;stroke-linecap:butt;stroke-linejoin:miter;stroke-opacity:1" d="M 459.71171,130.7632 C 459.0558,132.07502 457.72315,132.8882 456.05546,132.8882 C 453.42896,133.64549 450.88776,134.82395 448.27421,135.73195 C 444.8425,136.61381 442.34179,134.86222 439.80546,132.8882 C 435.53163,130.67845 431.10344,126.91706 430.21172,121.98195 C 429.96172,119.9144 430.77577,119.91945 431.96172,120.29445 C 433.93181,122.30487 436.3998,124.42936 439.08671,125.48195 C 442.49075,126.44895 445.18762,126.89722 446.14921,122.98195 C 447.27825,119.73912 450.92393,118.80805 453.93046,118.04445 C 460.32095,117.76837 461.71532,126.10512 459.71171,130.7632 z M 453.99296,121.98195 C 450.90924,120.67979 444.48355,128.61084 450.05546,128.29445 C 452.39635,127.51484 452.88319,125.99965 454.27421,127.9507 C 459.23507,129.45445 457.27903,123.22824 453.99296,121.98195 z" id="path2558" sodipodi:nodetypes="cccccccccccccc"/>
        <path style="fill:#ffffff;fill-rule:evenodd;stroke:#333333;stroke-width:1px;stroke-linecap:butt;stroke-linejoin:miter;stroke-opacity:1" d="M 450.64921,107.48195 C 452.01514,110.48043 450.95825,112.23856 448.0331,111.80517 C 447.13453,112.20078 445.26241,110.00889 445.69211,108.55517 C 445.37053,104.65102 448.755,104.56628 450.64921,107.48195 z" id="path2565" sodipodi:nodetypes="cccc"/>
        <path style="fill:#ffffff;fill-rule:evenodd;stroke:#333333;stroke-width:1px;stroke-linecap:butt;stroke-linejoin:miter;stroke-opacity:1" d="M 456.64921,105.48195 C 459.00293,106.01052 460.10754,107.80821 459.64921,110.48195 C 456.93185,115.49987 451.76416,108.28014 456.64921,105.48195 z" id="path2567" sodipodi:nodetypes="ccc"/>
        <path style="fill:#e9d2af;fill-opacity:1;fill-rule:evenodd;stroke:#3f2d10;stroke-width:1px;stroke-linecap:butt;stroke-linejoin:miter;stroke-opacity:1" d="M 453.14921,109.23195 C 453.56479,111.64252 455.89818,112.76469 457.14921,113.98195 C 457.78842,116.65676 457.4045,118.57576 454.39921,117.98195 C 452.29927,117.00629 451.45623,115.38788 451.14921,113.23195" id="path2569" sodipodi:nodetypes="cccc"/>
        <path style="fill:#e9d2af;fill-opacity:1;fill-rule:evenodd;stroke:#3f2d10;stroke-width:1px;stroke-linecap:butt;stroke-linejoin:miter;stroke-opacity:1" d="M 435.64922,109.73195 C 429.78584,107.40243 430.81901,116.08612 435.14922,115.23195" id="path2571" sodipodi:nodetypes="cc"/>
        <path style="fill:#e9d2af;fill-opacity:1;fill-rule:evenodd;stroke:#3f2d10;stroke-width:1px;stroke-linecap:butt;stroke-linejoin:miter;stroke-opacity:1" d="M 434.52422,111.10695 C 433.67314,109.61401 431.43173,112.28674 434.52422,113.73195" id="path2573" sodipodi:nodetypes="cs"/>
        <path style="fill:none;fill-rule:evenodd;stroke:#3f2d10;stroke-width:1px;stroke-linecap:butt;stroke-linejoin:miter;stroke-opacity:1" d="M 455.64921,125.23195 C 454.68436,125.64109 451.95009,125.42327 450.27421,125.23195" id="path2575" sodipodi:nodetypes="cc"/>
        <path style="fill:#000000;fill-rule:evenodd;stroke:#000000;stroke-width:1px;stroke-linecap:butt;stroke-linejoin:miter;stroke-opacity:1" d="M 448.32599,109.26227 C 447.93945,108.90562 450.203,108.2401 450.07599,110.26227 C 449.97755,111.82962 448.08312,112.20281 447.45099,111.76227 C 446.18138,110.87747 447.71361,108.94957 448.32599,109.26227 z" id="path2577" sodipodi:nodetypes="cssc"/>
        <path style="fill:#000000;fill-rule:evenodd;stroke:#000000;stroke-width:1px;stroke-linecap:butt;stroke-linejoin:miter;stroke-opacity:1" d="M 457.14921,108.87839 C 456.69187,107.92968 459.32637,108.69073 458.64921,110.87839 C 458.18187,112.38819 456.52451,111.45933 456.39921,111.37839 C 454.71886,110.29303 456.0777,107.52615 457.14921,108.87839 z" id="path2579" sodipodi:nodetypes="cssc"/>
        <path style="fill:none;fill-rule:evenodd;stroke:#3f2d10;stroke-width:1px;stroke-linecap:butt;stroke-linejoin:miter;stroke-opacity:1" d="M 442.38368,203.30315 C 444.30968,203.83977 447.3278,204.31215 445.47728,205.07092" id="path3269" sodipodi:nodetypes="cc"/>
        <path style="fill:none;fill-rule:evenodd;stroke:#3f2d10;stroke-width:1px;stroke-linecap:butt;stroke-linejoin:miter;stroke-opacity:1" d="M 444.68178,202.24249 C 446.42199,202.52477 447.84272,203.1242 447.95214,203.6567" id="path3271" sodipodi:nodetypes="cc"/>
        <path sodipodi:nodetypes="cc" id="path3273" d="M 455.1116,199.1489 C 457.0376,199.68552 460.05572,200.1579 458.2052,200.91667" style="fill:none;fill-rule:evenodd;stroke:#3f2d10;stroke-width:1px;stroke-linecap:butt;stroke-linejoin:miter;stroke-opacity:1"/>
        <path sodipodi:nodetypes="cc" id="path3275" d="M 458.26326,197.78018 C 460.00347,198.06246 460.9242,199.41189 461.03362,199.94439" style="fill:none;fill-rule:evenodd;stroke:#3f2d10;stroke-width:1px;stroke-linecap:butt;stroke-linejoin:miter;stroke-opacity:1"/>
      </g>
      <path sodipodi:nodetypes="cccc" id="path2539" d="M 425.5,139.875 C 425.28672,138.10169 424.96896,135.77615 426.625,135 C 428.5058,133.02921 437.50137,133.85402 431,140.125 C 430.3076,140.89736 427.38009,139.9934 425.5,139.875 z" style="fill:#fdff00;fill-opacity:1;fill-rule:evenodd;stroke:#804500;stroke-width:1px;stroke-linecap:butt;stroke-linejoin:miter;stroke-opacity:1"/>
      <path id="path2543" d="M 428.875,136 L 427.625,138.25" style="fill:#fdff00;fill-rule:evenodd;stroke:#804500;stroke-width:1px;stroke-linecap:butt;stroke-linejoin:miter;stroke-opacity:1;fill-opacity:1"/>
      <path style="fill:#fdff00;fill-rule:evenodd;stroke:#804500;stroke-width:1px;stroke-linecap:butt;stroke-linejoin:miter;stroke-opacity:1;fill-opacity:1" d="M 429.50834,137.39486 L 426.99166,136.85514" id="path2545"/>
      <path sodipodi:nodetypes="cc" id="path2547" d="M 443,141.125 C 441.76726,140.73064 440.78655,140.96638 440.875,143.875" style="fill:none;fill-rule:evenodd;stroke:#120a04;stroke-width:1px;stroke-linecap:butt;stroke-linejoin:miter;stroke-opacity:1"/>
      <path style="fill:none;fill-rule:evenodd;stroke:#120a04;stroke-width:1px;stroke-linecap:butt;stroke-linejoin:miter;stroke-opacity:1" d="M 447.37755,145.44284 C 446.49855,144.49283 445.52883,144.21535 444.17425,146.79081" id="path2549" sodipodi:nodetypes="cc"/>
      <path sodipodi:nodetypes="cc" id="path2551" d="M 449.37755,149.44284 C 448.49855,148.49283 447.52883,148.21535 446.17425,150.79081" style="fill:none;fill-rule:evenodd;stroke:#120a04;stroke-width:1px;stroke-linecap:butt;stroke-linejoin:miter;stroke-opacity:1"/>
      <path style="fill:none;fill-rule:evenodd;stroke:#120a04;stroke-width:1px;stroke-linecap:butt;stroke-linejoin:miter;stroke-opacity:1" d="M 448.00255,142.06784 C 447.12355,141.11783 446.15383,140.84035 444.79925,143.41581" id="path2553" sodipodi:nodetypes="cc"/>
    </g>
  </g>
  <metadata>
    <rdf:RDF>
      <cc:Work>
        <dc:format>image/svg+xml</dc:format>
        <dc:type rdf:resource="http://purl.org/dc/dcmitype/StillImage"/>
        <cc:license rdf:resource="http://creativecommons.org/licenses/publicdomain/"/>
        <dc:publisher>
          <cc:Agent rdf:about="http://openclipart.org/">
            <dc:title>Open Clip Art Library</dc:title>
          </cc:Agent>
        </dc:publisher>
        <dc:title>Comic characters: Toga</dc:title>
        <dc:date>2009-03-05T15:52:29</dc:date>
        <dc:description>Comic characters: bearded guy wearing a toga</dc:description>
        <dc:source>http://openclipart.org/detail/21923/comic-characters:-toga-by-nicubunu</dc:source>
        <dc:creator>
          <cc:Agent>
            <dc:title>nicubunu</dc:title>
          </cc:Agent>
        </dc:creator>
        <dc:subject>
          <rdf:Bag>
            <rdf:li>cartoon</rdf:li>
            <rdf:li>cartoon</rdf:li>
            <rdf:li>character</rdf:li>
            <rdf:li>character</rdf:li>
            <rdf:li>clip art</rdf:li>
            <rdf:li>clipart</rdf:li>
            <rdf:li>comic</rdf:li>
            <rdf:li>comic</rdf:li>
            <rdf:li>funny</rdf:li>
            <rdf:li>funny</rdf:li>
            <rdf:li>guy</rdf:li>
            <rdf:li>guy</rdf:li>
            <rdf:li>human</rdf:li>
            <rdf:li>human</rdf:li>
            <rdf:li>image</rdf:li>
            <rdf:li>media</rdf:li>
            <rdf:li>people</rdf:li>
            <rdf:li>people</rdf:li>
            <rdf:li>png</rdf:li>
            <rdf:li>public domain</rdf:li>
            <rdf:li>svg</rdf:li>
          </rdf:Bag>
        </dc:subject>
      </cc:Work>
      <cc:License rdf:about="http://creativecommons.org/licenses/publicdomain/">
        <cc:permits rdf:resource="http://creativecommons.org/ns#Reproduction"/>
        <cc:permits rdf:resource="http://creativecommons.org/ns#Distribution"/>
        <cc:permits rdf:resource="http://creativecommons.org/ns#DerivativeWorks"/>
      </cc:License>
    </rdf:RDF>
  </metadata>
</svg>
