<?xml version="1.0" encoding="UTF-8" standalone="no"?>
<!-- Created with Inkscape (http://www.inkscape.org/) -->
<svg xmlns:dc="http://purl.org/dc/elements/1.1/" xmlns:cc="http://creativecommons.org/ns#" xmlns:rdf="http://www.w3.org/1999/02/22-rdf-syntax-ns#" xmlns:svg="http://www.w3.org/2000/svg" xmlns="http://www.w3.org/2000/svg" xmlns:sodipodi="http://sodipodi.sourceforge.net/DTD/sodipodi-0.dtd" xmlns:inkscape="http://www.inkscape.org/namespaces/inkscape" width="128" height="128" id="svg2" sodipodi:version="0.32" inkscape:version="0.46" version="1.0" sodipodi:docname="the-boy.svg" inkscape:output_extension="org.inkscape.output.svg.inkscape">
  <defs id="defs4">
    <filter inkscape:collect="always" id="filter3443" x="-0.12513924" width="1.2502785" y="-0.32663372" height="1.6532674">
      <feGaussianBlur inkscape:collect="always" stdDeviation="1.9634296" id="feGaussianBlur3445"/>
    </filter>
  </defs>
  <sodipodi:namedview id="base" pagecolor="#ffffff" bordercolor="#666666" borderopacity="1.0" gridtolerance="10000" guidetolerance="10" objecttolerance="10" inkscape:pageopacity="0.0" inkscape:pageshadow="2" inkscape:zoom="1" inkscape:cx="64" inkscape:cy="64" inkscape:document-units="px" inkscape:current-layer="g2629" showgrid="false" inkscape:window-width="1538" inkscape:window-height="961" inkscape:window-x="127" inkscape:window-y="31"/>
  <g inkscape:label="Layer 1" inkscape:groupmode="layer" id="layer1">
    <g id="g3779" transform="translate(-387.04187,-13.75126)">
      <g id="g2629">
        <path id="path3692" d="M 443.83461,124.98332 C 441.96259,125.58873 437.72102,124.34443 434.93954,123.64906 C 432.58305,123.05994 430.21218,124.8184 429.15775,125.87283 C 427.74444,127.28614 427.43235,130.09008 427.82349,131.65462 C 428.65543,134.98239 433.20584,134.75883 435.3843,134.32314 C 437.39206,133.92159 439.62858,135.60659 441.61084,136.10215 C 443.88717,136.67124 445.87376,136.99166 448.72689,136.99166 C 451.6267,136.99166 453.41085,138.43009 456.2877,136.99166 C 458.51879,135.87612 460.57841,136.21977 462.51425,134.76789 C 464.02661,133.63362 464.74065,131.64406 465.18277,129.87561 C 465.9666,126.74028 463.30614,126.26877 461.62474,125.42808 C 459.46374,124.34758 455.71837,125.01447 454.06393,125.42808 C 452.29065,125.8714 450.74791,123.20431 448.28214,123.20431 C 446.28279,123.20431 447.22272,124.98332 443.83461,124.98332 z" style="fill:#000000;fill-opacity:0.72839505;fill-rule:evenodd;stroke:none;stroke-width:1px;stroke-linecap:butt;stroke-linejoin:miter;stroke-opacity:1;filter:url(#filter3443)"/>
        <path sodipodi:nodetypes="cccccccc" id="path3694" d="M 442.60174,123.09096 C 440.24625,126.17608 437.05829,126.92355 433.86646,127.39794 C 433.2663,128.11687 433.54353,127.68568 433.58613,128.57104 C 433.82342,129.33508 434.0968,130.08341 434.29323,130.86914 C 437.04536,131.12614 440.08559,132.77461 442.95966,131.84921 C 445.97836,131.88778 449.02951,130.83077 451.52896,129.01298 C 452.10645,127.30345 451.48659,124.98557 451.35218,123.09096 C 448.5682,123.96581 445.40353,123.82408 442.60174,123.09096 z" style="fill:#2b1100;fill-rule:evenodd;stroke:#0e0300;stroke-width:1px;stroke-linecap:butt;stroke-linejoin:miter;stroke-opacity:1"/>
        <path sodipodi:nodetypes="ccc" id="path3696" d="M 434.29323,129.36653 C 437.54463,128.81031 440.79462,130.94392 444.18002,130.4906 C 447.32375,130.3866 448.9551,128.10188 451.2638,127.95232" style="fill:none;fill-rule:evenodd;stroke:#0e0300;stroke-width:1px;stroke-linecap:butt;stroke-linejoin:miter;stroke-opacity:1"/>
        <path sodipodi:nodetypes="cccccccc" id="path3698" d="M 453.82706,123.62129 C 451.50288,127.03712 447.60999,128.263 444.98822,129.15054 C 444.5613,130.0495 444.5786,129.71376 444.45789,130.69236 C 444.60202,131.98615 445.36333,132.80422 446.31405,133.60917 C 448.88069,134.60205 451.74276,133.8276 454.35739,133.34401 C 456.65203,133.26353 459.35792,132.73746 460.95619,130.98785 C 463.42602,128.67802 463.01186,126.48483 462.75428,123.26774 C 459.77869,123.49322 456.8105,123.62129 453.82706,123.62129 z" style="fill:#2b1100;fill-rule:evenodd;stroke:#0e0300;stroke-width:1px;stroke-linecap:butt;stroke-linejoin:miter;stroke-opacity:1"/>
        <path sodipodi:nodetypes="cccccccccccccc" id="path3700" d="M 435.54074,84.72098 C 432.14229,89.24264 435.46855,92.78126 435.04074,96.59598 C 434.26346,98.23807 433.79622,99.30931 432.41574,100.47098 C 430.90012,100.53812 429.79712,101.30542 429.41574,102.59598 C 430.30168,103.49031 431.56806,103.18412 432.79074,103.09598 C 433.15427,104.45652 431.16924,106.22971 431.04074,107.84598 C 432.8178,109.96978 434.30579,106.45378 434.41574,104.84598 C 434.6271,106.39278 433.76303,108.9094 433.91574,109.97098 C 435.95228,110.37041 436.65655,106.95709 436.66574,105.22098 C 436.62545,107.12448 435.67645,109.03174 437.91574,108.97098 C 439.45242,107.83907 439.08629,105.73105 439.29074,103.97098 C 439.89476,101.1968 441.01784,98.56926 441.29074,95.72098 C 440.98835,91.53981 442.9944,86.34677 441.16574,82.47098 C 438.47583,81.12184 437.53887,83.62345 435.54074,84.72098 z" style="fill:#ffccaa;fill-opacity:1;fill-rule:evenodd;stroke:#3f2d10;stroke-width:1px;stroke-linecap:butt;stroke-linejoin:miter;stroke-opacity:1"/>
        <path sodipodi:nodetypes="ccccc" id="path3702" d="M 442.22046,68.66631 C 439.52152,71.46179 436.84924,74.01377 435.6886,77.66486 C 434.23942,80.24122 433.62988,83.15958 433.3084,86.15554 C 437.27541,86.90409 441.2917,86.11768 445.22566,86.65816 C 447.02629,81.87733 446.71852,76.63172 446.81665,71.59521" style="fill:#999999;fill-opacity:1;fill-rule:evenodd;stroke:#4d4d4d;stroke-width:1px;stroke-linecap:butt;stroke-linejoin:miter;stroke-opacity:1"/>
        <path sodipodi:nodetypes="cccccccc" id="path3704" d="M 453.66574,101.47098 C 453.52058,102.25001 451.65111,103.27284 451.91574,104.59598 C 451.42884,108.11159 453.4496,111.79781 453.16574,116.09598 C 453.68083,118.30473 451.27911,121.91908 452.79074,123.47098 C 455.42073,125.45875 461.95554,125.36581 463.41574,122.84598 C 462.3978,118.98853 461.31889,115.35333 461.91574,111.34598 C 461.97346,107.55505 462.68316,103.88994 462.54074,100.09598 C 460.37337,99.29511 455.03382,99.87489 453.66574,101.47098 z" style="fill:#00325c;fill-opacity:1;fill-rule:evenodd;stroke:#00192e;stroke-width:1px;stroke-linecap:butt;stroke-linejoin:miter;stroke-opacity:1"/>
        <path sodipodi:nodetypes="cccccccc" style="fill:#00325c;fill-opacity:1;fill-rule:evenodd;stroke:#00192e;stroke-width:1px;stroke-linecap:butt;stroke-linejoin:miter;stroke-opacity:1" d="M 442.54074,101.34598 C 442.39558,102.12501 440.65111,104.27284 440.91574,105.59598 C 441.8592,108.39105 442.98976,110.87711 442.29074,113.72098 C 442.30667,116.51064 439.29352,121.54555 441.29074,123.59598 C 444.13631,124.72299 449.12205,125.06625 451.54074,122.59598 C 450.29521,118.7442 450.19722,115.23258 450.79074,111.22098 C 450.81962,107.42051 451.55915,103.79122 451.41574,99.97098 C 449.24837,99.17011 443.90882,99.74989 442.54074,101.34598 z" id="path3706"/>
        <path sodipodi:nodetypes="cccccccccccc" id="path3708" d="M 467.45034,104.62256 C 464.64523,101.1613 466.5774,95.97731 466.93518,92.01335 C 465.70705,87.0563 468.89693,81.76596 467.84419,76.81055 C 467.37842,73.70479 466.34775,70.9084 464.78721,68.20027 C 463.00294,65.7872 460.62,64.41424 457.59115,64.25942 C 453.7052,64.82859 449.78257,64.30412 445.92388,65.1433 C 443.07659,66.38218 441.11423,68.43434 440.79736,71.50725 C 440.65983,74.28118 440.22124,76.40582 438.93492,78.91042 C 438.54777,83.36181 437.071,87.75641 437.69749,92.22045 C 438.59196,97.41383 436.98821,100.04549 437.5636,105.22503 C 442.04548,102.65923 447.85434,106.52693 452.94317,105.95726 C 457.21131,104.43144 464.80237,107.85895 467.45034,104.62256 z" style="fill:#999999;fill-opacity:1;fill-rule:evenodd;stroke:#4d4d4d;stroke-width:1px;stroke-linecap:butt;stroke-linejoin:miter;stroke-opacity:1"/>
        <path sodipodi:nodetypes="cccccccccccccccc" id="path3710" d="M 466.41574,93.84598 C 466.9687,97.1072 466.78593,100.50434 465.29074,103.47098 C 464.19311,104.60178 462.60429,102.9642 461.79074,104.59598 C 462.11591,106.00784 463.48022,106.3692 464.79074,106.72098 C 463.85152,108.57752 462.04911,110.14033 463.91574,112.22098 C 465.12633,111.59983 465.96006,110.20339 466.29074,108.97098 C 466.42781,110.40759 465.21545,113.26146 467.91574,112.09598 C 469.22693,111.11323 468.58798,109.67654 468.66574,108.22098 C 469.71428,109.84123 470.03024,112.27706 471.41574,109.47098 C 471.55502,108.21281 470.94808,107.33808 470.29074,106.34598 C 470.1197,105.07782 470.57405,103.74857 470.79074,102.47098 C 472.38424,99.77685 473.46065,97.02721 473.91574,93.97098 C 472.10134,91.58461 473.32224,87.98787 471.79074,85.59598 C 471.3638,84.52463 470.95546,83.60662 470.29074,82.72098 C 467.47609,81.91596 465.18595,82.73538 463.91574,85.34598 C 462.13593,88.8771 463.94013,91.55542 466.41574,93.84598 z" style="fill:#ffccaa;fill-opacity:1;fill-rule:evenodd;stroke:#3f2d10;stroke-width:1px;stroke-linecap:butt;stroke-linejoin:miter;stroke-opacity:1"/>
        <path sodipodi:nodetypes="ccccccc" id="path3712" d="M 458.12516,73.70179 C 458.25382,76.24259 458.01856,78.94731 458.84115,81.32464 C 459.50563,83.75954 460.57373,85.86712 460.60003,88.37426 C 464.80447,87.92781 469.30476,86.16151 473.50472,84.83873 C 473.0638,82.76835 472.49392,80.73582 472.09051,78.65154 C 471.42265,75.90757 470.23492,73.6801 469.02465,71.30903 C 467.54762,69.24289 464.53951,68.89187 462.01424,69.63593" style="fill:#999999;fill-opacity:1;fill-rule:evenodd;stroke:#4d4d4d;stroke-width:1px;stroke-linecap:butt;stroke-linejoin:miter;stroke-opacity:1"/>
        <path sodipodi:nodetypes="ccccc" id="path3720" d="M 445.23528,67.23876 C 440.76525,79.44308 455.28223,70.68651 458.64061,65.94954 C 457.42253,63.47212 456.55975,60.496737 453.89061,59.199539 C 451.62385,58.940738 449.42382,59.571021 447.26561,60.199539 C 445.52742,61.55515 444.84644,65.49751 445.23528,67.23876 z" style="fill:#ffccaa;fill-opacity:1;fill-rule:evenodd;stroke:#3f2d10;stroke-width:1px;stroke-linecap:butt;stroke-linejoin:miter;stroke-opacity:1"/>
        <path sodipodi:nodetypes="ccccccccc" id="path3714" d="M 447.99343,21.886309 C 437.54276,21.825104 433.40863,28.720358 433.26919,37.688979 C 433.26919,39.565137 434.13637,43.257597 434.60129,45.117279 C 434.38488,48.779035 433.47765,51.546002 434.5584,55.120328 C 435.81526,60.177058 439.21184,62.86872 444.10434,63.95916 C 448.44748,63.87388 453.28441,61.77388 456.53936,58.737968 C 461.19991,54.924426 461.97805,48.719713 463.69254,43.078066 C 464.30195,37.689144 463.31243,32.923149 461.782,27.896717 C 459.65074,22.396395 453.20471,21.116455 447.99343,21.886309 z" style="fill:#ffccaa;fill-opacity:1;fill-rule:evenodd;stroke:#3f2d10;stroke-width:1px;stroke-linecap:butt;stroke-linejoin:miter;stroke-opacity:1"/>
        <path sodipodi:nodetypes="cccsccccc" id="path3716" d="M 432.05676,29.639642 C 431.11661,19.03841 459.95641,13.696275 462.21766,23.636309 C 472.08244,26.781391 465.10613,45.039114 462.81018,51.23492 C 461.43614,51.220922 459.88206,51.052202 460.10199,50.36242 C 462.89833,41.592022 463.48295,40.614356 459.66068,38.856872 C 457.72968,38.37412 457.0844,39.854498 455.41805,40.271085 C 451.88856,38.002543 455.45816,31.022849 449.76119,28.603823 C 446.97945,29.728026 443.45361,31.463027 440.56881,28.603823 C 438.10307,28.603823 434.15657,30.479565 432.05676,29.639642 z" style="fill:#a05a2c;fill-opacity:1;fill-rule:evenodd;stroke:#603b00;stroke-width:1px;stroke-linecap:butt;stroke-linejoin:miter;stroke-opacity:1"/>
        <path sodipodi:nodetypes="cccc" id="path3724" d="M 442.44087,38.190656 C 441.07494,41.189137 442.13183,42.947267 445.05698,42.513879 C 445.95555,42.90949 447.20267,40.717595 446.77297,39.263879 C 445.96919,36.766428 444.27682,35.347817 442.44087,38.190656 z" style="fill:#ffffff;fill-rule:evenodd;stroke:#333333;stroke-width:1px;stroke-linecap:butt;stroke-linejoin:miter;stroke-opacity:1"/>
        <path sodipodi:nodetypes="ccc" id="path3726" d="M 436.06587,36.690656 C 433.71215,37.219234 432.98254,38.516923 433.44087,41.190656 C 436.15823,46.208579 440.95092,39.488852 436.06587,36.690656 z" style="fill:#ffffff;fill-rule:evenodd;stroke:#333333;stroke-width:1px;stroke-linecap:butt;stroke-linejoin:miter;stroke-opacity:1"/>
        <path sodipodi:nodetypes="ccc" id="path3728" d="M 438.06587,43.565656 C 437.43932,47.178951 434.83176,46.59894 434.94087,50.690656 C 437.91581,50.090004 439.88385,50.846591 440.19087,48.690656" style="fill:#ffccaa;fill-opacity:1;fill-rule:evenodd;stroke:#3f2d10;stroke-width:1px;stroke-linecap:butt;stroke-linejoin:miter;stroke-opacity:1"/>
        <path sodipodi:nodetypes="cc" id="path3730" d="M 457.44086,40.440656 C 463.30424,38.111138 462.27107,46.79483 457.94086,45.940656" style="fill:#ffccaa;fill-opacity:1;fill-rule:evenodd;stroke:#3f2d10;stroke-width:1px;stroke-linecap:butt;stroke-linejoin:miter;stroke-opacity:1"/>
        <path sodipodi:nodetypes="cs" id="path3732" d="M 458.56586,41.815656 C 459.41694,40.322723 461.65835,42.995447 458.56586,44.440656" style="fill:#ffccaa;fill-opacity:1;fill-rule:evenodd;stroke:#3f2d10;stroke-width:1px;stroke-linecap:butt;stroke-linejoin:miter;stroke-opacity:1"/>
        <path sodipodi:nodetypes="cc" id="path3734" d="M 436.69087,55.690656 C 436.90442,59.012116 443.32602,59.942475 446.81587,53.315656" style="fill:none;fill-rule:evenodd;stroke:#3f2d10;stroke-width:1px;stroke-linecap:butt;stroke-linejoin:miter;stroke-opacity:1"/>
        <path sodipodi:nodetypes="cssc" id="path3736" d="M 443.32843,39.056773 C 443.71497,38.700124 442.07642,38.409604 442.20343,40.431773 C 442.30187,41.999122 443.9463,41.497312 444.57843,41.056773 C 445.84804,40.171967 443.94081,38.744069 443.32843,39.056773 z" style="fill:#000000;fill-rule:evenodd;stroke:#000000;stroke-width:1px;stroke-linecap:butt;stroke-linejoin:miter;stroke-opacity:1"/>
        <path sodipodi:nodetypes="cssc" id="path3738" d="M 434.68198,39.276442 C 435.13932,38.327731 432.87982,38.338782 433.55698,40.526442 C 434.02432,42.036237 435.71607,41.144708 435.80698,41.026442 C 436.73733,39.816079 435.75349,37.924198 434.68198,39.276442 z" style="fill:#000000;fill-rule:evenodd;stroke:#000000;stroke-width:1px;stroke-linecap:butt;stroke-linejoin:miter;stroke-opacity:1"/>
        <path sodipodi:nodetypes="cccc" id="path3740" d="M 441.17702,82.697698 C 439.58082,92.993472 442.86777,91.879431 448.74127,92.787207 C 455.46984,92.87105 453.54618,84.501718 451.86564,80.296598 C 448.04919,77.025166 443.82304,79.23243 441.17702,82.697698 z" style="fill:#ffff00;fill-opacity:1;fill-rule:evenodd;stroke:#9f854c;stroke-width:1px;stroke-linecap:butt;stroke-linejoin:miter;stroke-opacity:1"/>
        <path sodipodi:nodetypes="ccc" id="path3748" d="M 445.165,131.75302 C 448.29331,132.42388 451.68812,132.77091 454.11367,131.81108 C 457.02919,131.42517 459.62962,130.82057 462.31234,127.95232" style="fill:none;fill-rule:evenodd;stroke:#0e0300;stroke-width:1px;stroke-linecap:butt;stroke-linejoin:miter;stroke-opacity:1"/>
        <path style="fill:#ffffff;fill-rule:evenodd;stroke:#000000;stroke-width:1px;stroke-linecap:butt;stroke-linejoin:miter;stroke-opacity:1" d="M 442.35296,87.447284 L 450.84011,87.880302 C 450.84011,87.880302 445.03767,93.769341 442.35296,87.447284 z" id="path3191"/>
        <path sodipodi:type="arc" style="opacity:1;fill:#000000;fill-opacity:1;stroke:none;stroke-width:1;stroke-linejoin:round;stroke-miterlimit:4;stroke-dasharray:none;stroke-dashoffset:0;stroke-opacity:1" id="path3193" sodipodi:cx="58.803787" sodipodi:cy="69.845734" sodipodi:rx="1.2124493" sodipodi:ry="1.1691475" d="M 60.016237,69.845734 A 1.2124493,1.1691475 0 1 1 57.591338,69.845734 A 1.2124493,1.1691475 0 1 1 60.016237,69.845734 z" transform="matrix(1,0,0,1.2962963,385.62766,-6.7741349)"/>
        <path transform="matrix(1,0,0,1.2962963,390.56406,-6.8607384)" d="M 60.016237,69.845734 A 1.2124493,1.1691475 0 1 1 57.591338,69.845734 A 1.2124493,1.1691475 0 1 1 60.016237,69.845734 z" sodipodi:ry="1.1691475" sodipodi:rx="1.2124493" sodipodi:cy="69.845734" sodipodi:cx="58.803787" id="path3195" style="opacity:1;fill:#000000;fill-opacity:1;stroke:none;stroke-width:1;stroke-linejoin:round;stroke-miterlimit:4;stroke-dasharray:none;stroke-dashoffset:0;stroke-opacity:1" sodipodi:type="arc"/>
      </g>
    </g>
  </g>
  <metadata>
    <rdf:RDF>
      <cc:Work>
        <dc:format>image/svg+xml</dc:format>
        <dc:type rdf:resource="http://purl.org/dc/dcmitype/StillImage"/>
        <cc:license rdf:resource="http://creativecommons.org/licenses/publicdomain/"/>
        <dc:publisher>
          <cc:Agent rdf:about="http://openclipart.org/">
            <dc:title>Open Clip Art Library</dc:title>
          </cc:Agent>
        </dc:publisher>
        <dc:title>Comic characters: Boy</dc:title>
        <dc:date>2009-03-05T14:03:02</dc:date>
        <dc:description>Comic characters: a happy boy</dc:description>
        <dc:source>http://openclipart.org/detail/21853/comic-characters:-boy-by-nicubunu</dc:source>
        <dc:creator>
          <cc:Agent>
            <dc:title>nicubunu</dc:title>
          </cc:Agent>
        </dc:creator>
        <dc:subject>
          <rdf:Bag>
            <rdf:li>cartoon</rdf:li>
            <rdf:li>cartoon</rdf:li>
            <rdf:li>character</rdf:li>
            <rdf:li>character</rdf:li>
            <rdf:li>clip art</rdf:li>
            <rdf:li>clipart</rdf:li>
            <rdf:li>comic</rdf:li>
            <rdf:li>comic</rdf:li>
            <rdf:li>funny</rdf:li>
            <rdf:li>funny</rdf:li>
            <rdf:li>guy</rdf:li>
            <rdf:li>guy</rdf:li>
            <rdf:li>human</rdf:li>
            <rdf:li>human</rdf:li>
            <rdf:li>image</rdf:li>
            <rdf:li>media</rdf:li>
            <rdf:li>people</rdf:li>
            <rdf:li>people</rdf:li>
            <rdf:li>png</rdf:li>
            <rdf:li>public domain</rdf:li>
            <rdf:li>svg</rdf:li>
          </rdf:Bag>
        </dc:subject>
      </cc:Work>
      <cc:License rdf:about="http://creativecommons.org/licenses/publicdomain/">
        <cc:permits rdf:resource="http://creativecommons.org/ns#Reproduction"/>
        <cc:permits rdf:resource="http://creativecommons.org/ns#Distribution"/>
        <cc:permits rdf:resource="http://creativecommons.org/ns#DerivativeWorks"/>
      </cc:License>
    </rdf:RDF>
  </metadata>
</svg>
