<?xml version="1.0"?>
<svg xmlns="http://www.w3.org/2000/svg" xmlns:svg="http://www.w3.org/2000/svg" xmlns:dc="http://purl.org/dc/elements/1.1/" xmlns:cc="http://web.resource.org/cc/" xmlns:rdf="http://www.w3.org/1999/02/22-rdf-syntax-ns#" width="337" height="398">
  <title/>
  <g id="imagebot_2" label="Layer 1">
    <title>Layer 1</title>
    <g id="imagebot_102">
      <g label="Layer 1" transform="matrix(-1.24639, 0, 0, 1.24639, 625.647, -186.586)" id="imagebot_83">
        <rect fill="#a4a4a4" stroke="#484848" stroke-width="2.31199" stroke-linecap="round" stroke-linejoin="round" stroke-miterlimit="4" stroke-dashoffset="0" transform="matrix(0.86053362,0.50939365,-0.50939365,0.86053362,0,0)" ry="2.23113" y="149.0636" x="431.11783" height="23.75732" width="14.47534" id="imagebot_99"/>
        <path opacity="0.63" fill="#6b6b6b" id="imagebot_98" d="M304.14926,349.25549L303.66785,350.47786L293.70706,373.55622L295.79813,374.9422L309.22984,351.23185L305.27998,349.70114L304.14926,349.25549z"/>
        <path opacity="0.63" fill="#ffffff" d="M279.17242,375.60074L279.84379,374.47149L292.00951,354.00867L294.36154,353.26603L283.84659,378.40619L280.21728,376.22157L279.17242,375.60074z" id="imagebot_97"/>
        <rect fill="none" stroke="#484848" stroke-width="2.31199" stroke-linecap="round" stroke-linejoin="round" stroke-miterlimit="4" stroke-dashoffset="0" id="imagebot_96" width="14.47534" height="23.75732" x="431.11783" y="149.0636" ry="2.23113" transform="matrix(0.86053362,0.50939365,-0.50939365,0.86053362,0,0)"/>
        <rect fill="#a4a4a4" stroke="#484848" stroke-width="2" stroke-linecap="round" stroke-linejoin="round" stroke-miterlimit="4" stroke-dashoffset="0" transform="matrix(0.86053362,0.50939365,-0.50939365,0.86053362,0,0)" ry="2.12665" y="130.94939" x="429.04758" height="25.50283" width="18.77024" id="imagebot_95"/>
        <path opacity="0.63" fill="#ffffff" id="imagebot_94" d="M290.83969,352.88492L291.51106,351.75567L303.67678,331.29285L306.02881,330.55021L295.51386,355.69037L291.88455,353.50575L290.83969,352.88492z"/>
        <path opacity="0.63" fill="#6b6b6b" d="M313.5184,336.70432L313.03699,337.92669L303.0762,361.00504L305.16727,362.39102L318.59898,338.68067L314.64912,337.14996L313.5184,336.70431z" id="imagebot_93"/>
        <rect fill="none" stroke="#484848" stroke-width="2" stroke-linecap="round" stroke-linejoin="round" stroke-miterlimit="4" stroke-dashoffset="0" id="imagebot_92" width="18.77024" height="25.50283" x="429.04758" y="130.94939" ry="2.12665" transform="matrix(0.86053362,0.50939365,-0.50939365,0.86053362,0,0)"/>
        <path fill="#a4a4a4" stroke="#484848" stroke-width="2" stroke-linecap="round" stroke-linejoin="round" stroke-miterlimit="4" stroke-dashoffset="0" transform="matrix(1.0953944,0,0,0.93453225,-9.675622,11.285725)" d="M315.5,337.98718C315.5,347.85927 308.67234,355.86218 300.25,355.86218C291.82766,355.86218 285,347.85927 285,337.98718C285,328.11509 291.82766,320.11218 300.25,320.11218C308.67234,320.11218 315.5,328.11509 315.5,337.98718z" id="imagebot_91"/>
        <path fill="#a4a4a4" stroke="#484848" stroke-width="2.02354" stroke-linecap="round" stroke-linejoin="round" stroke-miterlimit="4" stroke-dashoffset="0" id="imagebot_90" d="M262.60886,380.87985C261.69721,380.13356 260.36478,380.26644 259.61849,381.1781L250.67117,392.10792C245.04645,398.92507 244.58969,405.70953 249.18844,412.78307L262.03538,397.0896C262.40853,396.63377 262.92823,396.37877 263.46916,396.32481C264.01007,396.27081 264.56992,396.41821 265.02575,396.79135L270.22466,401.04727C270.68049,401.42042 270.9355,401.94013 270.98946,402.48106C271.04346,403.02197 270.89606,403.58182 270.52291,404.03764L257.75515,419.63439C264.95981,422.28433 272.17428,420.30711 277.22191,413.8428L286.16924,402.91299C286.91554,402.00134 286.78264,400.66892 285.87099,399.92262L284.85035,388.90995L273.21928,379.38856L262.60886,380.87985z"/>
        <path fill="#808080" id="imagebot_89" d="M257.5,419.48718C271.07454,419.56848 275.95262,409.71977 281.4375,400.67468L280.6875,386.73718L285.0625,387.29968L285.3125,399.79968L286,401.67468L274.9375,416.04968L268.5,419.86218L261.5,420.86218L257.5,419.48718z"/>
        <path fill="none" stroke="#484848" stroke-width="2.02354" stroke-linecap="round" stroke-linejoin="round" stroke-miterlimit="4" stroke-dashoffset="0" d="M262.60886,380.87985C261.69721,380.13356 260.36478,380.26644 259.61849,381.1781L250.67117,392.10792C245.04645,398.92507 244.58969,405.70953 249.18844,412.78307L262.03538,397.0896C262.40853,396.63377 262.92823,396.37877 263.46916,396.32481C264.01007,396.27081 264.56992,396.41821 265.02575,396.79135L270.22466,401.04727C270.68049,401.42042 270.9355,401.94013 270.98946,402.48106C271.04346,403.02197 270.89606,403.58182 270.52291,404.03764L257.75515,419.63439C264.95981,422.28433 272.17428,420.30711 277.22191,413.8428L286.16924,402.91299C286.91554,402.00134 286.78264,400.66892 285.87099,399.92262L284.85035,388.90995L273.21928,379.38856L262.60886,380.87985z" id="imagebot_88"/>
        <path opacity="0.63" fill="#ffffff" id="imagebot_87" d="M249.5,408.86218C243.77853,400.73448 254.81816,390.12478 261.125,382.92468L273.4375,381.11218C273.55461,383.10961 273.29788,383.14594 274.57506,384.64619C273.55779,384.63399 265.0249,385.81826 264.36296,386.08392C256.75562,389.13705 247.15756,400.34196 249.5,408.86218z"/>
        <path fill="#a4a4a4" stroke="#484848" stroke-width="2.21663" stroke-linecap="round" stroke-linejoin="round" stroke-miterlimit="4" stroke-dashoffset="0" transform="matrix(0.86792883,-0.19882462,0.20415574,0.89120076,-26.865893,104.26869)" d="M284.96402,369.65057C284.96402,376.48475 279.18639,382.02494 272.05933,382.02494C264.93226,382.02494 259.15463,376.48475 259.15463,369.65057C259.15463,362.8164 264.93226,357.27621 272.05933,357.27621C279.18639,357.27621 284.96402,362.8164 284.96402,369.65057z" id="imagebot_86"/>
        <path opacity="0.62981" fill="#ffffff" id="imagebot_85" d="M275.21243,380.99622C277.97202,375.35813 283.02537,372.31805 289.7709,371.19456C281.93008,369.18499 275.79952,370.19572 275.21243,380.99622z"/>
        <path opacity="0.62981" fill="#ffffff" d="M305.64569,332.1619C306.45105,319.84748 314.56604,314.91268 324.44233,313.51067C314.44695,309.76247 300.73421,319.08055 305.64569,332.1619z" id="imagebot_84"/>
      </g>
      <g label="Layer 1" transform="matrix(1.24639, 0, 0, 1.24639, -286.691, -186.586)" id="imagebot_66">
        <rect fill="#a4a4a4" stroke="#484848" stroke-width="2.31199" stroke-linecap="round" stroke-linejoin="round" stroke-miterlimit="4" stroke-dashoffset="0" id="imagebot_82" width="14.47534" height="23.75732" x="431.11783" y="149.0636" ry="2.23113" transform="matrix(0.86053362,0.50939365,-0.50939365,0.86053362,0,0)"/>
        <path opacity="0.63" fill="#6b6b6b" d="M304.14926,349.25549L303.66785,350.47786L293.70706,373.55622L295.79813,374.9422L309.22984,351.23185L305.27998,349.70114L304.14926,349.25549z" id="imagebot_81"/>
        <path opacity="0.63" fill="#ffffff" id="imagebot_80" d="M279.17242,375.60074L279.84379,374.47149L292.00951,354.00867L294.36154,353.26603L283.84659,378.40619L280.21728,376.22157L279.17242,375.60074z"/>
        <rect fill="none" stroke="#484848" stroke-width="2.31199" stroke-linecap="round" stroke-linejoin="round" stroke-miterlimit="4" stroke-dashoffset="0" transform="matrix(0.86053362,0.50939365,-0.50939365,0.86053362,0,0)" ry="2.23113" y="149.0636" x="431.11783" height="23.75732" width="14.47534" id="imagebot_79"/>
        <rect fill="#a4a4a4" stroke="#484848" stroke-width="2" stroke-linecap="round" stroke-linejoin="round" stroke-miterlimit="4" stroke-dashoffset="0" id="imagebot_78" width="18.77024" height="25.50283" x="429.04758" y="130.94939" ry="2.12665" transform="matrix(0.86053362,0.50939365,-0.50939365,0.86053362,0,0)"/>
        <path opacity="0.63" fill="#ffffff" d="M290.83969,352.88492L291.51106,351.75567L303.67678,331.29285L306.02881,330.55021L295.51386,355.69037L291.88455,353.50575L290.83969,352.88492z" id="imagebot_77"/>
        <path opacity="0.63" fill="#6b6b6b" id="imagebot_76" d="M313.5184,336.70432L313.03699,337.92669L303.0762,361.00504L305.16727,362.39102L318.59898,338.68067L314.64912,337.14996L313.5184,336.70431z"/>
        <rect fill="none" stroke="#484848" stroke-width="2" stroke-linecap="round" stroke-linejoin="round" stroke-miterlimit="4" stroke-dashoffset="0" transform="matrix(0.86053362,0.50939365,-0.50939365,0.86053362,0,0)" ry="2.12665" y="130.94939" x="429.04758" height="25.50283" width="18.77024" id="imagebot_75"/>
        <path fill="#a4a4a4" stroke="#484848" stroke-width="2" stroke-linecap="round" stroke-linejoin="round" stroke-miterlimit="4" stroke-dashoffset="0" id="imagebot_74" d="M315.5,337.98718C315.5,347.85927 308.67234,355.86218 300.25,355.86218C291.82766,355.86218 285,347.85927 285,337.98718C285,328.11509 291.82766,320.11218 300.25,320.11218C308.67234,320.11218 315.5,328.11509 315.5,337.98718z" transform="matrix(1.0953944,0,0,0.93453225,-9.675622,11.285725)"/>
        <path fill="#a4a4a4" stroke="#484848" stroke-width="2.02354" stroke-linecap="round" stroke-linejoin="round" stroke-miterlimit="4" stroke-dashoffset="0" d="M262.60886,380.87985C261.69721,380.13356 260.36478,380.26644 259.61849,381.1781L250.67117,392.10792C245.04645,398.92507 244.58969,405.70953 249.18844,412.78307L262.03538,397.0896C262.40853,396.63377 262.92823,396.37877 263.46916,396.32481C264.01007,396.27081 264.56992,396.41821 265.02575,396.79135L270.22466,401.04727C270.68049,401.42042 270.9355,401.94013 270.98946,402.48106C271.04346,403.02197 270.89606,403.58182 270.52291,404.03764L257.75515,419.63439C264.95981,422.28433 272.17428,420.30711 277.22191,413.8428L286.16924,402.91299C286.91554,402.00134 286.78264,400.66892 285.87099,399.92262L284.85035,388.90995L273.21928,379.38856L262.60886,380.87985z" id="imagebot_73"/>
        <path fill="#808080" d="M257.5,419.48718C271.07454,419.56848 275.95262,409.71977 281.4375,400.67468L280.6875,386.73718L285.0625,387.29968L285.3125,399.79968L286,401.67468L274.9375,416.04968L268.5,419.86218L261.5,420.86218L257.5,419.48718z" id="imagebot_72"/>
        <path fill="none" stroke="#484848" stroke-width="2.02354" stroke-linecap="round" stroke-linejoin="round" stroke-miterlimit="4" stroke-dashoffset="0" id="imagebot_71" d="M262.60886,380.87985C261.69721,380.13356 260.36478,380.26644 259.61849,381.1781L250.67117,392.10792C245.04645,398.92507 244.58969,405.70953 249.18844,412.78307L262.03538,397.0896C262.40853,396.63377 262.92823,396.37877 263.46916,396.32481C264.01007,396.27081 264.56992,396.41821 265.02575,396.79135L270.22466,401.04727C270.68049,401.42042 270.9355,401.94013 270.98946,402.48106C271.04346,403.02197 270.89606,403.58182 270.52291,404.03764L257.75515,419.63439C264.95981,422.28433 272.17428,420.30711 277.22191,413.8428L286.16924,402.91299C286.91554,402.00134 286.78264,400.66892 285.87099,399.92262L284.85035,388.90995L273.21928,379.38856L262.60886,380.87985z"/>
        <path opacity="0.63" fill="#ffffff" d="M249.5,408.86218C243.77853,400.73448 254.81816,390.12478 261.125,382.92468L273.4375,381.11218C273.55461,383.10961 273.29788,383.14594 274.57506,384.64619C273.55779,384.63399 265.0249,385.81826 264.36296,386.08392C256.75562,389.13705 247.15756,400.34196 249.5,408.86218z" id="imagebot_70"/>
        <path fill="#a4a4a4" stroke="#484848" stroke-width="2.21663" stroke-linecap="round" stroke-linejoin="round" stroke-miterlimit="4" stroke-dashoffset="0" id="imagebot_69" d="M284.96402,369.65057C284.96402,376.48475 279.18639,382.02494 272.05933,382.02494C264.93226,382.02494 259.15463,376.48475 259.15463,369.65057C259.15463,362.8164 264.93226,357.27621 272.05933,357.27621C279.18639,357.27621 284.96402,362.8164 284.96402,369.65057z" transform="matrix(0.86792883,-0.19882462,0.20415574,0.89120076,-26.865893,104.26869)"/>
        <path opacity="0.62981" fill="#ffffff" d="M275.21243,380.99622C277.97202,375.35813 283.02537,372.31805 289.7709,371.19456C281.93008,369.18499 275.79952,370.19572 275.21243,380.99622z" id="imagebot_68"/>
        <path opacity="0.62981" fill="#ffffff" id="imagebot_67" d="M305.64569,332.1619C306.45105,319.84748 314.56604,314.91268 324.44233,313.51067C314.44695,309.76247 300.73421,319.08055 305.64569,332.1619z"/>
      </g>
      <g label="Layer 1" transform="matrix(-1.24639, 0, 0, 1.24639, 630.91, -187.027)" id="imagebot_51">
        <rect fill="#a4a4a4" stroke="#484848" stroke-width="2" stroke-linecap="round" stroke-linejoin="round" stroke-miterlimit="4" stroke-dashoffset="0" id="imagebot_65" width="36.76955" height="12.72792" x="325.97623" y="435.84476" ry="6.36396"/>
        <rect fill="#a4a4a4" stroke="#484848" stroke-width="2" stroke-linecap="round" stroke-linejoin="round" stroke-miterlimit="4" stroke-dashoffset="0" ry="6.36396" y="423.84476" x="325.97623" height="12.72792" width="36.76955" id="imagebot_64"/>
        <rect fill="#a4a4a4" stroke="#484848" stroke-width="2" stroke-linecap="round" stroke-linejoin="round" stroke-miterlimit="4" stroke-dashoffset="0" id="imagebot_63" width="36.76955" height="12.72792" x="325.97623" y="411.84476" ry="6.36396"/>
        <rect fill="#a4a4a4" stroke="#484848" stroke-width="2" stroke-linecap="round" stroke-linejoin="round" stroke-miterlimit="4" stroke-dashoffset="0" ry="6.36396" y="399.4704" x="325.62268" height="12.72792" width="36.76955" id="imagebot_62"/>
        <path fill="#808080" id="imagebot_61" d="M351.25528,398.99551C353.56561,403.00592 355.48756,407.05847 351.25528,411.72343C353.91367,415.41345 356.55548,419.10612 351.07851,424.0978C356.19475,428.87888 354.19066,432.47324 351.43206,435.94184C355.97372,443.59859 351.94418,444.70089 351.43206,448.49298L362.03866,448.66976L361.15478,446.01811L363.2761,442.83613L362.21544,438.23993L358.85668,435.58828L362.39222,432.93663L363.09932,429.04754L359.38701,424.0978L361.86189,421.7997L362.74577,417.38028L358.50313,411.54665L361.68511,409.07178L362.92255,405.35947L360.62445,400.94005L358.32635,398.99551L352.13917,399.52584L351.25528,398.99551z"/>
        <path opacity="0.63" fill="#ffffff" d="M336.97433,399.12051C334.664,403.13092 332.74205,407.18347 336.97433,411.84843C334.31594,415.53845 331.67413,419.23112 337.1511,424.2228C332.03486,429.00388 334.03895,432.59824 336.79755,436.06684C332.25589,443.72359 336.28543,444.82589 336.79755,448.61798L326.19095,448.79476L327.07483,446.14311L324.95351,442.96113L326.01417,438.36493L329.37294,435.71328L325.83739,433.06163L325.13029,429.17254L328.84261,424.2228L326.36773,421.9247L325.48385,417.50528L329.72649,411.67165L326.54451,409.19678L325.30707,405.48447L327.60517,401.06505L329.90327,399.12051L336.09045,399.65084L336.97434,399.12051z" id="imagebot_60"/>
        <rect fill="none" stroke="#484848" stroke-width="2" stroke-linecap="round" stroke-linejoin="round" stroke-miterlimit="4" stroke-dashoffset="0" ry="6.05146" y="436.46976" x="325.97623" height="12.10292" width="36.76955" id="imagebot_59"/>
        <rect fill="none" stroke="#484848" stroke-width="2" stroke-linecap="round" stroke-linejoin="round" stroke-miterlimit="4" stroke-dashoffset="0" id="imagebot_58" width="36.76955" height="11.97792" x="325.97623" y="424.59476" ry="5.98896"/>
        <rect fill="none" stroke="#484848" stroke-width="2" stroke-linecap="round" stroke-linejoin="round" stroke-miterlimit="4" stroke-dashoffset="0" ry="6.11396" y="412.34476" x="325.97623" height="12.22792" width="36.76955" id="imagebot_57"/>
        <rect fill="none" stroke="#484848" stroke-width="2" stroke-linecap="round" stroke-linejoin="round" stroke-miterlimit="4" stroke-dashoffset="0" id="imagebot_56" width="36.76955" height="12.72792" x="325.62268" y="399.4704" ry="6.36396"/>
        <path fill="#a4a4a4" stroke="#484848" stroke-width="2" stroke-linecap="round" stroke-linejoin="round" stroke-miterlimit="4" stroke-dashoffset="0" id="imagebot_55" d="M363.09933,466.70099C359.24832,467.01581 301.41417,467.71362 300.16682,466.34744C300.16682,452.77672 314.86348,441.77548 332.99273,441.77548C343.30118,441.77548 355.99606,443.56459 362.01409,446.65336C363.0213,448.50227 363.09933,460.8467 363.09933,466.70099z"/>
        <path fill="#808080" id="imagebot_54" d="M300.3436,463.87256C332.18964,462.74807 362.83236,467.59948 356.38182,444.78067L362.569,446.90199L363.09933,467.05453L300.52038,466.87776L300.3436,463.87256z"/>
        <path fill="none" stroke="#484848" stroke-width="2" stroke-linecap="round" stroke-linejoin="round" stroke-miterlimit="4" stroke-dashoffset="0" d="M363.09933,466.70099C359.24832,467.01581 301.41417,467.71362 300.16682,466.34744C300.16682,452.77672 314.86348,441.77548 332.99273,441.77548C343.30118,441.77548 355.99606,443.56459 362.01409,446.65336C363.0213,448.50227 363.09933,460.8467 363.09933,466.70099z" id="imagebot_53"/>
        <path opacity="0.62981" fill="#ffffff" d="M306.28073,456.84891C313.3622,450.83604 320.51645,446.16114 337.76596,444.70762C324.90448,442.54045 311.81581,446.1015 306.28073,456.84891z" id="imagebot_52"/>
      </g>
      <rect transform="translate(0) matrix(0.888111, 0, 0, 0.888111, -159.959, 0.19757)" label="Layer 1" fill="#a4a4a4" stroke="#484848" stroke-width="2.80684" stroke-linecap="round" stroke-linejoin="round" stroke-miterlimit="4" stroke-dashoffset="0" id="imagebot_50" width="18.07528" height="39.69473" x="455.80331" y="113.75012"/>
      <rect transform="translate(0) matrix(0.888111, 0, 0, 0.888111, -159.959, 0.19757)" label="Layer 1" fill="#e3e3e3" id="imagebot_49" width="21.92845" height="9.12223" x="450.61929" y="115.16339" ry="0"/>
      <rect transform="translate(0) matrix(0.888111, 0, 0, 0.888111, -159.959, 3.1976)" label="Layer 1" opacity="0.35" fill="#000000" ry="0" y="142.92482" x="450.5535" height="9.12223" width="21.92845" id="imagebot_48"/>
      <rect transform="matrix(0.888111, 0, 0, 0.888111, -159.959, 27.1976)" label="Layer 1" fill="#a4a4a4" stroke="#484848" stroke-width="2.80684" stroke-linecap="round" stroke-linejoin="round" stroke-miterlimit="4" stroke-dashoffset="0" ry="0" y="175.96576" x="348.47379" height="19.28802" width="51.19998" id="imagebot_47"/>
      <rect transform="matrix(0.888111, 0, 0, 0.888111, -159.959, 27.1976)" label="Layer 1" fill="#a4a4a4" stroke="#484848" stroke-width="2.80684" stroke-linecap="round" stroke-linejoin="round" stroke-miterlimit="4" stroke-dashoffset="0" id="imagebot_46" width="59.82867" height="19.14533" x="344.33487" y="195.33414" ry="0"/>
      <rect transform="matrix(0.888111, 0, 0, 0.888111, -159.959, 27.1976)" label="Layer 1" fill="#a4a4a4" stroke="#484848" stroke-width="2.80684" stroke-linecap="round" stroke-linejoin="round" stroke-miterlimit="4" stroke-dashoffset="0" ry="0" y="204.38031" x="307.51907" height="115.09629" width="129.85512" id="imagebot_45"/>
      <rect transform="translate(0) matrix(0.888111, 0, 0, 0.888111, -159.959, 0.19757)" label="Layer 1" fill="#a4a4a4" stroke="#484848" stroke-width="2.80684" stroke-linecap="round" stroke-linejoin="round" stroke-miterlimit="4" stroke-dashoffset="0" y="113.75012" x="270.55179" height="39.69473" width="18.07528" id="imagebot_44"/>
      <rect transform="translate(0) matrix(0.888111, 0, 0, 0.888111, -159.959, 0.19757)" label="Layer 1" fill="#e3e3e3" ry="0" y="115.03182" x="271.66122" height="9.12223" width="21.92845" id="imagebot_43"/>
      <rect transform="translate(0) matrix(0.888111, 0, 0, 0.888111, -159.959, 3.1976)" label="Layer 1" opacity="0.35" fill="#000000" id="imagebot_42" width="21.92845" height="9.12223" x="272.01208" y="143.10025" ry="0"/>
      <rect transform="translate(0) matrix(0.888111, 0, 0, 0.888111, -159.959, 0.19757)" label="Layer 1" fill="#a4a4a4" stroke="#484848" stroke-width="2.80684" stroke-linecap="round" stroke-linejoin="round" stroke-miterlimit="4" stroke-dashoffset="0" y="88.99226" x="287.2608" height="87.08388" width="169.30867" id="imagebot_41"/>
      <path transform="translate(0) matrix(0.888111, 0, 0, 0.888111, -159.959, 0.19757)" label="Layer 1" opacity="0.32846" fill="#000000" id="imagebot_40" d="M432.52048,90.35857L455.20318,90.35857L455.20318,182.86146L432.52048,182.86146C439.07371,152.02716 442.97395,121.19288 432.52048,90.35857z"/>
      <path transform="matrix(0.888111, 0, 0, 0.888111, -159.959, 27.1976)" label="Layer 1" fill="#a4a4a4" stroke="#484848" stroke-width="2.80684" stroke-linecap="round" stroke-linejoin="round" stroke-miterlimit="4" stroke-dashoffset="0" id="imagebot_39" d="M279.80783,139.30937L302.96755,139.30937L324.65095,162.30649L417.28983,162.30649L441.92585,139.30937L465.08558,139.30937L465.08558,186.71881L279.80782,186.71881L279.80782,139.30937z"/>
      <path label="Layer 1" fill="#ffffff" stroke="#484848" transform="translate(0) matrix(1.6145, 0, 0, 1.50921, -409.631, -280.644)" d="M353.55338,256.10944C353.55338,262.52519 348.69158,267.72619 342.69423,267.72619C336.6969,267.72619 331.83509,262.52519 331.83509,256.10944C331.83509,249.69368 336.6969,244.49268 342.69423,244.49268C348.69158,244.49268 353.55338,249.69368 353.55338,256.10944z" id="imagebot_38"/>
      <path label="Layer 1" fill="#ffffff" stroke="#484848" id="imagebot_37" d="M353.55338,256.10944C353.55338,262.52519 348.69158,267.72619 342.69423,267.72619C336.6969,267.72619 331.83509,262.52519 331.83509,256.10944C331.83509,249.69368 336.6969,244.49268 342.69423,244.49268C348.69158,244.49268 353.55338,249.69368 353.55338,256.10944z" transform="translate(0) matrix(1.6145, 0, 0, 1.50921, -357.065, -281.588)"/>
      <path label="Layer 1" fill="#000000" transform="translate(0) matrix(1.78448, 0, 0, 2.18598, -464.629, -442.694)" d="M349.26025,252.06883C349.26025,254.85829 346.49016,257.1196 343.07307,257.1196C339.65598,257.1196 336.88588,254.85829 336.88588,252.06883C336.88588,249.27937 339.65598,247.01807 343.07307,247.01807C346.49016,247.01807 349.26025,249.27937 349.26025,252.06883z" id="imagebot_36"/>
      <path label="Layer 1" fill="#000000" id="imagebot_35" d="M349.26025,252.06883C349.26025,254.85829 346.49016,257.1196 343.07307,257.1196C339.65598,257.1196 336.88588,254.85829 336.88588,252.06883C336.88588,249.27937 339.65598,247.01807 343.07307,247.01807C346.49016,247.01807 349.26025,249.27937 349.26025,252.06883z" transform="translate(0) matrix(1.78448, 0, 0, 2.18598, -421.064, -441.324)"/>
      <path transform="translate(0) matrix(0.888111, 0, 0, 0.888111, -159.959, 0.19757)" label="Layer 1" fill="#e5e5e5" id="imagebot_34" d="M290.04471,136.0784L291.46238,93.1939L365.53557,92.13066L297.84187,98.51017L290.0447,136.0784z"/>
      <path transform="matrix(0.888111, 0, 0, 0.888111, -159.959, 27.1976)" label="Layer 1" opacity="0.32846" fill="#000000" id="imagebot_33" d="M442.444,140.686 L463.709,140.597 L463.709,185.254 L429.685,185.254 C432.634,176.006 434.407,166.171 429.509,153 L442.444,140.686 L442.444,140.686 L442.444,140.686 z"/>
      <path transform="matrix(0.888111, 0, 0, 0.888111, -159.959, 27.1976)" label="Layer 1" fill="#e5e5e5" d="M282.627,150.21 L282.761,184.203 L344.697,184.258 L288.366,178.925 L282.627,150.21 L282.627,150.21 L282.627,150.21 z" id="imagebot_32"/>
      <path transform="translate(0) matrix(0.888111, 0, 0, 0.888111, -159.959, 0.19757)" label="Layer 1" fill="#a4a4a4" stroke="#484848" stroke-width="2.80684" stroke-miterlimit="4" id="imagebot_31" d="M365.88998,45.84377L372.34039,45.84377L381.2717,89.0118L356.46249,89.0118L365.88998,45.84377z"/>
      <path label="Layer 1" fill="#604aff" stroke="#00054d" stroke-width="2" stroke-miterlimit="4" transform="translate(0) matrix(1.24639, 0, 0, 1.24639, -122.322, -211.823)" d="M244.30539,194.46489C244.30539,201.00617 239.31921,206.30893 233.16846,206.30893C227.0177,206.30893 222.03153,201.00617 222.03153,194.46489C222.03153,187.92361 227.0177,182.62085 233.16846,182.62085C239.31921,182.62085 244.30539,187.92361 244.30539,194.46489z" id="imagebot_30"/>
      <path transform="translate(0) matrix(0.888111, 0, 0, 0.888111, -159.959, 0.19757)" label="Layer 1" opacity="0.62981" fill="#ffffff" id="imagebot_29" d="M358.20386,27.63989C365.2779,23.37016 372.93179,23.79356 381.01347,27.67933C374.03191,19.41139 366.69454,15.8683 358.20386,27.63989z"/>
      <path transform="translate(0) matrix(0.888111, 0, 0, 0.888111, -159.959, 0.19757)" label="Layer 1" opacity="0.35" fill="#000000" id="imagebot_28" d="M355.86646,38.80854C366.09947,45.7918 375.42419,46.6894 383.32087,38.01911C381.31261,49.66122 362.74479,56.22781 355.86646,38.80854z"/>
      <rect transform="matrix(0.888111, 0, 0, 0.888111, -159.959, 27.1976)" label="Layer 1" fill="#484848" stroke="#484848" stroke-width="1.79513" stroke-linecap="round" stroke-linejoin="round" stroke-miterlimit="4" stroke-dashoffset="0" ry="3.39385" y="288.72556" x="343.78238" height="6.97625" width="57.14854" id="imagebot_27"/>
      <rect transform="matrix(0.888111, 0, 0, 0.888111, -159.959, 27.1976)" label="Layer 1" fill="#484848" stroke="#484848" stroke-width="1.79513" stroke-linecap="round" stroke-linejoin="round" stroke-miterlimit="4" stroke-dashoffset="0" id="imagebot_26" width="57.14854" height="6.97625" x="344.4841" y="302.05804" ry="3.39385"/>
      <path label="Layer 1" fill="#ff0000" stroke="#484848" stroke-width="2" stroke-linecap="round" stroke-linejoin="round" stroke-miterlimit="4" stroke-dashoffset="0" transform="matrix(1.18905, 0, 0, 1.31038, -270.317, -140.855)" d="M342.5,330.98718C342.5,334.36993 339.47792,337.11218 335.75,337.11218C332.02208,337.11218 329,334.36993 329,330.98718C329,327.60444 332.02208,324.86218 335.75,324.86218C339.47792,324.86218 342.5,327.60444 342.5,330.98718z" id="imagebot_25"/>
      <path label="Layer 1" fill="#ff0000" stroke="#484848" stroke-width="2" stroke-linecap="round" stroke-linejoin="round" stroke-miterlimit="4" stroke-dashoffset="0" id="imagebot_24" d="M342.5,330.98718C342.5,334.36993 339.47792,337.11218 335.75,337.11218C332.02208,337.11218 329,334.36993 329,330.98718C329,327.60444 332.02208,324.86218 335.75,324.86218C339.47792,324.86218 342.5,327.60444 342.5,330.98718z" transform="matrix(1.18905, 0, 0, 1.31038, -185.562, -140.855)"/>
      <rect transform="matrix(0.888111, 0, 0, 0.888111, -159.959, 27.1976)" label="Layer 1" fill="#dbfffc" stroke="#484848" stroke-width="2.80684" stroke-linecap="round" stroke-linejoin="round" stroke-miterlimit="4" stroke-dashoffset="0" ry="3.39385" y="212.74498" x="314.81641" height="70.17103" width="114.72964" id="imagebot_23"/>
      <path transform="matrix(0.888111, 0, 0, 0.888111, -159.959, 27.1976)" label="Layer 1" fill="none" stroke="#00a799" stroke-width="2.80684" stroke-linecap="round" stroke-linejoin="round" stroke-miterlimit="4" id="imagebot_22" d="M315.5181,253.44417L328.8506,253.44417L338.67454,223.27063L344.63908,253.79503L352.00704,240.46253L363.2344,270.28522L369.90065,250.98819L385.33828,250.63733L391.65367,227.48089L397.96906,265.02239L404.28446,240.46253L407.79301,253.09332L428.14261,253.09332"/>
      <path transform="matrix(0.888111, 0, 0, 0.888111, -159.959, 27.1976)" label="Layer 1" opacity="0.95" fill="#ffffff" id="imagebot_21" d="M318.21906,279.67407L318.24476,221.77955C318.11733,217.95398 321.17228,215.98052 324.20206,215.85163L422.64373,215.60323L328.071,221.32797C324.70468,221.75352 323.29013,223.57316 323.19565,226.33573L318.04356,269.67462L318.04363,269.67467L318.21905,279.67407z"/>
      <rect transform="matrix(0.888111, 0, 0, 0.888111, -159.959, 27.1976)" label="Layer 1" fill="none" stroke="#484848" stroke-width="2.80684" stroke-linecap="round" stroke-linejoin="round" stroke-miterlimit="4" stroke-dashoffset="0" id="imagebot_20" width="114.72964" height="70.17103" x="314.81641" y="212.74498" ry="3.39385"/>
      <path transform="matrix(0.888111, 0, 0, 0.888111, -159.959, 27.1976)" label="Layer 1" opacity="0.62981" fill="#ffffff" d="M318.38507,296.71375C322.65074,294.39697 327.26606,294.62671 332.13932,296.73505C327.92943,292.24879 323.50497,290.32629 318.38507,296.71375z" id="imagebot_19"/>
      <path transform="matrix(0.888111, 0, 0, 0.888111, -159.959, 27.1976)" label="Layer 1" opacity="0.62981" fill="#ffffff" id="imagebot_18" d="M413.90054,296.65173C418.16621,294.33495 422.78152,294.56469 427.65479,296.67303C423.44489,292.18677 419.02044,290.26426 413.90054,296.65173z"/>
      <g label="Layer 1" transform="matrix(1.24639, 0, 0, 1.24639, -286.691, -186.586)" id="imagebot_3">
        <rect fill="#a4a4a4" stroke="#484848" stroke-width="2" stroke-linecap="round" stroke-linejoin="round" stroke-miterlimit="4" stroke-dashoffset="0" ry="6.36396" y="435.84476" x="325.97623" height="12.72792" width="36.76955" id="imagebot_17"/>
        <rect fill="#a4a4a4" stroke="#484848" stroke-width="2" stroke-linecap="round" stroke-linejoin="round" stroke-miterlimit="4" stroke-dashoffset="0" id="imagebot_16" width="36.76955" height="12.72792" x="325.97623" y="423.84476" ry="6.36396"/>
        <rect fill="#a4a4a4" stroke="#484848" stroke-width="2" stroke-linecap="round" stroke-linejoin="round" stroke-miterlimit="4" stroke-dashoffset="0" ry="6.36396" y="411.84476" x="325.97623" height="12.72792" width="36.76955" id="imagebot_15"/>
        <rect fill="#a4a4a4" stroke="#484848" stroke-width="2" stroke-linecap="round" stroke-linejoin="round" stroke-miterlimit="4" stroke-dashoffset="0" id="imagebot_14" width="36.76955" height="12.72792" x="325.62268" y="399.4704" ry="6.36396"/>
        <path fill="#808080" d="M351.25528,398.99551C353.56561,403.00592 355.48756,407.05847 351.25528,411.72343C353.91367,415.41345 356.55548,419.10612 351.07851,424.0978C356.19475,428.87888 354.19066,432.47324 351.43206,435.94184C355.97372,443.59859 351.94418,444.70089 351.43206,448.49298L362.03866,448.66976L361.15478,446.01811L363.2761,442.83613L362.21544,438.23993L358.85668,435.58828L362.39222,432.93663L363.09932,429.04754L359.38701,424.0978L361.86189,421.7997L362.74577,417.38028L358.50313,411.54665L361.68511,409.07178L362.92255,405.35947L360.62445,400.94005L358.32635,398.99551L352.13917,399.52584L351.25528,398.99551z" id="imagebot_13"/>
        <path opacity="0.63" fill="#ffffff" id="imagebot_12" d="M336.97433,399.12051C334.664,403.13092 332.74205,407.18347 336.97433,411.84843C334.31594,415.53845 331.67413,419.23112 337.1511,424.2228C332.03486,429.00388 334.03895,432.59824 336.79755,436.06684C332.25589,443.72359 336.28543,444.82589 336.79755,448.61798L326.19095,448.79476L327.07483,446.14311L324.95351,442.96113L326.01417,438.36493L329.37294,435.71328L325.83739,433.06163L325.13029,429.17254L328.84261,424.2228L326.36773,421.9247L325.48385,417.50528L329.72649,411.67165L326.54451,409.19678L325.30707,405.48447L327.60517,401.06505L329.90327,399.12051L336.09045,399.65084L336.97434,399.12051z"/>
        <rect fill="none" stroke="#484848" stroke-width="2" stroke-linecap="round" stroke-linejoin="round" stroke-miterlimit="4" stroke-dashoffset="0" id="imagebot_11" width="36.76955" height="12.10292" x="325.97623" y="436.46976" ry="6.05146"/>
        <rect fill="none" stroke="#484848" stroke-width="2" stroke-linecap="round" stroke-linejoin="round" stroke-miterlimit="4" stroke-dashoffset="0" ry="5.98896" y="424.59476" x="325.97623" height="11.97792" width="36.76955" id="imagebot_10"/>
        <rect fill="none" stroke="#484848" stroke-width="2" stroke-linecap="round" stroke-linejoin="round" stroke-miterlimit="4" stroke-dashoffset="0" id="imagebot_9" width="36.76955" height="12.22792" x="325.97623" y="412.34476" ry="6.11396"/>
        <rect fill="none" stroke="#484848" stroke-width="2" stroke-linecap="round" stroke-linejoin="round" stroke-miterlimit="4" stroke-dashoffset="0" ry="6.36396" y="399.4704" x="325.62268" height="12.72792" width="36.76955" id="imagebot_8"/>
        <path fill="#a4a4a4" stroke="#484848" stroke-width="2" stroke-linecap="round" stroke-linejoin="round" stroke-miterlimit="4" stroke-dashoffset="0" d="M363.09933,466.70099C359.24832,467.01581 301.41417,467.71362 300.16682,466.34744C300.16682,452.77672 314.86348,441.77548 332.99273,441.77548C343.30118,441.77548 355.99606,443.56459 362.01409,446.65336C363.0213,448.50227 363.09933,460.8467 363.09933,466.70099z" id="imagebot_7"/>
        <path fill="#808080" d="M300.3436,463.87256C332.18964,462.74807 362.83236,467.59948 356.38182,444.78067L362.569,446.90199L363.09933,467.05453L300.52038,466.87776L300.3436,463.87256z" id="imagebot_6"/>
        <path fill="none" stroke="#484848" stroke-width="2" stroke-linecap="round" stroke-linejoin="round" stroke-miterlimit="4" stroke-dashoffset="0" id="imagebot_5" d="M363.09933,466.70099C359.24832,467.01581 301.41417,467.71362 300.16682,466.34744C300.16682,452.77672 314.86348,441.77548 332.99273,441.77548C343.30118,441.77548 355.99606,443.56459 362.01409,446.65336C363.0213,448.50227 363.09933,460.8467 363.09933,466.70099z"/>
        <path opacity="0.62981" fill="#ffffff" id="imagebot_4" d="M306.28073,456.84891C313.3622,450.83604 320.51645,446.16114 337.76596,444.70762C324.90448,442.54045 311.81581,446.1015 306.28073,456.84891z"/>
      </g>
    </g>
  </g>
  <metadata>
    <rdf:RDF>
      <cc:Work>
        <dc:format>image/svg+xml</dc:format>
        <dc:type rdf:resource="http://purl.org/dc/dcmitype/StillImage"/>
        <cc:license rdf:resource="http://creativecommons.org/licenses/publicdomain/"/>
        <dc:publisher>
          <cc:Agent rdf:about="http://openclipart.org/">
            <dc:title>Open Clip Art Library</dc:title>
          </cc:Agent>
        </dc:publisher>
        <dc:title>Open-Mouthed Robot</dc:title>
        <dc:date>2013-02-03T09:55:29</dc:date>
        <dc:description>talking robot</dc:description>
        <dc:source>http://openclipart.org/detail/174780/open-mouthed-robot-by-ruthirsty-174780</dc:source>
        <dc:creator>
          <cc:Agent>
            <dc:title>ruthirsty</dc:title>
          </cc:Agent>
        </dc:creator>
        <dc:subject>
          <rdf:Bag>
            <rdf:li>cartoon</rdf:li>
            <rdf:li>clip art</rdf:li>
            <rdf:li>clipart</rdf:li>
            <rdf:li>robot</rdf:li>
            <rdf:li>science</rdf:li>
            <rdf:li>talking</rdf:li>
          </rdf:Bag>
        </dc:subject>
      </cc:Work>
      <cc:License rdf:about="http://creativecommons.org/licenses/publicdomain/">
        <cc:permits rdf:resource="http://creativecommons.org/ns#Reproduction"/>
        <cc:permits rdf:resource="http://creativecommons.org/ns#Distribution"/>
        <cc:permits rdf:resource="http://creativecommons.org/ns#DerivativeWorks"/>
      </cc:License>
    </rdf:RDF>
  </metadata>
</svg>
