<?xml version="1.0" encoding="UTF-8" standalone="no"?>
<!-- Created with Inkscape (http://www.inkscape.org/) -->
<svg xmlns:dc="http://purl.org/dc/elements/1.1/" xmlns:cc="http://creativecommons.org/ns#" xmlns:rdf="http://www.w3.org/1999/02/22-rdf-syntax-ns#" xmlns:svg="http://www.w3.org/2000/svg" xmlns="http://www.w3.org/2000/svg" xmlns:xlink="http://www.w3.org/1999/xlink" xmlns:sodipodi="http://sodipodi.sourceforge.net/DTD/sodipodi-0.dtd" xmlns:inkscape="http://www.inkscape.org/namespaces/inkscape" width="200.19608" height="206.25209" id="svg2480" sodipodi:version="0.32" inkscape:version="0.46dev+devel" sodipodi:docbase="/home/tomas/work/clip-art" sodipodi:docname="tomas_arad_smiles_blonde_face.svg" version="1.0" inkscape:output_extension="org.inkscape.output.svg.inkscape" inkscape:export-filename="C:\joanna\Gfx\drawings_vector\admin\thumbs\tomas_arad_smiles_blonde_face.png" inkscape:export-xdpi="90" inkscape:export-ydpi="90">
  <defs id="defs2482">
    <linearGradient id="linearGradient5070">
      <stop style="stop-color:#326602;stop-opacity:1;" offset="0" id="stop5072"/>
      <stop id="stop5078" offset="0.5" style="stop-color:#b2bd32;stop-opacity:1;"/>
      <stop style="stop-color:#256d00;stop-opacity:1;" offset="1" id="stop5074"/>
    </linearGradient>
    <linearGradient id="linearGradient3900">
      <stop style="stop-color:#ffae00;stop-opacity:1;" offset="0" id="stop3902"/>
      <stop id="stop3908" offset="0.78571427" style="stop-color:#ffc200;stop-opacity:1;"/>
      <stop style="stop-color:#ffd700;stop-opacity:1;" offset="1" id="stop3904"/>
    </linearGradient>
    <linearGradient id="linearGradient3860">
      <stop style="stop-color:#fea;stop-opacity:1;" offset="0" id="stop3862"/>
      <stop style="stop-color:#fea;stop-opacity:0.4375;" offset="1" id="stop3864"/>
    </linearGradient>
    <linearGradient id="linearGradient3791">
      <stop style="stop-color:#ff9555;stop-opacity:1;" offset="0" id="stop3793"/>
      <stop style="stop-color:#faa;stop-opacity:0" offset="1" id="stop3795"/>
    </linearGradient>
    <linearGradient id="linearGradient3758">
      <stop style="stop-color:#e22500;stop-opacity:1;" offset="0" id="stop3770"/>
      <stop id="stop3774" offset="0.52806121" style="stop-color:#780000;stop-opacity:1;"/>
      <stop style="stop-color:#500;stop-opacity:1;" offset="0.82142854" id="stop3776"/>
      <stop style="stop-color:#320000;stop-opacity:1;" offset="1" id="stop3762"/>
    </linearGradient>
    <linearGradient id="linearGradient3738">
      <stop style="stop-color:#af0000;stop-opacity:1;" offset="0" id="stop3740"/>
      <stop id="stop3748" offset="0.25255102" style="stop-color:#e20000;stop-opacity:1;"/>
      <stop id="stop3746" offset="0.43941325" style="stop-color:#ff2a17;stop-opacity:1;"/>
      <stop style="stop-color:#ffbfb7;stop-opacity:1;" offset="1" id="stop3742"/>
    </linearGradient>
    <linearGradient id="linearGradient3702">
      <stop style="stop-color:#c50000;stop-opacity:1;" offset="0" id="stop3704"/>
      <stop style="stop-color:#ff8700;stop-opacity:1;" offset="1" id="stop3706"/>
    </linearGradient>
    <linearGradient id="linearGradient3685">
      <stop style="stop-color:#fff5e2;stop-opacity:1;" offset="0" id="stop3687"/>
      <stop id="stop3695" offset="0.5" style="stop-color:#ff7a71;stop-opacity:1;"/>
      <stop style="stop-color:#ff3d38;stop-opacity:1;" offset="0.5" id="stop3697"/>
      <stop id="stop3699" offset="0.875" style="stop-color:#ffada7;stop-opacity:1;"/>
      <stop style="stop-color:red;stop-opacity:1;" offset="1" id="stop3689"/>
    </linearGradient>
    <linearGradient id="linearGradient3647">
      <stop style="stop-color:#d40000;stop-opacity:1;" offset="0" id="stop3649"/>
      <stop id="stop3655" offset="0.42857143" style="stop-color:#e90000;stop-opacity:1;"/>
      <stop style="stop-color:#ffe2ca;stop-opacity:1;" offset="1" id="stop3651"/>
    </linearGradient>
    <linearGradient id="linearGradient3607">
      <stop style="stop-color:maroon;stop-opacity:1;" offset="0" id="stop3609"/>
      <stop style="stop-color:maroon;stop-opacity:0;" offset="1" id="stop3611"/>
    </linearGradient>
    <linearGradient id="linearGradient3485">
      <stop style="stop-color:#d2aa02;stop-opacity:0.32291666;" offset="0" id="stop3487"/>
      <stop style="stop-color:#570000;stop-opacity:1;" offset="1" id="stop3489"/>
    </linearGradient>
    <linearGradient id="linearGradient3446">
      <stop id="stop3448" offset="0" style="stop-color:#faf7ed;stop-opacity:1;"/>
      <stop style="stop-color:#fceede;stop-opacity:1;" offset="0.64285713" id="stop3452"/>
      <stop id="stop3454" offset="0.79591835" style="stop-color:#fde9d6;stop-opacity:1;"/>
      <stop style="stop-color:#f2dfcf;stop-opacity:1;" offset="1" id="stop3456"/>
      <stop id="stop3450" offset="1" style="stop-color:#ffe5cf;stop-opacity:1;"/>
    </linearGradient>
    <linearGradient inkscape:collect="always" id="linearGradient3405">
      <stop style="stop-color:white;stop-opacity:1;" offset="0" id="stop3407"/>
      <stop style="stop-color:white;stop-opacity:0;" offset="1" id="stop3409"/>
    </linearGradient>
    <linearGradient id="linearGradient3387">
      <stop id="stop3389" offset="0" style="stop-color:#f7f5ff;stop-opacity:1;"/>
      <stop style="stop-color:#e2e5fa;stop-opacity:1;" offset="0.71355683" id="stop3393"/>
      <stop id="stop3397" offset="0.8317107" style="stop-color:#f5faff;stop-opacity:1;"/>
      <stop id="stop3395" offset="0.90816325" style="stop-color:#c2d2ef;stop-opacity:1;"/>
      <stop id="stop3391" offset="1" style="stop-color:#cdd5f5;stop-opacity:1;"/>
    </linearGradient>
    <linearGradient id="linearGradient3375">
      <stop style="stop-color:#f7fae5;stop-opacity:1;" offset="0" id="stop3377"/>
      <stop style="stop-color:#efcab5;stop-opacity:1;" offset="1" id="stop3379"/>
    </linearGradient>
    <radialGradient inkscape:collect="always" xlink:href="#linearGradient3387" id="radialGradient6226" gradientUnits="userSpaceOnUse" gradientTransform="matrix(0.55368,0.846893,-1.057034,0.600968,27.95404,-38.38064)" cx="59.607983" cy="26.879272" fx="59.607983" fy="26.879272" r="19.454546"/>
    <linearGradient inkscape:collect="always" xlink:href="#linearGradient3405" id="linearGradient6228" gradientUnits="userSpaceOnUse" x1="13.09091" y1="24.454546" x2="52.000004" y2="24.454546"/>
    <radialGradient inkscape:collect="always" xlink:href="#linearGradient3387" id="radialGradient6230" gradientUnits="userSpaceOnUse" gradientTransform="matrix(0.55368,0.846893,-1.057034,0.600968,27.95404,-38.38064)" cx="59.607983" cy="26.879272" fx="59.607983" fy="26.879272" r="19.454546"/>
    <linearGradient inkscape:collect="always" xlink:href="#linearGradient3405" id="linearGradient6232" gradientUnits="userSpaceOnUse" x1="13.09091" y1="24.454546" x2="52.000004" y2="24.454546"/>
    <linearGradient inkscape:collect="always" xlink:href="#linearGradient3860" id="linearGradient6267" gradientUnits="userSpaceOnUse" gradientTransform="matrix(1.241557,-1.793614,-1.989298,-0.587652,52.66696,81.80145)" x1="21.449362" y1="16.661087" x2="33.700729" y2="8.3691158"/>
    <linearGradient inkscape:collect="always" xlink:href="#linearGradient3860" id="linearGradient6270" gradientUnits="userSpaceOnUse" gradientTransform="matrix(-0.12479,-2.838131,3.594304,0.2462,101.7785,130.4866)" x1="20.604811" y1="8.5623894" x2="31.33493" y2="17.112858"/>
    <linearGradient inkscape:collect="always" xlink:href="#linearGradient3860" id="linearGradient6273" gradientUnits="userSpaceOnUse" gradientTransform="matrix(1.367255,-0.838864,1.507244e-2,2.094753,-13.83318,66.52883)" x1="21.449362" y1="16.661087" x2="33.700729" y2="8.3691158"/>
    <linearGradient inkscape:collect="always" xlink:href="#linearGradient3860" id="linearGradient6276" gradientUnits="userSpaceOnUse" gradientTransform="matrix(-0.551459,-2.568901,-0.968453,0.688657,52.95348,152.0879)" x1="21.449362" y1="16.661087" x2="33.700729" y2="8.3691158"/>
    <linearGradient inkscape:collect="always" xlink:href="#linearGradient3860" id="linearGradient6279" gradientUnits="userSpaceOnUse" gradientTransform="matrix(-1.381958,-1.385716,-0.448411,1.983085,75.0176,145.8767)" x1="21.449362" y1="16.661087" x2="33.700729" y2="8.3691158"/>
    <linearGradient inkscape:collect="always" xlink:href="#linearGradient3860" id="linearGradient6282" gradientUnits="userSpaceOnUse" gradientTransform="matrix(1.195964,-1.385716,0.388058,1.983085,121.3137,159.9018)" x1="21.449362" y1="16.661087" x2="33.700729" y2="8.3691158"/>
    <linearGradient inkscape:collect="always" xlink:href="#linearGradient3860" id="linearGradient6285" gradientUnits="userSpaceOnUse" gradientTransform="matrix(-1.28167,-1.385716,-0.415866,1.983085,213.1553,99.51954)" x1="21.449362" y1="16.661087" x2="33.700729" y2="8.3691158"/>
    <linearGradient inkscape:collect="always" xlink:href="#linearGradient3860" id="linearGradient6288" gradientUnits="userSpaceOnUse" gradientTransform="matrix(-1.28167,-2.397657,-0.415866,3.431262,210.4768,128.5216)" x1="21.449362" y1="16.661087" x2="33.700729" y2="8.3691158"/>
    <linearGradient inkscape:collect="always" xlink:href="#linearGradient3860" id="linearGradient6291" gradientUnits="userSpaceOnUse" gradientTransform="matrix(3.88039,0,0,3.451137,-27.12216,1.220507)" x1="21.449362" y1="16.661087" x2="33.700729" y2="8.3691158"/>
    <radialGradient inkscape:collect="always" xlink:href="#linearGradient3791" id="radialGradient6295" gradientUnits="userSpaceOnUse" gradientTransform="matrix(1.735404,-0.799564,1.122043,1.926332,112.274,67.2932)" cx="-6.5629416" cy="25.18741" fx="-6.5629416" fy="25.18741" r="7.3147955"/>
    <radialGradient inkscape:collect="always" xlink:href="#linearGradient3791" id="radialGradient6298" gradientUnits="userSpaceOnUse" gradientTransform="matrix(1.735404,-0.799564,1.122043,1.926332,44.20232,65.74278)" cx="-6.5629416" cy="25.18741" fx="-6.5629416" fy="25.18741" r="7.3147955"/>
    <radialGradient inkscape:collect="always" xlink:href="#linearGradient3738" id="radialGradient6301" gradientUnits="userSpaceOnUse" gradientTransform="matrix(3.556673,0.706898,-0.751785,3.613059,13.73913,-28.4342)" cx="31.043518" cy="41.136154" fx="31.043518" fy="41.136154" r="5.8791847"/>
    <radialGradient inkscape:collect="always" xlink:href="#linearGradient3758" id="radialGradient6305" gradientUnits="userSpaceOnUse" gradientTransform="matrix(3.767344,0.837532,-0.674269,2.39902,11.2838,22.43142)" cx="29.178568" cy="42.147896" fx="29.178568" fy="42.147896" r="5.0766959"/>
    <radialGradient inkscape:collect="always" xlink:href="#linearGradient3375" id="radialGradient6308" gradientUnits="userSpaceOnUse" gradientTransform="matrix(4.550495,3.1699,-2.126715,2.347932,207.7568,50.05876)" cx="-7.3484187" cy="38.91798" fx="-7.3484187" fy="38.91798" r="1.6912061"/>
    <radialGradient inkscape:collect="always" xlink:href="#linearGradient3485" id="radialGradient6311" gradientUnits="userSpaceOnUse" gradientTransform="matrix(1.626665,-7.248259e-2,2.854541e-2,0.492678,102.8027,99.36418)" cx="-4.0406208" cy="41.157314" fx="-4.0406208" fy="41.157314" r="7.3767457"/>
    <radialGradient inkscape:collect="always" xlink:href="#linearGradient3446" id="radialGradient6314" gradientUnits="userSpaceOnUse" gradientTransform="matrix(8.875267e-2,-0.726379,0.292454,1.35605e-2,80.70302,156.9379)" cx="57.922352" cy="31.694683" fx="57.922352" fy="31.694683" r="19.454546"/>
    <radialGradient inkscape:collect="always" xlink:href="#linearGradient3375" id="radialGradient6323" gradientUnits="userSpaceOnUse" gradientTransform="matrix(0.779044,5.375881,-3.554989,1.032305,149.5369,-219.9406)" cx="53.023693" cy="28.095705" fx="53.023693" fy="28.095705" r="19.454546"/>
    <radialGradient inkscape:collect="always" xlink:href="#linearGradient3900" id="radialGradient6326" gradientUnits="userSpaceOnUse" gradientTransform="matrix(1.838265,2.815933,-4.348874,2.245642,286.6318,54.61222)" cx="-3.6293917" cy="50.758385" fx="-3.6293917" fy="50.758385" r="23.277931"/>
    <linearGradient inkscape:collect="always" xlink:href="#linearGradient5070" id="linearGradient6329" gradientUnits="userSpaceOnUse" gradientTransform="scale(3.11851,3.11851)" x1="0" y1="56.270565" x2="64.196068" y2="56.270565"/>
  </defs>
  <sodipodi:namedview id="base" pagecolor="#ffffff" bordercolor="#666666" borderopacity="1.0" inkscape:pageopacity="0.0" inkscape:pageshadow="2" inkscape:zoom="1" inkscape:cx="32" inkscape:cy="32" inkscape:current-layer="layer1" showgrid="true" inkscape:document-units="px" inkscape:grid-bbox="true" inkscape:window-width="1078" inkscape:window-height="751" inkscape:window-x="12" inkscape:window-y="29" showguides="true" inkscape:guide-bbox="true" width="200px" height="200px"/>
  <g id="layer1" inkscape:label="Layer 1" inkscape:groupmode="layer" transform="translate(0,6.0533509)">
    <g id="g7216">
      <path sodipodi:nodetypes="ccccc" id="rect4182" d="M 7.9072718e-09,179.93349 C 77.476546,142.69701 132.20903,139.4137 200.19608,179.93349 L 200.19608,200.19874 L 0,200.19874 L 7.9072718e-09,179.93349 z" style="fill:url(#linearGradient6329);fill-opacity:1;fill-rule:evenodd;stroke:none;stroke-width:0.15800001;stroke-linecap:round;stroke-linejoin:round;stroke-miterlimit:4;stroke-dashoffset:0;stroke-opacity:1"/>
      <path style="fill:url(#radialGradient6326);fill-opacity:1;fill-rule:evenodd;stroke:none;stroke-width:1px;stroke-linecap:butt;stroke-linejoin:miter;stroke-opacity:1" d="M 48.746967,166.15478 C 39.059288,168.03724 20.289406,140.8201 20.289406,137.23821 C 20.289406,133.65631 18.501799,135.35575 18.501799,129.96985 C 18.501799,124.58393 26.055883,123.38126 16.4547,105.4718 C 6.8535164,87.56235 14.378768,90.673628 16.33937,90.673628 C 18.299972,90.673628 12.360504,82.071864 14.609426,78.489968 C 16.858353,74.908079 22.221176,78.254664 16.33937,69.182286 C 10.457564,60.109904 21.356206,51.272832 25.306241,44.109051 C 29.256277,36.945272 32.139517,37.49432 36.089549,35.428849 C 40.039588,33.363379 46.815197,32.997347 50.765233,23.715805 C 54.715268,14.434264 61.663879,19.035817 65.815736,15.453926 C 69.967598,11.872036 83.489991,8.290145 91.390059,4.7082544 C 99.290134,1.1263639 119.04032,8.290145 122.99035,8.290145 C 126.94039,8.290145 132.70687,15.453926 132.70687,15.453926 C 133.41807,19.035817 134.12926,22.617708 134.84046,26.199598 C 137.47382,29.276015 140.10717,32.352433 142.74054,35.428849 C 142.74054,35.428849 150.6406,37.023705 154.59064,38.775432 C 158.54068,40.527161 170.39079,47.69094 170.39079,47.69094 C 169.82375,47.69094 169.25672,47.69094 168.68968,47.69094 C 168.68968,47.69094 194.29284,62.018504 192.2169,72.764175 C 190.14097,83.509846 182.1544,101.4193 180.22263,101.4193 C 178.29086,101.4193 175.59134,111.70266 178.29086,119.32875 C 194.65696,165.56276 176.85935,114.81214 170.82546,157.87995 C 170.32763,161.43327 166.44075,165.89333 166.44075,173.05711 C 166.44075,180.22089 163.41348,192.75789 159.46331,193.89482 C 125.85448,203.56808 99.707272,192.80298 122.0648,174.1913 C 131.3846,166.43296 131.34345,159.23306 132.64387,151.24683 C 135.23681,135.32291 141.10512,156.73708 150.6406,149.63102 C 153.49185,147.50622 154.59064,142.41495 154.59064,137.23821 C 154.59064,132.06146 162.49072,131.74771 158.54068,122.91065 C 154.59064,114.07357 154.59064,117.7339 150.6406,108.58308 C 146.69057,99.432263 142.74054,83.797445 142.74054,81.862699 C 142.74054,79.927957 146.69057,75.901596 138.7905,74.332885 C 130.89043,72.764175 126.94039,62.018504 126.94039,62.018504 C 124.30703,56.048684 121.67368,50.07887 119.04032,44.109051 C 116.40696,46.496978 113.7736,48.884902 111.14024,51.272832 C 111.14024,51.272832 99.290134,65.600396 95.340098,65.600396 C 91.390059,65.600396 79.539952,65.600396 75.589916,65.600396 C 71.639881,65.600396 65.815736,69.182286 63.739806,72.764175 C 61.663879,76.346065 55.839734,83.509846 55.839734,87.091736 C 55.839734,90.673628 51.889696,99.013943 47.93966,99.432263 C 43.989624,99.850589 37.675334,108.58308 37.675334,108.58308 C 36.44515,105.00119 35.21497,101.4193 33.984789,97.83741 C 33.984789,97.83741 30.755563,110.6747 30.294242,112.16497 C 29.832922,113.65524 32.600832,132.13989 34.446107,133.73475 C 36.291376,135.3296 55.123288,140.01399 55.123288,140.01399 C 53.806612,141.20795 67.971403,141.61108 48.746967,166.15478 z" id="path3830" sodipodi:nodetypes="csssssssssssscccsccsssssssssssssscccsssssccsscc"/>
      <path sodipodi:nodetypes="cssssc" id="path2488" d="M 170.12643,104.28173 C 154.26498,150.13627 126.33913,187.72926 101.68937,191.04651 C 94.495883,192.01458 82.007988,190.34714 76.814811,186.97837 C 56.86303,174.03583 34.912742,144.24789 27.203312,101.46037 C 19.762422,60.163243 59.827174,25.692243 100.02443,25.692243 C 140.22168,25.692243 170.12643,62.45773 170.12643,104.28173 z" style="fill:url(#radialGradient6323);fill-opacity:1;fill-rule:evenodd;stroke:none;stroke-width:1.79999995;stroke-linecap:round;stroke-linejoin:round;stroke-miterlimit:4;stroke-dashoffset:0;stroke-opacity:1"/>
      <path sodipodi:type="arc" style="fill:url(#radialGradient6226);fill-opacity:1;fill-rule:evenodd;stroke:#000000;stroke-width:0.53532344;stroke-linecap:round;stroke-linejoin:round;stroke-miterlimit:4;stroke-dasharray:none;stroke-dashoffset:0;stroke-opacity:1" id="path3383" sodipodi:cx="32.545456" sodipodi:cy="24.454546" sodipodi:rx="19.454546" sodipodi:ry="17.363636" d="M 52.000002,24.454546 A 19.454546,17.363636 0 1 1 13.09091,24.454546 A 19.454546,17.363636 0 1 1 52.000002,24.454546 z" transform="matrix(0.768653,0.116351,-0.182367,0.952973,61.53865,56.96704)"/>
      <path transform="matrix(0.34016,5.148991e-2,-8.54573e-2,0.446563,73.16435,74.90605)" d="M 52.000002,24.454546 A 19.454546,17.363636 0 1 1 13.09091,24.454546 A 19.454546,17.363636 0 1 1 52.000002,24.454546 z" sodipodi:ry="17.363636" sodipodi:rx="19.454546" sodipodi:cy="24.454546" sodipodi:cx="32.545456" id="path3399" style="fill:#1a1a1a;fill-opacity:1;fill-rule:evenodd;stroke:#000000;stroke-width:0.53532344;stroke-linecap:round;stroke-linejoin:round;stroke-miterlimit:4;stroke-dasharray:none;stroke-dashoffset:0;stroke-opacity:1" sodipodi:type="arc"/>
      <path sodipodi:type="arc" style="fill:url(#linearGradient6228);fill-opacity:1;fill-rule:evenodd;stroke:none;stroke-width:0.53532344;stroke-linecap:round;stroke-linejoin:round;stroke-miterlimit:4;stroke-dasharray:none;stroke-dashoffset:0;stroke-opacity:1" id="path3403" sodipodi:cx="32.545456" sodipodi:cy="24.454546" sodipodi:rx="19.454546" sodipodi:ry="17.363636" d="M 52.000002,24.454546 A 19.454546,17.363636 0 1 1 13.09091,24.454546 A 19.454546,17.363636 0 1 1 52.000002,24.454546 z" transform="matrix(8.118723e-2,0.17542,-0.219381,6.857289e-2,84.96569,77.24698)"/>
      <path transform="matrix(-0.705688,0.100117,0.173247,0.965924,130.9607,57.01432)" d="M 52.000002,24.454546 A 19.454546,17.363636 0 1 1 13.09091,24.454546 A 19.454546,17.363636 0 1 1 52.000002,24.454546 z" sodipodi:ry="17.363636" sodipodi:rx="19.454546" sodipodi:cy="24.454546" sodipodi:cx="32.545456" id="path3427" style="fill:url(#radialGradient6230);fill-opacity:1;fill-rule:evenodd;stroke:#000000;stroke-width:0.53532344;stroke-linecap:round;stroke-linejoin:round;stroke-miterlimit:4;stroke-dasharray:none;stroke-dashoffset:0;stroke-opacity:1" sodipodi:type="arc"/>
      <path sodipodi:type="arc" style="fill:#1a1a1a;fill-opacity:1;fill-rule:evenodd;stroke:#000000;stroke-width:0.53532344;stroke-linecap:round;stroke-linejoin:round;stroke-miterlimit:4;stroke-dasharray:none;stroke-dashoffset:0;stroke-opacity:1" id="path3431" sodipodi:cx="32.545456" sodipodi:cy="24.454546" sodipodi:rx="19.454546" sodipodi:ry="17.363636" d="M 52.000002,24.454546 A 19.454546,17.363636 0 1 1 13.09091,24.454546 A 19.454546,17.363636 0 1 1 52.000002,24.454546 z" transform="matrix(-0.312295,4.430594e-2,8.118381e-2,0.452632,120.3834,74.85796)"/>
      <path transform="matrix(-7.35684e-2,0.175219,0.202014,7.41506e-2,109.5521,76.9548)" d="M 52.000002,24.454546 A 19.454546,17.363636 0 1 1 13.09091,24.454546 A 19.454546,17.363636 0 1 1 52.000002,24.454546 z" sodipodi:ry="17.363636" sodipodi:rx="19.454546" sodipodi:cy="24.454546" sodipodi:cx="32.545456" id="path3433" style="fill:url(#linearGradient6232);fill-opacity:1;fill-rule:evenodd;stroke:none;stroke-width:0.53532344;stroke-linecap:round;stroke-linejoin:round;stroke-miterlimit:4;stroke-dasharray:none;stroke-dashoffset:0;stroke-opacity:1" sodipodi:type="arc"/>
      <path sodipodi:nodetypes="ccccsssc" id="path3439" d="M 112.57184,114.87255 C 112.57184,123.48496 108.01727,120.69917 100.47394,123.42276 C 98.531706,125.26971 93.178363,124.88709 91.54146,122.90428 C 85.417292,122.39597 82.280736,120.94128 84.750627,116.17179 C 86.168938,113.71466 89.37833,115.12383 90.313877,110.65637 C 91.9337,102.92135 91.731227,94.401152 97.793495,94.401152 C 103.02774,94.401152 102.40403,102.20657 104.78124,108.16258 C 106.10895,111.48912 109.69012,113.89215 112.57184,114.87255 z" style="fill:url(#radialGradient6314);fill-opacity:1;fill-rule:evenodd;stroke:none;stroke-width:1.79999995;stroke-linecap:round;stroke-linejoin:round;stroke-miterlimit:4;stroke-dashoffset:0;stroke-opacity:1"/>
      <path id="path3477" d="M 89.907523,121.58813 C 88.475069,120.91972 84.821467,120.62264 85.418942,119.17111 C 86.166692,117.35449 87.869891,118.99035 89.490721,119.24478 C 91.82811,120.93503 91.322971,120.60495 93.279967,122.24774 C 94.153595,122.90376 96.332361,123.51377 97.537138,123.10783 C 99.510631,122.27868 100.17271,121.13492 101.60472,119.70012 C 102.58917,118.8236 103.6678,117.90215 105.0469,117.55717 C 106.55489,117.39376 108.12736,117.39887 109.57351,117.85295 C 110.58793,118.60482 109.49424,119.89588 108.37665,119.86857 C 107.16288,120.24578 105.99704,120.86059 104.66714,120.82957 C 101.62689,121.04977 99.326546,122.7142 96.378022,123.23407 C 94.826941,123.33013 93.464888,122.23908 92.082103,121.84108 C 91.152644,121.66035 90.812979,121.92576 89.907523,121.58813 z" style="fill:url(#radialGradient6311);fill-opacity:1;fill-rule:evenodd;stroke:none;stroke-width:1px;stroke-linecap:butt;stroke-linejoin:miter;stroke-opacity:1" sodipodi:nodetypes="cscscccccccsc"/>
      <path sodipodi:nodetypes="cccccc" id="path3532" d="M 93.760972,110.90006 C 93.442369,113.01879 91.550422,114.66936 91.304989,116.80552 C 90.753069,119.7965 91.871938,121.24613 95.009196,122.40978 C 95.64477,122.48081 96.311458,122.24407 96.714834,121.80812 C 96.474572,121.18262 93.03338,122.74393 92.587717,117.34986 C 92.766342,114.60666 93.797275,113.70585 93.760972,110.90006 z" style="fill:url(#radialGradient6308);fill-opacity:1;fill-rule:evenodd;stroke:none;stroke-width:1px;stroke-linecap:butt;stroke-linejoin:miter;stroke-opacity:1"/>
      <path sodipodi:nodetypes="ccccc" id="rect3755" d="M 74.738236,132.94161 C 84.227659,126.41683 104.64793,127.88194 114.13736,134.40672 C 108.80071,142.94603 107.77112,144.45784 101.98822,153.91284 C 92.498792,160.43762 88.841385,159.48472 85.651873,153.91284 C 82.545896,148.48689 80.074886,140.01581 74.738236,132.94161 z" style="fill:url(#radialGradient6305);fill-opacity:1;fill-rule:evenodd;stroke:none;stroke-width:0.15800001;stroke-linecap:round;stroke-linejoin:round;stroke-miterlimit:4;stroke-dashoffset:0;stroke-opacity:1"/>
      <path sodipodi:nodetypes="ccccc" id="rect3750" d="M 75.889187,132.92396 C 87.92861,128.10946 100.67091,127.67087 114.35687,133.1071 L 113.80739,136.64613 C 101.17377,142.26584 89.870812,140.85404 75.957458,135.73043 L 75.889187,132.92396 z" style="fill:#ffffff;fill-opacity:1;fill-rule:evenodd;stroke:none;stroke-width:0.15800001;stroke-linecap:round;stroke-linejoin:round;stroke-miterlimit:4;stroke-dashoffset:0;stroke-opacity:1"/>
      <path sodipodi:nodetypes="ccccccccccccccccccccc" id="path3724" d="M 82.963041,127.13845 C 85.684047,123.40456 89.097172,122.83286 90.824854,125.4915 C 92.69587,127.68735 93.734034,127.15375 95.66543,126.21554 C 97.972894,125.51194 99.795255,122.61203 105.2012,126.78599 C 109.63416,130.96854 111.93999,131.80172 116.15597,133.80382 C 113.61473,136.35846 111.91538,140.87431 110.16031,143.31604 C 108.23531,145.6371 107.46721,151.05064 106.60748,154.46262 C 102.97991,167.26877 90.956982,167.13717 86.100642,159.00649 C 81.324345,149.61385 80.590029,144.94799 76.924352,137.87423 C 76.226482,135.28394 74.980453,133.8742 73.639697,131.40213 C 79.854787,133.24106 79.872825,130.08511 82.963041,127.13845 z M 77.558869,133.45623 C 81.765074,133.31219 83.959479,130.32534 88.178197,130.27448 C 91.093561,134.45992 96.655314,135.00046 98.964038,132.02142 C 101.71831,133.17865 105.6615,132.98773 109.71157,133.49928 C 112.15559,134.10472 113.73841,134.19876 114.60708,134.50481 C 113.30769,136.22909 111.39366,138.94342 109.9495,140.44045 C 106.9554,143.01546 104.49012,147.88029 101.69268,150.641 C 99.141587,152.37239 92.136992,155.63387 86.178281,149.78465 C 82.090691,144.97498 78.767073,138.62721 75.450987,132.71531 C 76.110043,133.25647 76.860092,133.52014 77.558869,133.45623 z" style="fill:url(#radialGradient6301);fill-opacity:1;fill-rule:evenodd;stroke:#c30000;stroke-width:0.55886841;stroke-linecap:butt;stroke-linejoin:miter;stroke-miterlimit:4;stroke-dasharray:none;stroke-opacity:1"/>
      <path sodipodi:nodetypes="csssc" id="path3778" d="M 78.073251,118.89802 C 80.792358,125.93532 74.728016,139.76349 66.743636,139.25217 C 47.862165,138.04301 42.724862,126.74142 42.724862,117.28581 C 42.724862,107.83021 52.394005,99.753033 60.399058,99.753033 C 68.223759,99.753033 79.14687,102.60631 79.423725,111.84311" style="opacity:0.32967033;fill:url(#radialGradient6298);fill-opacity:1;fill-rule:evenodd;stroke:none;stroke-width:0.15800001;stroke-linecap:round;stroke-linejoin:round;stroke-miterlimit:4;stroke-dashoffset:0;stroke-opacity:1"/>
      <path style="opacity:0.30769234;fill:url(#radialGradient6295);fill-opacity:1;fill-rule:evenodd;stroke:none;stroke-width:0.15800001;stroke-linecap:round;stroke-linejoin:round;stroke-miterlimit:4;stroke-dashoffset:0;stroke-opacity:1" d="M 146.14492,120.44846 C 148.86403,127.48576 142.79969,141.31392 134.8153,140.8026 C 115.93383,139.59345 110.79653,128.29186 110.79653,118.83625 C 110.79653,109.38064 120.46567,101.30347 128.47073,101.30347 C 136.29543,101.30347 147.21854,104.15674 147.49539,113.39354" id="path3799" sodipodi:nodetypes="csssc"/>
      <path sodipodi:nodetypes="ccccccccccccc" id="path3826" d="M 49.919165,150.9545 C 13.972891,135.46085 22.619832,118.87788 18.581634,95.987747 C 11.97255,70.365517 17.733563,36.398104 42.0294,20.920516 C 63.022408,6.9492721 65.40594,-9.5567283 121.79878,-5.4004577 C 158.60384,2.389144 174.49749,20.932707 186.54791,42.337283 C 195.31341,68.136813 176.14847,88.722829 180.76912,105.76492 C 185.66077,126.40603 162.73513,142.04254 166.04571,162.35009 C 172.44787,179.95659 138.9784,193.74335 139.09139,166.97876 C 158.26243,127.75928 165.86279,121.86473 152.71422,97.114982 C 152.72696,67.756509 118.97031,61.847744 111.06604,43.081579 C 92.221816,69.444381 52.808512,91.058908 42.179504,80.305431 C 41.018885,123.76618 31.415511,94.458536 37.388206,132.26008 C 41.409026,141.8169 45.6981,141.47301 49.919165,150.9545 z" style="fill:#ffd42a;fill-opacity:1;fill-rule:evenodd;stroke:none;stroke-width:1px;stroke-linecap:butt;stroke-linejoin:miter;stroke-opacity:1"/>
      <path sodipodi:nodetypes="ccccccccccccc" id="path3844" d="M 110.90077,38.981484 C 99.012795,53.191948 84.207336,72.908678 62.916931,75.538015 C 58.38036,75.24553 47.027031,77.962953 42.500623,77.623375 C 43.854677,76.360796 54.591863,74.559632 55.223405,71.807766 C 62.291944,70.302439 68.008918,65.857249 76.332761,58.239765 C 76.643414,56.053393 60.595952,62.317301 58.903795,62.254089 C 50.42732,64.193019 42.101784,66.771481 33.45052,68.034319 C 60.088664,57.720271 72.224916,52.645903 72.578374,47.97459 C 68.67468,48.259775 61.687109,46.039103 57.750867,45.744728 C 61.771555,39.95919 84.600717,36.665647 89.738565,31.287449 C 79.548487,34.081366 60.146503,36.856722 52.519884,38.82171 C 72.91217,32.236512 90.031839,31.215512 104.75446,17.619703 C 109.82445,24.068543 110.36262,29.711277 110.90077,38.981484 z" style="fill:url(#linearGradient6291);fill-opacity:1;fill-rule:evenodd;stroke:none;stroke-width:1px;stroke-linecap:butt;stroke-linejoin:miter;stroke-opacity:1"/>
      <path style="fill:url(#linearGradient6288);fill-opacity:1;fill-rule:evenodd;stroke:none;stroke-width:1px;stroke-linecap:butt;stroke-linejoin:miter;stroke-opacity:1" d="M 160.33851,80.781958 C 162.55264,102.25605 165.06689,131.00738 171.78214,146.77672 C 173.31578,149.28903 176.73826,159.00592 178.27422,161.46512 C 177.97913,159.37316 174.64975,150.94796 174.77276,147.82171 C 172.61946,141.95748 171.26684,134.00542 169.43545,121.28858 C 169.5963,118.92285 174.14186,135.06627 174.70838,136.04898 C 177.27447,143.21428 179.71363,150.92217 182.4189,157.52327 C 174.86336,130.80916 171.4663,118.26514 171.91246,113.40233 C 173.16746,116.09793 175.743,118.2076 177.07859,120.34709 C 176.44775,112.11053 169.30431,94.730024 168.25539,86.208175 C 171.28443,95.282353 177.35835,110.03004 179.64058,116.69612 C 173.69867,97.548646 168.16719,85.955438 164.94272,63.340964 C 162.49104,66.619956 161.63333,71.897666 160.33851,80.781958 z" id="path3868" sodipodi:nodetypes="ccccccccccccc"/>
      <path sodipodi:nodetypes="ccccccccccccc" id="path3872" d="M 163.01695,71.928589 C 165.23109,84.33947 167.74534,100.9562 174.46059,110.07004 C 175.99423,111.52202 179.41671,117.13786 180.95267,118.55915 C 180.65758,117.35011 177.3282,112.48079 177.45121,110.67399 C 175.29791,107.28477 173.94528,102.68891 172.11389,95.339253 C 172.27475,93.971989 176.8203,103.30202 177.38683,103.86997 C 179.95291,108.01114 182.39207,112.46588 185.09735,116.28097 C 177.5418,100.84164 174.14475,93.591868 174.59091,90.78142 C 175.84591,92.339337 178.42145,93.558612 179.75704,94.795123 C 179.1262,90.034833 171.98275,79.989825 170.93383,75.06465 C 173.96287,80.309042 180.0368,88.83242 182.31903,92.685058 C 176.37712,81.618838 170.84564,74.918585 167.62117,61.848626 C 165.16948,63.743707 164.31178,66.793944 163.01695,71.928589 z" style="fill:url(#linearGradient6285);fill-opacity:1;fill-rule:evenodd;stroke:none;stroke-width:1px;stroke-linecap:butt;stroke-linejoin:miter;stroke-opacity:1"/>
      <path style="fill:url(#linearGradient6282);fill-opacity:1;fill-rule:evenodd;stroke:none;stroke-width:1px;stroke-linecap:butt;stroke-linejoin:miter;stroke-opacity:1" d="M 168.09929,132.31088 C 166.03321,144.72176 163.68708,161.33849 157.42088,170.45233 C 155.98979,171.90431 152.79618,177.52015 151.36292,178.94144 C 151.63828,177.7324 154.74503,172.86308 154.63025,171.05628 C 156.63956,167.66706 157.90173,163.0712 159.61066,155.72155 C 159.46056,154.35428 155.21896,163.68431 154.69032,164.25227 C 152.29583,168.39343 150.01977,172.84818 147.49539,176.66326 C 154.54571,161.22393 157.7156,153.97416 157.29928,151.16371 C 156.1282,152.72163 153.72488,153.94091 152.4786,155.17742 C 153.06726,150.41712 159.73303,140.37212 160.7118,135.44694 C 157.88531,140.69134 152.21755,149.21471 150.08793,153.06735 C 155.63251,142.00113 160.79411,135.30088 163.80295,122.23092 C 166.0907,124.126 166.89105,127.17624 168.09929,132.31088 z" id="path3876" sodipodi:nodetypes="ccccccccccccc"/>
      <path sodipodi:nodetypes="ccccccccccccc" id="path3880" d="M 20.95603,118.2857 C 23.34342,130.69658 26.054404,147.31331 33.295112,156.42715 C 34.948761,157.87913 38.639044,163.49497 40.295191,164.91626 C 39.977006,163.70722 36.387111,158.8379 36.519742,157.0311 C 34.197949,153.64188 32.739487,149.04602 30.764794,141.69637 C 30.938236,140.3291 35.839476,149.65913 36.450333,150.22709 C 39.217203,154.36825 41.847226,158.82299 44.76419,162.63808 C 36.617432,147.19875 32.954564,139.94898 33.435629,137.13853 C 34.788831,138.69645 37.565908,139.91572 39.006005,141.15224 C 38.325805,136.39194 30.623393,126.34694 29.492395,121.42176 C 32.758457,126.66615 39.307655,135.18953 41.768472,139.04217 C 35.361608,127.97595 29.397298,121.2757 25.920519,108.20574 C 23.276991,110.10082 22.352171,113.15106 20.95603,118.2857 z" style="fill:url(#linearGradient6279);fill-opacity:1;fill-rule:evenodd;stroke:none;stroke-width:1px;stroke-linecap:butt;stroke-linejoin:miter;stroke-opacity:1"/>
      <path style="fill:url(#linearGradient6276);fill-opacity:1;fill-rule:evenodd;stroke:none;stroke-width:1px;stroke-linecap:butt;stroke-linejoin:miter;stroke-opacity:1" d="M 22.742084,68.248916 C 20.443826,78.954642 17.015024,92.69054 19.302867,107.30992 C 20.029656,110.25486 20.880567,118.31325 21.61913,121.24206 C 21.781,120.09371 20.760532,112.62606 21.442995,111.65883 C 20.860878,106.67893 21.295816,102.00716 22.250489,94.976577 C 22.819874,94.334634 23.342683,106.20832 23.6009,107.31595 C 24.261431,113.31446 24.721048,119.34066 25.596138,125.31997 C 24.704781,105.62684 24.404,96.579815 25.664623,95.413676 C 26.139369,98.054917 27.755567,102.23771 28.39757,104.78485 C 29.449703,100.9686 27.129571,85.197999 27.908625,80.723436 C 28.572754,88.026989 30.551252,101.42534 31.083692,106.86641 C 30.033573,92.052237 27.887136,80.514926 29.610064,68.055262 C 27.079887,65.985654 25.419949,66.755355 22.742084,68.248916 z" id="path3884" sodipodi:nodetypes="ccccccccccccc"/>
      <path style="fill:url(#linearGradient6273);fill-opacity:1;fill-rule:evenodd;stroke:none;stroke-width:1px;stroke-linecap:butt;stroke-linejoin:miter;stroke-opacity:1" d="M 34.964082,59.610874 C 30.837412,70.806222 25.706807,85.974442 18.216606,92.172958 C 16.616865,92.976146 12.628386,97.079924 11.032029,97.852329 C 11.503616,96.793255 15.278995,93.37882 15.489507,91.571978 C 17.973535,89.130203 19.968497,85.19619 22.868134,78.773101 C 22.968047,77.378874 17.341081,84.650061 16.744568,84.977501 C 13.766353,87.986842 10.844106,91.35172 7.8013519,93.988467 C 17.142266,81.969446 21.396314,76.26581 21.500456,73.354026 C 20.126231,74.371031 17.654465,74.533711 16.26624,75.205972 C 17.657667,70.825101 25.687141,63.890779 27.473979,59.515644 C 23.895704,63.41438 17.07153,69.293283 14.392877,72.134707 C 21.549345,63.72924 27.576999,59.408579 32.705143,47.973521 C 34.51972,50.791765 34.73398,54.100429 34.964082,59.610874 z" id="path3888" sodipodi:nodetypes="ccccccccccccc"/>
      <path sodipodi:nodetypes="ccccccccccccc" id="path3892" d="M 106.4069,11.484643 C 147.87388,16.356725 171.75402,49.560125 175.17711,65.319634 C 175.01837,68.616844 179.31985,81.728463 179.11175,85.014858 C 177.75325,83.934422 175.53206,75.952711 172.64573,75.294462 C 170.85065,70.017108 164.22128,59.595699 156.02008,52.964166 C 153.73303,52.580973 162.5888,70.68789 162.57737,71.921052 C 164.86935,78.259093 167.8225,84.532397 169.41595,90.950056 C 157.81738,70.730969 152.14221,61.492445 147.26575,60.900658 C 147.68831,63.776196 145.60022,68.728508 145.42021,71.586513 C 139.26538,68.232993 135.10103,51.300684 129.3345,47.15914 C 132.57203,54.811531 130.26192,71.325909 132.5537,77.04423 C 132.23116,65.400887 129.25015,46.939501 114.61687,35.20137 C 121.17018,31.953217 118.97547,25.323744 106.4069,11.484643 z" style="fill:url(#linearGradient6270);fill-opacity:1;fill-rule:evenodd;stroke:none;stroke-width:1px;stroke-linecap:butt;stroke-linejoin:miter;stroke-opacity:1"/>
      <path sodipodi:nodetypes="ccccccccccccc" id="path3896" d="M 75.062392,11.573916 C 63.067574,14.649122 46.965369,18.13528 38.63774,27.528545 C 37.354826,29.675273 32.15587,34.460356 30.903355,36.610394 C 32.064364,36.199505 36.538038,31.543202 38.326329,31.719859 C 41.455657,28.708922 45.84713,26.823302 52.901275,24.272903 C 54.26093,24.501598 45.515792,30.852537 45.010811,31.64547 C 41.181057,35.23335 37.030972,38.64258 33.535013,42.426377 C 48.003296,31.869788 54.811337,27.124148 57.617057,27.756188 C 56.203658,29.512021 55.247972,33.119983 54.158221,34.989548 C 58.77956,34.116222 67.98238,24.124814 72.726366,22.665747 C 67.855509,26.900124 60.047933,35.395644 56.47509,38.586263 C 66.795578,30.281732 72.861666,22.542439 85.409153,18.052319 C 83.31411,14.610749 80.233718,13.401171 75.062392,11.573916 z" style="fill:url(#linearGradient6267);fill-opacity:1;fill-rule:evenodd;stroke:none;stroke-width:1px;stroke-linecap:butt;stroke-linejoin:miter;stroke-opacity:1"/>
    </g>
  </g>
  <metadata>
    <rdf:RDF>
      <cc:Work>
        <dc:format>image/svg+xml</dc:format>
        <dc:type rdf:resource="http://purl.org/dc/dcmitype/StillImage"/>
        <cc:license rdf:resource="http://creativecommons.org/licenses/publicdomain/"/>
        <dc:publisher>
          <cc:Agent rdf:about="http://openclipart.org/">
            <dc:title>Open Clip Art Library</dc:title>
          </cc:Agent>
        </dc:publisher>
        <dc:title>smiles blonde face</dc:title>
        <dc:date>2006-09-25T04:14:13</dc:date>
        <dc:description>smiling blonde woman</dc:description>
        <dc:source>http://openclipart.org/detail/210/smiles-blonde-face-by-tomas_arad</dc:source>
        <dc:creator>
          <cc:Agent>
            <dc:title>tomas_arad</dc:title>
          </cc:Agent>
        </dc:creator>
        <dc:subject>
          <rdf:Bag>
            <rdf:li>blonde</rdf:li>
            <rdf:li>clip art</rdf:li>
            <rdf:li>clipart</rdf:li>
            <rdf:li>face</rdf:li>
            <rdf:li>people</rdf:li>
            <rdf:li>person</rdf:li>
            <rdf:li>smiling</rdf:li>
            <rdf:li>woman</rdf:li>
          </rdf:Bag>
        </dc:subject>
      </cc:Work>
      <cc:License rdf:about="http://creativecommons.org/licenses/publicdomain/">
        <cc:permits rdf:resource="http://creativecommons.org/ns#Reproduction"/>
        <cc:permits rdf:resource="http://creativecommons.org/ns#Distribution"/>
        <cc:permits rdf:resource="http://creativecommons.org/ns#DerivativeWorks"/>
      </cc:License>
    </rdf:RDF>
  </metadata>
</svg>
